# G1 exterior visual; derived from pinned Unitree/TWIST2 CAD.
v -0.00906429719 -0.00394076155 0.000185164361
v -0.00892902911 -0.00544217322 -0.0011280044
v -0.00873427745 -0.00547082676 0.00232918281
v -0.00784123223 -0.0039421767 0.00454467628
v -0.00665604509 -0.00545144081 0.00615457119
v -0.00468189176 -0.0039421753 0.00776006561
v -0.00286772544 -0.00545143709 0.00859987084
v -0.000364325184 -0.00394218042 0.00905572716
v 0.000565099472 -0.00544217881 0.00898224302
v 0.00379652367 -0.00545144081 0.0082321316
v 0.00404337747 -0.00394217484 0.00811109878
v 0.0072927638 -0.00545143895 0.00538490992
v 0.00745077431 -0.00394218368 0.00515993033
v 0.00898491312 -0.00545143662 0.001205476
v 0.00871725567 -0.00394218415 0.00223821867
v 0.00896358211 -0.00394218089 -0.00133902219
v 0.00845426787 -0.00545143057 -0.00327216368
v 0.00720979739 -0.00394217158 -0.00549159758
v 0.00583219109 -0.00545144128 -0.00694026425
v 0.00367238 -0.00394217577 -0.00828568544
v 0.00278116181 -0.00544218346 -0.00855951104
v -0.00049945747 -0.00545143522 -0.00905163586
v 0.000565123511 -0.00394218136 -0.00898224581
v -0.00299488287 -0.00394218042 -0.00855391845
v -0.00479834294 -0.00545144128 -0.00769139547
v -0.00674534263 -0.00394217949 -0.00605303328
v -0.00791016221 -0.00545143476 -0.00442843046
v -0.00836798549 -0.00394217717 -0.00331314025
v 0.00871724449 0.00405781716 0.0022382196
v 0.00899857655 0.00405776687 -0.0011367664
v 0.00866882317 0.00557532813 0.00272568665
v 0.00738363527 0.00405865023 0.0052461694
v 0.00612122146 0.00553341117 0.00673934491
v 0.00413051294 0.0040587876 0.00805837288
v 0.00326819159 0.00556031708 0.00841753092
v 0.000565101742 0.00405781809 0.0089822337
v 0.00107223936 0.00556032266 0.00896583498
v -0.00250528287 0.00405894453 0.00870185159
v -0.00119120325 0.00556031102 0.00895081554
v -0.00337977498 0.0055603222 0.00837335642
v -0.0063875122 0.0040591741 0.0064186058
v -0.00535597326 0.00556031009 0.00726976991
v -0.00699554756 0.00556031475 0.00570948794
v -0.00836799294 0.00405781809 0.00331310998
v -0.00864349585 0.00557041774 0.00281400001
v -0.00906980038 0.0040567508 0.00028661656
v -0.0089981379 0.00556959491 -0.000644480926
v -0.00804112013 0.00405755034 -0.00420203246
v -0.00825429615 0.00558876013 -0.00376979355
v -0.00536629744 0.00556020113 -0.0073337811
v -0.00486001791 0.00405777199 -0.00765812863
v -0.00169637392 0.00554511324 -0.0088929506
v -0.000569525408 0.00405779574 -0.00905219838
v 0.00169393956 0.00557165081 -0.00887947157
v 0.00386186852 0.00405777246 -0.00820685737
v 0.00531658949 0.00556020299 -0.00736988802
v 0.00733786682 0.0040577664 -0.00533126434
v 0.00761372363 0.00555798551 -0.00483206753
v 0.00891615823 0.00554968975 -0.00175658299
v 0.00638376316 -0.00642323215 -0.0167621598
v -0.00499997847 -0.00644218083 -0.0225579031
v -0.00499998359 -0.00444217492 -0.0245579034
v -0.00499998918 -0.00644217897 -0.0245579053
v 0.00329115498 -0.00644217804 -0.0244231652
v 0.00284490502 0.0065578185 -0.0245072432
v -0.00499998638 0.00655781757 -0.0245578997
v -0.00499999197 0.00455782842 -0.0245579015
v -0.017499987 0.00455781771 -0.0245579071
v -0.0174999777 -0.00444217073 -0.024557909
v -0.0040225843 0.000169818697 0.00446169497
v -0.00334207923 0.000715275703 0.00372290262
v -0.00328636961 0.00118355651 0.0050213472
v -0.00245516398 0.00123024208 0.00436830753
v -0.00225632405 0.000959370809 0.00556190358
v -0.00161053031 0.000751039886 0.00473953038
v -0.00207063975 -0.000665020081 0.00564382784
v -0.00146335736 -0.000283967354 0.00478184735
v -0.00226930552 -0.00113522285 0.0044710855
v -0.00335443276 -0.00106548413 0.00498445099
v -0.00329515198 -0.000638844562 0.00376172923
v 0.00650840485 -0.00628748257 -0.0160311479
v 0.00513659324 -0.00632279506 -0.0147446916
v 0.00581529085 -0.00639444636 -0.0150426337
v 0.00265186629 -0.00638741022 -0.0153545216
v -0.0124297636 -0.00637304131 -0.00970844924
v -0.00882781856 -0.00636625849 -0.0128808273
v -0.00514916284 -0.00637713866 -0.0146942325
v -0.00152740453 -0.00635532383 -0.0155350873
v -0.0171506722 -0.00645043794 -0.00994024239
v -0.0168408975 -0.00624472601 -0.009605675
v -0.0174561981 -0.00622645579 -0.0101396954
v -0.0174364187 -0.00636886014 -0.0160933435
v -0.0175196566 -0.00618441543 -0.0195817593
v -0.017438449 -0.00639602123 -0.0226040687
v 0.00637552235 0.00655210856 -0.0167728923
v 0.00651068985 0.00631738082 -0.0163169652
v 0.00522520253 0.00643951911 -0.0147560015
v 0.00615372742 0.00650285836 -0.0153124109
v 0.00236295396 0.00648833299 -0.0153914299
v -0.00142217299 0.00647094892 -0.0155451084
v -0.00538580725 0.00647359714 -0.0145980613
v -0.00875528064 0.00649037492 -0.0129354345
v -0.0123899737 0.00648258859 -0.0097128246
v -0.0169501286 0.00637349114 -0.00964064896
v -0.0173396375 0.0065115192 -0.0100298701
v -0.0175020956 0.00634678639 -0.015643293
v -0.0174538363 0.00649627857 -0.0226194467
v -0.0174404345 0.00648070825 -0.01903704
v 0.00505850418 0.0060549546 0.00228137197
v 0.00465820218 0.00556401722 0.00205956097
v 0.00272915931 0.00605558883 0.00483670039
v 0.00313529815 0.00554545689 0.00390682416
v 0.00186407706 0.00555074634 0.00465818495
v -0.00066474831 0.00605577044 0.00551712094
v -0.000681716774 0.00557051506 0.00504375855
v -0.00380526227 0.00605616532 0.00405406533
v -0.00350464531 0.00551463058 0.00361055043
v -0.00546074705 0.00605661795 0.0010338201
v -0.00474484079 0.00555698015 0.00158663152
v -0.00500248047 0.00555303833 -0.000785525015
v -0.00500770193 0.00605633296 -0.00242451113
v -0.00354053755 0.00555264624 -0.00362837547
v -0.00260235579 0.00605653413 -0.00491923233
v -0.000657579978 0.00555206556 -0.00503100362
v 0.000812866259 0.00605649455 -0.00550627802
v 0.00249160267 0.00555202318 -0.00442310562
v 0.00391303282 0.00605623843 -0.00395864947
v 0.00421467563 0.00555478688 -0.00271714409
v 0.00546401227 0.00605538301 -0.000973898452
v 0.00497983862 0.00554463221 -0.000797455898
v -0.00500771124 -0.00594069716 0.00242448295
v -0.00352581055 -0.00540754618 0.00360365841
v -0.00260234927 -0.00594088901 0.00491923559
v -0.000705489481 -0.00544076599 0.00502951024
v 0.000812833081 -0.00594063383 0.00550606521
v 0.00247713248 -0.00540870382 0.00440062489
v 0.00391299929 -0.00594059238 0.00395867834
v 0.00422323449 -0.00541844638 0.00266508479
v 0.00546400854 -0.00593974255 0.000973940594
v 0.0049798293 -0.00542898802 0.000797497632
v 0.00505813956 -0.0059388373 -0.00228109374
v 0.00487013115 -0.00543183973 -0.00120554306
v 0.00381869078 -0.00542945741 -0.00334743294
v 0.00272911927 -0.00593995024 -0.00483673206
v 0.00104564556 -0.00543236127 -0.00496678101
v -0.000664760475 -0.00594042102 -0.00551740639
v -0.00214319676 -0.00543483673 -0.00459682662
v -0.0038052192 -0.00594051788 -0.00405409746
v -0.0044692792 -0.00543689448 -0.00238715787
v -0.00546073588 -0.00594097981 -0.00103385106
v -0.00500248466 -0.00543739507 0.000785507844
v -0.00823296048 0.00605782261 0.00211385824
v -0.00845191907 0.00605794648 -0.0013250974
v -0.00706827221 0.00605794601 0.00481979083
v -0.00387202017 0.00605793716 0.00762877753
v -0.000533731887 0.00605782541 0.00848322641
v 0.00239960686 0.00605795952 0.00821172073
v 0.00541809294 0.00605782634 0.00654937606
v 0.00742943818 0.00606030645 0.00429198425
v 0.00856024679 0.00606047409 2.53031693e-08
v 0.0070161554 0.00606139051 -0.00509748934
v 0.00264685624 0.00605884288 -0.00814593304
v -0.00267976103 0.00606183521 -0.0082475096
v -0.00688705826 0.0060573658 -0.00507977605
v 0.00851314329 -0.00594318565 -0.000880306528
v 0.00744861644 -0.00594217889 -0.00409489637
v 0.0056030713 -0.00594338821 -0.00646920037
v 0.00179353601 -0.00594318099 -0.00836849678
v -0.00159272947 -0.00594218029 -0.00834945124
v -0.00442112749 -0.00594338169 -0.00732794078
v -0.0074046934 -0.00594319217 -0.00429172395
v -0.00843297783 -0.00594218308 -0.00106533768
v -0.00833548605 -0.00594338821 0.00194025284
v -0.00636983616 -0.0059431917 0.00571607379
v -0.00361913908 -0.0059421747 0.0076910262
v -0.000730505679 -0.00594338495 0.00852708612
v 0.00346793025 -0.00594318658 0.00782444887
v 0.00619622413 -0.00594218448 0.00581865152
v 0.00788399857 -0.00594338123 0.00332977064
v 0.00462993374 0.000537141867 0.00381874014
v 0.00402744394 -0.000143386933 0.00296480139
v 0.00455611432 -0.000634031603 0.00391121907
v 0.00342963403 -0.00113704521 0.0036713779
v 0.00367072481 -0.00113801507 0.00476676412
v 0.00240901113 -0.00063533138 0.00438792072
v 0.0028405718 8.70299755e-06 0.00528885238
v 0.00227153674 0.000399693148 0.00445510074
v 0.00346982316 0.00114662887 0.00490695843
v 0.00300796051 0.00124763255 0.00401016511
v 0.00416646013 0.0011390968 0.00431968179
v 0.00381562207 0.000868853182 0.00322509441
v -0.0123145692 -0.00394216971 -0.0096875187
v -0.012360868 0.00405782321 -0.00967706647
v -0.0169592034 0.00405779295 -0.00962316059
v -0.017489953 0.00405765697 -0.0103343967
v -0.0168582257 -0.00394228008 -0.00960392319
v -0.0174791999 -0.00394238532 -0.0102418847
v -0.00499998778 0.00655781571 -0.0225579068
v -0.0244999826 -0.000520458329 -0.0115610436
v -0.0184999909 -0.000836426974 -0.0116249342
v -0.02449999 -0.00321801286 -0.0124610551
v -0.0184999947 -0.0034899083 -0.0126464283
v -0.02449999 -0.00551996101 -0.015192043
v -0.0184999909 -0.0056401859 -0.0154983662
v -0.0244999882 -0.00592540437 -0.018006308
v -0.0184999984 -0.00592540577 -0.018006295
v -0.0244999938 -0.00526959077 -0.0204437133
v -0.0184999928 -0.00510506472 -0.0207286701
v -0.0244999845 -0.00332209305 -0.0225153584
v -0.0184999853 -0.00332209445 -0.0225153565
v -0.024499977 -0.00100756041 -0.0235223174
v -0.0184999853 -0.000682134298 -0.023571359
v -0.0244999863 0.00182634837 -0.0232913531
v -0.0184999891 0.00283391913 -0.0229432993
v -0.0244999826 0.00405670283 -0.0221096221
v -0.0184999872 0.00538524007 -0.0204436909
v -0.0244999938 0.00564306881 -0.0197499618
v -0.0244999882 0.0061097471 -0.0172694344
v -0.0184999891 0.00604104623 -0.0180063024
v -0.0184999928 0.00563562196 -0.0151920523
v -0.0244999919 0.00489563169 -0.0139103513
v -0.0184999965 0.00413886365 -0.0131596057
v -0.0244999863 0.00216301391 -0.0118935192
v -0.0184997544 0.00176099839 -0.0117513547
v -0.0184984989 -0.00622644601 -0.0156297702
v -0.0184999928 -0.00637601689 -0.0184829663
v -0.0184999909 -0.00544158276 -0.0210921429
v -0.0174999908 -0.00410735328 -0.0226237085
v -0.0184999891 -0.00281988946 -0.0234511066
v -0.0174999852 -0.00177343318 -0.0237946287
v -0.0184999779 0.000823005044 -0.0240713954
v -0.0174999852 0.00115868053 -0.0240231305
v -0.0184999872 0.00422298629 -0.0226237215
v -0.0174999796 0.0044792816 -0.0224016383
v -0.0184991937 0.00640534516 -0.0193331502
v -0.0184999909 0.00649165595 -0.0166328792
v -0.0174999908 -0.00485455617 -0.013301312
v -0.0184999947 -0.00485455338 -0.0133013278
v -0.0174999908 -0.00281990459 -0.0116647324
v -0.0184999928 -0.00251142238 -0.011523854
v -0.0174999982 0.000823019946 -0.0110444343
v -0.0184999872 0.00115871837 -0.0110927075
v -0.0174999889 0.00422299234 -0.0124921184
v -0.0184999928 0.00357199251 -0.0120897647
v -0.0184999853 0.00555720925 -0.0140236514
v 0.0101144351 -0.00644218177 -0.019744847
v 0.007020385 -0.00644217525 -0.0229634047
v -0.0174032655 -0.00394217856 -0.000991700101
v -0.0174294207 0.0040578167 -0.00103261718
v 0.0113298669 0.00634714402 -0.0164682325
v 0.00989875477 0.00655781571 -0.0200870689
v 0.0066778874 0.0065578213 -0.0231786035
v 0.00515043922 0.00405788235 -0.0147004509
v 0.00619919738 0.00405781576 -0.0152692636
v 0.00650001504 0.00405782554 -0.0162153151
v -0.00895922538 0.0040577976 -0.0127082914
v -0.00430127885 0.00405779108 -0.0149423582
v 0.00083158206 0.00405777199 -0.0155270807
v 0.00526312646 -0.00394218601 -0.0147160497
v 0.00128705148 -0.00394213712 -0.0154942907
v -0.00385037297 -0.00394217949 -0.0150640579
v -0.00857317075 -0.0039421753 -0.0129714739
v 0.00627034204 -0.00394216785 -0.0153667144
v 0.00650000526 -0.00394217577 -0.0162153151
v 1.78974897e-05 0.00405782508 0.0129355835
v 0.0113738542 0.00405782228 0.00456695026
v 0.00702042319 0.00405782135 0.0112954322
v -0.00365989865 0.00405782089 0.0119932825
v -0.014099679 0.00405782368 0.00507921213
v 0.0101207215 0.00405782321 0.00806782767
v 0.00372520019 0.00405782089 0.0126392636
v -0.016270427 0.00405782694 0.00243185298
v 0.0114078792 -0.00394217856 0.00452159252
v -0.0142958304 -0.00394217949 0.00490193395
v -0.00389821548 -0.00394218042 0.0118806353
v 0.00990546308 -0.0039421781 0.00841039419
v 0.0114165824 -0.0039421753 -0.0161843151
v -0.000410880428 -0.00394217484 0.0129067246
v 0.00773488823 -0.00394217437 0.0107083013
v 0.00462974235 -0.00394217437 0.0124467378
v -0.0164368078 -0.0039421753 0.00212096749
v -0.0244999938 0.000730178319 -0.0150962044
v -0.0244999863 0.00240166788 -0.0165487435
v -0.0244999919 0.00249513751 -0.0181142185
v -0.0244999863 0.0015632679 -0.0196184311
v -0.0244999882 -0.000614542805 -0.02001963
v -0.0244999863 -0.00228602556 -0.0185670964
v -0.0244999826 -0.00144762779 -0.0154974088
v -0.0244999807 -0.00237949542 -0.0170016196
v -0.0189978369 5.78284016e-05 -0.017557919
v -0.0204913449 -0.000598280225 -0.0150925666
v -0.0204913486 0.00157626125 -0.0155078489
v -0.0204913467 0.00260735676 -0.0174668748
v -0.020491343 0.00171862449 -0.0194944609
v -0.0204999857 5.78199215e-05 -0.0200579166
v -0.0204913486 -0.00146060402 -0.0196079928
v -0.0204913467 -0.00249170628 -0.0176489707
v -0.0204999968 -0.00189675426 -0.0159991924
v 0.0114288945 0.00405781809 -0.0161839016
v 0.0113397278 -0.00620898837 -0.016385695
vn -0.9205888 -0.3680795 -0.1305133
vn -0.8976068 -0.3524297 0.2647551
vn -0.9994186 -0.01692305 0.02959906
vn -0.8695915 -0.03848968 0.4922694
vn -0.6845204 -0.3411307 0.6442527
vn -0.5244713 -0.04224687 0.8503793
vn -0.2936627 -0.3640283 0.883881
vn -0.0334546 -0.00169364 0.9994388
vn 0.1092645 -0.3903064 0.9141784
vn 0.3924615 -0.362467 0.8453353
vn 0.4594821 0.006222325 0.8881652
vn 0.7368481 -0.3880367 0.5536084
vn 0.8271453 -0.01097049 0.5618809
vn 0.9029188 -0.4107741 0.1265006
vn 0.953195 -0.03635084 0.300163
vn 0.9882369 -0.05228696 -0.1437145
vn 0.8634999 -0.3741439 -0.3382074
vn 0.8006873 -0.04224282 -0.5975913
vn 0.5979881 -0.3460721 -0.7229415
vn 0.4043941 -0.01880134 -0.9143916
vn 0.2852817 -0.3830842 -0.8785561
vn -0.05062423 -0.3908777 -0.9190494
vn 0.1162331 -0.0363533 -0.9925564
vn -0.3263421 -0.05229122 -0.9438042
vn -0.5068445 -0.3457686 -0.7896535
vn -0.728785 -0.05738075 -0.6823341
vn -0.8100197 -0.3691463 -0.4556305
vn -0.9402355 0.01078696 -0.3403539
vn 0.9757648 -0.03808393 0.2154824
vn 0.9946316 0.001680935 -0.1034657
vn 0.8677701 0.4210774 0.2639487
vn 0.8219666 0.05352767 0.5670146
vn 0.635698 0.3452708 0.6904173
vn 0.4563146 -0.02265591 0.8895301
vn 0.3351679 -0.02926053 0.9417039
vn 0.04354902 -0.005946132 0.9990336
vn 0.1215057 -0.05235898 0.9912088
vn -0.2853525 -0.02713271 0.9580385
vn -0.0743769 -0.09944231 0.9922597
vn -0.4252445 -0.05864859 0.9031762
vn -0.6986608 -0.03979376 0.7143455
vn -0.5432034 -0.09943974 0.8336917
vn -0.7140511 0.3891301 0.581987
vn -0.9144446 -0.0518996 0.4013694
vn -0.874171 0.389615 0.2898709
vn -0.9998232 0.00787893 0.01707396
vn -0.9243251 0.3747801 -0.07185426
vn -0.8743312 -0.008951481 -0.4852473
vn -0.8287717 0.4231712 -0.3661472
vn -0.5553045 0.4329098 -0.7100887
vn -0.5237719 -0.02412154 -0.851517
vn -0.1640253 0.3649045 -0.9164826
vn -0.05503534 -0.01439731 -0.9983805
vn 0.1462467 0.3928402 -0.9079033
vn 0.4127565 0.005247701 -0.9108263
vn 0.5373459 0.4168894 -0.7331185
vn 0.8103878 -0.01186518 -0.5857736
vn 0.823339 0.3233733 -0.4664145
vn 0.8833501 0.4222054 -0.203556
vn -0.9999999 2.619352e-06 5.355108e-06
vn 0.1935546 -0.004870447 -0.9810774
vn 0.01286343 -0.00386611 -0.9999098
vn 0.1674534 0.001442638 -0.9858789
vn 0.004303295 5.857034e-07 -0.9999908
vn 0.006456995 9.129711e-07 -0.9999791
vn 0.004304904 4.072101e-07 -0.9999907
vn 3.231848e-07 2.069612e-07 -1
vn 5.36204e-07 2.069613e-07 -1
vn 0.7363567 -0.6459351 0.2013616
vn 0.5696393 -0.7806481 0.2570985
vn 0.2951822 -0.951038 0.09162003
vn -0.05044863 -0.9984823 0.02208768
vn -0.2826753 -0.944521 -0.1672562
vn -0.4468394 -0.8856194 -0.1265413
vn -0.7953617 -0.1208735 -0.5939608
vn -0.790053 -0.126373 -0.5998719
vn -0.7882155 -0.1282562 -0.601886
vn -0.7806122 -0.1359418 -0.6100529
vn -0.4448328 0.8547761 -0.2673605
vn -0.6843347 0.709429 -0.1685124
vn -0.3682436 0.8828236 -0.2915804
vn -0.1078586 0.9289368 -0.3541791
vn 0.2156339 0.9186627 0.331
vn 0.8134442 0.5357782 0.2263848
vn 0.718088 0.04479909 0.6945089
vn -0.1828598 -0.9737656 0.1354362
vn 0.006041948 -0.9998987 0.01288914
vn -0.01223617 -0.8466989 0.5319316
vn -0.6553861 -0.05581355 0.7532289
vn -0.6664123 -0.05532727 0.7435278
vn -0.6425865 -0.2240446 0.7327254
vn -0.5984241 -0.8009955 0.01717076
vn -0.009081392 -0.9999587 -8.674725e-05
vn -0.924333 -0.3815822 0.001880075
vn -0.9473314 -0.3202405 -0.003032695
vn -0.9991823 -0.03777264 -0.01442148
vn 0.7251032 0.675694 0.1329025
vn -0.01688857 0.9369121 0.3491568
vn 0.001064848 0.9999375 0.01112911
vn -0.001150986 0.9940762 0.1086795
vn -0.8251059 0.5649309 0.007301222
vn -0.8734955 0.486708 0.01099714
vn -0.9254596 0.03268773 0.3774333
vn -0.6622983 0.6821228 -0.3099509
vn -0.848098 0.3809462 -0.3682522
vn -0.3621378 0.6860714 -0.6310009
vn -0.6611329 0.2954545 -0.6896448
vn -0.2031099 0.6325673 -0.7473988
vn 0.08887953 0.6836634 -0.7243651
vn 0.1267969 0.693206 -0.7094984
vn 0.48444 0.6964728 -0.5293804
vn 0.6442614 0.3832821 -0.6618324
vn 0.6777403 0.7235905 -0.1307091
vn 0.8678725 0.3490003 -0.3535478
vn 0.8363853 0.5344505 0.1217465
vn 0.5813395 0.7611164 0.2876565
vn 0.5948026 0.5495665 0.5866741
vn 0.2965203 0.7594778 0.5790243
vn 0.129194 0.5476239 0.8266904
vn -0.1068528 0.7571935 0.6443915
vn -0.3866087 0.5366245 0.7500452
vn -0.4899186 0.7233313 0.4865917
vn -0.6947585 0.6018527 0.3938069
vn -0.7173427 0.6867524 0.1174332
vn -0.7121771 0.6982848 0.07212531
vn 0.8291689 -0.5467283 -0.116478
vn 0.5879238 -0.5644525 -0.5794299
vn 0.5857621 -0.7572852 -0.2887937
vn 0.3008127 -0.753377 -0.5847519
vn 0.1320808 -0.5430688 -0.8292351
vn -0.1049027 -0.7583225 -0.6433836
vn -0.3820316 -0.5546831 -0.7391742
vn -0.4912537 -0.7221397 -0.4870153
vn -0.6927777 -0.6053711 -0.3918991
vn -0.7182273 -0.6859314 -0.1168231
vn -0.9143086 -0.3852161 -0.1250936
vn -0.6453241 -0.7090605 0.2842361
vn -0.9406263 -0.285346 0.1838475
vn -0.6386912 -0.5048437 0.5806948
vn -0.3288394 -0.7489831 0.5752294
vn -0.1701784 -0.5258583 0.833374
vn 0.07777418 -0.7540787 0.6521627
vn 0.3568997 -0.5354925 0.7654217
vn 0.4469877 -0.7590739 0.4732956
vn 0.7355594 -0.5477542 0.3986449
vn 0.638441 -0.7610819 0.1146625
vn -0.385715 0.9199049 0.07070323
vn -0.4370804 0.8959972 -0.07842088
vn -0.3736124 0.8942264 0.2465219
vn -0.1996479 0.9027082 0.3811279
vn -0.3792702 0.8151621 0.4377955
vn -0.2099962 0.7441635 0.6341313
vn 0.002464155 0.9006068 0.4346278
vn -0.1031539 0.7630378 0.6380695
vn 0.1167273 0.9026527 0.4142376
vn 0.02321777 0.8151519 0.5787818
vn 0.2866854 0.7375606 0.6114049
vn 0.2327267 0.9200007 0.3153364
vn 0.472406 0.8314897 0.2923311
vn 0.5192218 0.8544956 0.01568692
vn 0.4118045 0.8533662 -0.3196611
vn 0.1673738 0.8755923 -0.4531272
vn -0.1945068 0.8303057 -0.5222639
vn -0.4120173 0.8496106 -0.3292469
vn 0.5379051 -0.8408588 -0.06012225
vn 0.4060116 -0.8679889 -0.2859194
vn 0.4747808 -0.7086552 -0.5219108
vn 0.0937098 -0.8815917 -0.4626171
vn -0.1464993 -0.8678659 -0.474707
vn -0.3496503 -0.7086506 -0.6128287
vn -0.5891816 -0.7148705 -0.3765969
vn -0.6991149 -0.708807 -0.09397394
vn -0.6924233 -0.7072441 0.1426735
vn -0.537231 -0.7163565 0.4452149
vn -0.2299972 -0.890101 0.3934737
vn -0.04230302 -0.8736013 0.4848005
vn 0.1620206 -0.9088867 0.3842842
vn 0.3031068 -0.8901272 0.3402937
vn 0.5017166 -0.840843 0.2031343
vn -0.7361372 -0.3834106 0.5577619
vn -0.7706993 -0.106089 0.6283054
vn -0.8474057 0.09466434 0.5224385
vn -0.4433971 0.8061228 0.3918737
vn -0.4301758 0.6805611 0.593115
vn -0.4425069 0.8348283 0.3274896
vn -0.4225167 0.9014891 0.09379274
vn 0.435342 0.8301145 -0.3484067
vn 0.3907449 0.9165485 -0.08519005
vn 0.6212056 0.6034421 -0.4999613
vn 0.6668599 0.4170376 -0.6175577
vn 0.8476341 0.1456992 -0.5101843
vn 0.5669848 -0.5262172 -0.633738
vn 0.582681 -0.6097192 -0.5373317
vn 0.5858232 -0.6357738 -0.502596
vn 0.5883437 -0.7120446 -0.3832024
vn -0.07333979 -0.9945399 -0.07424106
vn -0.1262537 -0.9837582 0.1275926
vn -0.2863051 -0.9351915 0.2084377
vn -0.5005677 -0.6965563 0.514044
vn -0.0004418105 -0.9999994 0.001004867
vn -0.0006149692 -0.9999993 0.001028497
vn -0.0009796112 -0.9999994 0.0004409711
vn -0.001096253 -0.9999993 -0.0003642412
vn -0.0004847602 -0.9999998 -0.0005440447
vn -7.566329e-05 -0.9999996 -0.0008321517
vn 0.0002767201 -0.9999998 -0.0005366228
vn 0.0001256608 -0.9999998 0.0007340833
vn 0.0005902312 -0.9999998 9.166101e-05
vn 0.0004051095 -0.9999999 -2.602991e-05
vn 0.0006127585 -0.9999998 0.0004676261
vn 0.0006020213 -0.9999996 0.0006134098
vn 0.0005593609 -0.9999996 0.0006707236
vn 0.0006350414 -0.9999998 -0.0004117522
vn 0.0007337226 -0.9999997 -0.0003180352
vn 0.0007115871 -0.9999996 -0.0002721312
vn -0.001655626 0.9999985 0.0004934634
vn -0.001485851 0.9999988 -0.0004190963
vn -3.970231e-05 0.9999993 0.001157936
vn 0.0002021122 0.9999991 0.001291692
vn -0.001068928 0.9999981 0.001611204
vn 0.0004455594 0.9999999 -7.75267e-05
vn 0.0004362602 0.9999998 -0.0003655574
vn 0.0001150187 0.9999998 -0.0006388945
vn -0.0002967549 0.9999998 -0.0006880548
vn 0.0003673937 0.9999999 0.0001036652
vn -0.7888105 -0.02047913 0.6142952
vn -0.7053807 0.008117537 0.7087822
vn -0.9889542 0.01020112 0.1478696
vn -0.7036146 0.01757673 0.7103644
vn -0.7163795 0.02398323 0.6972985
vn -1 3.183265e-06 -6.984938e-07
vn 0.02327578 -0.0005854404 0.9997289
vn 0.0198474 -0.006833425 0.9997796
vn 0.02170886 -0.003441309 0.9997584
vn 0.01839473 -0.009480167 0.9997858
vn 2.068128e-07 -0.7071056 -0.7071078
vn 2.101185e-07 -0.7071053 -0.7071083
vn 2.073477e-07 -0.7071056 -0.7071079
vn 2.106568e-07 -0.7071052 -0.7071084
vn -2.370395e-07 0.7071068 -0.7071068
vn 0 0.7071083 -0.7071052
vn -3.802272e-08 0.7071081 -0.7071055
vn -2.75702e-07 0.7071064 -0.7071071
vn 0.01032739 -0.159247 0.9871848
vn -0.007462498 -0.1015842 0.994799
vn -0.008054759 -0.5590968 0.8290632
vn 0.008842401 -0.6021302 0.7983489
vn -0.008842938 -0.9123186 0.4093854
vn 0.005504533 -0.9305865 0.3660307
vn -0.004779928 -0.9979625 -0.06362321
vn 0.004779788 -0.9962989 -0.08582278
vn -0.00438653 -0.8754166 -0.4833492
vn 0.00438781 -0.8563014 -0.5164579
vn -0.004779242 -0.5724759 -0.8199077
vn 0.00478104 -0.5540805 -0.8324494
vn -0.004387232 -0.1679157 -0.9857916
vn 0.01508993 -0.1057906 -0.994274
vn -0.01205928 0.2754255 -0.9612468
vn 0.02810828 0.4537382 -0.8906917
vn -0.01532907 0.6690656 -0.7430453
vn 0.008429046 0.872377 -0.488761
vn -0.002139134 0.9311713 -0.364576
vn -0.008429806 0.9980502 0.06184415
vn 0.002138752 0.9971396 -0.07555147
vn 0.01532819 0.9252047 0.3791587
vn -0.02724006 0.7980325 0.6019985
vn 0.01316561 0.6672618 0.7447069
vn -0.01565888 0.3678638 0.9297479
vn 0.009801473 0.2869924 0.9578827
vn 0.02409858 -0.9938915 -0.1076991
vn -0.005899145 -0.979844 0.1996769
vn 0.006722551 -0.9428281 0.3332115
vn -0.04160573 -0.9488673 -0.3129213
vn 0.09299658 -0.8273411 -0.5539479
vn -0.09644209 -0.6544969 -0.7498885
vn 0.008361791 -0.4300741 -0.9027549
vn -0.05787984 -0.2258251 -0.9724469
vn -0.01837002 0.1020641 -0.9946082
vn -0.006835495 0.2148198 -0.9766298
vn -7.413574e-05 0.6134303 -0.7897488
vn -0.004567996 0.7029772 -0.7111979
vn 0.02202731 0.9519184 -0.3055586
vn -0.01448626 0.9801626 -0.1976647
vn 0.08213301 0.9946417 0.06278645
vn -0.05139376 0.9558672 0.2892691
vn 0.01094227 -0.7597512 0.6501217
vn -0.008799087 -0.7542438 0.6565356
vn -0.001239318 -0.4454131 0.8953243
vn 0.006834397 -0.3472876 0.9377338
vn -0.001493975 0.08455628 0.9964176
vn 0.02151736 0.1938653 0.9807921
vn -0.02222837 0.6373485 0.770255
vn 0.03823923 0.4821959 0.8752285
vn 0.1136728 0.8296705 0.5465578
vn -1 6.854441e-06 -2.267606e-05
vn -1 5.883743e-07 9.40198e-07
vn -0.9999999 2.087571e-05 -0.000315304
vn -0.9999999 -0.0001618208 -0.0004613065
vn -1 -0.0001356311 -0.0001013319
vn -1 -1.58861e-05 -2.290969e-06
vn -1 1.260569e-05 7.559799e-06
vn -1 8.394015e-06 6.3898e-06
vn -1 0.0001039568 -3.428914e-05
vn -0.9999996 0.0008767052 -0.0002802519
vn -0.9999993 0.00113528 -0.0003425572
vn -0.9999984 0.001603176 -0.000815808
vn -1 7.272603e-05 -3.915963e-05
vn -1 9.480213e-06 -1.709378e-05
vn -1 1.224983e-06 -1.213971e-05
vn -1 1.848261e-06 -1.017815e-05
vn -1 2.911557e-06 4.565319e-06
vn -1 1.552815e-05 1.181429e-05
vn -1 -4.676612e-06 -2.559838e-06
vn -1 -4.810985e-06 -3.077553e-06
vn -1 -1.169171e-05 2.435668e-06
vn -1 -0.000192138 4.39982e-05
vn -0.9999945 -0.002843147 0.00173132
vn -0.9999964 -0.002533969 0.0009170538
vn -1 -3.538921e-05 -3.004546e-05
vn -0.9999996 0.0003964814 -0.0008298194
vn 0.01625925 -0.9995117 0.02668658
vn 0.03781859 -0.9968683 0.06944931
vn 0.03266642 -0.9975607 0.0616894
vn -0.001273787 -0.9999817 0.005904853
vn -0.002548455 -0.9997651 0.02152505
vn -0.001964612 -0.9999092 0.01333804
vn 0.001694907 -0.9999742 0.006990163
vn -0.002113426 -0.9999821 0.005594653
vn -0.0004793841 -0.9999971 0.002332768
vn -1.819218e-05 -0.9999974 0.002269353
vn -0.001701126 -0.9999944 0.002880058
vn 1.274629e-07 -1 -1.316335e-06
vn -0.0187269 -0.999096 0.03816181
vn 0.1987772 -0.9690982 0.1460699
vn -0.06363568 -0.9979637 -0.004331252
vn -1 -8.74544e-07 -2.22169e-06
vn -0.9998717 0.01594798 0.001501422
vn -0.9999679 0.008010256 0.000294779
vn -0.999728 0.0231624 0.002701754
vn -0.9997216 0.02328525 0.003841149
vn -0.9999388 -0.01090242 0.001880579
vn -1 -9.728774e-07 -7.441934e-06
vn -0.9998351 -0.01751325 -0.004802763
vn -0.9992999 0.03338116 0.01689298
vn -0.9998674 -0.000689637 0.01627018
vn -0.987986 -0.0024398 0.154524
vn -0.9869229 0.001421787 0.1611874
vn -0.9999484 -0.00577789 0.008358934
vn -0.9999235 -0.005018575 0.01130535
vn -0.9998415 -0.01679814 0.005903696
vn -0.9996404 -0.02672237 0.00225055
vn -0.9992944 -0.03748196 -0.002423332
vn 0.01172079 0.01488509 0.9998205
vn 0.0128891 0.01268407 0.9998365
vn 0.0144238 0.009792484 0.9998481
vn 0.01564587 0.007489643 0.9998496
vn 1.492709e-05 0.9999998 0.0006660348
vn -1.247311e-07 1 7.040512e-07
vn -0.001122247 0.9999836 0.005610074
vn 0.003124992 0.9932541 0.1159156
vn 0.03640851 0.9962736 0.07818761
vn 0.01655419 0.9996763 0.01931992
vn -0.006153173 0.9996747 0.02475108
vn -0.001910008 0.9999089 0.01336031
vn -0.0004661404 0.9999995 0.0008698577
vn -0.002206552 0.9999942 0.002599069
vn -0.0002314959 0.9999894 0.004594248
vn -0.004598489 0.9999782 0.004740156
vn 0.007687772 0.9999105 0.01095218
vn -0.0527228 0.9982795 0.02565689
vn -0.008094718 0.9986591 0.05113173
vn 0.5025877 0.01927182 0.8643115
vn 0.4767544 0.005536912 0.879019
vn 0.4866154 0.01074845 0.8735502
vn 0.5126197 0.02467859 0.858261
vn 0.9456646 0.01397508 0.3248433
vn 0.9527302 0.02306379 0.3029411
vn 0.9502616 0.01980373 0.3108225
vn 0.9428374 0.01053044 0.333087
vn 0.6645975 0.01751201 0.7469963
vn 0.6651682 0.01899149 0.746452
vn 0.5622112 0.03082562 0.8264189
vn 0.5455415 0.03605035 0.837308
vn 0.2829961 0.03282651 0.9585592
vn 0.3688536 0.03320502 0.9288942
vn 0.09926679 0.04300338 0.9941311
vn -0.04789846 0.03753075 0.9981468
vn -0.1470549 0.02594 0.9887881
vn -0.2036245 0.04452009 0.9780363
vn -0.2161529 0.02954802 0.9759123
vn 0.09784412 -0.03132835 0.9947085
vn 0.1855305 0.0005308904 0.9826383
vn -0.07249472 -0.02429968 0.9970728
vn -0.1713373 -0.03936199 0.9844258
vn 0.09128532 -0.04445776 0.9948319
vn 0.252528 -0.04425858 0.9665768
vn 0.3524899 -0.03024849 0.9353266
vn 0.5416126 -0.03798822 0.8397694
vn 0.5630243 -0.02771004 0.8259757
vn 0.6600957 -0.03876475 0.7501806
vn 0.6605096 -0.03775689 0.7498676
vn 0.6233008 -0.04620504 0.7806158
vn 0.8052586 0.002200589 0.5929196
vn 0.8595672 -0.05663094 0.5078751
vn 0.9649966 0.02396416 0.2611652
vn 0.0001221966 1 -1.654919e-05
vn -0.0001252696 1 1.274452e-05
vn -0.0002352324 1 -1.570386e-05
vn -2.186261e-05 1 -0.0001221332
vn -3.496709e-07 1 4.096223e-06
vn 1.442815e-06 0.9999999 1.012188e-05
vn -5.042752e-07 1 -1.610565e-06
vn 1.763145e-05 0.9999999 0.0002371293
vn 1.291725e-05 1 0.000150418
vn 0.0001369817 1 -3.602107e-05
vn -1.586764e-05 1 -1.741478e-06
vn 9.460961e-06 1 4.232398e-05
vn -4.0619e-05 1 0.0001005572
vn 4.575149e-06 1 1.650054e-05
vn -1.698871e-05 1 1.673965e-05
vn 1.281085e-06 1 4.723821e-07
vn -2.891693e-06 1 2.962616e-06
vn -1.192117e-05 1 -6.108457e-06
vn 4.80989e-05 1 0.0001424034
vn 0.0001285628 1 0.0001792746
vn 0.0001803188 1 3.297739e-05
vn -0.0001210142 0.9999999 0.0003179622
vn -0.0001890924 1 0.0001827188
vn -5.949164e-06 1 -0.0001132811
vn 4.175381e-06 1 8.679838e-06
vn 1.380032e-06 1 7.095226e-06
vn -4.730345e-06 1 2.91071e-06
vn 6.988137e-05 1 -8.196972e-05
vn 0.0001799348 1 0.0001185342
vn 4.556952e-05 1 0.0002150424
vn -0.0001063854 0.9999999 -0.0003484198
vn 1.196886e-05 1 -7.252783e-05
vn 0.0001288942 1 -6.913453e-05
vn 9.0621e-05 -1 4.303922e-05
vn 0.000147759 -0.9999999 2.115791e-05
vn 9.087553e-05 -1 1.269781e-05
vn -1.277447e-06 -1 -2.644021e-07
vn 3.832455e-05 -1 0.0001389503
vn 1.240676e-05 -1 -8.946084e-06
vn 5.38661e-07 -1 1.257005e-06
vn 2.226078e-06 -1 -3.425963e-07
vn 1.603503e-06 -1 1.96313e-07
vn -2.159669e-07 -1 5.051935e-07
vn 8.028062e-05 -1 -0.0001429296
vn 8.466514e-05 -1 7.148249e-05
vn -6.026308e-06 -1 -0.0001192392
vn 3.620782e-07 -1 -2.482822e-07
vn -1.459854e-05 -1 4.458097e-06
vn -9.86957e-07 -1 -1.244308e-06
vn 2.14201e-06 -1 -2.315825e-06
vn -2.295439e-07 -1 -4.248881e-06
vn 3.124596e-06 -1 -4.437691e-06
vn 1.12969e-07 -1 1.358995e-06
vn 6.800418e-08 -1 9.158556e-07
vn 3.584231e-08 -1 9.575163e-06
vn -1.316116e-06 -1 8.451011e-07
vn 4.338657e-06 -1 1.319484e-06
vn 1.224827e-06 -1 -1.599173e-06
vn 8.348104e-07 -1 7.241057e-07
vn 9.977514e-07 -1 1.048782e-06
vn -3.460557e-07 -1 7.998821e-07
vn 8.116907e-08 -1 1.102556e-07
vn -5.052337e-07 -1 -2.515269e-07
vn 2.373676e-06 -1 -2.142651e-06
vn -1.111807e-06 -1 -2.035702e-07
vn 0.0001698344 -1 -8.35669e-05
vn -0.8106731 0.001439715 -0.5854973
vn -0.7620446 -0.02387868 -0.6470841
vn -0.6107994 -0.0183252 -0.7915732
vn -0.3285832 0.005013712 -0.9444616
vn -0.5529151 -0.01101004 -0.8331649
vn -0.5189823 -0.009681228 -0.8547301
vn -0.459624 0.01618146 -0.8879662
vn -0.6917834 0.004427039 -0.7220916
vn -0.8362201 0.02336529 -0.547896
vn 0.5665336 -0.0001707278 -0.8240386
vn 0.5889778 -0.001700142 -0.8081474
vn 0.7093263 0.02554851 -0.7044172
vn 0.3219529 0.002226263 -0.9467531
vn 0.1219419 0.02086983 -0.9923178
vn 0.4528131 0.0111371 -0.8915359
vn 0.3276905 -0.003513706 -0.9447786
vn 0.1396695 -0.01251423 -0.9901191
vn 0.488905 -0.01491583 -0.8722094
vn -0.9898785 -0.002350979 0.1418982
vn -0.738718 0.00750102 0.6739728
vn -0.83847 -0.001042617 0.5449467
vn -0.4690452 -0.01619617 0.8830256
vn -0.2048501 0.02023502 0.9785842
vn 0.1306652 -0.02020456 0.9912207
vn 0.4238319 0.02026056 0.9055142
vn 0.6991147 -0.02013632 0.714726
vn 0.8827657 0.02029513 0.4693749
vn 0.9835912 -0.01607579 0.1796935
vn 0.9870108 0.01677122 -0.159776
vn -0.6083944 -0.004799978 -0.7936203
vn -0.6385786 0.0006057249 -0.7695563
vn -0.5265481 0.00586445 -0.8501251
vn -0.7133613 0.01193152 -0.7006949
vn -0.6908224 -0.01353921 -0.7228978
vn -0.6813189 0.004612144 -0.7319722
vn 0.5147683 -0.001513851 -0.8573281
vn 0.5113173 0.0011128 -0.8593913
vn 0.6099147 -0.005457764 -0.7924483
vn 0.4613225 0.002839639 -0.8872279
vn 0.455108 0.007116781 -0.8904079
vn -0.6833103 -0.004482422 0.7301143
vn -0.4257699 -0.001852556 0.9048297
vn -0.6693676 0.001743667 0.7429293
vn -0.4070827 0.005333159 0.9133758
vn -1 -2.245575e-06 6.401227e-07
vn -1 -8.54527e-07 -4.586847e-07
vn -1 1.842127e-07 -5.783502e-07
vn -1 2.079722e-07 9.831519e-07
vn -1 -2.902234e-07 6.319336e-07
vn -1 -4.947087e-07 -6.77481e-07
vn -1 -4.512925e-07 -1.275211e-06
vn -1 2.577825e-07 -1.730111e-06
vn -1 -1.221243e-07 -9.913981e-07
vn -1 -6.295473e-08 -1.16583e-06
vn -1 -2.099242e-07 -3.106513e-06
vn -1 1.904161e-06 -1.959175e-06
vn -1 1.091249e-06 1.414139e-06
vn -1 1.153858e-06 5.153531e-07
vn -1 -9.359531e-07 2.609067e-06
vn -1 -1.36753e-07 -7.421849e-07
vn -1 -2.527281e-07 1.148379e-06
vn -1 2.191499e-06 1.291906e-07
vn -1 2.195825e-06 -1.386848e-06
vn -1 2.148623e-06 -1.058618e-06
vn -1 1.58315e-06 1.21695e-06
vn -0.9999961 -0.002565609 -0.001118475
vn -0.8628494 0.1122606 -0.4928373
vn -0.8629923 -0.3007017 -0.4059837
vn -0.8629925 -0.5048948 -0.01803159
vn -0.8629357 -0.3376724 0.3759244
vn -0.8571329 -0.008996363 0.5150169
vn -0.8628486 0.3153273 0.3950454
vn -0.8629349 0.5044464 0.02961648
vn -0.8571318 0.4082703 -0.3140707
vn 0.04285543 0.2569866 0.9654643
vn -0.01770121 -0.0270392 0.9994776
vn 0.02283513 -0.5692451 0.8218507
vn -0.02261687 -0.6716756 0.7405002
vn 0.01731552 -0.9675645 0.2520298
vn -0.04292888 -0.9986608 -0.02887255
vn 0.03208256 -0.8996509 -0.4354295
vn -0.04398343 -0.5951488 -0.802411
vn 0.04362103 -0.2625859 -0.9639221
vn -0.03272892 0.214546 -0.9761654
vn 0.0372533 0.5716333 -0.819663
vn -0.02608822 0.7956708 -0.6051673
vn 0.02621844 0.9684819 -0.2477002
vn -0.03718271 0.9975347 0.05951482
vn 0.0320803 0.8996508 0.4354301
vn -0.03272974 0.629432 0.776366
vn -0.006279808 -0.08827681 0.9960762
vn 0.05007886 0.03188916 0.998236
vn 0.0156853 -0.04160092 0.9990112
vn 0.07169759 0.07833856 0.9943453
vn 0.00880506 0.8901144 0.4556521
vn 0.03036034 0.124488 0.9917565
vn 0.003842233 0.06711996 0.9977375
vn 0.02002046 0.1021474 0.9945678
vn -0.006367111 0.04497043 0.998968
vn 0.9849163 0.003208301 0.1730017
vn 0.9836224 -0.001769062 0.1802328
vn 0.9741462 -0.001058302 -0.225916
vn 0.9734271 -0.001486249 -0.2289923
vn -0.09872988 -0.004659084 0.9951034
vn -0.07776362 -0.001829434 0.9969701
vn -0.8747863 0.004568156 0.4844875
vn -0.8885345 -0.003139053 0.4587989
vn 0.9395049 -0.001510176 -0.3425322
vn 0.9323089 0.004112426 -0.3616395
vn 0.8469645 -0.003268361 -0.5316394
vn 0.8282292 0.004784707 -0.560369
vn 0.5555871 -0.004823172 -0.8314443
vn 0.5216933 0.0047628 -0.8531198
vn 0.2930922 -0.01029804 0.9560288
vn 0.2204494 0.001452069 0.9753973
vn 0.5638691 0.0107713 0.8257939
vn 0.6234935 -0.001696213 0.7818267
vn 0.8416929 0.00214428 0.5399522
vn 0.8516399 0.004304536 0.5241095
f 2//1 3//2 1//3
f 1//3 3//2 4//4
f 4//4 3//2 5//5
f 4//4 5//5 6//6
f 6//6 5//5 7//7
f 6//6 7//7 8//8
f 8//8 7//7 9//9
f 8//8 9//9 10//10
f 8//8 10//10 11//11
f 11//11 10//10 12//12
f 11//11 12//12 13//13
f 13//13 12//12 14//14
f 13//13 14//14 15//15
f 15//15 14//14 16//16
f 16//16 14//14 17//17
f 16//16 17//17 18//18
f 18//18 17//17 19//19
f 18//18 19//19 20//20
f 20//20 19//19 21//21
f 20//20 21//21 22//22
f 20//20 22//22 23//23
f 23//23 22//22 24//24
f 24//24 22//22 25//25
f 24//24 25//25 26//26
f 26//26 25//25 27//27
f 26//26 27//27 28//28
f 28//28 27//27 2//1
f 28//28 2//1 1//3
f 29//29 30//30 31//31
f 29//29 31//31 32//32
f 32//32 31//31 33//33
f 32//32 33//33 34//34
f 33//33 35//35 34//34
f 34//34 35//35 36//36
f 35//35 37//37 36//36
f 36//36 37//37 38//38
f 37//37 39//39 38//38
f 39//39 40//40 38//38
f 38//38 40//40 41//41
f 40//40 42//42 41//41
f 42//42 43//43 41//41
f 41//41 43//43 44//44
f 43//43 45//45 44//44
f 44//44 45//45 46//46
f 46//46 45//45 47//47
f 46//46 47//47 48//48
f 47//47 49//49 48//48
f 48//48 49//49 50//50
f 48//48 50//50 51//51
f 51//51 50//50 52//52
f 51//51 52//52 53//53
f 52//52 54//54 53//53
f 53//53 54//54 55//55
f 55//55 54//54 56//56
f 55//55 56//56 57//57
f 57//57 56//56 58//58
f 57//57 58//58 59//59
f 57//57 59//59 30//30
f 30//30 59//59 31//31
f 61//60 62//60 63//60
f 64//61 63//62 65//63
f 65//63 63//62 62//64
f 66//65 65//63 67//66
f 67//66 65//63 62//64
f 67//66 62//64 68//67
f 68//67 62//64 69//68
f 70//69 71//70 72//71
f 72//71 71//70 73//72
f 72//71 73//72 74//73
f 74//73 73//72 75//74
f 74//75 75//76 76//77
f 76//77 75//76 77//78
f 76//79 77//80 78//81
f 76//79 78//81 79//82
f 79//83 78//83 80//83
f 79//84 80//84 70//84
f 70//85 80//85 71//85
f 89//86 85//87 90//88
f 90//89 91//90 89//91
f 91//92 92//93 89//86
f 92//94 93//95 94//96
f 98//97 96//97 95//97
f 104//98 103//99 105//100
f 108//101 106//102 105//103
f 109//104 110//105 111//106
f 110//105 112//107 111//106
f 112//107 113//108 111//106
f 111//106 113//108 114//109
f 113//108 115//110 114//109
f 114//109 115//110 116//111
f 115//110 117//112 116//111
f 116//111 117//112 118//113
f 117//112 119//114 118//113
f 118//113 119//114 120//115
f 118//113 120//115 121//116
f 120//115 122//117 121//116
f 121//116 122//117 123//118
f 122//117 124//119 123//118
f 123//118 124//119 125//120
f 124//119 126//121 125//120
f 125//120 126//121 127//122
f 126//121 128//123 127//122
f 127//122 128//123 129//124
f 128//123 130//125 129//124
f 129//124 130//125 109//104
f 109//104 130//125 110//105
f 151//126 132//127 131//128
f 131//128 132//127 133//129
f 132//127 134//130 133//129
f 133//129 134//130 135//131
f 134//130 136//132 135//131
f 135//131 136//132 137//133
f 136//132 138//134 137//133
f 137//133 138//134 139//135
f 138//134 140//136 139//135
f 139//135 140//136 141//137
f 140//136 142//138 141//137
f 142//138 143//139 141//137
f 141//137 143//139 144//140
f 143//139 145//141 144//140
f 144//140 145//141 146//142
f 145//141 147//143 146//142
f 146//142 147//143 148//144
f 147//143 149//145 148//144
f 148//144 149//145 150//146
f 150//146 149//145 151//126
f 150//146 151//126 131//128
f 152//147 153//148 47//47
f 47//47 45//45 152//147
f 152//147 45//45 154//149
f 45//45 43//43 154//149
f 154//149 43//43 155//150
f 43//43 42//151 155//150
f 42//151 40//152 155//150
f 155//150 40//152 156//153
f 40//152 39//154 156//153
f 156//153 39//154 157//155
f 39//154 37//156 157//155
f 37//156 35//157 157//155
f 157//155 35//157 158//158
f 35//157 33//33 158//158
f 158//158 33//33 159//159
f 159//159 33//33 31//31
f 159//159 31//31 160//160
f 160//160 31//31 59//59
f 160//160 59//59 161//161
f 161//161 59//59 58//58
f 161//161 58//58 56//56
f 161//161 56//56 162//162
f 162//162 56//56 54//54
f 162//162 54//54 163//163
f 54//54 52//52 163//163
f 163//163 52//52 50//50
f 163//163 50//50 164//164
f 164//164 50//50 49//49
f 164//164 49//49 153//148
f 153//148 49//49 47//47
f 14//14 165//165 17//17
f 17//17 165//165 166//166
f 17//17 166//166 167//167
f 17//17 167//167 19//19
f 19//19 167//167 168//168
f 19//19 168//168 21//21
f 21//21 168//168 22//22
f 22//22 168//168 169//169
f 22//22 169//169 170//170
f 22//22 170//170 25//25
f 25//25 170//170 171//171
f 25//25 171//171 27//27
f 27//27 171//171 172//172
f 27//27 172//172 2//1
f 2//1 172//172 173//173
f 2//1 173//173 3//2
f 3//2 173//173 174//174
f 3//2 174//174 5//5
f 5//5 174//174 175//175
f 5//5 175//175 7//7
f 7//7 175//175 176//176
f 7//7 176//176 9//9
f 9//9 176//176 177//177
f 9//9 177//177 10//10
f 10//10 177//177 178//178
f 10//10 178//178 12//12
f 12//12 178//178 179//179
f 12//12 179//179 14//14
f 14//14 179//179 165//165
f 180//180 181//181 182//182
f 182//183 181//184 183//185
f 182//183 183//185 184//186
f 184//187 183//188 185//189
f 184//187 185//189 186//190
f 186//190 185//189 187//191
f 186//192 187//193 188//194
f 188//194 187//193 189//195
f 188//196 189//197 190//198
f 190//198 189//197 191//199
f 190//198 191//199 180//180
f 180//180 191//199 181//181
f 144//200 167//201 141//202
f 141//202 167//201 166//166
f 141//202 166//166 165//165
f 141//202 165//165 139//203
f 165//165 179//179 139//203
f 139//203 179//179 137//204
f 137//204 179//179 178//178
f 137//204 178//178 177//177
f 137//204 177//177 135//205
f 135//205 177//177 176//176
f 135//205 176//176 133//206
f 146//207 169//169 168//168
f 146//207 168//168 144//200
f 144//200 168//168 167//201
f 150//208 172//209 171//210
f 150//208 171//210 148//211
f 148//211 171//210 170//212
f 148//211 170//212 146//207
f 146//207 170//212 169//169
f 133//206 176//176 175//175
f 133//206 175//175 174//213
f 133//206 174//213 131//214
f 131//214 174//213 173//215
f 131//214 173//215 150//208
f 150//208 173//215 172//209
f 160//160 129//216 109//217
f 125//218 162//162 163//163
f 125//218 163//163 123//219
f 129//216 160//160 161//161
f 129//216 161//161 127//220
f 127//220 161//161 125//218
f 125//218 161//161 162//162
f 118//221 154//149 116//222
f 116//222 154//149 155//150
f 116//222 155//150 114//223
f 114//223 155//150 156//153
f 114//223 156//153 111//224
f 123//219 163//163 164//164
f 123//219 164//164 121//225
f 121//225 164//164 153//148
f 121//225 153//148 118//221
f 118//221 153//148 152//147
f 118//221 152//147 154//149
f 156//153 157//155 111//224
f 111//224 157//155 158//158
f 111//224 158//158 109//217
f 109//217 158//158 159//159
f 109//217 159//159 160//160
f 194//226 104//227 105//103
f 194//226 105//103 195//228
f 90//89 196//229 91//90
f 91//90 196//229 197//230
f 66//231 67//231 198//231
f 90//232 85//233 196//234
f 196//234 85//233 192//235
f 61//236 94//237 62//238
f 62//238 94//237 69//239
f 107//240 198//241 67//242
f 107//240 67//242 68//243
f 200//244 199//245 201//246
f 200//244 201//246 202//247
f 202//247 201//246 203//248
f 202//247 203//248 204//249
f 204//249 203//248 205//250
f 204//249 205//250 206//251
f 206//251 205//250 207//252
f 206//251 207//252 208//253
f 208//253 207//252 209//254
f 208//253 209//254 210//255
f 210//255 209//254 211//256
f 210//255 211//256 212//257
f 212//257 211//256 213//258
f 212//257 213//258 214//259
f 214//259 213//258 215//260
f 214//259 215//260 216//261
f 216//261 215//260 217//262
f 216//261 217//262 218//263
f 216//261 218//263 219//264
f 219//264 218//263 220//265
f 220//265 218//263 221//266
f 220//265 221//266 222//267
f 222//267 221//266 223//268
f 222//267 223//268 224//269
f 224//269 223//268 199//245
f 224//269 199//245 200//244
f 226//270 92//271 225//272
f 226//270 93//273 92//271
f 226//270 227//274 93//273
f 93//273 227//274 228//275
f 228//275 227//274 229//276
f 228//275 229//276 230//277
f 230//277 229//276 231//278
f 230//277 231//278 232//279
f 232//279 231//278 233//280
f 232//279 233//280 234//281
f 234//281 233//280 235//282
f 234//281 235//282 108//283
f 236//284 106//285 235//282
f 235//282 106//285 108//283
f 225//272 92//271 237//286
f 225//272 237//286 238//287
f 238//287 237//286 239//288
f 238//287 239//288 240//289
f 240//289 239//288 241//290
f 240//289 241//290 242//291
f 242//291 241//290 243//292
f 242//291 243//292 244//293
f 244//293 243//292 245//294
f 245//294 243//292 106//285
f 245//294 106//285 236//284
f 200//295 240//296 242//297
f 200//295 242//297 224//298
f 224//298 242//297 244//299
f 224//298 244//299 222//300
f 222//300 244//299 245//301
f 222//300 245//301 220//302
f 220//302 245//301 236//303
f 220//302 236//303 219//304
f 219//304 236//303 235//305
f 219//304 235//305 216//306
f 216//306 235//305 233//307
f 216//306 233//307 214//308
f 214//308 233//307 231//309
f 214//308 231//309 212//310
f 212//310 231//309 229//311
f 212//310 229//311 210//312
f 210//312 229//311 208//313
f 208//313 229//311 227//314
f 208//313 227//314 206//315
f 206//315 227//314 226//316
f 206//315 226//316 204//317
f 204//317 226//316 225//318
f 204//317 225//318 202//319
f 202//319 225//318 238//320
f 202//319 238//320 240//296
f 202//319 240//296 200//295
f 246//321 300//322 60//323
f 61//324 84//325 88//326
f 61//324 88//326 87//327
f 61//324 87//327 94//328
f 87//327 86//329 94//328
f 94//328 86//329 92//93
f 92//93 86//329 85//87
f 92//93 85//87 89//86
f 60//323 64//330 247//331
f 63//332 64//330 61//324
f 61//324 64//330 60//323
f 61//324 60//323 84//325
f 84//325 60//323 82//333
f 60//323 247//331 246//321
f 81//334 83//335 60//323
f 60//323 83//335 82//333
f 232//336 234//337 68//338
f 68//338 234//337 107//339
f 107//339 234//337 108//340
f 232//336 68//338 69//341
f 232//336 69//341 230//342
f 94//96 93//95 228//343
f 94//96 228//343 69//341
f 69//341 228//343 230//342
f 105//103 106//102 243//344
f 105//103 243//344 195//228
f 195//228 243//344 241//345
f 248//346 249//347 197//348
f 197//348 249//347 195//228
f 197//348 195//228 241//345
f 241//345 239//349 197//348
f 197//348 239//349 91//350
f 91//350 239//349 237//351
f 91//350 237//351 92//352
f 193//353 103//354 194//355
f 194//355 103//354 104//356
f 65//357 66//358 198//359
f 95//360 250//361 251//362
f 99//363 198//359 100//364
f 99//363 95//360 198//359
f 198//359 95//360 65//357
f 65//357 95//360 252//365
f 108//366 102//367 107//368
f 107//368 102//367 198//359
f 198//359 102//367 101//369
f 198//359 101//369 100//364
f 95//360 251//362 252//365
f 98//370 95//360 97//371
f 97//371 95//360 99//363
f 105//100 103//99 108//366
f 108//366 103//99 102//367
f 97//372 253//373 254//374
f 97//372 254//374 98//375
f 98//376 254//377 255//378
f 98//376 255//378 96//379
f 103//380 193//381 256//382
f 103//380 256//382 102//383
f 102//383 256//382 257//384
f 102//383 257//384 101//385
f 101//385 257//384 100//386
f 100//386 257//384 258//387
f 100//386 258//387 99//388
f 99//388 258//387 253//389
f 99//388 253//389 97//390
f 82//391 259//392 260//393
f 82//391 260//393 84//394
f 84//394 260//393 88//395
f 88//395 260//393 261//396
f 88//395 261//396 87//397
f 87//397 261//396 262//398
f 87//397 262//398 86//399
f 86//399 262//398 192//400
f 86//399 192//400 85//401
f 259//392 82//391 83//402
f 259//392 83//402 263//403
f 263//403 83//402 81//404
f 263//403 81//404 264//405
f 249//406 194//407 195//408
f 254//409 299//410 255//411
f 36//412 38//413 265//414
f 266//415 299//410 30//416
f 193//417 48//418 256//419
f 256//419 48//418 51//420
f 256//419 51//420 257//421
f 257//421 51//420 53//422
f 257//421 53//422 258//423
f 34//424 267//425 32//426
f 265//414 38//413 268//427
f 268//427 38//413 41//428
f 268//427 41//428 269//429
f 254//409 253//430 299//410
f 299//410 253//430 53//422
f 53//422 253//430 258//423
f 53//422 55//431 299//410
f 299//410 55//431 57//432
f 299//410 57//432 30//416
f 266//415 30//416 29//433
f 266//415 29//433 32//426
f 266//415 32//426 270//434
f 270//434 32//426 267//425
f 36//412 265//414 34//424
f 34//424 265//414 271//435
f 34//424 271//435 267//425
f 269//429 41//428 44//436
f 269//429 44//436 46//437
f 193//417 194//407 48//418
f 48//418 194//407 46//437
f 46//437 194//407 249//406
f 46//437 249//406 272//438
f 46//437 272//438 269//429
f 248//439 197//440 196//441
f 26//442 28//443 192//444
f 13//445 15//446 273//447
f 273//447 15//446 16//448
f 274//449 1//450 4//451
f 274//449 4//451 275//452
f 18//453 20//454 259//455
f 259//455 20//454 260//456
f 260//456 20//454 23//457
f 13//445 273//447 276//458
f 13//445 276//458 11//459
f 264//460 277//461 263//462
f 263//462 277//461 273//447
f 263//462 273//447 259//455
f 259//455 273//447 16//448
f 259//455 16//448 18//453
f 4//451 6//463 275//452
f 275//452 6//463 8//464
f 11//459 278//465 8//464
f 8//464 278//465 275//452
f 276//458 279//466 11//459
f 11//459 279//466 280//467
f 11//459 280//467 278//465
f 24//468 261//469 23//457
f 23//457 261//469 260//456
f 26//442 192//444 262//470
f 26//442 262//470 24//468
f 24//468 262//470 261//469
f 274//449 281//471 1//450
f 1//450 281//471 248//439
f 1//450 248//439 28//443
f 28//443 248//439 196//441
f 28//443 196//441 192//444
f 110//105 181//472 191//473
f 110//105 191//473 189//474
f 110//105 189//474 112//107
f 113//475 189//474 187//476
f 112//107 189//474 113//475
f 187//476 185//477 136//478
f 136//478 185//477 183//479
f 136//478 183//479 138//480
f 138//480 183//479 181//472
f 71//481 80//482 132//483
f 77//484 134//485 78//486
f 132//483 80//482 78//486
f 132//483 78//486 134//485
f 77//484 75//487 115//488
f 115//488 75//487 73//489
f 115//488 73//489 117//112
f 117//112 73//489 71//481
f 134//485 77//484 115//488
f 134//485 115//488 136//478
f 136//478 115//488 113//475
f 136//478 113//475 187//476
f 138//480 181//472 110//105
f 138//480 110//105 140//136
f 140//136 110//105 130//490
f 140//136 130//490 142//138
f 142//138 130//490 143//491
f 143//491 130//490 128//492
f 143//491 128//492 126//493
f 143//491 126//493 145//494
f 145//494 126//493 124//495
f 145//494 124//495 147//496
f 147//496 124//495 122//497
f 147//496 122//497 149//498
f 149//498 122//497 120//499
f 149//498 120//499 151//500
f 151//500 120//499 119//114
f 151//500 119//114 132//483
f 132//483 119//114 117//112
f 132//483 117//112 71//481
f 188//501 184//502 186//503
f 180//504 182//505 184//502
f 188//501 190//506 184//502
f 184//502 190//506 180//504
f 72//507 79//508 70//509
f 79//508 72//507 74//510
f 79//508 74//510 76//511
f 274//512 275//513 269//514
f 269//514 275//513 268//515
f 282//516 221//517 283//518
f 221//517 218//519 283//518
f 283//518 218//519 284//520
f 284//520 218//519 217//521
f 284//520 217//521 285//522
f 285//522 217//521 215//523
f 285//522 215//523 213//524
f 285//522 213//524 286//525
f 286//525 213//524 211//526
f 286//525 211//526 209//527
f 286//525 209//527 287//528
f 287//528 209//527 207//529
f 282//516 223//530 221//517
f 288//531 199//532 282//516
f 282//516 199//532 223//530
f 289//533 203//534 288//531
f 288//531 203//534 201//535
f 288//531 201//535 199//532
f 287//528 207//529 205//536
f 287//528 205//536 289//533
f 289//533 205//536 203//534
f 290//537 291//538 292//539
f 292//539 293//540 290//537
f 290//537 294//541 295//542
f 293//540 294//541 290//537
f 290//537 296//543 297//544
f 295//542 296//543 290//537
f 290//537 298//545 291//538
f 297//544 298//545 290//537
f 286//546 295//547 285//548
f 285//548 295//547 294//549
f 285//548 294//549 284//550
f 284//550 294//549 293//551
f 284//550 293//551 283//552
f 283//552 293//551 292//553
f 283//552 292//553 282//554
f 282//554 292//553 291//555
f 282//554 291//555 288//556
f 288//556 291//555 298//557
f 288//556 298//557 289//558
f 289//558 298//557 297//559
f 289//558 297//559 287//560
f 287//560 297//559 296//561
f 287//560 296//561 286//546
f 286//546 296//561 295//547
f 277//562 264//563 300//564
f 300//564 264//563 81//565
f 300//322 81//334 60//323
f 250//361 95//360 96//566
f 250//567 96//568 299//569
f 299//569 96//568 255//570
f 266//571 273//572 299//573
f 299//573 273//572 277//574
f 268//515 275//513 278//575
f 268//515 278//575 265//576
f 274//512 269//514 272//577
f 274//512 272//577 281//578
f 281//578 272//577 249//347
f 281//578 249//347 248//346
f 277//574 300//579 299//573
f 250//580 299//573 300//579
f 250//580 300//579 246//581
f 250//580 246//581 251//582
f 251//582 246//581 247//583
f 251//582 247//583 252//584
f 252//584 247//583 64//61
f 252//584 64//61 65//63
f 265//576 278//575 280//585
f 265//576 280//585 271//586
f 271//586 280//585 267//587
f 267//587 280//585 279//588
f 267//587 279//588 276//589
f 267//587 276//589 270//590
f 270//590 276//589 273//572
f 270//590 273//572 266//571
