# G1 exterior visual; derived from pinned Unitree/TWIST2 CAD.
v 0.049910266 -0.00160672585 0.00071821973
v 0.0447044298 -0.00479068374 0.00226257648
v 0.0460190773 -0.00185612799 0.00790312141
v 0.0459820479 -0.00415301649 0.00284163514
v 0.047501009 -0.00338772894 0.00200266577
v 0.045474235 -0.00409967499 0.00454996107
v 0.0481319726 -0.00273332116 0.00382579188
v 0.0455475599 -0.00322279241 0.00677885767
v 0.047232341 -0.00270519638 0.00582315587
v 0.0475141369 -0.00177074003 0.00690649776
v 0.0470274128 0.000153144909 0.00837762654
v 0.045270212 -0.000203612319 0.00895977207
v 0.0491490476 -0.00226989482 0.00180802809
v 0.0490922593 -0.00146572094 0.00549645163
v 0.0499656126 -0.00132849114 0.003628921
v 0.0501380302 -0.000409021421 0.00517086359
v 0.0485232696 0.000831992424 0.00770822167
v 0.0489340164 -0.000556233397 0.00663347309
v 0.0512361899 0.000283151225 0.00270200311
v 0.0457464717 0.00186903717 0.00925039779
v 0.0467699692 0.00315334485 0.00901875459
v 0.0484613068 0.00249069231 0.00821956433
v 0.0477106534 0.00465582823 0.00868816394
v 0.0498930141 0.00266186008 0.00728083309
v 0.0500828885 0.000936100143 0.00638923002
v 0.0516625158 0.00218045339 0.00422566012
v 0.0510206595 0.00249393424 0.00608243933
v 0.0518231876 0.00388144865 0.00362001266
v 0.0509868003 0.00442855572 0.00540844491
v 0.0509616062 0.00396048464 0.00634673936
v 0.0389898904 0.00248300075 0.0107530197
v 0.0379169881 0.0042777909 0.0109034106
v 0.0412350819 0.0026662224 0.0103830528
v 0.0417848341 0.00403060252 0.0102522904
v 0.042420689 0.0063640005 0.00669125747
v 0.0420697518 0.00602904754 0.00972697325
v 0.0428112224 0.00546123739 0.0100322748
v 0.042069301 0.00134772086 0.0101421652
v 0.0442259833 0.00230031461 0.0097306855
v 0.0442308597 0.00374292396 0.00974683929
v 0.0478600189 0.00510146189 0.00815094262
v 0.0396454036 -0.00636018906 0.00267558265
v 0.0385439619 -0.00637772633 0.00448755547
v 0.0376022719 -0.00601605652 0.00671780854
v 0.0391524322 -0.00531550264 0.0073336293
v 0.0402324349 -0.0057446193 0.00535762869
v 0.038727589 -0.004342061 0.00876061432
v 0.0393392593 -0.0030778863 0.00947431102
v 0.0375900976 0.000472471322 0.0107691297
v 0.0408452563 -0.00611562934 0.00129606237
v 0.0415032916 -0.00578830857 0.00340218865
v 0.0425372161 -0.00531319389 0.00426201709
v 0.0417317376 -0.00500555662 0.00626314385
v 0.0408445001 -0.00452320976 0.00777109433
v 0.0425135717 -0.00412504096 0.00746526476
v 0.0411407873 -0.00271668518 0.00925562531
v 0.0422276966 -0.00323630893 0.0085715577
v 0.0397477709 -0.00111109216 0.0101835821
v 0.0404449254 0.000291341479 0.0103210034
v 0.0416292548 -0.000768988451 0.0098736966
v 0.0435618535 -0.00530713564 0.00127175474
v 0.0439715981 -0.00434610667 0.0059109116
v 0.0438484289 -0.00312906085 0.00796353538
v 0.0433664359 -0.000111308509 0.00961720292
v 0.0442098491 -0.00156436849 0.00887255836
v 0.0459444411 -0.00336579536 -0.00616237987
v 0.0459181815 -0.00436797738 -0.00068280613
v 0.0457722358 -0.00408049114 -0.00408941414
v 0.047132086 -0.00357681047 -0.00237093354
v 0.0476625673 -0.00311004324 -0.00358537771
v 0.0473358668 -0.0035623475 -0.000337253296
v 0.0461238362 -0.00186879258 -0.00789312087
v 0.0457994156 -0.000773638836 -0.0086605018
v 0.0475067012 -0.00202640076 -0.00673069572
v 0.0480160937 -0.000410274224 -0.00758563401
v 0.0488707088 -0.00254369667 -5.12730985e-05
v 0.049178455 -0.00139598409 -0.00561063597
v 0.0492121615 0.000162417098 -0.00697245682
v 0.0475718938 -0.00273730257 -0.00521350605
v 0.0489088409 -0.00232476019 -0.00336671039
v 0.0501587167 -0.000941104256 -0.00429518102
v 0.0502950139 -0.00109250203 -0.00264543132
v 0.0505738072 0.000457842223 -0.00530453818
v 0.0507938154 -0.000542051333 -0.000334663928
v 0.0459002666 0.00149989326 -0.00923405029
v 0.0474936403 0.000765287376 -0.00840245094
v 0.0470175631 0.00301835872 -0.00899466779
v 0.0467986241 0.00528078387 -0.0086963363
v 0.0482638963 0.00527772773 0.00367556466
v 0.0482949875 0.00259215664 -0.00841865037
v 0.0495802872 0.00250170333 -0.00761769898
v 0.0501217134 0.000751698914 -0.00635740906
v 0.0495767295 0.00430285186 -0.00770795066
v 0.0480704531 0.00530252606 -0.00432587182
v 0.0513347611 0.00222592428 -0.00538469572
v 0.0511756502 0.000316548598 -0.00308188074
v 0.0517638773 0.00225556851 -0.00362078752
v 0.0519279912 0.00208569202 -0.000146447826
v 0.0506227426 0.00264910515 -0.00670533068
v 0.0510930456 0.00435871026 -0.0058934968
v 0.051667843 0.00426413445 0.000132190689
v 0.0518948883 0.00370948715 -0.00346330111
v 0.0375636332 -0.00654537091 -0.00498430664
v 0.0388882235 -0.00660699746 -0.0020449413
v 0.0395643637 -0.00612969464 -0.00463068997
v 0.0389113277 -0.0066370368 2.78185726e-05
v 0.0383266583 -0.005899827 -0.00669531198
v 0.0389694683 -0.004845683 -0.00825326052
v 0.0399858095 -0.000363779895 -0.0103667369
v 0.0400728248 -0.00555896293 -0.00623665098
v 0.0406879112 -0.00611375645 -0.00258081313
v 0.0418217629 -0.0056474912 -0.00362878549
v 0.0409949608 -0.0061017531 -0.000283519825
v 0.0404917523 -0.00396856619 -0.00862655975
v 0.0402248986 -0.00245794607 -0.00972414296
v 0.0422379002 -0.00316771585 -0.00872982759
v 0.0413697958 -0.00450154999 -0.00759446574
v 0.0418510661 -0.00531683024 -0.00527012954
v 0.0418267809 -0.000424648082 -0.0100221243
v 0.0427728146 -0.00556407217 -0.00121969136
v 0.0435025357 -0.00537487259 9.38709418e-05
v 0.0439974181 -0.00254288153 -0.00852094777
v 0.0429577194 -0.00424913364 -0.00711181201
v 0.0440839343 -0.00448714523 -0.00543711707
v 0.0451065786 -0.00306406664 -0.0074076741
v 0.0436618775 -0.00501580816 -0.00386950443
v 0.044460699 -0.00495719863 -0.00143565529
v 0.0424902476 -0.00119814812 -0.00965110585
v 0.0444358364 0.000485277094 -0.0095381299
v 0.0441124067 -0.00158619566 -0.00898729172
v 0.0405132174 0.00129442499 -0.0105312895
v 0.0396347493 0.00353080523 -0.0107477987
v 0.0419622995 0.00400446355 -0.010313998
v 0.0406974368 0.00621796679 -0.0101102339
v 0.0429760069 0.00641990919 -0.000909684168
v 0.0427973866 0.001833188 -0.0101118153
v 0.0434979312 0.00330924452 -0.0100614242
v 0.0449993536 0.00330048334 -0.00967129134
v 0.0458426215 0.00490878941 -0.00946589559
v 0.0319222584 0.00172544317 0.0114568537
v 0.0331441537 0.00293775229 0.0114414888
v 0.0330133662 0.00476030121 0.0114817815
v 0.0345692448 0.00740037533 0.00789139513
v 0.036130704 0.00675206305 0.0106831761
v 0.0364423506 0.00322082546 0.0111135133
v 0.0357114151 0.00468651811 0.0111793391
v 0.0363806225 0.00623396039 0.011083209
v 0.0241194572 0.00313903019 0.0120526114
v 0.0243070833 0.00483594416 0.0121647613
v 0.0267327875 0.00458752178 0.0120194303
v 0.0278425831 0.00795313437 0.00825369172
v 0.0264709368 0.00190552359 0.0118136946
v 0.0283077434 0.0029317406 0.0118035274
v 0.0247068573 0.00658834819 0.0121742217
v 0.0275817849 0.00724901538 0.011574571
v 0.0295093004 0.00672132149 0.0117971646
v 0.0292555708 0.00826257467 0.00391625334
v 0.0298102293 0.00318509992 0.0117051974
v 0.0294273011 0.00508060306 0.0118220467
v 0.0320975929 -0.00619464368 0.00852434989
v 0.0302018337 -0.00218610512 0.0109870238
v 0.0327504538 -0.00765487319 0.00308816135
v 0.0338138118 -0.0076083946 0.000395446667
v 0.0326371752 -0.00738069974 0.00529457023
v 0.0336450487 -0.00669662049 0.00716473069
v 0.0336735174 -0.00522266794 0.00917516742
v 0.0311903786 -0.00421053823 0.0102125127
v 0.0324028619 -0.00312346197 0.0105227996
v 0.0343367122 -0.00405394984 0.0098790247
v 0.0341338478 -0.00151748932 0.0107916594
v 0.0330426358 -0.000221264723 0.0111345444
v 0.0340449959 -0.00755007798 0.00222503999
v 0.0351977311 -0.00725293299 0.00328330859
v 0.0360282175 -0.00723487558 0.000784657022
v 0.0360651352 -0.00678755064 0.0052170502
v 0.0356077738 -0.00643642433 0.0068488149
v 0.0361273661 -0.00529180747 0.0085710343
v 0.0354273655 -0.00261691725 0.0103553021
v 0.0370411389 -0.00377139519 0.00960764848
v 0.0353579223 0.00121416186 0.0111172451
v 0.0362820625 -0.000685556792 0.0107530365
v 0.0370987803 -0.00688567571 0.00319696101
v 0.0377438813 -0.00186965056 0.0102763055
v 0.0242282469 -0.0082697263 0.0046674381
v 0.0248433575 -0.00776047492 0.00702566886
v 0.0250429343 -0.00733180018 0.00803987216
v 0.0237774532 -0.00690068724 0.00900112186
v 0.0246095676 -0.00552319828 0.0101156812
v 0.0240118988 -0.00367679168 0.0109768631
v 0.0242673289 -0.00166515552 0.0114387684
v 0.0240007676 0.000650832779 0.0118088936
v 0.0266541485 -0.00833157822 0.00222521462
v 0.0255961083 -0.00824531447 0.0042608548
v 0.0258641131 -0.00794389006 0.00601726305
v 0.028212104 -0.00803843047 0.00429247133
v 0.0273687989 -0.00732993055 0.00764084235
v 0.0265820269 -0.00662420643 0.00895380229
v 0.0267804135 -0.00574993016 0.00975129195
v 0.0262025557 -0.00373190874 0.0108299842
v 0.0271697119 -0.00246840273 0.0111086685
v 0.0279481374 -0.00390459225 0.0105993487
v 0.0294614024 -0.00483753718 0.0100548519
v 0.0270533115 0.000724945683 0.0116458442
v 0.0275930073 -0.00075654086 0.0114178583
v 0.0304188393 -0.00797728356 0.00283124927
v 0.0285173208 -0.00756166037 0.00662652217
v 0.030526083 -0.00761147821 0.00564623671
v 0.0302006193 -0.00716270413 0.00731849764
v 0.0289595071 -0.00642934535 0.00881816633
v 0.0305903368 -0.00560689438 0.00937120989
v 0.0302960444 0.000362046441 0.0114214718
v 0.0322545357 0.00280939671 -0.0115864854
v 0.0307341963 0.00450700754 -0.0118160527
v 0.0320579559 0.00654775277 -0.0116650695
v 0.0333938152 0.00182081398 -0.011447316
v 0.0332650654 0.00485676527 -0.0115332901
v 0.0338742509 0.00693608727 -0.0110854851
v 0.0342193395 0.00784461573 0.00115606817
v 0.0373814739 0.0031046283 -0.0110717649
v 0.0344038047 0.00387815223 -0.0114770737
v 0.0375926979 0.00449827733 -0.0110358922
v 0.0407562777 0.00665231468 -0.00693208678
v 0.0383412801 0.00723519828 0.000780222181
v 0.0361651443 0.00134390919 -0.0111357076
v 0.0393999182 0.00590120489 -0.0107308757
v 0.0251651965 0.00345741189 -0.0121111413
v 0.0261034518 0.00724442722 -0.0117674228
v 0.0274075344 0.00145730155 -0.0118228067
v 0.0259683728 0.00504653202 -0.0121611431
v 0.0285344794 0.00389175513 -0.0119516458
v 0.0259678382 0.00670336839 -0.0121821966
v 0.0252629872 0.00799233839 -0.0088095665
v 0.0308695268 0.00807863194 -0.00466450304
v 0.0297891423 0.00223211548 -0.0117559405
v 0.0309093855 0.00773978746 -0.00829124078
v 0.0266282633 0.00859554764 -0.00165377883
v 0.0324860737 -0.00623853784 -0.00845627952
v 0.0310877636 -0.00714050746 -0.00712240208
v 0.030062858 -0.0047430913 -0.0101275919
v 0.0312600955 -0.0018362425 -0.0110706342
v 0.0309994835 0.000298007246 -0.0114695514
v 0.0322425514 -0.00514726015 -0.00961735845
v 0.0326057561 -0.00740085123 -0.00534472195
v 0.0337778479 -0.00684267143 -0.00671316776
v 0.0331565626 -0.00759617379 -0.00315422611
v 0.0315843374 -0.00791944657 -0.000334604905
v 0.0313877799 -0.00346142519 -0.0105900895
v 0.0330308937 -0.00305564073 -0.0105948709
v 0.0353137441 -0.00601126859 -0.00796315633
v 0.0349329859 -0.00712311035 -0.00472453283
v 0.0362351611 -0.00649178727 -0.00631927047
v 0.0354031622 -0.00722885039 -0.00312183797
v 0.0339756757 -0.00757159339 -0.00143611676
v 0.035992749 -0.00723254588 -0.00118725712
v 0.0349329896 -0.00393297477 -0.00996514317
v 0.0356673189 -0.00492705964 -0.00912496168
v 0.0357377306 -0.00208201096 -0.0105952751
v 0.0342813209 -0.000713436631 -0.0110749612
v 0.035718441 8.68884945e-06 -0.0110307243
v 0.0375353917 -0.00557179144 -0.00776757579
v 0.0370751582 -0.00692668604 -0.00294057955
v 0.0375505835 -0.00692833215 0.00107611506
v 0.0379675217 -0.00201883051 -0.0102822622
v 0.0383564159 -0.00357973319 -0.00954238791
v 0.0377044491 3.02932749e-05 -0.0107987877
v 0.0230717286 -0.00816094689 -0.00587129267
v 0.0232222565 -0.00849345606 -0.00341207208
v 0.0232366659 -0.00866851956 0.000119214223
v 0.0241659265 -0.00851344317 0.00201432966
v 0.023981506 -0.00708494196 -0.00881478656
v 0.0259578861 -0.00825107936 -0.00420805253
v 0.0259374063 -0.00782047212 -0.00664513698
v 0.024439007 -0.00829609577 -0.00447471207
v 0.0216693375 -0.00394049147 -0.0111237289
v 0.0239081644 -0.00583177013 -0.0100783221
v 0.025568448 -0.00412169937 -0.0108148754
v 0.0244403388 -5.59410837e-05 -0.0117766801
v 0.0258128773 -0.00155475142 -0.011472201
v 0.0265219342 -0.00831532665 -0.00286467723
v 0.0256453808 -0.0084534362 -0.000832903024
v 0.0281890351 -0.00825554691 0.00045558493
v 0.0269502196 -0.00586204045 -0.009766059
v 0.0266101193 -0.00685695 -0.00877173059
v 0.0279612653 -0.00750819035 -0.00702189934
v 0.0281892754 -0.00814463291 -0.00329325907
v 0.0269748811 -0.00449607894 -0.0105942376
v 0.0279507898 -0.0037800346 -0.0107556488
v 0.0263396055 0.000413379603 -0.0117489407
v 0.0281182807 -0.00249070441 -0.011142293
v 0.0278906226 -0.00105528289 -0.0114264479
v 0.0296156798 -0.00574015873 -0.00950940978
v 0.0284056496 -0.00785323419 -0.00552393729
v 0.0291684568 -0.00671777548 -0.00850724522
v 0.0302232504 -0.00774205709 -0.00516901119
v 0.0307363905 -0.00794881769 -0.00264754985
v 0.0281555764 -0.00825679116 -0.00119341095
v 0.0296701845 -0.000672484399 -0.0114082461
v 0.0200857036 0.00750313932 0.00937437173
v 0.0191588234 0.00700422842 0.00958934985
v 0.0199389383 0.00666680606 0.00983220898
v 0.0214350652 0.00871073455 0.00401630253
v 0.0206714198 0.00805013347 0.00895097479
v 0.0214668717 0.00279938965 0.0121491309
v 0.0199742522 0.00618411554 0.0130060716
v 0.0210556462 0.00474623404 0.0122695286
v 0.019994149 0.00660479907 0.0115551874
v 0.0200843848 0.00599662401 0.0119330212
v 0.0208175946 0.00703739841 0.0121205552
v 0.0101129403 0.0057017277 0.00650868239
v 0.0105680078 0.00562267518 0.00853166264
v 0.0106985141 0.00551120518 0.00983900297
v 0.00959773641 0.00801780075 0.00397911668
v 0.011050703 0.00767262466 0.00874449499
v 0.0103109488 0.00719993608 0.00823293533
v 0.0100843711 0.00855459273 0.00349267409
v 0.0104394853 0.00548506435 0.0130824931
v 0.014097847 0.004067712 0.00977923349
v 0.0121021634 0.00622828025 0.0094478
v 0.0130071687 0.0060095354 0.0130983973
v 0.0115995919 0.00724812876 0.00933696423
v 0.0125684114 0.00591851585 0.00976961758
v 0.0145301009 0.00892115105 0.00131330942
v 0.0149698798 0.00844316185 0.00610061735
v 0.0146265486 0.00120406051 0.00978906546
v 0.0149939908 0.00699716667 0.00958924368
v 0.0150459819 0.0069765416 0.0130103361
v 0.0166039746 -0.00628117193 0.00970262568
v 0.0151762236 -0.00166949455 0.00977784954
v 0.0159133393 -0.00540618738 0.00976848602
v 0.0180555861 -0.00696242508 0.00980773009
v 0.0195543151 -0.00697660353 0.00990394969
v 0.0193572938 -0.0069621671 0.0130898496
v 0.0195185691 0.00695319101 0.0131007293
v 0.0206335951 -0.00860453211 0.000253046834
v 0.0220358018 -0.0086299805 0.00259517343
v 0.0225009713 -0.00835955888 0.00495244283
v 0.0205430258 -0.00812261086 0.00588289788
v 0.0201602597 -0.00670686038 0.00885382667
v 0.0210410599 -0.0070863748 0.00895717554
v 0.0219713151 -0.00781959575 0.00752994372
v 0.0200695582 -0.00614633877 0.00961109996
v 0.0199869834 -0.00624515302 0.0129910838
v 0.0223715305 -0.00596441422 0.0100209862
v 0.0200096332 -0.00287994766 0.0112678912
v 0.0201928653 -0.00523594487 0.0102343047
v 0.0201063268 -0.00354302325 0.0107470434
v 0.0211549047 -0.00394060649 0.0110121239
v 0.0211139973 -0.000208677622 0.011834749
v 0.0200571101 -0.00120973692 0.0113372728
v 0.0200810563 0.00127593498 0.0117714331
v 0.0219561923 -0.00181442278 0.0115453647
v 0.0103499936 -0.00547447475 0.0130857173
v 0.0131537151 -0.00604972942 0.00982915331
v 0.0130510526 -0.00603184756 0.0130928494
v 0.0150975278 -0.00698292162 0.00982378516
v 0.0150538953 -0.00698437961 0.0130078522
v 0.0204485301 0.00797559693 -0.00922196452
v 0.021240199 0.00890021771 0.000801989343
v 0.0162014514 0.00865172967 -0.00514276931
v 0.0227346197 0.00857996382 -0.00520734908
v 0.020162981 0.00403349148 -0.0120755937
v 0.0235428084 0.00227892236 -0.0120993946
v 0.0200616531 0.00657276111 -0.0121368375
v 0.0214927066 0.0043141949 -0.0123630241
v 0.0207490735 0.00710941013 -0.0120816575
v 0.0211260952 0.00632347586 -0.0124213984
v 0.0198039692 0.00695015164 -0.00957781356
v 0.00962626375 0.0057822736 -0.0030176437
v 0.0098307915 0.00774031738 -0.00568240602
v 0.00945481285 0.00814252906 -0.00214794185
v 0.00959690753 0.00581455138 0.0021260858
v 0.00993779115 0.00868551247 -0.00188321061
v 0.0121203642 0.0053664688 0.00979892723
v 0.0132696358 0.00502993912 0.00961033814
v 0.0104902377 0.00563178165 -0.00851329137
v 0.0192273017 0.00698526111 -0.0128798475
v 0.010407446 0.00725636724 -0.00852583535
v 0.0102770207 0.00824598968 -0.00576281222
v 0.0139729772 0.00433000922 -0.00986075494
v 0.0130631616 0.00513428031 -0.00959315803
v 0.0116086844 0.0070085004 -0.00950921141
v 0.0120320357 0.00768330786 -0.00915671885
v 0.0145449284 0.0017210769 -0.0097389631
v 0.016321389 -0.00605906174 -0.00969012827
v 0.0151615879 -0.00150179281 -0.00986254681
v 0.0158696231 -0.00520149805 -0.0096866833
v 0.0193248633 -0.00699089048 -0.0100540016
v 0.0172405504 -0.00661873305 -0.00973682944
v 0.0196710229 -0.00722532813 -0.00964222569
v 0.0189282782 -0.00717635686 0.00953974575
v 0.021222977 -0.00847945642 -0.00461456878
v 0.0234046727 -0.00855911989 -0.00199320028
v 0.0218134839 -0.00866736844 -0.00249666837
v 0.0220226832 -0.00867629144 0.000138070071
v 0.019968614 -0.0062680454 -0.0128247486
v 0.0200517792 -0.00613040244 -0.00971122831
v 0.0202079341 -0.00672486238 -0.00901125185
v 0.021450134 -0.00724796625 -0.00888471212
v 0.0215751939 -0.00575567782 -0.0103223706
v 0.0200189035 -0.0071865879 -0.00691631669
v 0.0206060261 -0.00787330605 -0.00694116484
v 0.0223876927 -0.00793995336 -0.0070436527
v 0.0201971922 -0.00822951272 -0.00157975161
v 0.0200007055 -0.00718392804 0.00680264924
v 0.0198977627 0.00633935351 -0.0128976684
v 0.0200496335 -0.00370714185 -0.0109029738
v 0.0200456865 -0.00179845747 -0.0113908546
v 0.0231260303 -0.00126692571 -0.011697541
v 0.0202396847 -0.00515051698 -0.0104015274
v 0.0200764742 0.00031032681 -0.0117494958
v 0.0212892368 -0.00160887488 -0.0117254034
v 0.0214349218 0.00156300899 -0.0121491486
v 0.0193735678 -0.00695003336 -0.012892846
v -0.000776574714 0.00696544955 -0.012899138
v 0.0104610045 -0.00549812103 0.00980591029
v -0.00545179378 0.00106534036 0.00984974578
v -0.0040609045 -0.0036972193 0.00981318112
v -0.00285443175 -0.00474939495 0.0130990492
v -0.00215566135 -0.0050939261 0.00979986228
v -0.00520799495 -0.0018795745 0.00980197918
v -0.00486031594 -0.00262063113 0.0130892852
v -0.00549692381 -0.000266965857 0.0130972909
v -0.000245573407 -0.00549209863 0.00990620162
v -0.000457518181 -0.00548534933 0.0130229061
v -0.0041003162 0.00366200111 0.00980651099
v -0.00504734693 0.00229548174 0.0130811427
v -0.00289208652 0.00474485522 0.0130965766
v -0.00237381225 0.0049699964 0.00981512386
v -0.00049890019 0.00547696324 0.0130217364
v -0.000218200395 0.0054893191 0.00983614661
v 0.0119553562 0.00541924918 -0.00989948586
v 0.0153210806 -0.00691046845 -0.00990355853
v 0.0182378534 -0.0069916728 -0.0100119719
v 0.0113746226 0.00699406583 -0.00991969462
v -0.00605371734 -0.00347257429 -0.012893864
v -0.0048615206 -0.005040335 -0.0128767062
v -0.00699413009 0.000520347152 -0.0128620537
v -0.00678036967 -0.00168850936 -0.0128849549
v -0.00696771406 -0.000711671484 -0.00992762949
v -0.00297701778 -0.00634985277 -0.0128830485
v -0.00399445882 -0.00575012947 -0.00991125591
v -0.00606151856 -0.00357223861 -0.00990632921
v -0.00237809634 -0.00657572923 -0.00997357629
v -0.000651206705 -0.00698580174 -0.0128980745
v -0.000520498666 -0.00698650302 -0.00990295224
v -0.00640591467 0.00285267015 -0.0128803765
v -0.00508257607 0.00480990577 -0.0128927277
v -0.0068034986 0.00170626491 -0.00990853924
v -0.00578368502 0.00394009007 -0.00991299096
v -0.003610746 0.00604548119 -0.00990888756
v -0.00299370429 0.00632915413 -0.012885238
v -0.000716185546 0.0069793798 -0.00993410312
vn 0.9516101 -0.2001649 0.2331785
vn 0.9849823 -0.1726537 0.0007415706
vn 0.917149 0.3785276 0.1247182
vn 0.5930796 0.7819137 0.192009
vn 0.7731964 0.3370447 0.5371854
vn 0.6698059 0.7425345 -0.00162139
vn 0.2435735 0.9695585 0.02506377
vn 0.7112083 -0.3662441 0.60004
vn 0.7807813 -0.4979469 0.3773982
vn 0.8407457 -0.1934251 0.5057008
vn 0.8897383 -0.4429111 0.1104337
vn 0.4331911 0.3428332 0.8335532
vn 0.3394636 -0.04904439 0.9393398
vn 0.4908308 -0.121072 0.8628017
vn 0.549906 -0.3177265 0.7724333
vn 0.6298831 -0.1149366 0.7681386
vn 0.6153363 -0.4716204 0.6316134
vn 0.1754003 0.9814682 0.07716879
vn 0.3804062 0.8322752 0.4032482
vn 0.2488249 -0.07522246 0.965623
vn 0.3118267 -0.141837 0.9394926
vn 0.4374546 -0.3169126 0.8415461
vn 0.3364992 -0.2738639 0.9009811
vn 0.6390052 -0.661685 0.3922311
vn 0.5279258 -0.5893461 0.6115272
vn 0.5119601 -0.7791606 0.3616705
vn 0.7291213 -0.663681 0.1670619
vn 0.5551472 -0.8112541 0.1835164
vn 0.6736842 -0.7381415 0.03600831
vn 0.6159474 -0.7877449 -0.008173749
vn 0.7185735 -0.6948962 0.02777421
vn 0.521103 -0.8504338 0.07220701
vn 0.4258614 -0.5231208 0.7382321
vn 0.4238825 -0.7653806 0.4842687
vn 0.4243414 -0.8773423 0.2240645
vn 0.3567024 -0.8722307 0.3346295
vn 0.4497572 -0.8859462 0.1132161
vn 0.3814723 -0.9200779 0.08908149
vn 0.4371808 -0.8991665 -0.01930426
vn 0.5248267 -0.851151 -0.009945939
vn 0.2561502 0.3937947 0.8827869
vn 0.2060811 -0.09672721 0.9737425
vn 0.1538727 -0.1416982 0.9778777
vn 0.2277183 -0.267133 0.9363676
vn 0.1504781 -0.04544223 0.9875684
vn 0.1974705 -0.01859818 0.9801324
vn 0.2043044 0.8683663 0.4518846
vn 0.1587821 0.359814 0.919414
vn 0.1139316 0.00818853 0.9934548
vn 0.1505944 0.02027994 0.9883876
vn 0.1194332 -0.02365139 0.9925605
vn 0.1402953 -0.1291897 0.9816452
vn 0.1692999 -0.2577177 0.9512724
vn 0.1866843 0.01170079 0.9823502
vn 0.2467255 0.0191398 0.9688964
vn 0.2613142 -0.2258718 0.9384545
vn 0.1641109 -0.5065495 0.8464487
vn 0.195146 -0.4630038 0.8646072
vn 0.1485706 -0.2964102 0.9434341
vn 0.1225726 -0.3266554 0.9371617
vn 0.2176121 -0.6802132 0.6999677
vn 0.2410268 -0.8923993 0.3814832
vn 0.2131657 -0.8559842 0.4710112
vn 0.1860333 -0.7432014 0.6426845
vn 0.2312061 -0.9541905 0.1899061
vn 0.2460211 -0.9323342 0.2650031
vn 0.2096166 -0.9772547 0.03215531
vn 0.2315248 -0.9688647 0.08773634
vn 0.2207427 -0.9702213 0.09971588
vn 0.2267855 -0.9739397 0.003148427
vn 0.2656862 -0.6099851 0.7465447
vn 0.3436641 -0.6487222 0.67901
vn 0.315852 -0.4096965 0.8557957
vn 0.2839385 -0.9503571 0.1272807
vn 0.3204409 -0.927781 0.1911541
vn 0.2924724 -0.8893725 0.3513921
vn 0.3080468 -0.7876185 0.5336332
vn 0.2658093 -0.7670529 0.5839309
vn 0.2284951 -0.4802968 0.8468205
vn 0.2647474 -0.9635307 0.03895344
vn 0.3353603 -0.9402224 0.05928832
vn 0.3428371 -0.9393812 0.005052821
vn 0.3746931 -0.9250484 -0.06237424
vn 0.3199862 -0.8167039 -0.4802122
vn 0.3953579 -0.7170771 -0.5740145
vn 0.4468422 -0.81261 -0.3741618
vn 0.4232469 -0.8885974 -0.1767962
vn 0.5189856 -0.8512754 -0.07735723
vn 0.5346025 -0.6491062 -0.5411666
vn 0.439652 -0.5326995 -0.723144
vn 0.8938406 -0.4279284 -0.1338888
vn 0.8366613 -0.5477 -0.0047484
vn 0.7625989 -0.6427532 -0.07287789
vn 0.6132881 -0.7785715 -0.1330567
vn 0.5273355 -0.7979874 -0.2917764
vn 0.6487433 -0.6362201 -0.4175598
vn 0.6162655 -0.4139748 -0.6699566
vn 0.7306454 -0.3825251 -0.5655367
vn 0.9455624 0.3030517 -0.118623
vn 0.3523028 0.9316823 -0.08860458
vn 0.9074357 -0.1966387 -0.3713402
vn 0.8760319 0.04431653 -0.4802127
vn 0.7706875 -0.123973 -0.625037
vn 0.5814015 0.4195001 -0.6971312
vn 0.7691556 -0.5912023 -0.2426511
vn 0.2430891 0.9693442 -0.03576996
vn 0.3486237 0.8108178 -0.4701446
vn 0.3184479 0.3481958 -0.8816749
vn 0.4581314 -0.09668296 -0.8836108
vn 0.3732365 -0.04408012 -0.9266884
vn 0.5345286 -0.4279533 -0.7287902
vn 0.5987625 -0.1682397 -0.7830573
vn 0.4509605 -0.2691531 -0.8509942
vn 0.187907 0.9821668 -0.006272948
vn 0.1599986 0.9835224 -0.08416694
vn 0.2623345 -0.03943554 -0.9641709
vn 0.3845365 -0.3523036 -0.8532373
vn 0.3307928 -0.1578045 -0.9304159
vn 0.282028 -0.1960265 -0.9391665
vn 0.5230123 -0.838944 -0.1504365
vn 0.2071931 0.841971 -0.4981525
vn 0.1894929 0.02100452 -0.9816574
vn 0.2255757 0.05198398 -0.9728377
vn 0.2133631 -0.09032157 -0.9727889
vn 0.1736571 -0.3476832 -0.9213901
vn 0.2315629 -0.2275472 -0.9458334
vn 0.1565346 0.9876566 0.005602597
vn 0.1827086 0.372715 -0.9097808
vn 0.1602268 -0.01203571 -0.9870068
vn 0.1676943 -0.08515071 -0.9821548
vn 0.1391826 0.8319916 -0.5370458
vn 0.1382142 -0.1508523 -0.9788464
vn 0.1417149 -0.03423316 -0.9893155
vn 0.1197353 -0.08351101 -0.9892873
vn 0.313308 -0.3872853 -0.8670918
vn 0.326406 -0.5593356 -0.761973
vn 0.2759094 -0.5860466 -0.7618552
vn 0.3040574 -0.951168 -0.05318356
vn 0.3962288 -0.9055795 -0.1514216
vn 0.2911738 -0.9459838 -0.142592
vn 0.2836451 -0.9253886 -0.2513987
vn 0.3647857 -0.8895789 -0.2749194
vn 0.2645393 -0.9643554 -0.006136742
vn 0.265585 -0.9603984 -0.08425908
vn 0.2198063 -0.4046648 -0.8876551
vn 0.1667076 -0.2067074 -0.9640957
vn 0.2779473 -0.8024011 -0.5281078
vn 0.2696572 -0.9029187 -0.334698
vn 0.2426167 -0.9005067 -0.360867
vn 0.2352442 -0.7617524 -0.6036501
vn 0.2495058 -0.6551182 -0.7131389
vn 0.185876 -0.5247263 -0.83073
vn 0.2219803 -0.973206 -0.05995639
vn 0.2546448 -0.9486025 -0.1879077
vn 0.1910904 -0.9638816 -0.1855178
vn 0.2098859 -0.8344668 -0.5095225
vn 0.1969652 -0.9360681 -0.2915154
vn 0.1260047 0.9919505 0.01253293
vn 0.1122397 0.9861966 0.1217315
vn 0.1033575 -0.1009398 0.9895092
vn 0.09836609 -0.001643242 0.995149
vn 0.07406498 -0.03589539 0.9966072
vn 0.05863228 0.8254345 0.5614446
vn 0.1054615 0.3869721 0.9160406
vn 0.1435062 0.8643762 0.4819333
vn 0.06379462 0.9855424 0.1569597
vn 0.08402572 0.994734 0.05868455
vn 0.07393403 -0.08297497 0.9938053
vn 0.07532863 -0.0641068 0.995096
vn 0.0640776 -0.1301036 0.9894276
vn 0.08529865 -0.1550643 0.984215
vn 0.07085733 0.9971831 -0.02459827
vn 0.02788386 0.9995814 0.007712895
vn 0.0260135 0.9953758 0.09246828
vn 0.07871407 -0.1016188 0.9917045
vn 0.05908811 -0.1017049 0.9930583
vn 0.05935615 -0.1175771 0.9912883
vn 0.06594804 -0.04040785 0.9970045
vn 0.08477725 -0.01651577 0.996263
vn -0.08150103 0.9513606 0.2971036
vn 0.04698709 -0.08234099 0.9954959
vn 0.04372205 -0.04190101 0.9981647
vn 0.0492457 0.2693217 0.9617903
vn 0.04967912 -0.1245299 0.9909713
vn -0.1572465 -0.01727178 0.9874083
vn -0.282575 0.6020166 0.7468115
vn -0.05057993 -0.0858157 0.9950263
vn 0.113984 -0.1900411 0.9751369
vn 0.1061214 -0.7609425 0.6400818
vn 0.1207834 -0.9115118 0.3931381
vn 0.1555689 -0.7855182 0.5989653
vn 0.1075423 -0.631436 0.7679344
vn 0.1956749 -0.9583028 0.2082475
vn 0.1799539 -0.9775279 0.1097989
vn 0.0571355 -0.1620855 0.9851213
vn 0.07037059 -0.251337 0.9653381
vn 0.1070359 -0.9916983 0.07125811
vn 0.08885186 -0.9958938 0.01734223
vn 0.1222272 -0.992487 -0.005469308
vn 0.1323116 -0.987285 0.0881022
vn 0.1432822 -0.9896712 0.004590814
vn 0.1473949 -0.9690729 0.1979208
vn 0.09678905 -0.2181261 0.9711091
vn 0.1695176 -0.8963345 0.4096929
vn 0.1019594 -0.3543287 0.9295459
vn 0.1122512 -0.4980043 0.8598787
vn 0.1479039 -0.6582584 0.7381194
vn 0.1945793 -0.9055695 0.3769388
vn 0.1456891 -0.987923 0.05275194
vn 0.1841541 -0.9826953 0.01992699
vn 0.1929045 -0.9808106 -0.02825447
vn 0.1014233 -0.4405229 0.8919938
vn 0.08630542 -0.4953431 0.8643996
vn 0.003409102 -0.2047939 0.9787992
vn 0.0542891 -0.1918634 0.979919
vn 0.05098489 -0.3219797 0.9453728
vn -0.1199684 -0.1545085 0.9806807
vn 0.0694902 -0.7859013 0.6144348
vn -0.172952 -0.8129063 0.5561215
vn 0.0786287 -0.8914343 0.4462761
vn -0.03034914 -0.9373846 0.3469713
vn 0.01774378 -0.9878443 0.1544305
vn 0.06375875 -0.9880533 0.1403048
vn 0.06988622 -0.9542186 0.2908313
vn 0.07332294 -0.9960314 0.05044967
vn 0.06574469 -0.9977717 -0.0113696
vn 0.08299008 -0.9952628 0.05064115
vn 0.06569312 -0.9909081 0.1174111
vn 0.07043422 -0.974291 0.214
vn 0.08867528 -0.9075197 0.4105419
vn 0.0861114 -0.7710754 0.6308942
vn 0.08791132 -0.9616576 0.2597814
vn 0.08701786 -0.9884346 0.1241979
vn 0.07124993 -0.5330673 0.8430674
vn 0.08311212 -0.5824822 0.8085833
vn 0.07010517 -0.3454817 0.9358032
vn 0.06356658 -0.2394551 0.9688243
vn 0.07795362 -0.3734922 0.9243521
vn 0.107728 0.3590912 -0.9270642
vn 0.1360418 0.02557735 -0.9903729
vn 0.1015066 0.9928694 -0.06250449
vn 0.08502752 0.9851909 -0.1488934
vn 0.1010185 0.008662601 -0.9948468
vn 0.1011896 0.00564446 -0.9948512
vn 0.08146095 -0.08312926 -0.9932037
vn 0.07990616 -0.05423594 -0.9953257
vn 0.09614909 -0.1924879 -0.9765775
vn 0.09008746 -0.02115409 -0.9957092
vn 0.07163499 -0.08311696 -0.9939618
vn 0.06039477 0.3141415 -0.9474532
vn 0.02879482 0.9947454 -0.09824625
vn 0.05319441 0.8339052 -0.5493382
vn 0.03918482 0.9821013 -0.1842322
vn 0.05841454 -0.03276405 -0.9977546
vn 0.05512936 -0.1052617 -0.9929153
vn 0.05329311 -0.1292982 -0.9901726
vn 0.05225527 -0.09618296 -0.993991
vn -0.07257839 -0.05258193 -0.9959757
vn -0.09879832 0.1433273 -0.9847316
vn -0.2350581 0.7325698 -0.6388186
vn 0.05007912 -0.1340188 -0.9897126
vn 0.05404541 -0.07140467 -0.9959822
vn 0.1120542 -0.3417576 -0.933084
vn 0.09181594 -0.3669395 -0.9257026
vn 0.0741091 -0.2269898 -0.9710734
vn 0.1471263 -0.807658 -0.5710012
vn 0.1744973 -0.6644879 -0.7266406
vn 0.1871709 -0.8370417 -0.5141286
vn 0.1648911 -0.9300227 -0.3284337
vn 0.1855437 -0.9680955 -0.1684177
vn 0.1431138 -0.9710776 -0.1911197
vn 0.1235331 -0.9918364 -0.03162501
vn 0.1491632 -0.9853601 -0.08255694
vn 0.1614173 -0.9826787 -0.091033
vn 0.1249143 -0.5920942 -0.7961286
vn 0.1339239 -0.4587578 -0.8784109
vn 0.203944 -0.974454 -0.09405483
vn 0.1139218 -0.9913797 -0.06471602
vn 0.1512971 -0.308092 -0.9392488
vn 0.1114285 -0.9786525 -0.1726932
vn 0.1067575 -0.1488914 -0.9830738
vn 0.09450261 -0.2974021 -0.9500638
vn 0.1285343 -0.9274243 -0.3512309
vn 0.09088736 -0.9955801 -0.02365731
vn 0.1036425 -0.6490501 -0.7536526
vn 0.08168121 -0.6178331 -0.7820553
vn 0.05520256 -0.4176947 -0.906909
vn 0.08947839 -0.992559 -0.08258446
vn 0.0611233 -0.1670104 -0.9840586
vn 0.05385472 -0.1741765 -0.9832407
vn 0.09333107 -0.9385158 -0.3323812
vn 0.1078753 -0.8319759 -0.5442232
vn 0.05617189 -0.2463104 -0.9675618
vn 0.08047126 -0.3262524 -0.9418512
vn 0.09328326 -0.4842504 -0.8699425
vn 0.06699158 -0.580088 -0.8117943
vn 0.06430187 -0.3544825 -0.932849
vn 0.07862192 -0.995417 -0.05443843
vn 0.06369044 -0.9911573 -0.1164074
vn 0.07466247 -0.9564227 -0.2822786
vn 0.07386003 -0.8299806 -0.5528805
vn 0.08344144 -0.8267859 -0.5562936
vn 0.06544797 -0.9970947 -0.03897123
vn 0.0552903 -0.9903547 -0.1270452
vn 0.05584154 -0.2034987 -0.9774815
vn 0.05671366 -0.1818569 -0.9816881
vn -0.03964797 -0.3276099 -0.9439808
vn 0.018798 -0.9551528 -0.2955162
vn 0.1074567 -0.9940688 -0.01674224
vn -0.01486892 -0.9998893 0.0005064522
vn 0.04859978 -0.9952612 -0.0842214
vn -0.52222 0.7960272 0.3059852
vn -0.6390893 0.5982686 0.4833626
vn -0.02909405 0.5681508 0.82241
vn -0.01738583 0.4227301 0.9060888
vn -0.06034017 0.4874423 0.8710678
vn -0.2160643 -0.09569907 0.9716779
vn 0.9523949 0.3017478 0.04349893
vn 0.9970801 -0.0006383542 0.07635993
vn 0.9736574 0.1829293 0.1361182
vn -0.03356721 0.986878 0.1579402
vn -0.02258578 0.9993348 0.02863211
vn 0.1801125 0.9835925 0.01025421
vn 0.488797 0.8718625 -0.03055008
vn 0.3915041 0.9199466 0.02056196
vn -0.3099978 0.3642387 0.8781978
vn -0.03392408 0.5140699 0.8570772
vn 0.1253416 0.9921129 -0.001197062
vn -0.2075737 0.9780856 0.01617144
vn -0.2163763 0.976267 0.009174034
vn 0.933895 0.278142 0.2246714
vn 0.900587 0.4257553 0.0876101
vn -0.4186119 0.1079512 0.9017265
vn -0.1663911 -0.9860598 -7.937055e-05
vn -0.2358106 -0.9717989 -0.0004896545
vn -0.1609657 -0.9869571 -0.002358493
vn -0.538879 -0.8423806 -0.002056282
vn -0.2094238 -0.9778227 -0.00207742
vn -0.4641058 -0.8857798 0.0001771625
vn -0.0009975245 -0.001893402 -0.9999977
vn -0.002917976 -0.007548299 -0.9999673
vn -0.03675954 -0.04503176 -0.998309
vn -0.2903793 0.2975637 0.90947
vn -0.7951118 -0.0184731 0.6061814
vn -0.5734519 0.2986956 0.7628459
vn -0.1092751 0.6323234 0.7669589
vn -0.1629425 0.5822499 0.7965142
vn -0.3053411 0.952137 0.01421158
vn -0.111645 0.9937454 0.002332312
vn -0.3213925 0.9469131 0.007906247
vn -0.6414177 0.2031701 0.7398008
vn -0.8721715 -0.006799535 0.4891531
vn -0.9841077 -0.07598951 0.1604922
vn -0.9938253 -0.06636576 0.08892018
vn -0.9993236 -0.02344932 0.02832641
vn -0.9976851 -0.06374422 -0.02368595
vn -0.9959722 -0.05860441 -0.06786004
vn -0.001589123 0.01234285 0.9999226
vn -0.001188411 -0.01173569 0.9999304
vn -0.007043358 0.01259552 0.9998959
vn -0.04375669 -0.1490813 -0.9878563
vn -0.9821354 -0.1881368 0.003835205
vn -0.981645 -0.1907152 -0.0008969389
vn -0.9828429 -0.1844396 -0.001363413
vn -0.09675349 0.9953083 -9.353139e-05
vn -0.2239477 0.9168639 0.3304665
vn -0.002886637 0.01265293 0.9999158
vn -0.002626715 -0.01178789 0.9999271
vn 0.05065867 0.00866394 0.9986784
vn -0.48814 -0.8578032 0.1609131
vn -0.4324114 -0.9013131 0.0255954
vn -0.03457657 -0.9965803 0.07504769
vn -0.7849751 -0.5977842 0.1626904
vn -0.8002797 -0.5983092 -0.03973006
vn -0.4301348 -0.7937474 0.4300573
vn -0.199546 -0.6263153 0.7535983
vn 0.01170631 -0.5718373 0.8202835
vn -0.7138864 -0.3271454 0.6191463
vn -0.4285329 -0.4284629 0.7954742
vn 0.9959705 -0.02545225 0.08599379
vn 0.9812525 -0.008160576 0.1925537
vn 0.9802676 -0.0120385 0.1973081
vn -0.3130659 -0.2441462 0.9178139
vn -0.1339986 -0.3231875 0.9368
vn 0.201813 -0.0009743573 0.9794236
vn 0.1584853 -0.002577733 0.987358
vn 0.9347148 -0.3536974 0.03473384
vn 0.9997372 -0.01460108 0.01767431
vn -0.1563586 -0.9870409 0.03608631
vn -0.4276335 -0.9039519 0.0007718085
vn -0.02069732 -0.9734075 0.2281434
vn 0.001139045 -0.9999993 -0.0003730117
vn 0.4944337 -0.8571495 0.1443261
vn 0.06858502 -0.9974192 0.02123824
vn -0.221131 -0.975233 -0.004649117
vn -0.9447477 -0.3277957 -0.001325881
vn -0.7257991 -0.687902 -0.002516443
vn -0.9109951 -0.412414 0.001673292
vn -0.6205034 -0.7841978 0.003066569
vn -0.01634775 -0.1017533 -0.9946753
vn -0.004238876 -0.1612915 -0.9868978
vn -0.0359302 -0.09463602 -0.9948633
vn -0.01219545 -0.06074921 -0.9980786
vn -0.32062 -0.9471987 -0.004161094
vn -0.2161356 -0.9763574 -0.00340885
vn -0.0008716396 -0.002941942 0.9999953
vn -0.3142857 -0.9493185 -0.004334331
vn -0.103089 -0.9946679 0.002884519
vn -0.1392116 -0.9901809 0.01272875
vn -0.09914376 -0.9950658 0.003818408
vn -0.02153007 0.02350391 -0.9994919
vn -0.1564619 0.964331 -0.2135075
vn -0.2203877 0.1002132 -0.9702508
vn -0.2025573 -0.05577158 -0.9776809
vn 0.282538 0.9539338 -0.1009084
vn 0.5487334 0.8204018 -0.1607246
vn 0.6457087 0.6798499 -0.3476556
vn -0.07250996 -0.09884892 -0.9924572
vn -0.1954781 -0.1188942 -0.9734744
vn 0.9616076 0.005475861 -0.2743735
vn 0.9995088 -0.02029116 0.02388289
vn 0.9992478 -0.01083708 -0.03723257
vn -0.01924204 0.9925927 -0.1199566
vn -0.1595076 0.7940656 -0.5865296
vn -0.007037871 0.3432927 -0.9392021
vn -0.005542716 0.3309427 -0.9436345
vn -0.2658931 0.5663669 -0.7800829
vn 0.09653657 0.9952998 -0.007682914
vn 0.001433574 0.9999254 -0.01213539
vn 0.006787698 0.9992159 -0.0390058
vn 0.002645934 0.008634888 -0.9999592
vn 0.03563812 -0.001689213 -0.9993633
vn -0.002720435 0.0001538356 -0.9999962
vn -0.04677315 0.9977698 -0.04761806
vn -0.4391171 0.875123 -0.2033123
vn -0.729736 0.6795985 -0.07504129
vn -0.7369773 0.6750192 -0.03483559
vn -0.7501335 0.6299896 -0.2010296
vn -0.9861742 -0.07927117 -0.1455214
vn -0.1471698 -0.9891105 -0.001229709
vn -0.2510512 -0.9679627 0.004641439
vn -0.1691602 -0.9855884 0.0006922241
vn -0.8794842 -0.04847647 -0.473453
vn -0.8620825 -0.0388178 -0.5052792
vn -0.8740608 -0.485743 0.00844966
vn -0.9685074 -0.1976147 0.1514657
vn -0.005348438 0.004445707 0.9999758
vn -0.02073359 -0.002632338 0.9997816
vn -0.0217488 -0.0047403 0.9997522
vn -0.3532921 -0.629814 0.6917507
vn -0.90729 -0.4204977 -0.002535827
vn -0.6646751 -0.0004934819 -0.7471323
vn -0.6847128 0.02946896 -0.7282169
vn -0.8246995 -0.2979475 0.4807264
vn -0.4137479 0.8186831 -0.3982093
vn -0.03642512 -0.4481474 0.8932173
vn -0.2811409 -0.03147943 0.9591501
vn -0.09984242 -0.1299864 0.9864761
vn -0.09553162 -0.8319312 -0.5465931
vn -0.06892273 -0.5655496 -0.8218292
vn -0.01618052 -0.9981112 -0.05926438
vn -0.2106209 -0.9691753 -0.1278205
vn 0.05310819 -0.9816894 -0.1829352
vn -0.08599978 -0.1962066 -0.9767841
vn -0.2247247 -0.2064302 -0.9523053
vn -0.2102922 -0.3028902 -0.9295347
vn -0.4143566 -0.4265573 -0.8039636
vn -0.7036341 -0.3140839 -0.6373777
vn 0.9998499 -0.01394543 -0.01027566
vn 0.9994825 -0.00829932 -0.03107865
vn 0.9995857 -0.01198555 -0.0261701
vn 0.1194278 -0.005071247 -0.9928299
vn -0.001610823 -0.001311622 -0.9999979
vn 0.01374856 -0.5869322 0.8095194
vn -0.001211886 -0.4901676 0.8716274
vn -0.1147728 -0.9924867 -0.04239465
vn -0.009935974 -0.9568808 -0.290311
vn -0.1129287 -0.985606 -0.1258093
vn -0.7736484 -0.6157284 -0.1494883
vn 0.1080725 -0.9941429 0.0003361668
vn 0.7609267 -0.6488191 0.004942019
vn 0.7553487 -0.6552767 0.007795521
vn 0.753032 -0.6579227 0.008971416
vn 0.7631555 -0.6462038 0.003792786
vn -0.4398195 -0.8655414 -0.2395763
vn -0.3386071 -0.7950181 -0.5032807
vn -0.005326634 -0.01192938 0.9999146
vn -0.1047595 -0.9944882 0.004321248
vn -0.127403 -0.9918343 -0.005751012
vn -0.01130806 0.1621205 -0.9867062
vn 0.0004341535 0.005449366 -0.9999851
vn -0.005603137 0.1198033 0.9927818
vn -0.1242909 0.9922256 0.006327236
vn -0.1577521 0.9874274 -0.01007063
vn -0.002108282 -0.02121677 -0.9997726
vn -0.005647115 -0.1210905 0.9926253
vn -0.5282067 -0.8487531 0.02481592
vn -0.7329543 -0.6801372 -0.01383353
vn -0.4002718 -0.9163037 -0.01303944
vn -0.8726774 -0.4873231 0.03082615
vn -0.02140547 -0.01967045 -0.9995774
vn -0.00693628 0.001187525 -0.9999753
vn -0.09967184 -0.9950097 -0.004623319
vn -0.003381117 0.0006143463 0.9999941
vn -0.01188991 -0.006616828 0.9999074
vn -0.9809614 0.1919425 -0.02954222
vn -0.9984379 -0.0502181 0.02448765
vn -0.900907 0.4332373 0.02592408
vn -0.7591969 0.6505523 -0.02004471
vn -0.5266496 0.8499932 0.01232406
vn -0.4087779 0.9126318 -0.001946655
vn 0.0003571779 0.02508277 0.9996853
vn -0.001206498 0.0123865 0.9999226
vn -0.1496919 0.9887097 0.00674133
vn -0.1543322 0.9880179 -0.001498461
vn -0.5075072 0.8615875 0.0101694
vn -0.4160043 0.9093626 0.000426657
vn -0.7204495 0.6933858 -0.01298708
vn -0.0008875632 0.001514257 0.9999985
vn -0.0005129848 0.002263464 0.9999973
vn 0.0003936942 -0.00442685 0.9999902
vn -0.8181204 0.5745085 0.02487723
vn -0.00154558 0.0001795968 0.9999988
vn -0.9692296 0.2453368 0.02009371
vn -0.9971446 0.07377265 -0.01612926
vn -0.9927354 -0.1181478 0.02274515
vn -0.002508088 0.0027461 0.9999931
vn 0.001089326 0.002872704 -0.9999953
vn -0.005309308 0.001137934 -0.9999853
vn -0.8620537 -0.5063913 0.02076868
vn -0.6946244 -0.7193568 -0.004764347
vn -0.5940417 -0.804168 0.02069576
vn -0.01517462 -0.02186048 -0.9996458
vn -0.420823 -0.9070061 -0.01574018
vn 0.837413 -0.4303768 -0.3369204
vn 0.9687261 -0.1965191 -0.1514926
vn 0.1205037 -0.9710913 0.2060602
vn 0.07143691 -0.1311104 -0.9887906
vn 0.0648612 -0.05300019 -0.9964858
vn 0.09296205 -0.9775211 -0.1892372
vn -0.9804363 0.1930615 0.03836454
vn -0.01934809 0.1310564 0.9911861
vn -0.2564225 -0.3769351 -0.8900379
vn -0.4067488 0.9074584 0.1052363
vn -0.06448286 -0.3776968 -0.9236813
vn -0.6473653 0.741283 0.1772506
vn -0.6373164 0.7298812 0.2471864
vn 0.04817632 -0.009743189 0.9987913
vn 0.6820354 -0.6993347 0.2139121
vn 0.9316937 -0.3276865 0.1567437
vn 0.753834 -0.6551911 0.04958726
vn -0.2338382 -0.2233694 0.9462694
vn -0.01824225 -0.1268539 0.9917536
vn -0.007545313 0.001964372 -0.9999696
vn -0.6380296 0.7235152 -0.263522
vn -0.8083026 0.5652467 -0.1647521
vn 0.9715738 0.02793899 -0.2350822
vn 0.9748543 0.03358727 -0.2202976
vn 0.000935699 0.02855044 -0.9995919
vn 0.001789768 -0.9998953 -0.0143601
vn 0.7302347 -0.6780676 -0.0835561
vn 0.7645476 -0.4093461 -0.4978983
vn 0.7964513 -0.5566677 -0.2361913
vn 0.778026 -0.3051619 -0.5491372
vn 0.6546589 -0.2721015 -0.7052536
vn -0.04509942 -0.62988 -0.775382
vn -0.009107456 -0.2985668 -0.9543453
vn -0.9468054 -0.3211512 -0.02052852
vn -0.05440345 0.01169102 -0.9984506
vn -0.001093715 0.001036548 -0.9999989
vn -0.01788691 0.009438694 0.9997955
vn 0.009313335 -0.001935066 -0.9999548
vn 0.003630054 -0.7510561 0.6602284
vn -0.0003807493 0.0010625 -0.9999993
vn -0.002718264 0.0004858105 -0.9999962
vn -0.9119238 0.4100599 -0.0156825
vn -0.01467847 0.002218447 -0.9998899
vn -0.05215537 0.005306921 -0.9986249
vn -0.009083395 -0.01880694 0.9997819
vn -0.09287049 -0.2544893 0.9626059
vn -0.3326709 -0.9430024 0.008753152
vn -0.008467944 -0.007343174 -0.9999372
vn -0.9692318 -0.2460852 -0.005641525
vn -0.8696324 -0.4933445 -0.01872876
f 26//1 98//2 28//3
f 29//4 30//5 28//3
f 29//4 101//6 89//7
f 25//8 16//9 27//10
f 26//1 27//10 16//9
f 98//2 26//1 19//11
f 23//12 21//13 22//14
f 22//14 17//15 24//16
f 25//8 17//15 18//17
f 35//18 41//19 89//7
f 21//13 39//20 20//21
f 20//21 11//22 22//14
f 12//23 11//22 20//21
f 16//9 18//17 14//24
f 18//17 10//25 14//24
f 14//24 10//25 9//26
f 15//27 7//28 13//29
f 14//24 7//28 15//27
f 15//27 76//30 1//31
f 7//28 5//32 13//29
f 12//23 3//33 11//22
f 11//22 3//33 10//25
f 9//26 8//34 6//35
f 8//34 62//36 6//35
f 5//32 7//28 4//37
f 6//35 2//38 4//37
f 5//32 67//39 71//40
f 4//37 2//38 67//39
f 41//19 37//41 23//12
f 38//42 59//43 60//44
f 31//45 38//42 33//46
f 31//45 59//43 38//42
f 41//19 35//18 36//47
f 147//48 146//49 32//50
f 32//50 145//51 31//45
f 31//45 49//52 58//53
f 31//45 145//51 49//52
f 34//54 39//20 40//55
f 34//54 33//46 38//42
f 39//20 38//42 64//56
f 36//47 147//48 37//41
f 37//41 32//50 34//54
f 34//54 31//45 33//46
f 179//57 48//58 183//59
f 49//52 183//59 58//53
f 178//60 179//57 183//59
f 179//57 47//61 48//58
f 47//61 44//62 45//63
f 47//61 177//64 44//62
f 45//63 43//65 46//66
f 44//62 43//65 45//63
f 43//65 262//67 42//68
f 182//69 262//67 43//65
f 262//67 106//70 42//68
f 57//71 63//72 65//73
f 64//56 65//73 12//23
f 43//65 42//68 51//74
f 46//66 43//65 51//74
f 46//66 51//74 52//75
f 45//63 46//66 53//76
f 53//76 46//66 52//75
f 55//77 54//78 53//76
f 48//58 47//61 56//79
f 57//71 54//78 55//77
f 38//42 60//44 64//56
f 58//53 56//79 60//44
f 51//74 50//80 61//81
f 50//80 121//82 61//81
f 52//75 51//74 61//81
f 121//82 127//83 2//38
f 55//77 53//76 62//36
f 8//34 55//77 62//36
f 56//79 57//71 65//73
f 123//84 125//85 66//86
f 127//83 68//87 67//39
f 67//39 69//88 71//40
f 74//89 125//85 72//90
f 96//91 84//92 82//93
f 80//94 82//93 76//30
f 79//95 77//96 80//94
f 79//95 74//89 77//96
f 78//97 92//98 77//96
f 101//6 102//99 100//100
f 102//99 95//101 100//102
f 100//102 99//103 93//104
f 98//2 19//11 96//91
f 81//105 95//101 96//91
f 95//101 92//98 99//103
f 101//6 94//106 89//7
f 100//100 88//107 94//106
f 139//108 90//109 87//110
f 75//111 91//112 78//97
f 90//109 91//112 86//113
f 89//7 94//106 135//114
f 94//106 88//107 222//115
f 87//110 138//116 139//108
f 86//113 75//111 73//117
f 85//118 86//113 129//119
f 85//118 129//119 138//116
f 73//117 75//111 72//90
f 75//111 74//89 72//90
f 80//94 71//40 70//120
f 75//111 77//96 74//89
f 88//107 134//121 222//115
f 139//108 138//116 133//122
f 138//116 137//123 133//122
f 137//123 136//124 133//122
f 137//123 138//116 136//124
f 136//124 128//125 119//126
f 223//127 135//114 222//115
f 139//108 133//122 225//128
f 225//128 133//122 132//129
f 136//124 119//126 131//130
f 133//122 136//124 131//130
f 133//122 131//130 132//129
f 217//131 134//121 225//128
f 132//129 265//132 219//133
f 219//133 265//132 224//134
f 129//119 73//117 130//135
f 128//125 122//136 116//137
f 119//126 128//125 116//137
f 127//83 121//82 120//138
f 120//138 126//139 127//83
f 112//140 126//139 120//138
f 118//141 124//142 126//139
f 116//137 122//136 125//85
f 121//82 113//143 120//138
f 120//138 111//144 112//140
f 119//126 115//145 109//146
f 117//147 123//84 110//148
f 107//149 108//150 110//148
f 115//145 116//137 114//151
f 264//152 115//145 114//151
f 264//152 114//151 108//150
f 113//143 104//153 111//144
f 262//67 104//153 106//70
f 105//154 107//149 110//148
f 103//155 107//149 105//154
f 260//156 107//149 251//157
f 35//18 218//158 143//159
f 145//51 180//160 49//52
f 142//161 141//162 146//49
f 155//163 156//164 144//165
f 151//166 143//159 157//167
f 143//159 218//158 157//167
f 140//168 141//162 142//161
f 142//161 158//169 140//168
f 140//168 211//170 171//171
f 157//167 236//172 358//173
f 301//174 157//167 358//173
f 301//174 151//166 157//167
f 153//175 152//176 158//169
f 158//169 203//177 211//170
f 150//178 153//175 159//179
f 218//158 236//172 157//167
f 155//163 151//166 302//180
f 148//181 152//176 153//175
f 149//182 150//178 154//183
f 191//184 203//177 152//176
f 302//180 151//166 301//174
f 154//183 305//185 149//182
f 155//163 302//180 308//186
f 148//181 303//187 191//184
f 305//185 148//181 149//182
f 181//188 183//59 49//52
f 209//189 208//190 160//191
f 210//192 209//189 160//191
f 179//57 177//64 47//61
f 175//193 182//69 43//65
f 175//193 173//194 182//69
f 211//170 204//195 161//196
f 205//197 281//198 246//199
f 205//197 246//199 162//200
f 162//200 246//199 163//201
f 205//197 162//200 164//202
f 171//171 170//203 180//160
f 160//191 208//190 165//204
f 168//205 169//206 178//60
f 166//207 160//191 165//204
f 176//208 165//204 175//193
f 162//200 172//209 173//194
f 174//210 163//201 254//211
f 172//209 163//201 174//210
f 211//170 161//196 171//171
f 170//203 161//196 168//205
f 168//205 167//212 166//207
f 161//196 167//212 168//205
f 202//213 210//192 167//212
f 210//192 160//191 166//207
f 191//184 351//214 190//215
f 351//214 189//216 190//215
f 348//217 351//214 191//184
f 187//218 339//219 186//220
f 339//219 340//221 186//220
f 336//222 184//223 185//224
f 269//225 280//226 192//227
f 192//227 280//226 281//198
f 269//225 192//227 193//228
f 185//224 194//229 196//230
f 186//220 196//230 197//231
f 196//230 194//229 206//232
f 194//229 195//233 206//232
f 197//231 187//218 186//220
f 188//234 197//231 198//235
f 199//236 188//234 198//235
f 190//215 199//236 200//237
f 190//215 200//237 204//195
f 196//230 206//232 208//190
f 201//238 202//213 161//196
f 201//238 161//196 200//237
f 198//235 197//231 209//189
f 197//231 196//230 209//189
f 217//131 225//128 214//239
f 214//239 225//128 221//240
f 218//158 222//115 233//241
f 222//115 235//242 233//241
f 219//133 224//134 220//243
f 221//240 220//243 216//244
f 220//243 224//134 215//245
f 220//243 212//246 216//244
f 224//134 258//247 215//245
f 218//158 233//241 236//172
f 214//239 216//244 213//248
f 213//248 212//246 234//249
f 231//250 214//239 213//248
f 235//242 360//251 233//241
f 217//131 227//252 235//242
f 232//253 235//242 227//252
f 217//131 214//239 227//252
f 227//252 214//239 231//250
f 231//250 213//248 229//254
f 228//255 277//256 362//257
f 229//254 364//258 366//259
f 227//252 231//250 365//260
f 228//255 288//261 277//256
f 226//262 228//255 362//257
f 248//263 247//264 240//265
f 237//266 256//267 249//268
f 237//266 249//268 244//269
f 244//269 251//157 250//270
f 244//269 249//268 251//157
f 250//270 243//271 244//269
f 253//272 245//273 250//270
f 254//211 253//272 252//274
f 242//275 255//276 256//267
f 163//201 246//199 245//273
f 250//270 251//157 261//277
f 246//199 295//278 245//273
f 254//211 252//274 261//277
f 254//211 261//277 262//67
f 245//273 295//278 243//271
f 263//279 264//152 255//276
f 264//152 256//267 255//276
f 295//278 294//280 243//271
f 259//281 265//132 257//282
f 257//282 263//279 255//276
f 263//279 257//282 265//132
f 294//280 238//283 243//271
f 281//198 296//284 295//278
f 281//198 295//278 246//199
f 291//285 282//286 286//287
f 296//284 285//288 295//278
f 297//289 290//290 288//261
f 238//283 284//291 293//292
f 289//293 287//294 286//287
f 287//294 239//295 286//287
f 282//286 275//296 276//297
f 279//298 271//299 285//288
f 272//300 270//301 283//302
f 282//286 283//302 275//296
f 280//226 296//284 281//198
f 280//226 285//288 296//284
f 280//226 392//303 279//298
f 273//304 271//299 279//298
f 277//256 278//305 408//306
f 408//306 276//297 274//307
f 402//308 270//301 272//300
f 270//301 275//296 283//302
f 268//309 394//310 392//303
f 279//298 267//311 273//304
f 392//303 267//311 279//298
f 298//312 306//313 302//180
f 298//314 299//315 300//316
f 305//185 350//317 303//187
f 350//317 348//217 303//187
f 304//318 350//319 307//320
f 303//187 348//217 191//184
f 323//321 301//174 322//322
f 322//322 301//174 358//173
f 299//323 306//324 300//325
f 320//326 325//327 298//314
f 333//328 325//329 326//330
f 307//320 306//331 333//332
f 308//186 306//313 307//333
f 308//186 307//333 305//185
f 305//185 303//187 148//181
f 309//334 373//335 310//336
f 374//337 431//338 380//339
f 324//340 415//341 317//342
f 318//343 310//344 373//345
f 318//343 311//346 321//347
f 321//348 311//349 319//350
f 313//351 314//352 320//326
f 314//352 309//353 310//344
f 312//354 371//355 309//353
f 370//356 368//357 312//354
f 427//358 418//359 316//360
f 317//342 415//341 373//361
f 319//350 325//329 321//348
f 385//362 328//363 324//364
f 316//365 319//350 311//349
f 313//366 320//326 302//180
f 319//367 354//368 333//369
f 337//370 334//371 335//372
f 336//222 337//370 335//372
f 337//370 404//373 403//374
f 338//375 337//370 339//219
f 340//221 337//370 336//222
f 341//376 339//219 343//377
f 344//378 341//376 345//379
f 344//380 345//381 346//382
f 348//217 346//383 347//384
f 304//385 333//369 342//386
f 342//387 349//388 350//319
f 349//388 344//380 346//382
f 348//217 347//384 351//214
f 330//389 388//390 390//391
f 332//392 330//389 331//393
f 331//393 330//389 390//391
f 331//393 390//391 404//394
f 356//395 330//389 332//392
f 386//396 384//397 329//398
f 384//397 327//399 329//398
f 327//400 330//401 355//402
f 353//403 327//400 355//402
f 353//404 355//405 356//395
f 418//359 352//406 319//367
f 354//407 415//408 353//404
f 424//409 415//408 352//410
f 329//411 327//400 353//403
f 236//172 360//251 358//173
f 357//412 227//252 365//260
f 365//260 366//259 363//413
f 363//413 364//258 361//414
f 376//415 363//416 405//417
f 364//258 412//418 361//414
f 361//414 412//418 410//419
f 361//420 410//421 395//422
f 359//423 357//412 382//424
f 357//425 367//426 381//427
f 367//428 434//429 381//430
f 367//428 363//416 376//415
f 405//431 413//432 414//433
f 367//428 376//415 434//429
f 372//434 359//423 378//435
f 370//436 372//437 378//435
f 322//322 359//423 372//434
f 378//435 369//438 370//436
f 369//439 368//357 370//356
f 373//335 375//440 431//338
f 371//441 368//442 309//334
f 377//443 375//444 369//439
f 379//445 385//362 383//446
f 431//447 385//448 379//449
f 380//450 431//450 379//450
f 379//445 383//446 317//451
f 381//452 431//453 375//444
f 377//443 381//452 375//444
f 381//454 434//454 431//454
f 382//424 381//427 377//455
f 432//456 386//457 385//448
f 432//456 384//458 386//457
f 275//296 398//459 399//460
f 393//461 392//303 394//310
f 392//303 391//462 267//311
f 391//462 266//463 267//311
f 410//419 411//464 407//465
f 407//465 411//464 406//466
f 406//466 409//467 396//468
f 407//469 406//470 395//422
f 406//470 396//471 395//422
f 405//431 395//472 413//432
f 413//432 444//473 414//433
f 432//456 433//474 388//475
f 433//476 387//477 389//478
f 384//397 388//390 327//399
f 404//373 400//479 403//374
f 389//478 400//480 404//394
f 403//374 391//462 334//371
f 393//461 391//462 392//303
f 334//371 393//461 394//310
f 396//481 413//482 395//483
f 387//484 413//482 396//481
f 399//460 398//459 409//467
f 400//479 401//485 403//374
f 400//479 397//486 401//485
f 401//485 397//486 398//459
f 401//485 398//459 402//308
f 445//487 432//456 385//448
f 445//488 444//489 387//477
f 311//490 373//361 430//491
f 429//492 427//358 316//360
f 316//365 430//493 429//494
f 415//341 419//495 373//361
f 418//359 424//496 352//406
f 418//497 417//498 419//499
f 418//497 421//500 417//498
f 419//495 417//501 420//502
f 419//499 423//503 424//409
f 422//504 421//505 418//359
f 416//506 422//507 426//508
f 425//509 416//506 426//508
f 427//510 425//509 426//508
f 427//510 430//493 428//511
f 433//476 445//488 387//477
f 452//512 431//447 434//513
f 434//429 376//415 414//514
f 452//515 434//429 414//514
f 450//516 451//517 447//518
f 449//519 431//447 450//520
f 448//521 431//447 449//519
f 450//516 447//518 449//522
f 439//523 431//447 448//521
f 448//524 437//525 439//526
f 450//516 414//514 451//517
f 442//527 445//487 431//447
f 444//473 435//528 438//529
f 442//530 436//531 441//532
f 444//473 436//533 435//528
f 436//531 440//534 441//532
f 431//447 439//523 442//527
f 29//4 41//19 30//5
f 30//5 24//16 27//10
f 101//6 29//4 28//3
f 30//5 27//10 26//1
f 28//3 30//5 26//1
f 101//6 28//3 102//99
f 102//99 28//3 98//2
f 24//16 25//8 27//10
f 19//11 26//1 16//9
f 41//19 23//12 30//5
f 30//5 23//12 24//16
f 41//19 29//4 89//7
f 23//12 22//14 24//16
f 22//14 11//22 17//15
f 25//8 18//17 16//9
f 24//16 17//15 25//8
f 135//114 35//18 89//7
f 23//12 40//55 21//13
f 40//55 39//20 21//13
f 23//12 37//41 40//55
f 21//13 20//21 22//14
f 39//20 12//23 20//21
f 39//20 64//56 12//23
f 19//11 16//9 15//27
f 19//11 15//27 84//92
f 15//27 1//31 84//92
f 17//15 11//22 18//17
f 18//17 11//22 10//25
f 15//27 16//9 14//24
f 14//24 9//26 7//28
f 15//27 13//29 76//30
f 5//32 76//30 13//29
f 76//30 5//32 71//40
f 12//23 65//73 3//33
f 3//33 8//34 10//25
f 10//25 8//34 9//26
f 3//33 63//72 8//34
f 9//26 6//35 7//28
f 7//28 6//35 4//37
f 5//32 4//37 67//39
f 67//39 2//38 127//83
f 37//41 41//19 36//47
f 59//43 31//45 58//53
f 218//158 35//18 223//127
f 40//55 37//41 34//54
f 39//20 34//54 38//42
f 36//47 144//165 147//48
f 144//165 36//47 143//159
f 143//159 36//47 35//18
f 223//127 35//18 135//114
f 34//54 32//50 31//45
f 37//41 147//48 32//50
f 50//80 42//68 106//70
f 44//62 175//193 43//65
f 50//80 106//70 113//143
f 51//74 42//68 50//80
f 47//61 45//63 54//78
f 54//78 45//63 53//76
f 54//78 56//79 47//61
f 57//71 56//79 54//78
f 58//53 183//59 48//58
f 58//53 48//58 56//79
f 60//44 59//43 58//53
f 2//38 61//81 121//82
f 62//36 53//76 52//75
f 2//38 52//75 61//81
f 6//35 52//75 2//38
f 62//36 52//75 6//35
f 57//71 55//77 63//72
f 8//34 63//72 55//77
f 65//73 63//72 3//33
f 60//44 56//79 64//56
f 65//73 64//56 56//79
f 124//142 123//84 66//86
f 66//86 125//85 74//89
f 68//87 127//83 124//142
f 68//87 124//142 66//86
f 69//88 68//87 70//120
f 68//87 66//86 79//95
f 70//120 68//87 79//95
f 67//39 68//87 69//88
f 130//135 72//90 122//136
f 130//135 73//117 72//90
f 72//90 125//85 122//136
f 84//92 1//31 82//93
f 82//93 81//105 96//91
f 82//93 1//31 76//30
f 81//105 82//93 80//94
f 83//535 77//96 92//98
f 77//96 83//535 81//105
f 81//105 80//94 77//96
f 70//120 79//95 80//94
f 102//99 98//2 97//536
f 102//99 97//536 95//101
f 101//6 100//100 94//106
f 100//102 95//101 99//103
f 97//536 98//2 96//91
f 19//11 84//92 96//91
f 97//536 96//91 95//101
f 95//101 81//105 83//535
f 95//101 83//535 92//98
f 93//104 99//103 91//112
f 88//107 100//100 93//104
f 93//104 91//112 90//109
f 93//104 90//109 139//108
f 88//107 93//104 139//108
f 91//112 99//103 92//98
f 91//112 92//98 78//97
f 91//112 75//111 86//113
f 135//114 94//106 222//115
f 138//116 87//110 85//118
f 87//110 90//109 85//118
f 85//118 90//109 86//113
f 129//119 86//113 73//117
f 79//95 66//86 74//89
f 71//40 69//88 70//120
f 76//30 71//40 80//94
f 75//111 78//97 77//96
f 134//121 88//107 139//108
f 138//116 129//119 136//124
f 136//124 129//119 128//125
f 134//121 139//108 225//128
f 131//130 119//126 109//146
f 225//128 132//129 221//240
f 221//240 132//129 219//133
f 132//129 131//130 265//132
f 265//132 131//130 109//146
f 128//125 129//119 130//135
f 128//125 130//135 122//136
f 127//83 126//139 124//142
f 112//140 118//141 126//139
f 123//84 116//137 125//85
f 123//84 117//147 116//137
f 124//142 118//141 123//84
f 121//82 50//80 113//143
f 113//143 111//144 120//138
f 119//126 116//137 115//145
f 109//146 115//145 263//279
f 118//141 110//148 123//84
f 108//150 114//151 117//147
f 110//148 108//150 117//147
f 114//151 116//137 117//147
f 106//70 104//153 113//143
f 111//144 104//153 105//154
f 118//141 112//140 110//148
f 112//140 105//154 110//148
f 111//144 105//154 112//140
f 115//145 264//152 263//279
f 109//146 263//279 265//132
f 260//156 108//150 107//149
f 260//156 256//267 108//150
f 264//152 108//150 256//267
f 104//153 262//67 261//277
f 104//153 103//155 105//154
f 104//153 261//277 103//155
f 103//155 251//157 107//149
f 32//50 146//49 145//51
f 49//52 180//160 181//188
f 147//48 142//161 146//49
f 146//49 141//162 145//51
f 145//51 141//162 180//160
f 144//165 156//164 147//48
f 147//48 156//164 142//161
f 142//161 156//164 159//179
f 155//163 144//165 143//159
f 155//163 143//159 151//166
f 158//169 211//170 140//168
f 142//161 159//179 158//169
f 141//162 140//168 180//160
f 180//160 140//168 171//171
f 203//177 204//195 211//170
f 158//169 152//176 203//177
f 159//179 153//175 158//169
f 155//163 154//183 156//164
f 156//164 154//183 159//179
f 159//179 154//183 150//178
f 153//175 150//178 148//181
f 152//176 148//181 191//184
f 155//163 308//186 154//183
f 149//182 148//181 150//178
f 181//188 178//60 183//59
f 44//62 176//208 175//193
f 161//196 202//213 167//212
f 182//69 173//194 262//67
f 173//194 174//210 262//67
f 181//188 180//160 170//203
f 164//202 207//537 205//197
f 170//203 178//60 181//188
f 170//203 168//205 178//60
f 208//190 207//537 164//202
f 178//60 169//206 179//57
f 169//206 177//64 179//57
f 208//190 164//202 165//204
f 169//206 166//207 177//64
f 177//64 176//208 44//62
f 177//64 165//204 176//208
f 166//207 165//204 177//64
f 165//204 164//202 175//193
f 175//193 164//202 173//194
f 164//202 162//200 173//194
f 173//194 172//209 174//210
f 162//200 163//201 172//209
f 171//171 161//196 170//203
f 168//205 166//207 169//206
f 167//212 210//192 166//207
f 351//214 347//384 189//216
f 189//216 343//377 188//234
f 188//234 343//377 187//218
f 187//218 343//377 339//219
f 194//229 184//223 193//228
f 194//229 185//224 184//223
f 186//220 340//221 185//224
f 185//224 340//221 336//222
f 193//228 184//223 269//225
f 184//223 335//372 269//225
f 336//222 335//372 184//223
f 269//225 335//372 268//309
f 268//309 335//372 394//310
f 195//233 192//227 281//198
f 195//233 193//228 192//227
f 195//233 194//229 193//228
f 196//230 186//220 185//224
f 188//234 187//218 197//231
f 199//236 189//216 188//234
f 199//236 190//215 189//216
f 201//238 199//236 198//235
f 201//238 200//237 199//236
f 191//184 190//215 204//195
f 203//177 191//184 204//195
f 195//233 281//198 205//197
f 206//232 195//233 207//537
f 207//537 195//233 205//197
f 208//190 206//232 207//537
f 204//195 200//237 161//196
f 202//213 209//189 210//192
f 202//213 198//235 209//189
f 201//238 198//235 202//213
f 208//190 209//189 196//230
f 217//131 222//115 134//121
f 218//158 223//127 222//115
f 235//242 222//115 217//131
f 214//239 221//240 216//244
f 221//240 219//133 220//243
f 212//246 220//243 215//245
f 258//247 224//134 259//281
f 212//246 241//538 234//249
f 213//248 216//244 212//246
f 230//539 213//248 234//249
f 241//538 215//245 258//247
f 212//246 215//245 241//538
f 230//539 234//249 228//255
f 229//254 213//248 230//539
f 234//249 241//538 228//255
f 236//172 233//241 360//251
f 360//251 235//242 232//253
f 231//250 229//254 366//259
f 229//254 230//539 226//262
f 230//539 228//255 226//262
f 408//306 362//257 277//256
f 364//258 226//262 362//257
f 229//254 226//262 364//258
f 357//412 232//253 227//252
f 360//251 232//253 357//412
f 224//134 265//132 259//281
f 239//295 247//264 242//275
f 247//264 248//263 242//275
f 241//538 240//265 297//289
f 241//538 258//247 240//265
f 258//247 248//263 240//265
f 245//273 243//271 250//270
f 261//277 252//274 250//270
f 163//201 245//273 253//272
f 252//274 253//272 250//270
f 163//201 253//272 254//211
f 237//266 242//275 256//267
f 255//276 242//275 248//263
f 258//247 255//276 248//263
f 258//247 257//282 255//276
f 259//281 257//282 258//247
f 251//157 249//268 260//156
f 291//285 239//295 242//275
f 103//155 261//277 251//157
f 262//67 174//210 254//211
f 256//267 260//156 249//268
f 293//292 291//285 237//266
f 244//269 238//283 237//266
f 243//271 238//283 244//269
f 238//283 293//292 237//266
f 294//280 292//540 238//283
f 237//266 291//285 242//275
f 240//265 247//264 289//293
f 286//287 239//295 291//285
f 289//293 247//264 287//294
f 287//294 247//264 239//295
f 290//290 297//289 289//293
f 297//289 240//265 289//293
f 295//278 285//288 294//280
f 285//288 292//540 294//280
f 292//540 284//291 238//283
f 293//292 284//291 283//302
f 291//285 293//292 283//302
f 290//290 289//293 278//305
f 278//305 289//293 286//287
f 278//305 286//287 276//297
f 288//261 290//290 278//305
f 277//256 288//261 278//305
f 286//287 282//286 276//297
f 285//288 271//299 292//540
f 271//299 272//300 292//540
f 292//540 272//300 284//291
f 272//300 283//302 284//291
f 291//285 283//302 282//286
f 280//226 279//298 285//288
f 278//305 276//297 408//306
f 274//307 276//297 275//296
f 272//300 271//299 266//463
f 272//300 266//463 402//308
f 271//299 273//304 266//463
f 270//301 402//308 398//459
f 398//459 275//296 270//301
f 269//225 392//303 280//226
f 269//225 268//309 392//303
f 267//311 266//463 273//304
f 228//255 297//289 288//261
f 228//255 241//538 297//289
f 308//186 302//180 306//313
f 300//541 306//541 298//541
f 305//185 307//333 350//317
f 304//318 342//387 350//319
f 323//321 302//180 301//174
f 299//323 333//328 306//324
f 333//328 299//323 325//329
f 326//542 319//367 333//369
f 298//314 325//327 299//315
f 302//180 320//326 298//314
f 302//180 323//321 313//366
f 304//318 307//320 333//332
f 154//183 308//186 305//185
f 374//337 379//445 317//451
f 316//360 418//359 319//367
f 374//337 373//335 431//338
f 373//361 374//543 317//342
f 313//366 323//321 315//544
f 318//343 320//326 310//344
f 311//490 318//545 373//361
f 312//546 315//544 372//437
f 312//546 372//437 370//436
f 320//326 314//352 310//344
f 312//546 313//366 315//544
f 314//547 313//366 312//546
f 314//352 312//354 309//353
f 312//354 368//357 371//355
f 315//544 322//322 372//434
f 315//544 323//321 322//322
f 317//451 385//362 324//364
f 325//327 320//326 318//343
f 318//343 321//347 325//327
f 319//350 326//330 325//329
f 333//369 354//368 332//548
f 335//372 334//371 394//310
f 334//371 337//370 403//374
f 338//375 404//373 337//370
f 340//221 339//219 337//370
f 338//549 331//393 404//394
f 341//550 331//393 338//549
f 341//376 338//375 339//219
f 343//377 345//379 341//376
f 341//550 342//387 331//393
f 342//387 332//551 331//393
f 347//384 346//383 345//379
f 343//377 347//384 345//379
f 344//380 342//387 341//550
f 348//217 350//317 349//552
f 333//369 332//548 342//386
f 349//388 342//387 344//380
f 348//217 349//552 346//383
f 189//216 347//384 343//377
f 328//363 385//362 329//398
f 404//394 390//391 389//478
f 354//368 356//553 332//548
f 330//389 356//395 355//405
f 354//407 353//404 356//395
f 324//340 328//554 415//341
f 329//411 353//403 415//341
f 328//554 329//411 415//341
f 352//410 415//408 354//407
f 319//367 352//406 354//368
f 359//423 360//251 357//412
f 357//412 365//260 363//555
f 367//556 357//412 363//555
f 365//260 231//250 366//259
f 363//413 366//259 364//258
f 364//258 362//257 412//418
f 405//557 363//558 361//420
f 362//257 408//306 412//418
f 412//418 411//464 410//419
f 405//557 361//420 395//422
f 358//173 360//251 359//423
f 376//559 405//431 414//433
f 322//322 358//173 359//423
f 382//424 357//425 381//427
f 379//445 374//337 380//339
f 317//451 383//446 385//362
f 309//334 368//442 373//335
f 378//435 377//455 369//438
f 369//439 375//444 368//357
f 373//335 368//442 375//440
f 378//435 382//424 377//455
f 378//435 359//423 382//424
f 385//362 386//396 329//398
f 399//460 274//307 275//296
f 408//306 274//307 411//464
f 412//418 408//306 411//464
f 395//422 410//421 407//469
f 274//307 399//460 409//467
f 274//307 409//467 406//466
f 411//464 274//307 406//466
f 387//477 444//489 413//560
f 384//458 432//456 388//475
f 388//390 433//476 390//391
f 390//391 433//476 389//478
f 327//399 388//390 330//389
f 334//371 391//462 393//461
f 400//561 389//562 397//563
f 396//564 389//562 387//565
f 396//564 397//563 389//562
f 397//486 396//566 398//459
f 409//467 398//459 396//566
f 391//462 401//485 402//308
f 266//463 391//462 402//308
f 403//374 401//485 391//462
f 385//448 431//447 445//487
f 316//365 311//349 430//493
f 420//502 373//361 419//495
f 419//495 415//341 423//567
f 415//408 424//409 423//503
f 430//491 373//361 420//502
f 420//568 417//498 421//500
f 422//507 416//506 420//568
f 422//507 420//568 421//500
f 418//497 419//499 424//409
f 427//358 422//504 418//359
f 416//569 425//570 420//502
f 426//571 422//504 427//358
f 427//510 428//511 425//509
f 425//570 428//572 420//502
f 427//510 429//494 430//493
f 428//572 430//491 420//502
f 432//456 445//573 433//474
f 447//574 451//575 444//473
f 447//574 444//473 438//529
f 446//576 448//524 449//522
f 449//522 447//518 446//576
f 446//576 437//525 448//524
f 446//577 447//574 438//529
f 437//578 446//577 438//529
f 451//575 414//433 444//473
f 452//515 414//514 450//516
f 452//512 450//520 431//447
f 445//487 442//527 441//579
f 445//487 441//579 443//580
f 443//581 444//489 445//488
f 443//581 440//534 444//489
f 444//473 440//582 436//533
f 441//532 440//534 443//581
f 439//526 438//583 442//530
f 438//583 435//584 442//530
f 439//526 437//525 438//583
f 435//584 436//531 442//530
