# G1 exterior visual; derived from pinned Unitree/TWIST2 CAD.
v 0.0401096903 0.00440058904 0.00985092204
v 0.0401035361 0.00469138613 0.0128851924
v 0.0405910946 0.00531987194 0.00950301997
v 0.0415499806 0.00569159864 0.00995270628
v 0.0412222221 0.00570114655 0.012880764
v 0.0477892905 0.00549150631 0.00958257355
v 0.0471815281 0.00569323264 0.00995935593
v 0.0471032858 0.00570827164 0.0128982225
v 0.0547905751 0.00591458892 0.0127107287
v 0.0545950942 0.00549231283 0.00950444397
v 0.0547988638 6.43923195e-05 0.00920579396
v 0.0478583835 0.00550519256 0.0127189681
v 0.0547934212 0.00589475268 0.00921686366
v 0.0545251891 0.00553649431 0.0128910299
v 0.0394468494 0.00560084218 -0.00956864003
v 0.0401490703 0.00628930423 -0.00963530876
v 0.0410199352 0.00706277322 -0.0127764149
v 0.0410664864 0.00701539079 -0.00958856102
v 0.0424591191 0.00777096627 -0.00960681029
v 0.0521409027 0.0125997374 -0.0126468753
v 0.0431708395 0.00809681602 -0.0127804019
v 0.0440933853 0.00829647109 -0.00950123742
v 0.0451694988 0.0085143391 -0.0127842156
v 0.0459181108 0.00849291403 -0.00994699169
v 0.0547717512 0.0100676809 -0.0127942404
v 0.0546494909 0.00851980876 -0.0127533199
v 0.0544779971 0.00849798787 -0.00984532852
v 0.0524982177 0.0123980511 -0.0127871279
v 0.0523618646 0.0125327799 0.0128898937
v 0.053620372 0.011261384 -0.0127328746
v 0.0547968224 0.00990236085 0.0127105061
v 0.054602962 0.0102919387 0.0128723346
v 0.0547434948 0.00830802228 -0.00950094312
v 0.0547998101 4.30442014e-05 -0.00920671877
v 0.0516133867 -0.00686381478 0.00948225614
v 0.0527343489 -0.00572877843 0.00947806984
v 0.0535990745 -0.00447447086 0.00940903649
v 0.054204952 -0.00317719532 0.00949797034
v 0.0546542294 -0.0015915035 0.00947077479
v 0.040263284 -0.0145484852 0.00236297073
v 0.0400007479 -0.0145828323 0.00606289133
v 0.0399249122 -0.014592493 0.00406360719
v 0.0409795977 -0.0146094766 0.00400234014
v 0.0409808829 -0.0146033708 0.00550987152
v 0.042306833 -0.0142880687 0.00654617557
v 0.0405651592 -0.0145987729 0.00768200215
v 0.0409372523 -0.0145796612 0.00669329055
v 0.0422915854 -0.0143217463 0.00852892175
v 0.0409637801 -0.0146090267 0.0091081569
v 0.0419132859 -0.0143610621 0.00988691859
v 0.0429457612 -0.00906330999 0.0104916431
v 0.0394118391 -0.00588467112 0.00951339863
v 0.0395452268 -0.00382136018 0.00964690652
v 0.0403873101 -0.0011234855 0.00950113218
v 0.0401053429 -0.000571713725 0.00977400504
v 0.0400138572 -0.00108271383 0.0128677059
v 0.0423299707 -0.0142529327 0.00214406452
v 0.0422462076 -0.0143172126 0.00411431538
v 0.0432770401 -0.0135815237 0.00592802884
v 0.0432710387 -0.0136004174 0.00382284075
v 0.0438789465 -0.0125880037 0.00383744435
v 0.0438745804 -0.0126095545 0.00588169461
v 0.0440683253 -0.0114387022 0.0045274049
v 0.0432826318 -0.0135982577 0.00858982373
v 0.0438963808 -0.0125885652 0.00853014924
v 0.044069171 -0.0112711256 0.00650712801
v 0.0440872684 -0.0112000462 0.0086864084
v 0.0429210737 -0.0122802388 0.0104897553
v 0.043180801 -0.0134805739 0.00985740311
v 0.043871779 -0.0122308843 0.00985463057
v 0.0440504067 -0.0100891823 0.00452601956
v 0.0440597124 -0.00909437239 0.00712571898
v 0.0439913981 -0.00914507173 0.00977015309
v 0.0457685441 -0.00899732392 0.00945041794
v 0.047390312 -0.00885421596 -0.00940799341
v 0.0489466973 -0.00841970835 -0.00949032605
v 0.0474037677 -0.0088519305 0.00943853892
v 0.0488369018 -0.00845966954 0.00949496683
v 0.0502923168 -0.00779431872 -0.0094817197
v 0.0515390933 -0.00692190276 -0.00949923974
v 0.0526355281 -0.00584344566 -0.00948432367
v 0.0502695441 -0.00780279189 0.00948167872
v 0.0535781458 -0.00452112267 -0.00944303069
v 0.0541985109 -0.00320070027 -0.00949490163
v 0.0546564162 -0.00158329983 -0.00949079171
v 0.0398214757 -0.0145849977 -0.00653904537
v 0.0405461229 -0.0146005992 -0.00762594072
v 0.0405804366 -0.0145795988 -0.00569567923
v 0.0409896336 -0.0146254478 -0.00665112305
v 0.0422726646 -0.0142966965 -0.00586449541
v 0.0423275195 -0.0142991068 -0.00730022881
v 0.0400236882 -0.0145820705 -0.00157136924
v 0.0408892855 -0.0145792887 -0.00414535729
v 0.041041784 -0.0145963244 -0.00248675025
v 0.0422409959 -0.0143161528 -0.00424471265
v 0.0399847887 -0.0145935528 0.000547010801
v 0.0409480333 -0.014608575 -0.000554483093
v 0.0429624803 -0.00909401849 -0.00930071622
v 0.0432706475 -0.0136106992 -0.00703344168
v 0.043260131 -0.0135862501 -0.00591299217
v 0.0422516428 -0.0143085783 -0.0019679945
v 0.0422554947 -0.0143101448 0.000269449141
v 0.0432746895 -0.0135909272 -0.00166670198
v 0.0432566851 -0.0135934055 0.00032434045
v 0.0428746231 -0.0124309137 -0.00930475444
v 0.0431825593 -0.0135792298 -0.00865406916
v 0.0439601913 -0.0117927901 -0.00856762286
v 0.0438811742 -0.012603499 -0.00731749041
v 0.0440860353 -0.0111791948 -0.00740945758
v 0.0440726653 -0.0114521356 -0.00501384772
v 0.0433150157 -0.0135096954 -0.00442406535
v 0.0438852645 -0.0125712743 -0.0046780156
v 0.0438893512 -0.0125635033 -0.00178748509
v 0.0438846126 -0.0125479437 0.00026193657
v 0.0440690741 -0.0114419879 -0.00168734661
v 0.0440769978 -0.0114658652 0.000957852928
v 0.0440430939 -0.0102819325 -0.00057581102
v 0.0438706502 -0.00892550685 -0.00948268082
v 0.0440216139 -0.00907861814 -0.00859078579
v 0.0457140654 -0.00899677817 -0.00942048803
v 0.0440429486 -0.0101880291 -0.00657955743
v 0.0440485179 -0.0102578048 -0.00338438712
v 0.0442667902 -0.00901024509 0.00950328354
v 0.0440553539 -0.00909577683 -0.00144022482
v 0.0410357974 -0.0146143809 0.00163657812
v 0.0440366939 -0.0105155567 0.00135095103
v 0.051930286 0.0125994654 0.0127222463
v 0.0373151824 0.000810156169 -0.0127968639
v 0.0382362157 0.00331967021 -0.00950234383
v 0.038547162 0.00446764426 -0.0127839744
v 0.037383087 0.00110064726 -0.00963670108
v 0.0377436467 0.00279606972 -0.0126928613
v 0.0381384529 0.00367735256 -0.00968215056
v 0.0396065973 0.00584393227 -0.0127575509
v 0.0331747718 -0.0146046905 0.00285617448
v 0.0338024274 -0.0146010639 0.00158738729
v 0.0324378759 -0.0145653635 0.00656100642
v 0.032571692 -0.0145954788 0.00399266696
v 0.032736022 -0.0145699503 0.00547478162
v 0.0338325426 -0.0145911193 0.00499868346
v 0.0330994129 -0.0145917255 0.0078426525
v 0.0334650837 -0.0145902475 0.00917871296
v 0.0347540714 -0.0145682385 0.00315222121
v 0.0357173644 -0.0145840766 0.00163682667
v 0.0361241475 -0.0145961307 0.0029924165
v 0.0354724638 -0.0145903649 0.00453269575
v 0.0351460613 -0.014565371 0.00558750145
v 0.0363103785 -0.0145892641 0.00567799574
v 0.0336822756 -0.0145641249 0.00641019689
v 0.0350046679 -0.0145701999 0.00673371367
v 0.035600055 -0.0145952981 0.00779003557
v 0.0368800871 -0.0146143166 0.00672602095
v 0.0360320993 -0.0146129979 0.00909091067
v 0.0347728431 -0.0145837525 0.00890347827
v 0.0415064022 -0.0134762274 0.0104954317
v 0.0373342633 -0.014574782 0.00151190045
v 0.0386952981 -0.0145931505 0.00058054144
v 0.0389354266 -0.0145778563 0.00225159922
v 0.0373694412 -0.0145797115 0.00353771122
v 0.0375647694 -0.0145827681 0.00575108407
v 0.0375477038 -0.0145565858 0.00465293275
v 0.0383127145 -0.0145721612 0.00325067691
v 0.0387211293 -0.0145816924 0.00494968891
v 0.0377769656 -0.0145474309 0.00764948735
v 0.038778834 -0.0145890191 0.00671968283
v 0.0389602073 -0.0145664439 0.00802231953
v 0.0373207442 -0.0145865129 0.00912121683
v 0.0393806249 -0.0146370512 0.00897350442
v 0.0386326946 -0.00893611088 0.00957523379
v 0.0392317623 -0.00540205883 0.0128915887
v 0.0251595806 -0.0145878131 0.00149368448
v 0.0246762354 -0.0145661337 0.00347404857
v 0.0242791791 -0.0145659363 0.00520658214
v 0.0249734931 -0.0145538412 0.00762505643
v 0.0253572073 -0.014563215 0.00658487529
v 0.0247032233 -0.0146033233 0.00911818258
v 0.0268055759 -0.0145641826 0.00218510488
v 0.0282145273 -0.014606867 0.00116063654
v 0.0252611674 -0.0145763382 0.00542966323
v 0.0270757414 -0.0145676816 0.00351702352
v 0.0266422182 -0.0145866377 0.00511256326
v 0.0276731309 -0.01462889 0.00451700436
v 0.027682947 -0.0146305189 0.00559760677
v 0.0267845113 -0.0145502184 0.00796367787
v 0.0271215066 -0.0145877181 0.00659444975
v 0.0289210305 -0.0145553295 0.00630636327
v 0.0270895604 -0.0145875188 0.00913653802
v 0.0295210965 -0.0145802656 0.00221934426
v 0.0315824375 -0.0145522505 0.00253952038
v 0.028892763 -0.0145664942 0.00504190568
v 0.0287223402 -0.0145619083 0.00348826405
v 0.0301243756 -0.0146026285 0.00398181146
v 0.0301202312 -0.0146329124 0.00559995417
v 0.0289960615 -0.0145754227 0.00873460993
v 0.0282000117 -0.0145905586 0.00767345121
v 0.0300372951 -0.0145736448 0.0067145098
v 0.0307241194 -0.0145996213 0.00787137914
v 0.0301938355 -0.0145830773 0.00918421149
v 0.0384207629 -0.00881833583 0.0105966805
v 0.0312630236 -0.0145781273 0.00139916968
v 0.0314180441 -0.0145731354 0.00370417419
v 0.0313570909 -0.0145585546 0.00486513739
v 0.0312367175 -0.0145835308 0.00620123791
v 0.0320195295 -0.0145979766 0.0089662252
v 0.032652203 -0.0145611055 -0.00831785984
v 0.0327634923 -0.014572165 -0.00650807144
v 0.0331111364 -0.0146004502 -0.00553139066
v 0.0337611474 -0.0145742437 -0.00726409396
v 0.0322851241 -0.0145694353 -0.00419953652
v 0.0331654735 -0.0145932436 -0.00332736038
v 0.0330866054 -0.0146001875 -0.00212522945
v 0.0343113244 -0.0145985698 -0.00383440265
v 0.0325533226 -0.0145808849 0.000555446662
v 0.0336818844 -0.0145634804 -0.000250657904
v 0.0336037949 -0.0145780053 -0.00121235603
v 0.0415411405 -0.0135255698 -0.00926326495
v 0.0369104668 -0.00906046573 -0.00932881236
v 0.0415487662 -0.0144100916 -0.00865199696
v 0.0351447649 -0.0145547176 -0.00460545113
v 0.0350564271 -0.0145788724 -0.0062395297
v 0.0355390944 -0.0146151436 -0.00766619667
v 0.0362509899 -0.0145996483 -0.00613681599
v 0.0349835157 -0.0145611074 -0.00122418173
v 0.0364632122 -0.0145654799 -0.00426140241
v 0.0349984542 -0.0145840868 0.000525784912
v 0.035511598 -0.0145989452 -0.00209733611
v 0.0361319967 -0.0145720653 -0.000138189876
v 0.0373880193 -0.00147287757 -0.0127905142
v 0.037528418 -0.0145788826 -0.00823881198
v 0.0374714062 -0.0145737976 -0.0067859618
v 0.0379846916 -0.0145828482 -0.00568938814
v 0.0386684425 -0.014600358 -0.00723513123
v 0.0368459523 -0.0146105448 -0.00328673003
v 0.0379033163 -0.0145747112 -0.00426505459
v 0.0392993391 -0.0145826405 -0.0032654549
v 0.0396965034 -0.014583976 -0.00440858211
v 0.0368830338 -0.0146039808 -0.00111129554
v 0.0375085995 -0.014573493 0.000109566572
v 0.0379876532 -0.0145630939 -0.00185854582
v 0.0386772864 -0.0145630399 -0.000710459484
v 0.0371462069 -0.00861152913 -0.0127948951
v 0.0374951139 -0.00674506556 -0.0127066048
v 0.0377169549 -0.00564587489 -0.00958972704
v 0.0380262248 -0.00355968182 -0.0127901128
v 0.0380943678 -0.00350074377 -0.00950396061
v 0.0374264084 -0.00148822577 -0.00959408935
v 0.0243321229 -0.0145604517 -0.00749639468
v 0.0247478839 -0.0145728439 -0.00658218982
v 0.0251621027 -0.0145868473 -0.00514429761
v 0.0245844107 -0.014563716 -0.00344647188
v 0.0242214259 -0.0145861115 -0.000511774502
v 0.0251310356 -0.0145635931 -0.00125569187
v 0.0251504593 -0.0145601323 0.000110502682
v 0.0371159837 -0.00889684726 -0.00950895436
v 0.0266317017 -0.0145769231 -0.00521501247
v 0.0266846605 -0.0145854987 -0.00716879871
v 0.0276892018 -0.0146266157 -0.00556227518
v 0.0282442477 -0.0146127297 -0.00773559371
v 0.0282199755 -0.014597307 -0.00670582242
v 0.0259785876 -0.0146061489 -0.00228967308
v 0.0265632048 -0.0145732947 -0.00347499689
v 0.0275279749 -0.0145832757 -0.00425336463
v 0.0270036012 -0.0145628499 -0.000982402824
v 0.0266751815 -0.0145856682 0.000515349733
v 0.0282328352 -0.014609104 7.33477864e-05
v 0.0299180597 -0.0145552214 -0.000272778881
v 0.03000395 -0.0145617947 -0.0082845185
v 0.0289551951 -0.0145557253 -0.00585456332
v 0.0303129591 -0.0145723699 -0.00650924537
v 0.0279464722 -0.0145774819 -0.00259714737
v 0.0288477261 -0.01458639 -0.00412918534
v 0.0298745055 -0.0145768141 -0.00431412412
v 0.0300393533 -0.0145856505 -0.00264989026
v 0.0289690718 -0.0145743741 -0.00152521208
v 0.0301116221 -0.0145507269 0.000843105372
v 0.0367686339 -0.00889090355 -0.0127117243
v 0.0313390121 -0.0145751191 -0.0072689848
v 0.0307558775 -0.0145900352 -0.00550027378
v 0.0312922634 -0.0146167716 -0.00385960867
v 0.0314340964 -0.0145912925 -0.00218541641
v 0.0320766233 -0.0145956427 -0.000998046366
v 0.0312248655 -0.0145748742 -0.000182723161
v 0.0303325281 -0.0145824021 -0.00113380863
v 0.0137962 0.00699910661 0.00968200807
v 0.0172931235 0.00699353032 0.0128654735
v 0.0199689381 0.0070284917 0.00942937005
v 0.0181391556 0.00747103989 0.00952563249
v 0.0185252838 0.00789147336 0.0128831128
v 0.0190784298 0.00887077488 0.00955341943
v 0.0190917999 0.00903785881 0.0128242401
v 0.019151058 0.0123993615 0.00959168747
v 0.0191807337 0.0124856383 0.0128963161
v 0.0195532218 0.0125981411 0.0127263181
v 0.0134631954 0.00548756821 -0.0127878096
v 0.0135267032 0.00551186362 -0.00926089566
v 0.0135888746 0.0069901282 -0.012737046
v 0.0135429762 0.00550677394 0.00924902596
v 0.0186683163 0.00700195692 -0.00938590895
v 0.0169493444 0.00700097717 0.00949865766
v 0.0189975444 0.00753092533 -0.012567088
v 0.019006392 0.00752853369 -0.00955321174
v 0.0198821668 0.00702382065 -0.00941976253
v 0.0190478656 0.0123397624 -0.0127995582
v 0.0190308355 0.0124320285 -0.00955949817
v 0.0193721 0.0125919022 -0.0126545001
v 0.019998908 0.00751548586 -0.00895066373
v 0.0200011283 0.0125932069 -0.00943472981
v 0.0200054739 0.0125925401 0.00944265351
v 0.0189618394 0.00701746205 -0.0127752675
v 0.0197330955 0.00549499644 -0.00925451797
v 0.0197612867 0.0054970393 0.00925143994
v 0.0132982852 0.00511035277 0.00949943531
v 0.0183098875 -0.00527097145 0.0128997853
v 0.0172441266 -0.00549812336 0.00950808637
v 0.0172880664 -0.00550042139 0.0128430007
v 0.0189164951 -0.00686916057 0.00953976624
v 0.0188670848 -0.00679572672 0.0128993979
v 0.019991735 0.00510923006 0.00948972907
v 0.0192611497 -0.00868428033 0.00952052325
v 0.0192648508 -0.00877772272 0.012887314
v 0.0206024814 -0.0135685969 0.00271057058
v 0.021663649 -0.0143375294 0.00170024985
v 0.0216394216 -0.0143150836 0.00450779963
v 0.0228068363 -0.0145868985 0.00408225041
v 0.0216521043 -0.0143204788 0.00689758034
v 0.0221917573 -0.0145457089 0.00917759817
v 0.022810556 -0.0145768076 0.00774389179
v 0.0206659082 -0.0135310087 0.00979232416
v 0.0222442877 -0.0143790897 0.00987985637
v 0.0200143866 -0.0126024485 0.000703589933
v 0.0200275425 -0.0125865722 0.00256499043
v 0.0200230442 -0.0125865508 0.00607263856
v 0.0198368393 -0.0112728169 0.00436347257
v 0.019992236 -0.0125151025 0.00419113506
v 0.0206379313 -0.0135870762 0.00464951154
v 0.0206484161 -0.0136032812 0.00630397769
v 0.0198298115 -0.0113038123 0.00655980268
v 0.0199980997 -0.0125503531 0.00829613488
v 0.0207037646 -0.0136305448 0.00827552006
v 0.0198819153 -0.011597218 0.00978103746
v 0.0210630838 -0.0125641199 0.0104996236
v 0.0226318929 -0.0135255828 0.0104748029
v 0.0198293291 -0.0112843839 0.00185668038
v 0.0198344029 -0.0098329233 0.00452465517
v 0.0199984666 -0.00887784455 0.00940781273
v 0.0198342875 -0.0100324247 0.00743974047
v 0.0199983306 -0.00890203379 0.00990676787
v 0.0208975896 -0.00883291475 0.0105229653
v 0.038611874 -0.00876521319 0.0128798904
v 0.022780342 -0.0145709598 0.00231261225
v 0.0240521859 -0.0146037694 0.00164344069
v 0.0227713939 -0.0145792039 0.00599229196
v 0.0251683127 -0.0145577369 0.00437382469
v 0.0240510013 -0.014574036 0.00673824223
v 0.0240395535 -0.0145813469 0.00797486305
v 0.038845595 -0.00909143966 0.0105017079
v 0.01909885 -0.00539484667 -0.012799562
v 0.0183602236 -0.00550109474 -0.0125550693
v 0.0189799517 -0.00590645755 -0.012552809
v 0.0189720374 -0.00577594619 -0.00962401181
v 0.0199963525 0.00510013942 -0.00948808342
v 0.0190169793 -0.00847748201 -0.0127210347
v 0.0193525143 -0.00888467114 -0.012786706
v 0.0190258939 -0.00858683698 -0.00956438947
v 0.0221655704 -0.0143994521 -0.00865140557
v 0.0216495134 -0.0143194431 -0.00743768411
v 0.0216284394 -0.0143097118 -0.00596289523
v 0.021661384 -0.0143242683 -0.00355619169
v 0.0216431748 -0.0143154161 -0.000925274799
v 0.020967165 -0.0137771815 -0.00859248452
v 0.0209633801 -0.0124367401 -0.00925942603
v 0.0223744716 -0.0134942913 -0.00929540489
v 0.0200020559 -0.0124144601 -0.00859990995
v 0.0198114179 -0.0112911351 -0.00743304752
v 0.0200144257 -0.0126011362 -0.00594943436
v 0.0198507216 -0.0109408926 -0.00610422809
v 0.0206430722 -0.0136157954 -0.00715302536
v 0.0206313524 -0.0136075793 -0.00483539328
v 0.0198157206 -0.0113551514 -0.00396768842
v 0.020005241 -0.0125676217 -0.00406317227
v 0.0206066929 -0.0135617526 -0.00323492475
v 0.0198432468 -0.0114539266 -0.000383268663
v 0.0199981946 -0.0125322118 -0.00192518928
v 0.0206412505 -0.0135874683 -0.000831798301
v 0.0206528585 -0.0136192925 0.000614737393
v 0.0199300274 -0.008928339 -0.00947384164
v 0.0199975986 -0.00899986736 -0.00869320426
v 0.020642519 -0.00906567182 -0.00930448715
v 0.019829547 -0.00977972709 -0.00597727485
v 0.0198446903 -0.0102710966 -0.00253836904
v 0.0198260061 -0.00991132297 3.11796903e-05
v 0.0253456496 -0.0145645579 -0.00832447689
v 0.0228068084 -0.0146012399 -0.00507741002
v 0.0227812864 -0.0145809641 -0.00715207774
v 0.0240524635 -0.0146024935 -0.00516910292
v 0.0228060409 -0.0145850349 -0.00266090478
v 0.0228147283 -0.014587855 -0.00111860677
v 0.0227766093 -0.0145821376 0.000369026006
v 0.024078995 -0.0145950383 -0.00212765904
v 0.00421921769 -0.00698560663 0.00952388905
v 0.00421713386 -0.00698576309 0.012855541
v 0.00432657963 -0.00615540519 0.012902326
v 0.00440935278 -0.00597176049 0.00950292312
v 0.00519774156 -0.00549086556 0.00950172544
v 0.00501112919 -0.00549368886 0.0128790559
v 0.0193779171 0.00680228556 0.0129000004
v 0.0135152489 0.00691850251 0.00949304923
v -0.00637330906 -0.00292229955 0.00951383729
v -0.00632877322 -0.00302515901 0.0128877964
v -0.00549330469 -0.00430370448 0.0095059434
v -0.0069103362 -0.00103680801 0.00952501036
v -0.00699134683 0.000612960954 0.00954178069
v -0.00700947735 -0.000486680394 0.0128999222
v -0.00297489297 -0.00634828489 0.00952438265
v -0.00258671143 -0.00649386318 0.0128870113
v -0.00476523349 -0.00516063394 0.0128852632
v -0.00435147528 -0.00546369329 0.00951400306
v -0.000644816784 -0.00696831429 0.00950432103
v -0.000859236752 -0.00696239714 0.0128808292
v -0.000802002207 0.00697462261 0.00950105768
v -0.0067386115 0.00194159755 0.0128795691
v -0.00656484487 0.00239812699 0.00951198302
v -0.00591464387 0.00371450768 0.00951569714
v -0.00614389963 0.0033060878 0.0128871696
v -0.00496286713 0.00495156972 0.012870959
v -0.00464298297 0.00522466097 0.00953190587
v -0.0030116702 0.00632865867 0.00951399282
v -0.0029222311 0.00635977881 0.0128933461
v -0.000541310932 0.00698952097 0.0128750382
v 0.0132050291 0.00548062799 -0.00950068701
v -0.00404669903 -0.00372251263 -0.0127894767
v -0.00387244532 -0.00394386379 -0.009505325
v -0.00277131167 -0.00474079745 -0.0126652783
v -0.0055087544 -0.000431934313 -0.00973182544
v -0.00549064251 -0.000384757644 -0.0127081973
v -0.00503168069 -0.002193138 -0.0127726179
v -0.00506911241 -0.00208907016 -0.0095061399
v -0.00529751787 0.00151803833 -0.0127517488
v -0.00527205225 0.00152483757 -0.00951531343
v 1.81660489e-05 -0.00549845956 -0.0125544844
v -0.00043604392 -0.00548789278 -0.00957621541
v -0.00195886241 -0.00513111474 -0.00950869825
v -0.0012367093 -0.00537097687 -0.0127952192
v -0.00459673023 0.00301424158 -0.0126648489
v -0.0036199654 0.00411734404 -0.0127922976
v -0.00446997304 0.00320703723 -0.00951167196
v -0.00227921735 0.00499904295 -0.0127991661
v -0.00317099132 0.00449876022 -0.00950642582
v -0.000466713129 0.00548343733 -0.0127262482
v -0.00152645458 0.00527087692 -0.00950599834
v -0.000311781943 0.00549636921 -0.0096286051
v 0.0190803241 -0.00549226115 -0.00950315129
vn 0.1173756 -0.9490538 0.2924377
vn -0.05106553 -0.896225 0.4406507
vn -0.1080771 -0.9728903 0.2044601
vn 0.01169635 -0.7803407 0.6252451
vn 0.6744486 -0.7377281 0.02960106
vn 0.9179652 -0.3965651 -0.008714507
vn 0.9703807 -0.2402843 0.02499643
vn 0.1611523 -0.00551024 0.9869142
vn 0.6119215 -0.01931403 0.7906827
vn 0.286815 -0.05063534 0.9566469
vn 0.9964138 -0.08388 0.01111954
vn 0.9945228 -0.1034834 0.01468561
vn 0.0008715185 0.0001501995 0.9999996
vn 0.1811179 0.0009043874 0.983461
vn 0.1347555 -0.0002211842 0.9908789
vn 0.7989403 0.6014099 0.0006450979
vn 0.9680985 0.2505679 0.001088419
vn 0.9368155 0.3494824 -0.01545314
vn 0.569594 -0.005930401 0.8219049
vn 0.6396925 -0.00095914 0.7686303
vn 0.9720005 -0.02459029 0.2336885
vn 0.9838459 -0.1764603 0.03014853
vn 0.9801098 -0.02773182 -0.196509
vn -0.1400443 -0.9901402 0.003161137
vn 0.003175474 -0.9999381 0.0106611
vn 0.00435573 -0.9999043 0.01313436
vn -0.0153445 -0.6931443 0.7206355
vn 0.9949712 -0.07238704 0.06922828
vn 0.8289925 -0.5592276 0.005991057
vn 0.9034787 -0.4279473 0.0242323
vn 0.9432852 -0.3319728 0.002653176
vn 0.6615036 -0.749738 -0.01748592
vn 0.5498497 -0.8352433 -0.005822177
vn 0.550068 -0.8348696 -0.02044162
vn -0.001526944 0.1616687 -0.9868438
vn 0.002002683 -0.01494507 -0.9998863
vn -4.909742e-05 -0.006495991 -0.9999789
vn 0.1961599 -0.9789677 -0.05606768
vn 0.1002427 -0.9949256 -0.008625372
vn 0.02570913 -0.9797876 -0.1983814
vn 0.01179008 -0.01863856 -0.9997568
vn 0.3379488 -0.124547 -0.9328873
vn 0.07859837 -0.07993654 -0.9936963
vn 0.08014757 -0.1100736 -0.9906867
vn 0.4641519 -0.5413159 -0.7010992
vn 0.3953334 -0.9183538 -0.01837866
vn -0.000685434 0.5698599 -0.8217416
vn 8.251563e-05 0.498595 -0.8668352
vn 0.3202905 -0.9473174 -0.001938498
vn 0.006001779 -0.8761854 -0.481937
vn 0.7131783 0.6964553 -0.07954083
vn 0.999853 -0.01512142 -0.008090586
vn 0.9962481 -0.07959455 -0.03397726
vn -0.5478973 -0.8356554 -0.03858196
vn -0.220833 -0.9540802 -0.2023951
vn -0.03520065 -0.9993339 -0.009621994
vn 0.0001541837 0.1231815 -0.9923842
vn 0.4356146 0.8987346 0.05015925
vn 0.2771545 0.9608247 -0.001135851
vn 0.04790632 0.9849682 0.1659594
vn 0.6208493 0.7839245 -0.002940403
vn 2.873287e-05 -0.001026548 -0.9999995
vn 0.001903387 0.0009774234 -0.9999977
vn 0.6446887 -0.764445 0.0004033697
vn 0.4994964 -0.866316 0.0001847041
vn 0.639332 -0.7689307 -0.0001492446
vn 0.002702632 0.001086226 0.9999958
vn 0.00179193 0.0002164475 0.9999984
vn 0.8679819 -0.4965957 0.000265318
vn 0.8634838 -0.5043764 -0.0002308813
vn 0.9375427 -0.3478701 2.183887e-05
vn 0.9370369 -0.3492304 0.0001144052
vn 0.01552957 -0.01267765 0.9997991
vn 0.4669808 -0.2756965 0.8401906
vn 0.02145873 -0.01299355 0.9996853
vn 0.3215128 -0.1358215 0.9371137
vn 0.5557861 -0.1199725 0.8226229
vn 0.5633628 0.235451 0.7919501
vn 0.3040997 0.009938178 0.9525884
vn 0.5471837 0.3692269 0.7511736
vn 0.9999171 0.01240086 0.003436912
vn 0.9969283 -0.05564005 0.05511878
vn 0.9977852 -0.06644969 -0.003011924
vn 0.9999943 0.001934002 -0.002745384
vn 0.9972034 -0.0747345 0.000248878
vn 0.9999714 -0.007560776 -0.0001085454
vn 0.9998398 -0.01749741 0.003770845
vn 0.9999787 0.006302392 0.001687282
vn 0.9568996 -0.2635307 0.122044
vn 0.937953 -0.3436988 0.04599445
vn 0.3936465 -0.3721714 0.8405539
vn 0.09996768 -0.3116778 0.9449145
vn 0.9387053 -0.3447206 -0.0003846411
vn 0.7335361 -0.6796437 -0.003045883
vn 0.7325127 -0.678025 0.06088633
vn 0.3964499 -0.9180562 0.0004348593
vn 0.9383822 -0.3455976 -0.001060475
vn 0.03595835 -0.2845925 0.957974
vn 0.0287913 -0.244605 0.9691952
vn 0.006322997 -0.008668769 0.9999425
vn 0.9455813 -0.3253159 -0.006750009
vn 0.9969846 -0.07361811 -0.02453989
vn 0.7335929 -0.6795891 0.0003558715
vn 0.7311804 -0.6821841 -0.0001977564
vn 0.4342676 -0.9007761 -0.003748051
vn 0.2856653 -0.8115869 0.5096294
vn 0.4131242 -0.9101355 0.03133345
vn 0.08293828 -0.9894139 0.1190854
vn 0.005279511 -0.006598116 0.9999643
vn 0.1021641 -0.9927822 0.06281776
vn 0.3971532 -0.9177207 -0.007607937
vn 0.09999171 -0.9949853 0.00239877
vn 0.9845257 -0.1751073 0.006818064
vn 0.0008730505 -0.05281556 0.9986039
vn 0.01229996 0.9966825 0.08045355
vn 0.151079 0.9813924 0.1185077
vn 0.2534871 0.9618388 0.1030071
vn -0.007491268 -0.9927545 0.1199266
vn -0.01187983 -0.9993851 -0.03298908
vn 0.07339051 -0.9972045 -0.01403582
vn 0.1404328 -0.9865761 -0.08334324
vn 0.01896685 -0.9998031 0.005840259
vn -0.009835452 -0.999928 0.006871905
vn 0.1237176 -0.9910814 -0.04951501
vn 0.01942714 -0.9996766 0.01641024
vn -0.00899369 -0.9999338 -0.007173142
vn -0.008980555 -0.9999552 -0.002980815
vn 0.9839588 -0.1766374 -0.02498565
vn 0.1778746 -0.9840531 -7.654778e-06
vn 0.1787817 -0.9838887 -0.0003569535
vn 0.342084 -0.9396694 0.0002040442
vn 0.005486128 -0.001843862 -0.9999833
vn 0.04661382 -0.08660006 -0.995152
vn 0.002095468 -0.0228507 -0.9997367
vn 0.01311319 -0.003310845 -0.9999085
vn 0.7599867 -0.6499383 -0.0006195838
vn 0.7695247 -0.6386169 0.0004841727
vn 0.008639466 -0.006646874 -0.9999406
vn 0.9999447 0.01043688 -0.001289395
vn 0.9975262 -0.06847756 0.01588502
vn 0.004422163 -0.03191952 -0.9994807
vn 0.9995515 0.008447412 -0.02873141
vn 0.9996507 0.02616816 0.003718973
vn 0.03235053 -0.2967203 -0.9544164
vn 0.02343439 -0.248468 -0.9683565
vn 0.9982693 -0.05147711 -0.02843361
vn 0.8696187 -0.1491767 -0.4706481
vn 0.9973832 -0.07229683 3.084389e-05
vn 0.5599314 -0.0151493 -0.8284004
vn 0.3410959 -0.1559103 -0.927009
vn 0.2963521 -0.00687173 -0.955054
vn 0.9396186 -0.3422162 0.002217106
vn 0.7324395 -0.6808296 0.001872869
vn 0.7445655 -0.6675494 -0.0002884676
vn 0.7319379 -0.6812732 0.0115634
vn 0.9372601 -0.3486311 -0.000167607
vn 0.3997347 -0.9165741 -0.01019577
vn 0.9357023 -0.3487061 -0.05352747
vn 0.6341192 -0.6001156 -0.4876004
vn 0.7366551 -0.6761916 -0.01020776
vn 0.0008857186 -0.001549156 -0.9999984
vn 0.1049755 -0.3474077 -0.9318198
vn 0.192166 -0.8531607 -0.4849628
vn 0.106296 -0.9943048 0.007691678
vn 0.3911099 -0.9203253 0.005861665
vn 0.3923948 -0.9197925 0.002855131
vn 0.3972008 -0.9175396 0.01878024
vn 0.1128929 -0.9921609 0.0535909
vn 0.4121917 -0.9097064 -0.0503232
vn 0.01231801 0.0001595976 -0.9999241
vn 0.05483569 -0.9728029 -0.2250506
vn 0.03112177 -0.8059934 -0.5911058
vn -0.0004824788 -0.7317029 -0.6816235
vn -0.1269517 -0.3329228 -0.9343691
vn 0.02035031 -0.9997855 -0.003831685
vn -0.003139238 -0.9999836 -0.004782878
vn -0.003543379 -0.9999758 -0.005991142
vn 0.02233125 -0.9997436 0.003732718
vn 0.01515525 -0.9998849 -0.0006685519
vn 0.09787869 -0.9950467 -0.01736994
vn -0.004157666 -0.9999893 0.002048279
vn 0.0005601023 -0.9999992 0.001162682
vn 0.06762554 -0.9975438 0.01825623
vn 0.03070326 -0.9936107 -0.1086051
vn 0.09400267 -0.9955465 0.007126287
vn 0.004351736 -0.9997298 -0.02283494
vn 0.0007883545 -0.9999524 0.009728705
vn 0.04805237 -0.9988448 -8.104912e-06
vn -0.1048608 0.9653751 0.2388622
vn -0.2197738 0.9630332 0.155777
vn -0.0005183567 -0.006544052 -0.9999784
vn 0.001057333 -0.003119204 -0.9999946
vn 0.5248102 -0.2634546 -0.8094232
vn 0.8986784 -0.4379992 -0.02310874
vn 0.7346295 -0.6782087 -0.018775
vn 0.7709785 -0.636784 -0.009919814
vn 0.9472338 -0.3204405 -0.008136193
vn 0.8408759 -0.5405576 -0.0269277
vn 0.2068452 -0.02029939 -0.9781631
vn 0.1307127 -0.003097665 -0.9914154
vn 0.9919519 -0.1245352 -0.02285776
vn 0.3710188 -0.1282144 0.9197316
vn 0.9863171 0.1637104 -0.01942955
vn 0.9966215 -0.08093259 -0.01397565
vn 0.004379351 0.008868704 -0.9999511
vn -0.0002702429 -0.0006626804 -0.9999997
vn -0.3443422 0.9387782 -0.01113489
vn -0.04617241 0.998895 0.008761952
vn -0.02800669 -0.9995999 0.003949632
vn -0.1919424 -0.9806349 0.03890079
vn -0.01734388 -0.9995441 0.02470801
vn -0.3010505 -0.9524314 0.04735975
vn -0.006791002 -0.004836795 0.9999653
vn 0.0003876042 -0.006018945 0.9999818
vn 0.000615613 -0.003732697 0.9999928
vn 0.9839912 -0.1779071 0.01050294
vn 0.9833055 -0.1812949 0.0155707
vn 0.98384 -0.1786051 0.0126079
vn -0.00479899 0.006077588 0.99997
vn 0.001654967 0.0003503898 0.9999986
vn 0.009755402 -0.9951553 0.09782944
vn 0.02036276 -0.9997829 -0.004418439
vn 0.006100535 -0.9999812 0.0004183821
vn -0.006067855 -0.9999734 -0.004031631
vn -0.0009252538 -0.9999995 0.0001689142
vn -0.004088695 -0.9999906 -0.001405168
vn -0.005172275 -0.9999839 -0.002321716
vn -7.892511e-05 -0.9999958 -0.002891188
vn -0.01260032 -0.9998851 0.008420442
vn 0.003853587 -0.9999582 -0.008291188
vn 0.00757072 -0.9999714 -0.0002053864
vn -0.00944964 -0.9998886 0.01155592
vn -0.004742899 -0.9999878 0.001357503
vn 0.00771491 -0.9999335 -0.008563763
vn 0.002657234 -0.9999886 -0.00399791
vn -0.0004672916 -0.9999004 0.01410368
vn -0.0001789358 -0.9997787 0.02103445
vn -0.005012085 -0.9999775 -0.004463725
vn 0.004817997 -0.9999314 -0.01067738
vn 0.4362354 -0.08807367 0.895512
vn 0.03554312 0.0111747 0.9993057
vn 0.2084669 -0.03881777 0.9772588
vn 0.002474147 -0.9999958 -0.001495718
vn 0.001709304 -0.9998989 -0.01412127
vn 0.007137429 -0.9998964 0.01250288
vn -0.001945076 -0.9999779 0.006360216
vn -0.001954656 -0.9999967 -0.00167392
vn -0.009104133 -0.9992546 -0.03751625
vn -0.000366654 -0.9999459 -0.01039096
vn -0.01153604 -0.9998972 -0.008518089
vn -0.000450347 -0.9999958 -0.002876344
vn 0.002195203 0.001649602 0.9999962
vn 0.01885968 -0.9998187 -0.002634075
vn 0.003191957 -0.9910711 0.133296
vn -0.01587928 -0.9998595 -0.00538838
vn -0.07720199 -0.3293061 0.9410618
vn -0.01099374 -0.9994469 -0.0313859
vn -0.001872189 -0.999993 -0.003250996
vn 0.01220898 -0.999887 0.008778607
vn 0.0009123743 -0.9999995 -0.0002697394
vn -0.002920355 -0.9999501 -0.009554696
vn 0.0009598934 -0.9999461 0.01034651
vn -0.001706766 -0.9999889 -0.004382152
vn 0.006236681 -0.9999756 -0.003122243
vn 0.005863854 -0.9999815 -0.001615848
vn 0.002451508 -0.9999646 0.008050014
vn 0.004617559 -0.9999622 -0.007375422
vn -0.01772707 -0.9998426 -0.0006303824
vn 0.009077866 -0.9996326 -0.02553861
vn -0.3079067 -0.03624049 0.9507262
vn -0.2195614 -0.798368 0.5607149
vn 0.0008831748 -0.9911278 0.132909
vn 0.001877352 -0.9923145 0.1237273
vn -0.007789697 -0.9999143 0.01052382
vn -0.02042751 -0.9997168 -0.01220888
vn 0.009165705 -0.9999387 -0.006200557
vn -0.006257914 -0.9999717 -0.004171786
vn -0.01066532 -0.9963996 -0.08410779
vn -0.009228056 -0.9999574 -0.0002718148
vn 0.01128988 -0.999873 -0.01124027
vn -0.009250048 -0.9998055 -0.01741525
vn -0.001404966 -0.9999812 -0.005968024
vn -0.004820052 -0.9999545 0.00824003
vn 0.0004719102 -0.9999228 0.01242214
vn 0.0061586 -0.9999789 0.002076532
vn 0.01545281 -0.9998628 -0.005969984
vn -0.005804293 -0.9817452 0.1901121
vn 0.001206798 -0.9863961 0.1643814
vn -0.01080049 -0.9998676 -0.01217449
vn 0.01608311 -0.999867 -0.00274304
vn 0.01327172 -0.9999081 -0.002750759
vn 0.005004762 -0.9999875 -6.371128e-05
vn 0.002286789 -0.9999636 -0.008213822
vn 0.0002384106 -0.9999643 0.008444834
vn -0.1117358 -0.9937262 0.004825638
vn -0.0008396212 -0.9999973 0.002144066
vn -0.0007211203 -0.9999851 0.005406788
vn -0.004678859 -0.9999714 -0.005942045
vn -0.01188242 -0.9998334 0.01385305
vn -0.00248183 -0.9999669 -0.00774787
vn -0.005700275 -0.9999512 0.008073341
vn 0.006694492 -0.9827005 -0.1850807
vn 0.9975773 0.06791872 -0.01505682
vn 0.9825621 -0.1759856 0.06000669
vn 0.9978568 0.06151439 -0.02231171
vn 0.9760517 -0.1723551 -0.1327284
vn 0.983141 -0.1823642 -0.01330677
vn -0.0003831578 -0.740023 -0.6725814
vn -0.003898556 -0.9999917 -0.001235479
vn -0.0003780338 -0.999999 -0.001381483
vn -0.001312816 -0.9999905 0.00416518
vn 0.007300618 -0.999875 -0.01402156
vn -0.002276248 -0.9998339 -0.0180787
vn -0.001777044 -0.9999973 -0.001505638
vn -0.006973973 -0.9997972 -0.01888826
vn -0.001373993 -0.9998132 -0.01928305
vn -0.002053603 -0.9746823 -0.2235851
vn -0.1425437 -0.9715992 -0.1888818
vn -0.00819492 -0.9999054 0.01104093
vn 0.00705238 -0.9998243 0.01737052
vn 0.006267555 -0.9999692 -0.004734188
vn -0.01874312 -0.9997653 0.01085465
vn 0.0139034 -0.9998857 -0.005930495
vn -0.004510848 -0.9999894 -0.0008864507
vn -0.01055098 -0.9999344 0.004469949
vn -0.008673137 -0.9998786 0.01295189
vn -0.2262557 -0.8379907 -0.4965681
vn 0.0009255589 -0.9848767 -0.1732544
vn -0.007319148 -0.9999276 -0.009552778
vn 0.002024882 -0.999958 -0.008936989
vn 0.0137829 -0.9997122 -0.01963254
vn 0.01434199 -0.9998916 -0.00333669
vn 0.001122689 -0.9999993 -0.0004010733
vn -0.0002880262 -0.9999743 0.007172934
vn 0.004752889 -0.9999548 0.008224928
vn 0.009752878 -0.9998493 0.01436657
vn -0.0464325 -0.8624129 -0.5040713
vn -0.009120491 -0.9998815 0.01240009
vn -0.004398641 -0.9999306 0.0109273
vn -0.007609831 -0.9999602 0.004667452
vn -0.004668658 -0.999975 0.005309391
vn 0.002178975 -0.9999743 -0.006838803
vn -0.004539654 -0.9999897 0.0002999809
vn -0.008288473 -0.9999645 -0.001507096
vn 0.2019076 -0.6733644 0.7112057
vn 0.005665183 -0.9999654 -0.006082824
vn -0.009358829 -0.9999304 -0.007189237
vn 0.001337221 -0.07830221 -0.9969288
vn 0.004016065 -0.2903065 -0.9569252
vn -0.05849473 -0.007856284 -0.9982568
vn -0.007837042 -0.967142 -0.2541163
vn 0.0001844668 -0.9999747 0.007113905
vn -0.01045085 -0.9999184 -0.007341196
vn -0.007070502 -0.004815941 -0.9999635
vn -0.001013172 -0.9999928 -0.00362171
vn 0.0007255266 -0.9999981 -0.001804523
vn 0.001124206 -0.9999973 -0.002004718
vn 0.00344794 -0.9999907 0.002582998
vn 0.007687573 -0.9999705 -0.0001179786
vn 0.00267587 -0.9999959 0.00105344
vn -0.01142231 -0.9999346 0.0005195991
vn 0.006824338 -0.9995311 -0.02984742
vn 0.007001771 -0.9995449 -0.02934539
vn 0.002297545 -0.9999383 -0.01086662
vn -0.0160894 -0.9991956 -0.03673251
vn 0.01390783 -0.9998999 -0.002593019
vn 0.006673901 -0.9999728 0.003124599
vn -0.08943945 0.9959443 0.009779811
vn -0.04373001 0.9983146 -0.03815029
vn -0.3004605 0.9537562 -0.008531731
vn -0.005413918 0.9999843 0.001447277
vn -0.996269 -0.0019709 -0.08627925
vn -0.9276664 0.04583811 -0.3705858
vn -0.7807677 0.0915043 -0.6180848
vn -0.1297064 0.9669271 -0.2196092
vn -0.1437333 0.9896159 -0.001044962
vn -0.9997151 0.02316454 0.005762384
vn -0.9723883 0.2332769 -0.006554399
vn -0.9996375 0.02561152 0.008308121
vn -0.0641925 0.9978857 -0.0101647
vn -0.2311006 0.972403 -0.03201453
vn -0.9999073 0.001725718 0.01351145
vn -0.9923006 0.09238821 0.08248514
vn -0.9999841 0.005519808 -0.001166842
vn -0.166782 0.004400752 -0.985984
vn -0.06500306 0.04745296 -0.9967561
vn -0.0917026 0.022708 -0.9955274
vn -0.6277839 0.7780149 0.02408621
vn -0.02946685 0.09461123 -0.9950781
vn -0.7663678 0.6421246 -0.01888067
vn -0.9548886 0.2967982 0.009935672
vn -0.02384976 0.1173418 -0.9928052
vn -0.0004892914 -0.5237312 -0.8518835
vn -0.003941215 -0.2253318 -0.9742741
vn -0.001287788 -0.5331367 -0.8460281
vn -0.9707878 -0.2399276 0.002389295
vn -0.9961211 0.08790712 0.00386649
vn -0.9761729 -0.2169939 -0.0001335751
vn -0.1556603 0.002072522 -0.9878085
vn -0.001138115 0.01134765 -0.999935
vn -0.007284286 0.03437313 -0.9993826
vn -0.002479863 -0.999997 3.441653e-05
vn -0.002717821 -0.9999963 0.000114579
vn -0.00180286 -0.9999984 -0.0001936497
vn -0.996507 0.08345474 -0.003031526
vn -0.9975323 0.07017602 -0.002176378
vn -0.05201333 0.9986445 -0.001976546
vn -0.004798889 0.9999881 0.000863315
vn -0.09115848 0.995836 0.0008689787
vn -0.9999445 0.0103751 -0.001825031
vn -0.9960583 0.08248254 -0.03262494
vn -0.9979664 0.0553669 0.03158458
vn -0.9521086 0.3057451 0.003037758
vn -0.9999621 0.008334527 -0.002513499
vn -0.01713867 0.9998521 -0.001449577
vn -0.008397451 0.9999647 0.0002989371
vn -0.07678095 0.1282075 0.9887707
vn 0.02145546 0.2901936 0.9567275
vn -0.08956486 0.1027642 0.9906652
vn -0.8705351 0.4920367 -0.008278087
vn 0.02942072 3.626807e-05 -0.9995671
vn -0.1303995 0.005090179 0.9914485
vn -0.128422 0.005408102 0.9917049
vn -0.2031976 0.978733 0.02815216
vn -0.002270613 -0.5102391 0.8600296
vn 0.3715841 -0.9283638 -0.008115853
vn 0.2612104 -0.9651855 0.01364306
vn -0.3423086 -0.9395798 0.003845806
vn -0.3328527 -0.9429718 0.003651896
vn -0.861584 -0.5076146 0.0006496204
vn -0.8556102 -0.5176193 -0.001181415
vn -0.1381216 0.005104552 -0.990402
vn -0.03573256 -0.0009669198 -0.9993609
vn -0.0135948 -0.01385043 0.9998116
vn -0.07364725 -0.9969027 -0.02758741
vn -0.02986785 -0.9995502 0.002707302
vn -0.5133567 -0.341163 0.7874469
vn -0.5358747 -0.2254676 0.8136355
vn -0.2603331 -0.9643829 -0.04682209
vn -0.9961301 0.08789104 -9.552148e-05
vn -0.9981598 0.05867834 0.0152879
vn -0.997514 -0.07046836 -0.0001145588
vn -0.9973365 -0.07287528 0.003002405
vn -0.9977191 -0.06750173 -0.0002656181
vn -0.9997177 0.02358691 0.00288414
vn -0.9966072 0.08226795 -0.002507058
vn -0.3374205 -0.196903 0.9205306
vn -0.6584843 -0.6018364 0.4518754
vn -0.9372748 -0.3465206 0.03794209
vn -0.8758674 -0.1179587 0.4679124
vn -0.9393103 -0.3430599 -0.002474056
vn -0.7359147 -0.6770737 0.0008694551
vn -0.7299168 -0.6835356 0.0008585489
vn -0.9469867 -0.3212681 -0.001733018
vn -0.9418234 -0.3361015 0.002136287
vn -0.7425919 -0.6697395 0.002502544
vn -0.7272961 -0.6863219 -0.001666652
vn -0.9381013 -0.3442681 -0.03801831
vn -0.9908262 -0.1341621 -0.01624614
vn -0.2720732 -0.9553988 0.114845
vn -0.4139293 -0.9103051 0.002691814
vn -0.1110235 -0.9938174 0.0008864995
vn -0.08527847 -0.9963056 -0.01012826
vn -0.4151016 -0.9097748 0.0006397069
vn -0.7048723 -0.7088544 0.0260849
vn -0.1071838 -0.9942337 -0.003317151
vn -0.4003285 -0.9163718 -4.181463e-05
vn -0.4142466 -0.9101616 -0.002386869
vn -0.1196865 -0.9928102 0.001722157
vn 0.008600476 -0.999959 0.00283337
vn -0.01511463 -0.02442069 -0.9995875
vn -0.001999536 0.01364428 -0.9999049
vn -0.0001853974 -0.9158078 -0.4016168
vn -0.02678393 -0.9739428 -0.2252068
vn -0.2313754 -0.9720255 -0.04039837
vn -0.9671479 0.001789676 -0.2542082
vn -0.8136414 -0.5807215 0.02738721
vn -0.9998141 -0.01919447 -0.001846378
vn -0.5471349 -0.836279 0.03578722
vn -0.2144103 -0.01918232 -0.9765553
vn -0.9962254 0.004798176 0.08667185
vn -0.4135055 -0.9105012 -0.0007078642
vn -0.1018475 -0.9939564 -0.04096087
vn -0.116202 -0.9932255 0.0005052025
vn -0.1118544 -0.9937243 -0.0007420599
vn -0.4137737 -0.9103771 0.002235386
vn -0.9943706 0.1059423 -0.001792918
vn -0.9992763 -0.03786076 0.003682485
vn -0.9943774 -0.09664451 -0.0432816
vn -0.9986328 -0.04993656 0.01545702
vn -0.9501606 -0.3117607 0.0003581663
vn -0.6648172 -0.0642048 -0.7442418
vn -0.3419826 -0.1808822 -0.9221331
vn -0.5602386 -0.169017 -0.8109044
vn -0.171475 -0.982317 -0.07516388
vn -0.7374944 -0.6753436 0.003570387
vn -0.9982945 -0.05829957 0.003068192
vn -0.939804 -0.3417116 0.00128188
vn -0.9476895 -0.316521 0.04121906
vn -0.7257913 -0.6878821 0.006720882
vn -0.9424799 -0.3313144 -0.04430013
vn -0.7658629 -0.6419458 -0.03687269
vn -0.4088561 -0.9118582 -0.03676117
vn -0.6551093 -0.748219 -0.1048813
vn -0.1122056 -0.9936848 0.0006195189
vn -0.4080802 -0.9128886 -0.01024983
vn -0.1550958 -0.9878001 0.01401644
vn -0.767211 -0.6413941 0.001022961
vn -0.1385919 -0.9903297 -0.006269704
vn -0.004213864 -0.9999909 0.000538667
vn -0.004603081 -0.9999893 -5.007585e-05
vn -0.001455304 -0.007557609 0.9999704
vn 0.004711252 -0.05687234 0.9983703
vn 0.006802964 -0.008478224 0.9999409
vn -0.00291905 0.0005209045 0.9999956
vn 0.9898674 -0.1413015 0.01401618
vn 0.9828674 -0.1843131 0.0006061037
vn 0.8259052 -0.5636637 0.01279519
vn 0.8968051 -0.4424211 -0.002064226
vn -0.0004590877 -0.0005895175 -0.9999998
vn 0.0006958295 -0.006704944 -0.9999773
vn -0.002302607 0.0004640605 -0.9999973
vn 0.004444685 -0.001692534 0.9999887
vn 0.0008800938 0.003178423 0.9999945
vn -0.914512 -0.4045449 0.003336973
vn -0.7861287 -0.6180344 -0.005930493
vn -0.9042148 -0.4269481 0.01053368
vn -0.006578535 0.002412443 -0.9999754
vn -0.01101445 0.002204651 -0.9999369
vn -0.9964731 -0.08286358 0.01322886
vn -0.6769733 -0.735858 0.01484082
vn -0.4109564 -0.9116533 0.001762036
vn -0.3858234 -0.9225612 0.004598745
vn -0.6225018 -0.782595 -0.006048871
vn 0.005389314 -0.002578646 -0.9999821
vn 0.001211687 -0.0009372456 -0.9999989
vn -0.00411488 -0.005111849 0.9999784
vn 0.00271326 -0.0001508321 0.9999963
vn -0.1261995 -0.9919851 -0.006275902
vn -0.995544 0.09387977 -0.008880524
vn -0.9642466 0.2647417 0.01184277
vn -0.004345709 -0.001951463 -0.9999886
vn -0.008286121 0.008503985 -0.9999295
vn -0.8389151 0.5442039 -0.007985494
vn -0.9390708 0.3435612 -0.01057319
vn -0.8707941 0.4915679 0.008869208
vn -0.6993361 0.7147635 0.006495165
vn -0.01984254 0.02593388 -0.9994667
vn -0.001956383 -0.01333549 -0.9999092
vn -0.01667964 0.01160147 0.9997935
vn 0.00967344 0.001155033 0.9999526
vn -0.4291341 0.9032262 0.005126338
vn -0.4197175 0.907616 0.008389065
vn -0.000583273 -0.01862376 0.9998264
vn -0.003712197 -0.2012146 0.9795402
vn -0.02393216 -0.001258631 0.9997128
vn -0.1264031 0.9919293 -0.009929763
vn -0.004407752 0.1649632 -0.9862899
vn -0.0009175927 0.002256137 0.9999971
vn -0.007554583 0.5087722 0.8608681
vn -0.0007289294 0.03437088 0.9994089
vn -0.03031073 0.01368232 -0.9994469
vn -0.05643686 0.01489634 -0.998295
vn -0.3742156 0.2274883 -0.8990059
vn -0.02698109 0.0004142766 -0.9996358
vn -0.8387654 0.5444929 0.0004261708
vn -0.9632483 0.2685744 0.004535065
vn -0.8168877 0.576746 0.007654845
vn -0.958593 0.2846946 0.006944472
vn -0.9972489 -0.07412088 -0.0008824635
vn -0.6551523 0.7554105 -0.01142074
vn -0.410213 0.9118832 -0.01394461
vn -0.5752782 0.8178679 0.01213561
vn -0.0195848 -0.02412178 -0.9995172
vn -0.3044915 0.9524822 0.007913589
vn -0.000113782 -0.0002832965 1
vn -0.001002092 -0.00190417 0.9999977
vn -0.1105545 -0.9938269 0.009257779
vn -0.0001544133 -0.9999955 0.002996089
vn -0.381717 -0.9240793 0.01922348
vn -0.243599 -0.4121861 -0.8779307
vn -0.04023549 -0.001807283 0.9991886
vn -0.5382615 -0.0280881 0.8423097
vn -0.04549226 -0.0006673626 0.9989644
vn -0.9138888 -0.4059644 0.000513077
vn -0.9131987 -0.4075068 0.002518228
vn -0.7054051 -0.7086986 0.01223321
vn -0.7500004 -0.6614202 -0.004785398
vn -0.5063255 -0.8623061 -0.007913372
vn -0.002079001 -0.05867667 0.9982749
vn -0.1184632 -0.9929571 0.001632978
vn 0.3463716 -0.9380076 -0.01297967
vn -0.0133758 0.0002467221 0.9999105
vn 0.0007767322 0.0006105137 0.9999995
vn 0.6558493 -0.03770271 0.7539497
vn 0.003206918 -0.001250236 0.999994
vn 0.008405687 -0.6886035 0.7250894
vn 0.002465223 -0.0008576561 0.9999966
vn 0.07488664 -0.00411451 0.9971836
vn 0.8204991 0.004133092 0.5716329
vn -0.0003444288 -0.006472662 -0.999979
vn 0.1652894 -0.3271333 -0.9304102
vn 0.003273193 -0.02668556 -0.9996386
vn 0.496632 -0.8679611 0.0004014152
vn 0.3476085 -0.9376397 -0.0001702766
vn 0.9977052 0.01134399 0.06675207
vn 0.01404592 0.9972826 0.07231982
vn 0.4349913 -0.9004144 -0.006026142
vn 0.3790799 -0.9253639 -0.0002758896
vn 0.2684825 -0.9632782 -0.003495336
vn 0.05321598 -0.9982756 -0.02477717
vn 0.5720601 -0.8201986 -0.004641924
vn 0.7317008 -0.6691929 0.129595
vn 0.2747718 -0.1662945 -0.9470198
vn 0.04442979 -0.9951257 -0.08803768
vn 0.9852236 0.1709189 -0.01101185
vn 0.5432029 0.8394507 0.01591387
vn -0.003688193 -0.3335723 0.9427173
vn 0.9833104 -0.1818847 -0.004328518
vn 0.0009810466 0.0005768553 -0.9999994
vn 0.05323341 -0.9985419 -0.008959118
vn 0.3048784 -0.9517542 -0.03483119
vn 0.584287 -0.8089503 -0.06486905
vn 0.005104064 -0.9999651 -0.006603134
vn -9.634228e-05 -0.000782993 -0.9999996
vn -0.001164565 -0.999988 -0.004767182
vn 4.724622e-05 -0.9994068 -0.03444042
vn -0.001454746 -0.9991862 0.04030877
vn 0.00186097 -0.1027302 -0.9947075
vn 0.007503535 -0.003278381 -0.9999665
vn -0.1236833 0.9923058 0.005622232
vn 0.001286784 -0.001561848 -0.999998
vn -0.1725977 0.003484941 -0.9849862
vn -0.2785079 -0.003096211 0.9604289
vn 0.008400005 0.02207585 0.999721
vn -0.9999449 0.01041714 -0.001354448
vn -0.985523 0.1286609 0.1104115
vn -0.002734246 0.1487259 0.9888747
vn -0.009116343 0.9999585 -0.0002058482
vn -0.1496432 0.005718522 -0.9887235
vn -0.001565373 -0.9999987 -0.0002736531
vn -0.05516382 -0.977955 0.2013973
vn -0.9659697 -0.2579739 0.01875821
vn -0.09281514 0.9956698 -0.005187365
vn -0.6064494 0.7947029 -0.02581779
vn -0.00505776 0.9999787 0.004136884
vn -0.8593506 -0.5113868 5.142212e-05
vn -0.8316644 -0.555277 0.001328242
vn -0.003327836 -0.001134711 0.9999938
vn 0.002417427 0.0004765143 0.999997
vn -0.01015923 -0.197358 0.9802788
vn -0.9970447 0.06841242 0.03495168
vn -0.9810808 -0.1934258 -0.008184636
vn -0.9824461 -0.1865019 -0.004096215
vn -0.0001471138 -0.9691734 -0.2463797
vn -0.9379163 -0.3461259 -0.02258146
vn -0.9095404 0.1896155 0.3698408
vn -0.938833 0.2643127 0.2207519
vn -0.8603758 0.1170898 0.4960277
vn -0.7446569 -0.0001106176 0.6674475
vn -0.2421844 -0.3752458 -0.8947275
vn -0.9116358 0.01374644 -0.4107693
vn -0.09079292 -0.01395827 0.995772
vn -0.1062887 -0.01780402 0.9941759
vn -0.6900097 -0.07529894 -0.7198726
vn -0.3408385 -0.4195584 -0.8413084
vn -0.003757357 -0.001734851 -0.9999915
vn 0.003946193 -0.02141476 -0.999763
vn -0.9845995 -0.1748243 -0.0004261887
vn -0.007737244 -0.006851407 0.9999465
vn -0.002747361 -0.001302698 -0.9999954
vn -0.09285177 0.005562185 -0.9956645
vn -0.04297448 0.0131673 0.9989895
vn -0.6607684 0.7505874 -0.001913951
vn -0.9973428 -0.07249412 -0.007218118
vn -0.00113774 -0.002100848 0.9999972
vn -0.1624935 -0.006091204 -0.9866908
f 4//1 6//2 7//3
f 4//1 3//4 6//2
f 3//5 2//6 1//7
f 3//8 1//9 54//10
f 2//6 55//11 1//7
f 2//6 56//12 55//11
f 8//13 14//14 32//15
f 32//16 31//17 25//18
f 32//15 9//19 31//20
f 11//21 39//22 34//23
f 12//24 10//25 14//26
f 8//27 12//27 14//27
f 39//22 11//21 13//28
f 7//3 6//2 12//24
f 13//28 14//29 10//30
f 9//31 14//29 13//28
f 16//32 17//33 18//34
f 303//35 25//36 23//37
f 22//38 23//39 24//40
f 22//41 129//42 15//43
f 18//44 15//43 16//45
f 18//34 17//33 19//46
f 20//47 303//35 305//48
f 21//49 23//39 22//38
f 22//38 24//40 33//50
f 32//16 25//18 30//51
f 25//18 33//52 26//53
f 33//54 27//55 26//56
f 24//40 26//56 27//55
f 33//50 24//40 27//55
f 25//36 303//35 28//57
f 29//58 20//59 127//60
f 29//58 28//61 20//59
f 22//41 33//62 85//63
f 35//64 79//65 80//66
f 54//10 82//67 35//68
f 37//69 83//70 38//71
f 38//71 83//70 84//72
f 36//73 37//74 38//75
f 68//76 70//77 73//78
f 51//79 73//78 123//80
f 72//81 67//82 66//83
f 71//84 66//83 63//85
f 124//86 71//84 117//87
f 71//84 126//88 117//87
f 67//82 70//89 65//90
f 68//76 69//91 70//77
f 155//92 69//91 68//76
f 66//83 62//93 63//85
f 65//90 59//94 62//93
f 64//95 59//94 65//90
f 59//94 64//95 45//96
f 63//85 62//93 61//97
f 62//93 59//94 61//97
f 74//98 77//99 78//100
f 63//85 114//101 116//102
f 104//103 114//101 60//104
f 57//105 104//103 60//104
f 50//106 48//107 64//95
f 50//106 49//108 48//107
f 48//107 45//96 64//95
f 123//109 74//98 78//100
f 45//96 44//110 58//111
f 125//112 57//105 58//111
f 56//12 53//113 55//11
f 356//114 68//76 51//79
f 51//115 169//116 356//117
f 356//114 155//92 68//76
f 168//118 166//119 46//120
f 46//120 47//121 45//96
f 47//121 41//122 45//96
f 41//122 44//110 45//96
f 46//120 165//123 47//121
f 165//123 41//122 47//121
f 43//124 40//125 58//111
f 40//125 125//112 58//111
f 44//110 42//126 43//124
f 41//122 163//127 42//126
f 123//109 78//100 54//10
f 39//22 38//71 85//128
f 77//129 75//130 78//131
f 80//132 79//133 76//134
f 22//41 81//135 80//132
f 80//66 81//136 35//64
f 35//64 81//136 36//137
f 85//63 84//138 22//41
f 83//70 36//137 81//136
f 122//139 117//87 115//140
f 80//132 76//134 118//141
f 124//86 122//139 119//142
f 119//142 122//139 121//143
f 76//134 75//144 120//145
f 121//143 109//146 119//142
f 119//142 109//146 107//147
f 121//143 110//148 109//146
f 119//149 105//150 98//151
f 117//87 116//102 114//101
f 115//140 114//101 113//152
f 114//101 104//103 113//152
f 104//103 103//153 113//152
f 111//154 100//155 112//156
f 103//153 95//157 111//154
f 111//154 95//157 100//155
f 110//148 108//158 109//146
f 110//148 112//156 108//158
f 108//158 106//159 107//147
f 112//156 100//155 108//158
f 100//155 99//160 108//158
f 80//132 118//141 254//161
f 107//147 106//159 105//150
f 216//162 106//159 218//163
f 97//164 101//165 102//166
f 90//167 100//155 95//157
f 94//168 95//157 101//165
f 91//169 99//160 100//155
f 99//160 91//169 106//159
f 106//159 91//169 218//163
f 80//132 254//161 245//170
f 118//171 98//172 217//173
f 105//150 372//174 98//151
f 97//164 92//175 101//165
f 92//175 94//168 101//165
f 157//176 240//177 96//178
f 240//177 239//179 92//175
f 92//175 93//180 94//168
f 92//175 235//181 93//180
f 236//182 88//183 93//180
f 91//169 87//184 218//163
f 88//183 89//185 90//167
f 89//185 87//184 91//169
f 88//183 87//184 89//185
f 232//186 87//184 86//187
f 232//186 218//163 87//184
f 74//188 75//130 77//129
f 117//87 126//88 116//102
f 96//178 97//164 102//166
f 127//60 20//59 293//189
f 29//58 293//189 292//190
f 17//191 134//192 303//35
f 129//42 133//193 15//43
f 133//194 134//195 15//196
f 133//194 132//197 130//198
f 129//42 131//199 133//193
f 129//42 246//200 131//199
f 133//194 131//201 132//197
f 130//202 132//202 128//202
f 131//201 228//203 128//204
f 129//42 245//170 246//200
f 130//205 128//206 303//35
f 20//59 305//207 307//208
f 320//209 199//210 349//211
f 169//212 349//211 199//210
f 317//213 320//214 349//215
f 170//216 349//217 169//218
f 406//219 317//213 170//220
f 167//221 164//222 168//118
f 158//223 157//176 40//125
f 189//224 200//225 213//226
f 189//224 213//226 135//227
f 201//228 135//227 138//229
f 137//230 202//231 139//232
f 163//127 162//233 158//223
f 143//234 135//227 136//235
f 139//232 138//229 140//236
f 204//237 197//238 137//230
f 160//239 163//127 41//122
f 165//123 160//239 41//122
f 53//240 169//241 52//242
f 144//243 136//235 225//244
f 143//234 136//235 144//243
f 135//227 143//234 146//245
f 53//113 170//216 169//218
f 140//236 146//245 147//246
f 143//234 145//247 146//245
f 154//248 141//249 150//250
f 149//251 140//236 147//246
f 150//250 149//251 147//246
f 406//219 170//220 56//252
f 150//250 147//246 152//253
f 153//254 154//248 151//255
f 342//256 50//106 155//92
f 164//222 160//239 165//123
f 167//221 152//253 164//222
f 148//257 160//239 152//253
f 161//258 162//233 163//127
f 160//239 161//258 163//127
f 159//259 162//233 161//258
f 148//257 161//258 160//239
f 158//223 156//260 157//176
f 156//260 238//261 157//176
f 144//243 156//260 145//247
f 182//262 191//263 190//264
f 188//265 200//225 189//224
f 188//265 178//266 275//267
f 191//263 178//266 188//265
f 264//268 265//269 178//266
f 348//270 155//92 356//114
f 329//271 176//272 187//273
f 175//274 181//275 183//276
f 184//277 175//274 185//278
f 191//263 188//265 190//264
f 175//274 179//279 181//275
f 184//277 174//280 175//274
f 181//275 180//281 182//262
f 180//281 191//263 182//262
f 181//275 353//282 180//281
f 353//282 177//283 180//281
f 179//279 353//282 181//275
f 172//284 177//283 353//282
f 177//283 253//285 264//268
f 177//283 171//286 253//285
f 50//106 198//287 142//288
f 198//287 197//238 204//237
f 196//289 203//290 197//238
f 174//280 354//291 173//292
f 355//293 354//291 174//280
f 192//294 201//228 202//231
f 350//295 351//296 172//284
f 351//296 171//286 172//284
f 171//286 351//296 253//285
f 186//297 190//264 193//298
f 275//267 213//226 200//225
f 213//226 275//267 282//299
f 342//256 329//271 50//106
f 198//287 194//300 197//238
f 50//106 187//273 198//287
f 194//300 195//301 196//289
f 196//289 195//301 186//297
f 195//301 185//278 186//297
f 232//186 229//302 218//163
f 245//303 243//304 244//305
f 244//305 243//304 242//306
f 243//304 241//307 242//306
f 244//305 242//306 241//307
f 118//171 217//173 254//308
f 238//261 240//177 157//176
f 227//309 240//177 238//261
f 239//179 234//310 235//181
f 234//310 231//311 236//182
f 239//179 233//312 234//310
f 234//310 224//313 231//311
f 231//311 230//314 232//186
f 230//314 229//302 232//186
f 231//311 222//315 230//314
f 221//316 205//317 229//302
f 254//308 217//173 386//318
f 216//162 218//163 372//174
f 227//309 223//319 237//320
f 225//244 214//321 227//309
f 214//321 223//319 227//309
f 226//322 223//319 212//323
f 223//319 210//324 212//323
f 208//325 221//316 220//326
f 208//325 205//317 221//316
f 205//317 365//327 218//163
f 267//328 365//327 205//317
f 218//163 365//327 372//174
f 278//329 206//330 207//331
f 279//332 278//329 209//333
f 280//334 279//332 209//333
f 278//329 207//331 209//333
f 280//334 209//333 210//324
f 209//333 207//331 210//324
f 211//335 280//334 210//324
f 215//336 280//334 211//335
f 386//318 217//173 388//337
f 283//338 274//339 280//334
f 280//334 273//340 279//332
f 273//340 270//341 271//342
f 262//343 271//342 270//341
f 262//343 255//344 271//342
f 255//345 257//345 268//345
f 268//346 269//347 278//329
f 241//348 276//349 363//350
f 105//150 216//162 372//174
f 392//351 365//327 267//328
f 266//352 274//339 283//338
f 270//341 273//340 274//339
f 272//353 278//329 279//332
f 268//346 278//329 272//353
f 271//342 272//353 273//340
f 98//151 372//174 388//354
f 264//268 263//355 265//269
f 263//355 261//356 270//341
f 253//285 263//355 264//268
f 252//357 260//358 263//355
f 261//356 262//343 270//341
f 261//356 249//359 255//344
f 260//358 250//360 261//356
f 255//344 256//361 257//362
f 256//361 392//351 258//363
f 255//344 248//364 256//361
f 248//364 247//365 256//361
f 247//365 392//351 256//361
f 399//366 250//360 252//357
f 395//367 249//359 250//360
f 249//359 395//367 248//364
f 299//368 284//369 285//370
f 299//368 296//371 284//369
f 407//372 297//373 312//374
f 284//369 407//375 420//376
f 284//369 296//371 407//375
f 291//377 290//378 292//379
f 308//380 291//381 293//189
f 307//382 306//383 308//384
f 291//385 286//386 289//387
f 285//370 287//388 299//368
f 289//387 286//386 287//389
f 288//390 289//391 287//388
f 287//389 286//386 299//392
f 311//393 318//394 297//395
f 361//396 345//397 318//398
f 309//399 294//400 296//401
f 295//402 310//403 311//404
f 296//405 294//406 407//372
f 430//407 294//408 451//409
f 303//410 309//411 300//412
f 300//412 301//413 304//414
f 302//415 298//416 299//368
f 301//417 298//418 302//419
f 300//412 309//411 298//420
f 303//35 357//421 309//399
f 304//422 302//419 307//423
f 304//424 307//208 305//207
f 20//59 307//208 308//380
f 295//425 361//425 310//425
f 309//399 357//421 294//400
f 405//426 404//427 315//428
f 314//429 316//430 317//431
f 319//432 316//433 318//394
f 406//219 313//434 317//213
f 320//209 319//435 348//436
f 348//270 319//437 347//438
f 347//439 319//439 345//439
f 345//397 344//440 346//441
f 344//440 337//442 346//441
f 344//440 343//443 333//444
f 387//445 344//440 345//397
f 387//445 391//446 344//440
f 391//446 343//443 344//440
f 341//447 328//448 329//271
f 338//449 328//448 340//450
f 333//444 332//451 337//442
f 337//442 332//451 338//449
f 332//451 335//452 336//453
f 332//451 334//454 335//452
f 335//452 331//455 321//456
f 334//454 332//451 333//444
f 333//444 331//455 334//454
f 331//455 385//457 321//456
f 330//458 385//457 331//455
f 382//459 330//458 343//443
f 343//443 330//458 331//455
f 326//460 329//271 328//448
f 325//461 352//462 327//463
f 325//461 323//464 352//462
f 339//465 325//461 326//460
f 323//464 350//295 324//466
f 350//295 322//467 369//468
f 323//464 322//467 350//295
f 321//456 322//467 323//464
f 322//467 321//456 385//457
f 350//295 398//469 351//296
f 398//469 253//285 351//296
f 253//285 398//469 251//470
f 353//282 324//466 350//295
f 352//462 324//466 173//292
f 353//282 350//295 172//284
f 324//466 353//282 173//292
f 355//293 327//463 354//291
f 354//291 352//462 173//292
f 326//460 327//463 355//293
f 329//271 326//460 176//272
f 326//460 355//293 176//272
f 357//421 443//471 447//472
f 357//473 440//474 443//475
f 359//476 364//477 360//478
f 358//479 359//479 360//479
f 357//421 363//350 362//480
f 386//481 387//445 361//396
f 303//35 363//350 357//421
f 367//482 394//483 393//484
f 395//367 394//483 248//364
f 394//483 365//327 247//365
f 394//483 247//365 248//364
f 396//485 368//486 393//484
f 387//445 389//487 391//446
f 390//488 382//459 391//446
f 389//487 387//445 374//489
f 374//489 376//490 389//487
f 387//445 373//491 374//489
f 387//492 371//493 373//494
f 387//495 386//318 388//337
f 381//496 368//486 369//468
f 379//497 380//498 383//499
f 380//498 378//500 381//496
f 375//501 378//500 380//498
f 375//501 377//502 378//500
f 379//497 375//501 380//498
f 377//502 366//503 367//482
f 377//502 370//504 366//503
f 376//490 375//501 379//497
f 374//489 375//501 376//490
f 372//174 365//327 371//493
f 369//468 368//486 396//485
f 368//486 381//496 367//482
f 396//485 393//484 250//360
f 393//484 395//367 250//360
f 398//469 369//468 397//505
f 399//366 396//485 250//360
f 397//505 399//366 252//357
f 398//469 397//505 251//470
f 397//505 252//357 251//470
f 364//477 363//506 386//507
f 330//458 384//508 385//457
f 419//509 400//510 401//511
f 419//512 401//513 402//514
f 413//515 313//434 406//219
f 401//516 400//517 403//518
f 402//519 401//516 403//518
f 405//426 402//519 403//518
f 404//520 403//521 420//522
f 428//523 413//515 429//524
f 408//525 410//526 409//527
f 420//522 408//528 411//529
f 408//525 409//527 413//530
f 416//531 414//532 415//533
f 410//526 417//534 416//531
f 420//522 417//535 410//536
f 413//515 416//537 415//538
f 419//509 414//532 418//539
f 413//515 415//538 419//512
f 412//540 413//530 421//541
f 422//542 420//522 411//529
f 423//543 420//522 422//542
f 423//544 422//545 424//546
f 423//544 424//546 425//547
f 426//548 420//522 423//543
f 426//548 427//549 420//522
f 425//550 424//551 413//515
f 425//550 413//515 428//523
f 420//376 427//552 428//553
f 442//554 441//555 452//556
f 451//409 294//408 449//557
f 294//400 447//472 449//558
f 430//559 451//560 450//561
f 445//562 438//563 444//564
f 438//563 445//562 436//565
f 444//566 438//567 446//568
f 439//569 438//567 434//570
f 446//568 445//571 444//566
f 447//572 445//571 448//573
f 445//571 446//568 448//573
f 447//472 431//574 445//562
f 450//575 449//557 447//572
f 452//556 432//576 442//554
f 448//577 452//556 450//561
f 441//578 440//474 452//579
f 443//475 440//474 441//578
f 442//580 443//475 441//578
f 443//471 433//581 431//574
f 439//582 434//583 437//584
f 434//570 436//585 437//586
f 432//587 431//588 433//589
f 3//8 54//10 38//75
f 29//58 127//60 293//189
f 406//219 5//590 8//13
f 8//591 4//1 7//3
f 8//591 5//592 4//1
f 292//593 406//219 8//13
f 406//219 2//594 5//590
f 5//592 2//6 3//5
f 4//1 5//592 3//5
f 1//9 55//595 54//10
f 32//15 29//596 8//13
f 31//17 13//28 34//23
f 32//15 14//14 9//19
f 31//17 9//31 13//28
f 292//593 8//13 29//596
f 34//23 39//22 85//128
f 12//24 6//2 10//25
f 6//2 3//4 10//597
f 10//598 38//75 39//599
f 13//28 11//21 34//23
f 10//600 39//22 13//28
f 12//24 8//591 7//3
f 3//8 38//75 10//598
f 303//35 21//601 17//191
f 17//33 16//32 134//195
f 16//32 15//196 134//195
f 20//47 28//57 303//35
f 129//42 22//41 245//170
f 18//44 22//41 15//43
f 18//44 19//602 22//41
f 23//37 21//601 303//35
f 19//46 17//33 21//49
f 22//38 19//46 21//49
f 24//40 23//39 26//56
f 25//36 26//603 23//37
f 30//51 29//58 32//16
f 31//17 34//23 33//52
f 25//18 31//17 33//52
f 30//51 25//18 28//61
f 28//61 29//58 30//51
f 33//52 34//23 85//128
f 82//604 76//605 79//65
f 54//10 78//100 82//67
f 78//131 76//605 82//604
f 35//64 82//604 79//65
f 38//75 54//10 36//73
f 54//10 35//68 36//73
f 36//137 83//70 37//69
f 71//84 72//81 66//83
f 72//81 73//606 67//82
f 51//115 123//607 169//116
f 51//79 68//76 73//78
f 73//606 70//89 67//82
f 73//608 72//609 123//610
f 74//188 123//610 120//611
f 126//88 71//84 63//85
f 72//609 124//612 123//610
f 124//86 72//81 71//84
f 116//102 126//88 63//85
f 70//89 69//613 65//90
f 65//90 69//613 64//95
f 69//613 50//106 64//95
f 155//92 50//106 69//91
f 67//82 65//90 66//83
f 62//93 66//83 65//90
f 59//94 60//104 61//97
f 60//104 58//111 57//105
f 60//104 59//94 58//111
f 114//101 63//85 61//97
f 61//97 60//104 114//101
f 45//96 58//111 59//94
f 57//105 125//112 102//166
f 56//12 170//216 53//113
f 54//10 55//595 53//240
f 123//109 54//10 52//242
f 54//10 53//240 52//242
f 123//109 52//242 169//241
f 48//107 49//108 46//120
f 49//108 168//118 46//120
f 50//106 168//118 49//108
f 48//107 46//120 45//96
f 166//119 165//123 46//120
f 44//110 43//124 58//111
f 44//110 41//122 42//126
f 43//124 42//126 40//125
f 40//125 42//126 158//223
f 42//126 163//127 158//223
f 85//128 38//71 84//72
f 78//131 75//130 76//605
f 22//41 84//138 81//135
f 84//138 83//614 81//135
f 124//86 117//87 122//139
f 110//148 122//139 115//140
f 124//612 119//615 123//610
f 123//610 119//615 120//611
f 74//188 120//611 75//130
f 121//143 122//139 110//148
f 118//141 76//134 120//145
f 119//615 98//172 118//171
f 119//149 107//147 105//150
f 117//87 114//101 115//140
f 112//156 115//140 113//152
f 113//152 103//153 112//156
f 103//153 104//103 101//165
f 110//148 115//140 112//156
f 112//156 103//153 111//154
f 103//153 101//165 95//157
f 107//147 109//146 108//158
f 108//158 99//160 106//159
f 120//611 119//615 118//171
f 216//162 105//150 106//159
f 104//103 102//166 101//165
f 100//155 90//167 91//169
f 96//178 240//177 97//164
f 97//164 240//177 92//175
f 245//170 22//41 80//132
f 92//175 239//179 235//181
f 95//157 88//183 90//167
f 94//168 93//180 95//157
f 95//157 93//180 88//183
f 235//181 236//182 93//180
f 236//182 86//187 88//183
f 90//167 89//185 91//169
f 88//183 86//187 87//184
f 104//103 57//105 102//166
f 102//166 125//112 96//178
f 40//125 96//178 125//112
f 40//125 157//176 96//178
f 2//594 406//219 56//252
f 133//194 130//198 134//195
f 303//35 134//192 130//205
f 132//197 131//201 128//204
f 131//201 246//616 228//203
f 50//106 167//221 168//118
f 199//617 356//117 169//116
f 170//220 317//213 349//215
f 164//222 166//119 168//118
f 135//227 213//226 136//235
f 137//230 203//290 202//231
f 135//227 201//228 189//224
f 202//231 201//228 138//229
f 139//232 202//231 138//229
f 141//249 204//237 137//230
f 149//251 137//230 139//232
f 141//249 137//230 149//251
f 165//123 166//119 164//222
f 204//237 141//249 142//288
f 225//244 213//226 214//321
f 136//235 213//226 225//244
f 145//247 143//234 144//243
f 146//245 138//229 135//227
f 140//236 138//229 146//245
f 149//251 139//232 140//236
f 150//250 141//249 149//251
f 154//248 150//250 151//255
f 154//248 142//288 141//249
f 50//106 142//288 153//254
f 153//254 142//288 154//248
f 50//106 153//254 167//221
f 153//254 151//255 167//221
f 164//222 152//253 160//239
f 167//221 151//255 152//253
f 151//255 150//250 152//253
f 152//253 147//246 148//257
f 162//233 159//259 156//260
f 161//258 146//245 159//259
f 159//259 145//247 156//260
f 148//257 147//246 161//258
f 161//258 147//246 146//245
f 159//259 146//245 145//247
f 162//233 156//260 158//223
f 156//260 144//243 238//261
f 144//243 225//244 238//261
f 238//261 225//244 227//309
f 200//225 188//265 275//267
f 275//267 266//352 282//299
f 178//266 265//269 275//267
f 191//263 177//283 178//266
f 187//273 176//272 184//277
f 176//272 174//280 184//277
f 185//278 175//274 186//297
f 186//297 175//274 183//276
f 184//277 185//278 195//301
f 175//274 173//292 179//279
f 183//276 181//275 190//264
f 190//264 181//275 182//262
f 192//294 190//264 188//265
f 179//279 173//292 353//282
f 191//263 180//281 177//283
f 177//283 264//268 178//266
f 177//283 172//284 171//286
f 320//209 348//436 199//210
f 348//270 341//447 155//92
f 142//288 198//287 204//237
f 176//272 355//293 174//280
f 174//280 173//292 175//274
f 197//238 203//290 137//230
f 201//228 192//294 189//224
f 199//618 348//270 356//114
f 155//92 341//447 342//256
f 198//287 187//273 194//300
f 50//106 329//271 187//273
f 187//273 184//277 194//300
f 196//289 186//297 203//290
f 203//290 186//297 193//298
f 194//300 196//289 197//238
f 194//300 184//277 195//301
f 186//297 183//276 190//264
f 203//290 193//298 202//231
f 192//294 188//265 189//224
f 193//298 190//264 202//231
f 202//231 190//264 192//294
f 236//182 231//311 86//187
f 246//616 245//303 228//203
f 228//203 245//303 244//305
f 245//303 254//619 243//304
f 243//304 254//619 241//307
f 303//35 244//620 241//348
f 254//621 276//622 241//623
f 240//177 237//320 239//179
f 240//177 227//309 237//320
f 239//179 237//320 233//312
f 237//320 226//322 233//312
f 237//320 223//319 226//322
f 235//181 234//310 236//182
f 234//310 233//312 224//313
f 224//313 222//315 231//311
f 224//313 219//624 222//315
f 231//311 232//186 86//187
f 230//314 221//316 229//302
f 222//315 220//326 230//314
f 230//314 220//326 221//316
f 229//302 205//317 218//163
f 228//625 244//620 303//35
f 228//625 303//35 128//206
f 214//321 215//336 223//319
f 223//319 215//336 211//335
f 223//319 211//335 210//324
f 224//313 233//312 219//624
f 226//322 219//624 233//312
f 219//624 220//326 222//315
f 226//322 212//323 219//624
f 212//323 207//331 219//624
f 219//624 206//330 220//326
f 220//326 206//330 208//325
f 219//624 207//331 206//330
f 206//330 269//347 277//626
f 278//329 269//347 206//330
f 208//325 277//626 205//317
f 206//330 277//626 208//325
f 212//323 210//324 207//331
f 213//226 282//299 281//627
f 215//336 283//338 280//334
f 281//627 283//338 215//336
f 213//226 281//627 214//321
f 214//321 281//627 215//336
f 282//299 283//338 281//627
f 280//334 274//339 273//340
f 277//626 267//328 205//317
f 363//350 303//35 241//348
f 388//337 217//173 98//172
f 271//342 255//344 268//346
f 269//347 267//328 277//626
f 269//347 268//346 267//328
f 268//346 259//628 267//328
f 267//328 259//628 258//363
f 258//363 392//351 267//328
f 282//299 266//352 283//338
f 275//267 265//269 266//352
f 266//352 263//355 274//339
f 273//340 272//353 279//332
f 272//353 271//342 268//346
f 254//621 363//506 276//622
f 265//269 263//355 266//352
f 274//339 263//355 270//341
f 263//355 260//358 261//356
f 253//285 251//470 263//355
f 263//355 251//470 252//357
f 262//343 261//356 255//344
f 261//356 250//360 249//359
f 257//362 256//361 268//346
f 268//346 256//361 259//628
f 259//628 256//361 258//363
f 255//344 249//359 248//364
f 260//358 252//357 250//360
f 247//365 365//327 392//351
f 297//395 318//394 312//629
f 318//394 314//630 312//629
f 429//631 285//370 284//369
f 404//520 407//632 312//629
f 407//632 404//520 420//522
f 293//189 291//381 292//190
f 291//385 308//633 286//386
f 292//593 290//634 406//219
f 290//634 288//635 406//219
f 293//189 20//59 308//380
f 308//384 306//383 286//636
f 291//377 289//391 290//378
f 306//383 302//637 286//636
f 290//378 289//391 288//390
f 288//635 285//638 406//219
f 288//390 287//388 285//370
f 286//639 302//415 299//368
f 318//394 345//640 319//432
f 299//368 298//416 296//371
f 297//641 295//402 311//404
f 295//642 430//642 361//642
f 407//372 295//643 297//373
f 407//372 294//406 295//643
f 430//407 295//644 294//408
f 447//472 294//400 357//421
f 304//414 303//410 300//412
f 305//207 303//645 304//424
f 301//413 300//412 298//420
f 298//416 309//646 296//371
f 304//422 301//417 302//419
f 307//382 302//637 306//383
f 311//647 361//396 318//398
f 311//647 310//648 361//396
f 361//649 430//559 452//556
f 313//434 405//650 315//651
f 315//428 404//427 314//429
f 312//629 314//630 404//520
f 315//428 314//429 317//431
f 313//434 315//651 317//213
f 318//394 316//433 314//630
f 347//438 341//447 348//270
f 341//447 347//438 340//450
f 345//397 346//441 347//652
f 346//441 340//450 347//652
f 340//450 346//441 337//442
f 337//442 344//440 333//444
f 391//446 382//459 343//443
f 341//447 329//271 342//256
f 341//447 340//450 328//448
f 338//449 339//465 328//448
f 337//442 338//449 340//450
f 336//453 335//452 325//461
f 338//449 336//453 339//465
f 338//449 332//451 336//453
f 335//452 321//456 323//464
f 335//452 334//454 331//455
f 333//444 343//443 331//455
f 328//448 339//465 326//460
f 327//463 326//460 325//461
f 325//461 339//465 336//453
f 325//461 335//452 323//464
f 385//457 369//468 322//467
f 385//457 384//508 369//468
f 350//295 369//468 398//469
f 352//462 323//464 324//466
f 317//431 316//430 320//653
f 354//291 327//463 352//462
f 316//430 319//654 320//653
f 452//579 440//474 358//655
f 357//473 358//655 440//474
f 359//476 362//656 364//477
f 452//657 358//658 360//659
f 452//657 360//659 364//660
f 357//661 359//661 358//661
f 357//662 362//656 359//476
f 386//663 452//556 364//664
f 361//396 387//445 345//397
f 386//663 361//649 452//556
f 370//504 365//327 366//503
f 394//483 366//503 365//327
f 367//482 366//503 394//483
f 395//367 393//484 394//483
f 368//486 367//482 393//484
f 389//487 390//488 391//446
f 382//459 390//488 383//499
f 390//488 379//497 383//499
f 389//487 376//490 390//488
f 390//488 376//490 379//497
f 386//507 363//506 254//621
f 388//354 372//174 371//493
f 388//665 371//493 387//492
f 369//468 384//508 381//496
f 381//496 384//508 383//499
f 330//458 382//459 384//508
f 384//508 382//459 383//499
f 380//498 381//496 383//499
f 378//500 377//502 367//482
f 377//502 373//491 370//504
f 375//501 374//489 377//502
f 377//502 374//489 373//491
f 371//493 365//327 370//666
f 371//493 370//666 373//494
f 367//482 381//496 378//500
f 397//505 369//468 396//485
f 397//505 396//485 399//366
f 364//477 362//656 363//506
f 419//509 418//539 400//510
f 420//522 403//521 418//667
f 285//638 429//524 406//219
f 429//631 284//369 420//376
f 413//515 405//650 313//434
f 418//667 403//521 400//668
f 405//426 403//518 404//427
f 405//650 413//515 402//514
f 429//524 413//515 406//219
f 402//514 413//515 419//512
f 409//527 410//526 416//531
f 413//530 412//540 411//669
f 420//522 410//536 408//528
f 411//669 408//525 413//530
f 416//531 417//534 414//532
f 413//515 409//670 416//537
f 415//533 414//532 419//509
f 420//522 414//671 417//535
f 420//522 418//667 414//671
f 412//672 422//542 411//529
f 421//541 422//545 412//540
f 424//546 422//545 421//541
f 424//551 421//673 413//515
f 426//674 423//544 425//547
f 425//547 427//552 426//674
f 428//553 427//552 425//547
f 429//631 420//376 428//553
f 445//562 431//574 436//565
f 438//567 435//675 434//570
f 446//568 438//567 439//569
f 439//582 437//584 452//556
f 446//676 439//582 452//556
f 446//676 452//556 448//577
f 450//575 447//572 448//573
f 451//409 449//557 450//575
f 450//561 452//556 430//559
f 447//472 443//471 431//574
f 442//580 432//587 433//589
f 442//580 433//589 443//475
f 452//556 437//584 432//576
f 437//586 436//585 432//587
f 436//585 431//588 432//587
f 438//563 436//565 435//677
f 435//675 436//585 434//570
