# G1 exterior visual; derived from pinned Unitree/TWIST2 CAD.
v -0.000266836578 0.0513659157 -0.0797660351
v -0.00133965875 0.0585990548 -0.0785846785
v -0.018518256 0.0523334779 0.0179155618
v -0.0178746358 0.0581118353 0.0165971424
v -0.012105138 0.0798361152 0.0077174725
v -0.0141899399 0.0799495056 0.00674881227
v -0.0146200424 0.0727158412 0.0116890222
v -0.00624271529 0.0864867568 -0.0595414042
v -0.00455961889 0.0810826644 -0.0675874203
v -0.0132646877 0.0919961259 -0.0196310114
v -0.0122281397 0.0944694057 -0.0214857925
v -0.0104967067 0.0961935148 -0.0317996331
v -0.0114019215 0.0941338614 -0.0303142127
v -0.00897528324 0.093799606 -0.0438148901
v -0.00938895904 0.0959409252 -0.0390226878
v -0.00776909897 0.0919441581 -0.0505553335
v -0.00427941093 0.0726101026 -0.0707774237
v -0.0049891877 0.079165712 -0.0665715113
v -0.00372767984 0.0654674545 -0.0737126917
v -0.00299014314 0.0594327413 -0.076590471
v -0.00341788516 0.0472545736 -0.0755880103
v -0.00337028783 0.0569986999 -0.0755230635
v 0.000797585701 0.0585383028 -0.0794483125
v 0.000341535109 0.0676348954 -0.077548638
v 0.00339064933 0.0602965429 -0.0791610181
v 0.00288462895 0.0694391578 -0.0769992545
v -0.000227500961 0.076391153 -0.0740854219
v 0.00250455597 0.0764320269 -0.0741032586
v 0.00169143383 0.0829017982 -0.0698949173
v -0.00119450607 0.0845135227 -0.0684309006
v 0.000980352168 0.0869407132 -0.0661058873
v -0.000199025395 0.091013968 -0.0610993542
v -0.000978915021 0.0950864777 -0.0538038202
v -0.00364298187 0.0951797068 -0.0534519553
v -0.00231014774 0.0904865563 -0.0616978817
v -0.00440243864 0.0973794237 -0.0471825227
v -0.00643615937 0.0987563357 -0.0364007168
v -0.00527781015 0.0983962864 -0.0419539735
v -0.007508229 0.098516047 -0.0303446129
v -0.00985194836 0.0955678821 -0.0164992344
v -0.00861769728 0.097437039 -0.0236157719
v -0.011253085 0.0919311121 -0.00762982387
v -0.0108317956 0.0866904855 0.00117955264
v -0.0130407671 0.0864074454 0.000513785286
v -0.0177126024 0.0730270296 0.00569641031
v -0.018764507 0.0610758401 0.0114777777
v -0.0190028232 0.0569567233 0.0145036681
v -0.0183464494 0.0655715615 0.0088896649
v -0.0173670929 0.074621655 0.00660466217
v -0.0166356843 0.0803755 0.000805546355
v -0.0159254111 0.0842579901 -0.00282773748
v -0.0147075225 0.0886527896 -0.00824772194
v -0.013375476 0.0907413214 -0.00817239843
v -0.0135378297 0.0918960124 -0.0141281169
v -0.0117903687 0.0945604667 -0.0166430119
v 0.00292028766 0.0512745418 -0.0799853206
v -0.00238015666 0.0519023538 -0.0779947266
v -0.0034539185 0.0712643191 -0.073452957
v -0.00574685447 0.0886293873 -0.059770368
v -0.0074298894 0.0939712971 -0.0497636497
v -0.0159408748 0.0789138228 0.00572954351
v -0.0166559555 0.0718164518 0.0104101012
v -0.0148289641 0.0854850337 -0.00060223334
v -0.00173738098 0.067636095 -0.0766259581
v -0.00237772567 0.0761947408 -0.0730921775
v -0.00298272585 0.0817497894 -0.0693933889
v -0.00375963398 0.0870079771 -0.0645599663
v -0.00498843938 0.0924541205 -0.0569226108
v -0.00639822334 0.0960862115 -0.0483500548
v -0.00747701153 0.0974673852 -0.0417230986
v -0.0086091077 0.0979297683 -0.0348379239
v -0.0101477448 0.0970090628 -0.0257191397
v -0.0142229507 0.0514847152 0.0211046804
v -0.0140222646 0.057716094 0.0191432498
v -0.016220931 0.0578857549 0.0182843674
v -0.0165539049 0.0517446846 0.0201164093
v -0.0028614921 0.00851146225 -0.0594051667
v -0.00516782561 0.00661585899 -0.0558619872
v -0.00392205734 0.0118589019 -0.0622625388
v -0.00578734931 0.0144959837 -0.0610896274
v 0.000420594821 0.0106881363 -0.0621205494
v -0.00183833844 0.0142499907 -0.0655320883
v 0.000270566903 0.024317028 -0.0732026473
v 0.000814010447 0.0182554424 -0.0691168383
v -2.59999683e-06 0.0303870607 -0.0760586709
v 0.00281670992 0.0299775228 -0.0758533105
v 0.000524382805 0.0382510126 -0.0785558745
v 0.00326127838 0.04031571 -0.079025045
v 0.000699659227 0.0454742201 -0.0797222778
v -0.00378833921 0.0375698991 -0.0733887479
v -0.0034048357 0.0353364982 -0.0745064765
v -0.00457779784 0.0242138561 -0.0686346218
v -0.00216773804 0.0183434468 -0.0687002689
v -0.00179091445 0.0276886355 -0.0742269903
v -0.000986695872 0.0408037752 -0.0786245987
v -0.00600754702 0.00867266767 -0.0566077679
v -0.00423700782 0.0177475065 -0.0663765371
v -0.00298362062 0.0286024529 -0.0734706894
v -0.00228658062 0.0408380739 -0.0774701536
v -0.0186697319 0.047986038 0.0108341323
v -0.0186504573 0.056139756 0.0107231075
v -0.0204995014 1.82088442e-07 0.0211904962
v -0.0212076716 0.00555105088 0.0256566945
v -0.02050961 0.0121388938 0.0212114416
v -0.00990745891 0.00499991793 -0.0387536101
v -0.00984239858 -1.17286966e-07 -0.0387443006
v -0.0107057672 0.0105246333 -0.0346608348
v -0.00794969592 0.00500224018 -0.0490163825
v -0.012142607 0.010999999 -0.0261048563
v -0.00577672385 0.0198824052 -0.0621376075
v -0.00684768753 0.0150684137 -0.0560750738
v -0.00781430956 0.0121797379 -0.0505988188
v -0.00713094929 0.0091449935 -0.0541357733
v -0.0169380065 0.0239381529 0.00103081774
v -0.0201627091 0.0110528795 0.0192799512
v -0.0159149375 0.018054815 -0.00475917151
v -0.0143296225 0.012205014 -0.0137310829
v -0.00464404793 0.0275710169 -0.0686456114
v -0.0177505855 0.0308217704 0.00562860537
v -0.018323442 0.0384602845 0.00887034088
v -0.0142379012 0.0919981897 -0.0504520126
v -0.0202255771 0.0919984654 -0.0165676847
v -0.0137135498 0.091165401 -0.0534272604
v -0.0207584295 0.0911788046 -0.0135568483
v 0.0320292488 0.0955494717 -0.0236949213
v 0.0400438979 0.0630861521 -0.0688056648
v 0.0399186946 0.0581612587 -0.0710046887
v 0.0390505455 0.0636229217 -0.0712776855
v 0.0381289423 0.0584645309 -0.0730902627
v 0.0374795869 0.0651674196 -0.0720439032
v 0.0402274281 0.0516130403 -0.0696560368
v 0.0392601117 0.07522659 -0.064305149
v 0.037919376 0.0852548555 -0.0568262413
v 0.0347528905 0.0948209763 -0.0388555825
v 0.0396234505 0.0677910671 -0.0688201636
v 0.0388851687 0.076830335 -0.0653059036
v 0.0382298455 0.0818404034 -0.0619560294
v 0.0374168046 0.0866879746 -0.057347469
v 0.0360749327 0.0919457674 -0.0497702882
v 0.0345886089 0.0954320654 -0.0413652919
v 0.0332176685 0.0966464207 -0.0326285325
v 0.0314411707 0.0973032191 -0.0254163053
v 0.0383802988 0.073520571 -0.0683609769
v 0.0322522335 0.0979233682 -0.0337418914
v 0.037503019 0.0710585415 -0.0701874197
v 0.0368847661 0.0793525055 -0.0660576969
v 0.0363247693 0.0832008719 -0.0633132309
v 0.0357307121 0.0867514387 -0.0599837415
v 0.0351999663 0.0896049365 -0.0565476976
v 0.034427993 0.0923499987 -0.0525912307
v 0.0336294062 0.0947057679 -0.0481625721
v 0.032987576 0.0963084921 -0.0440312661
v 0.0321279727 0.0976228341 -0.0395415127
v 0.0306653753 0.0985845104 -0.0300982073
v 0.0296593625 0.0986158326 -0.0262481496
v 0.0364642218 0.0760437772 -0.0682221353
v 0.0303151235 0.0986152738 -0.0340825245
v 0.0220403876 0.0511725731 0.0264509339
v 0.0234125834 0.0548824966 0.0241297446
v 0.0201382339 0.05116098 0.027137192
v 0.02103577 0.0584630147 0.02471371
v 0.0225318968 0.0583277792 0.0240255222
v 0.019361794 0.0594836436 0.0243396107
v 0.0250565782 0.0721941367 0.0157030728
v 0.0238803234 0.0542923957 0.0229031947
v 0.0236378238 0.0725211874 0.0174483769
v 0.0216613635 0.073578611 0.0176839307
v -0.0195414107 0.00554985786 0.0292924996
v -0.0176548213 0.00554962875 0.0307755712
v -0.00789362844 0.00499999663 -0.0391789898
v 0.0319041871 0.00500000035 -0.0230383221
v 0.0306536444 0.00499999989 -0.0256973598
v 0.0262164585 0.00499999989 -0.0302108768
v -0.00704783387 0.00499999756 -0.0386373885
v -0.00560414791 0.00500254612 -0.0533452518
v 0.0149997165 0.00499999989 -0.0283819884
v 0.0050633885 0.00499999989 -0.0315048061
v 0.0197961554 0.00499999803 -0.033802554
v 0.0207970571 0.00499999989 -0.0341142043
v 0.0354457684 0.00500120269 -0.0425922051
v -0.00276020844 0.00500346813 -0.0552297719
v 0.034786094 0.00501028495 -0.0473192781
v 0.0353993438 0.00501467334 -0.045322556
v 0.0333424136 0.00501255412 -0.0489716157
v 0.017164316 0.00499999989 -0.0288952738
v 0.0188962389 0.00499999989 -0.0305301622
v -0.00515395822 0.00500000035 -0.0320232101
v -0.00734148407 0.00499999896 -0.0351906419
v -0.0149138533 0.010992378 -0.0266494509
v -0.0216393564 0.0110002616 -0.0200210642
v -0.0283723064 0.010999999 -0.00807850994
v -0.0294735841 0.010999999 -0.00124819705
v -0.0257104803 0.010999999 -0.0144644817
v -0.0231766067 0.011020707 0.0182984993
v -0.0268413592 0.010999999 0.0122389169
v -0.0289537404 0.010999999 0.00565076852
v -0.0123816589 0.0105529726 -0.0305412225
v 0.0376041159 0.0145591227 -0.0548666567
v 0.0397963934 0.034282133 -0.0672059655
v 0.0220265314 0.00554972934 0.0333901085
v 0.0202021226 0.00554968603 0.0345395729
v -0.0208800565 0.00554983877 0.025979232
v 0.020098215 0.00554986112 0.0365922637
v 0.0179708209 0.00554967066 0.0371587537
v -0.0192115624 0.00554982433 0.0275212135
v 0.0216185655 0.00554970559 0.034898188
v -0.0268413592 1.75284037e-10 0.0122389169
v -0.0289537404 1.75283857e-10 0.00565076852
v -0.0145729007 1.75283968e-10 -0.00355395791
v 0.0306536444 1.7528444e-10 -0.0256973598
v 0.0318378545 4.12657797e-10 -0.0230624676
v -0.0257104803 1.75283538e-10 -0.0144644817
v -0.0126293274 1.75283926e-10 -0.0080932118
v -0.0283723064 1.75283607e-10 -0.00807850994
v -0.0294735841 1.75283718e-10 -0.00124819705
v 0.0158167109 1.75284093e-10 -0.0283174943
v 0.0149591044 1.75284648e-10 0.00110686966
v 0.014507981 1.75284537e-10 -0.00381032098
v 0.0124846864 1.75284412e-10 -0.00831459649
v 0.00259924238 1.75284662e-10 0.0147730839
v 0.00725522405 1.75284717e-10 0.0131286597
v 0.0201803707 1.75285383e-10 0.0345362537
v 0.0189572982 1.75284121e-10 -0.0305434
v 0.0262164585 1.75284259e-10 -0.0302108768
v 0.0198626909 1.75284065e-10 -0.0338820517
v 0.0208777878 1.75284093e-10 -0.0340944603
v -0.00728866039 1.75283524e-10 -0.0351572819
v -0.011969964 -9.62588729e-08 -0.0313826948
v -0.0062219291 1.75283565e-10 -0.0330278352
v 0.00910849031 1.75284273e-10 -0.011917864
v 0.00474523986 1.75284148e-10 -0.0142296385
v -0.00436432334 1.75283635e-10 -0.0318037942
v -0.000132223489 1.75284037e-10 -0.0149994195
v -0.0049953647 1.75283954e-10 -0.0141437724
v -0.00931717549 1.75283912e-10 -0.0117554357
v -0.0149372695 1.75284065e-10 0.001370418
v -0.0232526492 1.75284218e-10 0.0181539115
v -0.00782101788 1.75283427e-10 -0.0391688161
v -0.00701257447 1.75283454e-10 -0.0385399014
v -0.0216345135 1.7528351e-10 -0.0200548712
v -0.0154407863 -3.5060939e-08 -0.0258991066
v 0.00604052655 1.75283857e-10 -0.0313321389
v 0.0220258106 1.75285397e-10 0.0333895758
v 0.0111249862 1.75284745e-10 0.0100615453
v 0.0137891807 1.75284717e-10 0.00590410875
v -0.0136829512 1.75284176e-10 0.00614628475
v -0.0109458761 1.75284315e-10 0.0102561098
v -0.00702264486 1.7528444e-10 0.0132545261
v -0.0211165287 1.99135819e-08 0.0254293717
v -0.0023384029 1.75284565e-10 0.0148166101
v -0.0195873901 6.18846741e-07 0.0273567867
v 0.0377671942 0.0513948873 -0.0737647638
v 0.04008279 0.0515013598 -0.0711823478
v 0.0393542536 0.0515098125 -0.0726016462
v 0.0372870415 0.028818123 -0.069090575
v 0.0366572291 0.0219705068 -0.065341793
v 0.0400858223 0.0437724665 -0.0707296059
v 0.0366198085 0.0114402426 -0.0542422868
v 0.0349605531 0.0104755154 -0.055509232
v 0.037759766 0.0170106255 -0.0591890216
v 0.0358512551 0.0158926807 -0.0608004481
v 0.0396202728 0.0364978462 -0.0697171241
v 0.0380871706 0.0438407958 -0.0732281059
v 0.0377522632 0.0361373723 -0.0717311278
v 0.0387714691 0.023338614 -0.0634189621
v 0.0391703993 0.0294723082 -0.067171298
v 0.0282300804 0.0977127925 -0.0189173352
v 0.0297245942 0.0962557718 -0.0166761186
v 0.0224933904 0.0785501525 0.0145744206
v 0.029544808 0.0933169127 -0.0106915897
v 0.0278859455 0.088544704 -0.000304251007
v 0.0265591349 0.0831281841 0.00728010014
v 0.0255382657 0.0786676481 0.0119949281
v 0.0276340712 0.0925950184 -0.00491222367
v 0.0258058608 0.0869173035 0.00541159045
v 0.0243939813 0.079210721 0.0131871318
v 0.0274073537 0.0964876413 -0.0136185978
v 0.0261732917 0.094657883 -0.00758600701
v 0.0249724016 0.0915418789 -0.000475658569
v 0.0248567462 0.0894292817 0.00289689749
v 0.022823859 0.087770544 0.0055731684
v 0.0237130094 0.0844789967 0.00938757788
v 0.0219246149 0.083102338 0.0108231101
v 0.0270786379 0.0500216261 0.00479207747
v 0.0271157082 0.0554826893 0.00458579091
v 0.0273952316 0.0622605123 0.00300395279
v 0.0362998582 0.0712837055 -0.0473874137
v 0.0369659178 0.0654640645 -0.051156681
v 0.0332073048 0.0815442502 -0.0298866332
v 0.0343684889 0.0795465261 -0.0364577807
v 0.035418205 0.0760637596 -0.0423981249
v 0.0373804905 0.0589185692 -0.0535027236
v 0.0308035668 0.0807396621 -0.0162838437
v 0.0319972485 0.0819492415 -0.0230389331
v 0.0375301354 0.0508349761 -0.0543467738
v 0.027939219 0.068485193 -7.44773351e-05
v 0.0287183393 0.0738211423 -0.00448353542
v 0.0296905953 0.0779807121 -0.00998552795
v 0.0343685448 0.0244535562 -0.0364579558
v 0.0332073644 0.0224557836 -0.0298868176
v 0.0319973156 0.0220507514 -0.023039123
v 0.0308036264 0.0232602861 -0.0162840262
v 0.0296906456 0.0260191914 -0.00998569001
v 0.028718384 0.0301787239 -0.00448367139
v 0.0279392544 0.035514649 -7.45835714e-05
v 0.0273952559 0.0417393036 0.00300388457
v 0.0354182497 0.0279363636 -0.0423982739
v 0.0373805016 0.0450816192 -0.0535027646
v 0.0369659476 0.0385361128 -0.0511567667
v 0.0362998955 0.0327164456 -0.0473875329
v -0.0140184527 0.0121294949 -0.0516939163
v -0.0206201132 0.0123717161 -0.0143456655
v -0.013334848 0.0141237276 -0.0555623919
v -0.0222948641 0.0189917888 -0.00485758577
v -0.0232814848 0.0250289459 0.000725734164
v -0.0245843381 0.0397221409 0.00809858553
v -0.0248544067 0.0478575937 0.00962688588
v -0.0248543918 0.056139756 0.00962681975
v -0.0245843083 0.0642751828 0.0080983974
v -0.0240537096 0.0719756335 0.0050957608
v -0.0232814085 0.0789682642 0.000725311169
v -0.0240537692 0.0320216455 0.00509608025
v -0.0222947672 0.0850053281 -0.0048581087
v -0.0121687287 0.0850048661 -0.0621614754
v -0.0111821014 0.0789677128 -0.067744799
v -0.0104098218 0.0719750077 -0.0721151382
v -0.0096091982 0.0478568934 -0.0766458809
v -0.00987928547 0.0397214666 -0.0751174539
v -0.0104098786 0.0320210196 -0.0721148252
v -0.0111821759 0.0250283908 -0.0677443743
v -0.0121688182 0.0189913232 -0.0621609576
v -0.00987925194 0.0642745122 -0.0751176551
v -0.00960918795 0.0561390556 -0.076645948
v 0.00259924238 0.0100000007 0.0147730839
v -0.0023384029 0.0100000007 0.0148166101
v -0.00702264486 0.0100000007 0.0132545261
v -0.0109458761 0.0100000007 0.0102561098
v -0.0136829512 0.0100000007 0.00614628475
v -0.0149372695 0.0100000007 0.001370418
v -0.0145729007 0.0100000007 -0.00355395791
v -0.0126293274 0.0100000007 -0.0080932118
v -0.00931717549 0.0100000007 -0.0117554357
v -0.0049953647 0.0100000007 -0.0141437724
v -0.000132223489 0.0100000007 -0.0149994195
v 0.00474523986 0.0100000007 -0.0142296385
v 0.00910849031 0.0100000007 -0.011917864
v 0.0124846874 0.0100000007 -0.00831459556
v 0.014507981 0.0100000007 -0.00381032098
v 0.0149591044 0.0100000007 0.00110686966
v 0.0137891807 0.0100000007 0.00590410875
v 0.0111249862 0.0100000007 0.0100615453
v 0.00725522405 0.0100000007 0.0131286597
v 0.0350499526 0.0427868478 -0.036291495
v 0.0376552604 0.0385361128 -0.0510349609
v 0.0354589038 0.0471295528 -0.0386057757
v 0.0380698182 0.0450816192 -0.0533809587
v 0.0356003307 0.0520000495 -0.0394061022
v 0.0382105298 0.0520000942 -0.0541772507
v 0.0354589 0.0568705387 -0.0386057459
v 0.0344177708 0.06455753 -0.0327139683
v 0.0350578092 0.0795465261 -0.0363359712
v 0.0336308889 0.0665410161 -0.0282610115
v 0.033896625 0.0815442502 -0.0297648218
v 0.0327745751 0.066948764 -0.0234151147
v 0.0380698107 0.0589185692 -0.053380914
v 0.0376552418 0.0654640645 -0.0510348715
v 0.0350499414 0.0612132289 -0.0362914391
v 0.0369891785 0.0712837055 -0.0472656079
v 0.0361075215 0.0760637596 -0.0422763117
v 0.0326865762 0.0819492415 -0.0229171272
v 0.0314928852 0.0807396621 -0.0161620323
v 0.0319416188 0.0657365844 -0.0187014081
v 0.0303799156 0.0779807121 -0.00986371748
v 0.031222282 0.0630358309 -0.0146306884
v 0.0294076651 0.0738211423 -0.00436172867
v 0.0306945257 0.059139166 -0.0116440933
v 0.0303798914 0.0502017476 -0.00992321316
v 0.0280845631 0.0417393036 0.00312569528
v 0.0306945313 0.0448607467 -0.0116441362
v 0.0286285598 0.035514649 4.72246247e-05
v 0.0312222987 0.040964108 -0.0146307629
v 0.0294076856 0.0301787239 -0.00436186697
v 0.0319416337 0.0382633805 -0.0187014937
v 0.0336309075 0.0374590084 -0.0282611046
v 0.0350578427 0.0244535562 -0.03633615
v 0.034417782 0.039442528 -0.0327140465
v 0.0361075513 0.0279363636 -0.0422764681
v 0.0369892009 0.0327164456 -0.0472657308
v 0.0303799454 0.0260191914 -0.00986388698
v 0.0314929187 0.0232602861 -0.0161622185
v 0.03277459 0.0370512269 -0.0234152097
v 0.032686606 0.0220507514 -0.0229173154
v 0.0338966623 0.0224557836 -0.0297650155
v 0.028628543 0.068485193 4.73278269e-05
v 0.0280845556 0.0622605123 0.00312575675
v 0.0304155294 0.0544688664 -0.0100652557
v 0.0277748145 0.0541994721 0.00488555524
v 0.0278050341 0.0485171154 0.00470757764
v 0.034874469 0.0494988672 -0.0393211246
v 0.0347695872 0.0471295528 -0.0387275852
v 0.0343606286 0.0427868478 -0.0364133045
v 0.0337284617 0.039442528 -0.0328358561
v 0.0329415873 0.0374590084 -0.0283829141
v 0.0320852697 0.0370512269 -0.0235370193
v 0.0312523134 0.0382633805 -0.0188233051
v 0.0305329785 0.040964108 -0.0147525733
v 0.0300052129 0.0448607467 -0.0117659476
v 0.0297262128 0.0495310314 -0.0101870829
v 0.0297009647 0.0506653003 -0.0100442041
v 0.0299872942 0.0520000495 -0.0403979793
v 0.0298458692 0.0471295528 -0.0395976529
v 0.0294369124 0.0427868478 -0.0372833684
v 0.0288047474 0.039442528 -0.0337059237
v 0.0280178674 0.0374590084 -0.029252978
v 0.0271615572 0.0370512269 -0.0244070888
v 0.0263285991 0.0382633805 -0.0196933728
v 0.0256092586 0.040964108 -0.0156226363
v 0.0250814967 0.0448607467 -0.0126360152
v 0.0248024929 0.0495310314 -0.0110571459
v 0.0247713495 0.0537810475 -0.0108814919
v 0.0250814874 0.059139166 -0.0126359658
v 0.0256092474 0.0630358309 -0.0156225674
v 0.0263285805 0.0657365844 -0.0196932815
v 0.0271615367 0.066948764 -0.0244069882
v 0.0280178506 0.0665410161 -0.029252883
v 0.0288047306 0.06455753 -0.0337058417
v 0.0294369031 0.0612132289 -0.0372833088
v 0.0298458636 0.0568705387 -0.0395976231
v -0.0339868143 0.091672264 -0.0182790663
v -0.035446737 0.0913405716 -0.0200903378
v -0.0367232002 0.0906037837 -0.0275969356
v -0.040687196 0.0269531161 -0.00974085089
v -0.0418336801 0.0373166054 -0.00289186114
v -0.0367180221 0.0146392174 -0.0317846723
v -0.0353613645 0.0145935314 -0.0396396257
v -0.0423961543 0.0522879064 -1.63680343e-05
v -0.0417737849 0.0675702542 -0.00353433145
v -0.0404514633 0.0783945918 -0.0111236135
v -0.0383998156 0.0863447413 -0.0226711351
v -0.0360287428 0.0897140652 -0.0355682224
v -0.0365115851 0.0908464342 -0.0226514116
v -0.033039216 0.089172855 -0.012416875
v -0.0350877158 0.0787465572 -0.0012207831
v -0.0342365764 0.0844036043 -0.00623487076
v -0.0355305262 0.0742016509 0.00181716168
v -0.0360234939 0.0695628896 0.0040923506
v -0.0372967422 0.0648812354 0.00552670565
v -0.0365285128 0.0596896373 0.00704253372
v -0.0366394445 0.051879108 0.00778522668
v -0.0365424603 0.0442492254 0.00702107791
v -0.0363198109 0.038939558 0.00573558826
v -0.035761822 0.0316289999 0.00285860593
v -0.0344234668 0.0211512204 -0.00475154165
v -0.0351347812 0.0252892151 -0.00123969722
v -0.0333122835 0.015940994 -0.0106869405
v -0.0324315578 0.0120892245 -0.0176294371
v -0.0345970504 0.0123081049 -0.0194566958
v -0.0360625051 0.0155483047 -0.0138264429
v -0.03569033 0.0127951009 -0.0204339251
v -0.0367753617 0.0133476164 -0.0259588119
v -0.0389081985 0.0185624268 -0.0161965601
v -0.0392490923 0.0203482285 -0.017972013
v -0.0356664844 0.0873890072 -0.0112831313
v -0.0369710401 0.0805006549 -0.00377002242
v -0.0379801914 0.0719710812 0.0019406185
v -0.0387713835 0.0572305396 0.0064179739
v -0.038773682 0.046916157 0.00643099146
v -0.0393013693 0.039487835 0.00425889064
v -0.0379890762 0.0321640596 0.00199086987
v -0.0380869843 0.0259217173 -0.00261350255
v -0.0363557823 0.0199223552 -0.00725193927
v -0.0372038893 0.086601451 -0.012215835
v -0.0385043584 0.0798531994 -0.00485646445
v -0.0394908488 0.0715313852 0.000726100989
v -0.0401075818 0.0621064566 0.00421623839
v -0.0409445055 0.0546299964 0.00452930946
v -0.0402693674 0.0470759086 0.00513181463
v -0.0395056978 0.032670252 0.000810170895
v -0.0379131101 0.0207110532 -0.00820225291
v -0.0384226963 0.0854772329 -0.0133031877
v -0.0396811962 0.0789635181 -0.00618132809
v -0.0406365544 0.0709264576 -0.000774939836
v -0.0412347354 0.061820399 0.00261018309
v -0.0413943566 0.0472927056 0.00351343071
v -0.0410002396 0.0378268771 0.00128310476
v -0.0409295671 0.0317893587 -0.00255916966
v -0.0397136509 0.0252876263 -0.00599764753
v -0.0381384902 0.0173937622 -0.0147555787
v -0.0389662832 0.0852354243 -0.0161016155
v -0.0404305644 0.0779051706 -0.00767908059
v -0.0413490422 0.0702156276 -0.00248144078
v -0.0419256799 0.0614970922 0.000781782321
v -0.0421278514 0.0522428192 0.00192587834
v -0.0418670289 0.0407816023 0.000409211149
v -0.0404817984 0.0264702663 -0.00738914497
v -0.0205270257 0.0120988647 -0.0154808778
v -0.0184264481 0.0120901754 -0.02767119
v -0.018299697 0.0132182036 -0.0275944974
v -0.0249703564 0.0520185083 0.00975707825
v -0.024873117 0.0450360887 0.00920728408
v -0.01030639 0.0360813923 -0.0726986676
v -0.0098738838 0.0457821526 -0.0751480237
v -0.0204766486 0.0919458866 -0.0155235166
v -0.0216619298 0.0159131419 -0.00885308813
v -0.022624433 0.0203429759 -0.00351825263
v -0.0234456304 0.0256374236 0.00110249117
v -0.0105788847 0.0725498945 -0.0718154907
v -0.0112392521 0.078508921 -0.0680900812
v -0.009808328 0.0521769114 -0.0755901337
v -0.0120468326 0.0837502554 -0.0634950846
v -0.0129867392 0.0881613046 -0.0581765212
v -0.0245863348 0.0381682105 0.00755885197
v -0.0240984876 0.0316383652 0.00482318271
v -0.0141514372 0.0919563249 -0.0515194833
v -0.0234487895 0.0783264413 0.00114711851
v -0.014111462 0.0132181346 -0.0511675514
v -0.0226412565 0.083633475 -0.00344766211
v -0.0216815099 0.0881320685 -0.00885451771
v -0.0240984317 0.0723985657 0.00482286606
v -0.0245863013 0.06586878 0.00755864009
v -0.0248394646 0.0589828379 0.00920172688
v -0.0130362576 0.0167268272 -0.0572521165
v -0.0115705319 0.0240968447 -0.0655466765
v -0.0097168386 0.0520335957 -0.0768189132
v -0.0098031396 0.0593279377 -0.076232262
v -0.0100995703 0.0661481544 -0.074530609
v -0.0277523957 0.0123640243 -0.0535597615
v -0.0297446176 0.0126956971 -0.0523585454
v -0.0335162841 0.0134324441 -0.0457443893
v -0.0225622505 0.025560705 -0.0701586679
v -0.0218367893 0.0205709506 -0.0656064078
v -0.0250636265 0.0216120295 -0.0666995347
v -0.0239285491 0.0179478042 -0.0629562661
v -0.0246437155 0.0147698242 -0.0586189218
v -0.0220672339 0.0297216959 -0.0729006752
v -0.0217506755 0.0345194787 -0.0752947032
v -0.0199149083 0.0383408293 -0.076471217
v -0.023237627 0.0393717811 -0.0770008937
v -0.0229611006 0.0442032106 -0.0781699568
v -0.0212249067 0.0501039028 -0.0788453147
v -0.0214221738 0.0546167716 -0.0788130462
v -0.0224619806 0.0598491803 -0.0782687068
v -0.0216583163 0.0650757849 -0.0769282579
v -0.0221944507 0.0724165216 -0.074020043
v -0.0235031992 0.0829154849 -0.0663905069
v -0.0229637325 0.07874538 -0.0699640587
v -0.0245357398 0.0880946293 -0.060458865
v -0.0260686371 0.0919470862 -0.053637132
v -0.0287292171 0.0917281955 -0.0526627339
v -0.026860049 0.0874858126 -0.0606406704
v -0.0300910361 0.0912412852 -0.0521194488
v -0.0330038555 0.0906887576 -0.0473012254
v -0.0315176658 0.087115556 -0.0558378361
v -0.0344854146 0.088191539 -0.0448855571
v -0.0309192687 0.0760952756 -0.0649295896
v -0.0327824354 0.0843792409 -0.054495696
v -0.029657675 0.0625014007 -0.0720217973
v -0.0294459295 0.0470703579 -0.0732824057
v -0.0305535514 0.0304804519 -0.0669353679
v -0.0330448858 0.0185449235 -0.0530824736
v -0.0316224806 0.0131897954 -0.050317876
v -0.0269325171 0.0166472569 -0.0607077815
v -0.0250343997 0.0276273824 -0.0713187903
v -0.0257070418 0.0329977386 -0.0739664584
v -0.0237282049 0.0519626848 -0.0787104592
v -0.0242020823 0.0671461821 -0.0760288015
v -0.0257372949 0.0738812387 -0.0724992082
v -0.0255705416 0.0804169625 -0.0682845786
v -0.0286963992 0.0174346715 -0.0603584275
v -0.0273959339 0.0241829511 -0.0677178577
v -0.0267834179 0.039662838 -0.0756069496
v -0.0256347377 0.0468910784 -0.0776844397
v -0.0256308708 0.0569604747 -0.0777062252
v -0.0260407999 0.0667503923 -0.0753865018
v -0.0273746978 0.0797128752 -0.0678379759
v -0.0286700018 0.0864939317 -0.0605078004
v -0.030214034 0.0185587872 -0.0597546995
v -0.0289554987 0.0250726305 -0.0668767467
v -0.0280001406 0.0331097431 -0.0722831339
v -0.0272482093 0.0470103808 -0.0765382648
v -0.0280722324 0.0530178584 -0.0759616047
v -0.0273902919 0.0615441054 -0.0757343695
v -0.0285110939 0.0679903105 -0.0728339255
v -0.0284083206 0.0748734847 -0.0699731782
v -0.0295142941 0.0822452307 -0.0637145191
v -0.0320328698 0.0176544692 -0.0552545339
v -0.0304564647 0.0242838301 -0.0641621351
v -0.0292543005 0.0338206701 -0.0709244311
v -0.0286776759 0.0425392985 -0.074187614
v -0.0286592301 0.0610609241 -0.0742919594
v -0.0296297949 0.073846288 -0.0687995479
v -0.0306868348 0.0809241012 -0.0628177449
v -0.0105981836 0.0511128157 -0.0757322162
v -0.0104962746 0.0511620492 -0.0769171342
v -0.0190776959 0.0120945517 -0.0286292974
v -0.0191123299 0.0132210916 -0.0286908802
v -0.0149071477 0.0509906709 -0.0776977837
v -0.0152057894 0.0508932061 -0.0765406787
v -0.0175382886 0.0496494323 -0.0769017637
v -0.0171487387 0.0498762205 -0.0780586302
v -0.0195323024 0.0468974113 -0.0770562515
v -0.0186747387 0.0482889786 -0.0782451853
v -0.0194872357 0.046380762 -0.0782387108
v -0.0253544375 0.0120684588 -0.0321058892
v -0.0252342131 0.0132181766 -0.0322253034
v -0.026670849 0.0132053057 -0.0359056406
v -0.0268452819 0.0120562147 -0.0362103805
v -0.0224570408 0.0120635796 -0.0295839179
v -0.0229801927 0.0132181896 -0.0300659463
v -0.0202443916 0.0348538719 -0.073928073
v -0.0215630941 0.0231534783 -0.0664655417
v -0.0228836909 0.0167268272 -0.058992248
v -0.0239589959 0.0132187242 -0.0529070906
v -0.0239552055 0.0121404277 -0.0535263941
v -0.0228044856 0.0158518665 -0.0598416999
v -0.0210362244 0.0256070383 -0.0698424727
v -0.0203803107 0.0315602645 -0.0735588372
v -0.0296553392 0.0920028389 -0.050240431
v -0.0318788774 0.0918448791 -0.0462659821
v -0.034906473 0.0919486955 -0.0272512622
v -0.0345285945 0.0919569731 -0.0212684628
v -0.0325078666 0.0919622853 -0.0176943578
v -0.0342886597 0.0911010504 -0.0410246439
v -0.0358970501 0.0915274546 -0.0268820915
v -0.0346301123 0.0120318886 -0.0220557712
v -0.0353637077 0.0121914539 -0.0265454371
v -0.0316783041 0.0120831979 -0.045444455
v -0.0292991474 0.0120844319 -0.0509431288
v -0.0263207033 0.0120748971 -0.0535493791
v -0.0358312316 0.0129352612 -0.0322951786
v -0.032495331 0.0125088636 -0.0461324863
vn -0.218637 0.6137282 0.7586406
vn -0.4759373 0.5943757 0.6482292
vn -0.3975324 0.4707953 0.7876039
vn -0.9421738 0.3292497 -0.0624765
vn -0.795858 0.5947738 0.1133768
vn -0.8578239 0.5135481 -0.0201607
vn -0.8539557 0.5098781 -0.1038456
vn -0.9751015 0.1664791 -0.1464983
vn -0.8778914 0.4416304 -0.1851197
vn -0.9638189 0.1711863 -0.2043242
vn -0.9401941 0.08622932 -0.3295443
vn -0.9611369 0.07450187 -0.2658295
vn -0.8807989 0.2208452 -0.4188325
vn -0.9378352 0.1815718 -0.2957988
vn -0.9057531 -0.025157 -0.4230583
vn -0.9487736 0.009684374 -0.3158082
vn -0.8688019 0.05933947 -0.4915914
vn -0.9333295 0.05728827 -0.3544206
vn -0.1685935 0.1283446 -0.9772941
vn -0.1942301 0.2615095 -0.9454563
vn 0.09018307 0.1642533 -0.982287
vn 0.0718899 0.3202841 -0.9445899
vn -0.2186549 0.441733 -0.870093
vn 0.07193224 0.4676906 -0.8809605
vn 0.03742849 0.6121197 -0.7898788
vn -0.2407816 0.6294575 -0.7387878
vn 0.006200559 0.7433731 -0.6688483
vn 0.02130099 0.8267393 -0.5621818
vn -0.245276 0.8743707 -0.4187071
vn 0.02634642 0.912172 -0.4089598
vn -0.244696 0.7636874 -0.5974156
vn -0.1826523 0.9453148 -0.2702183
vn -0.1886685 0.7749124 0.6032537
vn -0.3078285 0.8650346 0.3961776
vn -0.4461828 0.7239189 0.5261772
vn -0.9831177 0.155526 0.09639097
vn -0.9963809 0.05567822 -0.06422664
vn -0.9972225 0.07197616 -0.01915086
vn -0.9307294 0.2695137 0.2471946
vn -0.9819019 0.181 0.05574551
vn -0.4072468 0.6367211 0.6547795
vn -0.5771549 0.6539105 0.4891762
vn -0.6896396 0.6776536 0.2553091
vn -0.6394627 0.7533372 0.1535268
vn 0.06675743 0.006836699 -0.9977459
vn -0.3744876 0.00575795 -0.927214
vn -0.8609456 0.139307 -0.4892506
vn -0.8583164 0.3438588 -0.3808595
vn -0.8471137 0.4355926 -0.304397
vn -0.9236019 0.2506899 -0.2900243
vn -0.7840483 0.4523707 0.4250047
vn -0.7699924 0.3515073 0.5324982
vn -0.7917851 0.2720506 0.5468681
vn -0.9742531 0.1299687 0.1842257
vn -0.8503034 0.1688123 0.4984841
vn -0.8369954 0.5185059 0.1749009
vn -0.7613009 0.5525641 0.3392547
vn -0.7951738 -0.0002719524 -0.6063816
vn -0.5721825 0.1087895 -0.8128788
vn -0.6062929 0.203233 -0.7688337
vn -0.6210824 0.3368784 -0.7076508
vn -0.5822825 0.4343236 -0.6872481
vn -0.6062607 0.5408487 -0.5830357
vn -0.5973709 0.6544074 -0.463572
vn -0.5979459 0.7399147 -0.3081994
vn -0.607981 0.7643323 -0.2148376
vn -0.5983422 0.7959144 -0.0922338
vn -0.6111071 0.7906591 0.03750052
vn -0.2583752 0.2557425 0.9315783
vn -0.2382659 0.3591481 0.9023536
vn -0.5000849 0.3307155 0.8003388
vn -0.5381378 0.235003 0.8094327
vn -0.1912596 0.9672457 -0.1668997
vn -0.2122502 0.9753541 -0.0602852
vn -0.2436552 0.9683051 0.0549312
vn -0.2375127 0.956182 0.1711833
vn -0.264046 0.9281963 0.2621667
vn 0.03709238 -0.7341504 -0.677973
vn -0.09603101 -0.9167943 -0.3876421
vn -0.2221831 -0.7266053 -0.650138
vn -0.204886 -0.6494972 -0.7322398
vn -0.1657196 -0.2524014 -0.9533261
vn 0.08746863 -0.1879718 -0.9782718
vn 0.0966988 -0.381956 -0.9191077
vn -0.1519808 -0.0847393 -0.9847442
vn -0.962111 -0.02955695 -0.2710513
vn -0.9052026 -0.08583783 -0.4162212
vn -0.973987 -0.02108539 -0.2256207
vn -0.9333279 -0.1153879 -0.3399773
vn -0.9518694 -0.1388346 -0.2732572
vn -0.9220799 -0.1840436 -0.3404357
vn -0.5700555 -0.6225593 -0.5361498
vn -0.553739 -0.5560649 -0.6198104
vn -0.3998235 -0.514006 -0.7589064
vn -0.09612719 -0.4982089 -0.8617119
vn 0.01934896 -0.6076027 -0.7940055
vn -0.4917219 -0.3577785 -0.793854
vn -0.2225894 -0.3300281 -0.9173524
vn -0.4720999 -0.1421584 -0.8700073
vn -0.8138393 -0.3756521 -0.4433407
vn -0.7718901 -0.336282 -0.5395371
vn -0.7822655 -0.2086673 -0.586957
vn -0.7872365 -0.0898784 -0.6100661
vn -0.9853401 0.001060588 -0.1705986
vn -0.9884035 0.0003786543 -0.1518496
vn -0.9887865 -0.006092507 -0.149212
vn -0.9969171 0.0461612 0.06344634
vn -0.9875022 0.002791175 -0.1575803
vn -0.9835443 -0.008424898 -0.1804708
vn -0.9672638 0.01884229 -0.2530728
vn -0.9731083 0.03955744 -0.226926
vn -0.9651456 -0.1118553 -0.2366057
vn -0.9743524 -0.0568711 -0.2177228
vn -0.9823232 -0.01456471 -0.1866251
vn -0.9836953 -0.01039768 -0.1795424
vn -0.9845327 -0.001733448 -0.1751924
vn -0.9847217 -1.953093e-06 -0.1741354
vn -0.9847447 4.819094e-06 -0.1740054
vn -0.984743 -0.0002772192 -0.174015
vn -0.9847605 0.002417512 -0.1738992
vn -0.9847062 0.0001038628 -0.174223
vn -0.9847096 0.000109264 -0.1742041
vn -0.02965457 0.966693 0.2542149
vn 0.003633249 0.9999734 0.00632319
vn -0.03195116 0.9926891 0.1163938
vn 0.005853769 0.9928099 -0.1195588
vn 0.0582139 0.9661205 -0.2514407
vn 0.06237828 0.9031989 -0.4246652
vn -0.0908741 0.907155 0.4108672
vn 0.7580215 0.1649676 -0.6310223
vn 0.916001 0.06396995 -0.3960429
vn 0.4877197 0.1156186 -0.8653103
vn 0.9982548 0.04482576 -0.03844517
vn 0.9326711 0.1574828 -0.3245361
vn 0.9963567 0.08390041 0.01529743
vn 0.8939399 0.2984859 -0.3343315
vn 0.986522 0.1613259 0.02735491
vn 0.8857314 0.3595862 -0.2935604
vn 0.8431015 0.473054 -0.2557339
vn 0.8615895 0.4942081 -0.115853
vn 0.9586152 0.2599705 0.1160703
vn 0.8058987 0.5902983 -0.04555318
vn 0.8686819 0.4792976 0.1251619
vn 0.9431946 0.2645984 0.200927
vn 0.7165489 0.6731434 0.1828544
vn 0.7178828 0.3295517 -0.613221
vn 0.5827181 0.8125115 0.01627139
vn 0.4427501 0.3186639 -0.8381084
vn 0.4670435 0.521904 -0.7137833
vn 0.4435987 0.6108432 -0.655813
vn 0.4300922 0.6869223 -0.5857973
vn 0.4298863 0.7579811 -0.4905736
vn 0.4038679 0.8089346 -0.4272184
vn 0.3919987 0.8625814 -0.3198287
vn 0.380583 0.8913129 -0.2464101
vn 0.3477466 0.9254596 -0.1503224
vn 0.339291 0.9388538 0.05860962
vn 0.268338 0.9565271 0.1142391
vn 0.3850126 0.2335809 -0.8928635
vn 0.9993525 0.005005806 0.03563123
vn 0.9582921 0.006085933 -0.2857257
vn 0.758814 0.006540915 -0.6512745
vn 0.3837753 0.008778517 -0.9233848
vn 0.3155451 0.4516545 -0.8345295
vn 0.1611283 0.9848125 -0.06466874
vn 0.0831207 0.2503268 0.9645867
vn 0.5614202 0.1819914 0.807271
vn 0.2149146 0.3367428 0.916742
vn 0.6012891 0.2711131 0.751631
vn -0.07193369 0.3814322 0.9215937
vn 0.9058465 0.1357699 0.4012589
vn 0.8359771 0.1292529 0.5333254
vn 0.9654952 0.02897743 0.2588036
vn 0.5690141 0.3429254 0.7474124
vn 0.08735338 0.4758894 0.8751564
vn -0.989518 -0.01034815 -0.1440385
vn -0.7608848 0.1646446 0.6276515
vn -0.3937553 0.2103165 0.8948317
vn 3.699169e-05 -0.9999999 -0.0001950419
vn -9.084059e-06 -1 -0.0002280766
vn -0.0002683768 -0.9999999 -0.0002266381
vn -0.001921599 -0.9999921 -0.003465672
vn 9.466046e-05 -1 -4.44139e-05
vn 8.301698e-05 -1 -4.770618e-05
vn 5.108553e-05 -1 -5.912259e-05
vn 3.752691e-05 -1 -0.0002362644
vn 3.937904e-05 -1 -0.0001087096
vn -1.594215e-08 -1 2.687983e-07
vn -6.423472e-08 -1 2.30976e-07
vn -1.160274e-05 -1 -8.900239e-05
vn 9.34506e-05 -1 -0.0004068609
vn 0.0007083862 -0.9999998 -2.82247e-05
vn 0.0005719171 -0.9999996 -0.0005638404
vn 0.2208154 -0.9122459 -0.3450334
vn 0 -1 -1.372868e-06
vn 3.338725e-07 -1 4.734624e-07
vn -5.131606e-08 -1 1.874887e-07
vn 4.60705e-08 -1 6.442726e-07
vn -0.008233462 0.9987213 -0.04987885
vn 0.004968708 0.9993084 -0.03685294
vn 0.0761128 0.9624276 -0.2606527
vn -0.0005688961 0.9999992 -0.001107829
vn 0 1 0
vn -3.037748e-05 1 6.658012e-07
vn -0.0001012486 1 -2.886421e-05
vn 0.01788475 0.9959978 -0.08757007
vn -0.006061461 0.9999815 -0.0005480961
vn -1.829026e-05 1 4.993076e-06
vn -0.1989186 0.9760898 -0.08763614
vn -0.1586471 0.9831771 -0.09052033
vn -0.006152856 -0.999978 0.002493156
vn -0.005301264 -0.9999836 0.002148884
vn -0.0002018352 -1 4.3354e-05
vn 8.149943e-05 -1 8.945473e-05
vn 2.422166e-05 -1 1.304357e-05
vn 1.938918e-05 -1 4.105034e-05
vn -2.999138e-05 -1 -7.760127e-06
vn -9.7416e-06 -1 -5.530922e-05
vn 1.665399e-05 -1 -1.115743e-05
vn 6.756508e-06 -1 2.778575e-05
vn 0.1422885 0.8734926 -0.4655798
vn 1.956396e-14 -1 1.822623e-14
vn 2.046689e-14 -1 2.207026e-14
vn -1.437258e-07 -1 6.144311e-07
vn -9.385728e-08 -1 1.061964e-07
vn 1.978412e-14 -1 2.080099e-14
vn 2.003988e-14 -1 2.267222e-14
vn 1.970203e-14 -1 2.12832e-14
vn 6.686917e-09 -1 2.849988e-09
vn 1.816704e-14 -1 1.983148e-14
vn 2.912359e-14 -1 1.872547e-14
vn 1.936133e-14 -1 1.954471e-14
vn 1.951504e-14 -1 2.47743e-14
vn 2.007069e-14 -1 1.993471e-14
vn -4.401701e-06 -1 5.026508e-06
vn 1.846261e-14 -1 3.568859e-14
vn 3.68832e-09 -1 1.131007e-08
vn 2.173295e-14 -1 3.22475e-15
vn 2.820313e-14 -1 -2.669822e-14
vn 2.643916e-05 -1 3.014903e-06
vn 3.688965e-05 -1 -1.511057e-06
vn 4.249591e-05 -1 -1.366567e-05
vn 1.979078e-05 -1 2.10215e-05
vn 2.423122e-05 -1 1.993853e-05
vn 8.639754e-06 -1 5.738338e-07
vn 2.378645e-14 -1 2.223861e-14
vn 1.856578e-14 -1 1.658929e-14
vn 2.391093e-14 -1 1.770099e-14
vn 2.020936e-14 -1 1.897669e-14
vn 2.00997e-14 -1 1.851431e-14
vn 1.967683e-14 -1 1.892811e-14
vn -4.021155e-05 -1 -2.106592e-06
vn -3.890332e-05 -1 -2.634307e-05
vn 3.146649e-05 -1 1.258167e-05
vn -1.823183e-05 -1 -1.329286e-05
vn 4.57575e-05 -1 -5.881894e-05
vn 1.973479e-14 -1 1.939855e-14
vn 1.815213e-09 -1 -1.826318e-10
vn 2.00543e-14 -1 1.763363e-14
vn 1.898095e-14 -1 2.018e-14
vn -5.316017e-11 -1 2.71804e-08
vn -3.926527e-08 -1 9.477013e-08
vn -1.511794e-05 -1 5.241949e-06
vn -8.768432e-06 -1 2.370012e-06
vn 9.530501e-05 -1 0.00011893
vn -7.251574e-07 -1 2.654618e-05
vn -1.3211e-05 -1 2.081884e-05
vn 8.402426e-05 -1 0.0001173893
vn -0.7696846 0.0007519756 -0.6384239
vn -0.7541193 -0.0036831 -0.6567271
vn -0.7760466 -0.005847538 -0.6306484
vn -0.8834381 2.637845e-06 -0.468548
vn -0.9094495 0.01540081 -0.4155291
vn 0.9852286 -0.000144242 0.1712445
vn 0.9920344 -0.01211424 -0.1253837
vn 0.9784865 0.00675348 0.2062002
vn 0.9996052 -0.006728582 0.02727853
vn 0.8238935 -0.003400173 -0.5667344
vn 0.8206542 0 -0.5714253
vn 0.652909 0 -0.7574365
vn 0.6521681 0.001290491 -0.7580733
vn 0.5859988 0.003685489 -0.8103034
vn 0.5844276 0.006232401 -0.811422
vn -0.2055233 -0.004976041 -0.9786395
vn -0.2058064 -0.004860763 -0.9785806
vn -0.2063823 -0.004626358 -0.9784605
vn -0.2066662 -0.004510761 -0.9784011
vn 0.5490475 0.003927669 -0.835782
vn 0.6139841 -0.01105852 -0.789241
vn 0.6048999 -0.008908933 -0.7962517
vn 0.5392449 0.006117582 -0.8421267
vn 0.9963529 0.008681024 0.08488565
vn 0.9715132 -0.01713948 -0.2363647
vn 0.9965223 0.01015268 0.08270553
vn 0.9814018 0.009088931 -0.1917498
vn 0.4799269 -0.0378185 -0.8764929
vn 0.2846422 0.004659374 -0.9586225
vn 0.7571675 0.008932785 -0.6531597
vn 0.06113066 -0.004659705 -0.9981189
vn -0.1504713 0.03781781 -0.9878908
vn 0.1890328 0.004790039 -0.9819591
vn 0.1589493 -0.004789574 -0.9872751
vn -0.8562509 -0.009089094 -0.5164801
vn -0.8316708 0.01713902 -0.5550045
vn -0.4874648 -0.008932664 -0.873097
vn -0.9645163 -0.01015336 -0.263828
vn -0.9651042 -0.008681555 -0.2617222
vn -0.2854741 0.008850235 -0.9583455
vn -0.2048057 -0.007171896 -0.9787765
vn -0.2169929 -0.004773211 -0.9761615
vn -0.2972774 0.01122387 -0.9547251
vn 0.4981288 -0.1225169 -0.858404
vn 0.4748366 -0.2574678 -0.8415703
vn 0.4669105 -0.3958678 -0.7907485
vn 0.469198 -0.5121362 -0.7194233
vn 0.4411381 -0.6190314 -0.6497671
vn 0.4154491 -0.7045395 -0.5753487
vn 0.03444967 0.2116642 0.9767351
vn -0.6881161 -0.5507847 -0.4723688
vn 0.9979073 -0.06449093 -0.004675786
vn 0.9423376 -0.06945218 -0.3273778
vn 0.9856772 -0.1682395 0.01165176
vn 0.9279884 -0.2655374 -0.2613956
vn 0.9476543 -0.3100369 -0.07634371
vn 0.8310004 -0.4771293 -0.2859823
vn 0.7476524 -0.5793771 -0.3245583
vn 0.8699682 -0.3864766 -0.3062534
vn 0.8904601 -0.162778 -0.4249519
vn 0.9893957 -0.05309649 0.1351925
vn 0.8876066 -0.2495341 -0.3871529
vn 0.4941497 0.1665875 0.8532671
vn 0.8614247 0.07612581 0.5021477
vn 0.5277708 -0.0001499514 0.8493869
vn 0.5318087 -0.00201462 0.846862
vn 0.5290227 -0.0007274027 0.8486073
vn 0.5330641 -0.002595569 0.8460709
vn -0.7400412 -0.003279954 0.6725535
vn -0.7372164 -0.001779991 0.6756543
vn -0.7953042 -0.001581829 0.6062083
vn -0.8022355 -0.002004607 0.5970044
vn -0.910019 -0.0002869699 0.4145665
vn -0.9098768 0 0.4148786
vn -0.9814824 0 0.1915522
vn -0.9814825 0 0.1915518
vn -0.9991044 0 -0.04231178
vn -0.9991044 0 -0.04231222
vn -0.961773 0 -0.2738477
vn -0.9617729 0 -0.2738481
vn -0.8709709 0 -0.4913347
vn -0.8713385 0.0004715767 -0.4906821
vn -0.7502469 0.00170154 -0.6611556
vn -0.5109838 -0.01730531 0.8594162
vn -0.175517 -0.001408761 0.9844754
vn -0.4341227 0.003503561 0.900847
vn -0.1753114 9.830038e-05 0.984513
vn -0.7045596 -0.01335994 0.709519
vn -0.7010608 -0.04066581 0.7119409
vn -0.7790164 -0.02886308 0.6263389
vn 0.8578926 0.2451599 0.4515716
vn 0.8888291 0.3688099 0.27196
vn 0.9079177 0.2782803 0.3134413
vn 0.8983719 0.2252124 0.3771036
vn 0.6821072 0.6817085 0.2645815
vn 0.6412286 0.6585298 0.3939091
vn 0.6085315 0.5812919 0.5401751
vn 0.5739465 0.4561639 0.6800734
vn 0.2148454 0.8479586 0.4845696
vn 0.01726462 0.8009168 0.5985268
vn 0.3203669 0.7886023 0.5248536
vn 0.2772379 0.6729468 0.685771
vn -0.02680953 0.6798729 0.7328398
vn 0.1377801 0.5563233 0.8194638
vn 0.2375206 0.9502965 0.2012971
vn 0.2451645 0.9216484 0.3007633
vn 0.2119311 0.9076284 0.3623476
vn 0.9847633 1.59439e-05 0.1738997
vn 0.9847575 -6.07333e-05 0.1739327
vn 0.9842409 0.002977619 0.1768076
vn 0.9850152 0.001805905 0.1724579
vn 0.9850757 0.0006873147 0.1721206
vn 0.9846622 0.004292388 0.1744187
vn 0.9849275 0.002363395 0.1729514
vn 0.9850396 0.002252452 0.1723134
vn 0.9851626 0.0005855789 0.1716227
vn 0.9843513 0.006477671 0.1760978
vn 0.9846538 0.006095693 0.1744124
vn 0.9849171 0.0006213338 0.1730254
vn 0.9838962 0.002913868 0.1787171
vn 0.984097 0.004432332 0.1775767
vn 0.9841664 0.005776051 0.1771529
vn 0.9847663 -0.0002992656 0.1738828
vn 0.9845385 -0.002982176 0.1751429
vn 0.9846702 -0.005370109 0.1743437
vn 0.9848148 -0.003734665 0.173568
vn 0.9847449 1.890512e-05 0.1740046
vn 0.9847453 1.389857e-05 0.1740018
vn 0.9847458 9.686897e-06 0.1739991
vn 0.9847538 1.698532e-05 0.1739536
vn 0.9848447 -0.0004671473 0.1734378
vn 0.9847956 -0.0001216667 0.1737171
vn 0.9847951 -0.0001554767 0.17372
vn 0.9848183 -0.0005921814 0.1735876
vn -0.9847286 6.359771e-05 -0.1740961
vn -0.9847391 1.593079e-06 -0.1740368
vn -0.9847501 1.305424e-05 -0.173975
vn -0.9847187 7.18346e-05 -0.1741528
vn -0.9847782 -1.336307e-05 -0.173816
vn -0.9847423 -3.354068e-06 -0.1740192
vn -0.9847888 -2.528629e-05 -0.1737557
vn -0.9847663 5.234609e-06 -0.1738829
vn -0.9847454 -9.535005e-06 -0.1740019
vn -0.9847468 -4.323232e-06 -0.1739939
vn -0.9847426 1.394874e-07 -0.1740178
vn -0.9847434 -1.240939e-07 -0.1740122
vn -0.984743 -3.724165e-07 -0.1740151
vn -0.9847432 7.079634e-08 -0.174014
vn -0.9847434 1.524916e-08 -0.174013
vn -0.9847459 -8.774054e-06 -0.1739987
vn -0.9847599 2.774298e-05 -0.1739195
vn -0.9847252 -9.826414e-06 -0.1741157
vn -0.9847432 -3.442488e-08 -0.1740136
vn -0.9847434 1.233366e-08 -0.174013
vn -0.9847432 -2.546739e-07 -0.1740137
vn -0.9847431 -2.83019e-07 -0.174014
vn -0.9847435 3.606499e-07 -0.174012
vn -0.9847433 2.437113e-08 -0.1740133
vn -0.9847432 -3.240467e-07 -0.1740144
vn -0.9847434 1.786154e-07 -0.1740127
vn -0.9847432 6.348591e-08 -0.1740134
vn 0.1683193 -0.1051196 -0.9801114
vn 0.1720014 -0.3302684 -0.9280831
vn 0.1591334 -0.2734723 -0.9486251
vn 0.1496527 -0.4473017 -0.8817739
vn 0.1612979 -0.08653051 -0.983105
vn 0.1649774 0.08607481 -0.9825342
vn 0.1676288 0.1090959 -0.9797952
vn 0.1582013 0.2807336 -0.9466578
vn 0.1539312 0.3108405 -0.9379144
vn 0.1482986 0.450903 -0.880167
vn 0.136945 0.4683283 -0.8728772
vn 0.1231702 0.623877 -0.7717555
vn 0.1328179 0.6161346 -0.7763617
vn 0.1066327 0.7426032 -0.6611883
vn 0.09706809 0.7817872 -0.6159436
vn 0.09245806 -0.8565392 -0.5077323
vn 0.1182749 -0.7509175 -0.6497183
vn 0.09434558 -0.7195826 -0.6879678
vn 0.04886339 -0.971425 -0.2322626
vn 0.04885415 -0.9721881 -0.2290494
vn 0.07625875 -0.8324783 -0.5487846
vn 0.1370023 -0.557262 -0.8189564
vn 0.1424287 -0.6352825 -0.7590325
vn -0.06404067 -0.9527188 0.2970281
vn -0.04957949 -0.9627489 0.2658127
vn -0.1719893 0.2999656 0.9383178
vn -0.151976 0.4845071 0.8614848
vn -0.1686538 0.4542413 0.874769
vn -0.1047699 0.8306382 0.5468669
vn -0.136105 0.7533832 0.6433422
vn -0.1486073 0.6092846 0.7789019
vn -0.1756794 0.2669699 0.9475567
vn -0.175162 0.1000099 0.9794469
vn -0.1730703 0.1039317 0.9794105
vn -0.188801 -0.09540672 0.9773698
vn -0.1803738 -0.09354751 0.9791395
vn -0.1773334 -0.2734209 0.9454067
vn -0.1677171 -0.3048012 0.9375325
vn -0.1692397 -0.4517253 0.8759579
vn -0.1553033 -0.4827825 0.8618596
vn -0.1517981 -0.6108718 0.7770411
vn -0.1367036 -0.6387966 0.7571334
vn -0.130439 -0.7558157 0.6416606
vn -0.1140278 -0.7801638 0.6150951
vn -0.1732802 0 -0.9848725
vn -0.1732863 0 -0.9848715
vn 0.1558968 0 -0.9877734
vn 0.1558907 0 -0.9877743
vn 0.4681793 0 -0.8836335
vn 0.4681739 0 -0.8836364
vn 0.7297271 0 -0.6837385
vn 0.7297232 0 -0.6837427
vn 0.9121978 0 -0.40975
vn 0.9121955 0 -0.4097552
vn 0.9958181 0 -0.09135868
vn 0.9958176 0 -0.09136419
vn 0.9715258 0 0.2369336
vn 0.9715272 0 0.2369282
vn 0.8419538 0 0.5395497
vn 0.8419567 0 0.5395451
vn 0.6211429 0 0.7836973
vn 0.6211472 0 0.783694
vn 0.3330217 0 0.9429191
vn 0.3330268 0 0.9429173
vn 0.008812255 0 0.9999611
vn 0.00881755 0 0.9999611
vn -0.316352 0 0.948642
vn -0.3163469 0 0.9486436
vn -0.6072349 0 0.7945224
vn -0.6072303 0 0.7945258
vn -0.8323142 0 0.5543042
vn -0.8323111 0 0.5543088
vn -0.9671993 0 0.2540187
vn -0.967198 0 0.2540241
vn -0.9972735 0 -0.07379418
vn -0.9972739 0 -0.07378867
vn -0.9192777 0 -0.3936097
vn -0.9192799 0 -0.3936045
vn -0.7416637 0 -0.670772
vn -0.7416676 0 -0.6707676
vn -0.4836791 0 -0.8752455
vn -0.4836844 0 -0.8752425
vn 0 -1 -2.043477e-07
vn 0 -1 5.275451e-08
vn 0 -1 3.498792e-08
vn 0 -1 3.706317e-08
vn 0 -1 7.412564e-09
vn 0 -1 -6.098096e-08
vn 0 -1 0
vn 0 -1 5.195328e-07
vn 0 -1 5.982728e-07
vn 0 -1 -3.3737e-09
vn 0 -1 -3.462268e-07
vn 0 -1 -2.690944e-07
vn 0 -1 1.783064e-07
vn 0 -1 2.079283e-07
vn 0 -1 -4.002166e-09
vn 0 -1 1.407217e-09
vn 0 -1 -8.486511e-08
vn 0.9847432 1.672502e-07 0.1740133
vn 0.9847433 2.664304e-07 0.1740134
vn 0.9847432 3.095421e-07 0.1740133
vn 0.9847432 -1.10469e-07 0.1740134
vn 0.9847434 -1.373843e-08 0.1740132
vn 0.9847433 3.859528e-07 0.1740134
vn 0.9847434 6.632799e-07 0.1740132
vn 0.9847433 0 0.1740133
vn 0.9847434 0 0.1740133
vn 0.9847433 -1.789469e-07 0.1740134
vn 0.9847433 1.447372e-09 0.174013
vn 0.9847433 -8.844319e-08 0.1740132
vn 0.9847433 1.276803e-07 0.1740135
vn 0.9847433 -5.227305e-07 0.1740134
vn 0.9847434 5.297712e-07 0.174013
vn 0.9847433 -2.743739e-07 0.1740133
vn 0.9847432 0 0.1740131
vn 0.9847433 -8.491592e-08 0.1740134
vn 0.9847433 2.956484e-08 0.1740136
vn 0.9847432 -2.186553e-07 0.1740135
vn 0.9847433 4.055878e-07 0.1740132
vn 0.9847434 -3.774667e-07 0.1740131
vn 0.9847434 3.76525e-07 0.174013
vn 0.9847433 -1.289008e-07 0.1740131
vn 0.9847555 -0.0002508412 0.1739445
vn 0.9847853 0.0002956072 0.1737755
vn 0.9847154 0.0007611727 0.1741696
vn 0.9847433 1.808797e-07 0.1740134
vn 0.9847433 -6.887958e-07 0.1740135
vn 0.9847432 1.357606e-07 0.1740133
vn 0.9847434 -3.863198e-07 0.1740133
vn 0.9847434 -9.574079e-08 0.1740135
vn 0.9847434 1.248204e-07 0.1740132
vn 0.9847434 -1.447439e-07 0.1740133
vn 0.9847434 -1.378351e-07 0.1740132
vn 0.9847434 -1.173979e-08 0.1740134
vn 0.9847433 1.652395e-07 0.1740134
vn 0.9847433 -1.722311e-07 0.1740132
vn 0.9847432 -3.406711e-07 0.1740135
vn 0.9847432 7.047949e-08 0.1740135
vn 0.9847432 1.45628e-07 0.1740135
vn 0.9847434 0 0.1740132
vn 0.9847491 5.801461e-05 0.17398
vn 0.9847543 -0.001055252 0.1739478
vn 0.9848069 -0.0002567192 0.1736525
vn 0.984865 -1.719979e-05 0.1733233
vn 0.1347663 0.06753018 -0.9885736
vn 0.3514844 -0.07683596 -0.9330354
vn 0.1659747 0.2302876 -0.958864
vn 0.1693303 0.2306199 -0.9581971
vn 0.1554907 0.4488015 -0.8799999
vn 0.155491 0.4488024 -0.8799994
vn 0.1333039 0.6427841 -0.7543598
vn 0.1333046 0.6427849 -0.7543589
vn 0.1039144 0.8021247 -0.5880457
vn 0.1039139 0.8021263 -0.5880436
vn 0.0689197 0.9182169 -0.3900355
vn 0.06891947 0.9182176 -0.390034
vn 0.03021739 0.9848084 -0.170995
vn 0.03021721 0.9848087 -0.1709931
vn -0.01011862 0.9983081 0.05725908
vn -0.01011871 0.9983081 0.05725953
vn -0.04990913 0.9579887 0.2824297
vn -0.0499094 0.9579882 0.2824317
vn -0.08700746 0.866024 0.4923738
vn -0.08700761 0.8660231 0.4923754
vn -0.1194127 0.7273718 0.6757743
vn -0.1194128 0.7273711 0.6757749
vn -0.1453808 0.549508 0.8227426
vn -0.1453808 0.5495071 0.8227432
vn -0.1635117 0.3420153 0.9253591
vn -0.1589567 0.3415693 0.926317
vn -0.08461408 0.1881325 0.978492
vn -0.2816612 0.06298152 0.9574447
vn -0.02372053 -0.0532702 0.9982983
vn -0.2744832 -0.1885426 0.9429266
vn -0.1688575 -0.3415102 0.9245852
vn -0.163524 -0.3420237 0.9253538
vn -0.1453875 -0.549511 0.8227394
vn -0.1453872 -0.5495121 0.8227387
vn -0.1194131 -0.7273758 0.6757699
vn -0.1194128 -0.7273768 0.6757688
vn -0.08700425 -0.866026 0.4923711
vn -0.08700407 -0.8660268 0.4923695
vn -0.04990862 -0.9579904 0.2824244
vn -0.04990859 -0.9579906 0.2824237
vn -0.01011778 -0.9983084 0.05725484
vn -0.01011768 -0.9983084 0.05725425
vn 0.03021554 -0.9848075 -0.171001
vn 0.03021604 -0.984807 -0.1710029
vn 0.06892374 -0.9182155 -0.3900381
vn 0.06892429 -0.918215 -0.3900391
vn 0.1039193 -0.8021223 -0.5880482
vn 0.1039193 -0.8021215 -0.5880492
vn 0.1332919 -0.6427877 -0.7543588
vn 0.1332921 -0.6427861 -0.7543602
vn 0.1554985 -0.448796 -0.8800012
vn 0.155499 -0.4487944 -0.8800021
vn 0.1686603 -0.2459328 -0.9545003
vn 0.178593 -0.2447533 -0.9529955
vn -0.2590134 0.1767744 0.9495593
vn -0.1620706 0.3640135 0.9171844
vn -0.1882641 0.356976 0.9149452
vn -0.1373246 0.6142122 0.7771006
vn -0.1373253 0.6142123 0.7771004
vn -0.09517659 0.8371643 0.5386068
vn -0.09517658 0.8371645 0.5386066
vn -0.04271809 0.9693998 0.2417418
vn -0.04271808 0.9693998 0.2417417
vn 0.01437003 0.9965846 -0.08131787
vn 0.01436991 0.9965847 -0.0813171
vn 0.06990042 0.9157748 -0.3955635
vn 0.0699002 0.9157754 -0.3955621
vn 0.1178569 0.7357264 -0.6669455
vn 0.1178567 0.7357271 -0.6669449
vn 0.1536171 0.4697991 -0.8693047
vn 0.1490958 0.4701901 -0.8698803
vn 0.1789043 0.1270054 -0.9756346
vn 0.103444 0.275211 -0.9558023
vn 0.1778447 0.03523519 -0.9834276
vn 0.1637155 -0.1925584 -0.9675322
vn -0.1990052 -0.03373854 0.9794175
vn -0.1657093 -0.003669059 0.9861678
vn -0.1425793 0.3445427 0.92788
vn -0.164584 0.3247009 0.9313868
vn -0.1373215 0.6142067 0.7771055
vn -0.1373208 0.6142138 0.7771001
vn -0.09517775 0.8371623 0.5386099
vn -0.09517662 0.8371669 0.5386028
vn -0.04271915 0.9693981 0.2417487
vn -0.0427175 0.9694005 0.2417391
vn 0.01436863 0.9965851 -0.08131161
vn 0.01437019 0.9965844 -0.08132134
vn 0.06989929 0.9157763 -0.3955604
vn 0.06990064 0.9157729 -0.395568
vn 0.1178547 0.7357295 -0.6669425
vn 0.117856 0.7357236 -0.6669488
vn 0.1530395 0.4759544 -0.8660521
vn 0.15304 0.475946 -0.8660566
vn 0.1694713 0.2269695 -0.9590435
vn 0.1790954 0.1912337 -0.9650671
vn 0.1746274 -0.143091 -0.9741819
vn 0.1556458 -0.4738233 -0.8667559
vn 0.1534385 -0.4716875 -0.868313
vn 0.1178572 -0.7357191 -0.6669534
vn 0.1178559 -0.7357243 -0.6669481
vn 0.06990141 -0.9157707 -0.3955728
vn 0.06989992 -0.9157736 -0.3955663
vn 0.01437109 -0.9965839 -0.08132706
vn 0.01436969 -0.9965845 -0.08131862
vn -0.04271644 -0.9694021 0.2417333
vn -0.04271771 -0.9694002 0.2417404
vn -0.095175 -0.8371706 0.5385974
vn -0.09517582 -0.8371663 0.5386039
vn -0.1373191 -0.6142177 0.7770972
vn -0.1373201 -0.6142108 0.7771024
vn -0.164584 -0.3247063 0.9313849
vn -0.1645853 -0.3246986 0.9313874
vn 0.984744 -1.189663e-05 0.1740094
vn 0.9847456 -1.721305e-05 0.1740002
vn 0.9847447 4.247001e-08 0.1740055
vn 0.9847509 -3.283126e-05 0.1739705
vn 0.9847428 -3.313038e-06 0.1740162
vn 0.9847429 -5.228871e-06 0.174015
vn 0.9847432 -7.136826e-06 0.1740135
vn 0.9847427 4.499916e-07 0.1740166
vn 0.9847427 -6.279966e-07 0.1740167
vn 0.9847427 -2.612304e-06 0.1740167
vn 0.9847429 2.851974e-06 0.1740158
vn 0.9847428 2.124184e-06 0.1740162
vn 0.9847428 8.699132e-07 0.1740165
vn 0.9847438 8.581201e-06 0.1740109
vn 0.9847434 7.246549e-06 0.1740127
vn 0.9847431 4.234963e-06 0.1740147
vn 0.9847568 2.79795e-05 0.1739367
vn 0.9847475 1.649122e-05 0.1739897
vn 0.9847446 1.080682e-05 0.1740057
vn -0.9847431 1.83808e-06 -0.1740145
vn 0.9847433 -1.951391e-06 0.1740133
vn 0.9847432 -1.998133e-06 0.1740133
vn 0.9847434 -2.453596e-07 0.1740133
vn 0.9847433 -6.135942e-07 0.1740133
vn 0.9847433 1.660312e-06 0.1740132
vn 0.9847433 1.726932e-06 0.1740132
vn 0.9847433 3.929861e-06 0.174013
vn 0.9847433 4.038808e-06 0.174013
vn 0.9847434 -7.352312e-06 0.1740127
vn 0.9847434 4.311735e-06 0.1740131
vn 0.9847433 -4.323972e-07 0.1740132
vn 0.9847434 9.488086e-07 0.1740132
vn 0.9847434 -1.757751e-07 0.1740132
vn 0.9847435 1.27131e-06 0.174012
vn 0.9847433 -1.036471e-06 0.1740132
vn 0.9847432 -2.372022e-07 0.174014
vn 0.984744 0 0.1740095
vn 0.9847434 -4.207639e-07 0.1740128
vn 0.9847433 -3.17626e-07 0.1740129
vn 0.9847433 0 0.1740131
vn -0.9923032 -0.1109333 -0.05502937
vn -0.9967918 -0.08001348 -0.001943008
vn -0.9999802 0.0001742094 -0.006311573
vn -0.979354 0.1752743 -0.1007208
vn -0.9420777 0.2962674 -0.1572109
vn -0.9626051 0.174419 -0.2072907
vn -0.4010389 -0.8917027 0.2098434
vn -0.1663062 -0.9501852 0.2636104
vn -0.5548298 -0.7467546 0.3667714
vn -0.1480614 0.9559139 0.2535869
vn -0.3960701 0.8749368 0.2785933
vn -0.4746501 0.7490703 0.4621697
vn -0.228627 0.8419689 0.4886902
vn -0.2831898 0.7263582 0.6262646
vn -0.5024499 0.6047805 0.6178872
vn -0.2878999 0.5947838 0.7505637
vn -0.5303738 0.4247186 0.7337014
vn -0.2875623 0.5113464 0.809835
vn -0.2886308 0.3915468 0.8737181
vn -0.4100178 0.2900947 0.8647141
vn -0.5572315 0.09990656 0.824325
vn -0.294127 0.1732915 0.9399251
vn -0.3354151 -0.001278473 0.9420696
vn -0.5370549 -0.1005722 0.8375304
vn -0.3137745 -0.1831578 0.9316645
vn -0.6463068 -0.2442354 0.7229362
vn -0.3169208 -0.2988904 0.9001254
vn -0.5259698 -0.4232651 0.7377008
vn -0.2884541 -0.4627204 0.8382626
vn -0.6213767 -0.5159426 0.5896561
vn -0.295825 -0.5954211 0.746968
vn -0.4787545 -0.6866531 0.5470846
vn -0.2660803 -0.6887855 0.6743706
vn -0.2484802 -0.811943 0.5282103
vn -0.5947061 0.7823133 0.1852307
vn -0.6875471 0.6415184 0.3401958
vn -0.7101531 0.5175873 0.4772693
vn -0.7284265 0.3629673 0.5810762
vn -0.7172821 0.2044793 0.6661041
vn -0.815318 0.03816611 0.5777543
vn -0.7432966 -0.08999125 0.6628814
vn -0.7464495 -0.3560122 0.5621997
vn -0.7285521 -0.5636601 0.3892288
vn -0.6489093 -0.7494522 0.1312939
vn -0.7478013 0.6606984 0.065353
vn -0.8434504 0.493019 0.2133634
vn -0.8581391 0.4037547 0.3171427
vn -0.8724549 0.2833593 0.3981583
vn -0.8832285 0.1531934 0.4432147
vn -0.8960283 -0.07743619 0.4371921
vn -0.8649792 -0.2198969 0.4510613
vn -0.9235933 -0.2661775 0.2759077
vn -0.8454404 -0.4165635 0.3342236
vn -0.8152121 -0.5384705 0.2132573
vn -0.8629251 0.4991658 -0.07870186
vn -0.9371257 0.3461542 0.04441528
vn -0.9577164 0.2551774 0.1329057
vn -0.9644369 0.1903151 0.1834162
vn -0.9751258 0.0916309 0.2018253
vn -0.962954 0.004229361 0.2696328
vn -0.9669039 -0.1038565 0.2330463
vn -0.9562387 -0.2592862 0.1355664
vn -0.9377404 -0.3441476 0.04696013
vn -0.8304634 -0.5567764 -0.01818672
vn -0.9910703 0.1176871 -0.06268623
vn -0.9975971 0.06356638 -0.02755552
vn -0.9864023 -0.1264864 -0.1049369
vn -0.9597934 -0.2402254 -0.1452177
vn 0.9836332 -0.02221163 0.1788079
vn 0.9781753 -0.1213803 0.1686414
vn 0.9839737 -0.0400914 0.1737476
vn 0.9838374 -0.0032064 0.1790354
vn 0.984359 -0.0004064023 0.1761741
vn 0.9846057 0.0003587927 0.17479
vn 0.9846517 0.0009349299 0.1745285
vn 0.9844251 0.000331039 0.1758044
vn 0.9842584 -0.001075527 0.1767319
vn 0.9841574 -0.00171583 0.1772882
vn 0.984064 -0.003062898 0.177788
vn 0.986612 0.007129017 0.1629291
vn 0.9861165 0.006324822 0.1659343
vn 0.9799951 -0.1402724 0.1411851
vn 0.9854647 0.00481703 0.1698121
vn 0.985486 0.00493109 0.169685
vn 0.9842365 -0.001180515 0.1768536
vn 0.9842977 -0.0007854606 0.1765147
vn 0.9850165 0.003103377 0.1724319
vn 0.9846362 0.0009045685 0.1746161
vn 0.9846374 0.000576557 0.1746105
vn 0.9845994 0.0007929867 0.1748242
vn 0.984328 -0.0001386088 0.1763471
vn 0.9845296 0.0003703539 0.1752181
vn 0.9847264 0.001721139 0.1741
vn 0.9847503 0.002053379 0.1739613
vn 0.9846666 0.0006244884 0.1744449
vn 0.984638 0.000514139 0.1746075
vn 0.9254692 -0.3690852 0.08533926
vn 0.9919775 0.01059178 0.1259703
vn 0.9883528 0.009082989 0.1519085
vn -0.03846079 0.9682021 0.247195
vn -0.09008274 0.825093 0.5577694
vn -0.1149784 0.7175384 0.6869633
vn -0.1331249 0.6002348 0.7886672
vn -0.1448902 0.4635457 0.8741465
vn -0.1602995 0.3125067 0.9362925
vn -0.16705 0.1583108 0.9731557
vn -0.1666372 0.001617815 0.986017
vn -0.1670096 -0.159201 0.9730174
vn -0.1610463 -0.3149256 0.9353533
vn -0.1467976 -0.4637471 0.8737214
vn -0.1345432 -0.5997403 0.7888027
vn -0.114747 -0.7209893 0.6833795
vn -0.08969126 -0.8254755 0.5572662
vn -0.04139663 -0.9669122 0.2517287
vn 0.04183402 -0.6017292 -0.7976038
vn 0.05415777 -0.7053689 -0.7067685
vn -0.1930413 -0.6669071 -0.7197013
vn 0.01574137 -0.7691352 -0.6388922
vn 0.09577528 -0.2922451 -0.9515355
vn 0.04544103 -0.3981538 -0.9161925
vn -0.1554748 -0.2679896 -0.9507939
vn -0.1261477 -0.1851345 -0.974583
vn 0.1056554 -0.143275 -0.984027
vn 0.04287834 -0.05063833 -0.9977962
vn -0.311774 0.8846524 -0.3466802
vn -0.06951699 0.9481067 -0.3102597
vn -0.2966433 0.749873 -0.5913485
vn -0.7845516 0.5612857 -0.263509
vn -0.008311626 -0.8524131 -0.5228029
vn 0.04441358 -0.9637464 -0.2630976
vn -0.06238468 -0.9584528 -0.2783458
vn -0.2795301 -0.8724199 -0.400932
vn -0.2927118 -0.749877 -0.5932996
vn -0.2884274 -0.5063865 -0.8126392
vn 0.07381403 -0.511202 -0.856285
vn -0.3735144 -0.3822065 -0.8452249
vn -0.2622915 -0.002256239 -0.964986
vn 0.03640684 0.06856679 -0.996982
vn -0.08594255 0.1812838 -0.9796683
vn -0.2266092 0.3177297 -0.9207042
vn 0.0407537 0.2954869 -0.9544772
vn -0.005793969 0.4613944 -0.8871762
vn -0.3676316 0.4426244 -0.8178819
vn -0.2622556 0.6082206 -0.7491927
vn -0.02172641 0.5804031 -0.8140393
vn -0.02789828 0.7069209 -0.7067421
vn -0.02848945 0.8145984 -0.5793253
vn -0.495332 -0.7819937 -0.3783281
vn -0.5292906 -0.6415352 -0.5552333
vn -0.4856116 -0.5278929 -0.6967858
vn -0.5696382 -0.2122477 -0.7940171
vn -0.4467077 -0.09353859 -0.8897768
vn -0.4663522 0.09443033 -0.8795446
vn -0.4958228 0.2636066 -0.8274487
vn -0.526916 0.5103394 -0.6796418
vn -0.5466728 0.6278929 -0.5539851
vn -0.5540568 0.7539666 -0.3529242
vn -0.6746442 -0.6667244 -0.3167551
vn -0.7303433 -0.4878312 -0.4781415
vn -0.7019674 -0.3914628 -0.5949778
vn -0.6739309 -0.2989039 -0.6756283
vn -0.6865982 -0.06633805 -0.7240041
vn -0.7695258 0.01353885 -0.6384723
vn -0.6430143 0.1484263 -0.7513336
vn -0.7727251 0.213457 -0.5977725
vn -0.6700538 0.3551898 -0.6518191
vn -0.6799762 0.4722196 -0.5609286
vn -0.7957834 0.4589326 -0.3951071
vn -0.8362454 -0.5010224 -0.2228681
vn -0.848408 -0.3825409 -0.3658773
vn -0.8530641 -0.2922229 -0.4323048
vn -0.8512078 -0.1711374 -0.4961423
vn -0.8322474 -0.1095058 -0.5434821
vn -0.8420497 0.07864492 -0.5336359
vn -0.8648527 0.1911892 -0.4641945
vn -0.8631323 0.2856534 -0.4164189
vn -0.9377561 -0.3041621 -0.167627
vn -0.9557224 -0.1632292 -0.2448488
vn -0.938388 -0.1119682 -0.326942
vn -0.9344199 -0.02154711 -0.355521
vn -0.9437452 0.05264693 -0.3264556
vn -0.9451035 0.1139246 -0.3062687
vn -0.9579313 0.1452399 -0.2475339
vn 0.7674951 -0.6355324 0.08396351
vn 0.7428865 -0.6684424 0.03612003
vn 0.8150538 -0.03155015 -0.5785257
vn 0.8256829 -0.05459961 -0.5614861
vn 0.584375 -0.03819935 -0.8105842
vn 0.5635958 -0.04953735 -0.824564
vn 0.642727 -0.7658994 0.01732821
vn 0.5751555 -0.8168878 0.04347817
vn 0.2728389 -0.9618548 -0.01985926
vn 0.2414164 -0.9702809 -0.01652371
vn 0.9536769 -0.2886439 0.08476452
vn 0.8222737 -0.569084 0.003038133
vn 0.9759949 -0.1834679 0.1173597
vn 0.8155324 -0.1288998 -0.5641735
vn 0.8093739 -0.1363617 -0.5712436
vn 0.9828309 -0.1201453 -0.1400306
vn 0.9895709 -0.1340123 -0.05282097
vn 0.4488406 -0.1523188 -0.8805345
vn 0.5845717 -0.07249717 -0.8080966
vn 0.04785218 -0.9979331 -0.04289049
vn 0.0454357 -0.9982605 -0.0375726
vn 0.1745951 -0.1701603 -0.9698258
vn 0.1851093 -0.07390357 -0.9799351
vn 0.2288394 -0.07527168 -0.9705496
vn 0.1679706 -0.1804242 -0.9691403
vn 0.1860314 -0.07556231 -0.979634
vn 0.2661927 -0.06919881 -0.9614328
vn 0.1621035 -0.3786246 -0.9112442
vn 0.1527158 -0.4089429 -0.8996909
vn 0.1388875 -0.6411365 -0.7547544
vn 0.1258922 -0.6657006 -0.7355229
vn 0.104191 -0.817569 -0.5663261
vn 0.09959304 -0.8199263 -0.5637394
vn 0.04464177 -0.9667789 -0.2516857
vn 0.04465726 -0.9664003 -0.2531328
vn -0.3292834 0.9276123 -0.1763744
vn -0.3840056 0.9147674 -0.1254598
vn -0.2214435 0.9749734 -0.01973764
vn -0.7343519 0.6610871 -0.1539189
vn -0.5766429 0.8167049 -0.02182003
vn -0.2661512 0.9626691 0.04931306
vn -0.3623022 -0.9305482 0.05307822
vn -0.4042045 -0.9145653 -0.01375068
vn -0.2149277 -0.974947 -0.05730901
vn -0.713113 -0.6911891 -0.1171646
vn -0.5489855 -0.8169096 -0.1768437
vn -0.2364235 -0.9615945 -0.1394273
vn 0.9850261 -0.0847147 0.1501563
vn 0.9861172 -0.07877294 0.1461771
vn 0.9885237 -0.05048301 0.1423812
vn 0.988803 -0.04961873 0.1407353
vn 0.9919374 -0.06445089 0.1091161
vn 0.9916028 -0.06862302 0.1096122
vn 0.9905846 -0.0281638 0.1339733
vn 0.995338 -0.03153633 0.09114619
vn 0.9913372 -0.02648859 0.1286419
vn 0.9964328 -0.03888789 0.07489739
vn 0.199419 -0.1762266 -0.9639379
vn 0.1860321 -0.05839123 -0.9808071
vn 0.1804939 -0.07077177 -0.9810267
vn 0.1807833 0.0329495 -0.9829708
vn 0.1758315 -0.04643365 -0.9833246
vn 0.1760416 0.1654299 -0.9703826
vn 0.1688488 0.3216939 -0.9316669
vn 0.1595997 0.4679537 -0.8692222
vn 0.1425891 0.6016648 -0.7859184
vn 0.04671865 0.9676337 -0.2479965
vn 0.104416 0.8269361 -0.5525162
vn 0.1253041 0.7220027 -0.6804491
vn 0.1319397 -0.8190219 -0.5583861
vn 0.1805206 -0.5936006 -0.7842517
vn 0.1865423 -0.4629498 -0.866533
vn 0.001089326 -0.9999985 -0.001317204
vn 0.003251148 -0.9999945 -0.0006382036
vn 0.003953132 -0.9999919 0.0007687275
vn 0.004459888 -0.9999897 0.0008196536
vn -0.006197294 -0.9999807 -0.0003551456
vn 0.002864768 -0.9999947 0.001517003
vn -0.002869901 -0.9999957 -0.000507362
vn -0.001503623 -0.9999989 -0.0002032399
vn 0.0003641598 -0.9999999 0.0001557595
vn 0.0011944 -0.999999 0.0007037976
f 5//1 6//2 7//3
f 10//4 54//5 11//6
f 12//7 13//8 11//6
f 11//6 13//8 10//4
f 15//9 14//10 13//8
f 15//9 13//8 12//7
f 17//11 18//12 9//13
f 9//13 18//12 8//14
f 21//15 22//16 20//17
f 20//17 22//16 19//18
f 23//19 24//20 25//21
f 25//21 24//20 26//22
f 26//22 24//20 27//23
f 26//22 27//23 28//24
f 28//24 27//23 29//25
f 29//25 27//23 30//26
f 30//26 31//27 29//25
f 32//28 31//27 30//26
f 34//29 33//30 32//28
f 34//29 32//28 35//31
f 35//31 32//28 30//26
f 33//30 34//29 36//32
f 43//33 42//34 44//35
f 6//2 5//1 44//35
f 44//35 5//1 43//33
f 45//36 48//37 46//38
f 45//36 49//39 50//40
f 50//41 49//39 51//42
f 54//5 53//43 55//44
f 23//19 25//21 56//45
f 23//19 56//45 1//46
f 20//17 19//18 58//47
f 58//47 19//18 17//11
f 58//47 17//11 9//13
f 59//48 9//13 8//14
f 59//48 8//14 60//49
f 60//49 8//14 16//50
f 60//49 16//50 14//10
f 60//49 14//10 15//9
f 61//51 49//39 62//52
f 62//52 49//39 4//53
f 4//53 49//39 47//54
f 4//53 47//54 3//55
f 54//5 52//56 53//43
f 53//43 52//56 63//57
f 63//57 52//56 51//42
f 63//57 51//42 61//51
f 61//51 51//42 49//39
f 49//39 45//36 47//54
f 47//54 45//36 46//38
f 1//46 57//58 2//59
f 2//59 57//58 20//17
f 2//59 20//17 64//60
f 64//60 20//17 58//47
f 64//60 58//47 65//61
f 65//61 58//47 9//13
f 65//61 9//13 66//62
f 66//62 9//13 67//63
f 67//63 9//13 59//48
f 67//63 59//48 68//64
f 68//64 59//48 60//49
f 68//64 60//49 69//65
f 69//65 60//49 70//66
f 70//66 60//49 15//9
f 70//66 15//9 71//67
f 71//67 15//9 12//7
f 71//67 12//7 72//68
f 72//68 12//7 11//6
f 72//68 11//6 55//44
f 55//44 11//6 54//5
f 73//69 74//70 75//71
f 75//71 74//70 7//3
f 3//55 76//72 75//71
f 75//71 76//72 73//69
f 23//19 1//46 2//59
f 23//19 2//59 24//20
f 24//20 2//59 64//60
f 24//20 64//60 27//23
f 27//23 64//60 65//61
f 27//23 65//61 30//26
f 30//26 65//61 66//62
f 30//26 66//62 67//63
f 30//26 67//63 35//31
f 35//31 67//63 68//64
f 35//31 68//64 34//29
f 34//29 68//64 69//65
f 34//29 69//65 36//32
f 36//32 69//65 38//73
f 38//73 69//65 70//66
f 38//73 70//66 37//74
f 37//74 70//66 71//67
f 37//74 71//67 39//75
f 39//75 71//67 72//68
f 39//75 72//68 41//76
f 41//76 72//68 40//77
f 40//77 72//68 55//44
f 40//77 55//44 42//34
f 42//34 55//44 53//43
f 42//34 53//43 44//35
f 44//35 53//43 63//57
f 44//35 63//57 6//2
f 6//2 63//57 61//51
f 6//2 61//51 7//3
f 7//3 61//51 62//52
f 7//3 62//52 75//71
f 75//71 62//52 4//53
f 75//71 4//53 3//55
f 81//78 181//79 77//80
f 81//78 77//80 82//81
f 87//82 88//83 86//84
f 88//83 87//82 89//85
f 90//86 21//15 91//87
f 118//88 90//86 91//87
f 118//88 91//87 92//89
f 113//90 92//89 80//91
f 181//79 78//92 77//80
f 77//80 78//92 79//93
f 77//80 79//93 82//81
f 82//81 79//93 93//94
f 83//95 84//96 93//94
f 94//97 85//98 83//95
f 94//97 83//95 93//94
f 82//81 93//94 84//96
f 82//81 84//96 81//78
f 95//99 85//98 94//97
f 85//98 86//84 83//95
f 56//45 88//83 89//85
f 95//99 89//85 87//82
f 95//99 87//82 85//98
f 85//98 87//82 86//84
f 96//100 113//90 80//91
f 96//100 80//91 97//101
f 97//101 80//91 92//89
f 97//101 92//89 98//102
f 98//102 92//89 91//87
f 98//102 91//87 99//103
f 99//103 91//87 21//15
f 99//103 21//15 57//58
f 57//58 21//15 20//17
f 57//58 1//46 99//103
f 99//103 1//46 95//99
f 99//103 95//99 98//102
f 98//102 95//99 94//97
f 98//102 94//97 97//101
f 97//101 94//97 93//94
f 97//101 93//94 79//93
f 97//101 79//93 96//100
f 96//100 79//93 78//92
f 56//45 89//85 1//46
f 1//46 89//85 95//99
f 16//50 13//8 14//10
f 10//4 13//8 16//50
f 100//104 46//38 101//105
f 101//105 46//38 48//37
f 102//106 103//107 104//108
f 104//108 103//107 46//38
f 105//109 106//110 107//111
f 105//109 107//111 108//112
f 110//113 92//89 111//114
f 111//114 92//89 113//90
f 111//114 113//90 112//115
f 115//116 114//117 116//118
f 115//116 117//119 109//120
f 109//120 117//119 112//115
f 109//120 112//115 107//111
f 107//111 112//115 113//90
f 107//111 113//90 108//112
f 115//116 116//118 117//119
f 92//89 110//113 118//88
f 104//108 119//121 114//117
f 46//38 100//104 104//108
f 104//108 100//104 120//122
f 104//108 120//122 119//121
f 114//117 115//116 104//108
f 54//123 10//124 122//125
f 122//125 10//124 121//126
f 121//126 10//124 16//127
f 16//127 123//128 121//126
f 54//123 122//125 124//129
f 128//130 127//131 129//132
f 126//133 135//134 132//135
f 132//135 135//134 136//136
f 132//135 136//136 133//137
f 133//137 136//136 137//138
f 133//137 137//138 138//139
f 133//137 138//139 139//140
f 133//137 139//140 134//141
f 134//141 139//140 140//142
f 134//141 140//142 141//143
f 134//141 141//143 125//144
f 125//144 141//143 142//145
f 135//134 128//130 143//146
f 135//134 143//146 136//136
f 141//143 140//142 144//147
f 141//143 144//147 142//145
f 143//146 128//130 145//148
f 136//136 143//146 146//149
f 136//136 146//149 137//138
f 137//138 146//149 147//150
f 137//138 147//150 138//139
f 138//139 147//150 148//151
f 138//139 148//151 149//152
f 138//139 149//152 139//140
f 139//140 149//152 150//153
f 139//140 150//153 151//154
f 139//140 151//154 140//142
f 140//142 151//154 152//155
f 140//142 152//155 153//156
f 140//142 153//156 144//147
f 144//147 154//157 142//145
f 142//145 154//157 155//158
f 128//130 130//159 145//148
f 126//133 131//160 253//161
f 126//133 253//161 127//131
f 127//131 253//161 254//162
f 127//131 254//162 129//132
f 129//132 254//162 252//163
f 143//146 145//148 156//164
f 143//146 156//164 146//149
f 144//147 153//156 157//165
f 144//147 157//165 154//157
f 126//133 127//131 135//134
f 135//134 127//131 128//130
f 128//130 129//132 130//159
f 154//157 157//165 155//158
f 160//166 158//167 161//168
f 161//168 158//167 162//169
f 161//168 163//170 160//166
f 164//171 159//172 165//173
f 159//172 164//171 162//169
f 159//172 162//169 158//167
f 164//171 166//174 162//169
f 162//169 166//174 161//168
f 161//168 166//174 167//175
f 161//168 167//175 163//170
f 103//107 102//106 249//176
f 3//55 168//177 76//72
f 46//38 103//107 47//54
f 47//54 103//107 3//55
f 169//178 73//69 76//72
f 169//178 76//72 168//177
f 168//177 3//55 103//107
f 170//179 105//180 108//181
f 180//182 171//183 172//184
f 180//182 172//184 173//185
f 175//186 174//187 170//179
f 175//186 170//179 108//181
f 176//188 177//189 178//190
f 179//191 180//182 173//185
f 177//189 174//187 178//190
f 178//190 174//187 175//186
f 178//190 175//186 181//79
f 179//191 182//192 183//193
f 179//191 183//193 180//182
f 178//190 181//79 179//191
f 179//191 181//79 184//194
f 179//191 184//194 182//192
f 185//195 176//188 186//196
f 186//196 176//188 178//190
f 174//187 177//189 187//197
f 174//187 187//197 188//198
f 109//199 189//200 115//201
f 115//201 189//200 190//202
f 191//203 192//204 193//205
f 193//205 192//204 190//202
f 194//206 115//201 195//207
f 195//207 115//201 190//202
f 195//207 190//202 196//208
f 196//208 190//202 192//204
f 107//209 197//210 109//199
f 109//199 197//210 189//200
f 103//211 202//212 168//213
f 203//214 204//215 201//216
f 201//216 204//215 205//217
f 205//217 204//215 169//218
f 202//212 205//217 168//213
f 168//213 205//217 169//218
f 200//219 206//220 201//216
f 201//216 206//220 203//214
f 104//221 115//201 194//206
f 207//222 208//223 209//224
f 212//225 213//226 214//227
f 214//227 213//226 209//224
f 214//227 209//224 215//228
f 215//228 209//224 208//223
f 216//229 217//230 218//231
f 216//229 218//231 219//232
f 220//233 221//234 222//235
f 224//236 223//237 225//238
f 224//236 225//238 226//239
f 227//240 106//241 239//242
f 241//243 228//244 229//245
f 229//245 228//244 227//240
f 227//240 228//244 106//241
f 230//246 231//247 232//248
f 232//248 231//247 233//249
f 232//248 233//249 229//245
f 229//245 233//249 234//250
f 229//245 234//250 212//225
f 212//225 234//250 235//251
f 212//225 235//251 213//226
f 236//252 102//253 209//224
f 209//224 102//253 237//254
f 209//224 237//254 207//222
f 240//255 241//243 212//225
f 212//225 241//243 229//245
f 239//242 106//241 238//256
f 230//246 232//248 219//232
f 219//232 232//248 242//257
f 222//235 221//234 243//258
f 243//258 221//234 244//259
f 243//258 244//259 245//260
f 245//260 217//230 243//258
f 243//258 217//230 216//229
f 243//258 216//229 211//261
f 211//261 216//229 223//237
f 211//261 223//237 210//262
f 210//262 223//237 224//236
f 219//232 242//257 216//229
f 236//252 246//263 102//253
f 102//253 246//263 247//264
f 102//253 247//264 249//265
f 249//265 247//264 248//266
f 220//233 222//235 250//267
f 250//267 222//235 251//268
f 250//267 251//268 248//266
f 248//266 251//268 249//265
f 241//269 190//270 189//271
f 241//269 189//271 197//272
f 241//269 197//272 228//273
f 228//273 197//272 107//111
f 228//273 107//111 106//110
f 243//274 211//275 200//276
f 200//276 211//275 171//277
f 210//278 172//279 171//277
f 210//278 171//277 211//275
f 172//279 210//278 224//280
f 172//279 224//280 173//281
f 173//281 224//280 226//282
f 173//281 226//282 179//283
f 238//284 106//285 170//286
f 170//286 106//285 105//287
f 174//288 239//289 238//290
f 174//288 238//290 170//291
f 174//292 188//293 239//294
f 239//294 188//293 227//295
f 187//296 232//297 229//298
f 187//296 229//298 188//293
f 188//293 229//298 227//295
f 176//299 216//300 242//301
f 176//299 242//301 177//302
f 177//302 242//301 232//297
f 177//302 232//297 187//296
f 186//303 223//304 185//305
f 185//305 223//304 216//300
f 185//305 216//300 176//299
f 186//303 178//306 223//304
f 223//304 178//306 225//307
f 179//308 226//309 225//310
f 179//308 225//310 178//311
f 56//45 252//163 263//312
f 56//45 263//312 88//83
f 88//83 263//312 264//313
f 255//314 86//84 264//313
f 264//313 86//84 88//83
f 86//84 255//314 83//95
f 83//95 255//314 256//315
f 83//95 256//315 84//96
f 84//96 256//315 261//316
f 84//96 261//316 81//78
f 81//78 261//316 259//317
f 184//194 181//79 259//317
f 259//317 181//79 81//78
f 204//318 73//69 169//178
f 204//318 160//166 73//69
f 78//92 175//319 108//112
f 78//92 108//112 96//100
f 96//100 108//112 113//90
f 175//319 78//92 181//79
f 131//160 199//320 257//321
f 199//320 198//322 265//323
f 198//322 183//324 258//325
f 258//325 183//324 182//326
f 258//325 182//326 259//317
f 259//317 182//326 184//194
f 260//327 198//322 258//325
f 260//327 258//325 261//316
f 261//316 258//325 259//317
f 257//321 199//320 262//328
f 257//321 262//328 263//312
f 263//312 262//328 264//313
f 180//329 183//324 198//322
f 261//316 256//315 260//327
f 260//327 256//315 265//323
f 260//327 265//323 198//322
f 256//315 255//314 265//323
f 265//323 255//314 266//330
f 265//323 266//330 199//320
f 255//314 264//313 266//330
f 266//330 264//313 262//328
f 266//330 262//328 199//320
f 131//160 257//321 253//161
f 253//161 257//321 254//162
f 254//162 257//321 263//312
f 254//162 263//312 252//163
f 160//166 203//331 158//167
f 158//167 203//331 206//332
f 158//167 206//332 159//172
f 159//172 206//332 165//173
f 165//173 206//332 200//276
f 160//166 204//318 203//331
f 243//333 200//334 222//335
f 222//335 200//334 201//336
f 102//337 104//338 194//339
f 102//337 194//339 237//340
f 237//340 194//339 195//341
f 237//340 195//341 207//342
f 207//342 195//341 196//343
f 207//342 196//343 208//344
f 208//344 196//343 192//345
f 208//344 192//345 215//346
f 215//346 192//345 191//347
f 215//346 191//347 214//348
f 214//348 191//347 193//349
f 214//348 193//349 212//350
f 212//350 193//349 190//270
f 212//350 190//270 240//351
f 240//351 190//270 241//269
f 251//352 222//353 205//354
f 205//354 222//353 201//355
f 251//352 205//354 202//356
f 103//357 249//358 202//356
f 202//356 249//358 251//352
f 166//174 164//171 273//359
f 270//360 271//361 125//144
f 272//362 273//359 164//171
f 125//144 142//145 268//363
f 125//144 268//363 270//360
f 270//360 268//363 274//364
f 270//360 274//364 271//361
f 271//361 274//364 275//365
f 271//361 275//365 272//362
f 272//362 275//365 273//359
f 273//359 275//365 276//366
f 273//359 276//366 166//174
f 279//367 281//368 280//369
f 280//369 281//368 282//370
f 282//370 281//368 283//371
f 282//370 283//371 269//372
f 142//145 155//158 268//363
f 268//363 155//158 267//373
f 268//363 267//373 277//374
f 268//363 277//374 274//364
f 274//364 277//374 278//375
f 274//364 278//375 279//367
f 274//364 279//367 275//365
f 275//365 279//367 280//369
f 275//365 280//369 282//370
f 275//365 282//370 276//366
f 276//366 282//370 269//372
f 276//366 269//372 166//174
f 166//174 269//372 167//175
f 165//173 284//376 285//377
f 165//173 285//377 286//378
f 132//135 287//379 288//380
f 134//141 289//381 290//382
f 134//141 290//382 291//383
f 287//379 132//135 133//137
f 287//379 133//137 291//383
f 291//383 133//137 134//141
f 292//384 126//133 288//380
f 288//380 126//133 132//135
f 125//144 293//385 294//386
f 295//387 126//133 292//384
f 131//160 126//133 295//387
f 296//388 164//171 286//378
f 286//378 164//171 165//173
f 289//381 134//141 125//144
f 289//381 125//144 294//386
f 297//389 271//361 272//362
f 297//389 272//362 296//388
f 296//388 272//362 164//171
f 271//361 297//389 298//390
f 125//144 271//361 293//385
f 293//385 271//361 298//390
f 73//69 160//166 74//70
f 74//70 160//166 163//170
f 74//70 163//170 7//3
f 167//175 7//3 163//170
f 39//75 155//158 37//74
f 37//74 155//158 157//165
f 37//74 157//165 38//73
f 153//156 38//73 157//165
f 151//154 33//30 152//155
f 152//155 33//30 36//32
f 152//155 36//32 153//156
f 153//156 36//32 38//73
f 150//153 33//30 151//154
f 31//27 148//151 29//25
f 29//25 148//151 147//150
f 148//151 31//27 149//152
f 149//152 31//27 32//28
f 149//152 32//28 150//153
f 150//153 32//28 33//30
f 156//164 28//24 146//149
f 146//149 28//24 29//25
f 146//149 29//25 147//150
f 28//24 156//164 145//148
f 28//24 145//148 26//22
f 26//22 145//148 130//159
f 26//22 130//159 25//21
f 25//21 130//159 129//132
f 25//21 129//132 252//163
f 25//21 252//163 56//45
f 7//3 167//175 5//1
f 5//1 167//175 269//372
f 5//1 269//372 283//371
f 5//1 283//371 43//33
f 43//33 283//371 281//368
f 43//33 281//368 42//34
f 42//34 281//368 279//367
f 42//34 279//367 278//375
f 42//34 278//375 40//77
f 40//77 278//375 277//374
f 40//77 277//374 41//76
f 41//76 277//374 267//373
f 41//76 267//373 39//75
f 39//75 267//373 155//158
f 299//391 300//392 180//329
f 180//329 300//392 171//277
f 300//392 301//393 171//277
f 171//277 301//393 302//394
f 171//277 302//394 200//276
f 302//394 303//395 200//276
f 200//276 303//395 304//396
f 200//276 304//396 305//397
f 200//276 305//397 306//398
f 200//276 306//398 165//173
f 165//173 306//398 284//376
f 180//329 307//399 299//391
f 295//387 308//400 199//320
f 309//401 310//402 199//320
f 180//329 198//322 307//399
f 307//399 198//322 310//402
f 310//402 198//322 199//320
f 199//320 131//160 295//387
f 309//401 199//320 308//400
f 124//403 311//404 312//405
f 122//406 121//407 313//408
f 313//408 121//407 123//409
f 124//403 312//405 314//410
f 124//403 314//410 315//411
f 316//412 317//413 318//414
f 311//404 124//403 313//408
f 313//408 124//403 122//406
f 318//414 319//415 316//412
f 316//412 319//415 320//416
f 316//412 320//416 321//417
f 315//411 322//418 124//403
f 124//403 322//418 316//412
f 124//403 316//412 323//419
f 323//419 316//412 321//417
f 123//409 324//420 313//408
f 313//408 324//420 325//421
f 313//408 325//421 326//422
f 327//423 328//424 329//425
f 329//425 330//426 327//423
f 327//423 330//426 331//427
f 327//423 331//427 313//408
f 326//422 332//428 313//408
f 313//408 332//428 333//429
f 313//408 333//429 327//423
f 21//430 90//431 328//432
f 328//432 90//431 329//433
f 21//430 328//432 327//434
f 333//435 22//436 327//434
f 327//434 22//436 21//430
f 332//437 19//438 22//436
f 332//437 22//436 333//435
f 326//439 17//440 332//437
f 332//437 17//440 19//438
f 17//440 326//439 18//441
f 18//441 326//439 325//442
f 324//443 8//444 325//442
f 325//442 8//444 18//441
f 8//444 324//443 123//128
f 8//444 123//128 16//127
f 313//445 331//446 110//447
f 112//448 311//449 111//450
f 111//450 311//449 313//445
f 111//450 313//445 110//447
f 90//431 118//451 329//433
f 329//433 118//451 330//452
f 330//452 118//451 331//446
f 331//446 118//451 110//447
f 312//453 311//449 117//454
f 117//454 311//449 112//448
f 48//455 45//456 320//457
f 54//123 124//129 52//458
f 52//458 124//129 323//459
f 52//458 323//459 51//42
f 321//460 50//41 323//459
f 323//459 50//41 51//42
f 320//457 45//456 321//460
f 321//460 45//456 50//41
f 48//455 320//457 319//461
f 48//455 319//461 318//462
f 48//455 318//462 101//463
f 317//464 100//465 318//462
f 318//462 100//465 101//463
f 316//466 120//467 100//465
f 316//466 100//465 317//464
f 120//467 316//466 322//468
f 120//467 322//468 119//469
f 315//470 114//471 119//469
f 315//470 119//469 322//468
f 114//471 315//470 314//472
f 114//471 314//472 116//473
f 312//453 117//454 116//473
f 312//453 116//473 314//472
f 334//474 220//475 335//476
f 335//476 220//475 250//477
f 335//476 250//477 336//478
f 336//478 250//477 248//479
f 336//478 248//479 337//480
f 337//480 248//479 247//481
f 337//480 247//481 338//482
f 338//482 247//481 246//483
f 338//482 246//483 339//484
f 339//484 246//483 236//485
f 339//484 236//485 340//486
f 340//486 236//485 209//487
f 340//486 209//487 341//488
f 341//488 209//487 213//489
f 341//488 213//489 342//490
f 342//490 213//489 235//491
f 342//490 235//491 343//492
f 343//492 235//491 234//493
f 343//492 234//493 344//494
f 344//494 234//493 233//495
f 344//494 233//495 345//496
f 345//496 233//495 231//497
f 345//496 231//497 346//498
f 346//498 231//497 230//499
f 346//498 230//499 347//500
f 347//500 230//499 219//501
f 347//500 219//501 348//502
f 348//502 219//501 218//503
f 348//502 218//503 349//504
f 349//504 218//503 217//505
f 349//504 217//505 350//506
f 350//506 217//505 245//507
f 350//506 245//507 351//508
f 351//508 245//507 244//509
f 351//508 244//509 352//510
f 352//510 244//509 221//511
f 352//510 221//511 334//474
f 334//474 221//511 220//475
f 334//512 335//513 347//514
f 350//515 351//516 347//514
f 347//514 351//516 352//517
f 347//514 352//517 334//512
f 347//514 348//518 349//518
f 347//514 349//518 350//515
f 344//519 345//520 347//514
f 347//514 345//520 346//518
f 341//521 342//522 347//514
f 347//514 342//522 343//523
f 347//514 343//523 344//519
f 338//524 339//525 347//514
f 347//514 339//525 340//526
f 347//514 340//526 341//521
f 335//513 336//527 347//514
f 347//514 336//527 337//528
f 347//514 337//528 338//524
f 353//529 354//530 355//531
f 355//531 354//530 356//532
f 355//531 356//532 357//533
f 357//533 356//532 358//534
f 357//533 358//534 359//535
f 360//536 361//537 362//538
f 362//538 361//537 363//539
f 362//538 363//539 364//540
f 358//534 365//541 359//535
f 359//535 365//541 366//542
f 359//535 366//542 367//543
f 367//543 366//542 368//544
f 367//543 368//544 360//536
f 360//536 368//544 369//545
f 360//536 369//545 361//537
f 363//539 370//546 364//540
f 364//540 370//546 371//547
f 364//540 371//547 372//548
f 372//548 371//547 373//549
f 372//548 373//549 374//550
f 374//550 373//549 375//551
f 374//550 375//551 376//552
f 377//553 378//554 379//555
f 379//555 378//554 380//556
f 379//555 380//556 381//557
f 381//557 380//556 382//558
f 381//557 382//558 383//559
f 384//560 385//561 386//562
f 386//562 385//561 387//563
f 386//562 387//563 353//529
f 353//529 387//563 388//564
f 353//529 388//564 354//530
f 382//558 389//565 383//559
f 383//559 389//565 390//566
f 383//559 390//566 391//567
f 391//567 390//566 392//568
f 391//567 392//568 384//560
f 384//560 392//568 393//569
f 384//560 393//569 385//561
f 375//551 394//570 376//552
f 376//552 394//570 395//571
f 376//552 395//571 396//572
f 396//572 395//571 397//573
f 396//572 397//573 377//553
f 377//553 397//573 398//574
f 377//553 398//574 378//554
f 358//575 295//576 292//577
f 358//575 292//577 365//578
f 365//578 292//577 288//579
f 365//578 288//579 366//580
f 366//580 288//579 287//581
f 366//580 287//581 368//582
f 368//582 287//581 291//583
f 368//582 291//583 369//584
f 369//584 291//583 290//585
f 369//584 290//585 361//586
f 361//586 290//585 289//587
f 361//586 289//587 363//588
f 363//588 289//587 294//589
f 363//588 294//589 370//590
f 370//590 294//589 293//591
f 370//590 293//591 371//592
f 371//592 293//591 298//593
f 371//592 298//593 373//594
f 373//594 298//593 297//595
f 373//594 297//595 375//596
f 375//596 297//595 296//597
f 375//596 296//597 394//598
f 394//598 296//597 286//599
f 394//598 286//599 395//600
f 395//600 286//599 285//601
f 395//600 285//601 397//602
f 397//602 285//601 284//603
f 397//602 284//603 398//604
f 398//604 284//603 306//605
f 398//604 306//605 378//606
f 378//606 306//605 305//607
f 378//606 305//607 380//608
f 380//608 305//607 304//609
f 380//608 304//609 382//610
f 382//610 304//609 303//611
f 382//610 303//611 389//612
f 389//612 303//611 302//613
f 389//612 302//613 390//614
f 390//614 302//613 301//615
f 390//614 301//615 392//616
f 392//616 301//615 300//617
f 392//616 300//617 393//618
f 393//618 300//617 299//619
f 393//618 299//619 385//620
f 385//620 299//619 307//621
f 385//620 307//621 387//622
f 387//622 307//621 310//623
f 387//622 310//623 388//624
f 388//624 310//623 309//625
f 388//624 309//625 354//626
f 354//626 309//625 308//627
f 354//626 308//627 356//628
f 356//628 308//627 295//576
f 356//628 295//576 358//575
f 399//629 400//630 355//631
f 355//631 400//630 353//632
f 353//632 400//630 401//633
f 353//632 401//633 386//634
f 386//634 401//633 402//635
f 386//634 402//635 384//636
f 384//636 402//635 403//637
f 384//636 403//637 391//638
f 391//638 403//637 404//639
f 391//638 404//639 383//640
f 383//640 404//639 405//641
f 383//640 405//641 381//642
f 381//642 405//641 406//643
f 381//642 406//643 379//644
f 379//644 406//643 407//645
f 379//644 407//645 377//646
f 377//646 407//645 408//647
f 377//646 408//647 409//648
f 377//646 409//648 396//649
f 355//631 357//650 399//629
f 399//629 357//650 410//651
f 399//629 410//651 400//652
f 400//652 410//651 411//653
f 400//652 411//653 401//654
f 401//654 411//653 412//655
f 401//654 412//655 402//656
f 402//656 412//655 413//657
f 402//656 413//657 403//658
f 403//658 413//657 414//659
f 403//658 414//659 404//660
f 404//660 414//659 415//661
f 404//660 415//661 405//662
f 405//662 415//661 416//663
f 405//662 416//663 406//664
f 406//664 416//663 417//665
f 406//664 417//665 407//666
f 407//666 417//665 418//667
f 407//666 418//667 408//668
f 408//668 418//667 419//669
f 408//668 419//669 409//648
f 409//648 419//669 420//670
f 409//648 420//670 396//649
f 396//649 420//670 376//671
f 376//671 420//670 421//672
f 376//671 421//672 374//673
f 374//673 421//672 422//674
f 374//673 422//674 372//675
f 372//675 422//674 423//676
f 372//675 423//676 364//677
f 364//677 423//676 424//678
f 364//677 424//678 362//679
f 362//679 424//678 425//680
f 362//679 425//680 360//681
f 360//681 425//680 426//682
f 360//681 426//682 367//683
f 367//683 426//682 427//684
f 367//683 427//684 359//685
f 359//685 427//684 428//686
f 359//685 428//686 357//650
f 357//650 428//686 410//651
f 423//687 422//688 420//689
f 420//689 422//688 421//690
f 426//691 425//692 420//689
f 420//689 425//692 424//693
f 420//689 424//693 423//687
f 410//694 428//695 420//689
f 420//689 428//695 427//696
f 420//689 427//696 426//691
f 413//697 412//698 420//689
f 420//689 412//698 411//699
f 420//689 411//699 410//694
f 416//700 415//701 420//689
f 420//689 415//701 414//702
f 420//689 414//702 413//697
f 419//703 418//704 420//689
f 420//689 418//704 417//705
f 420//689 417//705 416//700
f 406//706 407//706 408//706
f 401//707 400//708 406//709
f 400//708 408//710 406//709
f 400//711 399//712 408//713
f 399//712 409//714 408//713
f 404//715 403//716 405//717
f 403//716 406//709 405//717
f 403//716 402//718 406//709
f 402//718 401//707 406//709
f 408//719 406//720 405//721
f 408//719 405//721 404//722
f 401//723 400//724 402//725
f 402//725 400//724 408//719
f 402//725 408//719 403//726
f 403//726 408//719 404//722
f 432//727 433//728 436//729
f 439//730 440//731 554//732
f 457//733 456//734 458//735
f 622//736 429//737 463//738
f 622//736 463//738 442//739
f 442//739 463//738 444//740
f 444//740 463//738 464//741
f 444//740 464//741 443//742
f 443//742 464//741 465//743
f 443//742 465//743 445//744
f 445//744 465//743 446//745
f 446//745 465//743 447//746
f 447//746 466//747 448//748
f 448//748 466//747 449//749
f 449//749 466//747 467//750
f 449//749 467//750 450//751
f 450//751 467//750 468//752
f 450//751 468//752 451//753
f 451//753 468//752 469//754
f 451//753 469//754 452//755
f 452//755 469//754 470//756
f 452//755 470//756 454//757
f 454//757 470//756 471//758
f 454//757 471//758 453//759
f 453//759 471//758 455//760
f 455//760 471//758 458//735
f 455//760 458//735 456//734
f 429//737 430//761 472//762
f 429//737 472//762 463//738
f 463//738 472//762 473//763
f 463//738 473//763 464//741
f 464//741 473//763 474//764
f 464//741 474//764 465//743
f 465//743 474//764 475//765
f 465//743 475//765 447//746
f 447//746 475//765 466//747
f 466//747 475//765 476//766
f 466//747 476//766 477//767
f 466//747 477//767 467//750
f 467//750 477//767 468//752
f 468//752 478//768 469//754
f 469//754 478//768 470//756
f 470//756 479//769 471//758
f 471//758 479//769 458//735
f 458//735 459//770 457//733
f 430//761 441//771 480//772
f 430//761 480//772 472//762
f 472//762 480//772 481//773
f 472//762 481//773 473//763
f 473//763 481//773 482//774
f 473//763 482//774 474//764
f 474//764 482//774 483//775
f 474//764 483//775 475//765
f 475//765 483//775 476//766
f 476//766 484//776 477//767
f 477//767 484//776 485//777
f 477//767 485//777 468//752
f 468//752 485//777 478//768
f 478//768 485//777 486//778
f 478//768 486//778 487//779
f 478//768 487//779 470//756
f 470//756 487//779 479//769
f 479//769 487//779 488//780
f 479//769 488//780 458//735
f 458//735 488//780 459//770
f 431//781 489//782 441//771
f 441//771 489//782 480//772
f 480//772 489//782 490//783
f 480//772 490//783 481//773
f 481//773 490//783 491//784
f 481//773 491//784 482//774
f 482//774 491//784 492//785
f 482//774 492//785 483//775
f 483//775 492//785 493//786
f 483//775 493//786 476//766
f 476//766 493//786 484//776
f 484//776 493//786 494//787
f 484//776 494//787 485//777
f 485//777 494//787 486//778
f 486//778 495//788 487//779
f 487//779 495//788 461//789
f 487//779 461//789 488//780
f 488//780 461//789 460//790
f 488//780 460//790 459//770
f 440//731 439//730 431//781
f 431//781 439//730 489//782
f 489//782 439//730 438//791
f 489//782 438//791 490//783
f 490//783 438//791 437//792
f 490//783 437//792 491//784
f 491//784 437//792 492//785
f 492//785 437//792 436//729
f 492//785 436//729 493//786
f 493//786 436//729 494//787
f 494//787 436//729 433//728
f 494//787 433//728 486//778
f 486//778 433//728 432//727
f 486//778 432//727 495//788
f 495//788 432//727 461//789
f 461//789 432//727 462//793
f 461//789 462//793 434//794
f 461//789 434//794 460//790
f 496//795 497//796 498//797
f 498//797 499//798 500//799
f 501//800 502//801 503//802
f 504//803 496//795 498//797
f 504//803 498//797 505//804
f 505//804 498//797 506//805
f 507//806 508//807 509//808
f 509//808 508//807 510//809
f 509//808 510//809 511//810
f 500//799 512//811 498//797
f 498//797 512//811 513//812
f 498//797 513//812 506//805
f 511//810 514//813 509//808
f 509//808 514//813 502//801
f 502//801 514//813 503//802
f 515//814 516//815 517//816
f 517//816 516//815 518//817
f 515//814 519//818 516//815
f 516//815 519//818 520//819
f 516//815 520//819 521//820
f 518//817 516//815 503//802
f 503//802 516//815 522//821
f 503//802 522//821 523//822
f 524//823 525//824 509//808
f 509//808 525//824 526//825
f 509//808 526//825 507//806
f 503//802 523//822 501//800
f 499//798 498//797 521//820
f 521//820 498//797 516//815
f 622//736 442//739 503//826
f 503//826 442//739 518//827
f 444//740 517//828 518//827
f 444//740 518//827 442//739
f 517//828 444//740 443//742
f 517//828 443//742 515//829
f 515//829 443//742 445//744
f 515//829 445//744 519//830
f 447//746 520//831 446//745
f 446//745 520//831 519//830
f 446//745 519//830 445//744
f 520//831 447//746 448//748
f 520//831 448//748 521//832
f 521//832 448//748 449//749
f 521//832 449//749 499//833
f 499//833 449//749 500//834
f 451//753 512//835 450//751
f 450//751 512//835 500//834
f 450//751 500//834 449//749
f 512//835 451//753 452//755
f 512//835 452//755 513//836
f 454//757 506//837 452//755
f 452//755 506//837 513//836
f 506//837 454//757 453//759
f 506//837 453//759 505//838
f 505//838 453//759 455//760
f 505//838 455//760 504//839
f 456//734 496//840 455//760
f 455//760 496//840 504//839
f 530//841 531//842 532//843
f 532//843 531//842 533//844
f 537//845 536//846 538//847
f 537//845 538//847 539//848
f 537//845 539//848 603//849
f 603//849 539//848 540//850
f 549//851 548//852 550//853
f 554//732 440//731 552//854
f 534//855 614//856 629//857
f 629//857 527//858 562//859
f 629//857 562//859 534//855
f 534//855 562//859 533//844
f 533//844 562//859 532//843
f 532//843 563//860 530//841
f 530//841 563//860 535//861
f 535//861 563//860 564//862
f 535//861 564//862 536//846
f 536//846 564//862 538//847
f 539//848 565//863 540//850
f 540//850 565//863 541//864
f 541//864 565//863 542//865
f 542//865 566//866 543//867
f 543//867 566//866 544//868
f 544//868 566//866 567//869
f 544//868 567//869 568//870
f 544//868 568//870 546//871
f 546//871 568//870 545//872
f 545//872 568//870 550//853
f 545//872 550//853 547//873
f 547//873 550//853 548//852
f 527//858 528//874 569//875
f 527//858 569//875 562//859
f 562//859 569//875 570//876
f 562//859 570//876 532//843
f 532//843 570//876 563//860
f 563//860 570//876 564//862
f 564//862 571//877 538//847
f 538//847 571//877 572//878
f 538//847 572//878 539//848
f 539//848 572//878 565//863
f 565//863 572//878 573//879
f 565//863 573//879 542//865
f 542//865 573//879 574//880
f 542//865 574//880 566//866
f 566//866 574//880 567//869
f 567//869 575//881 568//870
f 568//870 575//881 576//882
f 568//870 576//882 550//853
f 550//853 576//882 551//883
f 550//853 551//883 549//851
f 528//874 561//884 577//885
f 528//874 577//885 569//875
f 569//875 577//885 578//886
f 569//875 578//886 570//876
f 570//876 578//886 579//887
f 570//876 579//887 564//862
f 564//862 579//887 571//877
f 571//877 580//888 572//878
f 572//878 580//888 581//889
f 572//878 581//889 573//879
f 573//879 581//889 582//890
f 573//879 582//890 574//880
f 574//880 582//890 583//891
f 574//880 583//891 584//892
f 574//880 584//892 567//869
f 567//869 584//892 575//881
f 575//881 584//892 585//893
f 575//881 585//893 576//882
f 576//882 585//893 553//894
f 576//882 553//894 551//883
f 529//895 586//896 561//884
f 561//884 586//896 577//885
f 577//885 586//896 587//897
f 577//885 587//897 578//886
f 578//886 587//897 588//898
f 578//886 588//898 579//887
f 579//887 588//898 589//899
f 579//887 589//899 571//877
f 571//877 589//899 580//888
f 580//888 589//899 581//889
f 581//889 590//900 582//890
f 582//890 590//900 583//891
f 583//891 591//901 584//892
f 584//892 591//901 592//902
f 584//892 592//902 585//893
f 585//893 592//902 553//894
f 553//894 552//854 551//883
f 435//903 560//904 529//895
f 529//895 560//904 586//896
f 586//896 560//904 587//897
f 587//897 560//904 559//905
f 587//897 559//905 588//898
f 588//898 559//905 558//906
f 588//898 558//906 589//899
f 589//899 558//906 581//889
f 581//889 558//906 557//907
f 581//889 557//907 590//900
f 590//900 557//907 583//891
f 583//891 557//907 555//908
f 583//891 555//908 591//901
f 591//901 555//908 592//902
f 592//902 555//908 556//909
f 592//902 556//909 553//894
f 553//894 556//909 554//732
f 553//894 554//732 552//854
f 439//730 555//908 438//791
f 438//791 559//905 560//904
f 554//732 556//909 439//730
f 439//730 556//909 555//908
f 560//904 437//792 438//791
f 560//904 436//729 437//792
f 438//791 558//906 559//905
f 555//908 557//907 438//791
f 438//791 557//907 558//906
f 434//794 462//793 435//903
f 462//793 560//904 435//903
f 560//904 432//727 436//729
f 560//904 462//793 432//727
f 524//823 509//808 593//910
f 524//823 593//910 594//911
f 498//912 497//913 595//914
f 498//912 595//914 596//915
f 599//916 600//917 598//918
f 598//918 600//917 597//919
f 601//920 602//921 599//916
f 599//916 602//921 600//917
f 601//920 603//922 602//921
f 605//923 604//924 606//925
f 606//925 604//924 607//926
f 604//924 605//923 608//927
f 608//927 605//923 609//928
f 608//927 609//928 596//915
f 608//927 596//915 595//914
f 598//918 597//919 593//929
f 593//929 597//919 594//930
f 502//931 598//932 593//933
f 601//934 599//935 502//931
f 502//931 599//935 598//932
f 502//931 593//933 509//936
f 601//934 502//931 501//937
f 601//934 501//937 610//938
f 610//938 501//937 523//939
f 610//938 523//939 611//940
f 611//940 523//939 522//941
f 611//940 522//941 612//942
f 612//942 522//941 516//943
f 612//942 516//943 613//944
f 618//945 619//946 620//947
f 623//948 552//854 440//731
f 549//851 551//883 619//946
f 619//946 551//883 552//854
f 619//946 552//854 623//948
f 624//949 623//948 431//781
f 624//949 431//781 441//771
f 624//949 441//771 621//950
f 621//950 441//771 430//761
f 621//950 430//761 429//737
f 623//948 440//731 431//781
f 618//945 548//852 549//851
f 618//945 549//851 619//946
f 619//946 623//948 620//947
f 620//947 623//948 624//949
f 620//947 624//949 621//950
f 622//736 621//950 429//737
f 625//951 626//952 627//953
f 630//954 460//790 434//794
f 457//733 459//770 626//952
f 626//952 459//770 460//790
f 626//952 460//790 630//954
f 631//955 630//954 529//895
f 631//955 529//895 561//884
f 631//955 561//884 628//956
f 628//956 561//884 528//874
f 628//956 528//874 527//858
f 630//954 434//794 529//895
f 529//895 434//794 435//903
f 625//951 456//734 457//733
f 625//951 457//733 626//952
f 626//952 630//954 627//953
f 627//953 630//954 631//955
f 627//953 631//955 628//956
f 629//857 628//956 527//858
f 606//925 607//926 613//957
f 613//957 607//926 614//958
f 613//957 614//958 612//959
f 612//959 614//958 615//960
f 612//959 615//960 611//961
f 611//961 615//960 531//962
f 611//961 531//962 616//963
f 611//961 616//963 610//964
f 610//964 616//963 617//965
f 610//964 617//965 537//966
f 610//964 537//966 601//920
f 601//920 537//966 603//922
f 540//850 597//967 600//968
f 540//850 600//968 602//969
f 540//850 602//969 603//849
f 524//970 594//971 597//967
f 524//970 597//967 540//850
f 524//970 540//850 541//864
f 524//970 541//864 525//972
f 525//972 541//864 542//865
f 525//972 542//865 543//867
f 525//972 543//867 526//973
f 526//973 543//867 544//868
f 526//973 544//868 507//974
f 507//974 544//868 508//975
f 508//975 544//868 546//871
f 548//852 514//976 547//873
f 547//873 514//976 511//977
f 547//873 511//977 510//978
f 547//873 510//978 545//872
f 545//872 510//978 508//975
f 545//872 508//975 546//871
f 615//979 614//856 534//855
f 615//979 534//855 533//844
f 615//979 533//844 531//842
f 531//842 530//841 616//980
f 616//980 530//841 617//981
f 617//981 530//841 535//861
f 617//981 535//861 536//846
f 617//981 536//846 537//845
f 629//857 614//856 607//982
f 625//951 627//953 607//982
f 625//951 607//982 604//983
f 625//951 608//984 456//734
f 456//734 608//984 496//840
f 608//984 625//951 604//983
f 608//984 595//985 496//840
f 496//840 595//985 497//986
f 627//953 628//956 607//982
f 607//982 628//956 629//857
f 503//826 514//976 618//945
f 618//945 620//947 503//826
f 548//852 618//945 514//976
f 620//947 621//950 503//826
f 503//826 621//950 622//736
f 606//987 613//944 516//943
f 498//988 596//989 516//943
f 596//989 609//990 516//943
f 516//943 609//990 605//991
f 516//943 605//991 606//987
