# G1 exterior visual; derived from pinned Unitree/TWIST2 CAD.
v -0.0046247635 0.00298532448 0.0095050782
v -0.00493656378 0.00245040492 0.0127966022
v -0.00350177009 0.00422454439 0.00951890741
v -0.00370976608 0.00406972878 0.0127152195
v -0.00217147288 0.00504263723 0.0127491485
v 0.00299482793 0.0045963889 0.0127977375
v -0.00222464418 0.00502341101 0.00950914808
v -0.000504767755 0.00549093727 0.00970451906
v -0.00030584514 0.00550600514 0.0126968995
v 0.00147564604 0.0052911588 0.0127733238
v 0.00164765492 0.00526520051 0.00951764081
v 0.0038719275 0.00394442212 0.00951378979
v 0.00411355263 0.00366133335 0.0126815476
v -0.00547426566 0.000768431288 0.00954558793
v -0.00548171764 0.000421126664 0.0127984658
v 0.00506843301 0.00208948134 0.00950337294
v -0.00649562664 0.00258531072 -0.0128890015
v -0.005439186 0.00438681338 -0.0128937773
v -0.00638228562 0.00288044801 -0.00951256696
v -0.00539431348 0.00442517176 -0.00951893162
v -0.00445455732 0.00537749473 -0.0128822625
v -0.00301164598 0.00632848684 -0.0128864869
v -0.00402168697 0.00574212708 -0.00950922724
v -0.00194200536 0.00673577935 -0.00961759966
v -0.00102375518 0.00691097323 -0.0128859179
v 0.000499824295 0.0070070494 -0.0095001962
v 0.00695833657 0.000818704604 -0.0128961643
v 0.00430191401 0.00550586777 -0.0128933312
v 0.00257461634 0.00649687648 -0.0128881093
v 0.000592783443 0.00699686306 -0.0128547996
v 0.00535258045 0.0044811843 -0.0128792645
v 0.00493364688 0.00497769006 -0.00952098705
v 0.00297404174 0.00635115849 -0.00951159187
v 0.00632869685 0.00302608334 -0.0128838224
v 0.00635252707 0.00296412944 -0.00951566361
v 0.00509688631 -0.00409071473 -0.0128999986
v 0.00549408421 -0.00517240306 -0.00951239467
v 0.00595507864 -0.00442217244 -0.012882459
v 0.00698748464 -0.00421627657 -0.0128786061
v 0.0059546954 -0.00440266589 -0.00950141996
v 0.0069841044 -0.00421328889 -0.00951281656
v 0.0069662421 0.000786106684 -0.00951657351
v 0.00547973905 0.000541735499 0.0095712021
v 0.00888517778 -0.0193928052 0.0127164824
v 0.0112748807 -0.0198396426 0.000829387573
v 0.011279746 -0.0198195856 0.0031743811
v 0.00985557958 -0.019820476 0.00463385228
v 0.0112853292 -0.0198364947 0.00590080675
v 0.0103488099 -0.0197940972 0.00743127055
v 0.0117395474 -0.019933559 0.0085994266
v 0.00891759247 -0.019994393 0.00943491329
v 0.00850415975 -0.0190308932 0.0127967093
v 0.0125777842 -0.0200201347 0.0019441332
v 0.0135910064 -0.0206248723 0.00165994873
v 0.012608367 -0.0200321674 0.00383065804
v 0.0125624854 -0.0199994799 0.00600006664
v 0.0135833845 -0.0206145588 0.00422599865
v 0.0125300111 -0.0199687183 0.00760052959
v 0.0135956937 -0.0206163377 0.00721965637
v 0.0135220345 -0.0206392538 0.00860338379
v 0.0145682441 -0.0227651708 0.00140145107
v 0.0143222092 -0.0216852315 0.00147586537
v 0.0145944851 -0.0227894839 0.0061328006
v 0.0145664969 -0.0227489807 0.00457419781
v 0.014583162 -0.0227938835 0.00757388026
v 0.0143244416 -0.0216569621 0.00487516541
v 0.0143421879 -0.0216778293 0.00728678936
v 0.005343155 -0.0193662923 0.00950182229
v 0.00578599237 -0.0189800579 0.00956898276
v 0.00549876364 -0.0184371062 0.0096139675
v 0.0050228769 0.00220891531 0.0127969766
v 0.00550057692 -0.0183587819 0.0125535745
v 0.00862277858 -0.0190331824 0.00956319459
v 0.00548499124 0.00046452228 0.0127295908
v 0.0054955408 -0.0052048834 -0.012826913
v 0.00865990762 -0.0192206427 -0.00955295842
v 0.0088736536 -0.0199925955 -0.00987328589
v 0.00996804982 -0.0198067613 -0.00900478195
v 0.0116106337 -0.0198572949 -0.00974217337
v 0.0122352298 -0.0209280904 -0.0104730325
v 0.00980527978 -0.0198241528 -0.0055161654
v 0.0112324571 -0.0198411234 -0.00591541221
v 0.0100125168 -0.0198118743 -0.00223762193
v 0.0113123162 -0.0198292471 -0.0036743572
v 0.00907690916 -0.0199735984 0.00865528826
v 0.00988912303 -0.0198350064 0.00125721621
v 0.0111755375 -0.0198337119 -0.000861633569
v 0.0126120066 -0.020028118 -0.0081788348
v 0.0135088963 -0.0206432864 -0.00977622997
v 0.0135778002 -0.0206208341 -0.00846062228
v 0.0126132555 -0.0200373717 -0.00597743411
v 0.0135815479 -0.0206256639 -0.00574448286
v 0.0126274927 -0.0200336613 -0.00382324099
v 0.0136049576 -0.0206424724 -0.00325916032
v 0.012617968 -0.0200301073 -0.00190804817
v 0.0125936568 -0.0200241283 0.000170496525
v 0.0136223296 -0.0206577554 -0.00035510381
v 0.0145877767 -0.02279374 -0.00902319513
v 0.0145922406 -0.0228077918 -0.00714961067
v 0.014587028 -0.0228067115 -0.00570915919
v 0.0145530403 -0.0227827355 -0.00456812279
v 0.0146166151 -0.022825893 -0.00290043233
v 0.0145936655 -0.022794228 -0.000525290903
v 0.0143383546 -0.0216512252 -0.00862211362
v 0.0142862834 -0.0216068495 -0.00667315442
v 0.0143223321 -0.021653451 -0.00494915154
v 0.0143263834 -0.0216495767 -0.00292154122
v 0.0143108927 -0.0216221698 -0.000620017003
v 0.00549962372 -0.0172262192 -0.0128813153
v 0.00643203314 -0.0185803734 -0.012867
v 0.00547448359 -0.0168443304 -0.009506898
v 0.00888086762 -0.0199965164 -0.00940547232
v 0.00730550662 -0.0190215819 -0.00953504071
v 0.00612701382 -0.0183514152 -0.00951099768
v -0.00548903085 -0.0132136038 0.00950086396
v -0.0054995208 -0.0131713739 0.0125572104
v -0.00544488663 -0.0134696737 0.0127979517
v -0.00511424756 -0.0199904889 0.00948313065
v -0.0125713572 -0.0200026054 0.00943259336
v -0.0124308961 -0.0190271866 0.00956079923
v -0.00700210547 -0.0189841464 0.00951949414
v -0.00705399597 -0.0199832972 0.00939191598
v -0.00679309247 -0.0191015601 0.0127913579
v -0.00752919493 -0.0189973116 0.012564227
v -0.00700419722 -0.0186474882 0.0126441801
v -0.00698972773 -0.0135848727 0.0127404518
v -0.00697827712 -0.013580665 -0.00950261764
v -0.00698769698 0.000617239624 -0.00950666424
v -0.00676856842 -0.0135037974 -0.00892704818
v -0.00550347287 -0.0135525502 -0.00924969278
v -0.00550313946 -0.0135205416 0.00926772412
v -0.00698592048 0.000664768391 -0.0128783192
v -0.00699040294 -0.0170732047 -0.0128988791
v -0.00549248932 -0.019745741 -0.00925949402
v -0.00509755267 -0.0199979488 -0.00949082617
v -0.00548917381 -0.0197669975 0.00926131662
v -0.00510826986 -0.0132984258 -0.00949973613
v -0.00703808898 -0.019957412 -0.00943181384
v -0.0120221926 -0.0191066246 -0.0127193239
v -0.0124101741 -0.0191599466 -0.00957403425
v -0.00888564903 -0.0190880746 -0.0128726456
v -0.00875536446 -0.019049352 -0.00955395121
v -0.00750703225 -0.0181569625 -0.0128856888
v -0.00763122784 -0.0182717126 -0.00954252295
v -0.00700506009 -0.0171304252 -0.00951086823
v 0.0145685449 -0.0313160978 0.000726603554
v 0.0145950997 -0.0275777597 0.000523998984
v 0.0145531846 -0.0250009187 0.000110046509
v 0.00907223858 -0.0208892077 0.00930928625
v 0.0134529369 -0.0220229607 0.00928071234
v 0.0145849874 -0.0311766397 0.00226308918
v 0.0145732882 -0.0300945062 0.00508878287
v 0.0146155199 -0.030674722 0.00772417383
v 0.0145797133 -0.0305486508 0.00657976931
v 0.0145727862 -0.0299942195 0.00150741613
v 0.0146002108 -0.028873384 0.00268362835
v 0.0145687414 -0.0288257822 0.000779228634
v 0.0145571381 -0.0276937429 0.00191471667
v 0.0145671908 -0.0298259165 0.00351167284
v 0.0145718595 -0.0287487675 0.00531766983
v 0.0145726828 -0.0279253554 0.0041432241
v 0.0145673128 -0.0289204083 0.00687382789
v 0.0146146668 -0.0282344073 0.00773639465
v 0.0144911092 -0.0261916351 0.00850590412
v 0.0145628136 -0.0268623922 0.00332180294
v 0.0145664504 -0.0265194289 0.00146172219
v 0.0145820519 -0.0252408516 0.00220238278
v 0.0145834135 -0.024661636 0.00107115158
v 0.0145640168 -0.0274433326 0.00552338175
v 0.0145874759 -0.0264164656 0.00512544159
v 0.0145831406 -0.0250313766 0.00383388111
v 0.0145594608 -0.0274840165 0.0067122113
v 0.0145689519 -0.0264487863 0.00652059726
v 0.0146239316 -0.026536312 0.00769618759
v 0.0145874461 -0.02520019 0.00718463492
v 0.0144435959 -0.0224747434 0.008634937
v 0.0145921689 -0.0240859017 0.0021479365
v 0.0145505928 -0.0249334592 0.00569363357
v 0.014605578 -0.0231707022 0.00326014194
v 0.014599368 -0.0240288284 0.00508382404
v 0.0145773655 -0.0241579916 0.00714050326
v 0.0145944627 -0.0375182256 0.000520151749
v 0.0145934829 -0.0330278985 -7.25160426e-05
v 0.00243933918 -0.0376499034 0.0127987387
v 0.00360793038 -0.0380468965 0.0127367908
v 0.00361542311 -0.0380661786 0.0097120069
v 0.00859152898 -0.0371515639 0.0127933901
v 0.00890055299 -0.0367748365 0.0096866712
v 0.00889216922 -0.0367649719 0.0127129443
v 0.0145734875 -0.0377995968 0.00365376472
v 0.0145862093 -0.0363407843 0.00226361514
v 0.0145685552 -0.0362874381 0.000780532486
v 0.0145592764 -0.0351369567 0.00194049499
v 0.0145652043 -0.0375229046 0.00602094922
v 0.0145705985 -0.0364306271 0.00432868861
v 0.0145973647 -0.035498973 0.0055049588
v 0.0145840337 -0.0374952368 0.00764497975
v 0.0145885292 -0.0361897051 0.0072383536
v 0.0145480223 -0.0348945111 0.000881765678
v 0.0145686083 -0.0344337188 0.00326433592
v 0.0145911733 -0.0336956941 0.00151407521
v 0.0145727359 -0.0355283096 0.00384664559
v 0.0145903602 -0.0338283256 0.00505273417
v 0.0145728979 -0.0327984765 0.00327512948
v 0.0145658385 -0.0349904373 0.00647217082
v 0.0144774048 -0.0355469957 0.00853402261
v 0.0146150691 -0.0344383083 0.00772050722
v 0.0145853357 -0.0338140987 0.00680722995
v 0.0144773843 -0.0306121763 0.0085341176
v 0.0145971365 -0.032533858 0.00158008747
v 0.0145903863 -0.0314420834 0.00374054047
v 0.0145693542 -0.0327539407 0.00456137443
v 0.014581888 -0.0315188952 0.00554773491
v 0.0145846792 -0.032549087 0.00616050232
v 0.0145713482 -0.0324971154 0.00750250462
v 0.00878018886 -0.0192915834 -0.0128742969
v 0.00883896742 -0.0208863076 -0.0105413413
v 0.01460185 -0.0307790302 -0.00907599833
v 0.0144143458 -0.0295085609 -0.0098298043
v 0.0146011282 -0.0312573947 -0.00717871962
v 0.0145712877 -0.030021688 -0.00613828143
v 0.0145515567 -0.0302056149 -0.00244413037
v 0.0145859551 -0.0302129388 -0.000106823674
v 0.0146006905 -0.0283029359 -0.00906570721
v 0.0145684071 -0.0299627017 -0.00788758602
v 0.0145934829 -0.0288413856 -0.00713923434
v 0.0145766977 -0.0296291951 -0.00365133188
v 0.0145826675 -0.0300162435 -0.0046207183
v 0.0145755215 -0.0288266353 -0.0052415547
v 0.014575568 -0.0270896293 -0.00359047041
v 0.0145574994 -0.0298482142 -0.00103669812
v 0.0145571027 -0.028657496 -0.00223264727
v 0.0145827541 -0.0288236998 -0.000488720019
v 0.0146042323 -0.0240442567 -0.00914806593
v 0.014613267 -0.025884239 -0.00892928243
v 0.0145622902 -0.0271091387 -0.00763219362
v 0.0145956529 -0.0275840685 -0.00612091413
v 0.0145802675 -0.026548706 -0.00613921881
v 0.014538927 -0.0249292813 -0.0076539088
v 0.0146272229 -0.0252332035 -0.00669461023
v 0.0145869208 -0.0251385551 -0.00508235907
v 0.0145560345 -0.0268101208 -0.00233876379
v 0.0145875504 -0.0270536747 -0.00464470591
v 0.0145739736 -0.0252747983 -0.00363547634
v 0.0145541737 -0.0274646953 -0.00108051195
v 0.0145821339 -0.0265312493 -0.000518766174
v 0.0145652741 -0.0242062137 -0.005692387
v 0.0145794461 -0.024042245 -0.00724233408
v 0.0145439859 -0.0244505908 -0.00338269724
v 0.014627723 -0.0241027307 -0.00453114323
v 0.014568463 -0.0238371361 -0.00237249257
v 0.0145747419 -0.0250775032 -0.00145897653
v 0.0145973954 -0.0241248552 -0.000526524964
v 0.0072500133 -0.0389945805 -0.00956148468
v 0.00876444206 -0.0385887772 -0.0128854495
v 0.00894044805 -0.0386227816 -0.00957757793
v 0.00743916491 -0.0190579407 -0.012898596
v 0.00881247502 -0.0384699591 -0.0105994819
v 0.0134828473 -0.0223133918 -0.0104960175
v 0.0144175105 -0.0354192369 -0.0098261591
v 0.0145978536 -0.0367280953 -0.00908278581
v 0.014561357 -0.0376125053 -0.00784225017
v 0.0145611018 -0.0376031287 -0.00655055279
v 0.0145902233 -0.0375040621 -0.00508083496
v 0.0145746358 -0.0362975709 -0.00694500096
v 0.0145910801 -0.0362656303 -0.00550623564
v 0.0145724071 -0.0378008261 -0.00360101531
v 0.014573643 -0.0375387631 -0.00231138198
v 0.0145932166 -0.0362604894 -0.00392603176
v 0.0145593882 -0.0376577303 -0.000949939655
v 0.0145904468 -0.0362853743 -0.000546688505
v 0.0145994099 -0.0344685055 -0.00902647898
v 0.0145505434 -0.0350389071 -0.00792298652
v 0.0145721268 -0.0350421742 -0.00617286609
v 0.0145984814 -0.033811789 -0.00724846078
v 0.0145863919 -0.0336948968 -0.00512845442
v 0.0145801753 -0.0350216441 -0.00409196224
v 0.0145817231 -0.0337254256 -0.00360598369
v 0.0145682711 -0.0353902057 -0.0022603611
v 0.0145728858 -0.0350153334 -7.73129723e-05
v 0.014571446 -0.0348583274 -0.00120066933
v 0.0146150496 -0.0337354988 -0.00163222267
v 0.0143466257 -0.022167623 -0.00990374479
v 0.0145555139 -0.0329703204 -0.00808418728
v 0.0145723019 -0.0322913826 -0.00904596597
v 0.0145739792 -0.032640744 -0.00660936488
v 0.0146047436 -0.0320152529 -0.00566747738
v 0.0145870727 -0.0320425518 -0.00413064053
v 0.014554753 -0.0312888809 -0.00486274529
v 0.0145774707 -0.0325849503 -0.00120256632
v 0.0145820454 -0.0315374434 -0.00161753839
v 0.01459869 -0.0325844251 -0.00300432649
v -0.012593884 -0.0193744693 0.0126518896
v -0.0123351514 -0.019052824 0.0127989491
v -0.0043698065 -0.0384649299 0.0127640422
v -0.00229848898 -0.0376098342 0.0126886899
v -7.54983121e-05 -0.0372738726 0.00998953264
v 3.89373014e-07 -0.0372451805 0.0127987759
v 0.00554456934 -0.018954251 0.012799222
v -0.0125961155 -0.0200018585 -0.00948148873
v -0.0125893857 -0.0193830244 -0.0128943892
v 0.0113289254 -0.0440748222 -0.00145516905
v 0.0112001523 -0.0440625325 0.000292613113
v 0.0125673329 -0.0438931175 0.000380209531
v 0.0142810605 -0.0423249267 0.000440334901
v 0.0146073131 -0.0409521461 0.000490696344
v 0.0145814102 -0.0400611907 -0.000545921852
v 0.0145878009 -0.0386863276 -0.00057675509
v 0.00352785108 -0.0383818075 0.00950511545
v 0.00660669757 -0.0376467481 0.00950915553
v 0.00872721709 -0.0371701457 0.00951522868
v 0.0112082148 -0.0440653898 0.00186352152
v 0.00910154637 -0.0440422669 0.00854514446
v 0.0100410506 -0.0440370739 0.0057116556
v 0.0112546245 -0.0440694615 0.00385215553
v 0.0110159833 -0.0440858267 0.00749821262
v 0.00906838849 -0.0429948121 0.00930068363
v 0.0124240071 -0.04288055 0.00930388737
v 0.00904524792 -0.0369965509 0.00933220424
v 0.0135993194 -0.0432595089 0.000192904379
v 0.012581002 -0.0438718349 0.00278068776
v 0.0136121353 -0.0432626083 0.00159102061
v 0.0142452838 -0.042348031 0.00222545769
v 0.0114182532 -0.0440671481 0.00593115157
v 0.0126419608 -0.0438604094 0.00684709242
v 0.013576285 -0.0432866812 0.00607575849
v 0.0135935368 -0.0432768874 0.00375329447
v 0.0142901428 -0.0423164628 0.0041754921
v 0.0124335876 -0.0438900217 0.00858885236
v 0.0136868637 -0.0431743488 0.00848342944
v 0.0142686618 -0.0423344299 0.00747988233
v 0.0135493223 -0.0415281244 0.00925151631
v 0.0120535456 -0.0209623054 0.00929964241
v 0.0143016875 -0.0423055477 0.0059867925
v 0.0145971188 -0.0409759283 0.00202400237
v 0.0145912236 -0.0399632603 0.00153019361
v 0.0145650068 -0.038777221 0.000723677163
v 0.0145716127 -0.0380018875 0.00187264627
v 0.014599869 -0.04053827 0.0056547951
v 0.0145510035 -0.0400741473 0.00322066038
v 0.0146031287 -0.0392402373 0.00423032092
v 0.0145650571 -0.0388043262 0.00561370328
v 0.0146265971 -0.0410211943 0.00383540802
v 0.0145924864 -0.0410019271 0.00763683347
v 0.0145802759 -0.0409331471 0.00656728912
v 0.0145993549 -0.0393202417 0.00669261301
v 0.0146186724 -0.0393415242 0.00777499797
v 0.014454009 -0.0414628163 0.00861738436
v 0.00582469767 -0.052655451 0.00943002757
v 0.00694021629 -0.0515133515 0.0094785206
v 0.00841015205 -0.0489625707 0.00949918665
v 0.00884968974 -0.0474120043 0.00943010394
v 0.00899625942 -0.0457891151 -0.00944999605
v 0.00900526252 -0.0449140109 0.00947140809
v 0.00478598708 -0.0393678062 -0.00988224335
v 0.00548205152 -0.0392174534 -0.0128988083
v 0.00402114494 -0.0395926721 -0.00951319654
v 0.00901300646 -0.0440852232 -0.00951338932
v 0.00906337705 -0.0429907627 -0.0104878126
v 0.0097313514 -0.0440031476 -0.00977405999
v 0.0102120042 -0.0440442897 -0.00681047607
v 0.0125585226 -0.0438451134 -0.00980627909
v 0.0112692695 -0.044067964 -0.00445152586
v 0.011420547 -0.0440648459 -0.00595922675
v 0.00909636077 -0.0440489389 0.00010840506
v 0.0101020504 -0.0440488011 -0.00296373572
v 0.00908168033 -0.0390238352 -0.0105015151
v 0.0114777768 -0.044086732 -0.00879811775
v 0.0123602776 -0.0428884923 -0.0104998164
v 0.0136963865 -0.0430865884 -0.00976100098
v 0.0136051914 -0.0432605855 -0.00718975533
v 0.0135551486 -0.0414610095 -0.010457986
v 0.0143575119 -0.0416708663 -0.00989102758
v 0.0126642836 -0.0438411869 -0.0056337174
v 0.0135831479 -0.0432806276 -0.00576538313
v 0.0126397647 -0.0438617095 -0.00181332359
v 0.0136060137 -0.0432670005 -0.0040227971
v 0.0142682418 -0.0423198566 -0.00518816151
v 0.0142769059 -0.0422992259 -0.00360634015
v 0.013592381 -0.0432856008 -0.00141586189
v 0.0142967096 -0.0423084609 -0.0088195838
v 0.0142861754 -0.0423081666 -0.00694670249
v 0.0142914606 -0.0422736369 -0.00125686603
v 0.0146196196 -0.0410368107 -0.00907487143
v 0.0146192443 -0.0386854112 -0.00908278394
v 0.0145752132 -0.0400756039 -0.0088797342
v 0.0146122053 -0.0409816802 -0.00721589057
v 0.014600398 -0.0409622751 -0.00550545286
v 0.0145614753 -0.0401102528 -0.00651903637
v 0.0145815089 -0.0394033752 -0.00775085203
v 0.0145883486 -0.0399736911 -0.0050597596
v 0.014585088 -0.0387076326 -0.00614231685
v 0.0146055892 -0.0409552492 -0.00403971691
v 0.0146116186 -0.0410221443 -0.00170688017
v 0.0145701058 -0.0400989838 -0.00230136816
v 0.0145563819 -0.0397658423 -0.00363519695
v 0.0145670725 -0.0386940204 -0.00482688891
v 0.0145742856 -0.0388186462 -0.00241188379
v 0.00309529318 -0.0542385578 -0.00949179009
v 0.00304202386 -0.0542642362 0.00948950928
v 0.00564298499 -0.0527963638 -0.00949260499
v 0.00453966623 -0.0535641909 0.00949150603
v 0.00687474618 -0.0516044796 -0.0094918469
v 0.00781084178 -0.0502572469 -0.00949105248
v 0.00780104287 -0.0502736121 0.00945246685
v 0.00839523319 -0.049008172 -0.00947534665
v 0.00884955283 -0.0474234447 -0.00948795024
v -0.00772755733 -0.0421938859 0.00997410249
v -0.00793200918 -0.0426348187 0.0127833048
v -0.00659479899 -0.0404857174 0.00959893968
v -0.00444016093 -0.0385857187 0.00953068025
v -0.0056491876 -0.0394757092 0.00960802659
v -0.00656546326 -0.0403454043 0.0127778323
v -0.0026674557 -0.037744984 0.00950125884
v 0.00201886729 -0.037591368 0.00951495767
v 0.00155924773 -0.0546569265 0.00949645881
v -0.0125995586 -0.0522306785 0.0126497503
v -0.0100946259 -0.0547716543 0.0127254184
v -0.00852998532 -0.054686632 0.012786326
v -0.00849829335 -0.0544773191 0.00990652665
v -0.0123549979 -0.0525410585 0.0127959149
v -0.00851243176 -0.0452394895 0.0127449855
v -0.00827197637 -0.0546418503 0.00950321369
v -0.00831973087 -0.0441769995 0.00956996344
v -0.00778553635 -0.0428647622 0.00950142089
v -0.008495152 -0.0459472425 0.00995831471
v -0.00566648878 -0.041220367 -0.00966707338
v -0.00607065205 -0.0408625491 -0.0128999725
v -0.00568005582 -0.040980529 -0.0128326714
v -0.00511791511 -0.0404500701 -0.00950354431
v -0.00448370911 -0.0400830284 -0.012899138
v -0.0043924232 -0.0401098095 -0.00985309575
v 0.000920015562 -0.0403932258 -0.00950229261
v 0.00106786296 -0.0400105044 -0.012881076
v 0.000667944259 -0.0401017405 -0.00974243786
v -0.00570651144 -0.0472074561 -0.0128968665
v -0.00549857412 -0.0544762276 -0.00962759834
v -0.0055058049 -0.04785458 -0.0127203185
v -0.00509703066 -0.0546563566 -0.00950012635
v -0.00548988767 -0.0478313081 -0.00958319195
v -0.00569254626 -0.0470978878 -0.00995650887
v 0.0015660536 -0.0546571277 -0.00946667045
v 1.06614234e-05 -0.0547965914 -0.00920955185
v 0.0044209552 -0.0536274575 -0.00949878804
v -0.011597367 -0.0533029549 -0.0128476797
v -0.0125871152 -0.0522157475 -0.0128719267
v -0.0102774985 -0.054618407 -0.0128927939
v -0.00990834273 -0.0547945797 -0.0127134444
v -0.00897438172 -0.0547974482 0.00921438634
v -0.00554679614 -0.054683432 -0.0128943473
v -0.00589907682 -0.0547944009 -0.00921638031
v -4.30905493e-05 -0.0547998063 0.0092041716
vn 0.3234798 0.2744842 0.9055492
vn 0.01974099 0.02315848 0.9995369
vn 0.03153735 0.01569911 0.9993793
vn 0.7615703 0.6480824 -0.0001735023
vn 0.6995011 0.7144434 -0.01639494
vn 0.5298275 0.8480933 0.004521426
vn 0.9155462 0.4021841 -0.004819384
vn 0.9910238 0.133678 0.001396863
vn 0.9153441 0.4026678 -0.001940982
vn -0.002215675 0.001962354 -0.9999956
vn -0.0003405952 0.001160419 -0.9999992
vn -0.001485924 0.03334445 -0.9994428
vn 0.01233117 0.002287306 -0.9999214
vn 0.02374153 0.07522762 -0.9968837
vn 0.005000431 -6.628881e-06 -0.9999875
vn -0.05610145 0.003252862 -0.9984198
vn -0.01553984 0.04435368 0.998895
vn -0.008037998 0.01322667 0.9998803
vn -0.007264276 0.03383533 0.999401
vn -0.05633822 0.9984086 0.002530435
vn -0.085544 0.9963251 -0.004293055
vn -0.3949685 0.9186791 0.005375043
vn -0.4074617 0.9132195 0.002291171
vn -0.6733691 0.7392594 0.008349919
vn -0.02738076 0.4695072 -0.8825039
vn -0.00342533 0.03839405 -0.9992568
vn -1.822848e-05 0.0002656327 1
vn -0.6363219 0.771413 -0.004043822
vn -0.004207449 0.00151429 -0.99999
vn -0.8489198 0.5283098 -0.01496182
vn -0.984432 0.1756361 -0.006760482
vn -0.99238 0.1226278 0.01201223
vn -0.8991401 0.4374892 0.01225331
vn -0.9998544 0.01522548 0.007696877
vn -0.9942704 -0.06560946 0.08439103
vn -0.9911101 -0.09270449 0.09542874
vn 0.1724649 0.002249567 -0.9850131
vn 0.001446209 0.003331488 -0.9999934
vn 0.01144502 -0.01078159 -0.9998763
vn 0.001558749 0.002670491 -0.9999952
vn -0.001481553 0.0001434169 -0.9999989
vn -0.5766471 0.8169336 0.009884508
vn -0.7870896 0.6168383 0.000610219
vn -0.7719336 0.6356959 0.003038481
vn -0.006072171 0.0066084 0.9999597
vn -0.003685558 0.01681597 0.9998518
vn -0.004716282 0.009719345 0.9999416
vn -0.9143319 0.4049495 0.003631885
vn -0.92698 0.3750862 -0.004282565
vn -0.9920228 0.1260527 0.001254226
vn -0.9918665 0.1272269 0.003775758
vn -0.002652985 -0.002959826 -0.9999921
vn -0.002676164 -0.002240182 -0.9999939
vn 0.08151219 0.9966283 0.009380392
vn -0.1615313 0.9868338 -0.008160343
vn -0.2727983 0.961951 0.01521133
vn -0.07544536 0.2628125 0.9618927
vn -0.0005147136 0.006260381 -0.9999803
vn 0.0005394156 0.007890718 -0.9999688
vn -0.002008379 0.002620225 -0.9999945
vn -0.004887753 0.002634395 -0.9999846
vn 0.01185066 0.002065223 -0.9999276
vn 0.001714962 0.0008367847 -0.9999982
vn 0.7091566 0.7049691 0.0107429
vn 0.7763093 0.6303416 0.003649008
vn 0.6026839 0.7979003 -0.0112756
vn 0.008433109 0.008179278 0.9999309
vn 0.004491542 -0.0004329088 0.9999898
vn 0.00364971 0.00145894 0.9999924
vn 0.4175094 0.9086449 0.007093046
vn 0.3653407 0.9308689 -0.003044957
vn 0.003203314 0.0006971786 0.9999946
vn 0.9036111 0.4283482 0.002183138
vn 0.904488 0.426448 0.006602956
vn -0.002365189 -0.00169036 0.9999958
vn -0.002416003 -0.001261925 0.9999963
vn 0.01083865 -0.007171332 -0.9999155
vn 0.004080355 -0.04230318 -0.9990965
vn 0.1809416 -0.9834933 0.001054871
vn 0.1837752 -0.9829664 0.001950486
vn 0.1927711 -0.981232 0.004797171
vn 0.9903628 0.1384971 -0.0003517629
vn 0.9999902 0.004408817 -0.0002414699
vn 0.9899348 0.1415146 -0.0016325
vn -0.001772084 0.001037941 0.9999979
vn 0.0987438 0.0003800225 0.9951128
vn 0.5049617 0.01958343 -0.8629196
vn 0.1285945 0.865987 0.4832494
vn 0.0148587 0.5769508 0.8166437
vn 0.1123026 0.3342548 0.9357681
vn 0.01064433 0.3086409 0.9511191
vn -0.02311692 0.9987347 0.04466189
vn -0.112141 0.9934031 0.02397323
vn 0.9876141 0.1268444 0.09235238
vn 0.7304774 0.03043091 0.6822585
vn 0.9694768 0.1392161 0.2018257
vn 0.07557669 0.9971358 -0.002925284
vn -0.1107141 0.9938486 -0.002745272
vn 0.07596708 0.9971101 -0.0006851185
vn -0.07035439 0.9975219 0.0003163438
vn -0.1169937 0.9931251 0.003853658
vn -0.01476321 0.999891 -0.0002312507
vn 0.9386612 0.3426246 -0.03903501
vn 0.9136871 0.4062257 0.01251988
vn 0.07242584 0.9973692 -0.003039955
vn 0.3358583 0.9419115 -0.001436535
vn 0.07167171 0.9974237 0.003018967
vn 0.3339728 0.9425808 -0.00194728
vn 0.683741 0.7297248 0.0001657519
vn 0.6858648 0.727725 0.002398614
vn 0.8550614 0.1694957 0.4900421
vn 0.911702 0.4069937 0.05617457
vn 0.5904754 0.6509241 0.4771128
vn 0.9175298 0.3976229 0.005907127
vn 0.352117 0.165041 0.9212899
vn 0.9143158 0.4049085 -0.008701717
vn 0.9949319 0.100295 -0.007165151
vn 0.9943194 0.08132628 0.06866544
vn 0.9965447 0.0830474 -0.001367631
vn 0.6797581 0.7334307 -0.002900932
vn 0.9925084 0.1220066 0.006430406
vn 0.3406802 0.9401792 -0.0001515009
vn 0.9091024 0.4165421 0.005047999
vn 0.9993728 -0.001979859 0.03535489
vn 0.990741 0.1351701 -0.01270556
vn 0.9996818 -0.02453306 -0.005855525
vn 0.9999627 -0.002324447 -0.00831225
vn 0.9998534 -0.0152338 0.007811662
vn 0.9931816 0.1164653 0.005104534
vn 0.6847718 0.7284803 0.02009891
vn 0.328284 0.9445381 -0.008800011
vn 0.3180759 0.9453309 0.07195386
vn 0.003816233 0.1273705 -0.9918479
vn 0.001440497 0.00581426 -0.9999821
vn 0.02386012 0.1446489 -0.9891953
vn 0.2324193 0.9726156 0.0002313236
vn 0.2191582 0.9756894 -0.0001906817
vn 0.02260346 0.9997391 -0.003289545
vn 0.02209 0.9997519 -0.002857014
vn 0.02588195 0.9996467 -0.0060515
vn 0.9974546 0.0454823 -0.05491483
vn 0.9967871 0.07902577 0.01305406
vn 0.9060399 0.4231899 -0.00144771
vn 0.004713785 0.1361211 -0.990681
vn 0.9639944 -0.2659149 0.002009145
vn 0.9631558 -0.2689187 0.003703879
vn 0.9574786 0.2882737 0.01152917
vn 0.002906089 -0.006180016 -0.9999767
vn -0.003032602 -4.477046e-05 -0.9999954
vn 0.08156525 0.9966658 -0.002069785
vn -0.08962292 0.9959758 -8.013307e-05
vn -0.0440821 0.9990252 0.002318819
vn 0.1517623 0.98839 -0.007307903
vn 0.2959233 0.9552075 -0.002871895
vn 0.3243482 0.9459064 -0.007708755
vn 0.9958762 0.08902264 -0.01748092
vn 0.9105244 0.4134274 -0.004817624
vn -0.06503228 0.9965039 -0.05244934
vn -0.1210473 0.9908627 -0.05948718
vn 0.3253432 0.1229645 -0.9375668
vn 0.04510846 -0.0004110826 -0.998982
vn 0.05386324 0.3257183 -0.9439313
vn 0.1538422 0.3683657 -0.9168638
vn 0.4387254 0.524255 -0.729847
vn 0.1351822 0.8841608 -0.4471975
vn 0.5798585 0.6676347 -0.4669348
vn 0.3476901 0.9372238 -0.02689066
vn 0.6749826 0.7374804 -0.02282855
vn 0.8149174 0.2394214 -0.5278134
vn 0.9996615 -0.02277309 -0.01258144
vn 0.9999156 0.0005781652 0.01297473
vn 0.9940799 0.1086111 0.002947942
vn 0.9999847 0.005040394 0.002262022
vn 0.9941838 0.1071655 0.01068295
vn 0.9999523 -0.006063412 -0.007655776
vn 0.6790336 0.7341071 -3.534657e-05
vn 0.3382068 0.9410718 -6.780361e-05
vn 0.9067032 0.4184902 -0.05249093
vn 0.9057549 0.4237911 0.003070089
vn 0.9935336 0.1134259 0.005072652
vn 0.07587691 0.9971166 -0.001165137
vn 0.914652 0.4042417 -0.0006212204
vn 0.3423777 0.9395584 0.002716451
vn 0.3493719 0.936981 -0.002440617
vn 0.989478 0.005105854 -0.144593
vn 0.9041498 -0.003192673 -0.4272035
vn 0.989581 0.1059806 -0.09745412
vn 0.6838005 0.7296677 -0.001442138
vn 0.9996033 -0.02754613 0.005870639
vn 0.2124 0.004484448 0.9771724
vn 0.001608401 0.1062407 0.9943392
vn 0.004385704 -0.01765046 0.9998347
vn 0.01011249 0.0689624 -0.997568
vn 0.008465832 0.008567627 -0.9999275
vn 0.7411694 0.6711093 -0.01673671
vn 0.639773 0.7683412 0.01849653
vn 0.9821311 0.1876819 -0.01392328
vn 0.02142849 0.1656582 0.9859504
vn -0.1432685 0.9890001 -0.03678052
vn -0.08778661 0.9910699 -0.1003699
vn -0.07622302 0.9970864 0.002952873
vn -0.06389363 0.997954 0.002325427
vn 0.5100734 0.002022736 -0.8601285
vn -0.01045307 0.00187317 0.9999436
vn -0.09002271 0.02800866 0.9955458
vn 0.0008030453 -8.04904e-05 0.9999997
vn -0.0023492 -0.00150094 0.9999961
vn -0.01053624 0.99973 0.0207086
vn -0.1445961 0.975475 0.1659535
vn -0.009980567 0.9999301 0.006342614
vn -0.007852455 0.1275667 -0.9917989
vn -0.008481443 0.1309659 -0.9913507
vn -0.008585252 0.1315268 -0.9912754
vn 0.008622335 0.9191116 0.3939028
vn -0.163868 -3.022633e-05 0.9864823
vn -0.5426773 0.8350696 -0.09033424
vn -0.07757635 0.9969447 -0.009119223
vn -0.9822124 0.1851992 -0.03098337
vn -0.9991035 0.0406515 -0.0118191
vn -0.9366821 0.3500645 0.009021051
vn -0.9980811 0.06114419 0.009773429
vn -0.9999998 0.0002386792 -0.0003934612
vn -0.2661002 0.183045 0.9464065
vn -0.4839624 0.05801942 0.8731633
vn -0.001582247 0.0002839622 0.9999987
vn -0.1193318 0.7844314 0.6086274
vn 0.2724738 0.9619936 -0.01806605
vn 0.001469304 -0.0004735985 0.9999988
vn -0.9999933 0.003419075 0.001281509
vn -0.9756486 0.2193349 0.001354733
vn -0.9918784 0.1271297 -0.003888919
vn -0.9999958 0.002903077 -0.0001780513
vn -0.9998364 0.01808117 -0.0002390214
vn 0.5073541 0.001874949 0.8617356
vn 0.5123073 0.8588023 0.0001219737
vn 0.5385804 0.8425736 0.0008707248
vn 0.9999975 0.002235973 -2.187007e-05
vn 0.9999977 0.002140967 -5.373984e-05
vn 0.9999983 0.001869226 -0.0001448954
vn -0.004317251 0.9999906 0.000284271
vn -0.007187285 0.9999735 0.001127179
vn -0.003499185 0.9999938 4.401278e-05
vn -0.04273015 0.5956963 -0.8020723
vn -0.0032093 0.01541587 -0.999876
vn -0.006423086 0.1345892 -0.9908807
vn -0.3135913 0.9495444 0.005086798
vn -0.227758 0.9735467 -0.0182499
vn -0.07819338 0.9969119 0.007254748
vn -0.08197203 0.03656752 0.9959636
vn -0.04653631 0.06563091 0.9967583
vn -0.1031348 0.02900823 0.9942443
vn -0.7607669 0.6490067 0.004886573
vn -0.7392972 0.6733652 -0.004351551
vn -0.01947229 0.09701841 0.995092
vn -0.00969487 0.1119034 0.9936718
vn -0.9999142 0.01304524 0.001228597
vn -0.9986486 0.05196346 -0.0007724415
vn -0.2936907 0.9559004 0.0003758605
vn -0.009772306 0.1113918 0.9937286
vn -0.9994388 0.03317378 0.004647797
vn -0.9748834 0.2194719 0.03787274
vn -0.4283706 0.9028233 -0.03753446
vn 0.9999891 0.004677839 0.0002261892
vn 0.9999955 0.001578264 -0.002576665
vn 0.9999337 -0.001344649 0.01143091
vn 0.9999457 -0.005487538 -0.008855456
vn 0.9998599 0.01252596 -0.01110689
vn 0.9994256 0.03389031 0.0001137536
vn 0.999935 0.01058251 -0.004235784
vn 0.9999854 0.001543118 0.005169254
vn 0.9999176 -0.0006525189 -0.01282418
vn 0.9996493 0.01197914 0.02362052
vn 0.999938 -0.0110805 0.001063744
vn 0.9999948 -0.003051364 -0.001023846
vn 0.9999725 -0.005087846 0.005380557
vn 0.1710769 -0.3269852 0.9294156
vn 0.2071799 0.0008109372 0.9783025
vn 0.07381153 -0.00511987 0.997259
vn 0.2585934 -9.266065e-05 0.9659863
vn 0.9997835 0.0001091467 -0.02080843
vn 0.9999697 -0.007720662 -0.0009695608
vn 0.9999905 -0.000698422 0.00429341
vn 0.9999711 -0.006857621 0.003301468
vn 0.9720412 0.004835283 0.2347606
vn 0.9774274 -0.1500072 0.1487737
vn 0.9999881 0.001176371 -0.004747092
vn 0.9987487 0.0004638375 0.05000874
vn 0.9999846 -0.004421524 -0.003359593
vn 0.9999876 -0.003843227 0.003142827
vn 0.9999952 -0.0008813493 -0.003004936
vn 0.9999719 -0.007243958 0.001939976
vn 0.999963 0.006149354 0.006028975
vn 0.9999899 -0.001097678 -0.00436005
vn 0.9999866 0.0006300302 -0.005147932
vn 0.9999818 -0.0006876088 0.006001421
vn 0.9998972 -0.003775683 -0.01383408
vn 0.7523249 -0.09475411 0.6519423
vn 0.07076717 0.0001584919 0.9974928
vn 0.9999853 0.005162329 -0.001658362
vn 0.9999962 0.0005218228 0.002710532
vn 0.9999905 -0.0002121681 0.004366963
vn 0.974279 0.004316805 0.225304
vn 0.9999264 0.002044542 -0.01196337
vn 0.9999942 0.003231238 0.001038414
vn 0.9962537 0.01681719 0.08482879
vn 0.9996221 0.009308415 0.02586392
vn 0.950097 -0.003555793 0.3119345
vn 0.9498937 -0.2145074 0.2273511
vn 0.803584 -0.5951408 0.007763869
vn 0.5724626 -0.2166297 0.7907959
vn -0.07358026 -0.9971871 0.01427562
vn 0.1753644 -0.984445 0.01074873
vn 0.1766684 -0.9841861 0.01289066
vn -0.06324453 -0.9979787 0.006205651
vn -0.02044526 -0.04066509 0.9989637
vn 0.02272952 -0.008233126 0.9997078
vn -0.02777038 -0.2157755 0.976048
vn -0.2003211 -0.9775768 0.06492347
vn -0.2453333 -0.969287 0.01715316
vn 0.3623544 -0.1226431 0.9239361
vn -0.0347436 -0.5420419 0.8396329
vn 0.9999812 -9.273036e-05 0.006135202
vn 0.9999947 -0.001869111 0.002669872
vn 0.9999934 0.003216574 -0.001652242
vn 0.9999967 0.0008283652 -0.002444463
vn 0.9996897 0.02388579 -0.007077614
vn 0.9999928 -0.002147868 0.00312445
vn 0.9999684 -0.001469895 -0.007813893
vn 0.9996698 0.005678047 -0.02505956
vn 0.9999947 0.003224019 0.0002960139
vn 0.9998643 0.01229102 0.01097286
vn 0.9999878 0.002042142 -0.004479578
vn 0.9998611 -0.001807088 -0.01656669
vn 0.9999824 -0.005743775 -0.001485165
vn 0.999981 0.0006087152 -0.006121251
vn 0.9997282 -6.448985e-05 -0.0233151
vn 0.9999799 0.003461355 0.005322245
vn 0.9982071 0.005154425 0.05963096
vn 0.9914432 0.01598671 0.1295555
vn 0.8535712 -0.1887735 0.4855725
vn 0.9794521 -0.007755587 0.2015276
vn 0.999767 -0.0012141 0.02155231
vn 0.9999821 -0.002182208 0.005570241
vn 0.9998713 -0.003575997 0.01564
vn 0.9999253 0.008858405 -0.008417618
vn 0.9999772 -0.00458261 -0.004966941
vn 0.9998121 -8.953256e-05 0.01938834
vn 0.9997326 -0.01374757 -0.01859667
vn 0.999944 -0.003797513 0.009885703
vn 0.9999928 0.003680246 -0.0009958377
vn 0.999977 -0.001852819 -0.006534336
vn 0.9978617 -0.003829255 0.06524848
vn 0.9998184 0.001269961 -0.01901604
vn 0.9999598 -0.006976434 0.00562551
vn 0.001705891 -0.01538099 0.9998803
vn 0.9999995 0.0005564917 -0.0008190129
vn 0.9999892 0.004353504 -0.001637879
vn 0.01082434 -0.1229862 0.9923493
vn 0.9999986 0.001130493 0.001241913
vn 0.001828179 -0.001424037 -0.9999973
vn 0.9993805 0.02029012 -0.02875528
vn 0.9999716 0.002854266 -0.006971179
vn 0.9999542 0.002843025 -0.009131541
vn 0.999995 -0.00153572 0.002756788
vn 0.9995986 0.01794229 0.02192678
vn 0.9999737 -0.002579615 0.006790261
vn 0.9999308 -0.0005383826 0.01175067
vn 0.9999861 0.004297918 -0.003041406
vn 0.9999847 -0.0039883 0.003831805
vn 0.9999632 -0.008050337 0.002970652
vn 0.9999264 0.009231063 0.007873758
vn 0.9999822 -0.005947566 0.0005646026
vn 0.9999919 0.002412876 -0.003233526
vn 0.9940005 -0.01926091 -0.1076662
vn 0.9999946 -0.0005591847 0.003230234
vn 0.9999592 -0.001324736 0.008937096
vn 0.9999717 0.006520222 0.003762707
vn 0.999938 -0.01061851 0.003384087
vn 0.9999911 0.001285171 0.004031057
vn 0.9999689 0.007382221 0.002788199
vn 0.9998732 0.009113707 -0.01305709
vn 0.9999819 0.005902935 -0.001192234
vn 0.9998092 0.008604757 -0.01753684
vn 0.8149989 -0.2197119 -0.5361936
vn 0.9935997 0.02740042 -0.1095852
vn 0.9999573 0.008396934 -0.003838439
vn 0.905199 0.001224505 -0.4249862
vn 0.9981742 -0.01564303 -0.05834094
vn 0.9999914 -0.003172353 -0.002664342
vn 0.9998446 -0.01597816 -0.007455775
vn 0.9998061 0.001285883 0.01965073
vn 0.9999912 -0.00415622 -0.0002518854
vn 0.9998946 -0.0004494263 -0.01451108
vn 0.9999839 -3.977792e-05 -0.005670493
vn 0.9952645 -0.03994009 -0.08861934
vn 0.9997187 -0.0237034 0.0006617471
vn 0.9999897 -0.004330638 0.001325622
vn 0.9999906 -0.004334513 0.0001519958
vn 0.9999666 -0.00651031 -0.004923582
vn 0.9999923 0.003181336 0.002320897
vn 0.9999838 0.001703678 0.005436813
vn 0.9999893 0.001321025 -0.004445432
vn 0.9948771 0.02211309 -0.09864304
vn 0.9998593 -0.006055092 -0.01564475
vn 0.9999694 0.004032535 -0.006696966
vn 0.999985 -0.003860848 0.003877881
vn 0.9999867 -0.0010116 -0.005058559
vn 0.9997671 0.0210895 -0.004593085
vn 0.1636727 -0.9560407 -0.2433054
vn 0.1759812 -0.9775001 -0.116293
vn 0.1892791 -0.8862202 -0.4228323
vn 0.9993737 0.0350611 0.004786912
vn 0.9999475 -0.009988839 0.002255424
vn 0.9999665 -0.008148246 -0.0007107557
vn 0.005462701 -0.0113333 -0.9999208
vn 0.003820075 -0.04360062 -0.9990417
vn 0.3466515 0.002579238 -0.9379905
vn 0.8874513 0.4589376 -0.04250333
vn 0.9995664 0.01954479 -0.02201895
vn 0.9525449 0.3022771 -0.03587104
vn 0.999449 0.03312237 -0.002184497
vn 0.9999695 0.005926345 -0.005066384
vn 0.9999527 0.009336193 -0.00272877
vn 0.004692591 -0.0003546803 -0.999989
vn 0.1842649 -0.9820966 -0.03915118
vn 0.999931 -0.003405578 0.01124026
vn 0.999939 0.0006331592 -0.0110262
vn 0.9999883 0.002320225 -0.004261548
vn 0.9999148 -0.008892383 0.0095581
vn 0.9921594 -0.002699808 -0.1249494
vn 0.09493601 -0.3132311 -0.9449199
vn 0.01490728 -0.9569206 0.2899669
vn 0.2954445 -0.9532945 0.06278615
vn 0.5199763 -0.854178 -0.00212758
vn 0.6618403 -0.7495846 0.009499942
vn 0.5136897 -0.8577223 0.02086539
vn -9.559283e-05 -0.001837327 0.9999983
vn -0.5127472 0.0002254054 0.8585396
vn -0.1279866 -0.00598858 0.9917578
vn 0.9079999 -0.4189503 0.004112518
vn 0.6817873 -0.7315476 0.002041116
vn 0.9203029 -0.3911808 0.004498453
vn 0.7260209 -0.04501042 0.6861981
vn 0.06114801 -0.9981274 0.001623247
vn -0.006769621 -0.9999761 0.00140269
vn 0.06045461 -0.9981709 0.0005215394
vn 0.9966263 -0.07523777 0.03278827
vn 0.9826037 -0.1855597 -0.007584083
vn -0.00942883 -0.9999514 -0.002852643
vn 0.05530606 -0.9984594 -0.004465758
vn 0.9996063 -0.02760353 -0.00502714
vn 0.9941714 -0.1052433 -0.02338623
vn 0.002141899 -0.9994087 0.03431766
vn 0.04910681 -0.9980937 0.03738076
vn 0.2872862 -0.9567094 0.04662315
vn 0.01835382 -0.5830014 0.8122639
vn 0.1701447 -0.5685084 0.8048906
vn 0.3296129 -0.944116 0.0005123933
vn 0.3445018 -0.9387855 0.0006418242
vn 0.003207082 -0.005066642 0.999982
vn 0.9987739 -0.04950534 0.0001109658
vn 0.9854471 -0.1699778 0.00121416
vn 0.2660629 -0.03250065 0.9634076
vn 0.6784461 -0.7346367 0.00446963
vn 0.3324988 -0.9431028 -0.001309197
vn 0.681133 -0.7321419 -0.005105761
vn 0.4541652 -0.4037549 0.7941763
vn 0.9930379 -0.110755 0.04011355
vn 0.9943922 -0.1031462 -0.02334694
vn 0.9169112 -0.3990566 -0.005259328
vn 0.8861945 -0.4615611 0.04025783
vn 0.9980211 -0.06236162 0.008064829
vn 0.9948308 -0.1011715 0.008712724
vn 0.9938523 -0.1106545 0.003626162
vn 0.9105611 -0.4133417 0.005189052
vn 0.9068109 -0.4215348 -0.001546008
vn 0.07754765 -0.9969882 0.0009680307
vn 0.6706886 -0.7398905 0.05233469
vn 0.3899347 -0.9205941 0.02138761
vn 0.6740244 -0.7387083 -0.001006216
vn 0.07754462 -0.99698 0.004203863
vn 0.9998814 0.01323272 0.007872784
vn 0.7195724 -0.694304 -0.01254945
vn 0.008344801 -0.01103304 0.9999043
vn 0.2351248 -0.269302 0.9339126
vn 0.03742207 -0.0337509 0.9987294
vn 0.7714869 -0.636245 0.000393831
vn 0.7621438 -0.6474075 -0.0006439925
vn 0.867526 -0.4973918 6.187013e-06
vn 0.8665094 -0.4991608 0.0001141414
vn 0.9373462 -0.3483993 0.0001295354
vn 0.9829743 -0.1837426 -1.696487e-05
vn 0.5014358 -0.8651947 0.0004218075
vn 0.4919987 -0.8705958 -0.0003949091
vn 0.630958 -0.7758163 -0.001010447
vn 0.001829855 -7.880863e-05 0.9999983
vn 0.9363804 -0.3509869 0.0001072484
vn 0.001158217 -0.02493164 -0.9996885
vn 0.04705628 -0.2846889 -0.9574643
vn 0.05831553 -0.6042567 -0.7946529
vn 0.1014942 -0.9947001 -0.01645203
vn 0.1796291 -0.9836719 -0.01108842
vn 0.9038225 -0.4239661 -0.05794665
vn 0.6760333 -0.7368406 -0.006702445
vn 0.7268759 -0.6824422 -0.07696699
vn 0.9158726 -0.4013197 0.01094531
vn 0.6382586 -0.7350377 0.2287916
vn 0.8925166 -0.4510013 0.003448101
vn 0.005660278 -0.9999837 -0.0006628332
vn 0.08614488 -0.9960017 -0.02365874
vn 0.04646468 -0.9976177 -0.05099136
vn 0.1522505 -0.3205796 -0.9349056
vn -0.06921788 -0.607087 -0.7916149
vn -0.03116871 -0.3270923 -0.9444783
vn 0.1848871 -0.5514368 -0.8134704
vn 0.08116997 -0.9966781 0.006638424
vn 0.08115371 -0.9951481 -0.05562599
vn 0.9998811 -0.01541855 -0.0002653045
vn -0.003792423 -0.9999928 3.857518e-05
vn 0.06857357 -0.9976458 -0.000790817
vn -0.9856513 -0.1511138 -0.07520715
vn -0.997118 -0.01246724 -0.07483484
vn -0.997631 -0.01404282 -0.06734333
vn 0.3454098 -0.9365289 -0.06004843
vn 0.3854069 -0.9226351 0.01435243
vn 0.6874838 -0.7253026 -0.0360844
vn 0.9110976 -0.4121859 -0.001988243
vn 0.04338171 -0.1545411 0.9870335
vn 0.9948483 0.006508019 0.1011661
vn 0.9886974 -0.09287091 -0.1176968
vn 0.9877893 -0.1121528 0.108139
vn 0.999593 -0.02851403 -0.0009440521
vn 0.9937177 -0.1071242 -0.03239492
vn 0.9998958 0.01443223 0.0004351451
vn 0.007789448 -0.006161401 -0.9999507
vn 0.6026494 -0.03558362 -0.7972124
vn 0.01552695 -0.0088556 -0.9998403
vn 0.9943324 -0.1063135 -0.0007169493
vn 0.9918126 -0.1171062 0.05092943
vn -0.003210128 0.01148197 -0.9999289
vn 0.0006690181 9.043101e-05 -0.9999998
vn 0.1295701 0.000411544 -0.9915702
vn 0.6487888 -0.7609682 0.0006526975
vn 0.0005025271 0.001141284 -0.9999993
vn -0.000506699 0.005989678 -0.9999819
vn 0.9780362 -0.1944701 0.07501048
vn 0.994514 -0.1045653 0.002817995
vn 0.9796575 -0.02487978 0.1991285
vn -0.007917034 -0.02316123 0.9997004
vn 0.03507208 0.003060199 0.9993801
vn 0.8793703 -0.4252543 0.2141655
vn 0.8495722 -0.3508975 0.3938251
vn 0.9297096 -0.3682058 -0.008027478
vn 0.790223 -0.6101805 0.05680902
vn -0.02630681 -0.00557557 0.9996384
vn 0.004511512 0.0002307766 0.9999898
vn 0.7659186 -0.6429035 -0.006619364
vn 0.02551486 -0.977121 0.2111482
vn 0.02558279 -0.9724339 -0.2317709
vn 0.1677951 -0.9854037 0.02871531
vn 0.02547542 -0.008606395 0.9996384
vn 0.002664715 0.0004558687 0.9999964
vn -0.7225206 -0.6913493 1.082041e-05
vn -0.3594458 -0.9331004 0.01106768
vn -0.741089 -0.6714039 -0.001947002
vn 0.05395805 -0.9962685 0.06736338
vn 0.1149085 -0.9932387 0.01651934
vn 0.1409565 -0.005671437 0.9899995
vn 0.004805285 -4.62509e-05 0.9999884
vn 0.9610583 0.0002277133 0.2763454
vn 0.8722292 0.0008605873 0.4890966
vn 0.01382329 -0.8939439 0.4479656
vn 0.9919853 0.09810112 -0.07963296
vn 0.9758838 0.09245688 -0.1977438
vn 0.9519752 -0.3039545 -0.03680967
vn 0.8955099 -0.4450078 0.005469547
vn 0.9908496 0.1348188 -0.006392139
vn 0.304922 -0.9523755 0.001855436
vn 0.08809313 -0.9958636 -0.02225304
vn 0.2338545 -0.9721471 -0.01555411
vn 0.08296727 -0.001334475 -0.9965514
vn 0.006956633 -0.7237168 -0.6900621
vn 0.007265547 -0.7211905 -0.6926987
vn 0.6516133 -0.7581246 -0.02544095
vn 0.2120767 7.285045e-05 -0.977253
vn 0.2912844 -0.004356663 -0.9566265
vn 0.002033288 -0.01992698 -0.9997993
vn 0.004996869 -0.07808476 -0.9969342
vn 0.0772934 -0.9932937 -0.08598552
vn 0.1727612 -0.9845538 -0.02841768
vn -0.02523058 -0.8690231 -0.4941279
vn 0.9875491 0.1571343 -0.007456331
vn 0.6862013 0.01441492 -0.7272689
vn 0.3049998 0.005965542 -0.9523337
vn 0.9999195 -0.004455723 -0.0118777
vn 0.9998804 -0.005634864 -0.01440228
vn -0.2374388 -0.9713743 -0.007397132
vn 0.0827376 -0.9963255 -0.0221354
vn 0.0001451456 0.03442105 -0.9994075
vn -0.01320259 -0.02407112 -0.9996231
vn -0.003694305 0.001498486 -0.9999921
vn -0.006047399 -0.008168264 -0.9999483
vn -0.7394651 -0.6731946 -0.0007542955
vn -0.7830856 -0.6218967 -0.004625892
vn 0.3137544 0.9493903 -0.014704
vn 0.9916531 0.1289313 0.0008489629
vn 0.2686778 0.9632081 0.006515189
vn 0.9680113 0.2507996 -0.007332574
vn -0.01936505 0.1886818 0.9818472
vn -0.1019959 0.1268582 0.9866629
vn 0.1591639 0.004028361 0.987244
vn -0.6416946 0.7669601 -0.000559759
vn -0.004479434 0.004472145 0.99998
vn -0.4224846 0.9062812 -0.01269139
vn 0.1019452 0.9947868 0.002543515
vn 0.01288627 0.1172354 -0.9930206
vn 0.008132982 0.003575105 0.9999605
vn 0.1458983 -0.01268663 -0.9892182
vn 0.1955579 -0.9806757 0.005680096
vn 0.8624479 -0.5061368 0.00301777
vn 0.8588092 -0.5122713 0.004999832
vn 0.9999932 0.00357376 0.001001113
vn 0.9406045 -0.3394842 0.003712233
vn 0.691227 0.7222104 0.02484498
vn 0.01872368 0.9998248 -2.141455e-05
vn 0.995644 0.08673628 0.03420442
vn 0.9993946 0.03476288 -0.001417155
vn 0.652153 0.4374814 -0.6191176
vn 0.9623099 0.2716649 -0.01256312
vn 0.1718833 0.9850059 -0.014814
vn 0.04207589 0.1981336 0.9792715
vn -0.9999954 0.00287665 -0.000979371
vn 0.9896647 0.05507756 -0.1324019
vn -0.9993012 0.03377963 0.01600286
vn -0.007756916 0.1270503 -0.9918659
vn -0.7851208 0.6187044 0.02811287
vn -0.05398514 0.007289696 0.9985151
vn 0.02986881 0.9989811 -0.03383287
vn 0.5348466 -0.0003885948 0.844949
vn 0.9999984 0.001773583 -0.0001769791
vn -0.00800877 0.999967 0.001368445
vn -0.01723075 -0.001762563 -0.9998499
vn 0.00986062 -0.3106732 0.9504656
vn 0.1405497 -0.6350121 0.7596088
vn 0.07404836 -0.3388249 0.937931
vn -0.008963579 -0.9999051 0.01045401
vn 0.9992155 0.003952717 -0.03940404
vn 0.01821605 0.000562979 -0.9998339
vn 0.3422155 -0.1045774 -0.9337838
vn -0.9016844 -0.4296474 0.0486671
vn -0.9820264 -0.1732403 -0.07491274
vn 0.1881518 -0.9819341 -0.0201053
vn 0.9998596 0.0003535591 0.01675555
vn -0.4941595 2.872348e-05 0.8693712
vn 0.2663171 -0.9638731 0.004870669
vn 0.04503706 -0.02403453 -0.9986961
vn 0.236891 -0.1442952 0.960761
vn 0.3409179 -0.9400931 0.0002093221
vn -0.193529 -0.6474083 -0.7371628
vn 0.4206044 -0.37823 -0.8246416
vn -0.01074114 -0.01189205 -0.9998716
vn 0.003367721 -0.003658155 -0.9999876
vn 0.3431405 -0.9392841 -0.0003075372
vn 0.04292249 -0.04149219 0.9982164
vn 0.2165055 -0.2112736 0.9531468
vn 0.1233599 -0.1044402 0.9868509
vn -0.03516639 -0.06714975 0.9971229
vn 0.6072231 -0.7928963 -0.05094525
vn -0.5970215 -0.8022251 -0.0005371726
vn 0.9999489 -0.000722955 0.01008295
vn 0.0400707 -0.9171106 0.3966137
vn -0.9999999 -6.953416e-05 -0.0004876026
vn 0.1363242 -0.1102818 -0.9845068
vn 0.001487333 -0.000200783 -0.9999989
vn 0.6457107 -0.7625937 0.03883947
vn -0.1130962 -0.729494 -0.6745722
vn -0.01017472 -0.7237415 -0.6899962
f 13//1 6//2 71//3
f 13//4 12//5 6//6
f 71//7 43//8 16//9
f 12//10 115//11 11//12
f 16//13 68//14 115//11
f 1//15 115//11 14//16
f 5//17 2//18 10//19
f 9//20 8//21 5//22
f 5//22 7//23 4//24
f 8//25 11//12 7//26
f 5//22 8//21 7//23
f 2//18 15//27 6//2
f 4//24 7//23 3//28
f 3//29 115//11 1//15
f 4//24 3//28 1//30
f 14//31 15//32 2//33
f 115//34 116//35 15//32
f 116//35 117//36 15//32
f 43//37 68//14 16//13
f 21//38 36//39 18//40
f 21//38 22//41 36//39
f 23//42 18//43 20//44
f 20//45 26//46 23//47
f 18//43 19//48 20//44
f 17//49 132//50 128//51
f 17//52 36//39 132//53
f 26//54 25//55 24//56
f 24//57 23//47 26//46
f 29//58 36//39 25//59
f 34//60 27//61 36//39
f 31//62 36//39 28//63
f 32//64 31//65 28//66
f 32//67 33//68 26//46
f 32//67 26//46 35//69
f 33//70 28//66 29//71
f 35//69 26//46 42//72
f 32//64 35//73 34//74
f 26//46 37//75 40//76
f 27//61 39//77 36//39
f 36//39 39//77 38//78
f 41//79 40//80 39//81
f 42//82 39//83 27//84
f 128//85 137//86 26//46
f 43//37 70//87 68//14
f 50//88 85//89 333//90
f 149//91 333//90 85//89
f 50//88 49//92 85//93
f 51//94 149//95 85//96
f 49//92 48//97 47//98
f 46//99 86//100 47//98
f 85//93 112//101 51//102
f 73//103 44//104 51//94
f 46//99 45//105 86//100
f 45//105 96//106 87//107
f 53//108 45//105 46//99
f 96//106 53//108 54//109
f 54//109 97//110 96//106
f 176//111 67//112 60//113
f 54//109 62//114 97//110
f 60//113 150//115 176//111
f 66//116 67//112 63//117
f 67//112 176//111 65//118
f 66//116 179//119 62//114
f 57//120 66//116 62//114
f 179//119 61//121 62//114
f 54//109 55//122 57//120
f 62//114 108//123 97//110
f 176//111 181//124 65//118
f 65//118 181//124 63//117
f 64//125 180//126 179//119
f 64//125 181//124 180//126
f 179//119 177//127 61//121
f 61//121 253//128 103//129
f 59//130 60//113 67//112
f 59//130 67//112 66//116
f 59//130 57//120 56//131
f 55//122 56//131 57//120
f 58//132 56//131 48//97
f 68//14 51//133 118//134
f 68//14 70//87 69//135
f 51//102 135//136 118//137
f 52//138 69//139 299//140
f 72//141 299//142 69//143
f 73//144 51//133 68//14
f 68//14 118//134 115//11
f 75//145 37//146 109//147
f 109//148 133//149 36//39
f 84//150 81//151 83//152
f 85//93 81//151 112//101
f 83//152 81//151 86//100
f 87//107 83//152 86//100
f 76//153 257//154 113//155
f 103//129 102//156 107//157
f 108//123 103//129 107//157
f 112//101 78//158 77//159
f 259//160 367//161 217//162
f 80//163 217//162 77//164
f 79//165 77//159 78//158
f 89//166 80//163 79//165
f 89//166 88//167 90//168
f 89//166 259//160 80//163
f 283//169 259//160 89//166
f 251//170 249//171 101//172
f 101//172 247//173 100//174
f 102//156 251//170 101//172
f 251//170 253//128 252//175
f 103//129 251//170 102//156
f 88//167 92//176 90//168
f 91//177 92//176 88//167
f 104//178 89//166 90//168
f 104//178 283//169 89//166
f 105//179 104//178 90//168
f 105//179 100//174 99//180
f 91//177 82//181 84//150
f 105//179 106//182 100//174
f 81//151 82//181 78//158
f 95//183 93//184 84//150
f 234//185 219//186 283//169
f 98//187 234//185 283//169
f 94//188 93//184 95//183
f 91//177 94//188 92//176
f 100//174 248//189 99//180
f 99//180 248//189 98//187
f 107//157 101//172 106//182
f 106//182 101//172 100//174
f 135//190 113//191 114//192
f 110//193 133//149 109//148
f 110//193 257//194 133//149
f 114//195 113//155 110//196
f 111//197 114//195 109//147
f 113//191 135//190 112//198
f 114//195 110//196 109//147
f 129//199 127//200 126//201
f 115//34 117//36 116//35
f 117//202 129//199 126//201
f 131//203 118//203 136//203
f 117//204 123//205 299//206
f 123//205 298//207 299//206
f 294//208 124//209 120//210
f 121//211 119//212 120//213
f 294//208 123//214 124//209
f 294//215 298//207 123//205
f 125//216 121//217 124//209
f 120//218 119//219 293//220
f 300//221 417//222 119//219
f 124//223 123//205 125//224
f 128//85 127//225 137//86
f 127//226 130//226 137//226
f 131//227 129//199 117//202
f 137//86 135//190 111//228
f 127//229 133//230 145//231
f 126//232 145//231 121//233
f 127//229 145//231 126//232
f 137//86 134//234 135//190
f 136//235 135//136 134//236
f 131//237 136//238 130//239
f 122//240 300//241 119//242
f 139//243 141//244 301//245
f 142//246 139//247 140//248
f 144//249 138//250 145//251
f 145//231 143//252 144//253
f 142//254 138//250 144//249
f 133//230 143//252 145//231
f 140//255 138//250 142//254
f 145//231 138//256 121//233
f 138//256 122//257 121//233
f 143//252 141//258 142//246
f 144//253 143//252 142//246
f 140//255 300//259 138//250
f 301//260 300//221 140//261
f 140//248 139//247 301//262
f 158//263 155//264 157//265
f 157//265 155//264 233//266
f 155//264 231//267 233//266
f 231//267 155//264 223//268
f 155//264 151//269 146//270
f 151//269 210//271 146//270
f 176//111 175//272 181//124
f 178//273 181//124 175//272
f 175//272 173//274 178//273
f 180//126 178//273 179//119
f 179//119 178//273 171//275
f 333//90 318//276 150//115
f 44//277 187//278 189//279
f 61//121 177//127 168//280
f 177//127 171//275 168//280
f 171//275 167//281 168//280
f 167//281 166//282 168//280
f 168//280 166//282 148//283
f 164//284 174//285 175//272
f 175//272 174//285 172//286
f 164//284 172//286 174//285
f 172//286 164//284 163//287
f 163//287 162//288 172//286
f 171//275 170//289 165//290
f 165//290 167//281 171//275
f 170//289 169//291 165//290
f 161//292 156//293 165//290
f 166//282 246//294 148//283
f 166//282 165//290 158//263
f 147//295 245//296 246//294
f 51//94 319//297 149//95
f 299//206 187//278 52//298
f 152//299 211//300 151//269
f 159//301 152//299 151//269
f 158//263 157//265 147//295
f 157//265 233//266 147//295
f 164//284 176//111 209//302
f 162//288 154//303 160//304
f 209//302 162//288 163//287
f 162//288 209//302 153//305
f 153//305 154//303 162//288
f 153//305 215//306 154//303
f 161//292 159//301 156//293
f 319//297 317//307 149//95
f 188//308 187//309 311//310
f 185//311 311//312 187//313
f 185//311 186//314 311//312
f 415//315 351//316 309//317
f 415//318 185//311 184//319
f 150//115 318//276 332//320
f 186//321 415//315 309//317
f 185//311 415//318 186//314
f 182//322 337//323 308//324
f 190//325 340//326 338//327
f 270//328 182//322 308//324
f 182//322 338//327 337//323
f 191//329 190//325 338//327
f 271//330 192//331 182//322
f 192//331 338//327 182//322
f 190//325 194//332 341//333
f 195//334 190//325 191//329
f 341//333 340//326 190//325
f 195//334 191//329 202//335
f 194//332 346//336 342//337
f 197//338 347//339 346//336
f 194//332 197//338 346//336
f 197//338 348//340 347//339
f 206//341 197//338 198//342
f 199//343 192//331 271//330
f 280//344 199//343 271//330
f 199//343 193//345 192//331
f 200//346 193//345 199//343
f 199//343 280//344 183//347
f 201//348 200//346 199//343
f 193//345 202//335 191//329
f 202//335 196//349 195//334
f 203//350 202//335 200//346
f 205//351 198//342 194//332
f 206//341 198//342 207//352
f 208//353 207//352 198//342
f 203//350 205//351 196//349
f 176//111 206//341 209//302
f 204//354 200//346 201//348
f 146//270 201//348 199//343
f 210//271 204//354 201//348
f 211//300 204//354 210//271
f 151//269 211//300 210//271
f 299//206 298//207 184//355
f 203//350 200//346 204//354
f 213//356 204//354 211//300
f 213//356 212//357 204//354
f 184//355 185//358 187//278
f 214//359 205//351 203//350
f 214//359 208//353 205//351
f 212//357 214//359 203//350
f 215//306 214//359 154//303
f 209//302 215//306 153//305
f 215//306 209//302 207//352
f 257//194 356//360 133//149
f 101//172 250//361 241//362
f 250//361 249//171 241//362
f 241//362 238//363 247//173
f 242//364 246//294 245//296
f 147//295 233//266 245//296
f 241//362 244//365 243//366
f 242//364 230//367 244//365
f 243//366 237//368 238//363
f 243//366 230//367 229//369
f 239//370 238//363 236//371
f 237//368 236//371 238//363
f 237//368 226//372 236//371
f 229//369 226//372 237//368
f 234//185 235//373 224//374
f 232//375 233//266 231//267
f 232//375 227//376 230//367
f 232//375 222//377 227//376
f 227//376 228//378 229//369
f 228//378 221//379 229//369
f 227//376 289//380 228//378
f 222//377 288//381 227//376
f 221//379 220//382 225//383
f 283//169 219//186 373//384
f 219//186 225//383 218//385
f 222//377 291//386 288//381
f 218//385 260//387 219//186
f 218//385 220//382 285//388
f 276//389 286//390 287//391
f 287//391 285//388 220//382
f 285//388 287//391 286//390
f 285//388 286//390 284//392
f 284//392 286//390 275//393
f 286//390 276//389 274//394
f 286//390 274//394 275//393
f 285//388 284//392 272//395
f 285//388 272//395 260//387
f 280//344 281//396 282//397
f 281//396 279//398 282//397
f 278//399 279//398 277//400
f 278//399 277//400 276//389
f 279//398 269//401 277//400
f 265//402 261//403 273//404
f 275//393 273//404 284//392
f 275//393 274//394 273//404
f 274//394 266//405 265//402
f 284//392 273//404 272//395
f 273//404 260//387 272//395
f 271//330 268//406 279//398
f 268//406 271//330 270//328
f 271//330 182//322 270//328
f 268//406 270//328 398//407
f 270//328 308//324 398//407
f 398//407 308//324 395//408
f 357//409 355//410 254//411
f 398//407 396//412 267//413
f 266//405 269//401 264//414
f 269//401 267//413 264//414
f 431//415 356//360 434//416
f 367//161 258//417 217//162
f 256//418 255//419 258//420
f 216//421 258//420 255//419
f 291//386 292//422 288//381
f 292//422 290//423 282//397
f 290//423 183//347 282//397
f 291//386 183//347 290//423
f 292//422 291//386 290//423
f 257//194 255//424 356//360
f 355//410 256//425 254//411
f 267//413 397//426 264//414
f 263//427 264//414 392//428
f 268//406 398//407 267//413
f 267//413 396//412 397//426
f 264//414 397//426 392//428
f 265//402 264//414 263//427
f 263//427 392//428 390//429
f 260//387 385//430 373//384
f 295//431 296//431 298//431
f 297//432 414//433 415//318
f 295//434 412//435 411//436
f 294//215 295//437 298//207
f 295//434 411//436 414//433
f 417//438 421//439 294//215
f 305//440 380//441 383//442
f 351//316 354//443 311//310
f 312//444 365//445 303//446
f 313//447 354//443 365//448
f 314//449 365//445 312//444
f 314//449 312//444 315//450
f 307//451 306//452 383//442
f 317//307 354//443 313//447
f 313//453 316//454 329//455
f 318//276 313//456 329//457
f 354//443 317//307 319//297
f 312//444 303//446 304//458
f 304//458 303//446 376//459
f 415//315 414//460 351//316
f 353//461 354//443 352//462
f 351//316 352//463 354//443
f 320//464 304//458 376//459
f 321//465 320//464 322//466
f 332//320 330//467 348//340
f 346//336 347//339 344//468
f 342//337 346//336 345//469
f 347//339 348//340 344//468
f 344//468 345//469 346//336
f 344//468 334//470 345//469
f 344//468 348//340 331//471
f 341//333 339//472 340//326
f 339//472 343//473 340//326
f 343//473 335//474 340//326
f 335//474 328//475 323//476
f 324//477 315//450 321//465
f 326//478 325//479 321//465
f 326//478 321//465 327//480
f 327//480 322//466 323//476
f 326//478 327//480 328//475
f 365//445 302//481 303//446
f 340//326 336//482 338//327
f 337//323 338//327 336//482
f 340//326 335//474 336//482
f 336//482 335//474 306//452
f 306//452 335//474 305//440
f 330//483 331//471 348//340
f 334//470 331//471 326//478
f 334//470 326//478 328//475
f 305//440 320//464 380//441
f 402//484 349//485 350//486
f 350//487 403//488 405//489
f 405//489 404//490 351//491
f 352//462 351//491 407//492
f 402//493 444//494 401//495
f 400//496 402//484 414//460
f 414//460 402//484 351//316
f 351//491 404//490 406//497
f 357//498 433//499 435//500
f 355//410 434//501 356//502
f 381//503 371//504 370//505
f 382//506 371//504 381//503
f 382//506 375//507 371//504
f 378//508 375//507 382//506
f 361//509 358//510 360//511
f 369//512 360//513 359//514
f 369//512 362//515 360//513
f 364//516 361//509 368//517
f 365//448 354//443 358//518
f 366//519 358//510 361//509
f 363//520 361//509 364//516
f 366//519 363//520 302//481
f 256//521 359//522 358//523
f 369//512 359//514 367//161
f 371//504 362//524 370//505
f 368//517 362//524 374//525
f 375//507 374//525 371//504
f 363//520 374//525 376//459
f 376//459 374//525 377//526
f 379//527 377//526 378//508
f 302//481 363//520 376//459
f 383//442 380//441 379//527
f 256//528 357//528 254//528
f 386//529 384//530 385//430
f 387//531 382//506 381//503
f 387//531 381//503 384//530
f 389//532 388//533 382//506
f 387//531 384//530 386//529
f 392//428 391//534 389//532
f 358//535 353//536 407//537
f 379//527 380//441 377//526
f 388//533 379//527 378//508
f 393//538 394//539 379//527
f 395//408 393//538 391//534
f 395//408 394//539 393//538
f 396//412 395//408 391//534
f 392//428 397//426 391//534
f 396//412 391//534 397//426
f 394//539 383//442 379//527
f 395//408 307//451 394//539
f 404//540 403//541 439//542
f 350//487 349//543 403//488
f 402//493 401//495 349//543
f 405//489 403//488 404//490
f 401//495 403//488 349//543
f 439//542 401//544 444//545
f 424//546 422//547 426//548
f 294//215 419//549 422//550
f 408//551 424//546 425//552
f 409//553 422//547 424//546
f 410//554 408//551 425//552
f 294//215 409//555 413//556
f 413//557 409//553 408//551
f 452//558 443//559 416//560
f 425//561 416//562 414//460
f 445//563 418//564 421//565
f 418//564 449//566 419//567
f 424//568 423//569 425//561
f 420//570 423//571 424//546
f 423//572 449//566 416//560
f 440//573 441//574 427//575
f 429//576 427//575 436//577
f 441//574 436//577 427//575
f 431//578 434//501 435//579
f 432//580 431//578 435//579
f 433//499 439//542 430//581
f 430//582 432//583 433//499
f 430//584 431//578 432//580
f 430//581 440//585 427//586
f 399//587 442//588 439//542
f 451//589 442//590 443//559
f 451//589 439//591 442//590
f 436//577 440//573 438//592
f 438//593 450//593 436//593
f 440//585 439//542 437//594
f 437//595 450//596 438//592
f 448//597 450//598 451//589
f 447//599 445//600 450//601
f 450//601 445//600 446//602
f 418//564 448//597 449//566
f 448//597 451//589 452//558
f 446//603 445//563 417//604
f 12//5 13//4 71//7
f 12//5 71//7 16//9
f 6//6 12//5 11//605
f 43//8 71//7 74//606
f 6//2 15//27 71//3
f 8//21 9//20 11//605
f 10//607 6//6 11//605
f 9//20 10//607 11//605
f 10//19 2//18 6//2
f 12//10 16//13 115//11
f 7//26 11//12 115//11
f 43//8 74//606 70//608
f 15//32 14//31 115//34
f 9//609 5//17 10//19
f 5//17 4//610 2//18
f 3//29 7//26 115//11
f 4//24 1//30 2//33
f 14//31 2//33 1//30
f 71//3 15//27 117//204
f 74//611 71//3 299//206
f 23//42 21//612 18//43
f 20//45 19//613 26//46
f 23//42 22//614 21//612
f 22//614 24//56 25//55
f 22//41 25//59 36//39
f 19//613 128//85 26//46
f 18//43 17//49 19//48
f 19//48 17//49 128//51
f 17//52 18//40 36//39
f 26//54 30//615 25//55
f 24//56 22//614 23//42
f 30//616 29//58 25//59
f 29//58 28//63 36//39
f 33//70 29//71 30//615
f 26//54 33//70 30//615
f 31//62 34//60 36//39
f 33//70 32//64 28//66
f 27//84 35//73 42//82
f 34//74 35//73 27//84
f 31//65 32//64 34//74
f 132//53 36//39 133//149
f 42//72 26//46 41//617
f 26//46 137//86 37//75
f 38//78 75//618 36//39
f 39//81 40//80 38//619
f 38//620 40//621 75//145
f 40//621 37//146 75//145
f 26//46 40//76 41//617
f 42//82 41//622 39//83
f 74//606 72//141 70//608
f 51//94 44//104 188//308
f 85//93 49//92 47//98
f 47//98 48//97 46//99
f 85//93 47//98 86//100
f 86//100 45//105 87//107
f 44//104 189//623 188//308
f 44//104 73//103 52//624
f 45//105 53//108 96//106
f 46//99 55//122 53//108
f 55//122 54//109 53//108
f 48//97 55//122 46//99
f 67//112 65//118 63//117
f 66//116 63//117 64//125
f 66//116 64//125 179//119
f 54//109 57//120 62//114
f 62//114 61//121 108//123
f 108//123 61//121 103//129
f 56//131 55//122 48//97
f 58//132 48//97 49//92
f 64//125 63//117 181//124
f 61//121 148//283 253//128
f 61//121 168//280 148//283
f 60//113 50//88 333//90
f 150//115 60//113 333//90
f 50//88 60//113 58//132
f 50//88 58//132 49//92
f 51//102 112//101 135//136
f 57//120 59//130 66//116
f 60//113 59//130 58//132
f 56//131 58//132 59//130
f 74//606 299//142 72//141
f 52//138 73//625 69//139
f 69//135 73//144 68//14
f 70//608 72//141 69//143
f 117//204 299//206 71//3
f 37//75 137//86 111//228
f 75//618 109//148 36//39
f 109//147 37//146 111//197
f 84//150 82//181 81//151
f 86//100 81//151 85//93
f 87//107 84//150 83//152
f 76//626 217//627 216//421
f 76//628 77//164 217//162
f 76//629 112//629 77//629
f 76//153 216//630 257//154
f 76//631 113//191 112//198
f 97//110 107//157 94//188
f 97//110 108//123 107//157
f 79//165 80//163 77//164
f 80//163 259//160 217//162
f 112//101 81//151 78//158
f 87//107 95//183 84//150
f 87//107 96//106 95//183
f 95//183 96//106 97//110
f 79//165 88//167 89//166
f 82//181 88//167 79//165
f 91//177 88//167 82//181
f 251//170 103//129 253//128
f 104//178 98//187 283//169
f 92//176 105//179 90//168
f 104//178 99//180 98//187
f 104//178 105//179 99//180
f 106//182 94//188 107//157
f 78//158 82//181 79//165
f 107//157 102//156 101//172
f 95//183 97//110 94//188
f 84//150 93//184 91//177
f 92//176 94//188 106//182
f 92//176 106//182 105//179
f 234//185 98//187 248//189
f 94//188 91//177 93//184
f 100//174 247//173 248//189
f 111//228 135//190 114//192
f 113//155 257//154 110//196
f 126//232 121//233 125//632
f 131//633 115//633 118//633
f 115//34 131//634 117//36
f 136//235 118//137 135//136
f 121//211 122//635 119//212
f 124//209 121//217 120//210
f 293//220 294//636 120//218
f 119//219 417//222 293//220
f 126//637 125//224 123//205
f 126//637 123//205 117//204
f 127//229 128//51 133//230
f 129//199 130//638 127//200
f 131//227 130//638 129//199
f 128//51 132//50 133//230
f 137//86 130//639 134//234
f 130//239 136//238 134//640
f 122//240 138//641 300//241
f 142//246 141//258 139//247
f 143//642 133//149 431//415
f 141//244 143//642 431//415
f 301//245 141//244 431//415
f 158//263 156//293 155//264
f 223//268 155//264 146//270
f 213//356 154//303 214//359
f 152//299 213//356 211//300
f 181//124 178//273 180//126
f 175//272 176//111 164//284
f 177//127 179//119 171//275
f 171//275 178//273 170//289
f 52//298 187//278 44//277
f 175//272 172//286 173//274
f 173//274 172//286 170//289
f 170//289 172//286 169//291
f 169//291 172//286 160//304
f 160//304 172//286 162//288
f 178//273 173//274 170//289
f 169//291 161//292 165//290
f 161//292 169//291 160//304
f 167//281 165//290 166//282
f 166//282 147//295 246//294
f 166//282 158//263 147//295
f 51//94 188//308 319//297
f 155//264 159//301 151//269
f 156//293 159//301 155//264
f 159//301 160//304 152//299
f 158//263 165//290 156//293
f 161//292 160//304 159//301
f 163//287 164//284 209//302
f 160//304 154//303 152//299
f 152//299 154//303 213//356
f 149//91 317//643 333//90
f 319//297 188//308 311//310
f 188//308 189//623 187//309
f 311//644 186//321 310//645
f 415//318 184//319 297//432
f 317//643 318//276 333//90
f 298//646 297//432 184//319
f 176//111 150//115 332//320
f 310//645 186//321 309//317
f 193//345 338//327 192//331
f 193//345 191//329 338//327
f 194//332 342//337 341//333
f 195//334 194//332 190//325
f 198//342 197//338 194//332
f 196//349 194//332 195//334
f 197//338 206//341 348//340
f 200//346 202//335 193//345
f 203//350 196//349 202//335
f 205//351 194//332 196//349
f 208//353 198//342 205//351
f 206//341 176//111 348//340
f 209//302 206//341 207//352
f 146//270 199//343 183//347
f 146//270 210//271 201//348
f 299//206 184//355 187//278
f 212//357 203//350 204//354
f 213//356 214//359 212//357
f 215//306 207//352 208//353
f 215//306 208//353 214//359
f 176//111 332//320 348//340
f 251//170 252//175 249//171
f 253//128 148//283 252//175
f 252//175 148//283 246//294
f 101//172 249//171 250//361
f 101//172 241//362 247//173
f 241//362 249//171 244//365
f 248//189 239//370 234//185
f 248//189 247//173 239//370
f 239//370 247//173 240//647
f 240//647 247//173 238//363
f 234//185 239//370 235//373
f 242//364 249//171 252//175
f 242//364 245//296 232//375
f 252//175 246//294 242//364
f 245//296 233//266 232//375
f 244//365 249//171 242//364
f 241//362 243//366 238//363
f 244//365 230//367 243//366
f 237//368 243//366 229//369
f 230//367 242//364 232//375
f 240//647 238//363 239//370
f 235//373 239//370 236//371
f 236//371 226//372 224//374
f 234//185 224//374 219//186
f 235//373 236//371 224//374
f 232//375 231//267 222//377
f 231//267 223//268 222//377
f 222//377 223//268 291//386
f 229//369 230//367 227//376
f 221//379 228//378 289//380
f 289//380 227//376 288//381
f 226//372 229//369 221//379
f 224//374 226//372 225//383
f 226//372 221//379 225//383
f 225//383 220//382 218//385
f 289//380 287//391 221//379
f 224//374 225//383 219//186
f 223//268 146//270 183//347
f 291//386 223//268 183//347
f 218//385 285//388 260//387
f 219//186 260//387 373//384
f 220//382 221//379 287//391
f 217//627 258//420 216//421
f 259//160 369//512 367//161
f 216//648 255//424 257//194
f 283//169 373//384 259//160
f 259//160 373//384 372//649
f 282//397 183//347 280//344
f 281//396 280//344 279//398
f 279//398 280//344 271//330
f 276//389 277//400 274//394
f 277//400 266//405 274//394
f 277//400 269//401 266//405
f 273//404 274//394 265//402
f 260//387 273//404 261//403
f 269//401 279//398 268//406
f 269//401 268//406 267//413
f 369//512 259//160 372//649
f 258//650 367//651 256//521
f 288//381 278//399 276//389
f 288//381 292//422 278//399
f 287//391 289//380 276//389
f 289//380 288//381 276//389
f 278//399 282//397 279//398
f 292//422 282//397 278//399
f 256//425 355//410 356//502
f 256//425 356//502 255//652
f 266//405 264//414 265//402
f 261//403 265//402 262//653
f 265//402 263//427 262//653
f 262//653 263//427 390//429
f 262//653 390//429 385//430
f 261//403 262//653 385//430
f 260//387 261//403 385//430
f 293//654 417//438 294//215
f 298//646 296//655 297//432
f 296//655 414//433 297//432
f 295//434 413//557 412//435
f 296//655 295//434 414//433
f 294//215 413//556 295//437
f 133//149 356//360 431//415
f 300//221 301//260 417//222
f 431//415 428//656 301//245
f 353//461 358//518 354//443
f 310//645 309//317 351//316
f 310//645 351//316 311//310
f 314//449 313//453 365//445
f 383//442 306//452 305//440
f 307//451 383//442 394//539
f 395//408 308//324 307//451
f 308//324 337//323 307//451
f 316//454 313//453 314//449
f 316//454 314//449 324//477
f 318//276 317//643 313//456
f 311//310 354//443 319//297
f 321//465 312//444 304//458
f 320//464 376//459 380//441
f 376//459 303//446 302//481
f 320//464 321//465 304//458
f 353//461 352//462 407//492
f 324//477 314//449 315//450
f 342//337 345//469 339//472
f 345//469 334//470 339//472
f 344//468 331//471 334//470
f 342//337 339//472 341//333
f 339//472 328//475 343//473
f 335//474 343//473 328//475
f 328//475 339//472 334//470
f 315//450 312//444 321//465
f 325//479 324//477 321//465
f 321//465 322//466 327//480
f 302//481 365//445 366//519
f 325//479 316//454 324//477
f 329//455 316//454 325//479
f 329//455 325//479 330//483
f 331//471 325//479 326//478
f 330//483 325//479 331//471
f 318//276 329//457 330//467
f 332//320 318//276 330//467
f 337//323 336//482 307//451
f 307//451 336//482 306//452
f 335//474 323//476 305//440
f 328//475 327//480 323//476
f 305//440 323//476 320//464
f 323//476 322//466 320//464
f 351//316 402//484 350//486
f 351//316 350//486 405//657
f 407//492 351//491 406//497
f 416//560 443//559 442//590
f 414//460 416//562 400//496
f 402//493 400//658 444//494
f 435//579 434//501 355//410
f 355//410 357//409 435//579
f 381//503 370//505 373//384
f 360//513 358//659 359//514
f 368//517 361//509 360//511
f 366//519 365//445 358//510
f 363//520 366//519 361//509
f 256//521 367//651 359//522
f 360//511 362//524 368//517
f 369//512 370//660 362//515
f 369//512 372//649 370//660
f 372//649 373//384 370//660
f 374//525 364//516 368//517
f 371//504 374//525 362//524
f 363//520 364//516 374//525
f 378//508 374//525 375//507
f 377//526 374//525 378//508
f 376//459 377//526 380//441
f 256//661 358//535 357//498
f 357//498 358//535 439//542
f 357//498 439//542 433//499
f 384//530 381//503 373//384
f 385//430 384//530 373//384
f 385//430 390//429 386//529
f 382//506 388//533 378//508
f 389//532 382//506 387//531
f 386//529 389//532 387//531
f 390//429 389//532 386//529
f 390//429 392//428 389//532
f 358//535 407//537 439//542
f 388//533 393//538 379//527
f 389//532 391//534 388//533
f 391//534 393//538 388//533
f 398//407 395//408 396//412
f 416//560 442//590 400//658
f 439//542 407//537 406//662
f 439//542 406//662 404//540
f 400//658 442//590 399//663
f 400//658 399//663 444//494
f 401//544 439//542 403//541
f 414//460 411//664 425//561
f 409//555 294//215 422//550
f 412//665 410//666 411//664
f 408//551 409//553 424//546
f 410//554 413//557 408//551
f 411//664 410//666 425//561
f 294//215 421//439 419//549
f 412//435 413//557 410//554
f 425//561 423//569 416//562
f 416//560 449//566 452//558
f 419//549 421//439 418//667
f 420//668 419//567 449//566
f 445//563 447//669 418//564
f 422//547 419//670 426//548
f 424//546 426//548 420//570
f 426//548 419//670 420//570
f 418//564 447//669 448//597
f 423//572 420//671 449//566
f 430//581 439//542 440//585
f 301//260 446//672 417//222
f 433//499 432//583 435//500
f 430//584 429//576 431//578
f 430//584 427//575 429//576
f 428//656 431//415 429//673
f 429//673 436//674 428//656
f 428//656 436//674 301//245
f 439//542 444//545 399//587
f 436//577 441//574 440//573
f 437//675 451//589 450//598
f 451//589 437//676 439//591
f 452//558 451//589 443//559
f 438//592 440//573 437//595
f 448//677 447//677 450//677
f 449//566 448//597 452//558
f 436//674 450//601 301//245
f 417//604 445//563 421//565
f 301//245 450//601 446//602
