# G1 exterior visual; derived from pinned Unitree/TWIST2 CAD.
v 0.0422583148 0.0207707882 0.0195441749
v 0.0399691537 0.0213520192 0.00580503186
v 0.0452753417 0.0174720362 -0.0294873696
v 0.0460945293 0.0164658595 -0.0402834304
v 0.0470912829 0.0138316741 -0.0319957957
v 0.0471226051 0.0129207317 -0.0407795608
v 0.0428393334 0.0195772965 -0.0275940131
v 0.0434014648 0.0192891173 -0.0398976095
v 0.039997194 0.0208809134 -0.026171701
v 0.0370932557 0.0217458978 -0.0393615514
v 0.0219487827 0.0227360055 -0.0372190103
v 0.0385436639 0.0221176352 0.020146938
v 0.0349367112 0.0226964392 0.0210046899
v 0.0436213352 0.019480288 0.00788576342
v 0.0446853749 0.0188330766 0.0193787701
v 0.0459732115 0.0167257879 0.0102109071
v 0.046935536 0.0149086192 0.0196583699
v 0.0471287891 0.0130857341 0.0125553068
v 0.0687823072 0.0102345617 -0.0432746895
v 0.0709435344 0.0121901939 -0.0397341773
v 0.0689546913 0.0183672309 -0.0410930999
v 0.0709370896 0.0235718563 -0.0327830799
v 0.0689341277 0.0236044861 -0.038052246
v 0.0689437091 0.028155338 -0.0334598348
v 0.0689415038 0.0305809081 -0.0297005288
v 0.0709348321 0.0305809435 -0.0219833795
v 0.0689110309 0.0334965698 -0.022165373
v 0.0687309057 0.00990255736 0.0220918506
v 0.0511285998 0.00742857764 0.0244897082
v 0.0494641736 0.00946416985 0.0226722211
v 0.0491620414 0.012278188 0.0219163261
v 0.0669184476 0.0074766106 0.024494458
v 0.0669534504 -0.00404921081 0.0244485717
v 0.051084023 -0.00399886817 0.0244190805
v 0.0181390438 0.0227101836 -0.0174574442
v 0.0233384594 0.0227101836 -0.00896194205
v 0.0251732357 0.0227101855 -0.000308869552
v 0.00127234019 0.0227101892 -0.0251429603
v -0.01244618 0.0227137487 -0.0272562504
v 0.0108781364 0.0227101874 -0.0225092508
v 0.0185619313 0.0227101892 0.0170071144
v 0.0231478792 0.0227101874 0.00944329798
v -0.0109072477 0.0227101836 -0.022712579
v -0.0198503714 0.0227101836 -0.0222536456
v -0.018046042 0.0227101836 -0.0173014589
v -0.0243045837 0.0227101818 -0.0172785763
v -0.021781791 0.0227101836 -0.0122700324
v -0.0288312733 0.0227137916 -0.00815348234
v -0.0250134561 0.0227101874 -0.00284857815
v -0.0297751129 0.0227101874 0.00164473103
v -0.0275467671 0.0227147453 0.0118368063
v -0.023291776 0.0227101855 0.00955407787
v -0.0222536493 0.0227101874 0.0198503789
v -0.01840044 0.0227101874 0.0169240627
v -0.0172785725 0.0227101855 0.0243045893
v -0.0104387477 0.0227101836 0.0229089484
v -0.00815347303 0.0227131918 0.028831251
v 0.00188891718 0.0227101855 0.0251041707
v 0.00346814562 0.0227144957 0.0297054667
v 0.0104096886 0.0227101855 0.0227296818
v 0.0487693064 0.0156010445 -0.0423495807
v 0.0466421582 0.0197900198 -0.0416205265
v 0.0425160378 0.0229878984 -0.040903639
v 0.0365453921 0.0247759186 -0.0400333852
v 0.0252540689 0.0257083625 -0.038097769
v 0.0709248781 0.00796167925 0.0200297218
v 0.0689084902 0.015840115 0.0202325825
v 0.0709232911 0.0171851031 0.0164975505
v 0.0689150468 0.0221327189 0.0176510736
v 0.0709248483 0.0278545842 0.00687940791
v 0.0689186677 0.0280574579 0.0127715338
v 0.0689367726 0.03103742 0.00817243848
v 0.0689327121 0.0331546925 0.00252793031
v 0.0709281787 0.0320820212 -0.00399778783
v 0.0689270943 0.034876965 -0.00934527069
v 0.0709361658 0.0326731279 -0.0125453947
v 0.0346245542 0.0345057398 -0.0151584018
v 0.0406133011 0.0347399414 -0.00808760617
v 0.0709214061 -0.000560729823 0.0204808433
v 0.0471323766 -0.00133835652 0.0148748094
v 0.0471302979 0.00458691455 0.0205446016
v 0.047132384 0.00507011125 0.0148805035
v 0.0471328497 -0.0263382345 0.00303616421
v 0.047130432 -0.0181803163 0.0134868156
v 0.04713374 -0.0131121343 0.0100838291
v 0.0471328348 -0.0075348285 0.0132401139
v 0.0471461415 -0.00763937319 -0.0330295749
v 0.0471443608 -0.0190854967 -0.0336230844
v 0.0471452437 -0.0131120495 -0.029916171
v 0.0471496545 -0.00617461512 -0.0406432487
v 0.0471466295 -0.00156238826 -0.0346769057
v 0.0471466556 0.00473345304 -0.0347536728
v 0.047148589 0.00609588297 -0.0414379612
v 0.047132194 -0.00576644391 0.0197827294
v 0.0471402891 -0.026835816 -0.0228665061
v 0.0471365452 -0.0294091478 -0.00986099057
v 0.070923686 -0.00109246431 0.0193780456
v 0.0709242299 0.0123720774 0.0176010299
v 0.0709251314 -0.00732850004 0.0192874838
v 0.0709249601 -0.013922344 0.0149231544
v 0.0709397644 0.0147135649 -0.036423292
v 0.0709396377 -0.0117139053 -0.0360304788
v 0.0709403455 -0.00440132339 -0.0410771817
v 0.0709401891 0.00146113685 -0.0393619575
v 0.070938684 -0.0156784113 -0.0361733325
v 0.0709264278 0.0236068983 0.00997017138
v 0.070936203 0.00672212662 -0.0410082191
v 0.0709260851 -0.0184257757 0.0133465929
v 0.070927754 -0.0233881902 0.00518408138
v 0.0709298402 0.0302219875 -0.00189120567
v 0.0709373131 0.0252460539 -0.0278489888
v 0.0709353387 -0.025316963 -0.0211758558
v 0.070938684 -0.0230006296 -0.0292523261
v 0.0709378049 -0.0196807515 -0.0296702832
v 0.0709337369 0.0308100767 -0.0154597303
v 0.0709314793 -0.0274762809 -0.00776729872
v 0.0709379688 -0.0286786687 -0.0177575853
v 0.0709285885 -0.0257302411 0.00409443909
v 0.070932433 -0.0289225839 -0.00517715374
v -0.00493728789 0.0344462655 -0.00365641341
v -0.00446119718 0.0345507115 0.00271913712
v -0.000459595089 0.0329880714 0.0138579393
v 0.00548321428 0.0285909753 0.024424091
v 0.00106355851 0.0309964474 0.0198053159
v -0.0118946237 0.0283172205 -0.0228203777
v -0.0121982917 0.0257187877 -0.0273381006
v -0.000220092552 0.0344222188 0.00601819903
v -0.00929594785 0.0310171414 -0.0174241588
v -0.00379153807 0.0330244228 -0.0129984571
v 0.00400996348 0.0257384498 0.0296175815
v -0.00302524469 0.0282300394 0.0255970545
v -0.00514334533 0.0256988872 0.029469287
v -0.0180557314 0.0282199439 0.0184235666
v -0.0222398341 0.0257049501 0.0199952517
v -0.014929249 0.0257254764 0.0259819608
v -0.0109816687 0.0282013174 0.02327016
v -0.0255970042 0.0282304846 -0.00302518136
v -0.0294692852 0.0256989766 -0.00514331833
v -0.0295191091 0.0257474426 0.00484982319
v -0.0241965018 0.0283323117 0.00864494685
v -0.0267234836 0.0257053915 0.013360857
v -0.0199952405 0.0257050339 -0.0222398359
v -0.0215848498 0.0283428915 -0.0139113571
v -0.025981959 0.0257255752 -0.0149292229
v -0.00973605178 0.0310626198 0.0172858667
v -0.0182444993 0.0310605355 0.00779691245
v -0.0194948521 0.0310167689 -0.00363367773
v -0.0158477202 0.0309918951 -0.0118616894
v -0.00808086991 0.0330306031 0.0107439226
v -0.0124591729 0.0330465138 0.00528565701
v -0.013253998 0.0330368951 -0.00250580139
v -0.00964119751 0.03304765 -0.00949917082
v 0.0292855389 0.0279350467 -0.0355980881
v 0.0336805545 0.0302930828 -0.0319396108
v 0.0361036733 0.0336017981 -0.0216297619
v 0.039796792 0.033774551 -0.000279182481
v 0.029535668 0.0322778225 0.00856351387
v 0.0456129275 0.0290338676 0.0124170203
v 0.036521934 0.0256518889 0.0205984674
v 0.0516741276 0.0234378651 0.0177546311
v 0.0475803614 0.0267197527 0.01534566
v 0.0485773683 0.0166608114 0.0211508516
v 0.0504707024 0.0195894148 0.0200346764
v 0.0466336422 0.0206467453 0.0204311311
v 0.0420177169 0.0242409129 0.020006597
v 0.0446255505 0.0227332525 0.0200695638
v 0.0454353951 0.0320886932 0.00626142789
v 0.0332087278 0.0322679095 -0.0264780205
v 0.0443388186 0.0296769496 -0.0337676555
v 0.0438540243 0.0263672788 -0.0385278501
v 0.0529383644 0.0314921737 -0.0288347378
v 0.0374039337 0.0281690937 -0.0364126712
v 0.0493314937 0.0099130217 -0.0433322117
v 0.051133763 0.00739485305 -0.0454109199
v 0.0668894202 0.00746502355 -0.0454029702
v 0.0669710338 -0.0040545864 -0.045349922
v 0.0511300601 -0.0039483807 -0.0453762785
v -0.00812321622 0.0204759873 -0.0236965138
v -0.0160528701 0.0204759855 -0.0192875471
v -0.0217817873 0.0204759855 -0.0122700334
v -0.024859 0.0204759836 -0.00397709338
v -0.023700092 0.0204759892 0.00849074312
v -0.0184004381 0.0204759818 0.0169240609
v -0.011464294 0.0204759873 0.0224133246
v 0.00075145188 0.0204759873 0.025163915
v 0.0127812969 0.0204759855 0.0216892995
v 0.0216492284 0.0204759818 0.0128490459
v 0.025161447 0.0204759855 0.000830108882
v 0.022449052 0.0204759836 -0.0113941878
v 0.0161342025 0.0204759873 -0.0190967973
v 0.00856477115 0.0204759818 -0.0236734394
v -0.00131132698 0.0204759818 -0.024965588
v 0.04941779 -0.00574757066 -0.0430555083
v 0.0686992258 -0.00614484027 -0.0428671911
v 0.0689267963 -0.0220552627 0.0125861354
v 0.0689742267 -0.028111821 -0.024809977
v 0.0689415485 -0.0155335795 -0.0386923812
v 0.068926841 -0.0228069108 -0.032615561
v 0.0689206943 -0.030857699 -0.015875401
v 0.0689246505 -0.0312665217 -0.00830911566
v 0.0689250678 -0.0300544556 -0.00141963176
v 0.0689035654 -0.0273130108 0.00536229275
v 0.0689288154 -0.0148507673 0.0181300286
v 0.0687506124 -0.00621552812 0.0218821857
v 0.0493469499 -0.0060211625 0.0219411738
v 0.0492032096 -0.0150969625 -0.0389674939
v 0.0491318554 -0.0170458071 0.016660329
v 0.0491308831 -0.0108418288 0.0200339612
v 0.0491331778 -0.0223892778 0.0120431846
v 0.0491386205 -0.0310688224 -0.0069274772
v 0.0491461121 -0.0223891884 -0.0329600237
v 0.0491348021 -0.0266272295 0.00639424892
v 0.0491366535 -0.0295653194 -2.74637059e-05
v 0.0491406657 -0.0310688149 -0.0139894001
v 0.0491426475 -0.0295652766 -0.020889407
v 0.0491444953 -0.0266271587 -0.0273111053
v 0.0399999991 0.0112694772 0.0132568218
v 0.0399999991 0.0168523844 0.0101104528
v 0.0400000066 0.00507010939 0.0148805017
v 0.0400000028 -0.00133835874 0.0148748094
v 0.0399999954 -0.00753482711 0.0132401148
v 0.0400000066 -0.0131121362 0.0100838244
v 0.0400000028 -0.0131120486 -0.0299161747
v 0.0400000066 -0.00763937552 -0.0330295786
v 0.0399999991 -0.00156238675 -0.0346769057
v 0.0399999954 0.00473345071 -0.0347536691
v 0.0399999917 0.0108487969 -0.0332549997
v 0.0399999991 0.0163957532 -0.0302759632
v 0.0979460627 -0.00669363141 -0.0379268229
v 0.097917214 -0.0131336218 -0.0350697488
v 0.0979172289 -0.0185294207 -0.0309268776
v 0.0979172215 -0.0228244923 -0.025651129
v 0.0978825241 -0.0263950787 -0.0179282371
v 0.097917214 -0.0274050012 -0.00948007125
v 0.0979172215 -0.0265147723 -0.00273574376
v 0.0979533419 -0.0233151913 0.00514048943
v 0.0979172289 -0.0178968757 0.0116913691
v 0.0979172215 -0.0123804444 0.0156723205
v 0.0978825167 -0.00446299557 0.0187878478
v 0.0979501307 0.00552191678 0.0192154776
v 0.0979460776 0.0136692431 0.0169085432
v 0.0979190394 0.0196929928 0.0133504281
v 0.0979460627 0.0244553443 0.00876912754
v 0.0979190394 0.0282414351 0.00288609648
v 0.0979476869 0.0304293111 -0.00330642913
v 0.0979476869 0.0311843641 -0.0100660138
v 0.0979460776 0.0303533543 -0.0168574844
v 0.0979190543 0.0278953016 -0.0234075859
v 0.0979460627 0.0242106076 -0.028893074
v 0.0979190469 0.0190743767 -0.0336432531
v 0.097947672 0.0133559266 -0.0368731841
v 0.0979330614 0.00663117645 -0.0388434418
v 0.0979340225 -0.000205704797 -0.0391205363
v 0.100000016 0.00218516053 0.010081647
v 0.100000009 -0.00346090784 0.00935534015
v 0.099999994 0.0199550521 -0.018493915
v 0.100000009 0.0171958897 0.00295497454
v 0.100000009 0.0129495934 0.00674636243
v 0.100000001 0.00780714909 0.00918785296
v 0.099999994 0.02163985 -0.0130563471
v 0.0999999866 0.0217244551 -0.00736437971
v 0.100000001 0.020202022 -0.00187914702
v 0.099999994 0.0124494685 -0.0269000586
v 0.100000001 0.0168065727 -0.0232365578
v 0.100000009 -0.00403133035 -0.0290201381
v 0.100000001 0.00159065484 -0.0299139321
v 0.100000001 0.00723672286 -0.0291876271
v 0.0999999866 -0.0164262038 -0.0179531276
v 0.100000001 -0.0134200705 -0.0227872599
v 0.100000001 -0.00917377789 -0.0265786462
v 0.100000016 -0.0161792412 -0.00133837352
v 0.099999994 -0.0178640299 -0.00677592913
v 0.099999994 -0.0179486368 -0.0124678947
v 0.0999999866 -0.00867364928 0.0070677828
v 0.100000009 -0.0130307544 0.00340427132
v 0.0989168212 0.00159065705 -0.0299139302
v 0.0989168286 -0.00403133174 -0.0290201362
v 0.0989168212 -0.00917377975 -0.0265786443
v 0.0989168212 -0.0134200724 -0.022787258
v 0.0989168361 -0.0164262056 -0.0179531369
v 0.0989168137 -0.0179486368 -0.0124678919
v 0.0989168137 -0.0178640317 -0.0067759268
v 0.0989168286 -0.0161792375 -0.00133837119
v 0.0989168286 -0.0130307563 0.00340427365
v 0.0989168361 -0.00867365114 0.00706777442
v 0.0989168286 -0.00346090924 0.00935534295
v 0.0989168286 0.00218515913 0.010081646
v 0.0989168212 0.00780714769 0.00918785576
v 0.0989168286 0.0129495915 0.0067463615
v 0.0989168286 0.0171958879 0.00295497687
v 0.0989168137 0.020202022 -0.00187914481
v 0.0989168361 0.0217244532 -0.00736438995
v 0.0989168063 0.0216398481 -0.0130563444
v 0.0989168137 0.0199550577 -0.0184939113
v 0.0989168212 0.0168065727 -0.023236556
v 0.0989168137 0.0124494666 -0.0269000567
v 0.0989168212 0.00723672891 -0.0291876253
v 0.098919563 0.00478373747 0.0182447489
v 0.0989168361 -0.0165874735 -0.0312846228
v 0.0989139974 -0.00837066211 -0.0364187472
v 0.0989166722 0.00405657804 -0.0382909514
v 0.0989156142 0.0300509799 -0.00613701669
v 0.0989166722 0.0253813863 0.00614678068
v 0.0989166424 0.0156737547 0.0149807455
v 0.0989131033 -0.0045300615 0.0177771505
v 0.0989188477 -0.0160622913 0.0121370852
v 0.0989168063 0.0141928773 -0.0353469066
v 0.0989166796 0.021788815 -0.0302604996
v 0.0989166722 0.0288029034 -0.0191662647
v 0.0989192426 -0.0240497217 0.00173377513
v 0.0989188328 -0.0265194029 -0.0111474758
v 0.0989192501 -0.0229444485 -0.0237668511
vn -0.9627097 -0.2702331 -0.01280838
vn -0.8721564 -0.4890895 0.01160426
vn -0.9921814 -0.1244516 0.009368481
vn -0.7489094 -0.6625082 -0.0147463
vn -0.5652573 -0.8248953 0.00565519
vn -0.4856292 -0.8740889 0.01153147
vn -0.3618543 -0.9320502 0.01854408
vn -0.2268584 -0.9738851 0.009117246
vn -0.2297704 -0.9729571 0.02366508
vn -0.03335055 -0.9994367 0.003737215
vn -0.07438128 -0.997102 0.0159747
vn -0.4774213 -0.8784885 0.01807673
vn -0.3811997 -0.9242613 0.02068417
vn -0.5849018 -0.8101982 0.03832532
vn -0.7550007 -0.655682 0.007418734
vn -0.8486375 -0.5279887 0.03228462
vn -0.9654871 -0.2603712 -0.006451723
vn -0.9870345 -0.1595176 0.01780335
vn 0.783867 0.08532462 -0.6150383
vn 0.8964468 0.1990979 -0.3959081
vn 0.9513625 0.08711722 -0.2954996
vn 0.9678267 0.178196 -0.1776451
vn 0.9071761 0.2432088 -0.343338
vn 0.8977708 0.3511931 -0.2658403
vn 0.8919948 0.3892217 -0.229895
vn 0.948157 0.3006793 -0.102909
vn 0.8036013 0.5736203 -0.1586966
vn -0.002356808 0.7045674 0.7096332
vn 0.01665512 0.4653069 0.8849927
vn 0.006294879 0.6725059 0.740065
vn -0.4518536 0.2296715 0.8620205
vn -0.3195983 0.1845787 0.9294018
vn -0.0002881692 -0.003982016 0.999992
vn -0.001242773 -0.005297404 0.9999852
vn -0.0009227062 -0.004856373 0.9999878
vn -0.001878277 -0.006173086 0.9999792
vn 0.00135678 -0.9999985 -0.001045075
vn 0.001204137 -0.9999988 -0.0009113154
vn -0.00232716 -0.9999972 0.0004204698
vn 0.0001115733 -0.9999984 -0.001786664
vn -6.614039e-05 -0.9999996 -0.0009526833
vn 0.0005759791 -0.999999 -0.00132171
vn -0.0006615523 -0.9999995 -0.000729848
vn -0.0008775991 -0.9999996 -0.0002942196
vn -8.346698e-05 -0.9999998 -0.000625961
vn -7.310997e-06 -1 -0.0001451956
vn 1.872031e-07 -1 -3.236673e-07
vn -0.0001274143 -1 6.464934e-05
vn -0.0003189972 -0.9999999 4.960943e-05
vn -0.0005216633 -0.9999998 -0.0001796097
vn -0.0003721959 -0.9999999 -0.0001708842
vn 0.0001641197 -1 0.0001738683
vn -0.0008200778 -0.9999996 0.0001514823
vn -0.0008687979 -0.9999996 0.000107956
vn -0.0001703239 -1 1.713999e-05
vn -6.295101e-08 -1 8.929626e-08
vn 2.187429e-05 -1 0.0001083404
vn 1.848934e-05 -0.9999999 0.0003814712
vn -2.322383e-05 -0.9999998 0.0005839979
vn 0.0001044425 -0.9999996 0.0008380534
vn 9.719683e-06 -0.9999998 0.0007366324
vn -0.0004486218 -0.9999999 3.385503e-05
vn -0.664745 -0.07239314 -0.7435545
vn -0.7175516 0.06080123 -0.6938464
vn -0.6966735 0.01518061 -0.7172277
vn -0.5748174 -0.185497 -0.7969792
vn -0.4815584 -0.2715801 -0.8332741
vn -0.3494616 -0.308549 -0.8846887
vn -0.257937 -0.300336 -0.9182956
vn -0.1954023 -0.247372 -0.9490126
vn -0.1946389 -0.245742 -0.9495929
vn -0.1814341 -0.1016531 -0.9781351
vn -0.2469497 -0.01185543 -0.9689558
vn 0.748464 0.1148133 0.6531612
vn 0.9190557 0.05425397 0.3903757
vn 0.8192979 0.2005297 0.537158
vn 0.9539655 0.134311 0.2681611
vn 0.8894894 0.2668684 0.3709311
vn 0.9602769 0.2392855 0.1435644
vn 0.9082628 0.2924899 0.2991792
vn 0.8648454 0.448813 0.2249653
vn 0.843752 0.5084181 0.1720282
vn 0.9229416 0.3797286 0.06312592
vn 0.7412821 0.670719 0.02523504
vn 0.9146979 0.4028779 -0.03189218
vn 0.05538951 0.5139241 0.8560456
vn 0.0390444 0.7512169 0.6588996
vn 0.09827814 0.5784274 0.809792
vn 0.04401882 0.3303401 0.9428349
vn 0.01558894 0.9734241 -0.2284786
vn -0.01921828 0.9789989 -0.2029579
vn -0.01792528 0.9956616 -0.09130513
vn 0.005896172 0.9998109 0.01852966
vn 0.002815697 0.9990782 0.04283703
vn 0.02640822 0.9845752 0.1729576
vn 0.009090513 0.9689759 0.2469879
vn 0.7508551 0.04490478 0.6589386
vn 0.7291795 -0.03341726 0.6835061
vn -1 -9.33062e-05 -0.000195738
vn -0.9151825 -0.1066831 0.388664
vn -0.999975 -0.004830819 -0.005163077
vn -0.9999999 -0.0003221919 -0.0003957492
vn -0.902871 -0.3879405 0.185273
vn -0.9029414 -0.2752576 0.3300455
vn -0.9999998 0.0002402519 -0.0005208337
vn -1 0.0001352903 -0.0002143961
vn -0.9999999 0.0001004267 -0.0003721019
vn -0.8976123 -0.2902661 -0.3317194
vn -1 0.000243087 -0.000152494
vn -0.9087666 -0.1147895 -0.4012063
vn -0.9999999 -1.907391e-05 -0.000493313
vn -0.9999958 -0.002766416 -0.0008848233
vn -0.9999955 -0.002653596 -0.001412203
vn -0.9027506 -0.3940428 -0.1725447
vn -0.9027964 -0.4300106 0.007041245
vn 1 0.0002060095 0.0001619575
vn 0.9999986 4.586129e-05 0.001692812
vn 0.9999978 -0.0001298891 0.002130089
vn 0.9110359 -0.1349939 0.3896026
vn 0.9999996 0.0004992214 -0.0007287111
vn 1 -0.0001902039 -0.0001384887
vn 1 1.354667e-05 -3.353218e-05
vn 0.9999994 0.0003156268 -0.001032225
vn 0.9999999 -0.0002332873 -0.0002376191
vn 0.9999993 -0.0003375539 0.001120572
vn 0.9295914 0.02365043 -0.3678322
vn 0.9004318 -0.2757453 0.336433
vn 0.9999999 0.0003324436 3.940304e-05
vn 0.9999941 0.002224435 0.002606024
vn 0.9999998 0.0007010014 -0.0002581243
vn 0.9999986 0.001511294 0.0007973528
vn 0.9078801 -0.337328 -0.248925
vn 0.9999996 0.0003490823 0.0006793131
vn 0.9999976 0.001918055 0.001084281
vn 0.9999989 -0.001456796 0.0002170479
vn 0.999999 0.001317486 0.0003952737
vn 0.8940894 -0.4344811 -0.1087674
vn 0.9999999 0.0003185302 0.0001624158
vn 0.9094236 -0.4101056 0.06900799
vn -0.7182901 0.005114628 0.695725
vn -0.7089447 0.01872749 0.7050153
vn -0.6302575 -0.05944103 0.7741073
vn 0.06441431 0.8593894 0.5072481
vn 0.09088052 0.8870509 0.4526383
vn -0.06169857 0.8819019 0.467378
vn -0.1048007 0.8577132 0.5033336
vn -0.331966 0.8844101 0.328051
vn -0.3895921 0.8577464 0.3353938
vn -0.248436 0.8604811 0.4448052
vn -0.1908756 0.8753883 0.4441416
vn -0.4674585 0.8824651 -0.05232454
vn -0.5042534 0.8574053 -0.1028818
vn -0.4970123 0.8648341 0.070998
vn -0.4429361 0.8830123 0.1552316
vn -0.4486731 0.8602056 0.2423606
vn -0.2240878 0.8832445 -0.4119028
vn -0.3314253 0.8692647 -0.3667915
vn -0.3927068 0.8839253 -0.2538848
vn -0.4541654 0.8575014 -0.2417129
vn -0.2061928 0.8535858 -0.4784095
vn 0.01411566 0.9300004 0.3672875
vn -0.1807121 0.9313183 0.3162111
vn -0.3361422 0.9308261 0.1434268
vn -0.363466 0.929621 -0.0608049
vn -0.2927277 0.9294128 -0.2247269
vn -0.1781911 0.9296638 -0.3224486
vn -0.01357549 0.9666719 0.2556581
vn -0.1536426 0.9681628 0.1976227
vn -0.2317634 0.9682542 0.09364531
vn -0.2469214 0.9681283 -0.04192249
vn -0.1818391 0.9677362 -0.1744167
vn -0.08984306 0.9691387 -0.2295615
vn -0.01228786 0.9923759 0.1226342
vn -0.08850145 0.9948068 0.05026838
vn -0.09204093 0.9933143 -0.06967808
vn -0.1258165 0.8267683 -0.5482922
vn -0.1050431 0.854472 -0.5087668
vn -0.06126172 0.9141237 -0.4007803
vn -0.04948403 0.9534205 -0.297558
vn 0.07807758 0.9494815 0.3039548
vn 0.07513234 0.8600224 0.5046946
vn 0.170972 0.8289772 0.5325087
vn -0.02333803 0.1614041 0.9866124
vn -0.2258625 0.10055 0.9689561
vn 0.1265472 0.3712592 0.9198654
vn 0.02465967 0.939701 0.3411067
vn 0.01846719 0.8947418 0.4462018
vn 0.1009669 0.7532084 0.6499867
vn 0.08125874 0.3063375 0.9484484
vn 0.2662439 0.7211452 0.6395809
vn -0.3381691 -0.2207713 0.9148233
vn -0.0708349 -0.1489881 0.9862986
vn 0.03280229 -0.1162714 0.9926757
vn 0.1338665 -0.06689758 0.9887388
vn 0.2059502 -0.02217344 0.9783112
vn 0.254014 -0.00330692 0.9671949
vn 0.01438871 0.9405549 -0.3393367
vn 0.02405366 0.8853091 -0.4643805
vn -0.001329363 0.3641053 -0.9313568
vn 0.02191224 0.1906319 -0.981417
vn 0.009386417 0.3980661 -0.9173087
vn 0.03848401 0.2443322 -0.9689276
vn 0.0519824 0.3671534 -0.9287068
vn 0.05292585 0.6985847 -0.7135673
vn 0.04182756 0.8926371 -0.4488312
vn 0.0681416 0.7858823 -0.6146102
vn 0.08651409 0.6067143 -0.7901981
vn 0.05901259 0.5155295 -0.8548374
vn -0.02399552 0.705157 -0.7086451
vn -0.03009291 0.8205292 -0.570812
vn 0.1043586 -0.00887402 0.9945002
vn 0.1430719 0.003128829 0.9897074
vn -0.4252434 0.006303239 -0.9050571
vn -0.4088384 0.008869545 -0.9125638
vn -0.1341126 -0.05130631 0.989637
vn -0.2866519 0.03285639 0.9574712
vn -0.4883059 -0.06322183 0.8703794
vn -0.6131535 0.0388143 0.7890097
vn -0.7476118 -0.01510281 0.6639642
vn -0.7387351 -0.03242847 0.6732153
vn -0.9222983 0.02112694 0.3859009
vn -0.8766791 -0.003813992 0.4810607
vn -0.9832307 -0.05575316 0.1736351
vn -0.9993359 0.006277343 0.03589563
vn -0.9892339 -0.02596118 -0.1440216
vn -0.9558001 0.03821196 -0.2915239
vn -0.8703797 -0.06321971 -0.4883055
vn -0.7890078 0.03882048 -0.6131554
vn -0.6679667 -0.01532182 -0.7440335
vn -0.6751929 -0.0246212 -0.7372303
vn -0.7064542 0.001482095 -0.7077572
vn -0.7186013 0.007844893 -0.695378
vn 0.7317718 -0.1398789 -0.6670412
vn 0.735707 0.008326599 -0.6772487
vn 0.001633225 -0.004593406 -0.9999881
vn 0.0009662661 -0.003672407 -0.9999928
vn -0.003849716 0.3674158 -0.9300489
vn -0.001233964 0.381853 -0.9242223
vn -0.2567165 0.09821831 -0.9614831
vn -0.6308199 0.06130998 -0.7735033
vn -0.4404533 -0.09045477 -0.8932071
vn -0.743784 -0.0504955 -0.66651
vn -0.876536 -0.01420866 -0.4811266
vn -0.8799227 0.007835735 -0.4750522
vn -0.983043 0.01538326 -0.1827291
vn -0.998239 -0.02605691 -0.05329071
vn -0.9596297 0.02605495 0.2800573
vn -0.9152488 -0.01538589 0.4025953
vn -0.7373165 -0.007857175 0.6755018
vn -0.7346709 0.007854673 0.6783781
vn -0.4775626 0.01538331 0.878463
vn -0.3591557 -0.02605704 0.9329139
vn -0.01814616 0.01988328 0.9996376
vn 0.1193238 -0.03755997 0.9921446
vn 0.5209559 0.08650962 0.8491885
vn 0.3416497 -0.07363453 0.9369383
vn 0.7019512 -0.2061687 0.6817323
vn 0.8602597 0.06637308 0.5055174
vn 0.9418645 -0.1143275 0.3159439
vn 0.9980479 -0.002084287 0.06241791
vn 0.9966745 -0.04366231 -0.06880041
vn 0.8808536 0.09733068 -0.463275
vn 0.9565418 -0.07363366 -0.2821448
vn 0.7279657 -0.1147784 -0.6759379
vn 0.5808348 0.0736354 -0.8106842
vn 0.3211879 0.1147769 -0.9400343
vn 0.504147 -0.07363905 -0.8604726
vn 0.06913262 -0.09709902 -0.9928708
vn -0.1121126 0.05086284 -0.992393
vn 7.689508e-07 -1 3.21126e-07
vn -5.043809e-07 -1 0
vn -7.71885e-08 -1 -1.18408e-07
vn -8.585384e-07 -1 -1.320752e-07
vn 2.407279e-07 -1 -3.23973e-08
vn 4.037096e-07 -1 -1.316628e-07
vn -1.914038e-07 -1 2.170118e-07
vn -8.436938e-08 -1 1.227959e-07
vn -8.171919e-08 -1 2.090921e-08
vn -4.6566e-08 -1 -1.07867e-07
vn 5.893692e-08 -1 -8.135675e-08
vn 3.819534e-08 -1 2.212422e-06
vn 5.913163e-08 -1 -4.933815e-07
vn -1.352067e-06 -1 -5.829487e-06
vn -1.476375e-07 -1 3.463338e-07
vn -0.7591391 -0.02551982 -0.6504281
vn -0.6835502 -0.2477534 -0.6865693
vn -0.004068995 -0.7663695 -0.6423871
vn -0.0002910121 -0.5634554 -0.8261465
vn -0.009647431 -0.7848995 -0.619548
vn -0.00380831 -0.573247 -0.8193738
vn 0.7156476 -0.3984751 -0.5736429
vn 0.725428 -0.3374342 -0.5999102
vn 0.7131031 -0.2405794 -0.6584873
vn 0.723635 -0.4990262 -0.4767863
vn 0.410919 -0.8203387 -0.3977311
vn 0.3650891 -0.9199158 -0.1430559
vn 0.7415981 -0.6706383 0.01662585
vn 0.7267451 -0.6557933 0.2043934
vn 0.7162715 -0.6143606 0.3309321
vn 0.7030518 -0.6188277 0.3503861
vn 0.3881505 -0.6728821 0.6297371
vn 0.4063725 -0.4557357 0.7919384
vn 0.7295535 -0.1642765 0.6639013
vn 0.002157799 -0.5577415 0.8300119
vn -0.003623978 -0.7654 0.6435447
vn -0.005612212 -0.7720627 0.6355214
vn -0.002944882 -0.5478692 0.8365588
vn -0.7317263 -0.06437068 0.6785522
vn -0.6915697 -0.2399236 0.6812989
vn 0.7357887 -0.07090562 0.673489
vn -0.3879562 -0.5099831 0.7677286
vn -0.4143798 -0.4656952 -0.7819318
vn -0.004558671 -0.4210123 0.9070435
vn -0.4013245 -0.6826118 0.6107207
vn -0.3854234 -0.782543 0.4889532
vn -0.0002341037 -0.8735611 0.4867143
vn -0.4009165 -0.8750303 0.271271
vn -0.004752523 -0.9626588 0.2706758
vn -0.3850212 -0.9151575 0.1193541
vn -0.002839461 -0.9978645 0.06525633
vn -0.403176 -0.9078939 -0.1147948
vn -0.3881957 -0.8800915 -0.2733913
vn -0.4032211 -0.7768978 -0.4835726
vn 0.001673633 -0.7388467 -0.6738715
vn -0.3829184 -0.6805536 -0.6246762
vn 4.690923e-05 -0.5315827 -0.8470064
vn 0.7293951 -0.05386158 -0.681969
vn -0.7637936 -0.2771667 0.582922
vn 0.00801106 0.3623189 0.9320198
vn -0.02197516 0.4146657 0.9097084
vn -0.0197127 0.5595545 0.828559
vn -0.01689784 0.5850903 0.8107921
vn 0.006959712 0.1344215 0.9908998
vn -2.196832e-07 0.1402358 0.9901181
vn -1.247544e-07 -0.1290469 0.9916385
vn -3.730673e-08 -0.1290566 0.9916372
vn -1.199476e-07 -0.3769063 0.9262513
vn -3.762998e-08 -0.3769207 0.9262455
vn -2.562498e-07 -0.4925181 0.8703022
vn -1.850838e-07 -0.4925177 0.8703024
vn -0.02855778 0.6684939 0.7431691
vn -0.05745288 0.6899946 0.7215307
vn 4.489049e-07 -0.494481 -0.8691884
vn 0 -0.4944814 -0.8691882
vn 5.186118e-07 -0.3810942 -0.9245362
vn 4.619102e-07 -0.3810799 -0.9245421
vn 4.111972e-07 -0.1380148 -0.9904302
vn -1.251617e-07 -0.1380055 -0.9904315
vn -5.417154e-07 0.1138187 -0.9935015
vn 0.01297629 0.1280493 -0.9916829
vn 0.001937616 0.3448471 -0.9386569
vn 0.00898242 0.4275416 -0.903951
vn -0.03063815 0.5767046 -0.816378
vn -0.05946048 0.6738712 -0.7364524
vn -0.04184411 0.6655259 -0.7452008
vn -0.00412622 0.6041077 -0.796892
vn -1 -1.405196e-07 -2.333037e-06
vn -1 -6.206697e-07 2.362242e-06
vn -1 2.808208e-07 5.194953e-06
vn -1 -0.0003637524 0.0001391678
vn -0.9999999 -0.000314146 -0.0004415341
vn -1 -7.885377e-05 -3.677329e-05
vn -1 -6.653587e-05 -0.0001344209
vn -1 2.876492e-08 7.943205e-07
vn -0.9999827 -5.380549e-06 0.00588473
vn -0.9999987 -0.0007273178 0.001350215
vn -0.9999983 0.0008943393 -0.001658044
vn -0.9999998 0.0001776958 -0.0006481057
vn -0.9999999 8.007783e-06 -0.0003425509
vn -1 -4.593232e-05 -0.0002069315
vn 2.61105e-07 -1 -2.243863e-06
vn -8.636827e-08 -1 -2.105067e-06
vn 2.170693e-07 -1 -2.226273e-06
vn -1.303404e-07 -1 -2.087502e-06
vn 0.4103246 -0.2368061 -0.8806569
vn -0.0134379 -0.4481108 -0.8938771
vn -0.01882518 -0.01485259 -0.9997124
vn 0.4242934 -0.4698697 -0.7740786
vn -0.0009115289 -0.6952134 -0.7188029
vn -0.01101113 -0.7364335 -0.6764203
vn 0.3758662 -0.7718965 -0.5127381
vn -0.01472923 -0.9305709 -0.3658153
vn 0.4518742 -0.8593146 -0.2395584
vn -0.01760258 -0.9972255 0.07232939
vn 0.374341 -0.9268927 0.02717965
vn 0.4491556 -0.8673257 0.2144888
vn -0.01765944 -0.8583484 0.5127631
vn 0.4400062 -0.7583886 0.4808755
vn 0.3790687 -0.6500578 0.6585833
vn -0.01759859 -0.5363625 0.8438043
vn 0.4474384 -0.4172581 0.7910085
vn 0.002615701 -0.2140451 0.9768203
vn -0.01893418 -0.102921 0.9945093
vn 0.007834895 0.1181263 0.9929677
vn -0.01935744 0.3569862 0.9339091
vn 0.4120432 0.3386742 0.8458842
vn 0.4532001 0.5568638 0.6960693
vn -0.01849539 0.7373968 0.6752065
vn 0.4233412 0.6803905 0.5982064
vn 0.4528601 0.8100922 0.372382
vn -0.01866689 0.9619568 0.2725632
vn 0.4313477 0.8726824 0.2288331
vn 0.4617464 0.8865846 -0.02753277
vn -0.01855455 0.9819233 -0.1883678
vn 0.4240452 0.8861793 -0.1867403
vn 0.4532072 0.7821878 -0.4275343
vn -0.01850098 0.7929975 -0.6089439
vn 0.4233457 0.7072667 -0.5661732
vn 0.4528587 0.5073988 -0.7331204
vn -0.01871606 0.4356617 -0.8999158
vn 0.00400404 0.3854303 -0.9227283
vn 0.4055705 0.1762116 -0.8969181
vn 0.4580932 -0.08953638 -0.8843834
vn 1 -5.438299e-07 -7.505298e-07
vn 1 -2.458374e-06 -2.485313e-06
vn 1 -2.977224e-07 1.410179e-07
vn 1 -1.707246e-07 -7.382391e-07
vn 1 -4.13209e-06 -1.07148e-06
vn 1 2.02571e-06 4.349846e-07
vn 1 0 1.37492e-06
vn 1 0 -4.668194e-07
vn 1 -1.024396e-06 -4.829209e-07
vn 1 -2.075001e-06 -1.687296e-06
vn 1 0 6.125152e-06
vn 1 1.644294e-07 1.577098e-06
vn 1 2.326855e-06 -8.776205e-07
vn 1 -9.866868e-07 5.305187e-07
vn 1 3.807581e-07 1.20278e-07
vn 1 0 2.153444e-06
vn 1 -1.291346e-07 7.303781e-07
vn 1 6.45642e-07 -1.434155e-06
vn 1 -8.104152e-07 -2.062831e-06
vn 1 -8.868641e-08 -5.68394e-07
vn 1 -7.757367e-07 6.557194e-07
vn 1 1.399508e-06 1.884322e-06
vn -5.787697e-06 -0.01486096 -0.9998896
vn -1.934932e-06 -0.2959649 -0.9551988
vn -1.703264e-06 -0.2959617 -0.9551998
vn 1.254998e-06 -0.5530853 -0.8331246
vn 1.306715e-06 -0.5530826 -0.8331264
vn 3.173807e-07 -0.7653999 -0.6435549
vn 2.560642e-07 -0.7653981 -0.643557
vn 3.404346e-06 -0.9157079 -0.4018447
vn 3.212309e-06 -0.9157058 -0.4018493
vn -3.905016e-08 -0.9918271 -0.1275895
vn -1.828734e-07 -0.9918267 -0.1275925
vn 1.831041e-06 -0.9875969 0.1570104
vn 1.660138e-06 -0.9875973 0.1570083
vn -1.849411e-06 -0.9033558 0.428892
vn -1.863615e-06 -0.9033566 0.4288904
vn 2.564578e-06 -0.7459301 0.6660241
vn 2.371915e-06 -0.7459322 0.6660218
vn -5.43484e-06 -0.528074 0.8491983
vn -5.277064e-06 -0.5280783 0.8491957
vn 9.322906e-07 -0.2674404 0.9635744
vn 1.607437e-06 -0.2674441 0.9635734
vn 1.053279e-06 0.01486328 0.9998895
vn 1.010439e-06 0.0148604 0.9998896
vn 4.198101e-07 0.2959634 0.9551993
vn 1.331794e-07 0.2959603 0.9552003
vn -1.633912e-06 0.5530865 0.8331239
vn -1.671929e-06 0.5530834 0.8331259
vn -5.492947e-09 0.7654012 0.6435534
vn 2.250554e-07 0.7653987 0.6435564
vn 6.953774e-07 0.9157079 0.4018445
vn 5.044242e-07 0.9157063 0.4018485
vn -2.612339e-06 0.9918271 0.1275895
vn -2.902327e-06 0.9918268 0.1275915
vn -2.37056e-06 0.9875971 -0.1570092
vn -1.996924e-06 0.9875976 -0.1570066
vn 3.731153e-06 0.9033554 -0.4288927
vn 3.688806e-06 0.9033571 -0.4288892
vn -1.956236e-06 0.7459298 -0.6660246
vn -2.510721e-06 0.7459328 -0.6660211
vn -4.506629e-06 0.5280762 -0.849197
vn -4.592556e-06 0.5280799 -0.8491946
vn 2.98221e-07 0.2674397 -0.9635746
vn -3.613449e-07 0.2674443 -0.9635733
vn -5.148779e-06 -0.01486471 -0.9998895
vn 0.9148043 0.02634391 0.4030373
vn 0.9999999 -0.0002429448 -4.240944e-05
vn 1 5.979865e-05 -0.0001823155
vn 1 0.0001638 1.662619e-05
vn 0.9121891 -0.2615288 -0.3154579
vn 1 1.173749e-05 -0.0001771187
vn 0.8883557 -0.1730614 -0.4252926
vn 0.9999999 -9.306838e-05 -0.0003281942
vn 1 -9.580948e-05 -0.0001140825
vn 0.8812636 0.02676194 -0.4718668
vn 1 8.612908e-06 -1.902359e-05
vn 1 6.446535e-06 -7.278583e-06
vn 1 0.0001193359 4.37954e-05
vn 0.8885185 0.4553313 0.05664233
vn 1 8.438288e-05 -6.011723e-06
vn 0.8789538 0.3976066 0.2633429
vn 1 1.524902e-05 1.173965e-05
vn 1 1.137154e-05 1.827688e-05
vn 0.8789216 0.238173 0.4132438
vn 0.902684 -0.1008368 0.4183222
vn 0.9999999 -0.0001245204 0.0004265221
vn 1 0.0001730522 0.0001033756
vn 0.8874306 -0.2838802 0.3631514
vn 1 0.0002002633 -0.0001615345
vn 0.9999999 0.0002557593 -0.0001209204
vn 0.9030233 0.2135643 -0.3727454
vn 0.8788982 0.3290816 -0.3453162
vn 1 1.277712e-05 -1.086593e-05
vn 1 1.51109e-05 -6.831014e-06
vn 0.8789462 0.4487671 -0.1614359
vn 1 1.679191e-05 -4.785468e-06
vn 0.8725595 -0.4505022 0.1889119
vn 1 0.0002607663 -5.961778e-05
vn 0.8819037 -0.4699799 -0.03694037
vn 0.9999999 0.000241552 4.076616e-05
vn 0.9999999 0.0002528451 0.0001170918
vn 0.8818901 -0.4199218 -0.2143255
vn 0.7674101 0.2281826 -0.5991781
vn 0.7414758 0.1007786 0.6633682
vn 0.68879 -0.1387817 0.7115532
vn 0.7571574 -0.4760079 -0.4473579
f 5//1 4//2 6//3
f 3//4 4//2 5//1
f 3//4 8//5 4//2
f 7//6 8//5 3//4
f 7//6 9//7 10//8
f 10//8 8//5 7//6
f 12//9 11//10 10//8
f 12//9 13//11 11//10
f 1//12 12//9 2//13
f 2//13 12//9 10//8
f 2//13 14//14 1//12
f 14//14 15//15 1//12
f 15//15 14//14 16//16
f 15//15 16//16 17//17
f 17//17 16//16 18//18
f 9//7 2//13 10//8
f 19//19 21//20 20//21
f 20//21 21//20 22//22
f 22//22 21//20 23//23
f 22//22 23//23 24//24
f 22//22 24//24 25//25
f 22//22 25//25 26//26
f 25//25 27//27 26//26
f 32//28 28//29 29//30
f 29//30 28//29 30//31
f 30//31 28//29 31//32
f 32//33 29//34 33//35
f 33//35 29//34 34//36
f 35//37 11//10 36//38
f 36//38 11//10 13//11
f 36//38 13//11 37//39
f 38//40 39//41 11//10
f 38//40 11//10 40//42
f 40//42 11//10 35//37
f 41//43 42//44 13//11
f 13//11 42//44 37//39
f 38//40 43//45 39//41
f 39//41 43//45 44//46
f 44//46 43//45 45//47
f 44//46 45//47 46//48
f 46//48 45//47 47//49
f 46//48 47//49 48//50
f 48//50 47//49 49//51
f 48//50 49//51 50//52
f 50//52 49//51 51//53
f 51//53 49//51 52//54
f 51//53 52//54 53//55
f 53//55 52//54 54//56
f 53//55 54//56 55//57
f 55//57 54//56 56//58
f 55//57 56//58 57//59
f 57//59 56//58 58//60
f 57//59 58//60 59//61
f 59//61 58//60 60//62
f 59//61 60//62 13//11
f 13//11 60//62 41//43
f 61//63 173//64 6//65
f 6//65 4//66 61//63
f 61//63 4//66 62//67
f 62//67 4//66 8//68
f 62//67 8//68 63//69
f 8//68 10//70 63//69
f 63//69 10//70 64//71
f 64//71 10//70 65//72
f 65//72 10//70 11//73
f 28//74 66//75 67//76
f 67//76 66//75 68//77
f 67//76 68//77 69//78
f 69//78 68//77 70//79
f 69//78 70//79 71//80
f 71//80 70//79 72//81
f 72//81 70//79 73//82
f 73//82 70//79 74//83
f 73//82 74//83 75//84
f 75//84 74//83 76//85
f 75//84 76//85 27//27
f 27//27 76//85 26//26
f 69//86 71//87 160//88
f 31//32 28//29 67//89
f 27//90 155//91 77//92
f 27//90 77//92 75//93
f 75//93 77//92 78//94
f 75//93 78//94 156//95
f 75//93 156//95 73//96
f 28//74 32//97 79//98
f 66//75 28//74 79//98
f 80//99 94//100 81//101
f 80//99 81//101 82//102
f 82//102 81//101 18//18
f 18//18 81//101 17//17
f 83//103 84//104 85//105
f 85//105 84//104 86//106
f 87//107 88//108 89//109
f 89//109 88//108 85//105
f 90//110 91//111 92//112
f 90//110 92//112 93//113
f 5//1 6//3 93//113
f 5//1 93//113 92//112
f 84//104 94//100 86//106
f 86//106 94//100 80//99
f 88//108 95//114 85//105
f 85//105 95//114 96//115
f 91//111 90//110 87//107
f 87//107 90//110 88//108
f 85//105 96//115 83//103
f 98//116 68//77 66//75
f 98//116 66//75 97//117
f 97//117 66//75 79//118
f 79//118 99//119 97//117
f 97//117 99//119 100//120
f 102//121 103//122 104//123
f 102//121 105//124 103//122
f 20//21 101//125 107//126
f 107//126 101//125 104//123
f 104//123 103//122 107//126
f 100//120 99//119 108//127
f 100//120 108//127 109//128
f 106//129 70//79 68//77
f 106//129 68//77 98//116
f 20//21 22//22 101//125
f 101//125 22//22 111//130
f 112//131 113//132 114//133
f 114//133 113//132 102//121
f 102//121 113//132 105//124
f 110//134 70//79 106//129
f 22//22 26//26 111//130
f 111//130 26//26 115//135
f 26//26 76//85 115//135
f 115//135 76//85 110//134
f 110//134 76//85 74//83
f 110//134 74//83 70//79
f 116//136 117//137 112//131
f 112//131 117//137 113//132
f 109//128 108//127 118//138
f 109//128 118//138 116//136
f 116//136 118//138 119//139
f 116//136 119//139 117//137
f 30//31 81//140 29//141
f 81//140 30//31 17//142
f 17//142 30//31 31//32
f 130//143 123//144 131//145
f 130//143 131//145 132//146
f 133//147 134//148 135//149
f 133//147 135//149 136//150
f 136//150 135//149 131//145
f 131//145 135//149 132//146
f 137//151 138//152 139//153
f 137//151 139//153 140//154
f 140//154 139//153 141//155
f 140//154 141//155 133//147
f 133//147 141//155 134//148
f 125//156 142//157 143//158
f 143//158 142//157 144//159
f 143//158 144//159 137//151
f 137//151 144//159 138//152
f 125//156 126//160 142//157
f 123//144 124//161 131//145
f 131//145 124//161 145//162
f 131//145 145//162 136//150
f 136//150 145//162 133//147
f 133//147 145//162 146//163
f 133//147 146//163 140//154
f 140//154 146//163 137//151
f 137//151 146//163 147//164
f 137//151 147//164 143//158
f 143//158 147//164 148//165
f 143//158 148//165 125//156
f 125//156 148//165 128//166
f 124//161 122//167 145//162
f 145//162 122//167 149//168
f 145//162 149//168 146//163
f 146//163 149//168 150//169
f 146//163 150//169 147//164
f 147//164 150//169 151//170
f 147//164 151//170 148//165
f 148//165 151//170 152//171
f 148//165 152//171 128//166
f 128//166 152//171 129//172
f 122//167 127//173 149//168
f 149//168 127//173 121//174
f 149//168 121//174 150//169
f 150//169 121//174 151//170
f 151//170 121//174 120//175
f 151//170 120//175 152//171
f 152//171 120//175 129//172
f 65//176 126//160 153//177
f 153//177 126//160 125//156
f 153//177 125//156 154//178
f 129//172 155//91 168//179
f 129//172 168//179 128//166
f 128//166 168//179 154//178
f 128//166 154//178 125//156
f 129//172 120//175 155//91
f 155//91 120//175 77//92
f 77//92 120//175 121//174
f 77//92 121//174 78//94
f 78//94 121//174 127//173
f 78//94 127//173 156//95
f 156//95 127//173 122//167
f 156//95 122//167 157//180
f 157//180 122//167 124//161
f 157//180 124//161 123//144
f 157//180 123//144 158//181
f 158//181 123//144 159//182
f 159//182 123//144 130//143
f 164//183 162//184 163//185
f 160//88 164//183 163//185
f 156//95 157//180 167//186
f 167//186 73//96 156//95
f 72//187 73//96 167//186
f 167//186 157//180 158//181
f 71//87 161//188 160//88
f 160//88 163//185 69//86
f 69//86 163//185 162//184
f 69//86 162//184 67//89
f 67//89 162//184 31//32
f 167//186 158//181 72//187
f 158//181 161//188 71//87
f 158//181 71//87 72//187
f 166//189 164//183 160//88
f 166//189 160//88 161//188
f 166//189 161//188 165//190
f 165//190 161//188 158//181
f 165//190 158//181 159//182
f 17//142 31//32 162//184
f 17//142 162//184 15//191
f 15//191 162//184 164//183
f 15//191 164//183 1//192
f 1//192 164//183 166//189
f 1//192 166//189 165//193
f 1//192 165//193 12//194
f 159//195 13//196 12//194
f 159//195 12//194 165//193
f 168//179 171//197 169//198
f 173//199 61//200 19//201
f 62//202 21//203 61//200
f 61//200 21//203 19//201
f 170//204 25//205 24//206
f 170//204 24//206 23//207
f 170//204 23//207 63//208
f 63//208 64//209 170//204
f 170//204 64//209 172//210
f 170//204 172//210 169//198
f 169//198 172//210 154//178
f 169//198 154//178 168//179
f 64//209 65//176 172//210
f 172//210 65//176 153//177
f 172//210 153//177 154//178
f 23//207 21//203 63//208
f 63//208 21//203 62//202
f 155//91 27//90 171//197
f 171//197 27//90 25//205
f 25//205 169//198 171//197
f 25//205 170//204 169//198
f 155//91 171//197 168//179
f 13//196 159//195 59//211
f 59//211 159//195 130//212
f 11//73 39//213 65//72
f 65//72 39//213 126//214
f 59//211 130//212 132//215
f 59//211 132//215 57//216
f 57//216 132//215 135//217
f 57//216 135//217 55//218
f 55//218 135//217 53//219
f 53//219 135//217 134//220
f 53//219 134//220 51//221
f 134//220 141//222 51//221
f 51//221 141//222 139//223
f 51//221 139//223 50//224
f 50//224 139//223 138//225
f 50//224 138//225 48//226
f 48//226 138//225 144//227
f 48//226 144//227 46//228
f 46//228 144//227 44//229
f 44//229 144//227 142//230
f 44//229 142//230 39//213
f 126//214 39//213 142//230
f 173//64 93//231 6//65
f 173//64 174//232 93//231
f 103//233 175//234 107//126
f 107//126 19//19 20//21
f 107//126 175//234 19//19
f 176//235 177//236 175//237
f 175//237 177//236 174//238
f 173//199 19//201 175//237
f 173//199 175//237 174//238
f 178//239 179//240 43//241
f 43//241 179//240 45//242
f 45//242 179//240 180//243
f 45//242 180//243 47//244
f 47//244 180//243 181//245
f 47//244 181//245 49//246
f 49//246 181//245 182//247
f 49//246 182//247 52//248
f 52//248 182//247 183//249
f 52//248 183//249 54//250
f 54//250 183//249 184//251
f 54//250 184//251 56//252
f 56//252 184//251 185//253
f 56//252 185//253 58//254
f 58//254 185//253 186//255
f 58//254 186//255 60//256
f 60//256 186//255 41//257
f 41//257 186//255 187//258
f 41//257 187//258 42//259
f 42//259 187//258 188//260
f 42//259 188//260 37//261
f 37//261 188//260 189//262
f 37//261 189//262 36//263
f 36//263 189//262 35//264
f 35//264 189//262 190//265
f 35//264 190//265 191//266
f 35//264 191//266 40//267
f 40//267 191//266 38//268
f 38//268 191//266 192//269
f 38//268 192//269 178//239
f 38//268 178//239 43//241
f 181//270 180//271 179//272
f 179//272 182//273 181//270
f 179//272 184//274 183//275
f 179//272 183//275 182//273
f 186//276 185//277 179//272
f 179//272 185//277 184//274
f 179//272 187//278 186//276
f 189//279 188//280 179//272
f 179//272 188//280 187//278
f 191//281 190//282 179//272
f 179//272 190//282 189//279
f 178//283 192//284 179//272
f 179//272 192//284 191//281
f 93//231 174//232 90//110
f 90//110 174//232 177//285
f 90//110 177//285 193//286
f 176//287 194//288 177//289
f 177//289 194//288 193//290
f 105//291 197//292 103//233
f 103//233 197//292 194//293
f 113//132 198//294 105//291
f 105//291 198//294 197//292
f 113//132 196//295 198//294
f 196//295 113//132 117//137
f 117//137 199//296 196//295
f 119//139 200//297 117//137
f 117//137 200//297 199//296
f 200//297 119//139 201//298
f 118//299 202//300 201//298
f 118//299 201//298 119//139
f 108//127 195//301 118//299
f 118//299 195//301 202//300
f 195//301 108//127 203//302
f 203//302 108//127 99//119
f 203//302 99//119 204//303
f 204//304 33//305 34//306
f 34//306 205//307 204//304
f 29//141 81//140 34//308
f 34//308 81//140 94//100
f 34//308 94//100 205//309
f 32//97 33//310 79//98
f 79//98 33//310 204//303
f 79//98 204//303 99//119
f 195//301 203//302 207//311
f 206//312 193//290 194//288
f 204//304 205//307 208//313
f 207//311 203//302 208//313
f 208//313 203//302 204//304
f 209//314 195//301 207//311
f 212//315 202//316 209//314
f 209//314 202//316 195//301
f 213//317 201//318 202//316
f 213//317 202//316 212//315
f 210//319 200//320 213//317
f 213//317 200//320 201//318
f 199//296 200//320 214//321
f 214//321 200//320 210//319
f 215//322 196//295 199//296
f 215//322 199//296 214//321
f 216//323 196//295 215//322
f 196//295 216//323 198//324
f 198//324 216//323 211//325
f 206//312 197//326 198//324
f 206//312 198//324 211//325
f 194//288 197//326 206//312
f 175//234 103//233 176//327
f 176//327 103//233 194//293
f 208//328 205//309 94//100
f 208//328 94//100 84//104
f 208//328 84//104 207//311
f 207//311 84//104 209//314
f 209//314 84//104 83//103
f 209//314 83//103 212//315
f 212//315 83//103 213//317
f 213//317 83//103 96//115
f 213//317 96//115 210//319
f 210//319 96//115 214//321
f 214//321 96//115 95//114
f 214//321 95//114 215//322
f 215//322 95//114 216//323
f 216//323 95//114 88//108
f 216//323 88//108 211//325
f 211//325 88//108 206//312
f 206//312 88//108 90//110
f 206//312 90//110 193//286
f 217//329 18//330 16//331
f 217//329 16//331 218//332
f 18//330 217//329 219//333
f 18//330 219//333 82//334
f 82//334 219//333 220//335
f 82//334 220//335 80//336
f 80//336 220//335 221//337
f 80//336 221//337 86//338
f 86//338 221//337 222//339
f 86//338 222//339 85//340
f 218//332 16//331 14//341
f 218//332 14//341 2//342
f 89//343 223//344 224//345
f 89//343 224//345 87//346
f 87//346 224//345 225//347
f 87//346 225//347 91//348
f 91//348 225//347 226//349
f 91//348 226//349 92//350
f 92//350 226//349 227//351
f 92//350 227//351 5//352
f 5//352 227//351 228//353
f 228//353 9//354 7//355
f 7//355 3//356 228//353
f 228//353 3//356 5//352
f 221//357 220//358 219//359
f 222//360 9//361 223//362
f 223//362 9//361 224//363
f 219//359 217//364 221//357
f 221//357 217//364 218//365
f 221//357 218//365 222//360
f 222//360 218//365 2//366
f 222//360 2//366 9//361
f 9//361 228//367 227//368
f 227//368 226//369 9//361
f 9//361 226//369 225//370
f 9//361 225//370 224//363
f 222//371 223//372 85//373
f 85//373 223//372 89//374
f 229//375 102//376 104//377
f 102//376 229//375 230//378
f 102//376 230//378 231//379
f 102//376 231//379 114//380
f 114//380 231//379 232//381
f 114//380 232//381 112//382
f 112//382 232//381 233//383
f 112//382 233//383 116//384
f 233//383 234//385 116//384
f 234//385 235//386 116//384
f 116//384 235//386 109//387
f 235//386 236//388 109//387
f 109//387 236//388 237//389
f 109//387 237//389 100//390
f 100//390 237//389 238//391
f 100//390 238//391 239//392
f 100//390 239//392 97//393
f 239//392 240//394 97//393
f 97//393 240//394 98//395
f 98//395 240//394 241//396
f 98//395 241//396 242//397
f 98//395 242//397 106//398
f 106//398 242//397 243//399
f 106//398 243//399 244//400
f 106//398 244//400 110//401
f 110//401 244//400 245//402
f 110//401 245//402 246//403
f 110//401 246//403 115//404
f 115//404 246//403 247//405
f 115//404 247//405 248//406
f 115//404 248//406 111//407
f 111//407 248//406 249//408
f 111//407 249//408 250//409
f 111//407 250//409 101//410
f 101//410 250//409 251//411
f 101//410 251//411 252//412
f 101//410 252//412 104//377
f 104//377 252//412 253//413
f 104//377 253//413 229//375
f 254//414 255//415 256//416
f 257//417 258//418 256//416
f 256//416 258//418 259//419
f 256//416 259//419 254//414
f 260//420 261//421 256//416
f 256//416 261//421 262//422
f 256//416 262//422 257//417
f 263//423 264//424 256//416
f 265//425 266//426 256//416
f 256//416 266//426 267//427
f 256//416 267//427 263//423
f 268//428 269//429 256//416
f 256//416 269//429 270//430
f 256//416 270//430 265//425
f 271//431 272//432 256//416
f 256//416 272//432 273//433
f 256//416 273//433 268//428
f 255//415 274//434 256//416
f 256//416 274//434 275//435
f 256//416 275//435 271//431
f 276//436 265//437 277//438
f 277//438 265//437 270//439
f 277//438 270//439 278//440
f 278//440 270//439 269//441
f 278//440 269//441 279//442
f 279//442 269//441 268//443
f 279//442 268//443 280//444
f 280//444 268//443 273//445
f 280//444 273//445 281//446
f 281//446 273//445 272//447
f 281//446 272//447 282//448
f 282//448 272//447 271//449
f 282//448 271//449 283//450
f 283//450 271//449 275//451
f 283//450 275//451 284//452
f 284//452 275//451 274//453
f 284//452 274//453 285//454
f 285//454 274//453 255//455
f 285//454 255//455 286//456
f 286//456 255//455 254//457
f 286//456 254//457 287//458
f 287//458 254//457 259//459
f 287//458 259//459 288//460
f 288//460 259//459 258//461
f 288//460 258//461 289//462
f 289//462 258//461 257//463
f 289//462 257//463 290//464
f 290//464 257//463 262//465
f 290//464 262//465 291//466
f 291//466 262//465 261//467
f 291//466 261//467 292//468
f 292//468 261//467 260//469
f 292//468 260//469 293//470
f 293//470 260//469 256//471
f 293//470 256//471 294//472
f 294//472 256//471 264//473
f 294//472 264//473 295//474
f 295//474 264//473 263//475
f 295//474 263//475 296//476
f 296//476 263//475 267//477
f 296//476 267//477 297//478
f 297//478 267//477 266//479
f 297//478 266//479 276//436
f 276//436 266//479 265//437
f 298//480 287//481 288//482
f 279//483 299//484 278//485
f 278//485 299//484 300//486
f 278//485 300//486 277//487
f 277//487 300//486 276//488
f 276//488 300//486 301//489
f 276//488 301//489 297//490
f 297//490 301//489 296//491
f 292//492 302//493 291//494
f 291//494 302//493 303//495
f 291//494 303//495 290//496
f 290//496 303//495 289//497
f 289//497 303//495 304//498
f 289//497 304//498 288//482
f 288//482 304//498 298//480
f 287//481 298//480 305//499
f 287//481 305//499 286//500
f 286//500 305//499 285//501
f 285//501 305//499 306//502
f 285//501 306//502 284//503
f 284//503 306//502 283//504
f 301//489 307//505 296//491
f 296//491 307//505 308//506
f 296//491 308//506 295//507
f 295//507 308//506 294//508
f 294//508 308//506 309//509
f 294//508 309//509 293//510
f 293//510 309//509 292//492
f 292//492 309//509 302//493
f 306//502 310//511 283//504
f 283//504 310//511 282//512
f 282//512 310//511 311//513
f 282//512 311//513 281//514
f 281//514 311//513 280//515
f 280//515 311//513 312//516
f 280//515 312//516 279//483
f 279//483 312//516 299//484
f 301//489 253//413 252//412
f 301//489 252//412 307//505
f 252//412 251//517 307//505
f 307//505 251//517 308//506
f 308//506 251//517 250//409
f 308//506 250//409 249//408
f 308//506 249//408 309//509
f 309//509 249//408 248//406
f 309//509 248//406 247//405
f 309//509 247//405 302//493
f 247//405 246//403 302//493
f 246//403 245//402 302//493
f 302//493 245//402 303//495
f 303//495 245//402 244//400
f 303//495 244//400 243//399
f 303//495 243//399 304//498
f 304//498 243//399 242//397
f 304//498 242//397 241//396
f 304//498 241//396 298//480
f 241//396 240//518 298//480
f 298//480 240//518 305//499
f 240//518 239//519 305//499
f 305//499 239//519 238//391
f 305//499 238//391 306//502
f 306//502 238//391 237//389
f 306//502 237//389 236//388
f 306//502 236//388 310//511
f 236//388 235//386 310//511
f 310//511 235//386 311//513
f 235//386 234//385 311//513
f 234//385 233//383 311//513
f 311//513 233//383 312//516
f 312//516 233//383 232//381
f 312//516 232//381 231//520
f 312//516 231//520 299//484
f 299//484 231//520 230//378
f 299//484 230//378 300//486
f 300//486 230//378 229//375
f 300//486 229//375 301//489
f 301//489 229//375 253//413
