# G1 exterior visual; derived from pinned Unitree/TWIST2 CAD.
v 0.0310357101 0.0619370304 -0.0258827712
v 0.0304359719 0.0619370304 -0.0258827712
v 0.0304359719 0.0586550459 -0.0309071541
v 0.0310357194 0.0586550459 -0.0309071541
v 0.0304359719 0.0543373264 -0.0350752436
v 0.0310357064 0.0543373264 -0.0350752436
v 0.0304359719 0.0492003784 -0.0381780304
v 0.031035699 0.0492003784 -0.0381780304
v 0.0304359719 0.043501772 -0.04005998
v 0.0310356971 0.043501772 -0.04005998
v 0.0304359719 0.0375272743 -0.0406266786
v 0.0310357008 0.0375272743 -0.0406266786
v 0.0304359719 0.0315764807 -0.0398497023
v 0.031035712 0.0315764807 -0.0398497023
v 0.0304359719 0.0259477627 -0.0377680399
v 0.0310357269 0.0259477627 -0.0377680399
v 0.0304359719 0.020923391 -0.0344860666
v 0.0310357474 0.020923391 -0.0344860666
v 0.0304359719 0.0167553071 -0.0301683266
v 0.0310357735 0.0167553071 -0.0301683266
v 0.0304359719 0.0136524932 -0.0250313673
v 0.0310357995 0.0136524932 -0.0250313673
v 0.0304359719 0.0117705576 -0.0193327758
v 0.0310358275 0.0117705576 -0.0193327758
v 0.0304359719 0.011203873 -0.0133582717
v 0.0310358554 0.011203873 -0.0133582717
v 0.0304359719 0.0119808447 -0.00740749389
v 0.0310358815 0.0119808447 -0.00740749389
v 0.0304359719 0.014062508 -0.00177877571
v 0.0310357101 0.014062508 -0.00177877571
v 0.0304359719 0.0173444841 0.00324560911
v 0.0310359243 0.0173444841 0.00324560911
v 0.0304359719 0.021662211 0.00741369696
v 0.0310359374 0.021662211 0.00741369696
v 0.0304359719 0.0267991703 0.0105165113
v 0.0310359467 0.0267991703 0.0105165113
v 0.0304359719 0.0324977562 0.0123984329
v 0.0310359485 0.0324977562 0.0123984329
v 0.0304359719 0.038472265 0.0129651316
v 0.031035943 0.038472265 0.0129651316
v 0.0304359719 0.0444230586 0.0121881561
v 0.0310359336 0.0444230586 0.0121881561
v 0.0304359719 0.0500517711 0.0101064947
v 0.0310359169 0.0500517711 0.0101064947
v 0.0304359719 0.0550761484 0.00682452042
v 0.0310358964 0.0550761484 0.00682452042
v 0.0304359719 0.0592442304 0.00250677858
v 0.0310358722 0.0592442304 0.00250677858
v 0.0304359719 0.0623470396 -0.00263017765
v 0.0310358442 0.0623470396 -0.00263017765
v 0.0304359719 0.0642289743 -0.00832876936
v 0.0310358163 0.0642289743 -0.00832876936
v 0.0304359719 0.064795658 -0.0143032735
v 0.0310357884 0.064795658 -0.0143032735
v 0.0304359719 0.0640186965 -0.0202540532
v 0.0310357623 0.0640186965 -0.0202540532
v -0.0171992667 0.00451182108 0.0228097774
v -0.0182998981 2.77096435e-09 0.0218486544
v -0.000208732803 -2.02924684e-06 -0.028585827
v -3.62835599e-05 0.00510911597 -0.0285259709
v -0.00438329717 0.00507332338 -0.0282245018
v -0.00799961295 -1.87307769e-09 -0.0273542646
v -0.00856766012 0.00491701299 -0.027217811
v -0.0136760194 2.51745802e-09 -0.0250043366
v -0.0187169258 2.80625789e-09 -0.0214924943
v -0.0139507418 0.0046156547 -0.0248904824
v -0.0236128103 0.00457181828 -0.0160969142
v -0.0228880905 -5.04502617e-09 -0.0169819091
v -0.0209674425 0.00461195363 -0.019462632
v -0.0259956848 -5.91889115e-09 -0.01168223
v -0.0282780509 0.00459624268 -0.00418169424
v -0.0278953034 5.00168973e-09 -0.00583968451
v -0.0274457689 0.0044715493 -0.00792967808
v -0.0285458695 0.00421812525 -0.000286941271
v -0.0284986813 4.3375521e-09 0.000274204969
v -0.0274323411 0.00451954827 0.0080331089
v -0.0277777705 1.79388338e-09 0.00637538405
v -0.0283253547 0.00457995944 0.00388091756
v -0.0257660802 1.3801329e-09 0.0121802632
v -0.0258732047 0.00451557804 0.0121482499
v -0.0225570835 -9.40749145e-11 0.0174191762
v -0.0232477058 0.00451628072 0.0166162048
v -0.0206110626 0.0046266201 0.0198121034
v -0.0136782806 0.00463372795 0.0251220558
v -0.01319235 4.1707402e-09 0.0252628662
v -0.00747177703 2.30375297e-09 0.0275031365
v -0.00879708305 0.00441061473 0.0271771047
v -0.00478484528 0.0044214637 0.0281536486
v 0.000284699316 -1.67707663e-06 0.0285685062
v -0.000133360532 0.00451822719 0.0285779815
v 0.00475548394 0.00453476701 0.0281610638
v 0.00799961295 3.69769615e-09 0.0273542572
v 0.00903583877 0.00438591838 0.0270764139
v 0.0136760203 -6.92839508e-10 0.0250043292
v 0.0134300776 0.00435864972 0.0251820181
v 0.0177072845 0.00437687105 0.0224115215
v 0.0187169258 -9.81639658e-10 0.0214924887
v 0.0211646948 0.00438240822 0.0191467088
v 0.0228880905 -7.45427098e-09 0.0169819072
v 0.0237723049 0.00440044887 0.0158266835
v 0.0281705186 0.00456169806 0.00463268114
v 0.0278953053 -3.17707149e-09 0.00583967846
v 0.0259956848 -6.580406e-09 0.0116822282
v 0.0260995757 0.00436186418 0.0115350056
v 0.0282469951 0.00459066965 -0.00382682309
v 0.0284986813 -2.51293364e-09 -0.00027421111
v 0.0277777724 8.24536794e-09 -0.00637536123
v 0.0275090728 0.00430177012 -0.00756737543
v 0.0284673143 0.00466109021 6.16335674e-05
v 0.0257660802 4.44485559e-10 -0.0121802697
v 0.025977375 0.00464983238 -0.0120023284
v 0.0225570835 1.9186932e-09 -0.0174191836
v 0.0182998981 -9.46346002e-10 -0.02184866
v 0.0186824165 0.00439285627 -0.0215734281
v 0.013192351 5.86851145e-09 -0.0252628438
v 0.00844217371 0.00493942574 -0.0272634421
v 0.0074717761 -4.79134621e-10 -0.0275031421
v 0.00420733495 0.0050863889 -0.0282505602
v 0.0284680426 0.00494494475 -0.00491633592
v 0.0277227908 0.00482559064 -0.00778189395
v 0.0287193991 0.00502912374 0.00247092755
v 0.0289919656 0.00508405128 0.00468695816
v 0.0285121892 0.00498429593 0.00639565196
v 0.0276219491 0.00463892426 0.00748554291
v 0.029221883 0.00509132771 -0.00761877839
v 0.0295930859 0.00581293739 -0.00189039693
v 0.0292821508 0.0054163835 0.00211857841
v 0.0291384384 0.00522983074 0.00982967205
v -0.0287374724 0.00485871267 -9.65353029e-05
v -0.0280138049 0.00493198493 -0.00743087055
v -0.0288069844 0.00502606155 -0.00505422149
v -0.0286015086 0.00498075364 0.00606362429
v -0.0290738028 0.00518974103 0.00200281548
v -0.029715715 0.00557749951 -0.00687271263
v -0.0294818729 0.00522059854 -0.0120723145
v -0.0292507857 0.00551852025 0.00433682324
v -0.02945075 0.00559289707 -0.00180924591
v -0.0260934699 0.00496689044 0.0128854653
v -0.0230838973 0.00496814074 0.0178464595
v -0.0170923676 0.00497733708 0.0235950835
v -0.0121046687 0.00498295808 0.026707828
v -0.00493209762 0.00494992454 0.0285434891
v 0.00190838636 0.00497001782 0.0292309187
v -0.0094815474 0.00479666796 0.0271900948
v 0.0133740818 0.0048802183 0.0256124623
v 0.0117965331 0.00499903923 0.0271503516
v 0.0196994469 0.00499909418 0.0220872387
v 0.024145579 0.00487364829 0.0158580355
v 0.0263514351 0.00500202924 0.0137070175
v 0.0213198029 0.00487367529 0.0194917899
v 0.0264165103 0.00486473972 0.0116864219
v 0.0176859573 0.00485418737 0.0228352211
v 0.00916096382 0.00486284122 0.0273852125
v 0.0281696767 0.00500524836 0.0318814553
v -0.0076942388 0.00503210584 0.0399001278
v -0.0151040535 0.0050364756 0.0393269584
v -0.0208503809 0.00505070575 0.03834695
v 0.015614246 0.00503474521 0.0380809084
v -0.0249874797 0.00505008968 0.0370498784
v -0.0271689054 0.0050156517 0.0356534608
v 0.00631325692 0.00501957489 0.0395199694
v 0.0310182534 0.00688171061 -0.00688504754
v 0.0310322531 0.0092146704 3.79871417e-05
v 0.0310355984 0.00633167662 -0.0098313503
v 0.0295879059 0.00522720488 -0.0143651618
v 0.0310363881 0.00609102147 -0.0149022024
v 0.0310347192 0.00678481162 -0.0205202661
v 0.029087007 0.00498560956 -0.019798724
v 0.02551114 0.00498542609 -0.014574239
v 0.0213445146 0.00494661974 -0.0197625868
v 0.0208954588 0.00455051987 -0.0194903035
v 0.0236214958 0.00461004861 -0.0161138903
v -0.0258824397 0.00454055564 -0.0120526301
v -0.0266274977 0.00496546412 -0.011893604
v -0.022781752 0.00496047875 -0.018266784
v 0.0027332257 0.00569006475 -0.0287361462
v -0.00737075321 0.0055617271 -0.0279615
v -0.018413052 0.00503470888 -0.0226722397
v 0.018361738 0.00498736091 -0.0224538259
v 0.0132147353 0.0053311158 -0.0259697363
v 0.00742783677 0.00556156412 -0.0279468633
v -0.0129807731 0.00534924306 -0.0260956679
v 0.0165242292 0.00469363853 -0.0233242624
v 0.0139647396 0.00481724413 -0.0249227658
v -0.00145160733 0.00571031729 -0.0288603473
v -0.012169688 0.00493221963 -0.0258755833
v -0.0165207796 0.00470430776 -0.0233344138
v -0.0189130921 0.00456201518 -0.0214250255
v 0.0114450445 0.00498449942 -0.0261882637
v -0.0289847329 0.00505136 -0.0207603127
v -0.0310099311 0.00638267305 -0.0183610674
v -0.0310128182 0.00610382715 -0.0125868069
v -0.0310086627 0.00660312176 -0.00791931432
v -0.0310068075 0.00825130846 -0.00223384961
v -0.030211173 0.0071324287 -0.000798915164
v -0.0290389862 0.00525009492 -0.02343674
v -0.0287211444 0.00599345472 -0.0274347439
v -0.0284091309 0.00950401463 -0.034677837
v -0.0290683135 0.00763322134 -0.0312485714
v -0.0293381251 0.00641775224 -0.0274181608
v -0.0291962251 0.0100372527 -0.0347926989
v -0.0288008321 0.00502408063 0.0296286792
v -0.0290442277 0.00528211473 0.0291799642
v -0.0309922639 0.0116367051 0.00440375041
v -0.0295088664 0.00770182163 0.0121617932
v -0.0293720998 0.0225237273 0.026395794
v -0.0310122352 0.0413702279 0.0178919081
v -0.0294026099 0.0476500131 0.0199494939
v -0.0310060922 0.0253692307 0.0157339033
v -0.0310066771 0.015260824 0.00861315895
v -0.0303252321 0.0143961543 0.012886676
v -0.029978944 0.0203683842 0.0200383291
v -0.031002745 0.0356883034 0.0180085357
v -0.0300694127 0.0302611236 0.0213407036
v -0.0293182191 0.0380195938 0.0233655088
v -0.0293163992 0.0563690849 0.0157181956
v -0.0310123097 0.0494726114 0.0161203612
v -0.0293677319 0.0325242504 0.0245663393
v -0.0293136612 0.0111969346 0.0241578314
v -0.025200285 0.00553905824 0.0370223001
v -0.0209926646 0.00554093113 0.0383771919
v -0.0152765857 0.00535514066 0.0394341387
v -0.00813705567 0.00545041543 0.0400192104
v 0.00672474829 0.00539193302 0.0396224186
v 0.0131398924 0.00544063002 0.0387062542
v 0.0172780603 0.00539560057 0.0377753526
v 0.0259543061 0.00524949143 0.0346165784
v 0.0222337916 0.00518930377 0.0362098515
v -0.000374113995 0.00522610545 0.0400690474
v 0.0266136862 0.00501419278 0.033936955
v 0.0290235225 0.00524765905 0.0286809113
v 0.0288356971 0.00505048549 0.028423883
v 0.0286309458 0.00523109594 0.0313197784
v 0.0281426441 0.00523510529 0.0325139537
v 0.0273632538 0.00523958541 0.0335602537
v -0.0276657753 0.00525015453 0.0353707224
v -0.0265247878 0.00523658888 0.0363971032
v -0.0287971757 0.00516385166 0.0322206207
v -0.0283591934 0.00512162596 0.0340057723
v -0.015315 0.00615540333 -0.0296221953
v -0.0140812704 0.00759250391 -0.0333064236
v 1.34806414e-05 0.00702583883 -0.0327076726
v 0.0142386723 0.0075187278 -0.0331772119
v 0.0286006331 0.00733734947 -0.030970946
v 0.0146974502 0.00612301612 -0.0295857117
v 0.0287679285 0.00960351806 -0.0346804112
v 0.0134129869 0.00897109229 -0.0355530456
v 2.05843717e-05 0.00839165505 -0.0352574401
v -0.010621923 0.00890212692 -0.0356433578
v -0.0310090501 0.0119622825 -0.0324623659
v -0.0310113896 0.00800715387 -0.024837805
v 0.0290492754 0.00522663491 -0.0234631915
v 0.0310350079 0.0107028475 -0.0307119507
v 0.0290777348 0.00609510019 -0.0274273362
v 0.029199753 0.00775901927 -0.031193994
v 0.0293025374 0.0101299258 -0.0347242244
v 0.0292420294 0.0176846143 0.0271785017
v 0.0292850211 0.0260320362 0.0260519031
v 0.0284995511 0.0261492636 0.0278421231
v 0.0293109436 0.0359460749 0.0239172038
v 0.0290642958 0.0396855362 0.0233833753
v 0.0274416842 0.0153884981 0.0313148908
v 0.0263162367 0.0168859903 0.0315319486
v 0.0284575801 0.0456307754 0.0215576086
v 0.0280957576 0.0361283347 0.0252402555
v 0.0285475887 0.0167276226 0.0297294166
v 0.0292432215 0.0487178154 0.0198100787
v 0.00748473778 0.040928036 0.0255149417
v 0.0110789537 0.0493601933 0.0212891735
v 0.00294121844 0.0553562716 0.0183615088
v 0.0290878061 0.0554097742 0.0166535396
v 0.0187844206 0.0555770434 0.0175628774
v 0.0284291785 0.0509112179 0.019216476
v 0.0219196361 0.0415331312 0.0241033174
v 0.0218874197 0.0160326362 0.0332378633
v 0.0182635579 0.0182068739 0.0333992355
v 0.000174763918 0.0231013801 0.033444494
v -0.00217470597 0.0415846221 0.025412228
v 0.00735711679 0.0276772976 0.031252861
v 0.00742312614 0.016788885 0.0354911759
v 0.02175772 0.0247733891 0.0304172002
v 0.0187211893 0.0305643082 0.0288977735
v 0.0148274908 0.0412701443 0.0249143541
v 0.0147606591 0.0161995571 0.0347585492
v 0.0145355668 0.0291178655 0.0300150067
v -0.0164543726 0.0169428885 0.0350191146
v -0.0231664777 0.0428411439 0.0234469734
v -0.0280647464 0.0331437401 0.0264454745
v -0.0234624017 0.0302984193 0.0285935663
v -0.0231411085 0.0177016258 0.0334021263
v -0.028199425 0.0521549284 0.0185952801
v -0.028755853 0.0417913459 0.0229586009
v -0.0127114393 0.0554676577 0.0180172306
v -0.0111445701 0.0294678397 0.0305352658
v -0.00724222278 0.0182136428 0.0352606885
v -0.0150177134 0.0460250489 0.0227489322
v -0.0285888501 0.0315391682 0.0265556648
v -0.0286432952 0.0204717722 0.0295308996
v -0.0287995338 0.0489055552 0.0199975483
v -0.0288699213 0.0558988526 0.0164636187
v -0.0310124028 0.0304197334 -0.0402654707
v -0.0310123246 0.0280986335 -0.0442784578
v -0.0310124028 0.0247275066 -0.0379159898
v -0.0310127325 0.0212889072 -0.0410545431
v -0.0310123991 0.0197008215 -0.0343587585
v -0.0310124271 0.0156962741 -0.0366684906
v -0.0310122706 0.0640081763 0.00474971393
v -0.0310122576 0.0604078397 0.00211064727
v -0.0310122501 0.0562987179 0.00669720909
v -0.0310123991 0.0364920609 -0.0412894227
v -0.0310122501 0.039507471 0.0136278756
v -0.0310122576 0.0333595537 0.0132749081
v -0.0310127567 0.036980547 -0.0457931682
v -0.0310128909 0.0586865395 0.0105585298
v -0.0310117789 0.0503901094 0.0107876882
v -0.0310122464 0.0455797911 0.0126039283
v -0.0310123917 0.0155916987 -0.0297721941
v -0.0310123768 0.0485552251 -0.0392243341
v -0.0310125239 0.0509283692 -0.0430518165
v -0.0310118031 0.0675439313 -0.00166184211
v -0.031012265 0.0633933097 -0.00327532133
v -0.0310123879 0.0426399857 -0.0409364551
v -0.0310122687 0.0274443142 0.0115627861
v -0.0310123805 0.0126062185 -0.0243862253
v -0.0310127959 0.0439044386 -0.0451994315
v -0.0310123693 0.0692384169 -0.00733418996
v -0.0310122799 0.0651054606 -0.0091905538
v -0.0310130324 0.0573794991 -0.0392543525
v -0.0310123656 0.0539411791 -0.0362388343
v -0.0310123656 0.0108940778 -0.0184709933
v -0.0310131032 0.0699156076 -0.0151882283
v -0.0310122948 0.0654584169 -0.0153384665
v -0.0310122836 0.0220583528 0.00857728813
v -0.0310122985 0.017471781 0.00446818396
v -0.0310084615 0.068896994 -0.0219992865
v -0.0310123134 0.0644344613 -0.0214108005
v -0.0310123507 0.0105411336 -0.0123230526
v -0.0310105942 0.0669040531 -0.0273872651
v -0.031011764 0.0639505386 -0.0325371549
v -0.0310123321 0.062084984 -0.0271030143
v -0.031012347 0.0585277565 -0.032129731
v -0.0310123172 0.0139145628 -0.000558505417
v -0.0310123321 0.0115650762 -0.00625074748
v 0.0310228858 0.0363929905 0.018072037
v 0.031024307 0.0449754745 0.0174575988
v 0.0310291853 0.0190309286 0.0120736361
v 0.0310358088 0.0290560424 0.016812725
v 0.0310352184 0.0360714756 -0.0457330458
v 0.0310328212 0.0135360425 0.00666774251
v 0.0310362186 0.0107454536 0.00276322057
v 0.0310349017 0.0541092157 0.0137566803
v 0.0310346112 0.0577706546 -0.0389912724
v 0.0310354792 0.0498372428 -0.0435169078
v 0.0310348272 0.0594514348 0.00986343157
v 0.03103544 0.0694152787 -0.0196721256
v 0.0310353488 0.0635689497 -0.0330252349
v 0.0310355388 0.0669608191 -0.0272365082
v 0.0310353301 0.0432855338 -0.0453297608
v 0.0310351737 0.0223242585 -0.0416612662
v 0.0310358591 0.028483212 -0.0443480909
v 0.031035576 0.0678976029 -0.00241511269
v 0.0310353972 0.0644969046 0.0039868434
v 0.0310353264 0.0699252561 -0.0123851877
v 0.0310348719 0.016872637 -0.0378305838
v 0.0293266363 0.029444797 -0.0475671217
v 0.0293706153 0.0441056155 -0.0480414368
v 0.0295112059 0.0711107999 -0.0235927869
v 0.0293388907 0.020700803 -0.0440132581
v 0.0291052833 0.039393194 -0.0488991402
v 0.0292684417 0.0572197996 -0.0429665968
v 0.0292591508 0.0697698891 -0.0283016153
v 0.0293774959 0.0643878356 -0.0364462584
v 0.0292261634 0.0614407063 -0.039743308
v 0.0293427948 0.0530006401 -0.0452164486
v 0.0292095058 0.0484417975 -0.0471917428
v 0.0293719228 0.0343117528 -0.0483967587
v 0.0293862633 0.0249656662 -0.0460297838
v 0.0290910136 0.0163463019 -0.0414771698
v 0.0290804803 0.0125712957 -0.0380679108
v -0.0290632192 0.0701138899 -0.0280370098
v -0.0290307384 0.0129995681 -0.0385085195
v -0.0290538222 0.0165861044 -0.0416789092
v -0.02853656 0.0246116444 -0.046464283
v -0.0287576038 0.0204053856 -0.0443495326
v -0.0285687428 0.0294583235 -0.0480387323
v -0.0290106498 0.0344990417 -0.0488076247
v -0.0290059671 0.0392922275 -0.0489603542
v -0.0293016639 0.0442246459 -0.0480731018
v -0.0291897785 0.0298343115 -0.047822766
v -0.0291753039 0.0252328794 -0.046386335
v -0.0292751733 0.0209510699 -0.0442104265
v -0.0287681241 0.0440966673 -0.0485188439
v -0.0293020364 0.0489217937 -0.0468707904
v -0.0287809893 0.0487411618 -0.0473651253
v -0.0292923655 0.0533807129 -0.0450623333
v -0.0279679708 0.0512958989 -0.0466011465
v -0.0287325233 0.0541334748 -0.0451544486
v -0.0292943772 0.0575417615 -0.042638205
v -0.0287441425 0.0582261272 -0.0426734239
v -0.0292962827 0.0613279976 -0.039662838
v -0.0287559014 0.0619525313 -0.0396538973
v -0.0292089302 0.0647161826 -0.0363509692
v -0.0285733938 0.0652307197 -0.0362169296
v -0.0290414188 0.0678815916 -0.0323030129
v -0.0284602586 0.0719217062 -0.0235684179
v -0.0291783679 0.0715911016 -0.0235356819
v -0.0285474081 0.0729489326 -0.0185641125
v -0.0283822101 0.0733159706 -0.013707933
v -0.0284132529 0.0729426071 -0.00878517982
v -0.0285080932 0.0718898326 -0.00401851442
v -0.0285951383 0.0699856356 0.000983310514
v -0.028150171 0.0684715956 0.0040718629
v -0.0287467185 0.064427495 0.00945774559
v -0.0281394441 0.0625940338 0.0115428623
v -0.029096093 0.0604312457 0.0131558953
v -0.0293556582 0.0642323792 0.00895976461
v -0.0290792678 0.0672569573 0.0055530034
v -0.0292388126 0.0713187978 -0.0034045917
v -0.0291903317 0.0695721656 0.00117016642
v -0.0292536374 0.0725319609 -0.00875263941
v -0.0291905869 0.0729525462 -0.0135528129
v -0.0292316861 0.0725861415 -0.0186464824
v -0.0280309413 0.0588380247 0.0147422245
v -0.0209064465 0.0285760425 -0.0484261066
v -0.00877027772 0.0283081494 -0.0489598699
v 0.00345647265 0.028416466 -0.0490781181
v 0.0149276648 0.028621316 -0.0488072149
v 0.0287726093 0.0289184898 -0.0478683934
v 0.00360838277 0.073131904 -0.0238746554
v 0.00378815597 0.0715047121 -0.028308725
v 0.0182115752 0.0726170242 -0.0237234123
v 0.0162636191 0.0711456761 -0.0281535927
v 0.0286177173 0.0701171756 -0.0283661019
v 0.00378815597 0.0331760943 -0.0500098877
v -0.0134365158 0.0329986252 -0.049782373
v -0.0144277494 0.0713118464 -0.0280678868
v -0.014347164 0.0692048222 -0.0322907194
v -0.0139585491 0.0665059537 -0.036251951
v -0.0139222527 0.0633794367 -0.039738778
v -0.0138701415 0.0598359443 -0.0427892245
v -0.0138215162 0.0559271201 -0.0453593805
v -0.0136092622 0.0426521674 -0.0498085134
v -0.0134360371 0.0473033674 -0.0488979965
v -0.013666925 0.0379415266 -0.0501066037
v 0.028767528 0.0339101478 -0.0488220081
v 0.0162636191 0.0332277864 -0.049622193
v 0.0282976348 0.0366876423 -0.0490956381
v 0.0162636191 0.0378914438 -0.0499387532
v 0.0162636191 0.0425569341 -0.0496501587
v 0.0287665278 0.0438728407 -0.0485687293
v 0.0162636191 0.0471460409 -0.0487612933
v 0.0162636191 0.0515818559 -0.0472870581
v 0.0285554398 0.0479560681 -0.0476756543
v 0.0287720226 0.0530653968 -0.0456694625
v 0.0285778809 0.0572015755 -0.0434376523
v 0.0162636191 0.0557900667 -0.0452521257
v 0.0162636191 0.0597001314 -0.04269059
v 0.0162636191 0.0663698092 -0.0361676365
v 0.0287901796 0.0648384243 -0.0366281383
v 0.0162636191 0.0632465258 -0.0396454148
v 0.0285827052 0.0619895272 -0.0396712311
v 0.029028073 0.0676676631 -0.0326711833
v 0.0162636191 0.0690176561 -0.0323154889
v 0.0287994761 0.071829617 -0.0235612225
v -0.010534565 0.0729524344 -0.0238597021
v -0.0086749522 0.0516929515 -0.0475606807
v 0.00378815597 0.0693536401 -0.0325157233
v 0.00378815597 0.0666771159 -0.0364095941
v 0.00378815597 0.0635199919 -0.0399250388
v 0.00378815597 0.0599351898 -0.0430031978
v 0.00378815597 0.055982776 -0.0455924608
v 0.00378815597 0.0517289862 -0.0476494506
v 0.00378815597 0.0472451113 -0.0491396636
v 0.00378815597 0.0426062904 -0.0500381477
v 0.00378815597 0.0378902704 -0.0503298678
v -0.0137364045 0.0119131114 -0.0390512608
v 0.00975951273 0.0116979871 -0.0390128233
v 0.0162636191 0.0154435569 -0.0420268178
v 0.0162636191 0.0192476604 -0.0446878225
v 0.0288109947 0.020386273 -0.0443169139
v 0.0162636191 0.023361735 -0.0468387567
v 0.0287808683 0.0247215815 -0.0464543588
v 0.0037881569 0.0232031718 -0.0471963026
v -0.0138948997 0.0232942365 -0.0469688699
v 0.0037881569 0.0190445408 -0.0450220816
v -0.0138208047 0.0194077194 -0.0449705645
v 0.0037881569 0.0151992263 -0.0423322394
v -0.0138207721 0.0155659672 -0.0423277281
v 0.028472269 0.0698267221 0.00145388627
v 0.0162635185 0.0713261664 6.69385408e-05
v 0.0162635185 0.0741064101 -0.0141549483
v 0.00378805562 0.0741229504 -0.019056512
v -0.0141762979 0.0738873929 -0.0190689955
v -0.0141495224 0.0664683431 0.00862568431
v -0.0140148057 0.0714309663 0.000225112788
v -0.0137456534 0.073039934 -0.00444802735
v 0.0162635185 0.073735863 -0.0190005172
v 0.0285434872 0.0729504153 -0.0186326019
v 0.0285605714 0.0728912652 -0.00871355832
v 0.0162635185 0.0738229305 -0.00930351857
v 0.0162635185 0.0728905573 -0.00453407643
v 0.0284973811 0.0719300956 -0.00411371654
v 0.0162635185 0.0691581145 0.00441624038
v 0.0162635185 0.0664256662 0.00843501929
v 0.0285501964 0.0667651817 0.00657143909
v 0.0285528731 0.0638203323 0.0101846987
v 0.0162635185 0.0631783083 0.0120504526
v 0.0284325127 0.0597111806 0.0140085928
v 0.0162635185 0.0594748668 0.0151970917
v 0.00378805562 0.0597074963 0.0155115426
v -0.00867505185 0.059650518 0.0154345296
v -0.00867505185 0.0633842349 0.0122621255
v -0.00867505185 0.0694129542 0.00456549181
v -0.00867505185 0.0741159171 -0.00926649384
v -0.00867505185 0.0744017214 -0.0141575914
v 0.00378805562 0.0744975135 -0.0141584584
v 0.00378805562 0.0742109641 -0.00925446767
v 0.00378805562 0.073268488 -0.00443339068
v 0.00378805562 0.0716871545 0.000217497261
v 0.00378805562 0.0694956258 0.00461390056
v 0.00378805562 0.0667335689 0.00867620017
v 0.00378805562 0.0634510443 0.0123308012
v 0.0295071267 0.0100831352 0.0187361483
v 0.0301672779 0.0301738214 0.020843083
v 0.0301025119 0.0239494871 0.0202822462
v 0.0298533458 0.0168619361 0.019633323
v 0.0298046954 0.00737177301 0.00535136089
v 0.0291891284 0.00556639209 0.0135538438
v 0.0292779338 0.0725761801 -0.0184168406
v 0.0289634466 0.0731513277 -0.0134529574
v 0.0293339137 0.0723626018 -0.00818923675
v 0.0292627849 0.0712458715 -0.00325749256
v 0.029290894 0.0694324374 0.00122819538
v 0.0292044748 0.0670162961 0.00560841151
v 0.029316498 0.0641634911 0.0091601396
v 0.0292869825 0.0600448698 0.0131766256
v 2.12833015e-10 -6.89411239e-09 -0.0272499975
v -0.00606369553 7.66087282e-09 -0.0265667811
v -0.0118233319 4.33202896e-09 -0.0245514084
v -0.0169900972 5.56588242e-09 -0.0213048942
v -0.0213049073 3.52692608e-09 -0.0169900972
v -0.0245514009 -5.29581667e-09 -0.0118233263
v -0.0265667848 -1.7423557e-09 -0.00606368203
v -0.0272499993 5.01961006e-09 1.12537082e-08
v -0.0265667848 -2.54233878e-09 0.00606370857
v -0.0245514009 -7.20350846e-09 0.0118233245
v -0.0213049073 -1.70233228e-09 0.0169900917
v -0.0169900972 4.47334969e-09 0.0213049166
v -0.0118233319 -2.50742405e-09 0.0245514028
v -0.00606369553 -5.83626125e-09 0.0265667755
v 2.12833015e-10 -5.60518476e-09 0.0272499956
v 0.00606369553 7.66087993e-09 -0.0265667811
v 0.0118233319 4.33204228e-09 -0.0245514084
v 0.0169900972 5.56590196e-09 -0.0213048942
v 0.0213049073 3.52695073e-09 -0.0169900972
v 0.0245514028 -5.2957887e-09 -0.0118233263
v 0.0265667867 -1.74232495e-09 -0.00606368203
v 0.0272499993 5.01964159e-09 1.12537082e-08
v 0.0265667867 -2.54230814e-09 0.00606370857
v 0.0245514028 -7.20348048e-09 0.0118233245
v 0.0213049073 -1.70230763e-09 0.0169900917
v 0.0169900972 4.47336923e-09 0.0213049166
v 0.0118233319 -2.50741028e-09 0.0245514028
v 0.00606369553 -5.83625415e-09 0.0265667755
v 2.12831863e-10 0.00200000592 0.0272500012
v -0.00606369553 0.00200000568 0.0265667811
v -0.0118233319 0.00200000894 0.0245514084
v -0.0169900972 0.00199999358 0.021304898
v -0.0213049073 0.00199999544 0.016990101
v -0.0245514009 0.00200000429 0.0118233301
v -0.0265667848 0.00200000079 0.00606368575
v -0.0272499993 0.00199999404 -7.59914176e-09
v -0.0265667848 0.00200000149 -0.00606370484
v -0.0245514009 0.00200000615 -0.0118233208
v -0.0213049073 0.00200000079 -0.0169900879
v -0.0169900972 0.00199999451 -0.0213049129
v -0.0118233319 0.00200000149 -0.0245513991
v -0.00606369553 0.00200000498 -0.0265667718
v 2.12831863e-10 0.00200000475 -0.0272499919
v 0.00606368948 0.00199999451 -0.0265667755
v 0.0118233319 0.00200000149 -0.0245513991
v 0.0169900972 0.00199999451 -0.0213049129
v 0.0213049073 0.00200000079 -0.0169900879
v 0.0245514028 0.00200000615 -0.0118233208
v 0.0265667867 0.00200000149 -0.00606370484
v 0.0272499993 0.00199999404 -7.59914176e-09
v 0.0265667867 0.00200000079 0.00606368575
v 0.0245514028 0.00200000429 0.0118233301
v 0.0213049073 0.00199999544 0.016990101
v 0.0169900972 0.00199999358 0.021304898
v 0.0118233319 0.00200000894 0.0245514084
v 0.00606369553 0.00200000568 0.0265667811
v -0.0304124616 0.0512720309 0.0102544436
v -0.0304124597 0.0562987179 0.00669720909
v -0.0304124597 0.0604078397 0.00211064727
v -0.0304124597 0.0633933097 -0.00327532133
v -0.0304124597 0.0651054606 -0.0091905538
v -0.0304124597 0.0654584169 -0.0153384665
v -0.0304124597 0.0644344613 -0.0214108005
v -0.0304124597 0.062084984 -0.0271030143
v -0.0304124597 0.0585277565 -0.032129731
v -0.0304124597 0.0539411791 -0.0362388343
v -0.0304124597 0.0485552251 -0.0392243341
v -0.0304124597 0.0426399857 -0.0409364551
v -0.0304124597 0.0364920609 -0.0412894227
v -0.0304124597 0.0304197334 -0.0402654707
v -0.0304124597 0.0247275066 -0.0379159898
v -0.0304124597 0.0197008215 -0.0343587585
v -0.0304124597 0.0155916987 -0.0297721941
v -0.0304124597 0.0126062185 -0.0243862253
v -0.0304124597 0.0108940778 -0.0184709933
v -0.0304124597 0.0105411336 -0.0123230526
v -0.0304124597 0.0115650762 -0.00625074748
v -0.0304124597 0.0139145628 -0.000558505417
v -0.0304124597 0.017471781 0.00446818396
v -0.0304124597 0.0220583528 0.00857728813
v -0.0304124597 0.0274443142 0.0115627861
v -0.0304124597 0.0333595537 0.0132749081
v -0.0304124597 0.039507471 0.0136278756
v -0.0304124597 0.0455797911 0.0126039283
vn 0 -0.8931795 0.4497004
vn 0 -0.8931799 0.4496995
vn 0 -0.7707194 0.6371747
vn 0 -0.7707185 0.6371759
vn 0 -0.6096061 0.7927045
vn 0 -0.609605 0.7927053
vn 0 -0.4179325 0.9084781
vn 0 -0.4179316 0.9084785
vn 0 -0.2053017 0.9786987
vn 0 -0.2053006 0.978699
vn 0 0.01762981 0.9998446
vn 0 0.01763122 0.9998445
vn 0 0.2396756 0.970853
vn 0 0.2396769 0.9708527
vn 0 0.4496985 0.8931804
vn 0 0.4496998 0.8931798
vn 0 0.6371772 0.7707174
vn 0 0.6371782 0.7707165
vn 0 0.7927012 0.6096104
vn 0 0.7927021 0.6096092
vn 0 0.9084783 0.4179319
vn 0 0.9084791 0.4179304
vn 0 0.9786993 0.2052989
vn 0 0.9786997 0.2052974
vn 0 0.9998446 -0.01763083
vn 0 0.9998446 -0.01763242
vn 0 0.9708533 -0.2396744
vn 0 0.9708531 -0.2396748
vn 0 0.8931805 -0.4496984
vn 0 0.8931798 -0.4496997
vn 0 0.770717 -0.6371776
vn 0 0.7707154 -0.6371795
vn 0 0.6096103 -0.7927013
vn 0 0.6096092 -0.7927021
vn 0 0.4179312 -0.9084786
vn 0 0.4179299 -0.9084793
vn 0 0.2052992 -0.9786993
vn 0 0.205298 -0.9786995
vn 0 -0.01762978 -0.9998446
vn 0 -0.01763091 -0.9998445
vn 0 -0.239674 -0.9708534
vn 0 -0.239675 -0.9708531
vn 0 -0.4497003 -0.8931795
vn 0 -0.4497013 -0.8931791
vn 0 -0.6371781 -0.7707167
vn 0 -0.6371788 -0.770716
vn 0 -0.7927033 -0.6096077
vn 0 -0.7927038 -0.609607
vn 0 -0.9084777 -0.4179335
vn 0 -0.908478 -0.4179327
vn 0 -0.9786994 -0.2052982
vn 0 -0.9786996 -0.2052974
vn 0 -0.9998446 0.01762967
vn 0 -0.9998445 0.01763048
vn 0 -0.9708536 0.2396733
vn 0 -0.9708534 0.239674
vn 0.02099752 -0.2066935 -0.9781804
vn -0.007738764 -0.02641233 -0.9996212
vn -0.1448121 -0.1969665 -0.9696565
vn -0.274049 -0.03270594 -0.9611594
vn -0.3047016 -0.2224298 -0.9261112
vn -0.4842257 -0.03379893 -0.87429
vn -0.3445316 -0.4229915 -0.8380789
vn -0.6545848 -0.02234804 -0.7556583
vn -0.6436291 -0.03347384 -0.7646052
vn -0.5871331 -0.06339324 -0.8070043
vn -0.5040206 0.09358856 -0.858606
vn -0.7953367 -0.004665938 -0.6061499
vn -0.8262764 -0.04162639 -0.5617247
vn -0.7549089 -0.08199114 -0.6506843
vn -0.7937523 -0.4714374 -0.3843229
vn -0.9090846 -0.0239582 -0.4159222
vn -0.9791405 -0.0336764 -0.2003738
vn -0.8752116 -0.4738126 -0.09749978
vn -0.8939376 -0.3449059 -0.2862085
vn -0.9890347 -0.1458399 -0.02325986
vn -0.9996053 -0.02800184 0.002299307
vn -0.9725939 -0.034123 0.2299929
vn -0.9536346 -0.0366823 0.2987232
vn -0.901041 -0.4229724 0.09601879
vn -0.9054862 -0.02334327 0.4237332
vn -0.9056243 -0.02642536 0.423257
vn -0.7933784 -0.0346498 0.607742
vn -0.8217776 -0.01869264 0.5695016
vn -0.5941627 -0.02631018 0.8039144
vn -0.7188978 -0.02212287 0.6947635
vn -0.6383836 -0.03243724 0.7690346
vn -0.4238767 -0.5053923 0.7516031
vn -0.4630014 -0.02895226 0.8858846
vn -0.2571277 -0.03675907 0.965678
vn -0.2972246 -0.2644404 0.9174578
vn -0.1448878 -0.3398839 0.9292397
vn 0.009761584 -0.03175628 0.999448
vn -0.03388995 -0.409835 0.9115299
vn 0.1767252 -0.3828026 0.9067693
vn 0.278084 -0.03192689 0.960026
vn 0.3030805 -0.3077721 0.9018971
vn 0.4786196 -0.0216407 0.8777556
vn 0.4562929 -0.2979086 0.8384791
vn 0.6565148 -0.02824689 0.7537841
vn 0.5968392 -0.2960048 0.7457641
vn 0.7045515 -0.3115394 0.6376131
vn 0.8072947 -0.02520276 0.5896102
vn 0.793424 -0.3170831 0.5195542
vn 0.9808362 -0.0316673 0.1922429
vn 0.9765916 -0.155612 0.1485054
vn 0.839223 -0.4830009 0.2498299
vn 0.9065139 -0.0179672 0.4217935
vn 0.8682328 -0.3057834 0.3907279
vn 0.9415477 -0.3259254 -0.08520913
vn 0.9999658 -0.008252214 -0.0004006149
vn 0.9742669 -0.02351742 -0.2241672
vn 0.9402996 -0.2275698 -0.2530784
vn 0.9814635 -0.1911984 -0.0131368
vn 0.9051729 -0.03294006 -0.4237652
vn 0.8111793 -0.475093 -0.3409909
vn 0.8296379 -0.02346984 -0.5578083
vn 0.7876242 -0.03341144 -0.6152493
vn 0.6457609 -0.02552107 -0.7631131
vn 0.6423674 -0.3075287 -0.7019901
vn 0.6378299 -0.4668087 -0.6125869
vn 0.318715 -0.3902994 -0.8637634
vn 0.500519 -0.02866367 -0.8652509
vn 0.462912 -0.02935531 -0.885918
vn 0.5612177 -0.04746033 -0.8263064
vn 0.2995522 -0.245095 -0.9220612
vn 0.2608436 -0.02862489 -0.9649566
vn 0.1405849 -0.2305143 -0.9628599
vn 0.646175 -0.7545865 -0.1142672
vn 0.841943 -0.4813797 -0.2437327
vn 0.7433147 -0.668005 0.03538881
vn 0.4546243 -0.8898371 0.03881525
vn 0.4981034 -0.8671172 -0.0008785739
vn 0.1885584 -0.9820578 0.002903728
vn 0.283967 -0.9586853 0.01689263
vn 0.1850504 -0.9827224 0.003614817
vn 0.8795504 -0.474447 0.03593104
vn 0.8448523 -0.5348797 0.01132405
vn 0.861164 -0.5050462 0.05766182
vn -0.4227704 -0.905167 -0.04402084
vn -0.8564232 -0.5162725 -0.001419364
vn -0.4459303 -0.8937466 0.04861239
vn -0.7343568 -0.6785112 0.01851057
vn -0.4351988 -0.8955631 -0.09256753
vn -0.6726717 -0.7012182 0.2362323
vn -0.3847748 -0.9228423 0.01761687
vn -0.9193012 -0.3923138 0.03122815
vn -0.6861842 -0.7238839 0.07171659
vn -0.6073273 0.7939087 0.02936695
vn -0.06887446 -0.9833416 0.1682131
vn -0.1773332 -0.9500382 0.2568667
vn -0.2415382 -0.6727373 0.6993452
vn -0.129665 -0.6127518 0.7795654
vn -0.2167709 -0.9594148 0.1803703
vn -0.2891648 -0.9449866 0.1529182
vn -0.6190717 -0.7377845 0.2691177
vn 0.02076337 -0.9694636 0.2443545
vn -0.4186082 -0.7550891 0.5045866
vn -0.5164334 -0.668308 0.5354073
vn -0.5553865 -0.7539485 0.3508669
vn 0.03208767 -0.9969292 0.07143415
vn 0.2627054 -0.8302312 0.491632
vn 0.05681353 -0.9965344 0.06075731
vn 0.4735398 -0.8215916 0.3174072
vn 0.06095432 -0.9975452 0.03447215
vn 0.4388888 -0.8077787 0.3935357
vn 0.5100435 -0.8346484 0.2078888
vn 0.3375716 -0.8128093 0.4747488
vn 0.1714275 -0.794756 0.582216
vn 0.3664381 -0.917246 0.1561499
vn -0.4212346 -0.9067676 0.01827379
vn -0.3546316 -0.8575844 0.3725393
vn -0.002619617 -0.99998 0.005752298
vn -0.001517667 -0.9998947 0.01442657
vn -0.001906985 -0.9999899 0.004071427
vn -0.002237922 -0.9999878 0.004403247
vn 0.2885661 -0.8772061 0.3837174
vn 0.003769615 -0.9999358 0.01068639
vn -0.01755664 -0.9989495 0.04232883
vn 0.001715382 -0.9998957 0.01433984
vn 0.9225074 -0.3817229 0.05716307
vn 0.975801 -0.2066966 0.07133771
vn 0.598626 -0.7993068 0.05249303
vn 0.4763732 -0.8792236 -0.005871353
vn 0.4981947 -0.8656943 -0.04873762
vn 0.9106992 -0.4100756 -0.04964862
vn 0.3550451 -0.9340754 -0.03802777
vn 0.689718 0.6934817 -0.2082599
vn 0.4420311 -0.8304313 -0.3391053
vn 0.2315804 -0.9467584 -0.2236492
vn 0.1622518 -0.9825688 -0.09073523
vn -0.2556999 -0.9608433 -0.1067599
vn -0.4424037 -0.7799246 -0.442715
vn -0.5667892 -0.746349 -0.3488742
vn -0.1939062 -0.9675456 -0.1620366
vn -0.1679761 -0.9462373 -0.2764402
vn 0.2359604 -0.899262 -0.3683077
vn 0.410052 -0.6304423 -0.6590901
vn 0.131999 -0.9137164 -0.3843159
vn 0.3193252 -0.740009 -0.5919612
vn -0.1368982 -0.9184788 -0.3710196
vn -0.104365 -0.8265361 -0.5531238
vn -0.3421665 -0.6972443 -0.6298987
vn -0.4388918 -0.7676976 -0.46692
vn -0.02507752 -0.7989234 -0.6009097
vn 0.1040445 -0.8299863 -0.5479941
vn 0.02646848 -0.8047162 -0.5930693
vn -0.3058524 -0.9511888 -0.04115937
vn -0.5996553 -0.7988647 -0.04720981
vn -0.503042 -0.8641584 0.01337498
vn -0.6491113 -0.7545108 0.09678923
vn -0.960077 -0.2709214 0.06966858
vn -0.902394 -0.4208572 0.09254382
vn -0.8853752 -0.4632005 0.03944606
vn -0.5090521 -0.769958 -0.3847476
vn -0.2897007 -0.9180611 -0.2706239
vn -0.6994572 -0.6794313 -0.221659
vn -0.4143847 -0.8991515 -0.1407547
vn -0.2325873 -0.7925388 -0.5637246
vn -0.6596898 -0.5984178 -0.4546486
vn -0.93011 -0.3654958 0.03617037
vn -0.9901987 -0.1295659 0.05214584
vn -0.9882478 -0.1465657 0.04341464
vn -0.9809565 -0.01620077 0.1935507
vn -0.9900315 0.001825619 0.1408345
vn -0.9946833 -0.03354142 0.09736671
vn -0.9808351 0.04260492 0.1901246
vn -0.8947423 0.1210881 0.4298533
vn -0.7969873 0.2170064 0.5636661
vn -0.9608945 0.1118651 0.2533139
vn -0.7679943 0.3423041 0.5413063
vn -0.9838727 0.01579556 0.1781712
vn -0.947401 0.06168261 0.3140488
vn -0.998387 -0.03159376 0.04717422
vn -0.992175 -0.04551275 0.116264
vn -0.9888567 -0.1038739 0.1066427
vn -0.9953059 -0.06767982 0.06917755
vn 0.09951029 -0.9589241 0.2656356
vn 0.01221228 -0.877783 0.4789028
vn 0.2605588 -0.8058001 0.531785
vn 0.2133684 -0.2124526 0.9535921
vn 0.2536933 -0.4405428 0.8611398
vn 0.2689624 -0.06235919 0.9611298
vn 0.1650717 -0.0886385 0.9822905
vn 0.08391632 -0.3519433 0.9322522
vn 0.1084658 -0.02122054 0.9938737
vn 0.02708152 0.3253582 0.945203
vn -0.02933419 -0.3022819 0.9527671
vn -0.05150083 0.01444826 0.9985685
vn -0.1024349 -0.3663068 0.9248385
vn -0.1304135 -0.01904677 0.9912768
vn -0.2309054 -0.1320424 0.9639748
vn -0.2413959 0.1049618 0.9647337
vn -0.3388478 -0.09733835 0.9357924
vn -0.3749294 0.1109163 0.9203942
vn 0.4301859 -0.9025677 0.01765007
vn 0.5531525 -0.8247484 0.1175254
vn 0.9140382 -0.3945426 0.09418162
vn 0.4733553 -0.8212081 0.318672
vn 0.4315782 -0.8261728 0.3621862
vn -0.3423038 -0.7775429 0.5274988
vn -0.5681928 -0.7169721 0.4038663
vn -0.322984 -0.9450068 0.05141608
vn -0.1771867 -0.9823762 0.05951418
vn -0.539234 0.216522 0.8138458
vn -0.03306398 -0.9538625 -0.2984174
vn -0.0432677 -0.8861633 -0.4613486
vn 0.001341467 -0.9162994 -0.4004916
vn 0.01801489 -0.9910262 -0.1324484
vn 0.03818677 -0.8913653 -0.4516742
vn 0.2353394 -0.8792455 -0.4141772
vn 0.02779065 -0.9562287 -0.2912976
vn 0.485056 -0.8358102 -0.2571808
vn 0.3388357 -0.7658916 -0.5464435
vn 0.04743889 -0.8027879 -0.5943747
vn -0.001406324 -0.8208506 -0.5711412
vn -0.02856832 -0.8081644 -0.5882637
vn -0.9572255 -0.2378527 -0.1647586
vn -0.9412141 -0.3242315 -0.0948149
vn 0.7169439 -0.686708 -0.1200982
vn 0.9537561 -0.2608853 -0.1492924
vn 0.6497125 -0.6758281 -0.3480375
vn 0.7458913 -0.5294994 -0.4040748
vn 0.9823252 0.0100805 0.1869107
vn 0.958985 0.03812183 0.2808813
vn 0.7226455 0.1651525 0.6711991
vn 0.8831163 0.08306114 0.4617428
vn 0.9606448 0.04488702 0.2741292
vn 0.8565711 0.09753302 0.506728
vn 0.6180796 0.1776051 0.7657898
vn 0.6908966 0.1510768 0.7069921
vn 0.4633889 0.2181428 0.8588856
vn 0.3833025 0.2428158 0.8911338
vn 0.3982875 0.2947009 0.8686302
vn 0.7280829 0.2208788 0.6489282
vn 0.9189197 0.07704609 0.3868466
vn 0.6886472 0.2875829 0.6656284
vn 0.3394922 0.3546244 0.8711984
vn 0.03579513 0.4160357 0.9086435
vn 0.04103909 0.4502328 0.8919677
vn 0.006749634 0.5029712 0.8642769
vn 0.524228 0.4328656 0.7333569
vn 0.06127039 0.5033197 0.8619254
vn 0.2628335 0.4263786 0.8655171
vn 0.1062827 0.3888483 0.9151508
vn 0.3289509 0.2708894 0.9046602
vn 0.2552705 0.2704188 0.9282838
vn 0.2014717 0.3184494 0.9262825
vn 0.01475276 0.3726655 0.9278485
vn -0.007267887 0.4274174 0.9040252
vn 0.06140614 0.3791016 0.9233154
vn 0.08008715 0.3451587 0.9351212
vn 0.1640817 0.3090797 0.9367747
vn 0.1374478 0.351582 0.926012
vn 0.07554683 0.408686 0.909543
vn 0.1509014 0.3283073 0.9324394
vn 0.1043128 0.3631608 0.9258689
vn -0.1177641 0.3947664 0.9112031
vn -0.4129517 0.3154817 0.8543665
vn -0.168201 0.3643615 0.9159416
vn -0.2333791 0.3324243 0.9137988
vn -0.1890077 0.4449599 0.8753781
vn -0.4325762 0.3766766 0.8191413
vn -0.5312779 0.300645 0.7920583
vn -0.04163246 0.5058901 0.8615927
vn -0.4171702 0.4474064 0.791073
vn -0.06522229 0.3893697 0.9187695
vn -0.03764941 0.3597616 0.9322844
vn -0.1274568 0.3542545 0.9264224
vn -0.05853778 0.4347607 0.8986415
vn -0.7682149 0.185266 0.6127987
vn -0.7661715 0.1782248 0.6174279
vn -0.9155194 0.09910422 0.3898751
vn -0.9293465 0.08737478 0.358721
vn -0.9832897 0.02975712 0.1795989
vn -1 -4.478107e-06 -1.708241e-05
vn -0.9579901 -0.08765679 -0.2730774
vn -1 4.3284e-05 3.094259e-05
vn -0.9597335 -0.1482104 -0.2386318
vn -1 -0.000165431 6.320794e-05
vn -0.9591765 -0.1961067 -0.203771
vn -0.959323 0.2321167 0.1606897
vn -1 2.656131e-05 -9.301258e-06
vn -1 -7.643038e-05 -9.01266e-05
vn -1 -1.865335e-05 6.518232e-05
vn -0.957118 -0.01007147 -0.2895235
vn -0.9999995 -0.0005865989 0.0008044955
vn -0.9999981 -0.000169769 0.001938164
vn -0.9590424 0.1819698 0.2170826
vn -1 -7.538726e-05 -0.0001054799
vn -1 1.641825e-05 -3.128735e-05
vn -0.9999997 -0.0006040307 -0.0004267057
vn -0.9599172 0.257734 0.1101466
vn -1 6.156156e-05 6.026362e-05
vn -1 -1.311399e-05 9.183908e-05
vn -0.9607356 0.04969621 -0.272979
vn -0.9999991 -0.0005016272 0.001231186
vn -0.9999999 -0.0002734781 -0.0002515486
vn -1 -3.06127e-06 4.887023e-05
vn -0.9601954 0.1137513 -0.2551189
vn -0.9614742 0.2695912 0.05373994
vn -1 -6.616411e-05 3.162036e-05
vn -1 -4.349464e-05 8.83766e-05
vn -0.9597105 0.1716958 -0.2224325
vn -0.9999999 -0.0003893817 -7.889093e-05
vn -0.9999999 -0.0004692641 6.520094e-06
vn -0.9601105 0.2794466 -0.009869761
vn -0.9999999 2.206856e-05 -0.0002508144
vn -0.9999991 -0.0007853683 0.001157302
vn -0.9999967 -0.002406603 0.0008976807
vn -0.9595244 0.2719496 -0.07318655
vn -0.9999996 0.0008308933 -0.0002456835
vn -0.9999999 -0.0002646599 0.0001339893
vn -1 9.539849e-05 0.0001547512
vn -0.9594182 0.2554639 -0.1193944
vn -0.9581189 0.2312779 -0.1688746
vn -0.9999999 0.0003647823 -1.240894e-05
vn -1 9.990927e-05 -9.518102e-05
vn -0.9999952 -0.002179408 0.002226972
vn -0.9999994 -0.0009448557 0.0004058625
vn -0.9999998 -0.0005993157 0.000497413
vn 0.9889847 0.001005121 0.1480147
vn 0.999997 -1.861701e-05 0.002440746
vn 0.971403 0.07437522 0.2254876
vn 0.9999982 4.356608e-05 0.00189539
vn 0.9964007 -0.04873596 0.06935824
vn 0.9999993 -0.0005517471 0.0009816611
vn 0.9999997 -0.0005585178 0.0004033993
vn 0.9999992 0.0005177864 0.001114109
vn 0.9937022 -0.0246911 0.1092989
vn 0.9942747 -0.09016484 0.05734108
vn 0.9999998 -0.0004820146 0.0003704728
vn 0.9999999 -0.0004553892 9.407605e-05
vn 0.9866524 -0.1453037 0.07351117
vn 0.9598183 0.1891091 0.2073318
vn 0.9592758 0.1427785 0.2437299
vn 1 0.0001331026 0.000150958
vn 1 8.768347e-05 0.0001806204
vn 1 7.619384e-05 -6.15746e-05
vn 0.9598094 0.104628 -0.2604206
vn 0.9587111 0.1756705 -0.2236356
vn 1 0.0001257527 -0.0001688837
vn 1 5.115785e-06 -6.241893e-05
vn 0.9604244 0.04583124 -0.2747446
vn 0.9599881 0.232464 0.156152
vn 1 8.484851e-05 0.0001018235
vn 0.960259 0.2744699 -0.05068342
vn 1 8.125394e-05 1.818093e-06
vn 1 6.251183e-05 -2.460909e-05
vn 0.9587135 0.228859 -0.1687956
vn 0.960699 0.2508977 -0.1187762
vn 1 4.084089e-05 -2.806316e-05
vn 1 -6.396309e-06 -8.655325e-05
vn 0.9599568 -0.01552952 -0.2797171
vn 1 3.199155e-05 -2.018023e-05
vn 0.9602968 -0.08255149 -0.2664871
vn 1 -7.667881e-05 -4.203219e-05
vn 0.9596029 -0.1365352 -0.2460091
vn 1 5.520829e-05 3.389509e-05
vn 0.9588925 0.2658788 0.09916461
vn 1 7.391963e-05 -4.972746e-07
vn 1 6.05419e-05 -9.939503e-05
vn 0.9999982 -0.001739007 0.000747481
vn 0.9572015 0.2891531 0.01248117
vn 1 -0.0001034627 -0.000135897
vn 0.9582242 -0.1903396 -0.2134879
vn 1 -0.0001168109 -0.0001044326
vn 1 1.842561e-05 -1.837237e-05
vn 1 4.139519e-05 4.4604e-05
vn 0.9999972 -0.0009127783 0.002144016
vn 1 -0.0001696254 -5.931348e-05
vn 1 -0.000115028 -0.0001184385
vn 0.7530033 -0.3212055 -0.5742936
vn 0.5291982 0.04560937 -0.8472715
vn 0.7545429 0.1216123 -0.644884
vn 0.6940514 0.3995459 -0.5988787
vn 0.7901972 0.5871087 -0.1757605
vn 0.6896876 0.6586271 -0.3009011
vn 0.5135186 0.7255955 -0.45805
vn 0.7577401 0.4909223 -0.429913
vn 0.6671614 0.4924337 -0.5589319
vn 0.7501275 0.2921575 -0.5932561
vn 0.6667473 0.2301154 -0.7088687
vn 0.7495843 -0.07313155 -0.6578565
vn 0.7382941 -0.149773 -0.6576396
vn 0.7605234 -0.249825 -0.5993259
vn 0.5163464 -0.5283756 -0.6739477
vn 0.5185474 -0.6172123 -0.5917412
vn -0.5119302 -0.6078713 -0.6069761
vn -0.1686736 0.3712808 -0.9130716
vn -0.3724597 0.265564 -0.889241
vn -0.3579098 0.4429195 -0.8220237
vn -0.5181392 -0.5265852 -0.6739731
vn -0.739817 -0.3187705 -0.5924999
vn -0.3440816 -0.4743835 -0.8102888
vn -0.6536249 -0.2664129 -0.7083775
vn -0.5114535 0.03162493 -0.8587288
vn -0.7476193 0.1238967 -0.6524683
vn -0.3519587 0.1616372 -0.9219537
vn -0.7492617 0.2127227 -0.627181
vn -0.7320371 0.2937388 -0.6146862
vn -0.7389966 0.3672348 -0.5648209
vn -0.3512169 0.5439678 -0.7620667
vn -0.7475495 0.4435517 -0.4944001
vn -0.3497271 0.6389879 -0.6851171
vn -0.6758735 0.5558121 -0.4840125
vn -0.2578932 -0.3737688 -0.8909478
vn -0.6718604 -0.1661105 -0.7218108
vn -0.2606277 -0.2395737 -0.935242
vn -0.5124751 -0.08554577 -0.8544304
vn -0.2519715 0.7520069 -0.6090943
vn -0.5132472 0.7338777 -0.444973
vn -0.2380465 0.9340891 -0.2661042
vn -0.5185173 0.7800314 -0.3502726
vn -0.6602608 0.7219709 -0.2069146
vn -0.185791 0.8438235 0.5034318
vn -0.2728012 0.881582 0.3852178
vn -0.5345984 0.6971325 0.4777141
vn -0.5675482 0.528417 0.6313989
vn -0.1825657 0.6820484 0.7081523
vn -0.3562575 0.7080222 0.6097419
vn -0.1740431 0.5775074 0.7976179
vn -0.6734878 0.6635171 0.325821
vn -0.2823153 0.9244961 0.2561351
vn -0.664503 0.7097823 0.2337625
vn -0.250822 0.9582416 0.1373369
vn -0.6725954 0.7320943 0.1079504
vn -0.2362295 0.9716918 0.003292542
vn -0.6568875 0.7538527 0.01431255
vn -0.266754 0.9550614 -0.1292287
vn -0.6786823 0.726737 -0.1060354
vn -0.7552957 0.4929857 0.4318489
vn 0.01049971 0.9619782 -0.2729242
vn 0.05841123 0.9598427 -0.2743903
vn 0.04951244 0.9172818 -0.3951488
vn 0.04683113 -0.263448 -0.9635361
vn 0.008861902 -0.2660285 -0.9639245
vn 0.00931827 -0.1295352 -0.991531
vn -0.04703577 0.9203039 -0.3883663
vn -0.04488684 0.8605564 -0.5073735
vn -0.04258573 0.7851061 -0.6178954
vn -0.04394708 0.6988958 -0.7138721
vn -0.04429387 0.6011488 -0.7979087
vn -0.04540697 0.4878269 -0.8717587
vn -0.04053226 0.1281104 -0.9909313
vn -0.04170946 0.263045 -0.9638815
vn -0.04187701 -0.001914107 -0.999121
vn -0.04137646 -0.136192 -0.989818
vn -0.01995013 -0.2696043 -0.9627646
vn -0.06532688 -0.2632452 -0.9625146
vn 0.3560603 -0.2444732 -0.9019167
vn 0.3606113 -0.1271552 -0.9240081
vn 0.05188772 -0.1304865 -0.9900913
vn 0.1884866 -0.02501672 -0.9817572
vn 0.05102102 -0.0004571588 -0.9986975
vn 0.05358738 0.1250423 -0.9907032
vn 0.3510677 0.147885 -0.924598
vn 0.0500818 0.2512916 -0.9666148
vn 0.2599238 0.269595 -0.9272315
vn 0.05119283 0.3781913 -0.9243109
vn 0.3472965 0.3989355 -0.848667
vn 0.2781198 0.5221733 -0.8062161
vn 0.05201286 0.4890029 -0.87073
vn 0.04809144 0.6008666 -0.7979013
vn 0.05052105 0.7851905 -0.61719
vn 0.3536862 0.7175587 -0.600013
vn 0.04880366 0.6985503 -0.7138947
vn 0.2603608 0.6557234 -0.7086883
vn 0.05073203 0.8575431 -0.5119043
vn 0.269399 0.8790374 -0.3933414
vn 0.3993672 0.8813284 -0.2525194
vn 0.009397252 0.9162431 -0.4005122
vn -0.02661839 0.9606436 -0.2765054
vn -0.02058746 0.3747353 -0.9269032
vn 0.009131788 0.8589897 -0.5119114
vn 0.009163604 0.7856684 -0.61858
vn 0.009190131 0.6991772 -0.7148893
vn 0.00921718 0.6009641 -0.7992228
vn 0.01021068 0.4933486 -0.8697718
vn 0.01086081 0.3754697 -0.926771
vn 0.009444672 0.2532559 -0.9673532
vn 0.009370524 0.1261841 -0.9919626
vn 0.009361086 -0.00298208 -0.9999517
vn -0.04520462 -0.7187187 -0.6938299
vn 0.02967459 -0.7199158 -0.6934268
vn 0.05711978 -0.6300234 -0.7744725
vn 0.05164985 -0.5196068 -0.8528429
vn 0.3559866 -0.4688003 -0.8083933
vn 0.05079519 -0.4020799 -0.9141945
vn 0.361297 -0.3545393 -0.8624189
vn 0.01032593 -0.4032322 -0.9150394
vn -0.04305748 -0.3993918 -0.9157687
vn 0.009495126 -0.5193129 -0.8545313
vn -0.04247148 -0.512917 -0.8573869
vn 0.005776616 -0.6301922 -0.7764177
vn -0.0442996 -0.6187453 -0.7843416
vn -0.04681787 0.9890632 -0.1398643
vn -0.04693102 0.7846588 0.6181489
vn -0.04307606 0.9178355 0.3946167
vn -0.04193661 0.9672664 0.2502738
vn 0.01056117 0.9900785 -0.1401179
vn 0.05360505 0.9985124 -0.009974889
vn 0.4995962 0.8662363 0.006183709
vn 0.04944836 0.9884632 -0.1431618
vn 0.2697416 0.95403 -0.130638
vn 0.2860717 0.9489107 0.1331596
vn 0.05112258 0.9908652 0.1247901
vn 0.05180092 0.9646751 0.2582993
vn 0.2905939 0.9220902 0.2555482
vn 0.05085127 0.9229931 0.3814418
vn 0.2770182 0.8678982 0.412327
vn 0.04730662 0.8617007 0.505207
vn 0.04759976 0.7863223 0.6159802
vn 0.2841363 0.7788227 0.5591973
vn 0.0477259 0.6965571 0.7159123
vn 0.3018875 0.6890905 0.6588006
vn 0.2662535 0.587889 0.7638689
vn 0.04675749 0.5942362 0.8029304
vn 0.01160965 0.59728 0.8019488
vn -0.02576291 0.5948373 0.8034332
vn -0.02474848 0.6997604 0.7139488
vn -0.02058514 0.8636245 0.5037152
vn -0.02676164 0.9916549 0.1261129
vn -0.02480482 0.9996099 -0.01283826
vn 0.01070555 0.9998946 -0.009809558
vn 0.01181689 0.9920396 0.12537
vn 0.01026581 0.9660436 0.2581751
vn 0.009285646 0.9229194 0.3848813
vn 0.01077034 0.863263 0.5046396
vn 0.01015006 0.7867188 0.617228
vn 0.01072762 0.6978516 0.716162
vn 0.9957076 -0.07721392 0.05103467
vn 0.9773207 -0.007598626 0.2116285
vn 0.9886972 -0.0365673 0.1453979
vn 0.9921702 -0.05647511 0.1113949
vn 0.9647238 -0.2587422 0.04858461
vn 0.9836384 -0.1784342 0.02483229
vn 0.6920952 0.7162578 -0.08932604
vn 0.6737604 0.473513 0.5673028
vn 0.6924466 0.546542 0.4709665
vn 0.6559649 0.6363071 0.4059843
vn 0.6903867 0.6524272 0.3125776
vn 0.6585273 0.7125906 0.2419846
vn 0.7009377 0.7012504 0.1301319
vn -6.464529e-05 -0.9999989 0.001455059
vn -0.0001020129 -0.9999989 0.001474076
vn 4.118023e-07 -1 9.609779e-05
vn -2.372757e-07 -1 1.231443e-05
vn 8.161924e-07 -1 1.416543e-06
vn 8.157996e-07 -1 8.360366e-07
vn 1.511091e-06 -1 3.395369e-07
vn 1.579383e-06 -1 2.003765e-06
vn 5.182488e-06 -1 3.22321e-06
vn 5.188178e-06 -1 4.166045e-06
vn 8.608809e-07 -1 1.21373e-06
vn 9.673622e-08 -1 -4.826326e-07
vn -4.824445e-06 -1 -6.27171e-07
vn -4.917608e-06 -1 -8.975243e-07
vn 1.967525e-07 -1 1.270404e-07
vn 4.057756e-07 -1 4.559984e-07
vn -3.25391e-06 -1 1.680471e-07
vn -3.75555e-06 -1 1.381694e-07
vn -6.140393e-06 -1 2.336539e-06
vn -5.969399e-06 -1 2.439347e-06
vn -1.148724e-06 -1 1.625456e-06
vn -6.35397e-07 -1 1.373993e-06
vn 1.03873e-06 -1 -1.605853e-07
vn 7.530548e-07 -1 -2.899583e-07
vn -2.680016e-06 -1 3.334698e-06
vn -2.598043e-06 -1 4.410716e-06
vn -4.670768e-05 -1 -6.156533e-05
vn -0.0001128224 -1 -0.0002486861
vn 5.354144e-05 -0.9999992 -0.001221978
vn 8.959788e-05 -0.9999992 -0.001239524
vn 0.0001337994 -1 0.0003157853
vn 5.270829e-05 -1 8.715969e-05
vn 7.250101e-07 -1 1.486593e-07
vn 5.181711e-07 -1 -2.436439e-07
vn -3.291046e-06 -1 2.994433e-06
vn -3.420887e-06 -1 3.111467e-06
vn -1.289707e-06 -1 6.781368e-07
vn -8.639631e-07 -1 -4.239661e-08
vn 3.811817e-06 -1 -1.7739e-06
vn 4.458749e-06 -1 -1.753835e-06
vn 7.884273e-06 -1 -5.644042e-07
vn 7.092662e-06 -1 -7.014293e-07
vn -5.533292e-06 -1 -1.491256e-06
vn -5.94465e-06 -1 -1.309961e-06
vn -9.211428e-07 -1 -7.994756e-07
vn -4.903582e-07 -1 -4.470609e-07
vn 4.549931e-07 -1 7.583976e-07
vn 1.673522e-07 -1 -9.700947e-08
vn -3.440949e-06 -1 -2.059769e-06
vn -3.603461e-06 -1 -2.220765e-06
vn -2.660476e-06 -1 -4.892848e-06
vn -2.676368e-06 -1 -2.047873e-06
vn 6.530687e-07 -1 4.69298e-07
vn 8.161941e-07 -1 1.416545e-06
vn 1.215283e-06 -1 8.743536e-06
vn 2.874274e-06 -1 -6.714124e-05
vn 1 -1.894454e-07 0
vn 1 7.989995e-07 0
vn 1 -1.183013e-07 0
vn 1 0 0
vn 1 4.269181e-08 0
vn 1 2.78259e-07 0
vn 1 -2.62835e-08 0
vn 1 -2.612167e-07 0
vn 1 -6.630188e-07 0
vn 1 2.953754e-07 0
vn 1 1.425601e-08 0
vn 1 -2.215656e-07 0
vn 1 4.266338e-08 0
vn 1 -1.543028e-07 0
vn 1 1.74843e-06 0
vn 1 -5.862959e-08 0
vn 1 7.220418e-08 0
vn 1 -1.82099e-07 0
vn 1 -8.319473e-08 0
vn 1 -6.242188e-08 0
vn 1 4.736144e-08 0
vn 1 1.657552e-07 0
vn 1 -2.26118e-08 0
vn 1 -5.828131e-07 0
vn 1 -4.749267e-07 0
vn 2.992875e-06 2.797331e-06 -1
vn -2.85922e-06 2.78977e-06 -1
vn 0.2225233 2.591091e-06 -0.9749274
vn 0.2225177 2.617561e-06 -0.9749287
vn 0.4338863 2.519575e-06 -0.9009677
vn 0.4338808 1.461197e-06 -0.9009703
vn 0.6234919 -6.710885e-06 -0.7818298
vn 0.6234867 -6.831883e-06 -0.781834
vn 0.7818337 2.032151e-06 -0.6234871
vn 0.7818305 2.757871e-06 -0.623491
vn 0.9009702 2.041803e-06 -0.433881
vn 0.9009677 1.074103e-06 -0.4338862
vn 0.9749287 -1.674013e-06 -0.2225178
vn 0.974927 -2.641843e-06 -0.2225252
vn 1 2.419951e-07 3.584763e-06
vn 1 -2.419947e-07 -3.584763e-06
vn 0.9749269 2.641843e-06 0.2225251
vn 0.9749287 1.674013e-06 0.2225178
vn 0.9009677 -1.074103e-06 0.4338861
vn 0.9009702 -2.041803e-06 0.433881
vn 0.7818305 -2.757871e-06 0.6234911
vn 0.7818336 -2.032151e-06 0.6234872
vn 0.6234865 6.831885e-06 0.7818341
vn 0.6234918 6.529453e-06 0.7818298
vn 0.433881 -3.229655e-06 0.9009702
vn 0.4338866 -4.439224e-06 0.9009675
vn 0.2225178 -4.466452e-06 0.9749287
vn 0.2225235 -4.224521e-06 0.9749273
vn -2.572822e-06 -2.974992e-06 1
vn 3.174266e-06 -2.831355e-06 1
vn -0.2225232 -3.187007e-06 0.9749274
vn -0.2225179 -3.345764e-06 0.9749286
vn -0.4338854 -3.928774e-06 0.9009681
vn -0.4338802 -2.900648e-06 0.9009706
vn -0.6234932 6.350419e-06 0.7818288
vn -0.6234893 6.531872e-06 0.7818319
vn -0.7818332 -1.432179e-06 0.6234877
vn -0.7818289 -2.399846e-06 0.623493
vn -0.90097 -2.399833e-06 0.4338814
vn -0.9009674 -1.674078e-06 0.4338868
vn -0.9749284 1.674035e-06 0.2225187
vn -0.9749275 2.399882e-06 0.2225227
vn -1 0 -2.248234e-06
vn -1 0 2.253007e-06
vn -0.9749275 -2.399882e-06 -0.2225227
vn -0.9749284 -1.674035e-06 -0.2225187
vn -0.9009674 1.674078e-06 -0.4338868
vn -0.90097 2.399833e-06 -0.4338814
vn -0.781829 2.399846e-06 -0.6234929
vn -0.7818332 1.43218e-06 -0.6234877
vn -0.6234893 -6.83186e-06 -0.7818319
vn -0.6234934 -6.710867e-06 -0.7818286
vn -0.4338798 1.311206e-06 -0.9009708
vn -0.4338848 2.43007e-06 -0.9009684
vn -0.2225177 2.725816e-06 -0.9749287
vn -0.2225234 2.752272e-06 -0.9749274
vn 9.322356e-10 -1 2.234985e-07
vn -2.889567e-07 -1 1.486141e-07
vn 7.638418e-08 -1 -7.2189e-07
vn -1.591566e-06 -1 3.444999e-07
vn -6.109507e-07 -1 3.481811e-07
vn 2.620945e-07 -1 2.117872e-07
vn -6.121042e-07 -1 5.97951e-07
vn 1.181271e-06 -1 -3.052581e-07
vn 7.776893e-07 -1 -2.464211e-07
vn 1.518255e-06 -1 -1.182963e-06
vn 1.768528e-06 -1 -1.389576e-06
vn -6.635852e-07 -1 4.448927e-07
vn 4.435836e-06 -1 -9.220499e-06
vn -1.130755e-06 -1 2.36474e-06
vn -4.683014e-07 -1 1.48588e-06
vn -8.639454e-07 -1 -4.016648e-06
vn -8.639429e-07 -1 -7.68372e-06
vn 2.10517e-07 -1 1.337397e-06
vn 2.921918e-07 -1 1.196683e-06
vn -7.783441e-07 -1 -3.468596e-06
vn 3.190591e-07 -1 3.518677e-07
vn -1.029938e-06 -1 -1.261881e-06
vn -7.147933e-07 -1 -7.660572e-07
vn -7.018482e-07 -1 -4.315246e-07
vn -7.960015e-07 -1 -3.684288e-07
vn 4.668275e-07 -1 6.987464e-07
vn 7.392405e-07 -1 5.358667e-07
vn 1.204971e-06 -1 5.59999e-07
vn 0.04076371 -0.5390098 -0.8413125
vn -0.1847494 -0.4072557 -0.894433
vn 0.003294978 -0.6651764 -0.7466791
vn 0 -0.6654172 -0.7464716
vn 0 -0.8148385 -0.579688
vn 0 -0.8148393 -0.579687
vn 0 -0.923402 -0.3838343
vn 0 -0.9234024 -0.3838333
vn 0 -0.9856608 -0.1687388
vn 0 -0.985661 -0.1687376
vn 0 -0.9984959 0.05482669
vn 0 -0.9984958 0.05482791
vn 0 -0.9612616 0.2756376
vn 0 -0.9612613 0.2756386
vn 0 -0.8758265 0.4826259
vn 0 -0.875826 0.482627
vn 0 -0.7464702 0.6654189
vn 0 -0.7464696 0.6654196
vn 0 -0.5796902 0.814837
vn 0 -0.5796894 0.8148376
vn 0 -0.3838342 0.9234021
vn 0 -0.3838331 0.9234025
vn 0 -0.1687363 0.9856613
vn 0 -0.1687352 0.9856614
vn 0 0.05482436 0.9984959
vn 0 0.05482563 0.9984959
vn 0 0.2756358 0.9612622
vn 0 0.2756372 0.9612618
vn 0 0.4826266 0.8758262
vn 0 0.482628 0.8758254
vn 0 0.6654155 0.7464732
vn 0 0.6654167 0.7464722
vn 0 0.8148382 0.5796885
vn 0 0.814839 0.5796874
vn 0 0.9234015 0.3838355
vn 0 0.9234021 0.3838342
vn 0 0.9856613 0.1687361
vn 0 0.9856614 0.1687346
vn 0 0.9984959 -0.05482608
vn 0 0.9984959 -0.05482758
vn 0 0.9612619 -0.2756364
vn 0 0.9612616 -0.2756378
vn 0 0.8758268 -0.4826255
vn 0 0.8758262 -0.4826267
vn 0 0.7464734 -0.6654153
vn 0 0.7464723 -0.6654165
vn 0 0.5796894 -0.8148375
vn 0 0.5796881 -0.8148384
vn 0 0.3838347 -0.9234018
vn 0 0.3838334 -0.9234024
vn 0 0.1687364 -0.9856611
vn 0 0.168735 -0.9856614
vn 0 -0.05482325 -0.9984961
vn 0 -0.05482472 -0.9984961
vn 0 -0.260978 -0.9653447
vn -0.009685609 -0.2620528 -0.965005
vn -1 8.187423e-08 -3.287232e-08
vn -1 0 -2.966093e-08
vn -1 2.604714e-07 1.204006e-07
vn -1 -1.9495e-08 -3.84519e-08
vn -1 1.83171e-07 -3.732324e-08
vn -1 2.28271e-07 -3.543142e-08
vn -1 -7.315948e-07 -3.39836e-08
vn -1 1.394853e-07 -3.737154e-08
vn -1 1.607103e-07 -3.860425e-08
vn -1 2.767286e-07 1.501964e-08
vn -1 -6.575787e-07 -1.307085e-08
vn -1 6.37672e-07 -2.69362e-08
vn -1 6.898199e-06 9.070557e-07
vn -1 -8.590001e-07 2.496866e-07
vn -1 2.124181e-06 7.783529e-08
vn -1 -2.107953e-07 4.938913e-07
vn -1 0 1.340393e-06
vn -1 -2.478282e-07 8.408272e-08
vn -1 -1.819454e-07 1.397008e-07
vn -1 -1.552421e-07 2.44933e-07
vn -1 -1.897118e-07 1.250887e-08
vn -1 -4.498123e-08 2.821874e-08
vn -1 -2.072432e-07 5.04634e-08
vn -1 5.746528e-08 -1.52384e-08
vn -1 -3.898995e-08 -8.120367e-09
vn -1 -1.578616e-07 8.55907e-10
vn -1 -4.093718e-08 -2.574546e-08
vn -1 -1.166527e-08 -2.100591e-08
f 1//1 2//2 3//3
f 1//1 3//3 4//4
f 4//4 3//3 5//5
f 4//4 5//5 6//6
f 6//6 5//5 7//7
f 6//6 7//7 8//8
f 8//8 7//7 9//9
f 8//8 9//9 10//10
f 10//10 9//9 11//11
f 10//10 11//11 12//12
f 12//12 11//11 13//13
f 12//12 13//13 14//14
f 14//14 13//13 15//15
f 14//14 15//15 16//16
f 16//16 15//15 17//17
f 16//16 17//17 18//18
f 18//18 17//17 19//19
f 18//18 19//19 20//20
f 20//20 19//19 21//21
f 20//20 21//21 22//22
f 22//22 21//21 23//23
f 22//22 23//23 24//24
f 24//24 23//23 25//25
f 24//24 25//25 26//26
f 26//26 25//25 27//27
f 26//26 27//27 28//28
f 28//28 27//27 29//29
f 28//28 29//29 30//30
f 30//30 29//29 31//31
f 30//30 31//31 32//32
f 32//32 31//31 33//33
f 32//32 33//33 34//34
f 34//34 33//33 35//35
f 34//34 35//35 36//36
f 36//36 35//35 37//37
f 36//36 37//37 38//38
f 38//38 37//37 39//39
f 38//38 39//39 40//40
f 40//40 39//39 41//41
f 40//40 41//41 42//42
f 42//42 41//41 43//43
f 42//42 43//43 44//44
f 44//44 43//43 45//45
f 44//44 45//45 46//46
f 46//46 45//45 47//47
f 46//46 47//47 48//48
f 48//48 47//47 49//49
f 48//48 49//49 50//50
f 50//50 49//49 51//51
f 50//50 51//51 52//52
f 52//52 51//51 53//53
f 52//52 53//53 54//54
f 54//54 53//53 55//55
f 54//54 55//55 56//56
f 56//56 55//55 2//2
f 56//56 2//2 1//1
f 60//57 59//58 61//59
f 61//59 59//58 62//60
f 61//59 62//60 63//61
f 64//62 186//63 62//60
f 62//60 186//63 63//61
f 65//64 188//65 64//62
f 64//62 188//65 187//66
f 187//66 66//67 64//62
f 64//62 66//67 186//63
f 68//68 67//69 65//64
f 65//64 67//69 69//70
f 65//64 69//70 188//65
f 67//69 68//68 173//71
f 173//71 68//68 70//72
f 72//73 71//74 73//75
f 72//73 73//75 70//72
f 70//72 73//75 173//71
f 71//74 72//73 74//76
f 74//76 72//73 75//77
f 77//78 76//79 78//80
f 77//78 78//80 75//77
f 75//77 78//80 74//76
f 79//81 80//82 77//78
f 77//78 80//82 76//79
f 81//83 82//84 79//81
f 79//81 82//84 80//82
f 57//85 83//86 58//87
f 58//87 83//86 81//83
f 81//83 83//86 82//84
f 57//85 58//87 84//88
f 84//88 58//87 85//89
f 86//90 87//91 85//89
f 85//89 87//91 84//88
f 88//92 87//91 86//90
f 88//92 86//90 89//93
f 88//92 89//93 90//94
f 90//94 89//93 91//95
f 91//95 89//93 92//96
f 91//95 92//96 93//97
f 93//97 92//96 94//98
f 93//97 94//98 95//99
f 97//100 96//101 94//98
f 94//98 96//101 95//99
f 96//101 97//100 98//102
f 98//102 97//100 99//103
f 98//102 99//103 100//104
f 102//105 101//106 124//107
f 102//105 124//107 103//108
f 103//108 124//107 104//109
f 103//108 104//109 99//103
f 99//103 104//109 100//104
f 105//110 106//111 107//112
f 105//110 107//112 108//113
f 106//111 105//110 109//114
f 106//111 109//114 102//105
f 102//105 109//114 101//106
f 108//113 107//112 110//115
f 108//113 110//115 111//116
f 111//116 110//115 172//117
f 172//117 110//115 112//118
f 113//119 114//120 112//118
f 112//118 114//120 171//121
f 112//118 171//121 172//117
f 189//122 184//123 115//124
f 115//124 184//123 113//119
f 113//119 184//123 183//125
f 113//119 183//125 114//120
f 189//122 115//124 116//126
f 116//126 115//124 117//127
f 116//126 117//127 118//128
f 118//128 117//127 59//58
f 118//128 59//58 60//57
f 119//129 105//110 120//130
f 109//114 121//131 101//106
f 105//110 108//113 120//130
f 125//132 122//133 121//134
f 121//134 122//133 123//135
f 121//134 123//135 124//107
f 121//131 124//107 101//106
f 119//136 125//132 121//134
f 119//129 121//131 105//110
f 105//110 121//131 109//114
f 122//133 127//137 128//138
f 122//133 125//132 127//137
f 127//137 125//132 126//139
f 131//140 71//74 129//141
f 132//142 133//143 78//80
f 78//80 133//143 129//141
f 129//141 133//143 131//140
f 129//141 71//74 74//76
f 129//141 74//76 78//80
f 71//74 131//140 130//144
f 73//75 71//74 130//144
f 78//80 76//145 132//142
f 130//144 131//140 135//146
f 131//140 133//143 135//146
f 135//146 133//143 136//147
f 135//146 136//147 134//148
f 134//149 136//149 137//149
f 141//150 140//151 84//88
f 141//150 84//88 144//152
f 141//150 144//152 142//153
f 139//154 138//155 80//156
f 80//156 138//155 76//145
f 90//94 143//157 142//153
f 57//158 84//88 140//151
f 57//158 140//151 83//159
f 138//155 132//142 76//145
f 88//92 90//94 142//153
f 88//92 142//153 87//91
f 87//91 142//153 144//152
f 87//91 144//152 84//88
f 140//151 139//154 83//159
f 83//159 139//154 82//160
f 82//160 139//154 80//156
f 146//161 145//162 147//163
f 148//164 149//165 150//166
f 149//165 148//164 151//167
f 123//135 149//165 151//167
f 123//135 151//167 124//107
f 124//107 151//167 104//109
f 104//109 151//167 148//164
f 104//109 148//164 100//104
f 100//104 148//164 150//166
f 100//104 150//166 98//102
f 98//102 150//166 152//168
f 98//102 152//168 96//101
f 95//99 96//101 145//162
f 145//162 96//101 152//168
f 145//162 152//168 147//163
f 147//163 152//168 150//166
f 147//163 150//166 149//165
f 145//162 146//161 153//169
f 145//162 153//169 95//99
f 95//99 153//169 93//97
f 90//94 91//95 143//157
f 153//169 146//161 143//157
f 153//169 143//157 91//95
f 153//169 91//95 93//97
f 123//135 154//170 149//165
f 132//142 138//155 202//171
f 154//170 147//163 149//165
f 138//155 139//154 202//171
f 202//171 139//154 160//172
f 160//172 139//154 140//151
f 142//173 155//174 141//150
f 141//150 155//174 156//175
f 141//150 156//175 140//151
f 140//151 156//175 157//176
f 147//163 154//170 146//161
f 146//161 154//170 230//177
f 146//161 230//177 158//178
f 159//179 160//172 140//151
f 159//179 140//151 157//176
f 146//161 158//178 143//157
f 143//157 158//178 161//180
f 155//174 142//173 161//180
f 142//173 143//157 161//180
f 162//181 126//139 125//132
f 163//182 126//139 162//181
f 162//181 125//132 164//183
f 164//183 125//132 165//184
f 164//183 165//184 166//185
f 166//185 165//184 167//186
f 167//186 165//184 168//187
f 169//188 119//188 120//188
f 172//189 171//121 170//190
f 172//189 170//190 169//191
f 169//191 120//130 111//116
f 111//116 120//130 108//113
f 169//191 111//116 172//189
f 130//144 174//192 173//71
f 173//71 73//75 130//144
f 69//193 67//194 175//195
f 174//192 175//195 67//194
f 174//192 67//194 173//71
f 69//193 175//195 178//196
f 170//190 171//121 179//197
f 179//197 183//198 180//199
f 180//199 183//198 184//200
f 182//201 177//202 186//63
f 187//203 188//204 178//196
f 178//196 188//204 69//193
f 179//197 171//121 114//120
f 179//197 114//120 183//198
f 60//57 61//59 185//205
f 185//205 61//59 177//202
f 177//202 61//59 63//61
f 177//202 63//61 186//63
f 180//199 184//200 189//122
f 181//206 180//199 189//122
f 181//206 189//122 116//126
f 116//126 118//128 181//206
f 181//206 118//128 176//207
f 176//207 118//128 185//205
f 118//128 60//57 185//205
f 182//201 186//63 178//196
f 186//63 66//67 187//66
f 186//63 187//203 178//196
f 135//146 190//208 130//144
f 191//209 190//208 135//146
f 191//209 135//146 192//210
f 192//210 135//146 193//211
f 193//211 135//146 134//148
f 193//211 134//148 194//212
f 194//212 134//148 195//213
f 195//213 134//148 137//214
f 199//215 197//216 200//217
f 196//218 200//217 197//216
f 198//219 199//215 201//220
f 133//143 202//171 203//221
f 132//142 202//171 133//143
f 133//143 203//221 136//147
f 204//222 136//147 205//223
f 204//222 194//212 195//213
f 137//214 136//147 195//213
f 214//224 213//225 209//226
f 207//227 213//225 215//228
f 207//227 215//228 208//229
f 208//229 217//230 207//227
f 216//231 217//230 208//229
f 214//224 206//232 218//233
f 214//224 218//233 213//225
f 213//225 218//233 215//228
f 205//223 136//147 203//221
f 205//223 203//221 219//234
f 204//222 195//213 136//147
f 209//226 212//235 214//224
f 214//224 212//235 206//232
f 212//235 209//226 211//236
f 211//236 209//226 210//237
f 204//222 205//223 210//237
f 210//237 205//223 211//236
f 211//236 205//223 219//234
f 211//236 219//234 212//235
f 212//235 219//234 206//232
f 230//177 228//238 158//178
f 161//180 229//239 155//174
f 227//240 228//238 230//177
f 158//241 228//242 226//243
f 158//241 226//243 225//244
f 158//241 225//244 161//245
f 161//245 225//244 224//246
f 161//245 224//246 229//247
f 155//248 229//247 223//249
f 155//248 223//249 156//250
f 156//250 223//249 222//251
f 156//250 222//251 157//252
f 157//252 222//251 221//253
f 157//252 221//253 159//254
f 159//254 221//253 220//255
f 154//170 232//256 233//257
f 233//257 232//256 231//258
f 234//259 154//170 233//257
f 230//177 154//170 235//260
f 235//260 154//170 234//259
f 227//240 230//177 235//260
f 159//179 237//261 160//172
f 236//262 160//172 237//261
f 238//263 203//221 202//171
f 202//171 160//172 239//264
f 239//264 160//172 236//262
f 202//171 239//264 238//263
f 237//265 159//254 220//255
f 168//187 119//136 169//191
f 170//190 168//187 169//191
f 240//266 241//267 242//268
f 168//187 170//190 252//269
f 252//269 170//190 179//197
f 243//270 244//271 245//272
f 245//272 244//271 254//273
f 245//272 254//273 252//269
f 244//271 243//270 246//274
f 246//274 243//270 247//275
f 243//270 248//276 247//275
f 198//219 249//277 241//267
f 241//267 249//277 248//276
f 198//219 241//267 199//215
f 199//215 241//267 240//266
f 199//215 240//266 197//216
f 197//216 240//266 182//201
f 197//216 182//201 196//218
f 178//196 175//195 190//208
f 182//201 178//196 196//218
f 196//218 178//196 190//208
f 176//207 185//205 242//268
f 242//268 185//205 240//266
f 240//266 185//205 177//202
f 240//266 177//202 182//201
f 242//268 243//270 176//207
f 176//207 243//270 245//272
f 176//207 245//272 181//206
f 252//269 179//197 180//199
f 252//269 180//199 245//272
f 245//272 180//199 181//206
f 241//267 248//276 242//268
f 242//268 248//276 243//270
f 130//144 190//208 174//192
f 190//208 175//195 174//192
f 250//278 201//220 199//215
f 250//278 199//215 251//279
f 251//279 199//215 200//217
f 251//279 200//217 196//218
f 251//279 196//218 191//209
f 191//209 196//218 190//208
f 167//186 168//187 252//280
f 254//273 253//281 167//186
f 254//273 167//186 252//280
f 253//281 254//273 255//282
f 253//281 255//282 256//283
f 257//284 258//285 259//286
f 231//258 266//287 233//288
f 233//288 266//287 234//289
f 234//289 266//287 262//290
f 234//289 262//290 235//291
f 235//291 262//290 227//292
f 227//292 262//290 263//293
f 265//294 259//286 261//295
f 261//295 259//286 260//296
f 260//296 259//286 258//285
f 261//295 267//297 264//298
f 265//294 261//295 264//298
f 265//294 263//293 259//286
f 259//286 263//293 262//290
f 259//286 262//290 266//287
f 259//286 266//287 257//284
f 257//284 266//287 231//258
f 268//299 269//300 270//301
f 271//302 272//303 273//304
f 264//298 273//304 274//305
f 228//306 227//292 275//307
f 228//306 275//307 276//308
f 228//306 276//308 226//243
f 277//309 229//247 224//246
f 270//301 278//310 268//299
f 268//299 278//310 279//311
f 279//311 278//310 277//309
f 279//311 277//309 280//312
f 280//312 277//309 224//246
f 281//313 265//294 282//314
f 273//304 272//303 269//300
f 273//304 269//300 274//305
f 274//305 269//300 283//315
f 274//305 283//315 282//314
f 284//316 225//244 226//243
f 284//316 226//243 276//308
f 284//316 276//308 285//317
f 283//315 285//317 282//314
f 282//314 285//317 276//308
f 282//314 276//308 275//307
f 263//293 275//307 227//292
f 263//293 265//294 275//307
f 275//307 265//294 281//313
f 275//307 281//313 282//314
f 274//305 282//314 265//294
f 274//305 265//294 264//298
f 272//303 270//301 269//300
f 283//315 269//300 268//299
f 283//315 268//299 285//317
f 285//317 268//299 279//311
f 285//317 279//311 284//316
f 284//316 279//311 280//312
f 284//316 280//312 225//244
f 225//244 280//312 224//246
f 287//318 288//319 289//320
f 289//320 288//319 290//321
f 290//321 288//319 220//255
f 291//322 299//323 287//318
f 287//318 299//323 292//324
f 287//318 292//324 288//319
f 293//325 300//326 291//322
f 270//301 293//325 278//310
f 294//327 277//309 278//310
f 229//247 277//309 223//249
f 223//249 277//309 295//328
f 223//249 295//328 286//329
f 223//249 286//329 222//251
f 221//253 222//251 286//329
f 294//327 286//329 295//328
f 290//321 220//255 221//253
f 290//321 221//253 286//329
f 290//321 286//329 289//320
f 289//320 286//329 294//327
f 289//320 294//327 287//318
f 287//318 294//327 296//330
f 287//318 296//330 291//322
f 295//328 277//309 294//327
f 294//327 278//310 296//330
f 296//330 278//310 293//325
f 296//330 293//325 291//322
f 220//255 288//319 237//265
f 237//265 288//319 297//331
f 237//265 297//331 236//332
f 236//332 297//331 298//333
f 236//332 298//333 239//334
f 219//234 203//221 206//232
f 299//323 300//326 208//229
f 208//229 300//326 216//231
f 291//322 300//326 299//323
f 215//228 218//233 297//331
f 297//331 218//233 298//333
f 298//333 218//233 206//232
f 298//333 206//232 238//335
f 238//335 206//232 203//221
f 288//319 292//324 297//331
f 238//335 239//334 298//333
f 297//331 292//324 215//228
f 215//228 292//324 208//229
f 208//229 292//324 299//323
f 273//304 267//297 271//302
f 264//298 267//297 273//304
f 301//336 302//337 303//338
f 302//337 304//339 303//338
f 303//338 304//339 305//340
f 305//340 304//339 306//341
f 307//342 308//343 309//344
f 302//337 301//336 310//345
f 302//337 310//345 313//346
f 213//225 311//347 312//348
f 217//230 314//349 315//350
f 315//350 314//349 309//344
f 309//344 314//349 307//342
f 217//230 315//350 316//351
f 311//347 213//225 207//227
f 311//347 207//227 316//351
f 316//351 207//227 217//230
f 250//278 317//352 305//340
f 250//278 305//340 306//341
f 320//353 321//354 308//343
f 320//353 308//343 307//342
f 322//355 325//356 310//345
f 310//345 325//356 313//346
f 323//357 209//226 312//348
f 312//348 209//226 213//225
f 251//279 324//358 250//278
f 250//278 324//358 317//352
f 318//359 319//360 325//356
f 318//359 325//356 322//355
f 321//354 320//353 326//361
f 321//354 326//361 327//362
f 329//363 328//364 319//360
f 329//363 319//360 318//359
f 191//365 330//366 251//279
f 251//279 330//366 324//358
f 331//367 332//368 327//362
f 331//367 327//362 326//361
f 209//226 323//357 333//369
f 209//226 333//369 210//237
f 210//237 333//369 334//370
f 332//368 331//367 335//371
f 332//368 335//371 336//372
f 330//366 191//365 337//373
f 337//373 191//365 192//374
f 338//375 339//376 340//377
f 341//378 339//376 329//363
f 329//363 339//376 328//364
f 210//237 334//370 204//222
f 204//222 334//370 342//379
f 343//380 193//381 194//212
f 343//380 194//212 342//379
f 342//379 194//212 204//222
f 340//377 339//376 341//378
f 337//373 192//374 193//381
f 337//373 193//381 343//380
f 336//372 335//371 340//377
f 340//377 335//371 338//375
f 344//382 40//383 345//384
f 345//384 40//383 42//385
f 346//386 34//387 36//388
f 38//389 347//390 36//388
f 36//388 347//390 346//386
f 40//383 344//382 38//389
f 38//389 344//382 347//390
f 34//387 346//386 349//391
f 34//387 349//391 32//392
f 32//392 349//391 30//393
f 30//393 349//391 350//394
f 354//395 351//396 46//397
f 46//397 351//396 44//398
f 44//398 351//396 42//385
f 42//385 351//396 345//384
f 8//399 353//400 352//401
f 8//399 352//401 6//402
f 353//400 8//399 10//403
f 353//400 10//403 358//404
f 362//405 354//395 48//406
f 48//406 354//395 46//397
f 355//407 54//408 56//409
f 356//410 357//411 1//412
f 12//413 348//414 358//404
f 12//413 358//404 10//403
f 348//414 12//413 14//415
f 348//414 14//415 360//416
f 16//417 359//418 360//416
f 16//417 360//416 14//415
f 50//419 361//420 362//405
f 50//419 362//405 48//406
f 361//420 50//419 52//421
f 356//410 1//412 4//422
f 1//412 357//411 355//407
f 1//412 355//407 56//409
f 6//402 352//401 4//422
f 4//422 352//401 356//410
f 350//394 163//182 30//393
f 30//393 163//182 28//423
f 28//423 163//182 162//181
f 355//407 363//424 54//408
f 54//408 363//424 52//421
f 52//421 363//424 361//420
f 18//425 364//426 16//417
f 16//417 364//426 359//418
f 20//427 253//281 18//425
f 18//425 253//281 364//426
f 166//428 26//429 164//430
f 164//430 26//429 28//423
f 164//430 28//423 162//181
f 253//281 20//427 22//431
f 24//432 167//186 22//431
f 22//431 167//186 253//281
f 26//429 166//428 24//432
f 24//432 166//428 167//186
f 359//418 364//426 368//433
f 368//433 360//416 359//418
f 348//414 369//434 358//404
f 358//404 369//434 366//435
f 366//435 353//400 358//404
f 370//436 352//401 353//400
f 355//407 357//411 367//437
f 357//411 371//438 367//437
f 371//438 357//411 462//439
f 462//439 357//411 356//410
f 462//439 356//410 372//440
f 352//401 373//441 356//410
f 356//410 373//441 372//440
f 352//401 370//436 373//441
f 374//442 370//436 353//400
f 374//442 353//400 375//443
f 353//400 366//435 375//443
f 376//444 369//434 348//414
f 360//416 365//445 348//414
f 348//414 365//445 376//444
f 360//416 377//446 365//445
f 368//433 377//446 360//416
f 378//447 368//433 364//426
f 378//447 364//426 379//448
f 253//281 256//283 379//448
f 253//281 379//448 364//426
f 198//219 201//220 381//449
f 396//450 394//451 397//452
f 382//453 391//454 384//455
f 384//455 391//454 390//456
f 387//457 388//458 392//459
f 392//459 388//458 393//460
f 392//459 393//460 394//451
f 394//451 393//460 395//461
f 394//451 395//461 397//452
f 397//452 395//461 398//462
f 397//452 398//462 399//463
f 399//463 398//462 400//464
f 399//463 400//464 401//465
f 401//465 400//464 402//466
f 384//455 390//456 383//467
f 383//467 390//456 389//468
f 383//467 389//468 385//469
f 385//469 389//468 386//470
f 401//465 402//466 403//471
f 403//471 402//466 404//472
f 405//473 380//474 406//475
f 412//476 411//477 417//478
f 415//479 414//480 413//481
f 300//326 423//482 415//479
f 417//478 411//477 419//483
f 419//483 411//477 410//484
f 419//483 410//484 418//485
f 418//485 410//484 409//486
f 418//485 409//486 420//487
f 420//487 409//486 408//488
f 420//487 408//488 421//489
f 421//489 408//488 407//490
f 421//489 407//490 422//491
f 422//491 407//490 405//473
f 422//491 405//473 406//475
f 216//231 300//326 415//479
f 415//479 413//481 416//492
f 416//492 413//481 417//478
f 429//493 431//494 432//495
f 427//496 426//497 434//498
f 405//473 436//499 380//474
f 380//474 436//499 437//500
f 380//474 437//500 404//472
f 438//501 403//471 437//500
f 437//500 403//471 404//472
f 439//502 440//503 399//463
f 399//463 401//465 439//502
f 439//502 401//465 438//501
f 438//501 401//465 403//471
f 396//450 397//452 441//504
f 441//504 397//452 440//503
f 440//503 397//452 399//463
f 442//505 392//459 443//506
f 443//506 392//459 394//451
f 443//506 394//451 396//450
f 444//507 387//457 442//505
f 442//505 387//457 392//459
f 385//469 386//470 435//508
f 435//508 386//470 444//507
f 444//507 386//470 387//457
f 425//509 424//510 435//508
f 435//508 424//510 385//469
f 425//509 435//508 426//497
f 428//511 427//496 445//512
f 445//512 427//496 446//513
f 445//512 446//513 447//514
f 447//514 446//513 448//515
f 449//516 450//517 448//515
f 448//515 450//517 369//434
f 448//515 369//434 447//514
f 451//518 453//519 449//516
f 449//516 453//519 450//517
f 452//520 453//519 451//518
f 452//520 454//521 453//519
f 454//521 452//520 455//522
f 455//522 452//520 456//523
f 455//522 456//523 457//524
f 458//525 459//526 460//527
f 459//526 461//528 460//527
f 460//527 461//528 457//524
f 457//524 461//528 455//522
f 459//526 458//525 462//439
f 462//439 458//525 463//529
f 432//495 433//530 463//529
f 463//529 433//530 462//439
f 433//530 432//495 464//531
f 464//531 432//495 431//494
f 429//493 430//532 465//533
f 405//473 465//533 436//499
f 396//450 441//504 466//534
f 396//450 466//534 443//506
f 436//499 465//533 430//532
f 436//499 430//532 437//500
f 437//500 430//532 467//535
f 437//500 467//535 438//501
f 438//501 467//535 468//536
f 438//501 468//536 439//502
f 439//502 468//536 469//537
f 439//502 469//537 440//503
f 440//503 469//537 470//538
f 440//503 470//538 441//504
f 441//504 470//538 471//539
f 441//504 471//539 466//534
f 466//534 471//539 472//540
f 466//534 472//540 443//506
f 443//506 472//540 473//541
f 443//506 473//541 442//505
f 442//505 473//541 474//542
f 442//505 474//542 444//507
f 444//507 474//542 475//543
f 444//507 475//543 435//508
f 435//508 475//543 434//498
f 435//508 434//498 426//497
f 430//532 429//493 432//495
f 430//532 432//495 467//535
f 467//535 432//495 463//529
f 467//535 463//529 468//536
f 468//536 463//529 458//525
f 468//536 458//525 469//537
f 469//537 458//525 460//527
f 469//537 460//527 470//538
f 470//538 460//527 457//524
f 470//538 457//524 471//539
f 471//539 457//524 456//523
f 471//539 456//523 472//540
f 472//540 456//523 452//520
f 472//540 452//520 473//541
f 473//541 452//520 451//518
f 473//541 451//518 474//542
f 474//542 451//518 449//516
f 474//542 449//516 475//543
f 475//543 449//516 448//515
f 475//543 448//515 434//498
f 434//498 448//515 446//513
f 434//498 446//513 427//496
f 383//467 385//469 424//510
f 476//544 381//449 382//453
f 198//219 381//449 476//544
f 198//219 476//544 249//277
f 249//277 476//544 248//276
f 248//276 476//544 477//545
f 248//276 477//545 247//275
f 478//546 378//447 379//448
f 479//547 480//548 378//447
f 481//549 482//550 480//548
f 428//511 482//550 427//496
f 427//496 482//550 481//549
f 427//496 481//549 483//551
f 383//467 424//510 484//552
f 484//552 424//510 425//509
f 484//552 425//509 483//551
f 483//551 425//509 426//497
f 483//551 426//497 427//496
f 480//548 479//547 481//549
f 481//549 479//547 485//553
f 481//549 485//553 483//551
f 483//551 485//553 486//554
f 483//551 486//554 484//552
f 484//552 486//554 383//467
f 378//447 478//546 479//547
f 479//547 478//546 487//555
f 479//547 487//555 485//553
f 485//553 487//555 488//556
f 485//553 488//556 486//554
f 486//554 488//556 384//455
f 486//554 384//455 383//467
f 246//274 247//275 379//448
f 379//448 247//275 477//545
f 379//448 477//545 478//546
f 478//546 477//545 487//555
f 487//555 477//545 476//544
f 487//555 476//544 488//556
f 488//556 476//544 382//453
f 488//556 382//453 384//455
f 429//493 465//533 493//557
f 465//533 405//473 493//557
f 423//482 414//480 415//479
f 494//558 413//481 414//480
f 495//559 411//477 412//476
f 494//558 412//476 417//478
f 494//558 417//478 413//481
f 496//560 410//484 495//559
f 495//559 410//484 411//477
f 410//484 496//560 409//486
f 493//557 407//490 408//488
f 493//557 405//473 407//490
f 429//493 492//561 431//494
f 491//562 530//563 497//564
f 497//564 530//563 498//565
f 530//563 491//562 499//566
f 499//566 491//562 500//567
f 501//568 502//569 500//567
f 500//567 502//569 499//566
f 490//570 489//571 501//568
f 501//568 489//571 502//569
f 489//571 490//570 503//572
f 504//573 505//574 503//572
f 503//572 505//574 489//571
f 507//575 506//576 504//573
f 504//573 506//576 505//574
f 506//576 507//575 508//577
f 508//577 507//575 509//578
f 508//577 509//578 272//303
f 508//577 272//303 271//302
f 509//578 270//301 272//303
f 293//325 270//301 510//579
f 423//482 511//580 414//480
f 414//480 511//580 512//581
f 414//480 512//581 494//558
f 412//476 494//558 513//582
f 412//476 513//582 495//559
f 409//486 496//560 514//583
f 409//486 514//583 408//488
f 408//488 514//583 515//584
f 408//488 515//584 493//557
f 492//561 429//493 493//557
f 492//561 493//557 516//585
f 516//585 493//557 515//584
f 516//585 515//584 517//586
f 517//586 515//584 514//583
f 517//586 514//583 518//587
f 518//587 514//583 496//560
f 518//587 496//560 519//588
f 519//588 496//560 495//559
f 519//588 495//559 520//589
f 520//589 495//559 513//582
f 520//589 513//582 521//590
f 521//590 513//582 494//558
f 521//590 494//558 522//591
f 522//591 494//558 512//581
f 522//591 512//581 510//579
f 510//579 512//581 511//580
f 510//579 511//580 293//325
f 293//325 511//580 423//482
f 293//325 423//482 300//326
f 510//579 270//301 509//578
f 510//579 509//578 522//591
f 522//591 509//578 507//575
f 522//591 507//575 521//590
f 521//590 507//575 504//573
f 521//590 504//573 520//589
f 520//589 504//573 503//572
f 520//589 503//572 519//588
f 519//588 503//572 490//570
f 519//588 490//570 518//587
f 518//587 490//570 501//568
f 518//587 501//568 517//586
f 517//586 501//568 500//567
f 517//586 500//567 516//585
f 516//585 500//567 491//562
f 516//585 491//562 492//561
f 492//561 491//562 497//564
f 492//561 497//564 431//494
f 431//494 497//564 498//565
f 431//494 498//565 464//531
f 331//367 422//491 335//371
f 335//371 422//491 406//475
f 420//487 421//489 331//367
f 331//367 421//489 422//491
f 320//353 418//485 326//361
f 326//361 418//485 420//487
f 314//349 415//479 416//492
f 217//230 216//231 314//349
f 314//349 216//231 415//479
f 314//349 416//492 307//342
f 418//485 320//353 419//483
f 419//483 320//353 417//478
f 417//478 320//353 307//342
f 417//478 307//342 416//492
f 420//487 331//367 326//361
f 388//458 387//457 313//346
f 313//346 387//457 386//470
f 313//346 386//470 389//468
f 389//468 390//456 302//337
f 302//337 390//456 391//454
f 302//337 391//454 304//339
f 304//339 391//454 382//453
f 382//453 381//449 306//341
f 306//341 381//449 201//220
f 306//341 201//220 250//278
f 328//364 395//461 319//360
f 319//360 395//461 393//460
f 328//364 398//462 395//461
f 402//466 400//464 328//364
f 328//364 400//464 398//462
f 406//475 380//474 335//371
f 335//371 380//474 338//375
f 338//375 380//474 404//472
f 338//375 404//472 339//376
f 339//376 404//472 402//466
f 402//466 328//364 339//376
f 325//356 319//360 393//460
f 393//460 388//458 325//356
f 388//458 313//346 325//356
f 302//337 313//346 389//468
f 382//453 306//341 304//339
f 447//514 369//434 445//512
f 464//531 367//437 371//438
f 459//526 462//439 372//440
f 459//526 372//440 373//441
f 454//521 370//436 374//442
f 454//521 374//442 375//443
f 450//517 375//443 366//435
f 450//517 366//435 369//434
f 445//512 369//434 376//444
f 445//512 376//444 428//511
f 428//511 376//444 365//445
f 428//511 365//445 482//550
f 482//550 365//445 377//446
f 482//550 377//446 480//548
f 480//548 377//446 368//433
f 480//548 368//433 378//447
f 246//274 379//448 256//283
f 375//443 450//517 453//519
f 375//443 453//519 454//521
f 370//436 454//521 455//522
f 370//436 455//522 373//441
f 373//441 455//522 461//528
f 373//441 461//528 459//526
f 371//438 462//439 433//530
f 371//438 433//530 464//531
f 523//592 257//284 231//258
f 260//296 258//285 524//593
f 524//593 258//285 525//594
f 525//594 258//285 257//284
f 260//296 344//382 345//384
f 260//296 345//384 261//295
f 261//295 345//384 267//297
f 351//396 271//302 267//297
f 351//396 267//297 345//384
f 260//296 524//593 344//382
f 346//386 347//390 525//594
f 346//386 525//594 526//595
f 126//139 163//182 127//137
f 127//137 163//182 350//394
f 127//137 350//394 527//596
f 231//258 528//597 523//592
f 527//596 128//138 127//137
f 257//284 526//595 525//594
f 525//594 347//390 524//593
f 524//593 347//390 344//382
f 527//596 350//394 349//391
f 527//596 349//391 128//138
f 128//138 349//391 528//597
f 528//597 349//391 346//386
f 528//597 346//386 523//592
f 523//592 346//386 526//595
f 523//592 526//595 257//284
f 154//170 123//135 232//256
f 232//256 123//135 122//133
f 232//256 122//133 231//258
f 128//138 528//597 231//258
f 128//138 231//258 122//133
f 255//282 254//273 244//271
f 256//283 255//282 246//274
f 246//274 255//282 244//271
f 119//136 168//187 125//132
f 125//132 168//187 165//184
f 367//437 464//531 529//598
f 508//577 271//302 536//599
f 508//577 536//599 506//576
f 506//576 536//599 535//600
f 506//576 535//600 505//574
f 505//574 535//600 534//601
f 505//574 534//601 489//571
f 489//571 534//601 533//602
f 489//571 533//602 502//569
f 502//569 533//602 532//603
f 502//569 532//603 499//566
f 499//566 532//603 531//604
f 499//566 531//604 530//563
f 498//565 530//563 529//598
f 498//565 529//598 464//531
f 363//424 531//604 361//420
f 354//395 362//405 535//600
f 271//302 351//396 536//599
f 536//599 351//396 354//395
f 536//599 354//395 535//600
f 535//600 362//405 534//601
f 534//601 362//405 533//602
f 533//602 362//405 361//420
f 361//420 531//604 532//603
f 361//420 532//603 533//602
f 367//437 529//598 355//407
f 355//407 529//598 363//424
f 363//424 529//598 530//563
f 363//424 530//563 531//604
f 59//605 537//606 62//607
f 62//607 537//606 538//608
f 62//607 538//608 64//609
f 64//609 538//608 539//610
f 64//609 539//610 65//611
f 65//611 539//610 540//612
f 65//611 540//612 68//613
f 68//613 540//612 541//614
f 68//613 541//614 70//615
f 70//615 541//614 542//616
f 70//615 542//616 72//617
f 72//617 542//616 543//618
f 72//617 543//618 75//619
f 75//619 543//618 544//620
f 75//619 544//620 77//621
f 77//621 544//620 545//622
f 77//621 545//622 79//623
f 79//623 545//622 546//624
f 79//623 546//624 81//625
f 81//625 546//624 547//626
f 81//625 547//626 58//627
f 58//627 547//626 548//628
f 58//627 548//628 85//629
f 85//629 548//628 549//630
f 85//629 549//630 86//631
f 86//631 549//630 550//632
f 86//631 550//632 89//633
f 89//633 550//632 551//634
f 537//606 59//605 552//635
f 552//635 59//605 117//636
f 552//635 117//636 553//637
f 553//637 117//636 115//638
f 553//637 115//638 554//639
f 554//639 115//638 113//640
f 554//639 113//640 555//641
f 555//641 113//640 112//642
f 555//641 112//642 556//643
f 556//643 112//642 110//644
f 556//643 110//644 557//645
f 557//645 110//644 107//646
f 557//645 107//646 558//647
f 558//647 107//646 106//648
f 558//647 106//648 559//649
f 559//649 106//648 102//650
f 559//649 102//650 560//651
f 560//651 102//650 103//652
f 560//651 103//652 561//653
f 561//653 103//652 99//654
f 561//653 99//654 562//655
f 562//655 99//654 97//656
f 562//655 97//656 563//657
f 563//657 97//656 94//658
f 563//657 94//658 564//659
f 564//659 94//658 92//660
f 564//659 92//660 551//634
f 551//634 92//660 89//633
f 13//661 11//662 27//663
f 21//664 19//664 17//665
f 51//666 49//667 31//668
f 13//661 27//663 15//669
f 11//662 9//670 27//663
f 27//663 9//670 7//671
f 27//663 7//671 5//672
f 51//666 31//668 53//673
f 39//674 37//664 35//664
f 21//664 17//665 23//675
f 5//672 3//676 27//663
f 27//663 3//676 2//677
f 27//663 2//677 29//678
f 29//678 2//677 31//668
f 31//668 2//677 55//679
f 31//668 55//679 53//673
f 49//667 47//680 31//668
f 31//668 47//680 45//681
f 31//668 45//681 43//682
f 43//682 41//683 31//668
f 31//668 41//683 39//674
f 31//668 39//674 33//684
f 33//684 39//674 35//664
f 15//669 27//663 17//665
f 17//665 27//663 25//685
f 17//665 25//685 23//675
f 565//686 551//687 566//688
f 566//688 551//687 550//689
f 566//688 550//689 567//690
f 567//690 550//689 549//691
f 567//690 549//691 568//692
f 568//692 549//691 548//693
f 568//692 548//693 569//694
f 569//694 548//693 547//695
f 569//694 547//695 570//696
f 570//696 547//695 546//697
f 570//696 546//697 571//698
f 571//698 546//697 545//699
f 571//698 545//699 572//700
f 572//700 545//699 544//701
f 572//700 544//701 573//702
f 573//702 544//701 543//703
f 573//702 543//703 574//704
f 574//704 543//703 542//705
f 574//704 542//705 575//706
f 575//706 542//705 541//707
f 575//706 541//707 576//708
f 576//708 541//707 540//709
f 576//708 540//709 577//710
f 577//710 540//709 539//711
f 577//710 539//711 578//712
f 578//712 539//711 538//713
f 578//712 538//713 579//714
f 579//714 538//713 537//715
f 579//714 537//715 580//716
f 580//716 537//715 552//717
f 580//716 552//717 581//718
f 581//718 552//717 553//719
f 581//718 553//719 582//720
f 582//720 553//719 554//721
f 582//720 554//721 583//722
f 583//722 554//721 555//723
f 583//722 555//723 584//724
f 584//724 555//723 556//725
f 584//724 556//725 585//726
f 585//726 556//725 557//727
f 585//726 557//727 586//728
f 586//728 557//727 558//729
f 586//728 558//729 587//730
f 587//730 558//729 559//731
f 587//730 559//731 588//732
f 588//732 559//731 560//733
f 588//732 560//733 589//734
f 589//734 560//733 561//735
f 589//734 561//735 590//736
f 590//736 561//735 562//737
f 590//736 562//737 591//738
f 591//738 562//737 563//739
f 591//738 563//739 592//740
f 592//740 563//739 564//741
f 592//740 564//741 565//686
f 565//686 564//741 551//687
f 565//742 566//743 580//744
f 590//745 591//746 580//744
f 580//744 591//746 592//747
f 580//744 592//747 565//742
f 587//748 588//749 580//744
f 580//744 588//749 589//750
f 580//744 589//750 590//745
f 584//751 585//752 580//744
f 580//744 585//752 586//753
f 580//744 586//753 587//748
f 581//754 582//755 580//744
f 580//744 582//755 583//756
f 580//744 583//756 584//751
f 578//757 579//758 580//744
f 575//759 576//760 580//744
f 580//744 576//760 577//761
f 580//744 577//761 578//757
f 572//762 573//763 580//744
f 580//744 573//763 574//764
f 580//744 574//764 575//759
f 569//765 570//766 580//744
f 580//744 570//766 571//767
f 580//744 571//767 572//762
f 566//743 567//768 580//744
f 580//744 567//768 568//769
f 580//744 568//769 569//765
f 593//770 315//771 309//772
f 593//770 309//772 594//773
f 594//773 309//772 308//774
f 594//773 308//774 595//775
f 595//775 308//774 321//776
f 595//775 321//776 596//777
f 596//777 321//776 327//778
f 596//777 327//778 597//779
f 597//779 327//778 332//780
f 597//779 332//780 598//781
f 598//781 332//780 336//782
f 598//781 336//782 599//783
f 599//783 336//782 340//784
f 599//783 340//784 600//785
f 600//785 340//784 341//786
f 600//785 341//786 601//787
f 601//787 341//786 329//788
f 601//787 329//788 602//789
f 602//789 329//788 318//790
f 602//789 318//790 603//791
f 603//791 318//790 322//792
f 603//791 322//792 604//793
f 604//793 322//792 310//794
f 604//793 310//794 605//795
f 605//795 310//794 301//796
f 605//795 301//796 606//797
f 606//797 301//796 303//798
f 606//797 303//798 607//799
f 607//799 303//798 305//800
f 607//799 305//800 608//801
f 608//801 305//800 317//802
f 608//801 317//802 609//803
f 609//803 317//802 324//804
f 609//803 324//804 610//805
f 610//805 324//804 330//806
f 610//805 330//806 611//807
f 611//807 330//806 337//808
f 611//807 337//808 612//809
f 612//809 337//808 343//810
f 612//809 343//810 613//811
f 613//811 343//810 342//812
f 613//811 342//812 614//813
f 614//813 342//812 334//814
f 614//813 334//814 615//815
f 615//815 334//814 333//816
f 615//815 333//816 616//817
f 616//817 333//816 323//818
f 616//817 323//818 617//819
f 617//819 323//818 312//820
f 617//819 312//820 618//821
f 618//821 312//820 311//822
f 618//821 311//822 619//823
f 619//823 311//822 316//824
f 619//823 316//824 620//825
f 620//825 316//824 315//771
f 620//825 315//771 593//770
f 606//826 607//827 593//828
f 603//829 604//830 593//828
f 593//828 604//830 605//831
f 593//828 605//831 606//826
f 600//832 601//833 593//828
f 593//828 601//833 602//834
f 593//828 602//834 603//829
f 597//835 598//836 593//828
f 593//828 598//836 599//837
f 593//828 599//837 600//832
f 594//838 595//839 593//828
f 593//828 595//839 596//840
f 593//828 596//840 597//835
f 619//841 620//842 593//828
f 616//843 617//844 593//828
f 593//828 617//844 618//845
f 593//828 618//845 619//841
f 613//846 614//847 593//828
f 593//828 614//847 615//848
f 593//828 615//848 616//843
f 610//849 611//850 593//828
f 593//828 611//850 612//851
f 593//828 612//851 613//846
f 607//827 608//852 593//828
f 593//828 608//852 609//853
f 593//828 609//853 610//849
