# G1 exterior visual; derived from pinned Unitree/TWIST2 CAD.
v -0.00636663288 0.00295817759 0.00993368309
v -0.00636609457 0.00290132733 0.0128833223
v -0.00498410454 0.00493721012 0.0128821097
v -0.00298733916 0.00634163851 0.00994434021
v -0.00290934998 0.00636147382 0.0128884651
v -0.000881132844 0.00693140132 0.00991779007
v -1.29400735e-06 0.00705137663 0.0128997024
v 0.00698691281 0.000646319182 0.00993656833
v 0.00402964465 0.00573004177 0.00991890766
v 0.00164140225 0.00683577685 0.00993658602
v 0.00297701824 0.00634985277 0.0128830485
v 0.00606484152 0.00356995873 0.00992427301
v 0.00635780254 0.00297277537 0.0128933769
v 0.00486231549 0.00504030101 0.0128765618
v -0.00697617838 0.000664608786 0.0099130068
v -0.00499286177 0.00490292674 0.00990252569
v -0.00696988404 0.000725715654 0.0128983455
v -0.00405712891 0.00370608689 -0.0130991517
v -0.00440251548 0.00332168094 -0.00981683191
v -0.00306048151 0.00456409249 -0.00981048308
v -0.00214309571 0.0051076524 -0.0130831758
v 8.84689507e-06 0.00549258618 -0.0130331144
v -0.000756720372 0.00549761625 -0.00985673349
v 0.00424666563 0.00359556149 -0.0130961118
v 0.00180725066 0.00523404218 -0.0130790276
v 0.0054800543 0.000884565583 -0.0130692357
v 0.00442643976 0.00330066145 -0.00980291609
v 0.00208109035 0.00514274184 -0.00980095565
v -0.00547746336 0.000940256636 -0.0098105697
v 0.00546060735 0.000783369702 -0.00985230412
v 0.00698264129 0.000671199756 0.0128928199
v 0.0018979297 -0.0200538579 0.0114568723
v 0.00626814598 -0.0199680235 0.0128920591
v 0.00329788541 -0.0201741755 0.0110095125
v 0.00464038132 -0.0200428739 0.0105497027
v 0.00555524975 -0.0210619941 0.0104130004
v 0.00718419068 -0.0200073402 0.00683797756
v 0.00684097875 -0.0203169771 0.00900470186
v 0.00774330925 -0.020417504 0.00703635905
v 0.00830777362 -0.0215329137 0.00582150323
v 0.00626909919 -0.0200117007 0.00986040384
v 0.00640586345 -0.0201986786 0.00941662584
v 0.0072405776 -0.0195297096 0.00963406544
v 0.00699449563 -0.0192728192 0.0100466078
v 0.00698519452 -0.01931132 0.0128761558
v 0.0065454049 -0.0170469973 0.00969310198
v 0.00695897639 -0.01815762 0.00993885938
v 0.00864838343 -0.0209079906 0.00212502503
v -0.00885526184 -0.0142650986 0.00237444765
v -0.0089002531 -0.0188816376 0.00186720619
v -0.00850979891 -0.0165210385 0.00603386713
v -0.00713720778 -0.0207406487 0.0120400973
v -0.00750942575 -0.0201367848 0.00947604328
v -0.00668477733 -0.0199755896 0.0100653702
v -0.00700172922 -0.019291319 0.00958016329
v -0.00674905581 -0.0205702297 0.0123086516
v -0.00661112042 -0.0199216641 0.0122376215
v -0.00635372428 -0.0199038852 0.0128955161
v -0.00757453311 -0.0118490672 0.00921963993
v -0.00698526436 -0.0191736873 0.0128661394
v -0.00699345069 -0.0112315994 0.00991888158
v -0.00700640073 -0.0115965009 0.00951804873
v -0.00421118643 -0.0200328454 0.0125072971
v -0.00396460388 -0.0201701261 0.0120434565
v -0.000301767664 -0.0200888645 0.0117637664
v 0.00158500322 -0.0210641455 0.0116904974
v -0.00572030433 -0.0119106229 0.0098993415
v -0.00717243785 -0.0104668876 0.00863571744
v -0.00565894507 -0.0103014689 0.00797533151
v -0.00481529208 -0.0135785127 0.00981394853
v -0.00817641336 -0.0103515033 0.00634925999
v -0.00783391297 -0.00966818817 0.00468573952
v -0.0038708332 -0.0141396886 0.00968345534
v -0.00533719733 -0.0123302564 0.00989610981
v -0.000154681693 -0.0148459878 0.00989254471
v 0.00554383732 -0.0112624066 -0.013079931
v 0.00609743875 -0.0132465195 -0.00982603151
v 0.00550007029 -0.0104746437 -0.00984422397
v 0.00118053565 -0.0200569946 -0.0114031704
v 0.00286934129 -0.0201194249 -0.0110647073
v 0.00380688324 -0.0209966674 -0.011033955
v 0.00618301472 -0.019987803 -0.0129880868
v 0.00397876184 -0.0200230703 -0.010708835
v 0.00497040665 -0.0209279992 -0.0105983345
v 0.0052733859 -0.0201104302 -0.0101503553
v 0.00643551536 -0.0199725591 -0.00983325392
v 0.00326923467 -0.0154535389 -0.00979462173
v 0.00557966204 -0.0159627683 -0.0096946992
v 0.00512175914 -0.0158492047 0.00969645474
v 0.00661409972 -0.0202574693 -0.00923828594
v 0.00714740623 -0.0199062787 -0.00962544605
v 0.00719083147 -0.0200547967 -0.00719400356
v 0.00784077123 -0.0204496309 -0.00672103371
v 0.00830714311 -0.0202101134 0.000594548881
v 0.00697528804 -0.0194486529 -0.0130960252
v 0.00711085461 -0.0186837483 -0.00994625781
v 0.0064883898 -0.0169212371 -0.00956571102
v 0.0069916076 -0.0151208742 -0.00984364748
v 0.00694088871 -0.0150228776 -0.0130740823
v 0.00593710877 -0.0162297618 0.00987777207
v 0.00847383682 -0.0211904142 -0.00455302699
v 0.00870011467 -0.0213652886 -0.00179837609
v -0.00820713118 -0.0103516607 -0.00594043406
v -0.00875126477 -0.00991826877 -0.000199361762
v -0.00750643946 -0.0118162241 -0.00921178889
v -0.00603503315 -0.0129861701 -0.00993666425
v -0.0055151186 -0.0106155127 -0.00988224242
v -0.00737607339 -0.0106615135 -0.0086719254
v -0.00593028124 -0.0119601386 -0.00945335533
v -0.00753562991 -0.00998841226 -0.00666631199
v -0.00826647319 -0.00941544585 -0.00134455436
v -0.0058130133 -0.0097124232 -0.00373682566
v -0.00586983701 -0.00952842832 0.00133121922
v -0.00543722603 0.00123880629 -0.0130528416
v -0.00549098477 -0.0104143703 -0.0130977863
v -0.00537134102 -0.0121244406 -0.00979896076
v -0.00563216582 -0.0104909558 -0.00845500175
v -0.00516379718 -0.0130216926 -0.00963571761
v -0.00426129159 -0.0140239028 -0.00974831264
v -0.000346445537 -0.0147857163 -0.00979411136
v -0.00886487961 -0.0165895838 -0.00259121228
v -0.00499477331 -0.0210132208 -0.0122725153
v -0.00661346922 -0.0199556984 -0.0113735488
v -0.00701295258 -0.020824803 -0.0121495528
v -0.00693300227 -0.0194780882 -0.0131041361
v -0.00624351436 -0.0199824777 -0.0130016832
v -0.00598544069 -0.0200725943 -0.0119514875
v -0.00804188009 -0.0205670707 -0.00897152442
v -0.0074587469 -0.0201085042 -0.00942240003
v -0.00698055932 -0.015078037 -0.0130105298
v -0.00700308196 -0.0150202746 -0.00959496573
v -0.00696505699 -0.0195617843 -0.00955304503
v -0.00603031926 -0.013081504 -0.0130942166
v -0.00850760937 -0.0137842754 -0.00547416275
v -0.00123208831 -0.0200990029 -0.0117180068
v -0.00276477821 -0.0216311943 -0.0121473353
v 0.000133001042 -0.0216578729 -0.0118361404
v 0.00083489035 -0.0269922074 0.0115128951
v 0.00256064581 -0.027679285 0.0111486968
v 0.00169147144 -0.0257787798 0.0114673283
v 0.00124575943 -0.0229901504 0.0117005343
v 0.00342267845 -0.0246827099 0.0110888677
v 0.00477586687 -0.0264359172 0.0104756905
v 0.00401761476 -0.0215466153 0.0110844439
v 0.00819852762 -0.0278757904 0.00305939792
v 0.00791880395 -0.0281382855 0.00530739548
v 0.00740745198 -0.0269044656 0.00767359184
v 0.00630669203 -0.026973445 0.00934800971
v 0.00827702042 -0.0257221814 0.00391616113
v 0.0079338802 -0.0259519741 0.00606222264
v 0.00745556457 -0.0246942956 0.00795975607
v 0.00679902826 -0.024398854 0.00910609681
v 0.00805406366 -0.0231958758 0.00638291752
v 0.00755202118 -0.022072101 0.00816704798
v 0.00575261144 -0.0242274087 0.0101053985
v 0.00662449794 -0.0222267341 0.00960454997
v 0.00833993219 -0.0266551189 0.00217922986
v 0.0084962789 -0.0243559219 0.00185261259
v 0.00863820314 -0.0222068019 0.00243156124
v 0.00835083146 -0.0237712115 0.00438770745
v 0.00044459803 -0.0301878694 0.0114089409
v 0.00093653606 -0.0344952345 0.01100088
v 0.00291718147 -0.0329637602 0.0106453216
v 0.001624219 -0.0314083472 0.0111007411
v -0.000707351195 -0.030767506 0.0115336431
v 0.00356829702 -0.0279870108 0.0108439177
v 0.00131716428 -0.0290768389 0.0113419481
v 0.00580838136 -0.0366115384 0.00777153298
v 0.00447968999 -0.0339471363 0.00979486387
v 0.00542873051 -0.0331784151 0.00918342825
v 0.00387860462 -0.0315543748 0.010408516
v 0.00556558324 -0.0304431282 0.00954972301
v 0.00465541519 -0.0296873506 0.0102137653
v 0.00654291268 -0.0359531231 0.00636559771
v 0.00758582959 -0.0338899232 0.00154216168
v 0.00709012104 -0.0352874547 0.00461656693
v 0.00718472991 -0.0336159505 0.00557549484
v 0.0076000439 -0.0329475515 0.0035602795
v 0.0061685862 -0.0323188528 0.00857580174
v 0.00669875089 -0.033363916 0.007332284
v 0.00552475685 -0.0355508812 0.00855321717
v 0.007900998 -0.0314745754 0.00158988556
v 0.00790593307 -0.0304744113 0.00371131697
v 0.00760577247 -0.0311798491 0.00527473725
v 0.00716933981 -0.0311283097 0.00703896675
v 0.00721390126 -0.029238496 0.00750571443
v 0.00642994326 -0.0292235706 0.00887283962
v -0.00870753732 -0.0247884337 0.00134145643
v -0.00854710955 -0.0231210049 0.00544336438
v -0.00724214222 -0.0262734871 0.0117593473
v -0.00794733781 -0.0264608841 0.00879640877
v -0.00805030297 -0.0201931167 0.00905451458
v -0.00415291777 -0.0215727109 0.0123459101
v -0.00245071459 -0.0277006291 0.0118693663
v -0.00491398433 -0.0258228574 0.0121640284
v -0.00282540661 -0.024648143 0.0121017797
v -0.000705475104 -0.0265715048 0.0117819719
v -0.00190081249 -0.0223403722 0.0121260975
v -0.000521360955 -0.0243367534 0.011868719
v -0.0068818857 -0.03466212 0.0109941596
v -0.00491380738 -0.0333680175 0.0115201166
v -0.00793496706 -0.0330437608 0.00305660302
v -0.00671181921 -0.02799589 0.0120441578
v -0.00475876313 -0.0294522103 0.0119248582
v -0.00397841074 -0.0342447273 0.0114953499
v -0.00390214799 -0.0318364501 0.0116857318
v -0.00326996902 -0.0307829548 0.0117661795
v -9.4307703e-05 -0.0375710577 0.0108174281
v -0.000799229892 -0.0359391198 0.0111160614
v -0.00232370826 -0.0340445824 0.01142094
v -0.00133036741 -0.0329349712 0.011447778
v -0.00233710627 -0.0298879128 0.0117528308
v 0.00128211407 -0.0251225233 -0.0114729041
v 0.000675264338 -0.0279973354 -0.0114064533
v 0.00274665328 -0.026638085 -0.0110889813
v 0.00188336801 -0.0226402804 -0.0115197273
v 0.00383808534 -0.0276200045 -0.0106627513
v 0.0055038482 -0.0292667691 -0.00965280365
v 0.00476528844 -0.0254881177 -0.0104424339
v 0.00367368758 -0.0235629305 -0.0109867593
v 0.00570356194 -0.0237834826 -0.0100942627
v 0.00677175634 -0.0287503768 -0.00844484847
v 0.00661405455 -0.0261668786 -0.00901700929
v 0.00781864394 -0.0283982661 -0.00559280999
v 0.00830023736 -0.026881896 -0.00255629653
v 0.00827580318 -0.0278939791 -0.000713861082
v 0.00569968205 -0.0265885405 -0.0097893402
v 0.0074315425 -0.0268169511 -0.00755791366
v 0.00743367849 -0.024519667 -0.00790482759
v 0.0079508191 -0.0255030002 -0.00604772288
v 0.00824443065 -0.0255676899 -0.00419443985
v 0.00589746656 -0.021992499 -0.0100678774
v 0.00725368224 -0.0222442448 -0.00868960842
v 0.00802929606 -0.0220322106 -0.0066948249
v 0.00826551579 -0.0236807913 -0.00499631371
v 0.00843780115 -0.0258171931 -1.96050114e-05
v 0.00851460081 -0.0239605941 -0.00209305692
v 0.00848358218 -0.0226817597 -0.00359017681
v 0.00865299813 -0.022579398 0.000198963229
v 0.000695820141 -0.0328910686 -0.0110748112
v 0.00137863995 -0.0345127136 -0.0108021982
v 0.00160709233 -0.0298307799 -0.011124419
v 0.00315871323 -0.0325215496 -0.0105004609
v 0.00322024804 -0.0308828577 -0.010647621
v 0.00398640335 -0.0371861532 -0.00941946916
v 0.00540695293 -0.0359781981 -0.00846233964
v 0.00294754189 -0.0350747593 -0.0102951247
v 0.00436655479 -0.0348463207 -0.00960348267
v 0.00511039421 -0.0327805169 -0.00941410009
v 0.00566748763 -0.0340114906 -0.00869001355
v 0.0047398638 -0.0304465983 -0.0100096436
v 0.00594989583 -0.0312143136 -0.00900586788
v 0.00615370972 -0.0358961895 -0.00730096223
v 0.00726475101 -0.0357758701 0.00157067191
v 0.00657996023 -0.0334042832 -0.00749018881
v 0.00706931017 -0.0335890688 -0.00599563448
v 0.00669667544 -0.0357158259 -0.005905753
v 0.00724941166 -0.0357427858 -0.00199704058
v 0.00738412701 -0.0340842642 -0.00377752027
v 0.00741415378 -0.0350001156 -0.000298348721
v 0.00757207256 -0.0339609459 -0.00176889391
v 0.00715146726 -0.0305491053 -0.00722955866
v 0.00761091243 -0.0305185411 -0.0054961266
v 0.00759644154 -0.0320375189 -0.00449961005
v 0.00791785307 -0.0316213928 -0.00102686998
v 0.00798805989 -0.0305077806 -0.00232670596
v 0.00795924757 -0.0293989647 -0.00402204553
v 0.00824326184 -0.028270483 0.000871242315
v -0.00852084067 -0.0210371297 -0.00588483457
v -0.00530873751 -0.0292794276 -0.011797335
v -0.00875625573 -0.0232693832 -0.00260301749
v -0.00723965792 -0.0261228383 -0.0116873654
v -0.00663199229 -0.024566453 -0.0121869165
v -0.00800153241 -0.0256535951 -0.00873380248
v -0.00298858318 -0.0285928994 -0.0117865158
v -0.0047836639 -0.0252947696 -0.0121176159
v -0.00327315787 -0.0244929679 -0.0120391101
v -0.00431071548 -0.0230801832 -0.0121954205
v -0.00212871959 -0.0274188574 -0.0117761865
v -0.00108844135 -0.0261973143 -0.0117445253
v -0.00101278455 -0.023561025 -0.0118811447
v -0.00699836714 -0.0329676867 -0.0110491989
v -0.00667638285 -0.0296324603 -0.0117991818
v -0.00826340914 -0.0302394908 -0.0019491436
v -0.00444354396 -0.0353606343 -0.0112422006
v -0.00477379281 -0.0331083201 -0.0114698112
v -0.00284124096 -0.033140406 -0.0114408052
v -0.00182367314 -0.0319013037 -0.0114674754
v -0.0041875653 -0.0297328997 -0.01180779
v -0.00109686051 -0.0351743996 -0.0111331195
v -0.00139110384 -0.0303369444 -0.0115274284
v -0.000251591206 -0.0300916713 -0.0114227273
v -0.00657801237 -0.0410120487 0.00693972362
v -0.00585061405 -0.0399728715 0.0106311422
v -0.00752699375 -0.0334151909 0.00810475927
v -0.00631723879 -0.0351426788 0.011329866
v -0.00398660218 -0.0416631289 0.0103742396
v -0.00405140128 -0.039529223 0.0107506504
v -0.00444653444 -0.0375616588 0.0110508772
v -0.00289052143 -0.0374420583 0.0110571226
v -0.00213271822 -0.0430593863 0.0100928685
v -0.000773557287 -0.0414948799 0.0102901608
v -0.00141608971 -0.039250806 0.0107390527
v 0.0004071437 -0.0396470129 0.0104202153
v 0.000780165836 -0.0435216315 0.0095040258
v 0.00106514792 -0.0418707021 0.00983866025
v 0.0024312858 -0.0422267281 0.00918525923
v 0.00190112111 -0.0404512174 0.00986780319
v 0.00293139252 -0.0392419733 0.00970835891
v 0.00142026786 -0.0372323021 0.0105653889
v 0.0034815867 -0.0357461348 0.0100778509
v 0.00511049805 -0.0434586331 0.00375842443
v 0.00376716838 -0.0437599272 0.00735983253
v 0.00447320985 -0.0424329787 0.00704693375
v 0.0038295954 -0.0417490304 0.00831596367
v 0.00542240869 -0.0413927287 0.00535816187
v 0.00422253087 -0.0402342044 0.00847479515
v 0.00506064529 -0.0402763821 0.00728011504
v 0.00569346687 -0.0391668007 0.00659314776
v 0.00412582047 -0.0378693379 0.00923872739
v 0.00511477049 -0.0381083749 0.00818359107
v 0.00581140397 -0.0414495468 0.00332614221
v 0.0062581785 -0.0399025753 0.00316215656
v 0.00655251136 -0.0391662084 0.00180423853
v 0.00603115465 -0.0397596806 0.00490213092
v 0.00685088569 -0.0376749821 0.00225347863
v 0.00693017617 -0.0367462225 0.0034668108
v 0.00653722277 -0.0378103815 0.00476522092
v 0.00607880903 -0.037743479 0.00661708787
v -0.00540012075 -0.0476362333 0.00482838508
v -0.00436439086 -0.0510706902 0.00593934068
v -0.00249028858 -0.050942257 0.00631783297
v -0.00443446264 -0.0490028039 0.00811013393
v -0.00504238112 -0.0479599833 0.00819164049
v -0.00267492142 -0.0494194664 0.00774752628
v -0.00331274769 -0.0465337783 0.00918431953
v -0.00246079336 -0.0476582199 0.00868289825
v -0.00512598641 -0.0449191481 0.00964938849
v -0.00581498584 -0.0436215326 0.00951261353
v -0.00334061403 -0.0441830903 0.00988561753
v -0.00219978625 -0.0517192259 0.00396836735
v -0.000299458596 -0.0512406863 0.00257421215
v -0.00074318453 -0.0502894111 0.00608604215
v 0.000399040553 -0.0505868569 0.0041907616
v -0.000870887074 -0.0494038202 0.00715687824
v -0.000824138173 -0.0482289195 0.0079909442
v -0.000542268448 -0.0462108776 0.00892468262
v -0.00111934007 -0.0447166041 0.00958376378
v 0.00110213191 -0.0503034554 0.00271433918
v 0.00137363188 -0.0492877886 0.00544643123
v 0.00205755141 -0.04921275 0.00329575757
v 0.00238805707 -0.0483387969 0.0047989646
v 0.0030561788 -0.0465260744 0.00611158693
v 0.000813775754 -0.0474601276 0.00775499782
v 0.00158952049 -0.0482979007 0.00645172549
v 0.00220820284 -0.0465061776 0.00738490047
v 0.00214269082 -0.0450132042 0.00831323955
v 0.000743465964 -0.0449762866 0.0090356851
v 0.00315232808 -0.0475525483 0.00368822902
v 0.00353645021 -0.0473441556 0.00139888399
v 0.00401921757 -0.0460612625 0.0036896586
v 0.00503529562 -0.0443045422 0.00115767645
v 0.00457507884 -0.0448550023 0.00357913249
v 0.0034691426 -0.0452246927 0.00673076417
v 0.00461650034 -0.043734692 0.00549152633
v 0.00281923939 -0.0437859856 0.00839136913
v -0.00637259288 -0.0423853397 -0.00664932141
v -0.00676481472 -0.0411370806 0.00139927526
v -0.00438701501 -0.0511444062 -0.00559855392
v -0.00261450792 -0.0510195717 -0.00614376878
v -0.0037231259 -0.0519338511 -0.00313499267
v -0.00425618934 -0.0516363457 0.00219862978
v -0.00369365374 -0.0519084148 0.00344722392
v -0.0031584634 -0.046972014 -0.00893883593
v -0.00534475688 -0.0464168116 -0.00875926949
v -0.00424272567 -0.0496777073 -0.00760389166
v -0.00525833853 -0.0483336523 -0.00381741626
v -0.00502598844 -0.0450662971 -0.00955212768
v -0.00351754343 -0.0440745614 -0.00980887841
v -0.000536187203 -0.050291229 -0.00588181615
v -0.0020931731 -0.0516482517 -0.00418430893
v -0.000150968481 -0.0511517338 -0.00276943133
v -0.00176531042 -0.0518491454 -0.000118732205
v -0.00115676376 -0.0474808812 -0.00841443706
v -0.00259393756 -0.0496117435 -0.00753410347
v -0.00153617968 -0.0484665819 -0.00798019581
v -0.000536697102 -0.0490902811 -0.00716404058
v -0.00193772395 -0.0457956418 -0.00924875587
v -0.00194423005 -0.0441259257 -0.0097286636
v -0.000364852924 -0.0457404703 -0.00897150021
v -0.000153907589 -0.0437970571 -0.00955924485
v 0.000526810647 -0.0508190021 0.000194519176
v 0.0014108438 -0.0487688966 -0.00605766149
v 0.00268879975 -0.0478079244 -0.0048431186
v 0.000967839733 -0.0499218814 -0.00482512452
v 0.00132226699 -0.0500589609 -0.00279881875
v 0.00229822239 -0.0489432178 -0.00318215252
v 0.00227233442 -0.0492180586 0.0006946004
v 0.00287698 -0.0483998656 -0.00072458561
v 0.000433828391 -0.0476922989 -0.0076942686
v 0.00129097374 -0.0460196547 -0.00826995168
v 0.00215095561 -0.0474712178 -0.00649159867
v 0.00302835251 -0.0457646772 -0.00689764973
v 0.00222082902 -0.0450074412 -0.00816576649
v 0.00347482786 -0.0439439081 -0.0075376872
v 0.00344202295 -0.0474387109 -0.00191105448
v 0.00356608699 -0.0460737869 -0.00535845011
v 0.00378864096 -0.0463703535 -0.00389214256
v 0.00460975897 -0.0447326154 -0.00365507929
v 0.00500830123 -0.0444004908 -0.000911976036
v 0.00442650402 -0.0458104238 -6.2071791e-05
v 0.00191433751 -0.0436774828 -0.00892278831
v 0.000739918905 -0.0420783907 -0.00977744628
v 0.0028312495 -0.0414919369 -0.00909566972
v 0.00104378001 -0.0398716629 -0.0101668416
v 0.00286389724 -0.039962709 -0.00948572159
v 0.00115815282 -0.0370236486 -0.0105773527
v 0.00394874066 -0.042144224 -0.00792879798
v 0.0044668084 -0.0441716798 -0.00526142074
v 0.00450293534 -0.0431018434 -0.00634989468
v 0.00539067574 -0.0426281653 -0.00369321578
v 0.00549128884 -0.0413513817 -0.00519823562
v 0.00542309601 -0.0432177559 -0.00128848932
v 0.00290938793 -0.0383136198 -0.00982141308
v 0.00431755604 -0.0390970781 -0.00868275762
v 0.00489880797 -0.0415059291 -0.00670425314
v 0.0043776962 -0.0406238548 -0.00802274514
v 0.00532052433 -0.0395772867 -0.00709705427
v 0.00544131873 -0.0378667191 -0.00776567403
v 0.00584155135 -0.0412223339 -0.00351336971
v 0.00609713746 -0.0409444049 -0.000943478604
v 0.00563039724 -0.0426159687 0.000796796405
v 0.0062227007 -0.0379689783 -0.0057934057
v 0.00627604499 -0.0399328582 -0.00282333884
v 0.00630646106 -0.0388196521 -0.00457551982
v 0.00638468703 -0.0400031097 0.000180638614
v 0.00668745814 -0.0386002287 -0.00142869761
v 0.00689405249 -0.0370015837 -0.00336841121
v 0.00699575944 -0.0372243598 -0.000668249675
v -0.00752058439 -0.0336406827 -0.00782903004
v -0.0063709789 -0.0394920856 -0.0102169812
v -0.00614533573 -0.0374321379 -0.0109396018
v -0.00744927069 -0.036721617 -0.00268841186
v -0.00449437508 -0.03978258 -0.0105736805
v -0.00348962238 -0.041368071 -0.0103828348
v -0.00241477601 -0.0388723835 -0.0107700005
v -0.00436803419 -0.0371380784 -0.0109996619
v -0.00295594707 -0.037059132 -0.0110276639
v -0.0010443537 -0.042198278 -0.010089105
v -0.00202031177 -0.0410538875 -0.0103968047
v -0.000470615079 -0.0402537212 -0.0103800865
v -0.000372775365 -0.0374650545 -0.0107746711
vn 0.002439091 0.002252202 0.9999945
vn 0.000348583 0.001922167 0.9999982
vn 0.0005154709 -0.0006157045 0.9999996
vn 0.4132591 0.9103643 0.02130167
vn 0.7001383 0.7139201 0.01115545
vn 0.5832907 0.8118524 -0.02583897
vn 0.862722 0.5052952 -0.01968471
vn 0.0112106 0.01560356 0.9998154
vn 0.003468535 -0.001030208 -0.9999934
vn -0.003800004 0.00226647 -0.9999902
vn -0.001882096 0.002149502 -0.9999959
vn 0.0003147729 0.001863125 -0.9999983
vn -0.0004554264 0.001096006 -0.9999993
vn -0.01380031 0.9998211 0.0129322
vn -0.4224739 0.9063196 0.01003538
vn -0.4020493 0.915607 0.004481452
vn -0.05671372 0.02406926 -0.9981003
vn 0.01255476 0.001001695 -0.9999207
vn -0.009714286 0.001887267 -0.9999511
vn -0.9057418 0.4238276 0.001405773
vn -0.9908711 0.1347969 0.002091816
vn -0.9083527 0.4181241 0.008224492
vn -0.7084417 0.7057621 0.003167493
vn -0.7105541 0.7036168 -0.006007625
vn -0.005239475 0.004027623 0.9999781
vn -0.004286272 0.001783081 0.9999892
vn -0.008171034 0.008583913 0.9999298
vn 0.03812682 0.000856681 -0.9992725
vn 0.002941406 0.01307009 -0.9999102
vn -0.9917436 0.1282352 -0.0005338319
vn -0.9999477 0.0005921906 0.01020669
vn -0.01231021 0.008184743 0.9998908
vn -0.005033903 0.001370476 0.9999864
vn -0.003687334 0.009119272 0.9999516
vn -0.545711 0.8377761 0.01818808
vn -0.7472602 0.6640387 -0.02558941
vn -0.8106891 0.5854451 0.006097676
vn -0.3977473 0.9173273 -0.01753664
vn 0.8012468 0.5980124 0.01961588
vn 0.7629178 0.6464859 -0.003542761
vn 0.3833114 0.9235234 0.01329597
vn 0.3452417 0.9385111 0.002257929
vn -0.001382088 0.007422985 0.9999715
vn 0.9811764 0.1927405 0.01199452
vn 0.9777186 0.2098826 0.003951708
vn 0.9956284 0.09289509 -0.009722962
vn -0.1216745 0.9923854 0.01914457
vn 0.007528511 0.9999716 0.0002310785
vn 0.0002525145 0.02021114 -0.9997957
vn -0.005772407 0.0030828 -0.9999785
vn 0.0004740868 0.01801555 -0.9998376
vn -0.9952304 0.09753586 -0.001792896
vn -0.992473 0.1192395 -0.027915
vn -0.9796004 0.2008417 0.00676844
vn 0.008172541 0.0003574019 0.9999666
vn 0.02150499 0.000619443 0.9997686
vn 0.04986903 0.0008916311 0.9987553
vn 0.02844653 0.03529822 0.9989719
vn 0.00161485 0.003891006 0.9999911
vn -0.0004565835 -0.0002844184 -0.9999999
vn -0.04075342 0.004041628 -0.9991611
vn 0.9911031 0.1330953 0.0003953723
vn 0.9998767 5.891702e-05 -0.01570077
vn 0.9896601 0.1431057 -0.009673757
vn 0.1552926 0.6759534 0.7203966
vn 0.6530991 0.7552541 0.0552528
vn 0.8568504 0.5155606 -0.002168168
vn 0.476897 0.8789582 0.001294006
vn -0.001732064 0.001456848 0.9999974
vn 0.008381307 0.005057716 0.999952
vn 0.01053787 0.006231713 0.999925
vn 0.9584692 0.269693 0.0927491
vn 0.8760493 0.073943 0.4765186
vn 0.9914407 0.0009547388 0.1305547
vn 0.8454887 0.4622787 0.2672962
vn 0.9821742 0.1879512 -0.002869925
vn 0.5360707 0.8348296 0.1252508
vn 0.8138805 0.5249134 0.2491274
vn 0.6221146 0.782847 -0.01113066
vn 0.8020286 0.13286 0.5823214
vn 0.9030692 0.02635449 0.4286859
vn 0.5317816 0.8224935 0.2017743
vn 0.5079706 0.0764195 0.8579779
vn 0.7304555 0.0007245375 0.6829599
vn 0.6751158 -0.3637373 0.6418051
vn 0.391804 -0.6875811 0.611328
vn 0.4451818 -0.6603978 0.6047214
vn 0.4538153 -0.6093771 0.6501624
vn 0.6795621 -0.554603 0.4802196
vn 0.337799 0.1995438 0.9198229
vn 0.324543 0.0515619 0.9444644
vn 0.5469934 -0.07294281 0.833953
vn 0.1899025 0.07802086 0.978698
vn 0.1081998 0.005475689 0.9941142
vn 0.1793748 -0.03874374 0.9830176
vn 0.3768802 0.2175544 0.9003507
vn 0.2998191 0.1548065 0.9413519
vn 0.01751062 -0.9996511 0.01977593
vn 0.02522975 -0.9995778 0.01440912
vn 0.01634432 -0.9993889 0.0308982
vn 0.9519856 0.2997139 0.06240999
vn 0.9977438 -0.03338356 0.05824828
vn 0.9985376 -0.05405772 -0.0007006024
vn 0.9867936 0.1558428 -0.04417561
vn 0.9749371 0.1077063 0.1946713
vn 0.967838 -0.06814582 0.2421688
vn 0.9898072 -0.06991898 0.1240684
vn 0.005745189 -0.9959137 0.09012712
vn 0.01603068 -0.9998112 0.01098239
vn 0.052889 -0.9532586 0.2974909
vn 0.1662023 -0.9180074 0.3600545
vn 0.08524115 -0.9421569 0.3241518
vn -0.2421411 0.008462221 0.9702042
vn 0.04819707 0.06471364 0.9967393
vn 0.0675472 0.2016388 0.9771281
vn -0.1047534 0.1302566 0.985931
vn -0.9890552 0.0229239 0.1457547
vn -0.9992211 -0.0103956 0.03806727
vn -0.994013 -0.03805476 0.1024212
vn -0.5534577 0.09162974 0.8278217
vn -0.339599 0.0886114 0.936387
vn -0.3517472 0.4344934 0.8291498
vn -0.0482906 -0.001579233 0.9988321
vn -0.01423516 -0.0005622817 0.9998986
vn -0.9521301 -0.2910349 0.09352499
vn -0.7271966 -0.6168279 0.3011782
vn -0.9569779 -0.2791619 0.07913304
vn -0.9853743 -0.169453 0.01797932
vn -0.7723832 0.1845503 0.6077544
vn -0.9351631 0.003849315 0.3541964
vn -0.9432196 -0.3297323 0.04016761
vn -0.9771169 0.2108653 0.02789721
vn -0.4727626 0.8532069 0.2203027
vn -0.3160959 0.9122 0.2607191
vn -0.2979859 0.9185939 0.2595954
vn -0.3782984 0.8890683 0.2577751
vn -0.5944486 0.2633965 0.7597719
vn -0.8378894 0.4946882 0.2307051
vn 0.1205057 0.920256 0.3722998
vn -0.3578632 0.7686398 0.530214
vn 0.4450433 0.6532843 0.6124999
vn -0.01559597 -0.0004711301 -0.9998783
vn 0.01246576 0.02709437 -0.9995552
vn 0.0505036 0.1242566 -0.9909641
vn -0.3883321 0.9135876 0.1206478
vn -0.4391208 0.8959231 -0.06704298
vn -0.8910415 0.4527156 0.03307146
vn 0.9522948 0.3051591 -0.003537587
vn 0.766908 0.641735 -0.00532643
vn 0.8908777 0.4542327 0.003097671
vn 0.9431078 0.3324299 0.006177932
vn 0.9735649 0.227862 -0.01582388
vn 0.9797027 0.2002227 0.009664241
vn 0.003074186 0.003149266 -0.9999903
vn 0.00206958 -0.0009243229 -0.9999974
vn 0.003816943 0.002325197 -0.99999
vn 0.1775568 0.1450674 -0.9733596
vn 0.2057839 -0.0089828 -0.9785562
vn 0.1507236 0.06348674 -0.9865353
vn 0.285833 0.1071985 -0.9522646
vn 0.2024214 0.4498239 -0.8698759
vn 0.9942291 -0.06612707 -0.08447354
vn 0.9659542 0.2295844 -0.1192622
vn 0.1874538 0.9822733 0.0003874031
vn 0.1999632 0.9797928 0.004540134
vn 0.1860787 0.9825335 0.001576502
vn 0.01238741 0.08348218 0.9964323
vn 0.3714882 0.03936728 0.9276027
vn 0.1219167 0.05932089 0.990766
vn 0.01262971 0.02214457 0.999675
vn 0.589887 -0.00288563 -0.8074806
vn 0.3187876 -0.06454596 -0.9456258
vn 0.44908 0.129258 -0.8840925
vn 0.3181782 0.2858652 -0.9039047
vn 0.01517318 -0.9998845 -0.0007967969
vn 0.003377437 -0.9989908 -0.04478896
vn 0.2952223 -0.9551019 -0.02498352
vn 0.8952457 -0.4449577 -0.02340711
vn 0.7554837 0.1781631 -0.6304778
vn 0.5546104 -0.8313357 0.03589175
vn 0.5174809 -0.8534908 -0.06137547
vn 0.3828907 -0.8813328 -0.2768522
vn 0.3846256 -0.8824917 -0.2706869
vn 0.831147 0.5062856 -0.229934
vn 0.8413264 -0.001193551 -0.5405262
vn 0.9579163 0.01815427 -0.2864732
vn 0.5944685 0.7809266 -0.1917312
vn 0.292459 -0.234535 -0.9270712
vn 0.999402 0.0341363 -0.005502244
vn 0.001968954 -0.05295334 -0.9985951
vn -0.9869778 0.04600812 -0.1541364
vn -0.9982585 0.009989343 -0.05814007
vn -0.9475145 0.3196353 -0.007040365
vn -0.976801 0.2139124 -0.01005858
vn -0.9757836 0.2141971 -0.04433951
vn -0.1578634 0.2649933 -0.9512401
vn -0.4989846 0.02383729 -0.8662829
vn -0.6156563 0.02678034 -0.7875596
vn -0.921307 0.3203345 -0.2204071
vn -0.1679638 0.4351446 -0.8845549
vn -0.9302355 0.2297558 -0.2861366
vn 0.05195436 0.9939216 -0.09705976
vn -0.3119894 0.9203358 -0.2358913
vn 0.002452123 0.8277446 -0.5610996
vn -0.4735047 0.6501961 -0.5941703
vn -0.8739396 0.4439746 -0.1977779
vn 0.9626194 0.2708562 0.0009596294
vn 0.986846 0.1616627 -0.0001858795
vn 0.9723037 0.2337189 -0.001035655
vn -0.9608797 0.1088083 -0.2546976
vn -0.968377 0.09809137 -0.2293993
vn 0.3551388 0.9348115 -0.001969998
vn 0.4826093 0.8758271 0.003880855
vn 0.05328263 0.05772074 0.9969099
vn 0.980016 0.1989179 0.0003797304
vn 0.9867045 0.162525 -0.00013643
vn 0.1062592 0.1892105 -0.9761704
vn 0.0916817 0.05677657 -0.9941685
vn 0.1150822 -0.05220102 -0.9919834
vn 0.01931404 0.1648729 -0.9861258
vn -0.01182332 0.001684505 -0.9999287
vn 0.04281098 -0.03958712 -0.9982986
vn -0.13885 0.4632036 -0.8753074
vn -0.599263 0.2858424 -0.7477821
vn -0.008191451 -0.05516457 -0.9984436
vn -0.1287151 0.01970159 -0.9914859
vn -0.992592 -0.01513266 -0.1205489
vn -0.9078858 -0.4153842 -0.05656243
vn -0.6899738 -0.7228649 -0.03745267
vn -0.9940938 -0.1079117 -0.01151694
vn -0.2444109 -0.01099642 -0.9696094
vn -0.5476948 0.02068054 -0.8364225
vn -0.3036349 -0.9479115 -0.09627897
vn -0.1121385 -0.9920236 -0.057567
vn -0.276054 -0.04968887 -0.9598569
vn -0.6380125 0.6577731 -0.400343
vn -0.7227021 0.639151 -0.2630354
vn -0.7453058 0.6072199 -0.2753241
vn -0.9976494 0.03274514 0.06019394
vn 0.9102744 -0.07040828 0.4079744
vn 0.9736629 -0.06958973 0.2171125
vn 0.7146986 -0.08924206 0.6937159
vn 0.9126241 -0.08829653 0.3991503
vn 0.7864141 -0.07621517 0.6129797
vn 0.9784513 -0.08866273 0.1864729
vn 0.2077883 -0.06212166 0.9761993
vn 0.3083081 -0.06531205 0.9490419
vn 0.1623456 -0.0635433 0.9846858
vn 0.2510945 -0.05399897 0.9664552
vn 0.1916182 -0.05953449 0.9796622
vn 0.9897394 -0.1081247 0.09340709
vn 0.9924328 -0.1188703 0.03077092
vn 0.9957477 -0.09034409 0.01801287
vn 0.1221749 -0.06589425 0.9903187
vn 0.1518974 -0.0645952 0.9862832
vn 0.9970235 -0.06758188 0.03710476
vn 0.9920786 -0.06374297 0.1082445
vn 0.9935993 -0.08583182 0.07343896
vn 0.9965892 -0.07016137 0.04344445
vn 0.9161196 -0.1128915 0.3846821
vn 0.9741333 -0.1203658 0.19125
vn 0.7923856 -0.1121672 0.5996195
vn 0.4423732 -0.06956108 0.8941293
vn 0.3224079 -0.05877417 0.9447744
vn 0.4021194 -0.09186351 0.9109671
vn 0.476509 -0.09200207 0.8743425
vn 0.6214703 -0.1141523 0.7750767
vn 0.2290604 -0.07336944 0.9706433
vn 0.5362058 -0.1365725 0.8329654
vn 0.6692324 -0.1465845 0.7284511
vn 0.9319306 -0.1873309 0.3105036
vn 0.9611624 -0.2083178 0.1810259
vn 0.9737399 -0.196311 0.1152934
vn 0.3229351 -0.09666068 0.9414721
vn 0.7638904 -0.1757642 0.6209496
vn 0.6083249 -0.191734 0.7701811
vn 0.1112755 -0.1160496 0.9869905
vn 0.2573555 -0.1317484 0.9572934
vn 0.2052976 -0.1017376 0.9733973
vn 0.4196893 -0.1414163 0.8965837
vn 0.9282197 -0.1193556 0.3523666
vn 0.09967906 -0.08097735 0.9917191
vn 0.9918066 -0.1258468 -0.02195851
vn 0.8602116 -0.177464 0.4780612
vn 0.9080162 -0.2335874 0.3477694
vn 0.9669067 -0.1977242 0.1612346
vn 0.9823389 -0.1825229 0.04117789
vn 0.8000909 -0.1355151 0.5843716
vn 0.9627161 -0.1567393 0.2204777
vn 0.9010177 -0.1666588 0.4004894
vn 0.9842919 -0.145429 0.1000993
vn 0.9886354 -0.1475995 0.02853847
vn 0.9861909 -0.1655773 -0.003418113
vn 0.1231299 -0.05195742 0.9910295
vn -0.3659311 -0.08474211 0.9267757
vn 0.02434017 -0.05282001 0.9983073
vn -0.7876058 -0.01679269 0.6159506
vn -0.821438 -0.04134654 0.5687971
vn 0.08398037 -0.0590161 0.9947182
vn 0.02246347 -0.07858451 0.9966544
vn 0.1143783 -0.1270828 0.9852753
vn 0.08085524 -0.05778422 0.9950494
vn 0.08445956 -0.05704641 0.9947925
vn -0.9831242 -0.05255001 0.1752293
vn 0.1159606 -0.05349074 0.9918124
vn -0.9977095 -0.06180676 0.0274917
vn -0.9927726 -0.1133041 0.03955783
vn 0.06377084 -0.09481659 0.9934501
vn -0.01117139 -0.1055128 0.9943552
vn 0.0347946 -0.1397548 0.9895746
vn 0.1452557 -0.1269382 0.9812174
vn -0.02639713 -0.09767573 0.9948682
vn 0.02393636 -0.09177145 0.9954925
vn -0.9865944 -0.1047485 0.1251367
vn -0.8437893 -0.1316043 0.5202883
vn -0.01457882 -0.1428483 0.9896373
vn -0.3208207 -0.1414068 0.9365246
vn 0.5798562 -0.0688003 -0.8118086
vn 0.4346917 -0.06862769 -0.8979607
vn 0.264598 -0.03567588 -0.9636987
vn 0.1910176 -0.05516921 -0.980035
vn 0.5956602 -0.08593167 -0.7986267
vn 0.3652363 -0.07682025 -0.9277397
vn 0.4939461 -0.1034567 -0.8633157
vn 0.3175981 -0.08540872 -0.9443712
vn 0.2104764 -0.06866867 -0.9751842
vn 0.1150182 -0.05454944 -0.9918645
vn 0.161135 -0.05659961 -0.9853081
vn 0.1346617 -0.06501739 -0.9887563
vn 0.9980646 -0.06215158 -0.002051005
vn 0.9963621 -0.08369626 -0.01603905
vn 0.994899 -0.07652452 -0.06572714
vn 0.997407 -0.05418252 -0.04736676
vn 0.987146 -0.06203476 -0.1472904
vn 0.9905713 -0.07044776 -0.1174976
vn 0.9719094 -0.06908699 -0.2249871
vn 0.8883781 -0.06593007 -0.4543539
vn 0.7564107 -0.05434861 -0.6518351
vn 0.9726485 -0.09032092 -0.2140027
vn 0.920196 -0.09113852 -0.3807005
vn 0.8351418 -0.1055323 -0.5398158
vn 0.991706 -0.1130509 -0.06114544
vn 0.7275601 -0.1271302 -0.6741618
vn 0.98813 -0.1470096 -0.04458036
vn 0.9809397 -0.1355912 -0.1391848
vn 0.9791496 -0.1601046 -0.1250299
vn 0.9539735 -0.1634741 -0.2514177
vn 0.9721175 -0.1149367 -0.204395
vn 0.9179482 -0.114815 -0.3797217
vn 0.7394117 -0.1650982 -0.6526967
vn 0.5687109 -0.1338754 -0.8115696
vn 0.9810529 -0.1861486 -0.0537007
vn 0.5445196 -0.1402354 -0.8269415
vn 0.3654721 -0.1197173 -0.9230915
vn 0.4025276 -0.1849086 -0.896538
vn 0.2288989 -0.1319098 -0.9644714
vn 0.1808749 -0.07916044 -0.9803152
vn 0.2173816 -0.09542643 -0.9714109
vn 0.1012994 -0.1030891 -0.9895004
vn 0.979443 -0.2012041 -0.01443494
vn 0.9712256 -0.2063537 -0.1189074
vn 0.9474053 -0.1938273 -0.2546646
vn 0.8831423 -0.1940338 -0.4270955
vn 0.7429956 -0.1867838 -0.6427047
vn 0.3521393 -0.1009472 -0.9304879
vn 0.932288 -0.2333924 -0.2763461
vn 0.8172834 -0.2212886 -0.5320519
vn -0.007055743 -0.03942066 -0.9991978
vn -0.3735602 -0.09423982 -0.9228064
vn -0.8171991 -0.04277366 -0.5747662
vn -0.8389316 -0.1176507 -0.5313681
vn -0.9827404 -0.04096738 -0.1803966
vn -0.9868333 -0.1073109 -0.1210144
vn -0.9976082 -0.04572462 -0.051839
vn 0.08506218 -0.05387121 -0.9949183
vn 0.04033993 -0.05908759 -0.9974374
vn 0.02738566 -0.07859593 -0.9965303
vn 0.0844605 -0.06044813 -0.9945916
vn 0.09266819 -0.0569517 -0.994067
vn 0.0995067 -0.06349795 -0.9930088
vn 0.03678909 -0.07530341 -0.9964818
vn 0.08348975 -0.07687552 -0.9935389
vn 0.1280096 -0.1287649 -0.9833785
vn -0.06635331 -0.08393075 -0.99426
vn -0.3954262 -0.1655925 -0.9034474
vn -0.006982766 -0.1118257 -0.9937033
vn 0.02948802 -0.1239297 -0.9918527
vn -0.01235415 -0.1448415 -0.9893777
vn -0.9812452 -0.1760527 -0.07850681
vn -0.9894569 -0.1416395 -0.03022047
vn -0.8115268 -0.2152418 -0.5432267
vn -0.9949442 -0.09489018 -0.03289274
vn 0.07445984 -0.1548887 0.985122
vn 0.2016485 -0.1728424 0.9640868
vn -0.8577279 -0.2328953 0.4583259
vn -0.3899806 -0.3095204 0.8672441
vn -0.437949 -0.1995285 0.876578
vn -0.9828898 -0.1626839 0.08638014
vn -0.9711918 -0.2348065 0.04064852
vn -0.9846311 -0.1743404 0.01034088
vn 0.7769011 -0.2255372 0.5878416
vn 0.9001518 -0.2475513 0.3583925
vn 0.9756563 -0.2091648 0.065916
vn 0.9635664 -0.2465791 0.1036266
vn 0.9709368 -0.2339329 0.05056804
vn 0.9433378 -0.2553275 0.2119474
vn 0.9498753 -0.2884627 0.1205251
vn 0.4547237 -0.2207696 0.8628367
vn 0.9535186 -0.2997689 0.03067364
vn 0.9322646 -0.327103 0.1545518
vn 0.9285877 -0.3676199 0.05079933
vn 0.8914568 -0.3537244 0.2831672
vn 0.9092774 -0.3919474 0.1399713
vn 0.7736929 -0.3547653 0.5249197
vn 0.7925184 -0.4078266 0.4534226
vn 0.8462196 -0.3008977 0.439742
vn 0.920307 -0.2938261 0.2582659
vn 0.4727099 -0.2480213 0.845595
vn 0.5817175 -0.3380418 0.7398192
vn 0.6862176 -0.2658391 0.6770782
vn 0.8485739 -0.2670445 0.4567379
vn 0.3632507 -0.2025232 0.9094138
vn 0.6793048 -0.2458443 0.6914517
vn 0.2738417 -0.2083402 0.9389383
vn 0.1268307 -0.1958646 0.9723945
vn 0.2909532 -0.2708719 0.9175918
vn 0.3401611 -0.3426785 0.8757066
vn 0.5375412 -0.3719262 0.756783
vn 0.9685449 -0.2487792 0.005446807
vn -0.008979 -0.1842626 0.982836
vn 0.02019122 -0.2392165 0.9707563
vn 0.001457464 -0.1637225 0.9865053
vn 0.08448373 -0.2377838 0.9676369
vn 0.6099208 -0.5869289 0.5324576
vn 0.3596877 -0.6282516 0.689873
vn 0.6253558 -0.6752177 0.3911664
vn 0.4145321 -0.7604898 0.4998184
vn 0.2858903 -0.4993995 0.8178428
vn 0.4312298 -0.5007365 0.7505357
vn 0.6291398 -0.460561 0.6261523
vn 0.7845244 -0.5630077 0.2598921
vn 0.7997832 -0.4749272 0.3671392
vn 0.2373556 -0.3864185 0.8912592
vn 0.7600821 -0.6365882 0.1305019
vn 0.5207157 -0.8143623 0.2562599
vn 0.6468956 -0.7572571 0.08993176
vn 0.4237382 -0.9015372 0.0876153
vn 0.5688213 -0.8224562 -0.002879624
vn 0.1441279 -0.8305569 0.5379614
vn 0.07381069 -0.4298635 0.8998718
vn 0.1156095 -0.5874441 0.8009644
vn 0.8373215 -0.524503 0.1542382
vn 0.8788462 -0.4476214 0.1651195
vn 0.01692563 -0.3498273 0.9366613
vn 0.1393881 -0.2419856 0.9602155
vn -0.5783625 -0.7342585 0.3554733
vn -0.2458174 -0.9600259 0.1338807
vn 0.1965884 -0.9559757 0.2178613
vn -0.9693806 -0.2438871 -0.02864025
vn -0.7670311 -0.6414226 0.01550293
vn -0.3669527 -0.5512325 0.7493254
vn -0.8293521 -0.3407729 0.4427741
vn 0.2180774 -0.9759248 -0.003596725
vn 0.4554884 -0.881414 -0.1250586
vn 0.6736735 -0.5193369 -0.5257881
vn 0.7334219 -0.4387296 -0.5192385
vn 0.8414544 -0.4466461 -0.3040751
vn 0.7955492 -0.5458946 -0.2628698
vn 0.8158212 -0.5778103 -0.02389856
vn 0.7798418 -0.6106327 -0.1377478
vn 0.8571368 -0.5092504 -0.07733373
vn 0.5721427 -0.3773015 -0.7282144
vn 0.4393952 -0.4259709 -0.7908733
vn 0.4189517 -0.5060236 -0.7539361
vn 0.2494949 -0.3485478 -0.9034748
vn 0.2271226 -0.4315931 -0.8730078
vn 0.8686221 -0.4687517 -0.160523
vn 0.8968374 -0.4423253 -0.005554603
vn 0.8525562 -0.5199752 0.05266406
vn 0.9084715 -0.3908835 -0.1479515
vn 0.9267088 -0.3731896 -0.04404867
vn 0.2189779 -0.2770053 -0.9355836
vn 0.08907512 -0.2529354 -0.963374
vn 0.6152556 -0.6110338 -0.4980945
vn 0.5930643 -0.7441203 -0.3075058
vn 0.6673378 -0.7386579 -0.09510402
vn 0.2199034 -0.4950458 -0.8405784
vn 0.1158786 -0.3162227 -0.9415812
vn 0.004082704 -0.2305393 -0.9730545
vn 0.1599298 -0.5991778 -0.7844798
vn 0.4041814 -0.7712429 -0.4917538
vn 0.1310589 -0.8420559 -0.5232262
vn 0.3668201 -0.6127437 -0.6999915
vn 0.01912975 -0.3853016 -0.9225924
vn 0.2114068 -0.9477196 -0.2390286
vn -0.3118618 -0.9450435 -0.09815771
vn -0.3647526 -0.2801673 -0.8879537
vn -0.02595849 -0.5981084 -0.8009947
vn -0.933979 -0.3466003 -0.08689899
vn 0.4445747 -0.297133 -0.8450238
vn 0.2696825 -0.2210962 -0.9372234
vn 0.9742501 -0.2208714 -0.04530547
vn 0.7236924 -0.3412109 -0.5998703
vn 0.9613043 -0.2727624 -0.0386612
vn 0.9537628 -0.2314346 -0.1917669
vn 0.9657345 -0.2427421 -0.0918322
vn 0.8660203 -0.2509657 -0.4324639
vn 0.9364059 -0.316575 -0.1514081
vn 0.9527811 -0.2785403 -0.1209272
vn 0.9246511 -0.2845674 -0.2530646
vn 0.9473914 -0.3157559 -0.05241826
vn 0.6757473 -0.21689 -0.7045028
vn 0.5736361 -0.1733271 -0.8005618
vn 0.4452218 -0.2058509 -0.8714373
vn 0.8653741 -0.2847166 -0.4123882
vn 0.7458091 -0.2585347 -0.6139451
vn 0.8652892 -0.3333795 -0.3743431
vn 0.7235078 -0.2901831 -0.6263627
vn 0.1408325 -0.1669561 -0.9758544
vn 0.118879 -0.2090835 -0.9706451
vn 0.8895351 -0.3625413 -0.2780131
vn 0.5022483 -0.2507965 -0.8275552
vn 0.2632416 -0.1756993 -0.9485956
vn 0.03851441 -0.1434812 -0.9889033
vn -0.04005108 -0.168402 -0.9849044
vn -0.04506395 -0.1912777 -0.980501
vn -0.3980768 -0.3903508 -0.8301573
vn 0.9082373 0.4184047 0.006516136
vn 0.005025639 -0.0009040789 -0.9999869
vn 0.2360065 0.9716325 -0.01520508
vn 0.006694492 0.004685581 0.9999667
vn -0.1450763 0.9894159 0.002997735
vn -0.003777881 0.003031102 -0.9999883
vn 0.05928042 -0.0002096938 -0.9982414
vn -0.9680137 0.2506755 -0.01054085
vn -0.01025566 0.07471322 0.9971523
vn -0.004957424 0.01623639 0.9998559
vn -0.003746095 0.1495301 -0.9887501
vn 0.023995 0.001006238 -0.9997115
vn -0.5287924 -0.003541087 0.8487439
vn 0.9999946 0.0001250782 0.003288822
vn 0.9451864 -0.001444082 -0.3265284
vn 0.7144728 -0.6996263 -0.00717127
vn 0.683777 -0.7296565 0.007092305
vn 0.7059087 -0.708296 -0.003124089
vn 0.9865484 -0.1632741 0.007994928
vn 0.8671398 -0.4935619 0.06682336
vn 0.675485 -0.7372941 0.01083516
vn 0.9875804 0.1569198 -0.007815679
vn 0.2428461 0.1464298 0.9589494
vn -0.0471595 -0.996381 0.07071704
vn 0.3107743 0.9504821 0.001772225
vn 0.09975496 0.118026 0.9879872
vn -0.05150755 -0.9975607 0.04711254
vn -0.9994683 -0.0003436211 0.03260337
vn -0.5097216 0.8351241 0.206765
vn 0.1319427 0.4297716 -0.8932455
vn 0.6392583 0.5797243 0.5052412
vn 0.3557703 0.6853406 -0.635402
vn 0.04157303 0.9984789 0.03621308
vn 0.985449 0.1695017 0.01263359
vn 0.05309103 -0.9543617 -0.2938961
vn 0.5051048 -0.007949467 0.8630214
vn 0.2283081 -0.8437478 -0.4857622
vn 0.2703587 -0.6541524 -0.7063929
vn 0.2737801 -0.6236495 -0.7321922
vn 0.5051709 0.2631558 -0.8219193
vn 0.000990102 -0.1977061 -0.9802608
vn 0.0009877348 -0.1977591 -0.9802502
vn 0.9825201 -0.1861334 0.002913445
vn -0.3000498 0.5770496 -0.7595945
vn 0.5440321 0.09783179 0.8333414
vn 0.389624 0.2513236 0.8860189
vn 0.5972845 -0.03413017 -0.801303
vn 0.9889341 -0.09288375 -0.1156805
vn 0.8826557 -0.1606117 -0.4417271
vn 0.7582 -0.6517389 0.01920968
vn -0.9661447 -0.231736 -0.1134143
vn -0.8373495 -0.4107845 -0.3606965
vn -0.06944604 -0.8993457 -0.431688
vn 0.05947069 -0.1853749 -0.9808666
f 13//1 7//2 31//3
f 11//4 14//5 9//6
f 14//5 12//7 9//6
f 14//8 7//2 13//1
f 12//9 67//10 9//11
f 9//11 67//10 10//12
f 10//12 67//10 6//13
f 7//14 4//15 5//16
f 1//17 16//18 15//19
f 1//20 17//21 2//22
f 3//23 4//15 16//24
f 3//25 7//2 5//26
f 2//27 7//2 3//25
f 1//20 2//22 3//23
f 67//10 100//28 75//29
f 15//30 61//31 17//21
f 19//32 29//33 20//34
f 20//35 18//36 19//37
f 21//38 18//36 20//35
f 27//39 24//40 28//41
f 28//41 24//40 25//42
f 28//43 20//34 29//33
f 27//39 30//44 26//45
f 24//40 27//39 26//45
f 30//44 78//46 26//45
f 23//47 25//42 22//48
f 25//49 18//50 21//51
f 115//52 107//53 29//54
f 27//55 78//56 30//57
f 116//58 120//59 28//43
f 28//43 29//33 116//58
f 18//50 115//60 114//61
f 31//62 44//63 8//64
f 75//65 100//65 89//65
f 100//66 97//67 88//68
f 17//69 33//70 45//71
f 47//72 44//73 43//74
f 46//75 47//72 96//76
f 46//75 96//76 97//67
f 37//77 39//78 94//79
f 38//80 154//81 39//78
f 38//82 39//78 37//77
f 36//83 156//84 38//80
f 42//85 38//86 43//87
f 44//88 41//89 43//87
f 100//66 46//75 97//67
f 100//66 47//72 46//75
f 35//90 144//91 36//83
f 144//91 155//92 36//83
f 66//93 198//94 141//95
f 41//96 35//90 36//83
f 34//97 66//93 144//91
f 35//98 41//99 33//100
f 48//101 159//102 239//103
f 48//101 102//104 94//79
f 40//105 153//106 160//107
f 159//102 40//105 160//107
f 48//101 40//105 159//102
f 48//101 94//79 39//78
f 65//108 32//109 33//100
f 63//110 56//111 64//112
f 56//113 193//114 64//115
f 57//116 56//116 63//116
f 51//117 50//118 189//119
f 63//110 64//112 65//108
f 53//120 55//121 62//122
f 17//69 60//123 58//124
f 57//125 58//126 60//127
f 61//31 55//128 60//127
f 53//120 59//129 192//130
f 57//125 54//131 56//132
f 52//133 53//134 192//135
f 53//134 52//133 54//136
f 54//137 55//121 53//120
f 71//138 51//117 192//130
f 71//138 192//130 59//129
f 69//139 68//140 67//141
f 15//19 67//10 61//142
f 74//143 75//29 70//144
f 69//139 72//145 68//140
f 71//138 59//129 68//140
f 59//129 62//122 68//140
f 111//146 104//147 71//138
f 74//148 70//149 118//150
f 77//151 98//152 99//153
f 99//154 115//60 76//155
f 24//156 115//60 18//50
f 79//157 216//158 137//159
f 81//160 216//158 79//157
f 80//161 81//160 79//157
f 102//104 238//162 101//163
f 75//164 87//165 120//166
f 75//164 88//68 87//165
f 88//167 97//168 98//169
f 77//170 88//167 98//169
f 232//171 220//172 84//173
f 83//174 81//160 80//161
f 83//175 79//176 82//177
f 99//153 98//152 95//178
f 90//179 232//171 84//173
f 86//180 82//177 95//178
f 92//181 90//182 91//183
f 90//179 93//184 233//185
f 93//184 234//186 233//185
f 101//163 234//186 93//184
f 37//77 94//79 92//187
f 96//188 91//188 86//188
f 43//74 91//189 96//76
f 99//154 95//190 115//60
f 104//147 134//191 121//192
f 133//193 130//194 131//195
f 105//196 131//197 128//198
f 131//195 106//199 133//193
f 115//52 133//193 107//53
f 109//200 131//197 105//196
f 109//201 106//199 131//195
f 112//202 110//203 111//146
f 107//53 133//193 106//199
f 110//203 117//204 108//205
f 110//203 108//205 103//206
f 113//207 69//208 112//209
f 117//204 109//200 108//205
f 108//205 109//200 105//196
f 105//210 134//191 103//206
f 105//210 128//211 134//191
f 70//149 73//212 119//213
f 118//150 70//149 119//213
f 116//58 119//214 120//59
f 73//212 120//166 119//213
f 74//148 118//150 116//215
f 74//148 116//215 117//216
f 135//217 137//159 136//218
f 137//159 281//219 136//218
f 122//220 135//217 136//218
f 115//60 95//190 133//221
f 122//220 136//218 278//222
f 127//223 135//217 122//220
f 122//220 124//224 127//223
f 133//221 125//225 130//226
f 128//211 269//227 134//191
f 125//228 123//229 132//230
f 131//197 132//231 129//232
f 126//233 127//234 123//229
f 122//220 273//235 124//224
f 123//236 124//224 128//211
f 129//237 123//236 128//211
f 123//236 129//237 132//238
f 125//228 132//230 131//195
f 121//192 50//118 49//239
f 134//191 269//227 121//192
f 153//106 151//240 150//241
f 154//81 151//240 153//106
f 148//242 147//243 152//244
f 155//92 148//242 152//244
f 151//240 147//243 150//241
f 147//243 146//245 150//241
f 152//244 147//243 151//240
f 141//95 140//246 142//247
f 140//246 138//248 139//249
f 138//248 167//250 139//249
f 183//251 182//252 268//253
f 138//248 165//254 161//255
f 160//107 158//256 159//102
f 160//107 149//257 158//256
f 159//102 158//256 239//103
f 145//258 157//259 149//257
f 156//84 152//244 151//240
f 156//84 155//92 152//244
f 153//106 149//257 160//107
f 153//106 150//241 149//257
f 146//245 186//260 184//261
f 147//243 186//260 146//245
f 147//243 187//262 186//260
f 150//241 146//245 149//257
f 141//95 142//247 144//91
f 142//247 143//263 155//92
f 166//264 171//265 173//266
f 143//263 139//249 166//264
f 171//265 172//267 173//266
f 166//264 164//268 171//265
f 172//267 169//269 170//270
f 174//271 328//272 327//273
f 164//268 163//274 171//265
f 181//275 169//269 320//276
f 209//277 310//278 162//279
f 163//274 162//279 311//280
f 187//262 185//281 186//260
f 165//254 211//282 162//279
f 161//255 165//254 162//279
f 167//250 161//255 164//268
f 268//253 182//252 265//283
f 168//284 329//285 174//271
f 176//286 327//273 254//287
f 172//267 170//270 179//288
f 184//261 185//281 177//289
f 180//290 177//289 185//281
f 183//251 184//261 178//291
f 175//292 260//293 182//252
f 179//288 170//270 181//275
f 180//290 174//271 177//289
f 177//289 174//271 176//286
f 180//290 181//275 174//271
f 198//94 199//294 141//95
f 193//114 203//295 195//296
f 56//113 52//297 203//295
f 190//298 203//295 52//297
f 212//299 204//300 207//301
f 195//296 203//295 204//300
f 194//302 204//300 212//299
f 196//303 195//296 194//302
f 193//114 195//296 196//303
f 189//119 191//304 192//130
f 192//130 191//304 190//298
f 199//294 194//302 197//305
f 189//119 188//306 202//307
f 210//308 205//309 209//277
f 205//309 300//310 209//277
f 300//310 208//311 209//277
f 201//312 205//309 206//313
f 191//304 295//314 200//315
f 205//309 299//316 300//310
f 205//309 201//312 299//316
f 203//295 201//312 204//300
f 200//315 296//317 203//295
f 221//318 219//319 220//172
f 219//319 215//320 213//321
f 219//319 213//321 220//172
f 219//319 218//322 217//323
f 219//319 217//323 215//320
f 220//172 213//321 216//158
f 217//323 251//324 244//325
f 217//323 244//325 242//326
f 137//159 216//158 281//219
f 216//158 213//321 281//219
f 280//327 214//328 292//329
f 236//330 226//331 225//332
f 239//103 237//333 238//162
f 235//334 231//335 230//336
f 235//334 230//336 234//186
f 229//337 221//318 233//185
f 229//337 223//338 221//318
f 232//171 233//185 221//318
f 230//336 231//335 224//339
f 231//335 225//332 224//339
f 230//336 224//339 228//340
f 229//337 228//340 223//338
f 228//340 224//339 222//341
f 268//253 265//283 226//331
f 226//331 266//342 225//332
f 222//341 252//343 218//322
f 265//283 182//252 261//344
f 266//342 265//283 264//345
f 264//345 265//283 259//346
f 264//345 259//346 256//347
f 263//348 256//347 262//349
f 250//350 249//351 252//343
f 261//344 260//293 258//352
f 249//351 250//350 248//353
f 247//354 424//355 417//356
f 240//357 241//358 290//359
f 258//352 439//360 438//361
f 259//346 257//362 256//347
f 259//346 438//361 257//362
f 253//363 246//364 250//350
f 251//324 243//365 244//325
f 243//365 249//351 248//353
f 438//361 433//366 257//362
f 257//362 433//366 253//363
f 433//366 429//367 253//363
f 253//363 429//367 246//364
f 273//235 270//368 283//369
f 272//370 282//371 274//372
f 274//372 440//373 271//374
f 281//219 277//375 136//218
f 276//376 289//377 270//368
f 275//378 289//377 276//376
f 276//376 279//379 275//378
f 278//222 277//375 276//376
f 136//218 277//375 278//222
f 280//327 279//379 281//219
f 280//327 292//329 291//380
f 280//327 291//380 279//379
f 290//359 287//381 288//382
f 292//329 288//382 291//380
f 417//356 452//383 290//359
f 288//382 287//381 286//384
f 289//377 442//385 283//369
f 442//385 282//371 283//369
f 285//386 448//387 447//388
f 287//381 285//386 286//384
f 440//373 367//389 443//390
f 282//371 441//391 440//373
f 286//384 285//386 442//385
f 274//372 282//371 440//373
f 440//373 443//390 284//392
f 208//311 303//393 304//394
f 339//395 338//396 294//397
f 293//398 330//399 339//395
f 208//311 300//310 303//393
f 368//400 330//399 293//398
f 321//401 319//402 329//285
f 328//272 326//403 327//273
f 328//272 323//404 324//405
f 295//314 202//307 293//398
f 439//360 326//403 324//405
f 325//406 322//407 323//404
f 310//278 309//408 311//280
f 432//409 312//410 362//411
f 324//405 323//404 322//407
f 312//410 365//412 363//413
f 312//410 363//413 362//411
f 365//412 312//410 322//407
f 313//414 364//415 365//412
f 314//416 365//412 316//417
f 307//418 366//419 315//420
f 316//417 365//412 322//407
f 315//420 313//414 314//416
f 318//421 315//420 314//416
f 308//422 307//418 317//423
f 320//276 309//408 317//423
f 317//423 318//421 321//401
f 321//401 318//421 319//402
f 168//284 321//401 329//285
f 320//276 321//401 181//275
f 306//424 307//418 308//422
f 302//425 306//424 308//422
f 306//424 305//426 307//418
f 305//426 358//427 357//428
f 436//429 322//407 432//409
f 295//314 293//398 339//395
f 200//315 294//397 296//317
f 297//430 338//396 340//431
f 298//432 294//397 297//430
f 294//397 298//432 299//316
f 300//310 299//316 303//393
f 301//433 340//431 305//426
f 301//433 305//426 302//425
f 298//432 297//430 302//425
f 303//393 298//432 302//425
f 355//434 345//435 350//436
f 345//435 343//437 350//436
f 346//438 345//435 354//439
f 354//439 355//434 356//440
f 355//434 350//436 352//441
f 357//428 354//439 356//440
f 358//427 354//439 357//428
f 356//440 355//434 353//442
f 347//443 354//439 358//427
f 351//444 344//445 349//446
f 342//447 392//448 349//446
f 344//445 342//447 349//446
f 345//435 332//449 343//437
f 337//450 335//451 346//438
f 346//438 335//451 345//435
f 359//452 353//442 352//441
f 361//453 353//442 359//452
f 365//412 361//453 363//413
f 336//454 337//450 347//443
f 357//428 356//440 364//415
f 364//415 353//442 361//453
f 366//419 364//415 313//414
f 336//454 347//443 348//455
f 337//450 346//438 347//443
f 331//456 373//457 341//458
f 332//449 331//456 341//458
f 330//399 377//459 372//460
f 330//399 372//460 331//456
f 333//461 331//456 332//449
f 333//461 335//451 336//454
f 339//395 330//399 334//462
f 340//431 338//396 336//454
f 341//458 373//457 383//463
f 342//447 341//458 383//463
f 383//463 382//464 342//447
f 342//447 382//464 392//448
f 402//465 403//466 407//467
f 394//468 402//465 407//467
f 399//469 397//470 406//471
f 404//472 403//466 401//473
f 403//466 402//465 401//473
f 401//473 402//465 400//474
f 390//475 400//474 384//476
f 406//471 394//468 408//477
f 411//478 360//479 406//471
f 411//478 408//477 409//480
f 411//478 409//480 410//481
f 391//482 401//473 390//475
f 410//481 362//411 411//478
f 389//483 391//482 390//475
f 394//468 393//484 402//465
f 395//485 393//484 394//468
f 397//470 396//486 395//485
f 386//487 384//476 400//474
f 392//448 382//464 396//486
f 390//475 384//476 388//488
f 389//483 390//475 388//488
f 389//483 388//488 379//489
f 385//490 380//491 370//492
f 386//487 387//493 385//490
f 374//494 386//487 385//490
f 383//463 381//495 382//464
f 383//463 371//496 381//495
f 381//495 380//491 382//464
f 378//497 379//489 374//494
f 374//494 376//498 378//497
f 370//492 376//498 385//490
f 369//499 371//496 372//460
f 371//496 370//492 381//495
f 412//500 391//482 413//501
f 439//360 324//405 437//502
f 405//503 404//472 412//500
f 439//360 437//502 438//361
f 324//405 436//429 437//502
f 436//429 431//504 437//502
f 438//361 437//502 435//505
f 438//361 435//505 433//366
f 437//502 434//506 435//505
f 433//366 428//507 429//367
f 431//504 421//508 430//509
f 435//505 434//506 430//509
f 435//505 422//510 428//507
f 430//509 421//508 422//510
f 431//504 432//409 423//511
f 429//367 428//507 425//512
f 245//513 246//364 429//367
f 424//355 425//512 416//514
f 245//513 424//355 247//354
f 422//510 426//515 428//507
f 426//515 427//516 428//507
f 420//517 418//518 426//515
f 423//511 410//481 409//480
f 451//519 413//501 449//520
f 422//510 420//517 426//515
f 420//517 421//508 419//521
f 423//511 409//480 421//508
f 421//508 409//480 419//521
f 420//517 405//503 418//518
f 414//522 418//518 412//500
f 415//523 414//522 413//501
f 416//514 414//522 415//523
f 417//356 416//514 415//523
f 424//355 416//514 417//356
f 413//501 391//482 449//520
f 452//383 451//519 446//524
f 447//388 446//524 444//525
f 442//385 447//388 444//525
f 444//525 378//497 442//385
f 445//526 449//520 389//483
f 442//385 378//497 375//527
f 445//526 389//483 379//489
f 379//489 378//497 444//525
f 367//389 377//459 368//400
f 442//385 375//527 441//391
f 12//7 14//5 13//528
f 12//7 13//528 8//64
f 13//528 31//62 8//64
f 12//9 8//529 67//10
f 10//530 11//4 9//6
f 14//8 11//531 7//2
f 7//14 11//4 10//530
f 7//14 10//530 6//532
f 4//15 7//14 6//532
f 4//533 6//13 67//10
f 17//21 1//20 15//30
f 5//16 4//15 3//23
f 16//18 4//533 67//10
f 2//27 17//69 7//2
f 3//23 16//24 1//20
f 16//18 67//10 15//19
f 8//529 100//28 67//10
f 8//529 47//534 100//28
f 17//21 61//31 60//127
f 19//37 114//535 29//54
f 19//37 18//36 114//535
f 23//47 21//38 20//35
f 23//536 20//34 28//43
f 21//38 23//47 22//48
f 25//49 24//156 18//50
f 27//55 28//43 87//537
f 28//41 25//42 23//47
f 22//538 25//49 21//51
f 114//535 115//52 29//54
f 28//43 120//59 87//537
f 78//56 27//55 87//537
f 26//539 76//155 24//156
f 29//33 107//540 116//58
f 7//2 17//69 31//3
f 31//62 45//541 44//63
f 8//64 44//63 47//542
f 44//543 45//544 41//545
f 31//3 17//69 45//71
f 96//76 47//72 43//74
f 153//106 40//105 154//81
f 39//78 154//81 40//105
f 36//83 155//92 156//84
f 41//89 36//83 42//85
f 42//85 36//83 38//80
f 41//89 42//85 43//87
f 37//546 43//74 38//547
f 154//81 38//80 156//84
f 45//544 33//548 41//545
f 43//74 37//546 92//549
f 35//90 34//97 144//91
f 66//93 141//95 144//91
f 32//550 66//93 34//97
f 35//90 32//550 34//97
f 33//100 58//551 63//110
f 89//552 88//68 75//164
f 102//104 48//101 239//103
f 48//101 39//78 40//105
f 33//100 32//109 35//98
f 63//110 65//108 33//100
f 32//550 65//553 66//93
f 58//551 57//554 63//110
f 17//69 58//124 33//70
f 49//239 50//118 51//117
f 192//130 51//117 189//119
f 50//118 271//374 188//306
f 193//114 196//303 198//94
f 65//553 64//115 193//114
f 65//553 193//114 198//94
f 65//553 198//94 66//93
f 62//555 55//128 61//31
f 59//129 53//120 62//122
f 57//125 60//127 55//128
f 57//125 55//128 54//131
f 56//556 54//136 52//133
f 70//144 75//29 73//557
f 74//143 67//10 75//29
f 67//141 74//558 69//139
f 71//138 68//140 72//145
f 61//559 67//559 62//559
f 68//140 62//122 67//141
f 104//147 49//239 71//138
f 71//138 49//239 51//117
f 72//145 69//139 113//560
f 71//138 72//145 111//146
f 72//145 113//560 111//146
f 77//170 87//537 88//167
f 76//561 77//151 99//153
f 24//156 76//155 115//60
f 26//45 78//46 76//561
f 78//46 77//151 76//561
f 77//170 78//56 87//537
f 101//163 238//162 235//334
f 79//157 137//159 135//217
f 79//176 135//562 126//233
f 82//177 79//176 126//233
f 94//79 101//163 93//184
f 100//66 88//68 89//552
f 98//169 97//168 96//563
f 86//564 85//565 83//566
f 83//174 85//567 84//173
f 83//174 84//173 81//160
f 81//160 84//173 220//172
f 125//225 95//190 82//568
f 125//225 82//568 126//569
f 83//174 80//161 79//157
f 81//160 220//172 216//158
f 102//104 239//103 238//162
f 94//79 102//104 101//163
f 86//180 83//175 82//177
f 85//567 90//179 84//173
f 86//564 90//182 85//565
f 232//171 90//179 233//185
f 90//182 86//564 91//183
f 92//187 93//184 90//179
f 92//187 94//79 93//184
f 101//163 235//334 234//186
f 95//178 96//570 86//180
f 98//152 96//570 95//178
f 43//74 92//549 91//189
f 111//146 113//560 112//202
f 49//239 104//147 121//192
f 104//147 103//206 134//191
f 111//146 103//206 104//147
f 117//216 69//208 74//148
f 69//208 117//216 112//209
f 107//53 106//199 109//201
f 111//146 110//203 103//206
f 110//203 112//202 117//204
f 108//205 105//210 103//206
f 109//200 117//204 116//571
f 107//572 109//572 116//572
f 116//58 118//573 119//214
f 75//164 120//166 73//212
f 133//221 95//190 125//225
f 135//562 127//234 126//233
f 130//194 125//228 131//195
f 128//198 131//197 129//232
f 272//370 124//224 273//235
f 123//236 127//223 124//224
f 126//233 123//229 125//228
f 274//372 124//224 272//370
f 128//211 124//224 274//372
f 128//211 274//372 269//227
f 121//192 271//374 50//118
f 121//192 269//227 271//374
f 147//243 148//242 187//262
f 155//92 143//263 148//242
f 141//95 199//294 140//246
f 140//246 197//305 138//248
f 199//294 197//305 140//246
f 145//258 183//251 268//253
f 138//248 161//255 167//250
f 139//249 167//250 166//264
f 146//245 184//261 183//251
f 145//258 146//245 183//251
f 154//81 156//84 151//240
f 158//256 149//257 157//259
f 158//256 157//259 236//330
f 157//259 268//253 236//330
f 148//242 143//263 172//267
f 187//262 148//242 172//267
f 268//253 157//259 145//258
f 149//257 146//245 145//258
f 155//92 144//91 142//247
f 143//263 173//266 172//267
f 143//263 140//246 139//249
f 142//247 140//246 143//263
f 166//264 173//266 143//263
f 171//265 169//269 172//267
f 171//265 163//274 169//269
f 254//287 326//403 439//360
f 170//270 169//269 181//275
f 169//269 311//280 320//276
f 169//269 163//274 311//280
f 187//262 172//267 179//288
f 181//275 321//401 168//284
f 320//276 311//280 309//408
f 209//277 208//311 310//278
f 311//280 162//279 310//278
f 186//260 185//281 184//261
f 163//274 164//268 162//279
f 187//262 179//288 185//281
f 161//255 162//279 164//268
f 166//264 167//250 164//268
f 174//271 329//285 328//272
f 254//287 327//273 326//403
f 175//292 254//287 260//293
f 327//273 176//286 174//271
f 178//291 176//286 254//287
f 178//291 177//289 176//286
f 175//292 178//291 254//287
f 185//281 179//288 180//290
f 184//261 177//289 178//291
f 183//251 178//291 182//252
f 182//252 178//291 175//292
f 180//290 179//288 181//275
f 174//271 181//275 168//284
f 295//314 189//119 202//307
f 191//304 189//119 295//314
f 190//298 191//304 200//315
f 203//295 190//298 200//315
f 193//114 56//113 203//295
f 190//298 52//297 192//130
f 207//301 204//300 206//313
f 194//302 195//296 204//300
f 189//119 50//118 188//306
f 199//294 198//94 196//303
f 199//294 196//303 194//302
f 138//248 197//305 165//254
f 202//307 188//306 284//392
f 194//302 212//299 165//254
f 194//302 165//254 197//305
f 165//254 212//299 211//282
f 212//299 206//313 211//282
f 211//282 206//313 210//308
f 212//299 207//301 206//313
f 206//313 205//309 210//308
f 162//279 211//282 209//277
f 211//282 210//308 209//277
f 202//307 443//390 368//400
f 204//300 201//312 206//313
f 203//295 296//317 201//312
f 201//312 296//317 299//316
f 220//172 232//171 221//318
f 219//319 227//574 218//322
f 218//322 251//324 217//323
f 215//320 217//323 242//326
f 213//321 215//320 214//328
f 280//327 213//321 214//328
f 215//320 242//326 214//328
f 214//328 242//326 292//329
f 231//335 237//333 225//332
f 237//333 231//335 235//334
f 235//334 238//162 237//333
f 225//332 237//333 236//330
f 237//333 158//256 236//330
f 239//103 158//256 237//333
f 236//330 268//253 226//331
f 233//185 234//186 229//337
f 234//186 230//336 229//337
f 221//318 223//338 219//319
f 224//339 225//332 267//575
f 229//337 230//336 228//340
f 223//338 222//341 218//322
f 262//349 224//339 263//348
f 224//339 262//349 222//341
f 223//338 228//340 222//341
f 219//319 223//338 227//574
f 227//574 223//338 218//322
f 267//575 225//332 266//342
f 226//331 265//283 266//342
f 263//348 224//339 267//575
f 267//575 266//342 264//345
f 267//575 264//345 263//348
f 262//349 252//343 222//341
f 265//283 261//344 259//346
f 263//348 264//345 256//347
f 262//349 255//576 252//343
f 262//349 256//347 255//576
f 252//343 255//576 250//350
f 259//346 261//344 258//352
f 250//350 246//364 248//353
f 248//353 246//364 245//513
f 247//354 248//353 245//513
f 241//358 417//356 290//359
f 241//358 247//354 417//356
f 439//360 260//293 254//287
f 258//352 260//293 439//360
f 259//346 258//352 438//361
f 255//576 256//347 257//362
f 250//350 255//576 253//363
f 255//576 257//362 253//363
f 292//329 240//357 290//359
f 240//357 243//365 241//358
f 242//326 243//365 240//357
f 244//325 243//365 242//326
f 243//365 247//354 241//358
f 242//326 240//357 292//329
f 243//365 248//353 247//354
f 251//324 249//351 243//365
f 182//252 260//293 261//344
f 252//343 249//351 251//324
f 251//324 218//322 252//343
f 280//327 281//219 213//321
f 271//374 284//392 188//306
f 269//227 274//372 271//374
f 271//374 440//373 284//392
f 272//370 273//235 283//369
f 276//376 270//368 273//235
f 277//375 279//379 276//376
f 122//220 276//376 273//235
f 122//220 278//222 276//376
f 281//219 279//379 277//375
f 279//379 291//380 275//378
f 291//380 288//382 275//378
f 292//329 290//359 288//382
f 290//359 452//383 448//387
f 287//381 290//359 285//386
f 270//368 289//377 283//369
f 275//378 288//382 289//377
f 289//377 288//382 286//384
f 289//377 286//384 442//385
f 284//392 443//390 202//307
f 282//371 442//385 441//391
f 442//385 285//386 447//388
f 285//386 290//359 448//387
f 283//369 282//371 272//370
f 202//307 368//400 293//398
f 329//285 319//402 328//272
f 328//272 319//402 325//406
f 328//272 325//406 323//404
f 326//403 328//272 324//405
f 325//406 319//402 316//417
f 319//402 318//421 316//417
f 322//407 325//406 316//417
f 310//278 308//422 309//408
f 310//278 304//394 308//422
f 310//278 208//311 304//394
f 432//409 362//411 410//481
f 436//429 324//405 322//407
f 313//414 315//420 366//419
f 314//416 313//414 365//412
f 318//421 317//423 315//420
f 316//417 318//421 314//416
f 317//423 307//418 315//420
f 309//408 308//422 317//423
f 321//401 320//276 317//423
f 308//422 304//394 302//425
f 307//418 305//426 366//419
f 366//419 305//426 357//428
f 306//424 302//425 305//426
f 358//427 305//426 348//455
f 436//429 432//409 431//504
f 322//407 312//410 432//409
f 200//315 295//314 339//395
f 200//315 339//395 294//397
f 297//430 294//397 338//396
f 301//433 297//430 340//431
f 296//317 294//397 299//316
f 299//316 298//432 303//393
f 305//426 340//431 348//455
f 302//425 297//430 301//433
f 304//394 303//393 302//425
f 355//434 354//439 345//435
f 398//577 359//452 351//444
f 352//441 350//436 351//444
f 347//443 346//438 354//439
f 353//442 355//434 352//441
f 358//427 348//455 347//443
f 399//469 360//479 398//577
f 359//452 398//577 360//479
f 351//444 350//436 344//445
f 350//436 343//437 344//445
f 398//577 351//444 349//446
f 359//452 352//441 351//444
f 398//577 349//446 392//448
f 335//451 332//449 345//435
f 411//478 361//453 360//479
f 362//411 363//413 411//478
f 363//413 361//453 411//478
f 360//479 361//453 359//452
f 361//453 365//412 364//415
f 364//415 366//419 357//428
f 364//415 356//440 353//442
f 368//400 377//459 330//399
f 340//431 336//454 348//455
f 373//457 331//456 372//460
f 334//462 330//399 331//456
f 334//462 331//456 333//461
f 335//451 333//461 332//449
f 337//450 336//454 335//451
f 339//395 334//462 338//396
f 338//396 334//462 333//461
f 338//396 333//461 336//454
f 373//457 371//496 383//463
f 344//445 332//449 341//458
f 344//445 343//437 332//449
f 344//445 341//458 342//447
f 394//468 406//471 397//470
f 390//475 401//473 400//474
f 399//469 398//577 397//470
f 405//503 403//466 404//472
f 419//521 407//467 403//466
f 407//467 408//477 394//468
f 407//467 409//480 408//477
f 419//521 409//480 407//467
f 406//471 360//479 399//469
f 408//477 411//478 406//471
f 401//473 412//500 404//472
f 397//470 398//577 396//486
f 398//577 392//448 396//486
f 397//470 395//485 394//468
f 396//486 382//464 395//485
f 393//484 400//474 402//465
f 380//491 393//484 395//485
f 393//484 387//493 400//474
f 380//491 387//493 393//484
f 395//485 382//464 380//491
f 374//494 388//488 384//476
f 379//489 388//488 374//494
f 386//487 400//474 387//493
f 385//490 387//493 380//491
f 386//487 374//494 384//476
f 370//492 380//491 381//495
f 377//459 367//389 375//578
f 378//497 376//498 375//527
f 377//459 369//499 372//460
f 374//494 385//490 376//498
f 369//499 375//578 376//579
f 377//459 375//578 369//499
f 372//460 371//496 373//457
f 371//496 369//580 370//492
f 370//492 369//580 376//498
f 391//482 412//500 401//473
f 413//501 414//522 412//500
f 437//502 431//504 434//506
f 434//506 431//504 430//509
f 435//505 430//509 422//510
f 428//507 433//366 435//505
f 431//504 423//511 421//508
f 245//513 429//367 425//512
f 245//513 425//512 424//355
f 427//516 425//512 428//507
f 418//518 427//516 426//515
f 425//512 427//516 414//522
f 416//514 425//512 414//522
f 414//522 427//516 418//518
f 423//511 432//409 410//481
f 451//519 415//523 413//501
f 422//510 421//508 420//517
f 419//521 403//466 420//517
f 420//517 403//466 405//503
f 418//518 405//503 412//500
f 452//383 415//523 451//519
f 417//356 415//523 452//383
f 449//520 391//482 389//483
f 446//524 450//581 445//526
f 445//526 450//581 449//520
f 446//524 451//519 450//581
f 451//519 449//520 450//581
f 448//387 452//383 446//524
f 447//388 448//387 446//524
f 444//525 446//524 445//526
f 379//489 444//525 445//526
f 367//389 440//373 441//391
f 367//389 441//391 375//578
f 443//390 367//389 368//400
