# G1 exterior visual; derived from pinned Unitree/TWIST2 CAD.
v -0.00899677258 0.00394219812 0.000728152751
v -0.00877462421 0.00576495333 0.00121794711
v -0.00803876389 0.00394217763 0.00418535899
v -0.007910165 0.00545144407 0.00442841649
v -0.00502811465 0.00394217623 0.00754034519
v -0.00573682599 0.00544217462 0.00693461066
v -0.00273485039 0.00545143569 0.00864304695
v -0.000773563806 0.00394218275 0.00902997795
v 0.000565099472 0.00544217881 0.00898224302
v 0.00367235392 0.00394217437 0.00828568824
v 0.00392293837 0.00545143941 0.00817264616
v 0.00720975175 0.00394218322 0.00549166696
v 0.00737489015 0.00545143615 0.00527187623
v 0.00871725567 0.00394218415 0.00223821867
v 0.00900242105 0.00545143802 0.00106685876
v 0.009014979 0.00394218136 -0.000932200521
v 0.00840283092 0.00545143429 -0.0034020748
v 0.007450826 0.00394217204 -0.00515984464
v 0.00656073121 0.00544218114 -0.00616092002
v 0.00404339889 0.0039421753 -0.00811109506
v 0.00379652507 0.00545144081 -0.00823213998
v 0.000565123511 0.00394218136 -0.00898224581
v 0.000565131253 0.00544217695 -0.00898223836
v -0.00260490342 0.00394217856 -0.00868062768
v -0.00286772824 0.00545144035 -0.00859986618
v -0.00646463363 0.00394217996 -0.00635195524
v -0.00665603532 0.00545143662 -0.00615458656
v -0.0086451387 0.00394217717 -0.00266278139
v -0.00876923371 0.00546069723 -0.00225751172
v 0.0085273413 -0.00405824231 -0.00304677151
v 0.0089403661 -0.00405916525 0.00143826939
v 0.00901508797 -0.00555245532 0.0005120266
v 0.00861090142 -0.00555580249 -0.00293914694
v 0.00656072469 -0.00405781576 -0.00616091769
v 0.0069191535 -0.00556031987 -0.00580183882
v 0.00413060235 -0.00405917456 -0.00805833843
v 0.005258922 -0.00556031941 -0.00734027708
v 0.00326821487 -0.00556031941 -0.00841752067
v -0.000262536225 -0.00405878527 -0.00905150361
v 0.00107227603 -0.00556031428 -0.00896583218
v -0.00119111105 -0.00556031335 -0.00895081926
v -0.00459065195 -0.00405877922 -0.00780542241
v -0.0033797184 -0.00556031941 -0.00837337598
v -0.00610378943 -0.00558154704 -0.00671285996
v -0.00786340982 -0.00405712985 -0.00455773156
v -0.00838271901 -0.00556371268 -0.00341907865
v -0.00907030888 -0.00405646721 2.37786768e-08
v -0.00903476588 -0.00557585293 9.1974627e-08
v -0.0082356045 -0.00556020532 0.0038413764
v -0.00794821046 -0.00405778037 0.00436949916
v -0.00577086024 -0.00554510951 0.00697564334
v -0.00486001978 -0.00405776221 0.00765812816
v -0.0027934066 -0.00557165546 0.00859717187
v -0.00056953344 -0.00405778456 0.00905218907
v -2.93428002e-07 -0.00555798737 0.00901762396
v 0.0027975773 -0.00554511696 0.00861021876
v 0.00278113456 -0.00405782741 0.00855951104
v 0.00569942407 -0.00405865395 0.00703966431
v 0.00591970561 -0.00555547001 0.00685522938
v 0.00788675249 -0.00405781763 0.00433578854
v 0.00831558462 -0.00553817628 0.00368725648
v 0.00637552002 0.00643645832 -0.0167728961
v 0.00651069684 0.00620174268 -0.016316941
v -0.00499998918 0.00644217897 -0.0245579053
v -0.00499998359 0.00444217492 -0.0245579034
v -0.00499997847 0.00644218083 -0.0225579031
v 0.0029928172 0.00644217804 -0.024473615
v 0.00304885209 -0.00655781897 -0.0244879145
v -0.00499998638 -0.00655781757 -0.0245578997
v -0.00499999197 -0.00455782842 -0.0245579015
v -0.017499987 -0.00455781771 -0.0245579071
v -0.0174999777 0.00444217073 -0.024557909
v -0.00385321188 0.000495146785 0.00460161967
v -0.00325292139 0.000709401909 0.00379775208
v -0.00304873288 0.00116505136 0.00518328836
v -0.002455062 0.00111446576 0.00436836807
v -0.00161049678 0.000635349948 0.00473953644
v -0.00200949702 0.000441313343 0.00565538649
v -0.00146337436 -0.000399659009 0.00478184642
v -0.00219197548 -0.000888646697 0.00559483981
v -0.00201245816 -0.00109809346 0.00457494985
v -0.0033555401 -0.00118031341 0.00498363003
v -0.00291905971 -0.00114969374 0.00407681614
v -0.00392031483 -0.000399474025 0.00454285042
v -0.00342485565 -0.000323929271 0.00364419445
v 0.00522522628 0.00632387446 -0.0147560118
v 0.00615373114 0.0063872044 -0.0153124146
v 0.00236298167 0.00637269299 -0.0153914243
v -0.00142217241 0.00635529822 -0.0155451028
v -0.00538583659 0.0063579469 -0.0145980436
v -0.00875525642 0.00637472933 -0.0129354568
v -0.0123502742 0.00637359126 -0.00974429306
v -0.0169312879 0.006239946 -0.00961622503
v -0.017166242 0.00644886028 -0.0099693248
v -0.0174717177 0.00623806007 -0.0102511253
v -0.01750209 0.00623114128 -0.0156432912
v -0.0174538363 0.00638063578 -0.0226194542
v -0.0174455456 0.00635524327 -0.0190630294
v 0.00638376176 -0.00653888192 -0.016762156
v 0.00650840299 -0.00640312303 -0.016031146
v 0.00513657928 -0.0064384453 -0.0147446832
v 0.00581530062 -0.00651010126 -0.0150426412
v 0.0026518025 -0.00650305068 -0.0153545309
v -0.0123886839 -0.00648933696 -0.00973637681
v -0.00882783532 -0.00648190267 -0.0128808077
v -0.00514916377 -0.00649279077 -0.014694239
v -0.0015274121 -0.00647097174 -0.0155350929
v -0.0171541832 -0.00656778459 -0.00994162261
v -0.0168271288 -0.00634308439 -0.00959740952
v -0.0174484346 -0.00635274407 -0.0101396497
v -0.0174296051 -0.00649786321 -0.0161284301
v -0.0175196584 -0.0063000666 -0.01958175
v -0.0174384508 -0.00651166355 -0.022604065
v 0.00505849207 -0.00605495926 -0.0022814027
v 0.00487012835 -0.00554748718 -0.00120553805
v 0.00381868239 -0.00554509694 -0.00334744365
v 0.00272900914 -0.00605522189 -0.00483638654
v 0.0010456217 -0.00554800779 -0.00496678939
v -0.000664763851 -0.00605606707 -0.00551740406
v -0.00214319932 -0.00555048371 -0.00459682336
v -0.00380536192 -0.0060563921 -0.0040542963
v -0.00446926337 -0.0055525382 -0.0023871765
v -0.00546055194 -0.00605642097 -0.00103380217
v -0.00500248279 -0.00555304205 0.000785525132
v -0.00500791334 -0.00605654856 0.00242454396
v -0.00352582475 -0.00552318292 0.00360364071
v -0.00260217744 -0.00605631759 0.00491908612
v -0.00070551614 -0.00555640459 0.00502949208
v 0.000812837447 -0.00605628174 0.00550606847
v 0.00247709081 -0.00552434521 0.00440063514
v 0.00391311338 -0.00605645915 0.00395885808
v 0.00421598041 -0.00553414319 0.00267685088
v 0.00546401273 -0.00605538115 0.000973941234
v 0.00497984188 -0.00554462988 0.000797459739
v -0.00500790589 0.00594090438 -0.00242460007
v -0.00354053709 0.00543700578 -0.00362837431
v -0.00260232273 0.00594089646 -0.00491924211
v -0.000657608151 0.00543641858 -0.00503099523
v 0.000812832557 0.00594063057 -0.00550607638
v 0.00249157706 0.00543637713 -0.00442312006
v 0.00391316134 0.00594081497 -0.00395879848
v 0.00421468494 0.00543914316 -0.00271713804
v 0.00546362624 0.00593933603 -0.000973910268
v 0.00497983396 0.00542898523 -0.000797483546
v 0.00505849672 0.005939316 0.00228140503
v 0.00465773325 0.00544912694 0.00206205156
v 0.00272898516 0.00593956979 0.00483639445
v 0.00313527067 0.00542980805 0.00390684325
v 0.00186411291 0.00543510122 0.00465817517
v -0.000664740859 0.00594013091 0.00551712606
v -0.000681689184 0.0054548746 0.00504377624
v -0.00380542199 0.00594075397 0.00405425346
v -0.00350463949 0.00539899478 0.00361056044
v -0.00546053797 0.00594078144 0.00103380391
v -0.00474483799 0.00544133177 0.0015866278
v -0.00500248326 0.00543740345 -0.000785490673
v -0.00841251016 -0.00605911575 -0.00203436962
v -0.00619622692 -0.00605782447 -0.00581865385
v -0.00387202762 -0.00605793949 -0.00762878545
v 0.000282047986 -0.0060579679 -0.00855047908
v 0.00436642207 -0.0060579502 -0.0073569715
v 0.00737061212 -0.00605796557 -0.00434332388
v 0.00856232736 -0.00606020959 -0.000239062545
v 0.00758948689 -0.00605987711 0.00397160789
v 0.00458949106 -0.00605883915 0.00723177381
v 0.000537817774 -0.0060586757 0.00854844134
v -0.0036469507 -0.00605866872 0.00775015121
v -0.0075992709 -0.00606183428 0.00417774823
v 0.00802674517 0.00594317913 0.00296979793
v 0.00560304429 0.00594339566 0.00646922039
v 0.00262663374 0.00594217703 0.00808398798
v -0.000344051077 0.00594318565 0.00855160505
v -0.00442115357 0.00594338775 0.0073279175
v -0.0074046948 0.00594318379 0.00429171929
v -0.00833548047 0.00594339287 -0.0019402873
v -0.00687663164 0.00594218355 -0.00499618473
v -0.00474819727 0.00594318006 -0.00712061208
v -0.000730506785 0.00594338775 -0.00852709264
v 0.00346792676 0.00594318938 -0.00782444328
v 0.0068082842 0.00594338309 -0.00518578477
v 0.00846461114 0.00594318612 -0.00126445864
v 0.00378573476 -0.000918464095 0.00326176756
v 0.00447725505 -0.000861854001 0.00399890356
v 0.00403473247 5.33709826e-05 0.00295503414
v 0.00468595419 0.000142820267 0.00374931865
v 0.00349380844 0.0011118059 0.00360585796
v 0.00405849051 0.00113545405 0.004422192
v 0.00245723524 0.000706938677 0.00435981248
v 0.00306084566 0.000634556171 0.0051658717
v 0.00225295057 -0.000323700282 0.00446469383
v 0.00292802393 -0.00039944626 0.00523765339
v 0.00293680956 -0.00122311315 0.00406982051
v 0.00364686758 -0.00124970789 0.00477159861
v -0.0124136396 0.00394216785 -0.00964245852
v -0.012366672 -0.00405782089 -0.00965072867
v -0.0174806565 -0.00405740691 -0.0102921762
v -0.0169655513 -0.00405788608 -0.0096385628
v -0.0173631478 0.00394269777 -0.00983838551
v -0.00499998778 -0.00655781571 -0.0225579068
v -0.0244999789 -0.000636107114 -0.0115610426
v -0.0184999853 -0.000952069997 -0.0116249323
v -0.0244999975 -0.00333367474 -0.0124610672
v -0.0184999965 -0.00360556436 -0.0126464376
v -0.0244999882 -0.00525397994 -0.0145579176
v -0.0184999891 -0.00525397854 -0.0145579167
v -0.0244999882 -0.00608515926 -0.0169412717
v -0.0184999947 -0.00610975502 -0.0172693729
v -0.0244999882 -0.00538524194 -0.0204436891
v -0.0184999947 -0.00564306742 -0.0197499618
v -0.0184999835 -0.00405670516 -0.0221096184
v -0.0244999882 -0.00343774422 -0.0225153491
v -0.0244999882 -0.00112319679 -0.0235223155
v -0.0184999872 -0.000797793036 -0.023571359
v -0.024499977 0.00242178584 -0.0230860878
v -0.0184999853 0.00271830009 -0.0229432862
v -0.0244999956 0.00510505354 -0.0207286943
v -0.0184999928 0.00526959961 -0.0204436816
v -0.0244999882 0.00592540437 -0.018006308
v -0.0184999984 0.00592540577 -0.018006295
v -0.02449999 0.00564018451 -0.0154983671
v -0.0184999891 0.00551996194 -0.0151920402
v -0.0244999845 0.0040232162 -0.0131596075
v -0.0184999853 0.0040232176 -0.0131596066
v -0.0244999919 0.00204738905 -0.0118935257
v -0.0184997618 0.00164537679 -0.0117513603
v -0.0184984989 -0.00634208042 -0.0156297684
v -0.0184999909 -0.00649165735 -0.0184829608
v -0.0184999928 -0.0055572195 -0.0210921653
v -0.0174999777 -0.0042229658 -0.0226237327
v -0.0184999816 -0.00357198785 -0.0230260622
v -0.0184999779 -0.00115869893 -0.0240231287
v -0.0174999833 -0.000822968897 -0.0240713973
v -0.0184999872 0.00177344528 -0.0237946231
v -0.0174999852 0.00177343318 -0.0237946287
v -0.0184999909 0.00410733838 -0.0226237103
v -0.0174999926 0.00436365977 -0.022401616
v -0.0184991937 0.00628970284 -0.0193331502
v -0.0184999909 0.00637601828 -0.0166328624
v -0.0174999889 -0.00447931653 -0.0127142258
v -0.0184999928 -0.00422300119 -0.0124921165
v -0.0174999982 -0.00115871604 -0.011092701
v -0.0184999891 -0.000823010691 -0.0110444408
v -0.0174999889 0.00251138955 -0.0115238409
v -0.0184999947 0.00281991786 -0.0116647407
v -0.0174999908 0.00485455617 -0.013301312
v -0.0184999891 0.00544158416 -0.0140236886
v 0.00989881344 0.0064421813 -0.0200869888
v 0.00667781755 0.00644217525 -0.0231786463
v -0.017435398 -0.0040578167 -0.00115365989
v -0.0174464118 0.00394217996 -0.0011055154
v 0.0101143969 -0.00655781524 -0.0197449196
v 0.0113427881 -0.00632458553 -0.0163855217
v 0.00702048093 -0.00655782176 -0.0229633301
v 0.00650001504 -0.00405782554 -0.0162153151
v 0.00627035834 -0.0040578139 -0.0153667377
v 0.00526311994 -0.00405785721 -0.0147160506
v 0.00128694042 -0.0040577827 -0.0154943028
v -0.00385034294 -0.00405782834 -0.0150640588
v -0.00857314654 -0.00405780924 -0.0129714767
v -0.00895924214 0.00394216226 -0.0127082914
v -0.00430128351 0.00394214271 -0.0149423638
v 0.000831698824 0.00394214271 -0.0155270752
v 0.00515045132 0.00394220697 -0.0147004519
v 0.00650000526 0.00394217577 -0.0162153151
v 0.00619918248 0.00394217344 -0.015269246
v 0.0114078894 -0.00405782321 0.00452154595
v 0.0105096856 -0.00405782275 0.00722882245
v 0.00846632384 -0.00405782694 0.0101423701
v 0.0114248777 -0.00405781763 -0.0161606465
v -0.0038982064 -0.00405781949 0.0118806502
v -0.0142957922 -0.00405782182 0.00490196981
v -0.000410909764 -0.00405782694 0.0129067227
v 0.00462968275 -0.00405781716 0.0124467546
v -0.0164368153 -0.00405782741 0.00212094653
v 0.0114250937 0.0039421753 -0.0161966328
v 0.011238182 0.00394217949 0.00555379177
v 1.7896089e-05 0.0039421767 0.0129355825
v 0.00501163816 0.00394217437 0.0123131033
v 0.00875238422 0.0039421767 0.0098563116
v -0.00365990121 0.00394217856 0.0119932713
v -0.0140997199 0.0039421781 0.00507918047
v -0.0162704065 0.00394217623 0.00243188813
v -0.0244999863 0.00219255639 -0.0187611934
v -0.0244999845 0.00102688454 -0.0198103487
v -0.0244999919 -0.000730175991 -0.0200196281
v -0.0244999882 -0.00114252663 -0.0153054893
v -0.0244999863 -0.00230819825 -0.0163546447
v -0.0244999919 -0.00240166578 -0.0185671132
v -0.0244999807 0.00228602393 -0.0165487267
v -0.0244999938 0.000614526507 -0.0150962081
v -0.0189978369 -5.78284016e-05 -0.017557919
v -0.0204913467 0.000420751137 -0.0150520438
v -0.0204913467 0.00249170652 -0.0174668673
v -0.0204999968 0.00189675426 -0.0159991924
v -0.020491343 0.000598269631 -0.0200232696
v -0.0204999931 0.00189675135 -0.0191166475
v -0.020491343 -0.00157625193 -0.0196079984
v -0.0204913467 -0.00260735583 -0.0176489782
v -0.0204913449 -0.00171862962 -0.0156213902
v 0.0113260774 0.00623163534 -0.0164687261
vn -0.9828327 0.1178953 0.1419169
vn -0.9937145 0.06579777 0.09056494
vn -0.8900766 0.003595513 0.4557968
vn -0.8698505 -0.01085802 0.4931958
vn -0.5603939 0.001689803 0.8282244
vn -0.6257404 0.3902996 0.675363
vn -0.2820944 0.394427 0.874557
vn -0.07838334 -0.006508132 0.996902
vn 0.1128849 0.3791704 0.9184154
vn 0.4058517 -0.0223015 0.9136668
vn 0.4157588 0.4020153 0.8157992
vn 0.7768533 -0.003415313 0.6296723
vn 0.7387548 0.4237872 0.5240665
vn 0.9553722 0.02156361 0.2946168
vn 0.9011201 0.4196579 0.1089482
vn 0.9906652 0.0573841 -0.1236503
vn 0.8558149 0.3943516 -0.3347652
vn 0.8180915 -0.006513861 -0.5750512
vn 0.635706 0.3791508 -0.6724006
vn 0.4588875 -0.01945549 -0.8882813
vn 0.4070766 -0.00098621 -0.9133936
vn 0.06890634 -0.00523866 -0.9976094
vn 0.07784276 0.4039884 -0.9114461
vn -0.2955297 -0.005620128 -0.9553171
vn -0.3089415 0.4214383 -0.8526106
vn -0.7000069 -0.005528304 -0.7141148
vn -0.679765 0.3894981 -0.6214586
vn -0.9433377 -0.001154789 -0.3318323
vn -0.8958049 0.3697541 -0.246608
vn 0.9391007 0.03523301 -0.341831
vn 0.9899727 0.01507218 0.1404523
vn 0.9276325 -0.3699979 0.05098406
vn 0.8654629 -0.4125907 -0.2841527
vn 0.7228428 -0.0005940716 -0.6910124
vn 0.7811754 0.06010895 -0.6214111
vn 0.4478118 0.02712733 -0.8937163
vn 0.5936066 -0.3586906 -0.7203974
vn 0.2736153 -0.4181644 -0.8661831
vn -0.03036931 0.04623668 -0.9984688
vn 0.1731271 -0.3586976 -0.9172584
vn -0.1775035 -0.418163 -0.8908604
vn -0.4993997 0.02969044 -0.8658628
vn -0.2986666 -0.3584161 -0.8844976
vn -0.633938 -0.3675975 -0.6804371
vn -0.859203 -0.0108998 -0.5115188
vn -0.8537877 -0.3808618 -0.3549518
vn -0.9999101 0.0126219 0.004545446
vn -0.8822888 -0.4697265 0.0303892
vn -0.8706517 -0.3461832 0.3494607
vn -0.8673541 0.02257303 0.4971794
vn -0.6042481 -0.4215662 0.6761407
vn -0.5292025 0.01439974 0.8483734
vn -0.2677415 -0.3786809 0.8859544
vn -0.0666379 0.01091692 0.9977175
vn -0.002722052 -0.3747373 0.927127
vn 0.2849639 -0.4080531 0.8673455
vn 0.3077736 0.03581884 0.9507852
vn 0.6243333 0.006161845 0.7811338
vn 0.6172583 -0.4130476 0.6696147
vn 0.8529141 0.03104446 0.5211275
vn 0.8541591 -0.3722654 0.3630849
vn -0.9999999 -2.728478e-06 5.355108e-06
vn 0.00671048 0.0002871706 -0.9999774
vn 0.01054524 -9.022602e-07 -0.9999444
vn 0.1728292 0.001737733 -0.9849502
vn 0.1846481 -0.002029778 -0.9828026
vn 0.008694162 -9.063456e-07 -0.9999622
vn 0.00579642 -4.071141e-07 -0.9999832
vn 0 -2.069613e-07 -1
vn 2.130187e-07 -2.069612e-07 -1
vn 0.5443083 -0.8174098 0.1885993
vn 0.4315496 -0.8738894 0.2237906
vn 0.4136739 -0.8811988 0.2288287
vn 0.2811882 -0.9231525 0.2621502
vn -0.4094892 -0.8623291 -0.2978374
vn -0.3990799 -0.8860973 -0.2357264
vn -0.4113845 -0.8570018 -0.3103398
vn -0.4180866 -0.8344842 -0.3589425
vn -0.8487386 -0.00187778 -0.5288092
vn -0.895578 -0.1445038 -0.4207833
vn -0.8483202 0.2442845 -0.4697637
vn -0.5888657 0.6866042 -0.426394
vn -0.3753257 0.9064403 -0.19364
vn -0.09282673 0.9900362 -0.1058849
vn -0.05957756 0.998211 0.005029084
vn 0.6601404 0.6696051 0.3403582
vn 0.6613663 0.6477317 0.378204
vn 0.6613979 0.6464504 0.3803349
vn 0.6612953 0.6235303 0.4170114
vn 0.8750284 -0.09679073 0.4742963
vn 0.8420856 -0.1612269 0.5146822
vn 0.8442752 -0.157302 0.5123041
vn 0.8090675 -0.2158528 0.5466418
vn 0.7250632 0.675738 0.1328968
vn -0.01063486 0.8574792 0.5144086
vn 0.005614391 0.999898 0.01312967
vn 0.006227348 0.9808245 0.1947938
vn -0.9289234 0.05039034 0.3668269
vn -0.7562256 0.1192714 0.6433483
vn -0.7411256 0.2315743 0.6301636
vn -0.7020122 0.7120227 0.0142317
vn -0.6994442 0.7145503 0.01398269
vn -0.5756178 0.8177145 0.002694059
vn -0.569311 0.8221195 0.002151693
vn -0.1815997 -0.9728794 0.1432736
vn 0.006782732 -0.9998522 0.0158029
vn -0.01012024 -0.8329026 0.5533272
vn -0.6427653 -0.1980526 0.7400189
vn -0.655584 -0.0648483 0.7523325
vn -0.8813957 -0.04904244 0.469826
vn -0.5976154 -0.8015909 0.01754496
vn -0.006941034 -0.9999756 -0.0007806063
vn -0.9233012 -0.3840712 0.002079645
vn -0.9466471 -0.3222592 -0.002874982
vn -0.9991671 -0.03818092 -0.01439764
vn -0.9405885 -0.2854556 0.1838702
vn -0.6386151 -0.5049353 0.5806988
vn -0.6453816 -0.7089984 0.28426
vn -0.3288116 -0.7490508 0.5751572
vn -0.1702159 -0.5257124 0.8334584
vn 0.0777861 -0.7540789 0.6521613
vn 0.356859 -0.535586 0.7653753
vn 0.44701 -0.7590399 0.4733292
vn 0.7355607 -0.54777 0.3986208
vn 0.6383914 -0.761125 0.1146523
vn 0.8291529 -0.5467573 -0.1164552
vn 0.5858005 -0.7572496 -0.2888091
vn 0.5879248 -0.5644215 -0.579459
vn 0.3007909 -0.7534132 -0.5847164
vn 0.1320951 -0.5430339 -0.8292558
vn -0.1049096 -0.7583252 -0.6433792
vn -0.3819575 -0.5545036 -0.7393472
vn -0.4917553 -0.7213041 -0.4877469
vn -0.6917616 -0.606421 -0.3920709
vn -0.7179665 -0.6861662 -0.1170469
vn -0.9142236 -0.3852591 -0.1255809
vn 0.8363807 0.5344651 0.1217143
vn 0.5947652 0.5496213 0.5866606
vn 0.5813701 0.7610875 0.287671
vn 0.2965306 0.7594721 0.5790264
vn 0.1291967 0.5475606 0.8267319
vn -0.1068505 0.7572362 0.6443418
vn -0.3865877 0.5366364 0.7500476
vn -0.4899402 0.723295 0.4866241
vn -0.6947702 0.6018413 0.3938038
vn -0.7173315 0.6867612 0.1174498
vn -0.7121286 0.6983366 0.07210272
vn -0.6624512 0.6821136 -0.3096439
vn -0.8504399 0.377845 -0.3660398
vn -0.3621038 0.6860874 -0.631003
vn -0.655066 0.2952422 -0.6955003
vn -0.203109 0.6325189 -0.74744
vn 0.08889693 0.6836562 -0.7243698
vn 0.126785 0.6932014 -0.7095051
vn 0.4844308 0.6964877 -0.5293691
vn 0.6442742 0.3832565 -0.6618348
vn 0.6777254 0.7236049 -0.1307061
vn 0.8678808 0.3489625 -0.3535648
vn -0.5246873 -0.8441373 -0.1101609
vn -0.3222921 -0.9120573 -0.2535338
vn -0.2056249 -0.8956263 -0.394426
vn 0.01191568 -0.9026157 -0.4302824
vn 0.2176804 -0.9026465 -0.371274
vn 0.3942896 -0.8878269 -0.237274
vn 0.4199749 -0.8112571 -0.4067961
vn 0.4600208 -0.8875768 -0.02425446
vn 0.3811388 -0.896098 0.2274673
vn 0.2459925 -0.8765761 0.4136448
vn 0.0366455 -0.8942217 0.4461219
vn -0.2149699 -0.8827923 0.417691
vn -0.425987 -0.863719 0.2693037
vn 0.5055714 0.8408884 0.1931432
vn 0.3509215 0.8409225 0.4119507
vn 0.1002833 0.8679354 0.4864479
vn -0.02656665 0.8815568 0.4713298
vn -0.2487289 0.8736628 0.4181472
vn -0.349745 0.9119323 0.214611
vn -0.6023176 0.716795 0.3513096
vn -0.6415946 0.7272749 0.2437778
vn -0.67883 0.7162694 -0.1617037
vn -0.3884691 0.8912683 -0.2339502
vn -0.2936977 0.8406975 -0.4549386
vn -0.0445287 0.8736464 -0.4845195
vn 0.1691704 0.9079068 -0.3835187
vn 0.3095403 0.7249639 -0.6153147
vn 0.3793841 0.8816137 -0.280758
vn 0.5361396 0.8408565 -0.07426059
vn -0.6909124 0.3725639 0.619545
vn -0.7228609 0.3379302 0.6027233
vn -0.7240579 0.3365763 0.6020437
vn -0.7536696 0.3016271 0.5839548
vn -0.5699498 -0.6216618 0.5373023
vn -0.5825483 -0.6431261 0.4970175
vn -0.5882757 -0.653172 0.4767579
vn -0.5991299 -0.6728669 0.4339277
vn 0.2610296 -0.9531368 -0.1529505
vn 0.2604879 -0.9436862 -0.2039664
vn 0.2600102 -0.9385539 -0.2269612
vn 0.2584676 -0.9255546 -0.2766643
vn 0.7725912 -0.2139674 -0.5977632
vn 0.7569681 -0.178161 -0.6286954
vn 0.7563118 -0.1767362 -0.6298862
vn 0.7388299 -0.1406572 -0.6590493
vn 0.5987775 0.6566179 -0.4586047
vn 0.5617189 0.678072 -0.4740151
vn 0.5517645 0.6834891 -0.4779107
vn 0.5128274 0.7033665 -0.4922232
vn -0.1590537 0.9672958 0.1975873
vn -0.2092571 0.9589961 0.191149
vn -0.2222852 0.9564116 0.1893837
vn -0.2717076 0.9449513 0.1823238
vn 0.0003573443 0.9999997 0.0006831093
vn 0.000580743 0.9999998 0.0002194703
vn -0.0006618382 0.9999996 0.0006590965
vn -8.946335e-05 0.9999996 0.0008169182
vn -0.01556052 0.9997534 0.01584946
vn -0.02527725 0.9996774 0.002511493
vn -0.05238416 0.9985697 0.0107035
vn 0.0006005355 0.9999997 -0.0005912224
vn -0.001116899 0.9999992 -0.0005355132
vn -0.0012277 0.9999991 0.0005100283
vn 0.0002257934 0.9999996 -0.0009469409
vn -0.0005161449 0.9999995 -0.0008677682
vn -0.001407935 -0.999999 -0.0003343698
vn -0.0007372395 -0.9999995 -0.0006639367
vn -0.001130775 -0.9999993 0.0002566075
vn 0.0001752172 -0.9999998 0.0006018654
vn -0.0003597021 -0.9999997 0.000745208
vn 0.000460675 -0.9999999 0.0003082588
vn 0.001581543 -0.9999987 -0.0004832497
vn 0.001056155 -0.9999994 -7.983301e-05
vn -0.0001267608 -0.9999997 -0.0007575095
vn 0.00043809 -0.9999997 -0.0006682278
vn -0.9870017 0.001625116 0.1607018
vn -0.7599242 0.01802482 0.6497617
vn -0.9965525 0.05737386 0.05992829
vn -1 -3.074135e-06 -6.984938e-07
vn 0.02672267 0.04113586 0.9987962
vn -0.02094466 -0.05257782 0.9983972
vn 0.00720547 0.002749891 0.9999703
vn -0.03940726 -0.08884119 0.995266
vn 4.862852e-09 0.7071053 -0.7071083
vn 4.131145e-07 0.7071056 -0.707108
vn 3.476283e-07 0.7071056 -0.7071081
vn -6.172577e-08 0.7071052 -0.7071083
vn 2.068142e-07 -0.707108 -0.7071056
vn -1.522e-07 -0.7071065 -0.7071071
vn 1.487277e-07 -0.7071078 -0.7071058
vn -2.106568e-07 -0.7071062 -0.7071073
vn 0.01032732 -0.1592468 0.9871848
vn -0.007462664 -0.1015849 0.9947988
vn -0.006921805 -0.5425252 0.840011
vn 0.004387753 -0.5790067 0.815311
vn -0.00477989 -0.8603978 0.5096008
vn 0.004778722 -0.8715279 0.4903227
vn -0.005504913 -0.9972444 0.07398172
vn -0.003759678 -0.9987715 0.04940998
vn -0.01514009 -0.8904775 -0.4547751
vn 0.00213914 -0.9311714 -0.3645757
vn 0.01514053 -0.6415214 -0.7669558
vn -0.002138384 -0.5626392 -0.8266999
vn 0.002682272 -0.1544849 -0.9879915
vn 0.00999819 -0.1213562 -0.9925587
vn -0.009996812 0.408529 -0.9126905
vn 0.009999029 0.4588609 -0.8884519
vn -0.008842621 0.8411133 -0.5407867
vn 0.005505995 0.8656408 -0.5006352
vn -0.004780303 0.9962988 -0.08582489
vn 0.004779903 0.9979626 -0.06362193
vn -0.004388059 0.9376786 0.3474759
vn 0.004387327 0.92371 0.3830673
vn -0.004775576 0.6918694 0.7220069
vn 0.005348691 0.6739395 0.7387671
vn -0.005495368 0.3444141 0.9388018
vn 0.009801139 0.2869952 0.9578819
vn 0.01887967 -0.9937222 -0.1102712
vn -0.004769755 -0.9779935 0.208581
vn 0.01093413 -0.932807 0.3602105
vn -0.04273232 -0.9485423 -0.3137539
vn 0.1048698 -0.8295993 -0.5484226
vn -0.0241413 -0.6364233 -0.7709621
vn 0.03822554 -0.4821994 -0.8752272
vn 0.02677698 -0.2090916 -0.9775293
vn -0.001238107 -0.1093346 -0.9940042
vn -0.008786502 0.2785572 -0.9603794
vn 0.008784637 0.2848864 -0.9585211
vn -0.0003204723 0.6329051 -0.7742293
vn -0.01029867 0.7137492 -0.7003257
vn 0.02250653 0.9527227 -0.3030065
vn -0.008643678 0.9789712 -0.2038151
vn 0.08214014 0.994641 0.06278744
vn -0.06865739 0.9577405 0.2793191
vn 0.0006146741 -0.7003848 0.7137652
vn 0.001084478 -0.6107773 0.7918017
vn -0.001495149 -0.1995957 0.9798772
vn 0.001483404 -0.08455373 0.9964178
vn -0.006841131 0.3472782 0.9377371
vn -0.016121 0.4511396 0.8923078
vn -0.04371725 0.7191796 0.6934476
vn 0.009942946 0.8355219 0.5493672
vn -0.9999999 -8.210438e-05 -0.0002992564
vn -1 4.562949e-05 -5.214285e-05
vn -1 3.618557e-05 -1.369688e-05
vn -0.9999998 -0.0001342739 -0.0006475821
vn -1 -0.0001708906 -0.0002088359
vn -1 -2.99217e-05 -2.876927e-05
vn -1 -4.721852e-06 -1.316131e-06
vn -1 -2.841501e-07 2.780263e-07
vn -1 0.0001077665 -3.051075e-05
vn -0.9999995 0.0008976034 -0.0002807278
vn -0.9999993 0.001148292 -0.0003466858
vn -0.9999984 0.001622133 -0.0008232573
vn -1 6.193834e-05 -3.434483e-05
vn -1 -6.825137e-06 6.80577e-06
vn -1 -9.360626e-07 1.402155e-06
vn -1 -2.550099e-06 -1.60972e-05
vn -1 -3.237382e-06 -1.503847e-05
vn -1 1.169262e-05 4.455919e-07
vn -1 -1.869988e-06 -1.159981e-06
vn -1 4.487852e-06 -8.910332e-07
vn -1 -2.911561e-05 -1.943766e-06
vn -0.9999983 -0.001737598 0.000543294
vn -1 -0.0001880403 5.657666e-05
vn -0.9999977 -0.002021952 0.0007111416
vn -0.999944 -0.008092757 0.006832991
vn -1 -0.0001111309 -4.215319e-05
vn 1.076512e-05 0.9999998 0.0006730523
vn 1.263419e-07 1 -1.349892e-06
vn -0.001122934 0.9999836 0.005610356
vn -0.006152186 0.9996747 0.0247509
vn -0.001911577 0.9999089 0.01336327
vn 0.003133058 0.9932549 0.1159096
vn 0.03641511 0.9962728 0.07819428
vn 0.01654715 0.9996764 0.0193179
vn -0.0004691434 0.9999995 0.0008703147
vn -0.002890617 0.9999906 0.003223106
vn -0.0003651365 0.9999918 0.004046964
vn -0.006049972 0.9999634 0.006044178
vn 0.007689522 0.9999105 0.01095413
vn -0.05271132 0.99828 0.02566182
vn -0.008090581 0.9986591 0.05113098
vn -0.9998407 -0.01721272 -0.004713834
vn -0.9999388 -0.01089786 0.001891394
vn -1 1.148358e-06 -2.270455e-08
vn -0.9999678 0.008013206 0.0002849398
vn -1 -2.428345e-07 -8.488052e-06
vn -0.9998702 0.01607488 0.001092633
vn -0.999732 0.0230783 0.001862406
vn -0.999729 0.02314623 0.002495815
vn -0.9887058 -0.002618804 0.1498465
vn -0.9999794 -0.002376803 0.005954094
vn -0.9871922 0.006686496 0.1593955
vn -0.9992603 0.03217454 0.02106286
vn -0.9997886 -0.0203183 0.003157484
vn -0.9995227 -0.03080019 -0.002396316
vn -0.9999519 0.008039472 0.005622082
vn -0.9998259 0.003857327 0.0182541
vn 0.3719754 -0.03603967 0.9275427
vn 0.3623873 -0.02883084 0.9315816
vn 0.01100998 0.001841052 0.9999377
vn 0.002645068 0.0181658 0.9998314
vn 0.01626177 -0.9995117 0.02668343
vn 0.03780496 -0.9968702 0.06943058
vn 0.03266172 -0.997561 0.06168808
vn -0.001268786 -0.9999818 0.005904307
vn -0.002549999 -0.999765 0.02152448
vn -0.001963261 -0.9999092 0.01333554
vn 0.001694883 -0.9999742 0.006989112
vn -0.001048496 -0.9999887 0.004651292
vn 1.017436e-05 -0.9999975 0.002232032
vn -0.001687396 -0.9999945 0.002880895
vn -1.816621e-07 -1 9.039793e-07
vn -0.01873072 -0.9990962 0.03815861
vn 0.0002176078 -0.9999971 0.002377971
vn 0.1987868 -0.9690945 0.146081
vn -0.06363623 -0.9979637 -0.004333962
vn 0.8595675 -0.05663253 0.5078744
vn 0.9649974 0.02395934 0.2611631
vn 0.805263 0.002200092 0.5929136
vn 0.6233034 -0.0462033 0.7806139
vn 0.1855366 0.0005346082 0.9826372
vn 0.09784769 -0.03132651 0.9947082
vn -0.0724916 -0.02429985 0.997073
vn -0.1713394 -0.03936551 0.9844253
vn 0.09128743 -0.04445722 0.9948317
vn 0.2525281 -0.04426266 0.9665766
vn 0.3524905 -0.03025337 0.9353263
vn 0.5410896 -0.03792211 0.8401095
vn 0.5627813 -0.02685 0.8261697
vn 0.6637424 0.01406952 0.7478288
vn 0.663725 0.01402513 0.7478452
vn 0.5621592 0.03001608 0.8264842
vn 0.545827 0.03600512 0.837124
vn 0.2829942 0.03282256 0.9585598
vn 0.3688532 0.03319945 0.9288945
vn 0.09926546 0.04300365 0.9941313
vn -0.04790372 0.03752824 0.9981468
vn -0.147054 0.0259372 0.9887883
vn -0.2036224 0.0445203 0.9780367
vn -0.2161475 0.0295524 0.9759134
vn 0.9502605 0.01979784 0.3108264
vn 0.9428331 0.01052015 0.3330992
vn 0.9456616 0.01396642 0.3248524
vn 0.9527299 0.02305937 0.3029422
vn 0.4866149 0.01074993 0.8735505
vn 0.5126247 0.02468268 0.8582579
vn 0.502591 0.01927508 0.8643095
vn 0.4767522 0.005537678 0.8790203
vn 6.336031e-05 -1 0.0001002442
vn 0.0001218008 -1 0.0001361987
vn 0.0001083467 -1 -5.028947e-06
vn 5.470204e-05 -1 5.664167e-05
vn 0.0001348799 -1 0.0001462629
vn 0.0001030798 -1 1.284354e-05
vn -0.0008788496 -0.9999996 -4.044159e-05
vn -0.0005023486 -0.9999999 -5.215914e-06
vn 5.886345e-05 -1 -0.0001036129
vn -6.876978e-05 -1 -2.206143e-05
vn -0.00045817 -0.9999999 -0.0001216625
vn -2.291642e-05 -1 -2.806516e-05
vn 0.000309874 -0.9999999 0.0001203201
vn 2.258214e-05 -1 -3.510716e-05
vn -9.447913e-05 -1 1.916342e-05
vn -4.644743e-05 -1 9.423603e-05
vn -2.60764e-05 -1 0.0001896709
vn 3.61114e-06 -1 -1.237578e-05
vn 7.632326e-05 -1 -0.0001322441
vn -1.961366e-06 -1 -0.0001199161
vn -0.0001070623 -1 4.910789e-05
vn -2.353073e-06 -1 -6.941013e-06
vn -6.624879e-06 -1 -1.15152e-05
vn 0.00035217 -0.9999999 -0.000127363
vn -5.650855e-06 -1 -0.0001723797
vn -3.707338e-05 -1 -0.0001536459
vn 9.67653e-05 -1 -2.357848e-05
vn -9.948009e-05 -1 -7.72839e-06
vn -3.522508e-05 -1 -0.0001445272
vn -8.164075e-05 -1 -0.0001247427
vn 1.898517e-05 -1 -1.792717e-05
vn -2.089192e-05 -1 8.128064e-05
vn 0.0001614619 -1 -8.048629e-05
vn -3.366506e-07 1 8.60631e-08
vn 8.511241e-08 1 2.485707e-06
vn 9.309077e-06 1 -1.754638e-06
vn 1.186067e-06 1 6.274563e-07
vn 5.817955e-06 1 -1.746932e-06
vn -2.248186e-05 1 7.886821e-06
vn -3.823035e-05 1 1.293015e-05
vn 5.851631e-05 1 -3.342914e-05
vn -1.315657e-06 1 -1.605633e-06
vn -5.010274e-08 1 -3.719563e-06
vn -5.999164e-07 1 -4.808331e-06
vn 3.155249e-07 1 -5.737335e-06
vn -3.271381e-06 1 1.402962e-06
vn -5.179404e-06 1 -3.029438e-06
vn 9.150726e-07 1 -5.82927e-06
vn 2.127226e-06 1 -9.53726e-08
vn 2.415951e-07 1 1.181782e-06
vn 1.341919e-07 1 7.370347e-07
vn -2.031836e-08 1 1.935344e-07
vn -2.350496e-07 1 1.060725e-06
vn 8.223445e-07 1 9.119125e-07
vn 4.345302e-07 1 8.192201e-07
vn -4.405057e-07 1 3.566235e-07
vn -1.472597e-07 1 -4.104085e-07
vn -1.213128e-06 1 1.875123e-06
vn 4.399323e-07 1 2.42494e-06
vn -7.174402e-07 1 -3.463215e-07
vn 1.365946e-05 1 5.47233e-06
vn 5.237858e-05 1 8.890374e-06
vn 4.284999e-06 1 2.910171e-05
vn -2.602736e-06 1 1.703705e-06
vn -0.7536059 0.01303593 -0.6571972
vn -0.8112639 -0.001249468 -0.5846788
vn -0.8330756 0.01806232 -0.5528642
vn -0.6999912 -0.0149422 -0.7139952
vn -0.3348709 0.01238472 -0.9421827
vn -0.4982747 -0.007796327 -0.8669842
vn -0.4631912 0.01091242 -0.8861912
vn -0.620353 -0.01650682 -0.7841489
vn -0.6009225 0.005291402 -0.7992898
vn 0.319652 0.001861251 -0.9475332
vn 0.1258576 0.01680425 -0.991906
vn 0.4081623 0.02661666 -0.9125213
vn 0.4446232 -0.0009868857 -0.8957171
vn 0.570127 0.01600851 -0.8214005
vn 0.7064382 0.02128316 -0.7074545
vn 0.3277035 -0.003513965 -0.9447741
vn 0.1396651 -0.0125139 -0.9901197
vn 0.4850305 -0.01601276 -0.8743506
vn 0.6302878 0.002842008 -0.7763563
vn 0.9870108 0.01677095 -0.1597753
vn 0.9835919 -0.01607576 0.17969
vn 0.8827648 0.02029511 0.4693766
vn 0.6991169 -0.0201363 0.7147239
vn 0.4238332 0.02026015 0.9055136
vn 0.1306702 -0.02020472 0.99122
vn -0.204846 0.02023457 0.978585
vn -0.4690404 -0.01619649 0.8830282
vn -0.7387171 0.007501537 0.6739739
vn -0.838469 -0.001042204 0.5449481
vn -0.989885 -0.002356317 0.1418518
vn -0.5354901 0.01016106 -0.8444804
vn -0.5791103 -0.009533047 -0.8151934
vn -0.6282757 0.003278926 -0.777984
vn -0.6540867 -0.007994168 -0.7563773
vn -0.6999249 0.004610978 -0.7142016
vn -0.7407666 -0.01297265 -0.6716372
vn 0.5999381 -0.006732037 -0.8000181
vn 0.5804408 0.009951703 -0.8142416
vn 0.5028282 -0.0003200374 -0.8643863
vn 0.5252703 0.003725591 -0.8509273
vn 0.4453764 0.006383336 -0.8953207
vn 0.4054478 -0.01401946 -0.9140107
vn -0.4070835 0.005334827 0.9133754
vn -0.669369 0.001743283 0.7429281
vn -0.4257684 -0.001850339 0.9048303
vn -0.6833095 -0.004482668 0.730115
vn -1 -1.741121e-06 4.382125e-07
vn -1 1.396771e-07 -1.723814e-06
vn -1 1.188301e-06 -1.301589e-06
vn -1 5.423923e-07 -8.935819e-07
vn -1 -7.777979e-07 2.160665e-07
vn -1 -3.77088e-07 -5.188112e-07
vn -1 3.254064e-06 -8.609091e-07
vn -1 1.40929e-06 -1.230818e-06
vn -1 -1.008498e-06 -8.607266e-07
vn -1 -1.256197e-06 3.447837e-07
vn -1 -9.719448e-07 -4.967324e-07
vn -1 1.990839e-07 -2.737877e-08
vn -1 -1.541408e-06 1.35499e-06
vn -1 -2.88277e-06 2.84285e-07
vn -1 2.83578e-07 2.266399e-06
vn -1 -3.009221e-07 5.232279e-07
vn -1 -3.393595e-07 3.939275e-07
vn -1 4.399129e-08 -1.711749e-06
vn -1 -2.331131e-06 -3.475904e-07
vn -1 -2.090857e-09 6.250045e-08
vn -1 2.91741e-07 -1.23414e-06
vn -0.8571314 -0.397048 -0.3281441
vn -0.8629737 -0.5051202 -0.01139832
vn -0.9999872 0.005039312 -0.0001917093
vn -0.8629351 -0.08337851 -0.4983884
vn -0.8571323 -0.4082689 0.3140712
vn -0.8628494 -0.1122602 0.4928373
vn -0.8629934 0.3006996 0.405983
vn -0.862992 0.5048956 0.01803192
vn -0.8629929 0.3288951 -0.3834988
vn 0.03415873 0.2870277 0.9573131
vn -0.01292277 -0.2342805 0.9720831
vn 0.001491355 -0.4336687 0.9010711
vn 0.01212762 -0.892717 0.4504545
vn -0.002084461 -0.7800624 0.6256982
vn -0.02306557 -0.9995498 -0.01918757
vn 0.04285528 -0.9150569 -0.4010415
vn -0.01770082 -0.7645657 -0.6443027
vn 0.02283421 -0.2876331 -0.9574685
vn -0.02261918 -0.1601651 -0.9868311
vn 0.0173133 0.406219 -0.9136117
vn -0.04293182 0.6452337 -0.762778
vn 0.03208127 0.9013585 -0.4318837
vn -0.04398254 0.9984192 0.03499563
vn 0.04362121 0.9173432 0.3957001
vn -0.04398262 0.5951444 0.8024142
vn -0.003789539 0.04494799 0.9989822
vn 0.02086903 0.09836274 0.9949318
vn 0.005756551 0.06564842 0.9978263
vn 0.03054077 0.1192628 0.9923929
vn 0.008835286 0.8901387 0.4556042
vn 0.07161588 0.0783395 0.9943511
vn 0.01218272 -0.04896591 0.9987262
vn 0.04870068 0.02907868 0.99839
vn -0.01104505 -0.09831849 0.9950937
vn 0.9718298 0.000552162 -0.2356834
vn 0.9650384 0.01858513 0.2614489
vn 0.9886641 -0.0009094448 0.1501418
vn 0.9748664 -0.000652998 -0.2227891
vn -0.09873129 -0.00465806 0.9951032
vn -0.06307217 0.006845586 0.9979855
vn -0.8894938 -0.003661466 0.4569326
vn -0.8752283 0.004608694 0.483688
vn 0.9322109 0.004224457 -0.3618909
vn 0.9394156 -0.001021232 -0.3427788
vn 0.8468332 -0.003063643 -0.5318498
vn 0.8284637 0.00479832 -0.5600222
vn 0.5529034 -0.004927965 -0.8332308
vn 0.522798 0.003565739 -0.8524492
vn 0.8915436 -0.007249685 0.4528767
vn 0.7238936 0.01397403 0.6897701
vn 0.681647 -0.006251591 0.7316545
vn 0.3458726 0.007233919 0.9382536
vn 0.3096246 -0.00597669 0.9508401
f 2//1 1//2 3//3
f 2//1 3//3 4//4
f 4//4 3//3 5//5
f 4//4 5//5 6//6
f 6//6 5//5 7//7
f 7//7 5//5 8//8
f 7//7 8//8 9//9
f 9//9 8//8 10//10
f 9//9 10//10 11//11
f 11//11 10//10 12//12
f 11//11 12//12 13//13
f 13//13 12//12 14//14
f 13//13 14//14 15//15
f 15//15 14//14 16//16
f 15//15 16//16 17//17
f 17//17 16//16 18//18
f 17//17 18//18 19//19
f 19//19 18//18 20//20
f 19//19 20//20 21//21
f 21//21 20//20 22//22
f 21//21 22//22 23//23
f 23//23 22//22 24//24
f 23//23 24//24 25//25
f 25//25 24//24 26//26
f 25//25 26//26 27//27
f 27//27 26//26 28//28
f 27//27 28//28 29//29
f 29//29 28//28 1//2
f 29//29 1//2 2//1
f 30//30 31//31 32//32
f 32//32 33//33 30//30
f 30//30 33//33 34//34
f 33//33 35//35 34//34
f 34//34 35//35 36//36
f 35//35 37//37 36//36
f 37//37 38//38 36//36
f 36//36 38//38 39//39
f 38//38 40//40 39//39
f 40//40 41//41 39//39
f 39//39 41//41 42//42
f 41//41 43//43 42//42
f 43//43 44//44 42//42
f 42//42 44//44 45//45
f 45//45 44//44 46//46
f 45//45 46//46 47//47
f 47//47 46//46 48//48
f 47//47 48//48 49//49
f 47//47 49//49 50//50
f 50//50 49//49 51//51
f 50//50 51//51 52//52
f 51//51 53//53 52//52
f 52//52 53//53 54//54
f 54//54 53//53 55//55
f 54//54 55//55 56//56
f 54//54 56//56 57//57
f 57//57 56//56 58//58
f 56//56 59//59 58//58
f 58//58 59//59 60//60
f 59//59 61//61 60//60
f 60//60 61//61 31//31
f 31//31 61//61 32//32
f 64//62 65//62 66//62
f 65//63 64//64 67//65
f 68//66 69//67 70//68
f 71//69 72//70 70//68
f 70//68 72//70 65//63
f 70//68 65//63 68//66
f 68//66 65//63 67//65
f 73//71 74//72 75//73
f 75//73 74//72 76//74
f 75//75 76//76 77//77
f 75//75 77//77 78//78
f 78//79 77//80 79//81
f 78//79 79//81 80//82
f 80//82 79//81 81//83
f 80//82 81//83 82//84
f 82//84 81//83 83//85
f 82//86 83//87 84//88
f 84//88 83//87 85//89
f 84//90 85//91 73//92
f 73//92 85//91 74//93
f 87//94 63//94 62//94
f 93//95 92//96 94//97
f 95//98 93//99 94//100
f 98//101 96//102 94//103
f 94//103 96//102 95//104
f 108//105 104//106 109//107
f 108//108 109//109 110//110
f 110//111 111//112 108//105
f 111//113 112//114 113//115
f 115//116 116//117 114//118
f 114//118 116//117 117//119
f 116//117 118//120 117//119
f 117//119 118//120 119//121
f 118//120 120//122 119//121
f 119//121 120//122 121//123
f 120//122 122//124 121//123
f 121//123 122//124 123//125
f 123//125 122//124 124//126
f 123//125 124//126 125//127
f 124//126 126//128 125//127
f 125//127 126//128 127//129
f 126//128 128//130 127//129
f 127//129 128//130 129//131
f 128//130 130//132 129//131
f 129//131 130//132 131//133
f 130//132 132//134 131//133
f 131//133 132//134 133//135
f 132//134 134//136 133//135
f 133//135 134//136 114//118
f 114//118 134//136 115//116
f 156//137 136//138 135//139
f 135//139 136//138 137//140
f 136//138 138//141 137//140
f 137//140 138//141 139//142
f 138//141 140//143 139//142
f 139//142 140//143 141//144
f 140//143 142//145 141//144
f 141//144 142//145 143//146
f 142//145 144//147 143//146
f 143//146 144//147 145//148
f 144//147 146//149 145//148
f 145//148 146//149 147//150
f 146//149 148//151 147//150
f 148//151 149//152 147//150
f 147//150 149//152 150//153
f 149//152 151//154 150//153
f 150//153 151//154 152//155
f 151//154 153//156 152//155
f 152//155 153//156 154//157
f 153//156 155//158 154//157
f 154//157 155//158 156//137
f 154//157 156//137 135//139
f 48//48 46//46 157//159
f 157//159 46//46 158//160
f 46//46 44//44 158//160
f 158//160 44//44 159//161
f 44//44 43//43 159//161
f 159//161 43//43 160//162
f 43//43 41//41 160//162
f 41//41 40//40 160//162
f 160//162 40//40 161//163
f 40//40 38//38 161//163
f 38//38 37//37 161//163
f 161//163 37//37 162//164
f 37//37 35//165 162//164
f 35//165 33//33 162//164
f 162//164 33//33 163//166
f 163//166 33//33 32//32
f 163//166 32//32 164//167
f 32//32 61//61 164//167
f 164//167 61//61 59//59
f 164//167 59//59 165//168
f 59//59 56//56 165//168
f 165//168 56//56 166//169
f 166//169 56//56 55//55
f 166//169 55//55 53//53
f 166//169 53//53 167//170
f 53//53 51//51 167//170
f 167//170 51//51 168//171
f 168//171 51//51 49//49
f 168//171 49//49 48//48
f 168//171 48//48 157//159
f 15//15 169//172 13//13
f 13//13 169//172 170//173
f 13//13 170//173 11//11
f 11//11 170//173 171//174
f 11//11 171//174 172//175
f 11//11 172//175 9//9
f 9//9 172//175 7//7
f 7//7 172//175 173//176
f 7//7 173//176 6//6
f 6//6 173//176 174//177
f 6//6 174//177 4//178
f 4//178 174//177 2//179
f 2//1 175//180 29//29
f 29//29 175//180 176//181
f 29//29 176//181 27//27
f 27//27 176//181 177//182
f 27//27 177//182 25//25
f 25//25 177//182 178//183
f 25//25 178//183 23//23
f 23//23 178//183 179//184
f 23//23 179//184 21//185
f 21//185 179//184 180//186
f 21//185 180//186 19//19
f 19//19 180//186 17//17
f 17//17 180//186 181//187
f 17//17 181//187 15//15
f 15//15 181//187 169//172
f 182//188 183//189 184//190
f 184//190 183//189 185//191
f 184//192 185//193 186//194
f 186//194 185//193 187//195
f 186//196 187//197 188//198
f 188//198 187//197 189//199
f 188//200 189//201 190//202
f 190//202 189//201 191//203
f 190//204 191//205 192//206
f 192//206 191//205 193//207
f 192//208 193//209 182//210
f 182//210 193//209 183//211
f 137//212 177//182 135//213
f 135//213 177//182 176//181
f 141//214 180//186 179//184
f 141//214 179//184 139//215
f 139//215 179//184 178//183
f 139//215 178//183 137//212
f 137//212 178//183 177//182
f 176//181 175//216 135//213
f 135//213 175//216 154//217
f 154//217 175//216 2//218
f 154//217 2//218 174//177
f 154//217 174//177 152//219
f 145//220 169//172 143//221
f 143//221 169//172 181//187
f 143//221 181//187 141//214
f 141//214 181//187 180//186
f 174//177 173//176 152//219
f 152//219 173//176 150//222
f 150//222 173//176 172//175
f 150//222 172//175 147//223
f 147//223 172//175 171//174
f 147//223 171//174 170//173
f 147//223 170//173 145//220
f 145//220 170//173 169//172
f 133//224 163//166 164//167
f 133//224 164//167 131//225
f 114//226 163//166 133//224
f 119//227 160//162 117//228
f 117//228 160//162 161//163
f 117//228 161//163 114//226
f 114//226 161//163 162//164
f 114//226 162//164 163//166
f 121//229 158//160 159//161
f 121//229 159//161 119//227
f 119//227 159//161 160//162
f 125//230 168//171 123//231
f 123//231 168//171 157//159
f 123//231 157//159 121//229
f 121//229 157//159 158//160
f 164//167 165//168 131//225
f 131//225 165//168 129//232
f 129//232 165//168 166//169
f 129//232 166//169 127//233
f 127//233 166//169 167//170
f 127//233 167//170 125//230
f 125//230 167//170 168//171
f 196//234 110//110 197//235
f 197//235 110//110 109//109
f 95//98 198//236 93//99
f 199//237 70//237 69//237
f 92//238 93//239 194//240
f 194//240 93//239 198//241
f 97//242 66//243 65//244
f 97//242 65//244 72//245
f 199//246 113//247 70//248
f 70//248 113//247 71//249
f 201//250 200//251 202//252
f 201//250 202//252 203//253
f 203//253 202//252 204//254
f 203//253 204//254 205//255
f 205//255 204//254 206//256
f 205//255 206//256 207//257
f 207//257 206//256 208//258
f 207//257 208//258 209//259
f 209//259 208//258 210//260
f 210//260 208//258 211//261
f 210//260 211//261 212//262
f 210//260 212//262 213//263
f 213//263 212//262 214//264
f 213//263 214//264 215//265
f 215//265 214//264 216//266
f 215//265 216//266 217//267
f 217//267 216//266 218//268
f 217//267 218//268 219//269
f 219//269 218//268 220//270
f 219//269 220//270 221//271
f 221//271 220//270 222//272
f 221//271 222//272 223//273
f 223//273 222//272 224//274
f 223//273 224//274 225//275
f 225//275 224//274 200//251
f 225//275 200//251 201//250
f 227//276 111//277 226//278
f 227//276 112//279 111//277
f 227//276 228//280 112//279
f 112//279 228//280 229//281
f 229//281 228//280 230//282
f 229//281 230//282 231//283
f 229//281 231//283 232//284
f 232//284 231//283 233//285
f 232//284 233//285 234//286
f 234//286 233//285 235//287
f 234//286 235//287 236//288
f 236//288 235//287 237//289
f 236//288 237//289 98//290
f 238//291 96//292 237//289
f 237//289 96//292 98//290
f 226//278 111//277 239//293
f 226//278 239//293 240//294
f 240//294 239//293 241//295
f 240//294 241//295 242//296
f 242//296 241//295 243//297
f 242//296 243//297 244//298
f 244//298 243//297 245//299
f 244//298 245//299 246//300
f 246//300 245//299 96//292
f 246//300 96//292 238//291
f 240//301 242//302 201//303
f 201//303 242//302 225//304
f 225//304 242//302 244//305
f 225//304 244//305 223//306
f 223//306 244//305 246//307
f 223//306 246//307 221//308
f 221//308 246//307 238//309
f 221//308 238//309 219//310
f 219//310 238//309 237//311
f 219//310 237//311 217//312
f 217//312 237//311 235//313
f 217//312 235//313 215//314
f 215//314 235//313 233//315
f 215//314 233//315 213//316
f 213//316 233//315 231//317
f 213//316 231//317 210//318
f 210//318 231//317 230//319
f 210//318 230//319 228//320
f 210//318 228//320 209//321
f 209//321 228//320 207//322
f 207//322 228//320 227//323
f 207//322 227//323 226//324
f 207//322 226//324 205//325
f 205//325 226//324 203//326
f 203//326 226//324 240//301
f 203//326 240//301 201//303
f 67//327 64//328 66//329
f 88//330 66//329 89//331
f 88//330 62//332 66//329
f 66//329 62//332 67//327
f 300//333 247//334 62//332
f 247//334 248//335 62//332
f 62//332 248//335 67//327
f 94//97 92//96 98//336
f 98//336 92//96 91//337
f 98//336 91//337 97//338
f 97//338 91//337 66//329
f 66//329 91//337 90//339
f 66//329 90//339 89//331
f 87//340 62//332 86//341
f 86//341 62//332 88//330
f 229//342 71//343 113//115
f 229//342 113//115 112//114
f 229//342 232//344 71//343
f 71//343 232//344 72//345
f 232//344 234//346 72//345
f 72//345 234//346 236//347
f 72//345 236//347 97//348
f 97//348 236//347 98//349
f 196//234 249//350 241//351
f 241//351 249//350 250//352
f 241//351 250//352 243//353
f 243//353 250//352 198//236
f 196//234 241//351 239//354
f 196//234 239//354 110//110
f 110//110 239//354 111//355
f 95//98 96//356 245//357
f 95//98 245//357 198//236
f 198//236 245//357 243//353
f 104//358 195//359 109//360
f 109//360 195//359 197//361
f 251//362 252//363 99//364
f 199//365 103//366 107//367
f 199//365 107//367 106//368
f 199//365 106//368 113//369
f 99//364 68//370 253//371
f 69//372 68//370 199//365
f 199//365 68//370 99//364
f 199//365 99//364 103//366
f 103//366 99//364 101//373
f 106//368 105//374 113//369
f 113//369 105//374 111//112
f 111//112 105//374 104//106
f 99//364 253//371 251//362
f 100//375 102//376 99//364
f 99//364 102//376 101//373
f 104//106 108//105 111//112
f 100//377 254//378 255//379
f 100//377 255//379 102//380
f 102//380 255//379 256//381
f 102//380 256//381 101//382
f 101//382 256//381 257//383
f 101//382 257//383 103//384
f 103//384 257//383 107//385
f 107//385 257//383 258//386
f 107//385 258//386 106//387
f 106//387 258//386 259//388
f 106//387 259//388 105//389
f 105//389 259//388 195//359
f 105//389 195//359 104//358
f 92//390 194//391 260//392
f 92//390 260//392 91//393
f 91//393 260//392 261//394
f 91//393 261//394 90//395
f 90//395 261//394 89//396
f 89//396 261//394 262//397
f 89//396 262//397 88//398
f 88//398 262//397 263//399
f 88//398 263//399 86//400
f 264//401 63//402 87//403
f 264//401 87//403 265//404
f 265//405 87//406 86//407
f 265//405 86//407 263//408
f 60//409 266//410 267//411
f 60//409 267//411 58//412
f 58//412 267//411 268//413
f 249//414 196//415 197//416
f 256//417 255//418 30//419
f 30//419 255//418 254//420
f 60//409 31//421 266//410
f 266//410 31//421 269//422
f 269//422 31//421 30//419
f 256//417 30//419 34//423
f 197//416 195//424 45//425
f 270//426 271//427 50//428
f 57//429 272//430 54//431
f 34//423 36//432 256//417
f 256//417 36//432 257//433
f 257//433 36//432 39//434
f 50//428 271//427 47//435
f 42//436 258//437 39//434
f 39//434 258//437 257//433
f 45//425 195//424 42//436
f 42//436 195//424 259//438
f 42//436 259//438 258//437
f 50//428 52//439 270//426
f 270//426 52//439 54//431
f 270//426 54//431 272//430
f 58//412 268//413 273//440
f 58//412 273//440 57//429
f 57//429 273//440 272//430
f 271//427 274//441 47//435
f 47//435 274//441 249//414
f 47//435 249//414 45//425
f 45//425 249//414 197//416
f 275//442 264//443 265//444
f 275//442 265//444 276//445
f 276//445 265//444 263//446
f 276//445 263//446 16//447
f 16//447 263//446 18//448
f 194//449 26//450 260//451
f 260//451 26//450 24//452
f 260//451 24//452 261//453
f 18//448 263//446 20//454
f 20//454 263//446 262//455
f 20//454 262//455 22//456
f 22//456 262//455 24//452
f 24//452 262//455 261//453
f 276//445 16//447 14//457
f 276//445 14//457 12//458
f 10//459 278//460 279//461
f 10//459 279//461 12//458
f 12//458 279//461 276//445
f 277//462 8//463 280//464
f 280//464 8//463 5//465
f 280//464 5//465 281//466
f 5//465 3//467 281//466
f 281//466 3//467 1//468
f 26//450 194//449 28//469
f 28//469 194//449 198//470
f 28//469 198//470 250//471
f 28//469 250//471 1//468
f 8//463 277//462 10//459
f 10//459 277//462 278//460
f 1//468 250//471 282//472
f 1//468 282//472 281//466
f 182//473 184//474 132//475
f 184//474 186//476 146//149
f 146//149 186//476 148//151
f 148//151 186//476 149//477
f 149//477 186//476 188//478
f 130//479 190//480 192//481
f 130//479 192//481 132//475
f 132//475 192//481 182//473
f 79//482 128//483 81//484
f 85//485 83//486 126//487
f 126//487 83//486 128//483
f 128//483 83//486 81//484
f 79//482 77//488 151//489
f 151//489 77//488 76//490
f 151//489 76//490 153//156
f 153//156 76//490 74//491
f 188//478 190//480 149//477
f 149//477 190//480 130//479
f 149//477 130//479 151//489
f 151//489 130//479 128//483
f 151//489 128//483 79//482
f 74//491 85//485 153//156
f 153//156 85//485 126//487
f 153//156 126//487 155//158
f 155//158 126//487 124//492
f 155//158 124//492 156//493
f 156//493 124//492 122//494
f 156//493 122//494 136//495
f 136//495 122//494 120//496
f 136//495 120//496 138//497
f 138//497 120//496 118//498
f 138//497 118//498 140//499
f 140//499 118//498 116//500
f 140//499 116//500 142//501
f 142//501 116//500 144//502
f 144//502 116//500 115//116
f 144//502 115//116 134//136
f 144//502 134//136 146//149
f 146//149 134//136 132//475
f 146//149 132//475 184//474
f 191//503 189//504 193//505
f 193//505 189//504 187//506
f 187//506 183//507 193//505
f 187//506 185//508 183//507
f 84//509 73//510 75//511
f 82//512 84//509 75//511
f 75//511 80//513 82//512
f 75//511 78//514 80//513
f 280//515 281//516 270//517
f 270//517 281//516 271//518
f 283//519 214//520 284//521
f 284//521 214//520 285//522
f 286//523 287//524 202//525
f 214//520 212//526 285//522
f 285//522 212//526 211//527
f 285//522 211//527 288//528
f 288//528 211//527 208//529
f 289//530 218//531 283//519
f 283//519 218//531 216//532
f 283//519 216//532 214//520
f 286//523 202//525 200//533
f 286//523 200//533 290//534
f 288//528 208//529 206//535
f 288//528 206//535 287//524
f 287//524 206//535 204//536
f 287//524 204//536 202//525
f 289//530 220//537 218//531
f 290//534 200//533 224//538
f 290//534 224//538 289//530
f 289//530 224//538 222//539
f 289//530 222//539 220//537
f 294//540 293//541 291//542
f 292//543 294//540 291//542
f 296//544 295//545 291//542
f 293//541 296//544 291//542
f 291//542 297//546 298//547
f 295//545 297//546 291//542
f 298//547 299//548 291//542
f 299//548 292//543 291//542
f 285//549 295//550 284//551
f 284//551 295//550 283//552
f 283//552 295//550 296//553
f 283//552 296//553 293//554
f 283//552 293//554 289//555
f 289//555 293//554 294//556
f 289//555 294//556 290//557
f 290//557 294//556 292//558
f 290//557 292//558 286//559
f 286//559 292//558 299//560
f 286//559 299//560 287//561
f 287//561 299//560 298//562
f 287//561 298//562 288//563
f 288//563 298//562 297//564
f 288//563 297//564 285//549
f 285//549 297//564 295//550
f 269//422 30//419 254//420
f 264//565 275//566 63//567
f 63//567 275//566 300//568
f 63//569 300//333 62//332
f 99//364 252//363 100//375
f 100//570 252//571 254//572
f 254//572 252//571 269//573
f 275//574 276//575 266//576
f 266//576 269//577 275//574
f 272//578 277//579 280//515
f 272//578 280//515 270//517
f 250//352 249//350 274//580
f 250//352 274//580 282//581
f 282//581 274//580 271//518
f 282//581 271//518 281//516
f 300//582 275//574 269//577
f 300//582 269//577 252//583
f 300//582 252//583 251//584
f 300//582 251//584 247//585
f 247//585 251//584 253//586
f 247//585 253//586 248//587
f 248//587 253//586 68//66
f 248//587 68//66 67//65
f 266//576 276//575 267//588
f 267//588 276//575 279//589
f 267//588 279//589 268//590
f 268//590 279//589 278//591
f 268//590 278//591 273//592
f 273//592 278//591 277//579
f 273//592 277//579 272//578
