# G1 exterior visual; derived from pinned Unitree/TWIST2 CAD.
v 0.00306708971 0.0542518087 0.00949451979
v 0.0057583591 0.0527092367 0.00948595535
v 0.00450350344 0.0535874665 0.00946360826
v 0.00687338039 0.051602874 0.00948223006
v 0.00418637833 0.0394455716 0.0128781665
v 0.00303049781 0.0396949686 0.00966389757
v 0.00207427121 0.0402500592 0.00950098224
v 0.00900007319 0.044598233 0.00949824229
v 0.00907055475 0.0429701209 0.0104848947
v 0.0102241812 0.0440357253 0.00541362679
v 0.0111155389 0.04407233 0.00670363568
v 0.01133007 0.0440900438 0.00878154859
v 0.0090065375 0.0440553874 0.00967905857
v 0.0123941321 0.0439320803 0.00976088364
v 0.0120683266 0.042987287 0.0104707917
v 0.0114182383 0.044066254 0.00494043296
v 0.0125283711 0.0439066328 0.00553122628
v 0.0135850878 0.0432814099 0.00398326945
v 0.0135650272 0.0432876162 0.00605619699
v 0.0135629661 0.043303445 0.00866534561
v 0.0137269944 0.042966567 0.00984420162
v 0.0145935779 0.0407896936 0.00229137228
v 0.0145721631 0.0400090218 0.00336944452
v 0.0145684127 0.0400301702 0.00460040104
v 0.014591312 0.0399528258 0.00611738302
v 0.0146100093 0.0409733206 0.00400715554
v 0.0145968935 0.0409535244 0.00602536555
v 0.0142779835 0.042315077 0.0051734373
v 0.0145889455 0.0406285003 0.00767168636
v 0.014591692 0.0406231135 0.00896275882
v 0.0143902134 0.0416369848 0.00987223256
v 0.0142905125 0.0423067473 0.00311772386
v 0.0143143795 0.0422555469 0.00697174529
v 0.0142993527 0.0422951616 0.00842942391
v 0.00890394393 0.0470662303 0.00942249224
v 0.0058068973 0.0526698232 -0.00948628411
v 0.0045337854 0.0535685383 -0.00941039901
v 0.00777643593 0.0503102876 -0.0094882166
v 0.00838971511 0.0490189567 0.00949875917
v 0.00777933793 0.0503105409 0.00949461944
v 0.00692381756 0.0515387803 -0.00946156867
v 0.00885143038 0.0474017709 -0.00942541007
v 0.00899717025 0.0457356796 -0.00949806441
v 0.00907180645 0.0440324731 -0.00852888729
v 0.0122160446 0.0439368375 -0.00856576301
v 0.0121065937 0.0430357568 -0.0092397416
v 0.0110336943 0.0440835766 -0.00731433183
v 0.00988292694 0.0440574326 -0.00499771629
v 0.0113989562 0.0440632664 -0.00515426276
v 0.00911056716 0.044053819 -0.000586690207
v 0.0111060478 0.0440694876 -0.00226443168
v 0.0114488229 0.0440609269 -3.69810768e-05
v 0.0136338463 0.0431210101 -0.00859706569
v 0.0125576621 0.0438934192 -0.00461359648
v 0.0125456611 0.043901138 -0.00708070537
v 0.0136141339 0.0432859324 -0.00724231312
v 0.013568568 0.0432853587 -0.00550801959
v 0.0125448275 0.0438923575 -0.00135443383
v 0.0135887228 0.0432799831 -0.00263610971
v 0.0125472071 0.0439087339 0.00140769477
v 0.0135748107 0.04329006 -0.00120892155
v 0.0146264462 0.0398681201 -0.00772381201
v 0.0145859057 0.0399970412 -0.00621061167
v 0.0146135353 0.0409441441 -0.0072522182
v 0.0145949926 0.0410048589 -0.00565212918
v 0.0142900785 0.0422927737 -0.00578390015
v 0.0145592485 0.0402198471 -0.00432354677
v 0.0146183399 0.04102429 -0.00385436066
v 0.0143090133 0.0422711521 -0.00357220089
v 0.0145882033 0.0399760716 -0.000505892676
v 0.0145799667 0.0406073965 -0.00199995167
v 0.0145986723 0.0409553535 -0.000952549279
v 0.0146049559 0.0409758538 0.000543744653
v 0.0142621584 0.0423641801 -0.00134182803
v 0.0143197076 0.0422561839 -0.00760197081
v 0.0142868133 0.0423094146 0.000816876476
v 0.0084647201 0.0488246456 -0.009493283
v 0.00909386575 0.0440664813 0.007770014
v 0.00992987957 0.0440680347 0.00300244754
v 0.0112508805 0.0440652594 0.00275666872
v 0.0135804173 0.0432838127 0.000707264931
v -0.00571402814 0.0470928848 0.01289107
v -0.00568502164 0.0413393714 0.00994889438
v -0.00525585562 0.0405353792 0.00950523093
v -0.0044544898 0.0401082374 0.00985936355
v -0.00471529271 0.0400979072 0.0128994733
v -0.00548875704 0.047710713 0.00952166598
v -0.0056951344 0.0471672229 0.00996062998
v 0.00055842445 0.0401090495 0.00975622796
v 0.00139351259 0.0399759933 0.0128813526
v -0.00567703461 0.0547047779 0.0128985029
v -0.00550520606 0.0478579625 0.0127175506
v -0.00547914533 0.0542927459 0.00954577979
v -0.0055059921 0.0543313175 0.0127190799
v 0.00159449084 0.0546522252 0.00949006528
v -2.02593037e-05 0.0547969975 0.00920962449
v -0.0114586335 0.0534352288 0.0128568374
v -0.0101126134 0.0547777899 0.0128450571
v -0.00578018371 0.0547981821 0.00939615536
v -0.008455039 0.0427008979 -0.0127976993
v -0.00670090225 0.0405678563 -0.0126322573
v -0.00597304851 0.0397987999 -0.00959821418
v -0.00736179575 0.0416215956 -0.0096569024
v -0.00666065468 0.0405741818 -0.00958645903
v -0.00849583279 0.045017641 -0.0126251783
v -0.00782094989 0.0424245968 -0.0126424488
v -0.00828481559 0.0441792943 -0.00954965409
v -0.00795873161 0.0429065041 -0.0095030982
v -0.00849237572 0.0457408577 -0.00994620472
v -0.00827024877 0.0546603352 -0.00950442348
v 0.00306849228 0.0542534925 -0.009499331
v -4.76542555e-05 0.0547994412 -0.00920740142
v 0.00154563354 0.0546613932 -0.00946240313
v -0.0113621801 0.0535345674 -0.0127605619
v -0.00854935497 0.0546559766 -0.0127563709
v -0.0100867897 0.0547658801 -0.0127942944
v -0.008989322 0.0547986999 -0.00921654515
v -0.00849975832 0.0544767752 -0.00980806537
v 0.00598924328 0.0391589925 0.00965213031
v 0.00891745556 0.038733393 0.00953500625
v 0.00604219176 0.0391211547 0.0128868353
v 0.00876475312 0.0385919325 0.0128744012
v 0.0090591209 0.038433563 0.0105022527
v 0.0145752858 0.0331761986 0.0020628022
v 0.0145788379 0.0326320194 0.00333697861
v 0.0145663507 0.0337753668 0.000166896047
v 0.0146140149 0.0337743983 0.00392978545
v 0.0145910271 0.0338870585 0.00552718993
v 0.014599409 0.0330978893 0.00668487744
v 0.0145704979 0.0339567028 0.00790124852
v 0.0144159365 0.0348190963 0.00982848927
v 0.0146027682 0.0330673195 0.00900721271
v 0.0145614697 0.0348197371 0.00230365526
v 0.0145766176 0.0354667306 0.000883459637
v 0.0145768058 0.0363358445 0.00195597205
v 0.0145727601 0.0350373276 0.0044772788
v 0.0145529723 0.0352785252 0.00332956575
v 0.0145847639 0.0362775996 0.00518874964
v 0.0145678557 0.0375313237 0.00446495181
v 0.0145881744 0.0350357257 0.00604472356
v 0.0145772677 0.0351139046 0.00764763448
v 0.0145757766 0.0352245122 0.00886025652
v 0.0145893488 0.0362518318 0.00687048258
v 0.0146054849 0.0362794623 0.00856144354
v 0.0145826982 0.0369521268 0.00331398798
v 0.0145901674 0.0374705121 0.000545675925
v 0.0145772835 0.0380644873 0.00223042653
v 0.0145704467 0.0387296304 0.00069060619
v 0.0145826386 0.0396687761 0.00128671655
v 0.0145808756 0.038052693 0.00565472059
v 0.0145761976 0.0387730263 0.0042351014
v 0.014586078 0.0374919884 0.00721066026
v 0.0145826135 0.0376263857 0.00888306927
v 0.0145964501 0.0386863835 0.00728115765
v 0.0145627176 0.0386793986 0.00928990729
v 0.00880422629 0.0386159606 0.0105857821
v 0.0134778162 0.0416896455 0.010494601
v 0.0145743638 0.0239451677 0.00221906998
v 0.0145500395 0.0247956067 0.00107828586
v 0.0145622808 0.0254944079 0.00232252828
v 0.0145830158 0.0252615996 0.00402360084
v 0.01456476 0.0247906279 0.00760885887
v 0.0145801604 0.0253967345 0.0088458648
v 0.0145647135 0.0272927321 0.00100341451
v 0.0146048814 0.0282842796 0.00228583906
v 0.0145828407 0.0266943201 0.00299158692
v 0.0145759396 0.0264838096 0.00546857528
v 0.0145877562 0.0271449815 0.00460895477
v 0.0145883467 0.0275732353 0.00606268412
v 0.014623425 0.0276903324 0.00342578115
v 0.0145667205 0.0287556052 0.00528525282
v 0.0145711955 0.0264507495 0.00654343981
v 0.0145857725 0.0272278357 0.00909721944
v 0.0145705193 0.0271826871 0.00761726592
v 0.0145660592 0.0288390294 0.00637738174
v 0.0145778153 0.0296582505 0.000851497287
v 0.014569005 0.0312723443 0.00099771691
v 0.0145882815 0.0288356524 0.00393421203
v 0.0145215346 0.0295657236 0.00203601061
v 0.0145690758 0.0300822761 0.00446304958
v 0.0145955104 0.0301925298 0.00298594683
v 0.0145777119 0.0313682295 0.00600725785
v 0.0145615973 0.0289944969 0.00769925863
v 0.0145771382 0.0300252773 0.00604983279
v 0.0145778311 0.0300701987 0.00783799123
v 0.0145735946 0.0320103168 0.00771965412
v 0.0145830298 0.0313051194 0.00881065801
v 0.0146037936 0.0295492057 0.00915379822
v 0.0145895891 0.0314958692 0.00285987114
v 0.014605592 0.0319985338 0.00451339874
v 0.0145604983 0.0326290354 0.00532614021
v 0.00855055265 0.0371769294 -0.0127967279
v 0.00200119545 0.0375579223 -0.0095952237
v 0.00369455735 0.0383211263 -0.00950091612
v 0.0026181736 0.0376955867 -0.0127949351
v 0.00362625276 0.0380277559 -0.0127331465
v 0.00362829072 0.0380575098 -0.0097472379
v 0.00678670825 0.0375680216 -0.0095428098
v 0.00864834432 0.0371769927 -0.00959082972
v 0.0089067053 0.0367852077 -0.00940421969
v 0.00895258784 0.0437055491 -0.00945194531
v 0.0091188373 0.0429815352 -0.00930123962
v 0.0145821935 0.0325786956 -0.0061639864
v 0.0145995077 0.0344380848 -0.00766232004
v 0.0145964362 0.0345791131 -0.00673083961
v 0.0145582296 0.0321491323 -0.00431783404
v 0.0145798493 0.0336286537 -0.00540405605
v 0.0145591563 0.0328244418 -0.00358849484
v 0.0145922294 0.0342148058 -0.00284434506
v 0.0145470174 0.0326154977 -0.00213526189
v 0.0146104693 0.0331055596 -0.00108804589
v 0.0145975119 0.0325676799 0.000548019365
v 0.0144754248 0.0365445539 -0.00853777677
v 0.014555363 0.0351359323 -0.00578307034
v 0.0146178398 0.0368730389 -0.00775664207
v 0.0145852938 0.0363583565 -0.00543339178
v 0.0145685505 0.0362896845 -0.00691938773
v 0.0145714441 0.0340413786 -0.00431951974
v 0.014573561 0.0352421775 -0.00426055398
v 0.0146172447 0.0361892097 -0.00378818088
v 0.0145831667 0.0350002423 -0.00162998121
v 0.0145708583 0.0351271741 -0.000195254819
v 0.014601415 0.0368914343 -0.00217848434
v 0.0145741533 0.0363189019 -0.000704120263
v 0.0145895965 0.0374809541 -0.0061145951
v 0.0145661104 0.0385316908 -0.00749046449
v 0.0145801678 0.0387932248 -0.0064716679
v 0.0145852808 0.0387092084 -0.00535035226
v 0.0145708136 0.0378663652 -0.00431193598
v 0.0145652983 0.0395492725 -0.00343653909
v 0.0145817772 0.0379592143 -0.00311510265
v 0.0145604303 0.0376022346 -0.000968573033
v 0.0145822354 0.0387389213 -0.00196907041
v 0.0145889828 0.0386547148 -0.000624277571
v 0.0088871615 0.0367836542 -0.0127123268
v 0.0134370923 0.0418075845 -0.00929666962
v 0.014415185 0.041519817 -0.00866033696
v 0.014561329 0.0250119194 -0.00562780816
v 0.0145686166 0.0253243092 -0.00684898719
v 0.0145838642 0.0253732111 -0.00400421256
v 0.0145650581 0.0247202814 -0.00197060546
v 0.0145936273 0.0258871596 -0.00118525443
v 0.0145757813 0.0265537724 -0.00570214912
v 0.0145870643 0.026689969 -0.00722226966
v 0.0146163134 0.0282113515 -0.00777019653
v 0.0145958224 0.0276279449 -0.00611265702
v 0.0145688727 0.0288269259 -0.0069203251
v 0.0145719629 0.0272131618 -0.00448251748
v 0.01457485 0.0278380401 -0.00351036689
v 0.0145751527 0.0264656097 -0.00333564775
v 0.0145576866 0.0266123861 -0.000147829254
v 0.0145678325 0.0271588601 -0.00197428954
v 0.014590078 0.0282458607 -0.00117218425
v 0.0145869264 0.0282004159 -0.000123659003
v 0.0145875858 0.0288352538 -0.00255965814
v 0.0144769903 0.0311348625 -0.00853574928
v 0.0145580377 0.0299498606 -0.00576189207
v 0.0145807592 0.0299921986 -0.00677300338
v 0.0146093471 0.0306412149 -0.00772146462
v 0.0146100568 0.0288878269 -0.00501604704
v 0.0145928226 0.0312263109 -0.00516043603
v 0.0146099245 0.0301084723 -0.00391897932
v 0.0145863974 0.031244101 -0.00280871289
v 0.0145601304 0.0299471095 -0.00233136327
v 0.0145602403 0.0299945567 -0.000248189608
v 0.014582444 0.0301630627 -0.00116218685
v 0.0145785026 0.0324820541 -0.007575355
v 0.0145849753 0.0311949588 -0.00652163103
v 0.0145857818 0.031416133 -0.000576642284
v -0.00570686674 0.0412049219 0.0128958076
v -0.0125995912 0.0522113256 -0.0126496041
v -0.0123638194 0.0523459874 -0.0127946762
v -0.00537484651 0.0392029583 -0.0127786342
v -0.00165316672 0.0374280401 -0.0127825728
v -0.00347586931 0.0380376317 -0.0127678681
v -0.00408432679 0.0383669175 -0.00964174699
v -0.00520508923 0.0391719528 -0.00957743824
v -0.00244395365 0.0377126336 -0.0095152501
v -5.96457794e-05 0.0372835062 -0.00996598974
v 0.000903590873 0.0373234004 -0.0127935456
v 0.00877761561 0.0192676149 0.0128972307
v 0.00884217396 0.0199973211 0.00939241704
v 0.00986345299 0.0198345613 0.00519285072
v 0.0103855236 0.0198328607 0.00214910437
v 0.0114061516 0.0198232774 0.00354532478
v 0.0108598983 0.0198198538 0.00674800854
v 0.0112798288 0.0198081303 0.00899965502
v 0.00883772969 0.0199890379 0.00990137272
v 0.00882929284 0.020953659 0.0105612753
v 0.0125558767 0.0210538637 0.0105001666
v 0.0125552891 0.02002424 0.00129435654
v 0.0126623921 0.0200710688 0.00301819411
v 0.0136330267 0.0206739847 0.0039855605
v 0.0125171728 0.0199977644 0.0046988097
v 0.0125491591 0.0200068094 0.00696047815
v 0.012576364 0.0200164486 0.00903352816
v 0.0136116836 0.0206488576 0.00634689303
v 0.0136688799 0.0207167249 0.00884329714
v 0.0143384794 0.021647647 0.00862921216
v 0.0120022455 0.0199930817 0.00984538253
v 0.0134507203 0.0207042322 0.00987373665
v 0.0135268029 0.0226213541 0.0104735419
v 0.0143165067 0.0216285195 0.00165637676
v 0.0145682255 0.0228089225 0.000929663482
v 0.0143223135 0.0216522012 0.00384287885
v 0.0143103926 0.0216412768 0.00602302002
v 0.0145878587 0.02278433 0.00499748066
v 0.0145632885 0.0228094626 0.00765168713
v 0.0144898565 0.0224383567 0.00979769602
v 0.0146230543 0.0228851549 0.00292494707
v 0.0145648727 0.0242584329 0.00402251957
v 0.0145839304 0.0246822406 0.00552451937
v 0.0145839965 0.0227945223 0.00648440048
v 0.0145623554 0.0246801116 0.00654674228
v 0.0145859951 0.0242588315 0.00920256693
v 0.00868744683 0.0192662813 0.0095203612
v 0.00683342852 0.0189204738 0.00951163936
v 0.00719799148 0.0189924669 0.0128826508
v 0.00626566214 0.0184473358 0.0128975827
v 0.00539418356 0.0190997291 -0.0127992509
v 0.00847435277 0.0190162733 -0.0127164098
v 0.00888459384 0.0193681736 -0.0127827115
v 0.00892777555 0.0199385937 -0.00946239661
v 0.00906874612 0.0208216552 -0.00931209698
v 0.0119418018 0.01995074 -0.00859899726
v 0.0120335948 0.0208703987 -0.00925117452
v 0.0100152697 0.0198234245 -0.0072907079
v 0.0110549545 0.0198393669 -0.00577302836
v 0.00985335745 0.0198228154 -0.00411006249
v 0.0106994342 0.0198379196 -0.00172704295
v 0.0114077665 0.0198157933 -0.0031482242
v 0.00980778225 0.0198368691 -0.000692693342
v 0.011111266 0.0198126752 0.000356709759
v 0.0135093406 0.0205983408 -0.00851541013
v 0.0134965479 0.0220935699 -0.0092921732
v 0.0143929487 0.0222005658 -0.008654695
v 0.0122631798 0.019876916 -0.00736624282
v 0.0125725614 0.0200175941 -0.00528018782
v 0.0136152701 0.0206490885 -0.00588960014
v 0.0143241892 0.0216526836 -0.00749416649
v 0.0125658782 0.0200260878 -0.00330627384
v 0.0135759432 0.0206214562 -0.00370506546
v 0.0126051083 0.0200206656 -0.00126430485
v 0.0136116296 0.0206582099 -0.0018589492
v 0.0136077283 0.0206440352 0.00010869799
v 0.0143114356 0.0216400065 -0.000365299435
v 0.0143258572 0.0216680299 -0.00604951754
v 0.0145875048 0.0227664504 -0.00720752077
v 0.0143272374 0.0216710065 -0.00278247334
v 0.0145822251 0.0227964427 -0.00519114779
v 0.0145921381 0.0228165314 -0.00262153125
v 0.0145803038 0.0227741972 -0.000630859518
v 0.0145628257 0.0253521521 -0.008326618
v 0.0145803299 0.0242302604 -0.00725347083
v 0.0145968646 0.024093207 -0.00509904791
v 0.0145753017 0.0240292288 -0.00344602577
v 0.0145770628 0.0240564365 -0.00115960976
v 0.0145854196 0.0247070231 -9.52190312e-05
v 0.00581554091 0.0189683102 -0.0125583392
v 0.00868933555 0.0190437753 -0.00956739765
v -0.00699222647 0.016916452 0.0128503386
v -0.00699927192 0.0138152232 0.00968408771
v -0.00508822082 0.0131664965 0.0094996579
v -0.00702891452 0.017154159 0.00947207399
v -0.00550156413 0.0135555714 0.009261542
v -0.00548765063 0.0197673105 0.00926360488
v -0.00510242907 0.0199932158 0.00949321035
v -0.0123830652 0.0191591233 0.00958490185
v -0.0122211333 0.0191142354 0.0127209052
v -0.0125886621 0.0194275267 0.012897227
v -0.0125898989 0.0200022589 0.00944439881
v -0.012582087 0.0522996075 0.0128882611
v -0.00902465265 0.0190843344 0.00959362462
v -0.00890812743 0.0190889053 0.0128890611
v -0.00772193307 0.0184117761 0.00952822156
v -0.00754332542 0.0181969013 0.0128614977
v -0.00709895231 0.0199857224 0.00942721404
v -0.00549416663 0.0134625677 -0.0127763553
v -0.00698958151 0.0135825193 -0.0127717769
v -0.00552348513 0.0135245034 -0.00926302373
v -0.0069991881 0.0186956115 -0.00940716546
v -0.0069974903 0.018352434 -0.0126497932
v -0.00676758448 0.0192457289 -0.0127999326
v -0.00700015714 0.0194426384 0.00890424848
v -0.00549642602 0.0197561253 -0.00925722998
v -0.00509845279 0.0199979153 -0.00949028507
v 0.00900919829 0.0199991092 -0.00870308187
v -0.012592853 0.0194017198 -0.0126509639
v -0.0124272434 0.0190340877 -0.00955710281
v -0.0123380562 0.0190375466 -0.0127964243
v -0.01259162 0.020002773 -0.00944743771
v -0.00735866372 0.0189955123 -0.0126827918
v -0.00710143195 0.0199682694 -0.00941026583
v -0.00754987635 0.0190168209 -0.009551364
v -0.00692178449 0.0135140931 0.00949025713
v -0.00680789165 0.0179879516 0.0128989872
v 0.00516346237 0.00408354448 0.00949999224
v 0.00590155926 0.00446025329 0.0128968712
v 0.00595648726 0.00442165555 0.00952770747
v 0.00549769308 0.00517308712 0.00957511365
v 0.00548766414 0.0051383418 0.012887964
v 0.00549385231 0.0172083378 0.00951583497
v 0.00698704273 0.00422202377 0.00952082966
v 0.00698385853 0.00422224868 0.0128879901
v 0.00549391005 0.0171928294 0.0128971767
v -0.0063287979 -0.00302486843 0.0128890434
v -0.00574860908 -0.00399653893 0.00951845571
v -0.00697682146 -0.000732991262 0.00950801745
v -0.00654509803 -0.00245404616 0.00951511599
v -0.00698472047 -0.000693820766 0.0128967073
v -0.00301058008 -0.0063289362 0.00951643847
v -0.0025873445 -0.00649228506 0.0128997443
v -0.00476669567 -0.00516095245 0.0128715308
v -0.00441070413 -0.00541910576 0.0095103709
v -0.00106625352 -0.00690982537 0.0095002763
v -0.000574602687 -0.00698332535 0.0128613506
v 0.000631269009 -0.00698176911 0.00954641216
v 0.00291753188 -0.00636253366 0.0095031485
v 0.0030129177 -0.00632813666 0.0128873354
v 0.00105388265 -0.00691105006 0.0128851645
v 0.00496076467 -0.00495325727 0.00951777864
v 0.00450916216 -0.0053272387 0.0128857661
v 0.00546301715 -0.00436840393 0.0128214527
v 0.00638190471 -0.00288272183 0.00951734651
v 0.00648440141 -0.00260980241 0.0128905568
v 0.00696352031 -0.000726132537 0.00950442534
v 0.00696996553 -0.000769973092 0.0128719509
v -0.00548201287 0.0132264234 -0.00950250309
v 0.00549727445 0.0183593649 -0.0096131824
v 0.00549859833 0.0183504447 -0.0125566097
v -0.00549084414 -0.000485293567 -0.00957284402
v -0.00489314087 -0.00254627294 -0.0127867265
v -0.00387211307 -0.00394517882 -0.00951390434
v -0.00388625287 -0.00386029552 -0.0127993328
v -0.0026945821 -0.00477884477 -0.0127916047
v -0.0054797153 -0.00049728126 -0.0127198687
v -0.00506857503 -0.00208904711 -0.00950285047
v -0.00196816702 -0.00512774102 -0.0095165465
v -0.0013519394 -0.00533298403 -0.0127974441
v -0.000342944404 -0.00550081255 -0.00973043684
v 0.000415474846 -0.00548767019 -0.0127038807
v 0.00217941846 -0.00503838016 -0.0127593577
v 0.00318154297 -0.00449809572 -0.00951481424
v 0.00155200309 -0.0052721519 -0.00950681511
v 0.00361609319 -0.00413894607 -0.0127833197
v 0.00431581819 -0.00341755035 -0.012668143
v 0.00453208527 -0.00310420617 -0.00950022321
v 0.0054821698 -0.00038617439 -0.0127947712
v 0.00510077924 -0.00202330109 -0.0127409361
v 0.00549637573 -0.00040447092 -0.00963021815
v 0.00528700603 -0.0015152744 -0.00950496364
v 0.00547509594 0.0189804174 -0.00951077137
vn 0.9393873 0.3428573 0.0005987136
vn 0.9889538 0.1482148 0.001636773
vn 0.9842975 0.1765172 0.0003999388
vn 0.002777989 0.00794789 0.9999646
vn 0.04910045 0.2303176 0.971876
vn 0.006860185 -2.492834e-05 0.9999765
vn 0.6414055 0.7672021 0.0002054097
vn 0.7647305 0.6443502 0.0002623152
vn 0.647312 0.762225 -0.0003333571
vn 0.5019159 0.8649163 -0.0002177961
vn 0.4984268 0.8669319 9.617906e-05
vn 0.3415625 0.9398591 -0.0001976239
vn 0.3418628 0.93975 0.0001085404
vn 0.3193981 0.9454409 0.06423662
vn 0.3280644 0.944646 0.004194651
vn 0.04918706 0.998767 -0.006725274
vn 0.07365618 0.996845 0.02957731
vn 0.6638597 0.746628 0.04285659
vn 0.6745762 0.7382051 -0.0003262654
vn 0.9176794 0.3960086 0.03227476
vn 0.9198141 0.3923369 0.003718501
vn 0.9077849 0.4194276 0.002676673
vn 0.6745626 0.7382161 0.001489268
vn 0.6745754 0.7379664 -0.01880568
vn 0.3310789 0.9436027 0.000871926
vn 0.06063718 0.9981562 0.002695092
vn 0.05422298 0.9985287 -0.0006603072
vn 0.006690502 0.9999775 -0.0005518984
vn 0.07297823 0.9973288 -0.003072891
vn 0.7591022 0.6387487 0.1255547
vn -0.001167542 0.9993666 0.03556691
vn -0.006246376 0.9999743 -0.003541533
vn 0.9638914 0.2407443 0.1138218
vn 0.9942787 0.1066888 0.005242437
vn 0.9127545 0.40848 -0.0048257
vn 0.9987456 0.04479859 0.02237038
vn 0.9985797 0.02715711 0.0458364
vn 0.9879283 0.1547962 0.005985682
vn 0.9115896 0.4110791 0.004270346
vn -0.9964413 0.01276556 0.08331797
vn -0.9898884 0.01144405 0.1413862
vn -0.9965474 0.002829432 0.08297787
vn 0.0030408 0.0361394 0.9993421
vn 0.009010952 0.003361698 0.9999537
vn 0.9961805 0.0873168 -7.073311e-05
vn 0.9937955 0.1110504 0.006196737
vn 0.9999792 -0.001909543 -0.00615451
vn 0.9999976 -0.0009045581 -0.002048633
vn 0.9999055 -0.01341499 -0.002994311
vn 0.995011 0.09973262 -0.002575128
vn 0.9998951 -0.01435772 0.001905344
vn 0.9964637 0.08376296 0.006620621
vn 0.9999939 -0.00321684 0.001393241
vn 0.9946924 0.06980564 0.07559294
vn 0.9885421 -0.0002597092 0.1509446
vn 0.9822757 0.000931766 -0.1874395
vn 0.1816152 0.9833328 0.008528299
vn 0.179036 0.9835734 0.02300961
vn 0.1817224 0.9832472 0.01420865
vn 0.1111346 0.9936224 0.01906878
vn 0.1066222 0.5015127 0.858555
vn 0.08000805 0.405133 0.9107502
vn 0.03758861 0.758059 0.6511018
vn 0.1737995 0.9847781 0.00241357
vn 0.07875998 0.9967815 0.01494909
vn 0.7695003 0.6386464 -0.000298871
vn 0.8648068 0.5021049 3.721808e-05
vn 0.8678733 0.4967855 -0.000415173
vn 0.1456679 0.1223867 -0.9817344
vn 0.0128032 0.01098235 -0.9998577
vn 0.02273011 0.02758691 -0.999361
vn 0.9390518 0.3437751 0.0005089264
vn 0.01951539 0.005420316 -0.9997949
vn 0.02203353 0.001760549 -0.9997557
vn 0.01031615 0.02379716 -0.9996636
vn 0.999957 -0.009260914 0.0004918198
vn 0.9999677 -0.007929898 -0.001345048
vn 0.6625977 0.04039814 -0.7478853
vn -0.01291722 0.01409048 -0.9998173
vn 0.006527332 0.5937375 -0.8046323
vn 0.1215915 0.3712419 -0.9205406
vn 0.4499831 0.1823801 -0.8742154
vn 0.3304579 0.1552025 -0.9309725
vn -0.01210744 0.3054234 -0.9521396
vn 0.9929242 0.1153103 -0.02837667
vn 0.8945312 0.4462071 -0.02670488
vn 0.6666915 0.7453328 0.001237288
vn 0.6737486 0.7389587 -0.001700321
vn 0.9138384 0.4059968 0.008113003
vn 0.9099343 0.4147319 0.004123834
vn 0.9915336 -0.04526871 -0.1217037
vn 0.9133883 0.4013017 -0.06840202
vn 0.6165599 0.6254951 -0.4781314
vn 0.6682015 0.7431963 -0.03414748
vn 0.8495983 0.173663 -0.4980201
vn 0.9970616 0.0762094 -0.007765488
vn 0.9999859 -0.004379899 -0.002983085
vn 0.9944063 0.1055764 0.003138788
vn 0.9996981 -0.02456034 0.0008324218
vn 0.9999787 -0.005872128 0.002873804
vn 0.9999825 0.003805244 -0.004529518
vn 0.9999797 0.002094275 0.006036199
vn 0.9999508 0.0005408786 -0.009908855
vn 0.9852027 -0.01589681 -0.1706543
vn 0.9982403 -0.001621079 -0.0592763
vn 0.3596534 0.9328084 -0.02275657
vn -0.001379831 0.999996 0.002459202
vn -0.005727559 0.9999835 -0.0003029096
vn 0.6740125 0.7387015 0.005210263
vn 0.3359816 0.9418684 0.0004149416
vn 0.3309306 0.9433198 -0.02515456
vn 0.07252952 0.9973645 0.001834848
vn 0.05226798 0.9986325 0.001176742
vn 0.268169 0.9612393 -0.06406485
vn 0.1410293 0.5819312 -0.8009163
vn 0.9561306 0.2928922 -0.005335217
vn 0.9966921 0.04421278 -0.06819227
vn -0.01333266 0.9999111 -0.0002607863
vn -0.004851704 0.9994404 -0.03309579
vn 0.9983792 0.05363518 -0.01902822
vn 0.4425896 0.07767145 -0.8933541
vn 0.9352368 0.1731455 0.3087924
vn 0.7385773 0.0224299 0.6737955
vn 0.9874341 -0.1043541 0.1186772
vn 0.0169499 0.6687585 0.7432864
vn 0.01543407 0.6551723 0.7553218
vn -0.004547041 0.008795084 0.9999509
vn -0.01325585 -0.1622691 0.9866575
vn -0.003450553 0.006419275 0.9999734
vn 0.03162836 0.9813315 0.1897055
vn 0.1693412 0.9851799 -0.02727622
vn 0.02545917 0.9734887 -0.2273133
vn 0.7188894 -0.000329896 0.6951245
vn 0.6485206 -0.003841803 0.7611874
vn 0.7237291 -7.523172e-05 0.6900842
vn 0.9711935 0.238242 0.004891606
vn 0.9609881 0.2765834 -0.001850512
vn -0.001441109 0.1573914 0.9875352
vn 0.9032109 0.4291968 0.0005647244
vn 0.001536243 0.9999529 0.009587361
vn -0.7131794 0.7007619 -0.0175436
vn -0.711805 0.7023771 -3.620163e-05
vn -0.7085817 0.7056288 6.822026e-05
vn -0.01600157 0.04007849 0.9990684
vn -0.7056914 0.7085194 3.729534e-05
vn -0.9999999 2.465258e-05 0.0004659393
vn -0.9321688 -0.3619733 0.006050697
vn -0.9999998 0.0002001702 0.0006847295
vn -0.01170833 0.0205106 0.9997211
vn 0.01983021 0.008659567 -0.9997659
vn 0.1567907 0.004044127 -0.9876235
vn 0.003340232 0.002411256 -0.9999915
vn 0.9734613 0.03218807 -0.2265771
vn 0.9808526 0.1877103 -0.05189393
vn 0.9956604 0.0677588 0.06378984
vn 0.9907365 0.007347299 0.135599
vn 0.9998767 0.005351514 -0.01476695
vn 0.01580102 0.03235408 -0.9993516
vn 0.06365779 0.06834434 -0.9956288
vn 0.2971464 0.1522783 -0.9426109
vn 0.2764398 0.09717555 -0.9561056
vn 0.2683429 0.07623572 -0.9603021
vn 0.7907464 0.6120318 -0.01171985
vn 0.695738 0.7181479 -0.01456716
vn 0.7456014 0.6136032 0.2599418
vn 0.307322 0.1802569 -0.9343772
vn 0.6276576 0.7783216 0.01616685
vn 0.6408721 0.5671515 0.5173221
vn 0.004245053 0.1058688 -0.9943711
vn -0.01103019 0.8900354 -0.4557579
vn 0.05063462 0.9963077 -0.0693338
vn 0.9320123 0.008151758 -0.362335
vn 0.7994441 0.009841528 -0.6006597
vn -0.03298147 0.8661544 -0.498687
vn -0.008944512 0.001027826 -0.9999594
vn 0.001443723 0.0004643 -0.9999988
vn -0.401356 0.2645203 -0.8768936
vn -0.7267462 0.39385 -0.5627807
vn 0.9955658 0.02191503 0.09147946
vn 0.9991821 -0.001372587 -0.04041385
vn 0.9999262 -0.01176045 -0.003023813
vn 0.9829296 -0.009401947 0.1837417
vn 0.9996127 0.01843043 0.02084966
vn 0.9999787 -0.001368803 -0.006385041
vn 0.999943 0.009969389 0.003823525
vn 0.9999545 0.007608017 0.005752961
vn 0.999989 -0.004624714 0.0007360438
vn 0.9999908 -0.003066612 0.002999663
vn 0.9999851 0.004729454 0.002729819
vn 0.9999677 0.003908135 0.007029999
vn 0.9999532 0.006585631 -0.007084438
vn 0.999965 -0.006876097 0.004780376
vn 0.9999722 0.003798832 -0.006418116
vn 0.9999922 0.001172148 0.003787091
vn 0.00479776 0.001184567 0.9999878
vn -0.0009195323 0.0003970447 0.9999995
vn -0.00491452 -0.003250265 0.9999826
vn 0.9999664 0.006538271 -0.004949993
vn 0.9999998 -0.0006795143 -0.0002005981
vn 0.9999958 0.002814833 0.0006404648
vn 0.9999458 0.000969212 -0.01037335
vn 0.9999955 0.0002792522 -0.002984741
vn 0.9999505 -0.009878118 0.001212505
vn 0.9983959 -0.006578988 0.05623536
vn 0.9948032 -0.02744574 0.09804841
vn 0.9999979 0.001220789 -0.00166792
vn 0.9999963 -0.001738048 -0.002119637
vn 0.9999765 -0.006725816 -0.00136762
vn 0.9999919 0.001537639 0.003745603
vn 0.9999987 0.0006074943 0.001481206
vn 0.9999955 -0.0007291914 0.002913333
vn 0.9999757 -0.001971742 -0.006683824
vn 0.9999738 -0.005082607 -0.005153165
vn 0.999996 0.0002362171 -0.002835794
vn 0.9983154 -0.005082423 0.05779808
vn 0.9999533 0.007190976 -0.006458285
vn 0.9999954 0.001154454 -0.002798126
vn 0.9998709 -0.01605085 -0.0007364441
vn 0.3239077 0.1325683 0.9367547
vn 0.5451546 -0.1352014 0.8273615
vn 0.5640874 0.122325 0.816604
vn 0.9994647 -0.02948944 0.01416447
vn 0.9997699 -0.0009536191 0.02142933
vn 0.999843 0.0007399066 0.01770401
vn 0.9999816 -0.0004466811 -0.006040981
vn 0.9996151 0.009486767 0.02606899
vn 0.9999928 -0.003124933 0.002164276
vn 0.9999981 0.001002245 -0.001682307
vn 0.9999986 -0.0003381355 0.001653738
vn 0.999968 -0.007229261 -0.003425823
vn 0.9986486 -0.00212586 -0.05192723
vn 0.9969743 0.002301794 0.07769831
vn 0.999942 -0.00338539 -0.0102228
vn 0.9999903 0.00209668 0.00389887
vn 0.9999725 -0.0003969446 0.007395893
vn 0.999998 0.0008918784 -0.001779327
vn 0.9999816 0.003563855 0.004925649
vn 0.999783 0.02081402 0.0008501929
vn 0.9999676 -0.0072055 0.003576832
vn 0.9991087 0.02756537 -0.03196762
vn 0.9983104 -0.05810202 -0.00079094
vn 0.9999832 -0.003594178 -0.004550891
vn 0.9998165 0.003568058 0.01882093
vn 0.9999805 -0.003569315 0.005128775
vn 0.9999753 -0.006171656 -0.003374828
vn 0.9967907 -0.00554704 0.07985842
vn 0.9999683 -0.005691912 0.005560202
vn 0.9999769 -0.004818943 0.004805192
vn 0.9998944 -0.0007367723 -0.01450631
vn 0.9999747 -0.001776006 -0.006887619
vn 0.9999863 0.001590995 0.005006922
vn 0.9999329 -0.009592357 -0.006500515
vn 0.999919 -0.008576407 -0.009407387
vn 0.9998006 -0.01707513 -0.01035826
vn 0.9999617 -0.0004790999 0.008743453
vn 0.2022224 -0.3189142 0.9259589
vn 0.3429983 -0.09627618 0.9343891
vn 0.9999574 0.005589049 0.007341412
vn 0.9999081 0.004278594 0.01286373
vn 0.9948095 -0.1016609 0.00436052
vn 0.9999365 0.001076707 0.01121939
vn 0.9999714 0.006601736 -0.003696993
vn 0.07178505 0.006089067 -0.9974015
vn -0.04429512 -0.04822579 -0.9978538
vn -0.001762315 0.0009495377 -0.999998
vn 0.4765743 -0.002244777 -0.8791314
vn 0.372915 0.002360232 -0.9278625
vn 0.5965887 0.8025164 -0.007030679
vn 0.968996 0.2469944 -0.006361307
vn 0.9342967 0.3561768 -0.01509334
vn 0.5012088 -0.1857684 -0.8451508
vn 0.9183114 -0.3952948 -0.0211243
vn -0.207204 0.9782955 0.002136217
vn -0.2509622 0.9678196 -0.01852513
vn 0.01003204 0.95201 -0.3059023
vn 0.9999498 0.009018082 -0.004354156
vn 0.9998482 0.01371268 0.01074581
vn 0.9999841 0.005580264 0.0007786307
vn 0.999979 -0.002846046 -0.005828313
vn 0.9998754 -0.007147524 -0.01407007
vn 0.9969319 0.01071228 -0.07753848
vn 0.9502113 -0.004381849 -0.3115752
vn 0.9993352 0.008481964 0.0354583
vn 0.9999771 0.001170217 0.006666094
vn 0.9997299 -0.02116258 -0.009609768
vn 0.9999462 0.005645124 -0.008698251
vn 0.999965 -0.003691814 -0.007506571
vn 0.999962 -0.008570782 -0.00155675
vn 0.9999868 -0.0005814352 0.005110945
vn 0.9999884 -0.00216271 -0.004314219
vn 0.9999825 0.005855997 -0.0007630302
vn 0.9998578 0.009415478 0.01398748
vn 0.998069 0.01370909 -0.06058336
vn 0.9334933 0.01110283 -0.3584229
vn 0.8482821 -0.216815 -0.483124
vn 0.00118156 0.01697196 -0.9998552
vn 0.012477 0.1461363 -0.9891858
vn 0.9997744 -0.01345475 -0.01643423
vn 0.9998848 0.01337748 0.007177863
vn 0.9998693 0.01368314 0.0086152
vn 0.4780048 0.8781065 -0.02098658
vn -0.07705092 0.9969782 -0.009881367
vn -0.07040726 0.9973693 -0.01724195
vn 0.9999043 -0.01332358 0.003713344
vn 0.9999892 0.001493712 0.004411357
vn 0.9999858 0.00459644 -0.00272156
vn 0.9989661 -0.003613578 -0.04531637
vn 0.999977 -0.001947965 0.006506004
vn 0.999213 0.01216415 -0.03775341
vn 0.14943 0.6547507 -0.7409266
vn -0.09267674 0.6921368 -0.7157916
vn 0.1723809 0.9847153 -0.02491206
vn 0.9999948 -0.003178457 0.0003822617
vn 0.9985056 -0.05456649 0.002996969
vn 0.9999844 -0.005502581 0.001040387
vn 0.9999883 -0.001758419 -0.004524851
vn 0.3186699 -0.786698 -0.5287302
vn 0.9999393 0.002105371 0.0108138
vn 0.9995168 -0.002190893 0.03100615
vn 0.9989794 0.006101616 -0.04475319
vn 0.3454496 -0.1676912 -0.9233332
vn 0.9999998 0.0004548174 -0.0005340954
vn 0.9999762 0.005885828 0.003597571
vn 0.9999624 -0.006850026 0.005299341
vn 0.9999505 -0.00942626 0.003194099
vn 0.9999886 -0.001908065 -0.004396011
vn 0.9998555 -0.01696304 -0.001090445
vn 0.9999948 0.002205629 -0.002364081
vn 0.9999252 -0.01157662 0.003946308
vn 0.9730967 -0.009692336 -0.2301929
vn 0.9999955 -0.002028074 0.002182897
vn 0.9999875 -8.148942e-05 -0.004985841
vn 0.9999745 0.005659673 -0.004346925
vn 0.9995135 -0.007542882 -0.03026511
vn 0.999679 0.01056891 -0.02302875
vn 0.9938006 -0.1111765 -0.0001651069
vn 0.002435043 0.001635022 0.9999956
vn -0.0006412645 0.0008099816 0.9999995
vn -0.1532676 -0.01066523 -0.9881272
vn -0.495845 -6.585054e-05 -0.8684111
vn 0.0005172971 0.001615514 -0.9999986
vn 0.006606359 0.0006061405 -0.999978
vn -0.005565458 0.002520189 -0.9999813
vn 0.2203042 0.3785191 -0.8989936
vn 0.02442771 0.003627205 -0.999695
vn 0.4729187 0.8810614 -0.008869593
vn 0.1968113 0.9803801 -0.01096381
vn 0.4082963 0.9126972 -0.01666972
vn -0.1128459 0.9933122 -0.02442871
vn -0.9482377 -0.3174286 -0.009182897
vn -0.9988207 -0.04767093 0.009205485
vn 0.9624243 -0.2715486 -0.0009914703
vn 0.9620242 0.2729098 0.005461536
vn 0.9495119 -0.3132344 0.01764909
vn 0.002771735 -0.001819337 -0.9999945
vn 0.06089185 -0.06578314 -0.9959743
vn 0.2200271 -0.004430153 -0.9754837
vn -0.09558577 -0.9954166 -0.003044277
vn 0.05894435 -0.9980371 -0.0211543
vn -0.01070399 -0.9999414 0.001627342
vn 0.5975813 -0.6121998 0.5177913
vn -0.0663505 -0.9977941 0.002132546
vn -0.02760387 -0.9996187 0.0007393982
vn 0.1669071 -0.8416173 0.5136364
vn 0.04096682 -0.9963862 0.07440498
vn 0.3647549 -0.9262862 0.09459224
vn 0.6797747 -0.7334169 -0.002419106
vn 0.703107 -0.7070773 0.07537989
vn 0.3251512 -0.9456451 -0.005672792
vn 0.3127611 -0.9498244 0.003738537
vn 0.6841869 -0.7293034 0.002217867
vn 0.08562046 -0.9962224 0.01449317
vn 0.3714183 -0.9284648 0.001270289
vn 0.9804496 -0.1962377 -0.01446736
vn 0.9900292 -0.14079 -0.004520751
vn 0.3320548 -0.9432573 -0.002333176
vn 0.680469 -0.7327768 0.0003629283
vn 0.2226504 -0.9748968 0.001688083
vn -0.05439302 -0.998516 -0.002697614
vn -0.0616122 -0.9975453 0.03327725
vn 0.01967344 -0.2929394 0.9559286
vn 0.01532363 -0.5644666 0.8253137
vn 0.02437061 -0.9996924 -0.004609493
vn 0.9784974 -0.2061935 0.005189603
vn 0.9688091 -0.225779 0.1021405
vn 0.1754374 -0.9844906 0.0001984879
vn 0.505815 -0.8624921 0.01608214
vn 0.1833743 -0.9830329 -0.004508598
vn 0.9932302 -0.1153631 0.01360743
vn 0.9121845 -0.4097786 0.0009597825
vn 0.9934719 -0.114021 0.003579055
vn 0.9947307 -0.1022428 -0.007574909
vn 0.9144657 -0.4046613 -0.001245425
vn 0.9117989 -0.4106341 0.001617957
vn 0.9096112 -0.4105622 0.063609
vn 0.9942427 -0.1071441 -0.001283099
vn 0.9121776 -0.4097947 0.0006468838
vn 0.9931642 -0.1165957 0.005494037
vn 0.9995809 0.02722235 -0.009849343
vn 0.7076998 -0.7064724 -0.007590626
vn 0.3321358 -0.9430997 -0.01577852
vn -0.005916333 -0.1491621 -0.988795
vn 0.00222749 0.007603375 -0.9999686
vn 0.9952615 -0.09711716 -0.004791851
vn 0.9939824 -0.108823 -0.01251286
vn 0.9744206 -0.1236843 -0.1876345
vn 0.3267647 -0.9450997 0.00338039
vn 0.6902817 -0.7235407 -0.0002765607
vn 0.6743654 -0.7383956 0.001759251
vn 0.06938448 -0.9975787 0.004747647
vn 0.3468415 -0.93792 -0.002639366
vn 0.04403202 -0.9984106 0.03517713
vn 0.3360184 -0.9418553 0.0006023737
vn 0.6802861 -0.7329268 -0.00538804
vn 0.9064241 -0.419007 -0.05318398
vn 0.5878767 -0.6799901 -0.4381944
vn 0.2641547 -0.9636794 -0.03929707
vn 0.05110681 -0.9986823 0.004658355
vn 0.1288261 -0.3646152 -0.9222037
vn 0.1310062 -0.5821437 -0.8024626
vn 0.9940311 -0.09879899 -0.04627101
vn 0.9140815 -0.4055197 0.002955034
vn 0.9123527 -0.4094048 -0.0004931831
vn 0.02467012 -0.5922602 -0.805369
vn 0.1676877 -0.9791908 -0.1143073
vn -0.05930033 -0.9974685 -0.03924558
vn -0.09843168 -0.9951434 0.00088153
vn 0.9942703 -0.1068947 -0.0003233626
vn 0.9999164 0.0128876 0.001082071
vn 0.008719688 -0.05766182 -0.9982981
vn 0.02065509 -0.2083145 -0.9778438
vn 0.0005170881 0.02890641 -0.9995821
vn 0.6263186 -0.7792923 0.02070075
vn 0.001074935 -0.9604648 -0.2783993
vn 0.3494724 -0.9364518 -0.03044717
vn -0.002222366 -0.0005842544 0.9999973
vn -0.002270168 -0.008554122 0.9999608
vn 2.812728e-05 -4.804366e-05 1
vn -0.9954867 -0.07664039 -0.05596856
vn -0.9985471 -0.04138219 -0.03451246
vn -0.9895564 -0.1320766 -0.05773868
vn -0.9999929 -0.003760332 -0.0001648327
vn -0.9711401 -0.1156151 -0.2086147
vn -0.9922776 -0.1240102 -0.002604082
vn 0.02945717 -0.9995646 0.001641588
vn 0.02606086 -0.9996592 0.001564087
vn 0.2592772 -0.9656201 0.01879672
vn 0.005033172 0.002465194 0.9999843
vn 0.9999974 -0.002239703 -0.0004724577
vn 0.9999962 -0.002673526 -0.0006177343
vn 0.9999876 -0.003921902 0.003060187
vn 0.5123637 -0.0008623434 -0.8587681
vn 0.4997288 0.000187514 -0.866182
vn 0.2159978 -0.9763938 -0.0001963564
vn 0.5060741 -0.8624901 -0.0001029028
vn -0.06194469 -0.07049088 -0.9955872
vn -0.003371404 -0.1665496 -0.9860273
vn -0.0035843 -0.1652307 -0.9862484
vn -0.3674917 -0.9299782 0.009510873
vn -0.2410696 -0.9704891 0.006036409
vn -0.2848487 -0.9585509 -0.006440307
vn -0.7026367 -0.7114667 0.01080492
vn -0.7655344 -0.6431606 -0.01736283
vn -0.645274 -0.7633172 -0.03111801
vn -0.9966288 -0.08198189 0.003158208
vn -0.9913912 -0.1049106 -0.07834046
vn -0.9807013 -0.1954419 -0.00521867
vn -0.07996433 -0.9967937 -0.002820333
vn -0.06736396 -0.9977264 -0.002010292
vn -0.9728792 -0.2313014 -0.002437222
vn -0.003247698 -0.001301329 -0.9999939
vn -0.003919248 0.00131981 -0.9999915
vn -0.02240859 -0.0001936755 -0.9997489
vn 0.2103724 -0.01417189 0.9775186
vn 0.0005163146 -0.03169587 0.9994974
vn 0.01528448 -0.1052759 0.9943256
vn -0.004374652 -0.9967922 0.07991386
vn 0.5190244 -0.03094041 0.8541993
vn 0.007342764 -0.002047802 0.999971
vn 0.001526935 -0.002427378 0.9999958
vn -0.01935275 -0.002260979 -0.9998102
vn -0.1202534 -0.0899376 0.9886609
vn -0.2635263 -0.01882182 0.9644685
vn -0.08690739 -0.1027087 0.9909077
vn -0.5122187 -0.01250515 -0.858764
vn -0.03947709 -0.3456635 -0.9375278
vn -0.4849647 -0.8741349 0.02640929
vn -0.9707976 -0.2386205 0.02474571
vn -0.9782785 -0.2054011 0.02795853
vn -0.005697254 -0.9999834 0.0007545114
vn -0.006290748 -0.9999798 0.0009272062
vn -0.003601383 -0.9999935 0.0001446572
vn -0.007441348 -0.113735 0.9934832
vn -0.006849407 -0.1170495 0.9931025
vn -0.006667798 -0.9999766 0.001528136
vn -0.008411696 -0.9999637 -0.00130014
vn 0.9620506 0.2728101 0.005773603
vn 0.2100172 0.9776781 -0.006192896
vn 0.1951111 0.9807801 -0.001451478
vn 0.214708 0.976648 -0.007688191
vn 0.8535163 0.5210042 0.008032702
vn 0.8536874 0.5207251 0.00795236
vn 0.1901781 0.9817495 0.0001142487
vn 0.01044073 0.01296688 -0.9998614
vn 0.01309528 0.01366287 -0.9998209
vn 0.006336513 0.06692458 -0.9977379
vn 0.003486621 -0.001703683 -0.9999925
vn 0.999992 -0.004003355 -0.0001561665
vn 0.991362 -0.1310913 -0.004060228
vn 0.9999882 -0.004756843 0.0009459679
vn 0.1826216 0.01176242 -0.9831129
vn -0.000951039 0.0009995427 0.999999
vn -0.001147445 0.001809925 0.9999977
vn 0.000117794 -0.01088892 -0.9999408
vn -0.001822103 0.002684857 -0.9999948
vn -0.007082793 -0.005143143 -0.9999616
vn -0.8167132 -0.5769605 -0.009808479
vn -0.6336452 -0.7735856 -0.007696464
vn -0.6755078 -0.7371781 0.0160478
vn -0.4251175 -0.9051342 0.002664266
vn -0.3804909 -0.9246774 0.01408727
vn -0.9379838 -0.3466337 -0.005601584
vn -0.9012138 -0.4330657 0.01635702
vn -0.9912329 -0.1320412 0.004744763
vn -0.007629115 -0.006050247 -0.9999526
vn -0.002458246 -0.001425202 -0.9999959
vn 0.006722312 0.00123557 0.9999767
vn 0.002541436 0.0006116926 0.9999966
vn -0.00967358 -0.007355104 0.9999262
vn -0.03241815 -0.03189683 0.9989653
vn 0.9098403 -0.4148354 -0.01010092
vn 0.7940374 -0.6078312 0.00675568
vn 0.7040602 -0.7100096 -0.01362283
vn 0.01583814 -0.01304516 0.9997895
vn 0.2447879 -0.1796153 0.9527944
vn 0.002297445 -0.002790928 0.9999934
vn 0.4305988 -0.9025221 -0.006199477
vn 0.1712428 -0.9852156 0.005110658
vn 0.4222276 -0.9064569 -0.007738511
vn 0.6260986 -0.7797394 -0.0026306
vn -0.01552783 -0.002505031 0.9998763
vn -0.12753 -0.004145301 -0.9918261
vn -0.9999714 -0.007242649 0.002186794
vn -0.9909571 -0.1340021 -0.006889406
vn -0.9971222 -0.07578969 -0.001765014
vn 0.01012833 -0.00574722 -0.9999322
vn 0.002859125 -0.01984669 -0.999799
vn 0.9230652 0.004079541 -0.3846218
vn 0.5165219 -0.0008021394 0.8562737
vn 0.00579525 0.0002301795 0.9999831
vn 0.582218 -0.8129399 0.01228565
vn 0.793413 -0.6086591 0.00545841
vn 0.8226325 -0.5684116 0.01356668
vn 0.6352452 -0.7723104 -0.0004065786
vn 0.3951471 -0.9184852 -0.01560923
vn 0.2844686 -0.9585901 0.01350934
vn -0.05545692 -0.9983563 0.01446275
vn 0.08168697 -0.9965401 -0.01532676
vn 0.1258314 -0.06847366 -0.9896857
vn 0.4415291 -0.292861 -0.8481065
vn 0.03892323 -0.03139158 -0.998749
vn 0.9318593 -0.3626559 -0.01091584
vn 0.9513956 -0.3079661 0.001780002
vn -0.001027597 -0.005997524 0.9999815
vn -0.003403407 -0.04981743 0.9987525
vn -0.2423294 -0.9701037 -0.01323379
vn -0.3841701 -0.9230875 0.0179681
vn -0.8929539 -0.4501466 -0.001143449
vn -0.9201286 -0.3915797 0.00536507
vn -0.01682631 -0.03023807 -0.9994011
vn -0.700589 -0.7133766 0.01639928
vn -0.7092123 -0.704832 -0.015158
vn -0.4997992 -0.8661131 -0.006986831
vn 0.1732055 0.9846346 0.02223803
vn -0.007687486 0.00347953 0.9999644
vn -9.85732e-05 0.001693342 0.9999986
vn -0.005583833 0.003798708 0.9999772
vn 0.01100724 0.00315347 0.9999344
vn 0.007539238 0.001428922 0.9999706
vn 0.3909302 0.3884818 0.8344193
vn 0.1071903 0.3448562 0.9325151
vn 0.1565631 0.5582301 0.8147804
vn 0.2965866 0.040837 0.9541325
vn 0.0008980265 0.5971538 0.8021262
vn 0.0001640442 0.3205376 0.9472358
vn -0.9967462 0.01453855 0.07928192
vn -0.9889864 0.0125623 0.1474723
vn 0.1287832 0.000524633 0.9916727
vn 0.2559076 0.4354054 -0.8630953
vn 0.9955146 0.09377295 0.01253684
vn -0.3423847 -0.3776688 0.8603134
vn 0.04403347 0.998659 -0.02722584
vn 0.004357637 -0.0008602694 0.9999902
vn -0.002424546 0.0008312335 0.9999967
vn 0.937992 0.3465495 -0.008632037
vn 0.7022399 0.7115505 0.02355759
vn 0.400841 0.916141 -0.003512468
vn 0.2468621 0.9687417 0.02446925
vn -0.0005429917 -0.003322986 0.9999943
vn 0.0004914374 -0.002274547 0.9999973
vn 0.9759079 -0.1233305 0.1799815
vn 0.9927618 -0.1200534 0.00335555
vn 0.989737 -0.1428553 0.003591581
vn 0.6474904 -0.003890809 0.7620636
vn 0.8606246 0.5091038 -0.01176972
vn -0.006678317 0.2801854 0.9599228
vn 0.003885535 0.9999239 0.01171102
vn 0.05273018 0.9982874 -0.02533231
vn 0.01613726 0.999527 0.02618015
vn 0.9218661 0.3875072 0.0009705715
vn 0.944989 0.3269579 -0.009712131
vn 0.8696046 0.493562 -0.0135791
vn 0.06204806 0.07011697 -0.9956072
vn 0.6255839 0.3726718 -0.6853908
vn 0.5819477 0.8122624 0.03958073
vn 0.1274846 0.9915469 -0.02413309
vn -0.6945795 0.7194153 -0.001033462
vn 0.02491998 0.003652479 -0.9996827
vn 0.0051532 0.000979272 -0.9999862
vn 0.1881751 0.9820767 0.01074261
vn 0.3030139 0.9488114 0.08910423
vn 0.2333155 0.9632912 0.1327929
vn 0.9998509 0.0006859336 0.0172522
vn 0.9993755 -0.02304052 0.02679321
vn -0.0008789733 0.0007448392 0.9999993
vn 0.6077039 0.7793677 0.1525842
vn 0.310834 -0.0008776649 0.9504638
vn 0.8727058 0.006425024 -0.4882043
vn 0.9999544 -0.003719792 0.008801579
vn 0.9742583 -0.1234183 -0.1886498
vn 0.2474706 0.003879245 -0.9688876
vn -0.03018641 0.1882766 -0.981652
vn 0.9996481 0.01591497 -0.0212198
vn 0.9999555 -0.008050353 0.004935208
vn 0.9898459 -0.1421402 0.001138655
vn 0.9998817 0.01438071 -0.005455536
vn 0.9999871 0.004947012 0.00118671
vn 0.2773812 0.9589822 -0.05841985
vn 0.01489261 0.7623398 -0.6470057
vn 0.6071887 0.7941796 -0.02450831
vn -0.007071289 -0.1709386 -0.9852563
vn 0.001093623 -0.0001800046 0.9999994
vn 0.9917438 0.01440356 0.1274236
vn 0.9649653 -0.008781309 0.2622305
vn 0.9881931 -0.01691907 0.1522767
vn 0.9937834 -0.1111595 0.006172368
vn 0.9854621 -0.1412457 -0.09441517
vn 0.4304195 -0.2232369 -0.8745881
vn -0.01155263 -0.8861788 -0.4631994
vn 0.9168715 -0.3988365 0.01661719
vn 0.01981635 -0.9997845 0.006185458
vn 0.01988265 -0.1217459 0.9923621
vn -0.2351902 -0.003666863 0.9719425
vn -0.02640529 -0.01097288 0.9995911
vn -0.1099104 -0.6011788 -0.7915199
vn -0.01430192 -0.1023431 -0.9946464
vn -0.003196853 -0.01875128 0.999819
vn -0.9976556 -0.06755581 -0.01093626
vn -0.003011677 -0.9999955 -2.693383e-05
vn -0.04699781 -0.5312262 0.8459255
vn -0.09633293 -0.02572586 -0.9950167
vn -0.01865986 -0.1428275 -0.9895718
vn -0.09331273 -0.1518791 0.9839845
vn -0.1141575 -0.01856012 -0.9932892
vn 0.9942074 -0.004416855 0.1073879
vn 0.9843807 -0.004438135 0.1759973
vn -0.9910804 -0.1331336 -0.005923656
vn 0.5193494 -0.8545619 0.000269866
vn -0.8234844 -0.5668611 -0.02327821
vn -0.268038 -0.9633584 -0.009811666
vn 0.9913313 -0.1313364 -0.003607161
vn 0.006155062 -0.004402253 0.9999713
vn -0.01905554 -0.03599272 -0.9991704
vn -0.1682473 -0.9857089 -0.008418094
vn -0.09782928 -0.995155 0.009791893
vn 0.1111309 -0.9937581 -0.009727637
vn 0.001919835 -0.01811699 0.999834
vn -0.009373168 -0.1160741 0.9931964
vn 0.9268203 -0.3754894 0.003422187
vn 0.006026895 -0.006908986 -0.999958
vn 0.0001159335 0.004405897 -0.9999903
vn 0.02071327 -0.1455808 -0.9891295
vn 0.003332947 -0.00132009 -0.9999936
vn -0.9900057 -0.1409961 -0.002963868
vn -0.1817105 -0.004927498 0.9833398
vn -0.003012603 -0.04174335 0.9991238
vn 0.01829452 -0.02818944 0.9994352
vn 0.01593573 -0.06199865 -0.9979489
vn 0.03043161 -0.2393035 -0.9704679
vn -0.02605273 -0.5802086 0.8140512
f 77//1 35//2 42//3
f 95//4 7//5 1//6
f 2//7 4//8 36//9
f 2//7 37//10 3//11
f 3//11 111//12 1//13
f 14//14 17//15 11//16
f 12//17 14//14 11//16
f 20//18 19//19 17//15
f 19//19 34//20 33//21
f 19//19 28//22 18//23
f 17//15 18//23 81//24
f 17//15 19//19 18//23
f 17//15 60//25 16//26
f 60//25 80//27 16//26
f 16//26 80//27 10//28
f 80//27 60//25 52//29
f 21//30 20//18 14//14
f 14//14 12//17 13//31
f 12//17 78//32 13//31
f 21//30 31//33 34//20
f 33//21 27//34 28//22
f 33//21 28//22 19//19
f 18//23 28//22 32//35
f 8//36 13//37 78//38
f 18//23 32//35 76//39
f 18//23 76//39 81//24
f 13//40 123//41 9//42
f 7//5 120//43 8//44
f 22//45 73//46 76//39
f 25//47 151//48 24//49
f 27//34 24//49 26//50
f 22//45 26//50 23//51
f 28//22 27//34 26//50
f 25//47 29//52 154//53
f 27//34 25//47 24//49
f 27//34 29//52 25//47
f 29//52 27//34 33//21
f 30//54 155//55 154//53
f 31//33 131//56 155//55
f 121//57 119//58 5//59
f 5//59 119//58 90//60
f 119//61 7//5 6//62
f 6//62 7//5 89//63
f 90//60 6//64 89//65
f 41//66 40//67 38//68
f 41//69 38//70 36//71
f 39//72 38//68 40//67
f 77//73 43//74 111//75
f 3//11 37//10 111//12
f 22//45 149//76 70//77
f 73//46 22//45 70//77
f 201//78 198//79 43//74
f 44//80 46//81 202//82
f 46//81 236//83 202//82
f 43//74 194//84 111//75
f 76//39 72//85 74//86
f 61//87 74//86 59//88
f 59//88 74//86 69//89
f 66//90 64//91 75//92
f 75//92 53//93 56//94
f 53//93 75//92 237//95
f 72//85 71//96 74//86
f 70//77 233//97 71//96
f 65//98 67//99 63//100
f 71//96 230//101 67//99
f 67//99 228//102 63//100
f 230//101 228//102 67//99
f 63//100 228//102 227//103
f 65//98 64//91 66//90
f 65//98 63//100 64//91
f 64//91 63//100 237//95
f 63//100 62//104 237//95
f 62//104 226//105 237//95
f 58//106 81//24 74//86
f 79//107 50//108 78//32
f 52//29 50//108 79//107
f 59//88 69//89 57//109
f 59//88 57//109 54//110
f 58//106 59//88 54//110
f 54//110 57//109 55//111
f 58//106 49//112 51//113
f 57//109 66//90 56//94
f 56//94 66//90 75//92
f 53//93 45//114 55//111
f 53//93 46//81 45//115
f 8//36 50//116 44//117
f 50//108 48//118 44//119
f 51//113 49//112 48//118
f 60//25 81//24 58//106
f 35//2 43//120 42//3
f 42//121 43//74 77//73
f 83//122 84//123 87//124
f 89//63 84//125 85//126
f 372//127 370//128 91//129
f 96//130 113//131 112//132
f 91//133 92//134 94//135
f 94//136 87//124 93//137
f 93//138 7//5 95//4
f 91//139 94//136 93//137
f 96//130 112//132 99//140
f 114//141 372//142 97//143
f 372//127 91//129 97//144
f 114//141 97//143 98//145
f 271//146 370//147 372//148
f 97//144 91//129 98//149
f 194//84 108//150 111//75
f 108//150 107//151 110//152
f 109//153 107//154 105//155
f 105//155 100//156 115//157
f 194//84 278//158 108//150
f 108//150 278//158 102//159
f 106//160 100//161 105//162
f 104//163 102//164 101//165
f 101//166 100//161 106//160
f 101//165 273//167 100//168
f 113//169 111//75 110//152
f 112//132 110//170 117//171
f 111//75 108//150 110//152
f 118//172 105//155 115//157
f 110//173 109//153 118//172
f 117//171 110//170 118//174
f 99//140 112//132 117//171
f 114//175 100//176 272//177
f 114//141 271//178 372//142
f 132//179 187//180 186//181
f 188//182 187//180 132//179
f 130//183 132//179 129//184
f 124//185 126//186 134//187
f 134//187 126//186 222//188
f 133//189 124//185 134//187
f 134//187 222//188 224//190
f 137//191 133//189 135//192
f 135//192 133//189 134//187
f 133//189 125//193 124//185
f 133//189 127//194 125//193
f 122//195 121//196 281//197
f 133//189 136//198 127//194
f 136//198 191//199 127//194
f 136//198 133//189 137//191
f 140//200 136//198 138//201
f 138//201 136//198 139//202
f 130//183 129//184 140//200
f 141//203 130//183 140//200
f 141//203 140//200 138//201
f 144//204 142//205 141//203
f 131//56 132//179 130//183
f 131//56 130//183 142//205
f 131//56 142//205 144//204
f 135//192 134//187 146//206
f 146//206 232//207 234//208
f 148//209 147//210 146//206
f 148//209 146//206 234//208
f 149//76 147//210 148//209
f 145//211 137//191 135//192
f 150//212 139//202 151//48
f 151//48 147//210 149//76
f 143//213 138//201 150//212
f 144//204 143//213 152//214
f 154//53 152//214 150//212
f 154//53 153//215 152//214
f 212//216 189//217 177//218
f 124//185 189//217 212//216
f 126//186 124//185 212//216
f 157//219 309//220 31//221
f 281//222 289//223 156//224
f 131//56 144//204 153//215
f 154//53 150//212 25//47
f 129//184 182//225 191//199
f 186//181 182//225 129//184
f 191//199 190//226 125//193
f 182//225 186//181 184//227
f 191//199 180//228 190//226
f 177//218 265//229 269//230
f 187//180 188//182 185//231
f 131//56 173//232 188//182
f 188//182 173//232 183//233
f 187//180 185//231 186//181
f 186//181 183//233 184//227
f 183//233 175//234 184//227
f 184//227 175//234 171//235
f 174//236 169//237 175//234
f 171//235 175//234 169//237
f 180//228 184//227 178//238
f 184//227 171//235 178//238
f 178//238 170//239 165//240
f 177//218 181//241 179//242
f 265//229 176//243 254//244
f 179//242 165//240 164//245
f 179//242 164//245 176//243
f 173//232 131//56 315//246
f 174//236 172//247 169//237
f 169//237 172//247 167//248
f 174//236 173//232 163//249
f 174//236 163//249 162//250
f 167//248 172//247 312//251
f 161//252 160//253 166//254
f 167//248 312//251 161//252
f 166//254 164//245 165//240
f 164//245 251//255 254//244
f 157//219 290//256 302//257
f 166//254 160//253 164//245
f 164//245 160//253 159//258
f 251//255 159//258 358//259
f 315//246 308//260 162//250
f 162//250 308//260 314//261
f 312//251 311//262 161//252
f 311//262 159//258 160//253
f 192//263 383//264 280//265
f 201//78 200//266 199//267
f 199//268 200//269 235//270
f 202//82 324//271 200//266
f 200//269 322//272 235//270
f 193//273 195//274 279//275
f 233//97 231//276 230//101
f 234//208 232//207 233//97
f 232//207 224//190 223//277
f 146//206 224//190 232//207
f 228//102 229//278 225//279
f 229//278 216//280 225//279
f 231//276 223//277 229//278
f 228//102 225//279 227//103
f 225//279 226//105 227//103
f 226//105 215//281 213//282
f 225//279 217//283 226//105
f 222//188 221//284 223//277
f 221//284 219//285 220//286
f 219//285 221//284 209//287
f 221//284 126//186 211//288
f 221//284 211//288 209//287
f 220//286 214//289 216//280
f 219//285 214//289 220//286
f 218//290 207//291 214//289
f 217//283 205//292 215//281
f 214//289 205//292 217//283
f 215//281 205//292 213//282
f 205//292 204//293 213//282
f 204//293 256//294 213//282
f 237//95 213//282 336//295
f 192//263 195//296 196//297
f 211//288 210//298 209//287
f 269//230 210//298 211//288
f 206//299 210//298 263//300
f 192//301 196//302 197//303
f 210//298 208//304 209//287
f 197//303 195//274 193//273
f 207//291 206//299 203//305
f 206//299 261//306 203//305
f 204//293 267//307 256//294
f 203//305 267//307 204//293
f 267//307 203//305 268//308
f 267//307 259//309 256//294
f 194//84 198//310 197//311
f 198//312 199//268 192//301
f 265//229 254//244 253//313
f 266//314 265//229 264//315
f 267//307 268//308 259//309
f 203//305 261//306 268//308
f 206//299 263//300 261//306
f 261//306 257//316 268//308
f 259//317 258//317 256//317
f 258//318 257//316 247//319
f 258//318 245//320 256//294
f 258//318 247//319 245//320
f 336//295 335//321 237//95
f 251//255 252//322 253//313
f 252//322 251//255 242//323
f 248//324 243//325 246//326
f 240//327 238//328 243//325
f 247//319 246//326 244//329
f 245//320 244//329 353//330
f 243//325 239//331 244//329
f 358//259 241//332 242//323
f 241//332 358//259 357//333
f 239//331 238//328 354//334
f 355//335 350//336 238//328
f 210//298 269//230 266//314
f 236//83 335//321 202//82
f 90//337 86//338 281//197
f 390//339 388//340 271//178
f 275//341 383//264 273//342
f 274//343 383//264 275//341
f 278//158 276//344 277//345
f 276//346 274//347 275//348
f 280//265 383//264 274//343
f 279//275 280//349 274//347
f 388//350 391//351 271//146
f 405//352 400//353 402//354
f 402//355 363//356 367//357
f 332//358 333//359 284//360
f 302//257 290//256 309//220
f 290//256 301//361 309//220
f 283//362 387//363 332//358
f 300//364 287//365 296//366
f 296//366 297//367 298//368
f 287//365 295//369 296//366
f 294//370 293//371 297//367
f 285//372 292//373 294//370
f 281//222 316//374 288//375
f 291//376 345//377 292//373
f 386//378 387//363 282//379
f 300//364 288//380 287//365
f 289//381 288//382 300//364
f 288//380 282//379 287//365
f 282//379 286//383 287//365
f 285//372 291//376 292//373
f 288//375 316//374 282//384
f 315//246 309//385 308//260
f 281//386 317//387 316//388
f 314//261 313//389 312//251
f 314//261 308//260 313//389
f 313//389 308//260 306//390
f 313//389 307//391 312//251
f 311//262 307//391 310//392
f 285//372 284//360 333//359
f 293//371 303//393 305//394
f 305//394 306//390 293//371
f 308//260 299//395 306//390
f 298//368 299//395 301//361
f 304//396 346//397 352//398
f 310//392 305//394 304//396
f 159//258 158//399 304//396
f 319//400 405//352 402//354
f 317//387 319//400 402//354
f 318//401 319//400 317//387
f 316//402 317//403 367//357
f 317//403 402//355 367//357
f 450//404 448//405 430//406
f 343//407 344//408 345//377
f 344//408 343//407 342//409
f 343//407 331//410 341//411
f 333//359 332//358 343//407
f 332//358 330//412 343//407
f 330//412 331//410 343//407
f 341//411 338//413 342//409
f 338//413 339//414 342//409
f 331//410 338//413 341//411
f 340//415 339//414 334//416
f 339//414 337//417 334//416
f 328//418 337//417 338//413
f 326//419 334//416 325//420
f 340//415 334//416 336//295
f 348//421 347//422 340//415
f 349//423 342//409 339//414
f 349//423 339//414 347//422
f 350//336 349//423 347//422
f 352//398 346//397 349//423
f 326//419 325//420 387//424
f 387//363 325//425 327//426
f 327//426 325//425 337//417
f 328//418 327//426 337//417
f 387//363 327//426 329//427
f 330//412 329//427 328//418
f 332//358 387//363 329//427
f 332//358 329//427 330//412
f 348//421 340//415 336//295
f 354//334 336//295 353//330
f 350//336 348//421 354//334
f 351//428 349//423 350//336
f 356//429 350//336 355//335
f 357//333 352//398 351//428
f 357//333 351//428 356//429
f 304//396 352//398 358//259
f 322//430 321//431 320//432
f 360//433 359//434 321//435
f 383//264 322//430 320//432
f 410//436 412//437 405//438
f 384//439 362//440 364//441
f 384//439 379//442 362//440
f 362//440 395//443 408//444
f 365//445 395//446 380//447
f 405//438 319//448 86//338
f 366//449 365//450 385//451
f 366//452 367//357 365//453
f 367//454 366//455 386//378
f 377//456 368//457 371//458
f 369//459 373//460 374//461
f 375//462 376//463 374//461
f 370//147 368//464 369//459
f 393//465 384//439 377//466
f 364//441 361//467 376//463
f 384//439 364//441 377//466
f 379//468 378//469 395//446
f 378//469 380//447 395//446
f 381//470 379//442 384//439
f 320//432 434//471 378//472
f 434//471 432//473 378//472
f 386//474 452//475 323//476
f 386//378 323//477 387//363
f 386//474 385//478 428//479
f 447//480 386//474 428//479
f 320//432 379//481 383//264
f 386//474 447//480 452//475
f 394//482 381//483 393//484
f 383//264 382//485 392//486
f 382//485 383//264 379//481
f 392//487 382//488 381//470
f 383//264 392//486 390//339
f 388//350 389//489 391//351
f 391//490 393//491 377//492
f 391//493 389//494 393//484
f 392//487 389//495 390//496
f 401//497 400//353 405//352
f 404//498 399//499 398//500
f 400//353 398//501 399//502
f 403//503 399//499 404//498
f 403//504 397//505 399//506
f 403//504 426//507 397//505
f 404//508 426//509 403//510
f 402//355 400//511 397//505
f 412//437 398//512 401//513
f 397//505 426//507 415//514
f 415//514 414//515 407//516
f 407//517 414//518 413//519
f 413//519 411//520 412//521
f 409//522 406//523 410//524
f 415//514 409//525 408//526
f 412//437 425//527 427//528
f 406//529 413//530 412//437
f 424//531 423//532 421//533
f 422//534 423//535 425//527
f 412//437 422//534 425//527
f 419//536 422//534 412//437
f 419//537 420//538 418//539
f 419//537 421//533 422//540
f 428//479 437//541 447//480
f 432//473 436//542 378//472
f 378//543 431//544 428//545
f 448//546 439//547 434//471
f 430//406 448//405 320//548
f 451//549 450//549 429//549
f 452//475 447//480 451//550
f 443//551 446//552 447//553
f 446//552 443//551 445//554
f 443//551 442//555 445//554
f 444//556 440//557 441//558
f 444//556 441//558 442//555
f 449//559 446//560 445//561
f 447//553 446//552 449//562
f 448//405 451//563 449//562
f 447//480 433//564 438//565
f 440//557 439//566 441//558
f 438//567 439//566 440//557
f 431//544 432//568 437//569
f 439//547 435//570 434//471
f 433//571 434//572 435//573
f 39//72 35//2 77//1
f 1//13 111//12 95//574
f 2//575 7//5 4//576
f 40//67 41//66 4//8
f 4//576 7//5 40//577
f 7//5 39//578 40//577
f 3//579 1//6 7//5
f 2//575 3//579 7//5
f 11//16 17//15 16//26
f 20//18 17//15 14//14
f 19//19 20//18 34//20
f 21//580 15//581 157//219
f 21//580 14//582 15//581
f 60//25 17//15 81//24
f 35//583 39//578 8//44
f 43//120 35//2 8//36
f 20//18 21//30 34//20
f 14//582 13//584 15//581
f 12//17 11//16 78//32
f 31//221 21//580 157//219
f 15//581 9//585 157//219
f 28//22 26//50 32//35
f 9//585 15//581 13//584
f 32//35 22//45 76//39
f 13//40 8//586 120//587
f 11//16 16//26 10//28
f 34//20 31//33 30//54
f 34//20 30//54 29//52
f 11//16 10//28 78//32
f 79//107 10//28 80//27
f 78//32 10//28 79//107
f 9//585 123//588 157//219
f 13//40 120//587 123//41
f 39//578 7//5 8//44
f 7//5 119//61 120//43
f 22//45 23//51 149//76
f 23//51 151//48 149//76
f 151//48 25//47 150//212
f 23//51 24//49 151//48
f 26//50 24//49 23//51
f 22//45 32//35 26//50
f 29//52 30//54 154//53
f 34//20 29//52 33//21
f 30//54 31//33 155//55
f 90//60 119//58 6//64
f 2//7 36//9 37//10
f 4//8 41//66 36//9
f 38//68 39//72 77//1
f 38//70 77//73 111//75
f 37//589 36//71 111//75
f 36//71 38//70 111//75
f 113//131 95//574 111//12
f 70//77 149//76 148//209
f 43//74 198//79 194//84
f 201//78 44//117 202//82
f 44//80 45//115 46//81
f 74//86 71//96 69//89
f 66//90 69//89 65//98
f 53//93 237//95 236//83
f 68//590 69//89 71//96
f 72//85 73//46 70//77
f 72//85 70//77 71//96
f 234//208 70//77 148//209
f 233//97 70//77 234//208
f 71//96 233//97 230//101
f 69//89 68//590 65//98
f 68//590 71//96 67//99
f 65//98 68//590 67//99
f 75//92 64//91 237//95
f 62//104 63//100 226//105
f 226//105 63//100 227//103
f 58//591 74//591 61//591
f 59//88 58//106 61//87
f 8//36 78//38 50//116
f 80//27 52//29 79//107
f 74//86 81//24 76//39
f 76//39 73//46 72//85
f 48//118 47//592 44//119
f 47//592 45//114 44//119
f 52//29 60//25 58//106
f 52//29 58//106 51//113
f 57//109 69//89 66//90
f 58//106 54//110 49//112
f 57//109 56//94 55//111
f 55//111 56//94 53//93
f 49//112 54//110 55//111
f 49//112 55//111 47//592
f 47//592 55//111 45//114
f 53//93 236//83 46//81
f 48//118 49//112 47//592
f 50//108 51//113 48//118
f 50//108 52//29 51//113
f 43//120 8//36 44//117
f 43//120 44//117 201//78
f 82//593 370//128 270//594
f 91//129 370//128 82//593
f 83//122 270//595 84//596
f 270//595 86//597 84//596
f 84//596 86//597 85//598
f 7//5 87//599 84//600
f 88//601 83//122 87//124
f 88//601 270//595 83//122
f 82//602 270//595 88//601
f 89//63 7//5 84//125
f 86//597 89//65 85//598
f 90//60 89//65 86//597
f 95//574 113//131 96//130
f 92//603 82//602 88//601
f 91//133 82//604 92//134
f 93//138 87//599 7//5
f 87//124 94//136 92//603
f 99//605 91//139 93//137
f 87//124 92//603 88//601
f 95//4 99//606 93//138
f 95//574 96//130 99//140
f 98//607 117//171 116//608
f 91//609 99//140 98//607
f 99//140 117//171 98//607
f 100//176 383//264 390//339
f 102//159 278//158 277//345
f 106//610 108//611 103//612
f 107//154 108//611 105//155
f 105//155 108//611 106//610
f 104//613 108//150 102//159
f 101//165 102//164 273//167
f 103//614 108//614 104//614
f 106//610 103//612 101//165
f 101//165 103//612 104//163
f 100//176 273//342 383//264
f 100//176 390//339 272//177
f 112//132 113//131 110//170
f 117//171 118//615 115//616
f 117//171 115//616 116//608
f 105//155 118//172 109//153
f 110//173 107//154 109//153
f 116//617 114//141 98//145
f 115//618 100//176 116//619
f 114//175 116//619 100//176
f 114//141 272//177 271//178
f 131//56 188//182 132//179
f 129//184 132//179 186//181
f 157//219 123//588 290//256
f 119//58 122//620 156//621
f 121//57 122//620 119//58
f 156//621 120//622 119//58
f 156//224 122//623 281//222
f 136//198 128//624 191//199
f 136//198 140//200 128//624
f 145//211 136//198 137//191
f 145//211 139//202 136//198
f 128//624 140//200 191//199
f 140//200 129//184 191//199
f 141//203 142//205 130//183
f 138//201 143//213 141//203
f 143//213 144//204 141//203
f 224//190 146//206 134//187
f 146//206 147//210 135//192
f 147//210 145//211 135//192
f 139//202 150//212 138//201
f 147//210 139//202 145//211
f 151//48 139//202 147//210
f 121//196 5//625 281//197
f 5//625 90//337 281//197
f 150//212 152//214 143//213
f 152//214 153//215 144//204
f 212//216 177//218 269//230
f 124//185 125//193 189//217
f 123//626 120//622 156//621
f 156//627 289//381 123//588
f 153//215 155//55 131//56
f 154//53 155//55 153//215
f 127//194 191//199 125//193
f 125//193 190//226 189//217
f 190//226 180//228 189//217
f 191//199 182//225 180//228
f 189//217 180//228 181//241
f 177//218 189//217 181//241
f 177//218 176//243 265//229
f 185//231 188//182 183//233
f 31//628 309//385 131//56
f 157//219 302//257 309//220
f 186//181 185//231 183//233
f 183//233 174//236 175//234
f 183//233 173//232 174//236
f 182//225 184//227 180//228
f 181//241 180//228 179//242
f 179//242 180//228 178//238
f 179//242 178//238 165//240
f 178//238 171//235 168//629
f 177//218 179//242 176//243
f 176//243 164//245 254//244
f 131//56 309//385 315//246
f 163//249 173//232 315//246
f 172//247 174//236 162//250
f 162//250 314//261 172//247
f 172//247 314//261 312//251
f 171//235 169//237 168//629
f 178//238 168//629 170//239
f 170//239 168//629 166//254
f 165//240 170//239 166//254
f 168//629 169//237 167//248
f 166//254 168//629 161//252
f 168//629 167//248 161//252
f 160//253 161//252 311//262
f 251//255 164//245 159//258
f 162//250 163//249 315//246
f 159//258 311//262 158//399
f 358//259 159//258 304//396
f 195//296 192//263 280//265
f 201//78 202//82 200//266
f 198//79 201//78 199//267
f 192//301 199//268 235//270
f 200//266 324//271 323//630
f 235//631 322//430 192//263
f 279//275 195//274 280//349
f 195//274 197//303 196//302
f 233//97 232//207 231//276
f 231//276 232//207 223//277
f 230//101 229//278 228//102
f 230//101 231//276 229//278
f 229//278 223//277 216//280
f 216//280 223//277 220//286
f 237//95 226//105 213//282
f 215//281 226//105 217//283
f 225//279 216//280 214//289
f 217//283 225//279 214//289
f 223//277 224//190 222//188
f 220//286 223//277 221//284
f 221//284 222//188 126//186
f 218//290 209//287 208//304
f 214//289 219//285 218//290
f 219//285 209//287 218//290
f 214//289 207//291 203//305
f 205//292 214//289 203//305
f 213//282 256//294 336//295
f 126//186 212//216 269//230
f 211//288 126//186 269//230
f 208//304 207//291 218//290
f 197//311 193//632 194//84
f 207//291 208//304 206//299
f 208//304 210//298 206//299
f 198//312 192//301 197//303
f 204//293 205//292 203//305
f 202//82 335//321 324//271
f 264//315 255//633 249//634
f 255//633 253//313 252//322
f 265//229 253//313 255//633
f 264//315 265//229 255//633
f 263//300 266//314 264//315
f 192//263 322//430 383//264
f 263//300 264//315 262//635
f 261//306 263//300 262//635
f 262//635 264//315 257//316
f 261//306 262//635 257//316
f 257//316 264//315 260//636
f 260//636 264//315 249//634
f 260//636 249//634 248//324
f 260//636 248//324 246//326
f 268//308 258//318 259//309
f 268//308 257//316 258//318
f 257//316 260//636 246//326
f 257//316 246//326 247//319
f 256//294 245//320 353//330
f 336//295 256//294 353//330
f 254//244 251//255 253//313
f 255//633 252//322 249//634
f 252//322 242//323 250//637
f 250//637 242//323 241//332
f 251//255 358//259 242//323
f 250//637 241//332 240//327
f 248//324 250//637 240//327
f 249//634 252//322 248//324
f 248//324 252//322 250//637
f 243//325 248//324 240//327
f 247//319 244//329 245//320
f 244//329 246//326 243//325
f 353//330 244//329 239//331
f 243//325 238//328 239//331
f 239//331 354//334 353//330
f 240//327 241//332 238//328
f 238//328 241//332 356//429
f 238//328 356//429 355//335
f 354//334 238//328 350//336
f 269//230 265//229 266//314
f 210//298 266//314 263//300
f 237//95 335//321 236//83
f 270//594 370//128 86//338
f 278//638 193//639 279//275
f 194//84 193//632 278//158
f 272//177 390//339 271//178
f 276//346 275//348 273//167
f 273//167 277//640 276//346
f 276//346 278//638 274//347
f 102//164 277//640 273//167
f 279//275 274//347 278//638
f 405//438 412//437 401//513
f 123//588 289//381 290//256
f 284//360 283//362 332//358
f 301//361 296//366 298//368
f 290//256 300//364 301//361
f 301//361 300//364 296//366
f 297//367 299//395 298//368
f 297//367 296//366 295//369
f 297//367 295//369 294//370
f 295//369 287//365 286//383
f 295//369 286//383 294//370
f 293//371 306//390 297//367
f 293//371 294//370 292//373
f 286//383 283//362 294//370
f 294//370 283//362 285//372
f 293//371 292//373 345//377
f 289//223 281//222 288//375
f 345//377 291//376 343//407
f 290//256 289//381 300//364
f 291//376 285//372 333//359
f 318//401 317//387 281//386
f 313//389 306//390 307//391
f 311//262 312//251 307//391
f 158//399 311//262 310//392
f 310//392 307//391 305//394
f 282//379 387//363 283//362
f 285//372 283//362 284//360
f 291//376 333//359 343//407
f 293//371 345//377 303//393
f 303//393 345//377 346//397
f 304//396 303//393 346//397
f 304//396 305//394 303//393
f 286//383 282//379 283//362
f 307//391 306//390 305//394
f 299//395 297//367 306//390
f 299//395 309//385 301//361
f 308//260 309//385 299//395
f 158//399 310//392 304//396
f 367//454 386//378 282//379
f 367//357 282//641 316//402
f 86//338 319//448 318//642
f 86//338 318//642 281//197
f 452//643 451//644 429//645
f 429//645 450//404 430//406
f 343//407 341//411 342//409
f 338//413 331//410 328//418
f 339//414 338//413 337//417
f 325//425 334//416 337//417
f 335//321 336//295 334//416
f 326//419 335//321 334//416
f 344//408 346//397 345//377
f 347//422 339//414 340//415
f 349//423 344//408 342//409
f 346//397 344//408 349//423
f 351//428 352//398 349//423
f 360//433 321//435 322//272
f 322//272 323//646 360//433
f 200//269 323//646 322//272
f 387//647 323//630 324//271
f 324//271 326//419 387//424
f 324//271 335//321 326//419
f 329//427 327//426 328//418
f 330//412 328//418 331//410
f 350//336 347//422 348//421
f 354//334 348//421 336//295
f 356//429 351//428 350//336
f 357//333 358//259 352//398
f 241//332 357//333 356//429
f 320//648 359//648 430//648
f 320//649 321//435 359//434
f 359//650 429//645 430//406
f 359//650 452//643 429//645
f 360//433 452//651 359//434
f 323//476 452//475 360//652
f 364//441 362//440 361//467
f 361//653 410//436 396//654
f 361//467 362//440 410//524
f 365//655 363//356 395//656
f 395//656 363//356 408//526
f 363//356 415//514 408//526
f 367//357 363//356 365//453
f 86//338 374//657 405//438
f 271//146 371//658 370//147
f 370//147 371//658 368//464
f 371//659 391//490 377//492
f 271//146 391//351 371//658
f 374//657 370//128 369//660
f 377//456 375//661 373//662
f 377//456 373//662 368//457
f 369//459 368//464 373//460
f 405//438 396//654 410//436
f 374//461 373//460 375//462
f 374//657 86//338 370//128
f 405//438 374//657 396//654
f 396//654 376//663 361//653
f 396//654 374//657 376//663
f 377//456 364//664 375//661
f 364//441 376//463 375//462
f 385//451 380//665 428//666
f 385//451 365//450 380//665
f 380//667 378//543 428//545
f 362//440 379//442 395//443
f 382//488 379//442 381//470
f 320//432 378//472 379//481
f 366//455 385//668 386//378
f 390//669 389//489 388//350
f 394//670 392//487 381//470
f 394//670 389//495 392//487
f 393//484 389//494 394//482
f 393//465 381//470 384//439
f 400//353 401//497 398//501
f 404//508 427//671 426//509
f 398//512 412//437 404//672
f 402//355 397//505 415//514
f 363//356 402//355 415//514
f 397//505 400//511 399//506
f 362//440 408//444 410//524
f 415//514 411//673 414//515
f 413//519 414//518 411//520
f 408//444 409//522 410//524
f 406//523 407//517 413//519
f 409//522 407//517 406//523
f 404//672 412//437 427//528
f 415//514 407//516 409//525
f 412//437 410//436 406//529
f 412//521 411//520 415//674
f 416//675 415//674 417//676
f 416//675 412//521 415//674
f 420//677 412//437 416//678
f 427//671 425//679 426//509
f 426//509 425//679 424//531
f 415//514 426//507 424//680
f 424//531 425//679 423//532
f 423//532 422//540 421//533
f 415//514 418//681 417//682
f 418//539 420//538 417//676
f 420//538 416//675 417//676
f 412//437 420//677 419//536
f 421//533 419//537 418//539
f 418//681 415//514 421//683
f 415//514 424//680 421//683
f 320//432 448//546 434//471
f 378//543 436//684 431//544
f 428//479 431//685 437//541
f 439//547 448//546 445//561
f 448//546 449//559 445//561
f 444//556 442//555 443//551
f 447//480 444//686 443//687
f 439//547 445//561 442//688
f 439//547 442//688 441//689
f 451//563 447//553 449//562
f 448//405 450//404 451//563
f 444//686 447//480 438//565
f 444//686 438//565 440//690
f 438//567 433//571 435//573
f 438//567 435//573 439//566
f 447//480 437//541 433//564
f 437//569 432//568 433//571
f 436//684 432//568 431//544
f 433//571 432//568 434//572
