# G1 exterior visual; derived from pinned Unitree/TWIST2 CAD.
v 0.0527572408 0.00569855981 0.00944516808
v 0.0536430813 0.0043903701 0.0094947191
v 0.0400359146 0.0145780966 -0.000521809736
v 0.0409745798 0.0146102365 -0.000576947525
v 0.0432617441 0.013611366 0.000426327373
v 0.0438943654 0.0125573762 0.000305828726
v 0.0423265658 0.0142525462 -0.00114738487
v 0.0441390462 0.00899723452 0.00949569885
v 0.0409749746 0.0145878103 0.00091809273
v 0.0406101197 0.0145818284 0.00200863811
v 0.0423337966 0.0142811053 0.00248894771
v 0.0395009853 0.0145782204 0.00460054539
v 0.0410240442 0.0146169597 0.00385395158
v 0.0409944989 0.0146114314 0.0055209198
v 0.039861396 0.0145656476 0.00834662374
v 0.0409529954 0.0145699726 0.00665850053
v 0.0409779809 0.0146212401 0.00769839576
v 0.0440692976 0.00909359287 0.00642066449
v 0.0440446399 0.010315557 0.000468555634
v 0.0440481864 0.0101430379 0.00262015755
v 0.0440653749 0.0114187468 0.00141050504
v 0.0440724343 0.0111792497 0.00570320664
v 0.0440869257 0.0114144878 0.00367306895
v 0.0440668836 0.0110273985 0.00735041313
v 0.0430429466 0.0121068144 0.00923428033
v 0.0439845063 0.00914596859 0.00858035777
v 0.043241702 0.013626039 0.00377865369
v 0.0432780087 0.0135903787 0.00607885094
v 0.0438902602 0.0125623653 0.00297886296
v 0.0438913368 0.012575129 0.00679715816
v 0.0432365984 0.0136161102 0.00849838089
v 0.0439197645 0.0122404275 0.00857536402
v 0.0423155129 0.0142833088 0.000463079399
v 0.0432250202 0.0136313094 0.00203117146
v 0.042337656 0.0142707173 0.00476647727
v 0.0423354991 0.0142774405 0.00715094199
v 0.0474264957 0.0088464357 0.00943998899
v 0.0457667671 0.0089966096 0.00946490653
v 0.0503288247 0.00776562281 -0.00948162656
v 0.0516033918 0.00686929747 -0.0094893137
v 0.0502799377 0.00780097349 0.00948531087
v 0.0488684811 0.00844691135 0.00949532725
v 0.0534306616 0.00473306561 -0.00949398242
v 0.0526846647 0.0057892683 -0.00943942741
v 0.0516033284 0.00687365374 0.00949289277
v 0.0541299544 0.00338377128 -0.00948351063
v 0.0542321578 0.00312067056 0.00940791611
v 0.0391632617 0.00596277695 -0.00965574291
v 0.0398151055 0.00247890176 -0.00961725693
v 0.0395231545 0.00577443326 -0.0095049534
v 0.0430258811 0.00906655844 -0.0104786484
v 0.0440914333 0.00894829631 -0.00950727705
v 0.0406399891 0.0146130305 -0.009002815
v 0.0401274152 0.0145599432 -0.00765093509
v 0.0399420559 0.0145853478 -0.00505314628
v 0.0409643985 0.0145885246 -0.00518275145
v 0.0409997515 0.0146064805 -0.0071925926
v 0.0400194414 0.0145810051 -0.00300863246
v 0.0410078093 0.0146227553 -0.00286567095
v 0.0440426208 0.0115117822 -0.00970004499
v 0.0440581664 0.00903955754 -0.00940873194
v 0.0440509655 0.00909510907 -0.00602301862
v 0.0440461077 0.0103664529 -0.00736114569
v 0.0440723673 0.0111634592 -0.00571686309
v 0.0440543219 0.00909426995 -0.000516791421
v 0.0440464951 0.0100305751 -0.00353834941
v 0.0440647267 0.011472052 -0.00405366439
v 0.0440694243 0.011253993 -0.000919441343
v 0.0431752093 0.0136773204 -0.00954418071
v 0.0437856987 0.0126915891 -0.00976823736
v 0.043888595 0.0125561785 -0.00613317452
v 0.0432674438 0.013593399 -0.00609818613
v 0.0432513654 0.013629688 -0.00161364232
v 0.0432601124 0.0136165079 -0.00411351072
v 0.0438879728 0.0125714755 -0.0025028463
v 0.0423384979 0.0142724756 -0.00813183188
v 0.0423116051 0.0142925903 -0.00626121182
v 0.0423539132 0.0142445154 -0.00455256505
v 0.0423677973 0.0142502319 -0.00291172462
v 0.0489721559 0.00840779115 -0.00948538631
v 0.0457650796 0.00899814814 -0.00940586627
v 0.0474024341 0.0088535836 -0.00940834731
v 0.0437180586 -0.00858334452 0.012794923
v 0.04101317 -0.00708134566 0.0127545577
v 0.0392922051 -0.00543684 0.00963725895
v 0.0406068563 -0.00670267083 0.00957141351
v 0.0425240062 -0.00785954203 0.00987397134
v 0.0438693799 -0.00822497997 0.00950177386
v 0.0450031683 -0.00849526096 0.0126244156
v 0.0428911969 -0.0079886876 0.0126547124
v 0.0457263142 -0.00849127304 0.00994575396
v 0.054656852 0.00157512713 0.00947054382
v 0.0547987111 -4.22513258e-05 0.0092060985
v 0.0533901751 -0.0115056792 0.01272514
v 0.0546553433 -0.00827489793 0.009500538
v 0.0547768325 -0.0100604184 0.0127471769
v 0.054501716 -0.00850777794 0.00980217662
v 0.0546999201 -0.00853557605 0.0127865495
v 0.0523001067 -0.0125891212 -0.0128715262
v 0.0405510068 -0.0053328136 -0.0128555531
v 0.0401126593 -0.00446808757 -0.00982943736
v 0.0413445309 -0.00568915671 -0.00996031892
v 0.040630199 -0.00537737831 -0.00950148143
v 0.0398374461 0.00202368712 -0.0128886057
v 0.040094126 0.000595474674 -0.0127119636
v 0.0401168875 0.000748086313 -0.00953520462
v 0.0471085533 -0.0057325149 -0.0128898714
v 0.047096394 -0.00569497421 -0.00995900016
v 0.0478214659 -0.00552524207 -0.0128274877
v 0.0477590002 -0.00548426621 -0.00950196479
v 0.0545899831 -0.00549321203 -0.00953086652
v 0.0547990948 -2.01711082e-05 -0.00920660701
v 0.0546468608 0.00161907717 -0.00949277077
v 0.0546689145 -0.00554133765 -0.0128860204
v 0.0534821972 -0.011241707 -0.0128996642
v 0.0546157695 -0.0102802571 -0.0128842872
v 0.0522293001 -0.0125966044 0.0126528703
v 0.0547918975 -0.00991490111 -0.0127164153
v 0.0547995418 -0.00591762224 -0.00921962317
v 0.054798156 -0.00897625182 0.00921174884
v 0.0349187031 0.0145901497 0.000561840192
v 0.036185313 0.0145688923 0.000512368337
v 0.0379235819 0.0145833204 0.000103274164
v 0.0396145172 0.0145513834 0.000981673133
v 0.0370051414 0.00904199202 0.00933226943
v 0.0367909297 0.00888311863 0.0127191423
v 0.0324800387 0.0145811439 0.00161459262
v 0.0336455591 0.0145910056 0.00114000158
v 0.0337232947 0.0145982495 0.00254102424
v 0.0322479419 0.0145575674 0.00439440925
v 0.0329265185 0.0145595195 0.00352144684
v 0.033099357 0.0146044064 0.00556501979
v 0.032497596 0.0145781338 0.00710320286
v 0.0337098651 0.0144892689 0.00850981008
v 0.0338345841 0.0145859635 0.00719629601
v 0.0416427404 0.0143513903 0.00870442577
v 0.0350185968 0.0145726912 0.00255070254
v 0.0362006277 0.0146215325 0.00268642954
v 0.0372201577 0.0145768672 0.00116408907
v 0.0338799618 0.014591245 0.00431885803
v 0.0349410288 0.0145821702 0.00608485704
v 0.0353042968 0.014567256 0.00436471589
v 0.036276605 0.0145932268 0.00612632697
v 0.0368639156 0.0145911183 0.00439825654
v 0.0350982696 0.0145795289 0.00762103824
v 0.038060274 0.00356312003 0.00975104701
v 0.0380342975 0.00356313982 0.0127058579
v 0.0375596471 0.00665142247 0.00952174887
v 0.0382518135 0.00377156935 0.00950310379
v 0.0371743292 0.00862157624 0.00965145417
v 0.0430123173 0.009117282 0.00930047873
v 0.0375636183 0.0145725897 0.0021640074
v 0.0384896398 0.0145799145 0.00154861028
v 0.0375239663 0.0145731224 0.00555349793
v 0.0376992039 0.0145652909 0.00353992614
v 0.0391637869 0.0145769641 0.00329638831
v 0.0397520736 0.0145576363 0.00577097852
v 0.0385495126 0.0145971337 0.00618545897
v 0.0368734635 0.014613633 0.00772607327
v 0.0375271663 0.0145521481 0.0069134268
v 0.0386797488 0.0146121141 0.00769702345
v 0.0397533588 0.0145604927 0.00684459927
v 0.0275695715 0.0145593612 0.00111070299
v 0.0289944131 0.0145731689 0.000482906646
v 0.0240012649 0.0145865679 0.00261903624
v 0.0252183657 0.0145896943 0.00380450767
v 0.025160348 0.0145900957 0.0015596028
v 0.0244142059 0.0145598883 0.00432777265
v 0.025158288 0.0145906135 0.00609234767
v 0.0246715453 0.0145819532 0.00764254481
v 0.0265197717 0.0145773506 0.000958629011
v 0.0270769335 0.0145685207 0.00205272669
v 0.027011238 0.0145651381 0.00566937169
v 0.0267937128 0.0145793408 0.00389694516
v 0.0282331295 0.0145895081 0.00339313177
v 0.0265061725 0.014576545 0.00677417777
v 0.0264254157 0.0145640662 0.00832763687
v 0.0275619961 0.0145957228 0.00722433208
v 0.0293180402 0.0145885861 0.00261428091
v 0.0306093898 0.0145932781 0.00115375733
v 0.0306569971 0.0146057606 0.00219425885
v 0.0279272012 0.0145750577 0.00455836486
v 0.0290530957 0.0145644695 0.00588522479
v 0.0294415075 0.01455973 0.00416806107
v 0.0301279128 0.0145797394 0.00515767885
v 0.0311733261 0.0146003291 0.0037287469
v 0.0288816206 0.0145993037 0.00728375791
v 0.0296524595 0.0144861648 0.00851840153
v 0.0300607067 0.0145806046 0.00677625416
v 0.0306604821 0.0146171367 0.0077522872
v 0.037179593 0.00890212692 0.00950298924
v 0.041808106 0.0134521211 0.00929039996
v 0.0313071795 0.0146013964 0.0061403322
v 0.0384835526 0.00880848244 -0.010592727
v 0.0355041511 0.0144240865 -0.00981839281
v 0.0330422334 0.0145963961 -0.0089817401
v 0.0324175432 0.0145813962 -0.00795579981
v 0.0324164666 0.0145816114 -0.00575259933
v 0.0326303057 0.0145751005 -0.00678358926
v 0.0338602699 0.0145916669 -0.00796858314
v 0.0336914062 0.0145853711 -0.00613068556
v 0.0331124179 0.0145974299 -0.00393661158
v 0.0338983908 0.0145997079 -0.00283371378
v 0.0325024873 0.0145546896 0.000203584787
v 0.0325370021 0.0145765925 -0.00157688395
v 0.0338155665 0.0145926001 -0.000584901893
v 0.0356229283 0.014594757 -0.00904408097
v 0.0349710137 0.0146016469 -0.00722786924
v 0.0362018198 0.0145698292 -0.00606254674
v 0.036824055 0.0145786842 -0.00774506712
v 0.0347619541 0.0145625994 -0.00555182761
v 0.0362126008 0.0145635903 -0.0044784029
v 0.0349760726 0.014602161 -0.00398464641
v 0.0357738771 0.0145724695 -0.00215611677
v 0.0353725031 0.0145723075 -0.00100632163
v 0.037336532 0.0145614715 -0.000897413469
v 0.0394556969 0.00416918518 -0.0128819235
v 0.0387267694 0.00835582148 -0.0128794136
v 0.0386203639 0.00893642753 -0.00956164766
v 0.0390764438 0.00607008487 -0.0128987813
v 0.0390197486 0.00908400211 -0.0105049638
v 0.0379775837 0.0145904114 -0.00911820121
v 0.0417324752 0.0143581731 -0.00989416614
v 0.0376122594 0.0145602478 -0.006543139
v 0.0374810547 0.0145856142 -0.00506612472
v 0.0387327895 0.0145803569 -0.00796030834
v 0.0393459648 0.0145991631 -0.00676239328
v 0.0387513898 0.0145867551 -0.00567993987
v 0.0368384086 0.0145987095 -0.00331395655
v 0.0386428498 0.0145761855 -0.00441514933
v 0.0375980064 0.0145743713 -0.00237396173
v 0.0386565775 0.0146178594 -0.00282881944
v 0.038597133 0.0145663004 -0.000935228309
v 0.0383918695 0.00876871403 -0.0128717078
v 0.04284022 0.0125348615 -0.0105000874
v 0.0317468196 0.014517107 -0.00967524387
v 0.0249108654 0.0145355016 -0.00783400703
v 0.0251265112 0.0145858815 -0.00511321705
v 0.0252323411 0.0146282939 -0.00669392431
v 0.0242853276 0.0145645877 -0.00447559729
v 0.0247811377 0.014581766 -0.00354328565
v 0.0242228806 0.0145943556 -0.00158435619
v 0.0249880608 0.0145568512 1.63234508e-05
v 0.0253477022 0.0146006709 -0.00164941733
v 0.0413430743 0.0135279782 -0.0104743447
v 0.0266347975 0.0145939272 -0.00905944314
v 0.0282343403 0.0146384342 -0.00899098348
v 0.0280921031 0.0145735051 -0.00783250388
v 0.0265269168 0.0145819085 -0.00722018629
v 0.0265019108 0.0145999752 -0.005587711
v 0.0274373814 0.0145869199 -0.0065348139
v 0.0275586881 0.0145662427 -0.00467664003
v 0.0282341745 0.0146101834 -0.0055663283
v 0.0265916344 0.0145709189 -0.00392844155
v 0.0281856749 0.0146077611 -0.00337341893
v 0.0265605133 0.0145871108 -0.00047992426
v 0.0268719364 0.0145586338 -0.00201133662
v 0.0277080033 0.014615627 -0.00162754057
v 0.0298233107 0.0145728625 -0.0089323502
v 0.0309434216 0.0145661104 -0.00808168389
v 0.0289861895 0.0145588182 -0.00639132131
v 0.0299512465 0.014563567 -0.00764221465
v 0.0306684934 0.0146074248 -0.00671134796
v 0.0306270532 0.0145941377 -0.0055077374
v 0.0295881834 0.0145978797 -0.00455256598
v 0.0301949866 0.014578105 -0.00353433634
v 0.0276567917 0.0145733161 -0.000105704072
v 0.0291980784 0.0145851551 -0.00240149745
v 0.0290503521 0.0145911118 -0.00113515952
v 0.030080419 0.0145946797 -0.000547329546
v 0.0303741097 0.0145680653 -0.00205542939
v 0.0312809497 0.014601564 -0.000526688411
v 0.0315179713 0.0145884482 -0.0029730536
v 0.0320238732 0.0145868184 -0.00459332811
v 0.0523101278 -0.0123637877 0.0127962017
v 0.0370349884 -0.00102336064 0.0127991596
v 0.0381962508 -0.00382539677 0.012784509
v 0.0393756516 -0.00558975851 0.0127758337
v 0.0380868912 -0.0034860149 0.00950329565
v 0.0374187678 -0.00160223781 0.0127346292
v 0.0372839309 -6.9517132e-06 0.00994061027
v 0.0375741385 -0.00205705944 0.0096102478
v 0.0375715792 0.00199445593 0.00951977633
v 0.0373218022 0.000858465908 0.0127707142
v 0.037199486 0.0084443083 0.0127988849
v 0.0415837653 -0.0057095564 -0.0128973434
v 0.0200035162 0.0125861578 0.00051870395
v 0.022785075 0.0145851858 0.000569824246
v 0.0241174549 0.0145723382 0.0006448403
v 0.0193948094 0.00888981484 0.0127084479
v 0.0198093746 0.010806663 0.00300511974
v 0.0198340844 0.011313091 0.000236707943
v 0.0198198464 0.00999450032 0.0073448522
v 0.0198254362 0.0111025944 0.00557215
v 0.0198650509 0.0121906605 0.00748150423
v 0.0199513696 0.0118758548 0.00860659778
v 0.0208877344 0.00906119961 0.00931272469
v 0.0210117064 0.012340487 0.0093015926
v 0.0200195201 0.0125737917 0.00245792535
v 0.0206564646 0.0136136794 0.00117990584
v 0.0206539351 0.0136077208 0.00375462277
v 0.0216376092 0.0142977145 0.00101459678
v 0.0200236011 0.012582602 0.00416239724
v 0.0200402196 0.0126110455 0.00569915911
v 0.0206483901 0.0136182839 0.00595884165
v 0.0206141323 0.0135246217 0.0085439831
v 0.0216402058 0.0142999161 0.00570065156
v 0.0220955051 0.0143523943 0.00870352425
v 0.0222963933 0.0134917442 0.00926985592
v 0.0216774605 0.0143329706 0.00318914768
v 0.0228143781 0.0145860594 0.00504468475
v 0.0216479916 0.0143290106 0.00733380485
v 0.0227621272 0.0145720672 0.00710290344
v 0.0228195563 0.014598879 0.00261938921
v 0.024152685 0.0145859383 0.00607737619
v 0.0189715195 0.00540740695 0.00951866247
v 0.0188276116 0.00548960874 0.0127726011
v 0.0189661216 0.0058005359 0.0125687933
v 0.0190328415 0.0086297458 0.00956571847
v 0.0190298688 0.00851246063 0.0127970576
v 0.0199192762 0.00890876632 0.00949084759
v 0.0169901103 0.00548891257 -0.00951366965
v 0.017183464 0.00549423415 -0.0128969112
v 0.0192903336 0.00878367387 -0.012890866
v 0.0192210749 0.00866110343 -0.00955444481
v 0.0206809901 0.00882387441 -0.0106163062
v 0.019882571 0.0117796548 -0.00974456593
v 0.0199637637 0.00886467937 -0.009851126
v 0.0209147967 0.00927588902 -0.0104993135
v 0.0209363382 0.0121875266 -0.0104876533
v 0.0198241528 0.0101351831 -0.00747015374
v 0.0198355149 0.0098617794 -0.00490234885
v 0.0198624134 0.0118412394 -0.00657323841
v 0.0198819749 0.0122641306 -0.00502343802
v 0.0198352225 0.00984978117 0.00077064411
v 0.0198103283 0.0108894147 -0.00238508685
v 0.0200214218 0.0125823896 -0.00875365641
v 0.0206723902 0.0135265021 -0.00980837923
v 0.0206358731 0.0135884797 -0.00837688427
v 0.0222554635 0.0143680433 -0.00988643058
v 0.0223496929 0.0134851346 -0.0104946215
v 0.0199894141 0.0125318617 -0.0071070902
v 0.0206517112 0.0136187114 -0.00631334679
v 0.0200500209 0.0126306396 -0.00346120168
v 0.0206780527 0.0136385895 -0.00426220987
v 0.020006597 0.0125513105 -0.00146299531
v 0.0206415523 0.0136231836 -0.000853117905
v 0.0216410458 0.0143273743 -0.0086825015
v 0.0231093038 0.0146085387 -0.00906904228
v 0.0216465238 0.0143023245 -0.00654305983
v 0.0216656812 0.014326633 -0.00500533963
v 0.0227840487 0.0145628685 -0.00471811648
v 0.0216760673 0.0143357636 -0.00285988324
v 0.0228083525 0.0145813199 -0.00353099313
v 0.0216512568 0.0143225612 -0.000690023531
v 0.0227998085 0.014577874 -0.00106027548
v 0.0227756165 0.0145800868 -0.00768584479
v 0.0252130106 0.0145792486 -0.00923442561
v 0.0227899663 0.0146015203 -0.00613525975
v 0.0240340754 0.0145792253 -0.00717397174
v 0.024184769 0.0145629831 -0.00573474355
v 0.0229014475 0.0145683866 -0.00227471301
v 0.0185471773 0.00638864376 -0.0128697837
v 0.0190342665 0.00736288307 -0.0128881596
v 0.0184673425 0.00626289658 -0.00953059644
v 0.0190558806 0.00740590785 -0.0095330691
v 0.0135900099 -0.00698105106 0.0127530722
v 0.0135213165 -0.00551862177 0.00925896969
v 0.0186445415 -0.00701056048 0.0126477182
v 0.0199956894 -0.00509717828 0.00949790981
v 0.0199993774 0.00913622975 0.0087020928
v 0.0190335214 -0.0124265719 0.00955439359
v 0.0190356988 -0.0123234168 0.0127975764
v 0.0194010586 -0.0125927497 0.0126508083
v 0.0190088954 -0.00749651249 0.00955500267
v 0.0189835373 -0.00708094751 0.0127994362
v 0.0200062227 -0.0125996517 0.00943503808
v 0.019982107 -0.00706742425 0.00941065419
v 0.0136003159 -0.00699266046 -0.00950712431
v 0.0131659983 -0.00509320851 -0.00949965604
v 0.0135035608 -0.00678678881 -0.00921984483
v 0.0135512408 -0.00550174154 -0.00926167518
v 0.0194442905 -0.0070003341 -0.0089077102
v 0.0186644793 -0.00700103212 0.00942299515
v 0.0199982841 -0.00510247936 -0.00948319118
v 0.0197553709 -0.00549255637 -0.00925579015
v 0.0197615325 -0.0054963273 0.00925912056
v 0.0199948363 0.00886838604 -0.00940625928
v 0.0191063546 -0.0120118177 -0.0127191897
v 0.0193702448 -0.0125730215 -0.0128935613
v 0.019164905 -0.012425933 -0.00956734177
v 0.0190631002 -0.00871524122 -0.0128830317
v 0.0190883558 -0.00901226141 -0.00957647339
v 0.0199665744 -0.00709428731 -0.00943057146
v 0.0173747465 -0.00700130966 -0.0128507307
v 0.0185178947 -0.007885064 -0.00952142943
v 0.0173685215 -0.00706101442 -0.00945602264
v 0.0200025681 -0.0125953937 -0.00947565306
v 0.0400735363 -0.00435070321 -0.0128995534
v 0.0134627549 -0.00550657837 0.0125957169
v 0.0132312886 -0.00548654515 0.00950144883
v 0.0137645612 -0.00539053325 0.0127988653
v 0.01865693 0.00550251221 0.00961372256
v -0.00550134853 0.000342479121 0.00972176157
v -0.00454337057 -0.00310998363 0.00951771252
v -0.00494750496 -0.00242723571 0.0127776982
v -0.00373487407 -0.00404846808 0.0127721187
v -0.00307436893 -0.00457412703 0.00951640215
v -0.00525121391 -0.00162781146 0.00951347314
v -0.00548635237 -0.000360182457 0.012766229
v -0.00529575907 0.00154369394 0.0127804866
v 0.000101148398 -0.00549811171 0.00962138642
v -0.0022157873 -0.00501438044 0.0127956783
v -0.00152178691 -0.00527420314 0.00950611662
v -0.000443480647 -0.00547755463 0.0127257835
v -0.0022015518 0.00502476748 0.0127991252
v -0.00511659076 0.00199307082 0.00951798912
v -0.00435329089 0.0033255436 0.00951322354
v -0.00466113165 0.00288151065 0.0127906185
v -0.00370860402 0.00407297444 0.0127130514
v -0.00319405785 0.00448956294 0.00952227693
v -0.00156899483 0.00526099792 0.00950218365
v -0.000473267486 0.00548267318 0.0127356136
v 6.7148052e-05 0.00549824303 0.00962124486
v 0.0179879479 -0.00680791074 -0.0128989862
v 0.00519237015 0.00549318688 -0.0128957788
v 0.00502413698 0.00549194915 -0.00952705182
v 0.00422301702 0.00698597543 -0.0128788939
v 0.00435740221 0.00608239276 -0.00954958051
v 0.00421144441 0.00698680477 -0.00950976927
v -0.00632869685 -0.00302608288 -0.0095161777
v -0.00538755907 -0.00444171485 -0.0128886122
v -0.00699937576 -0.000533732818 -0.0128904637
v -0.00698062265 0.000622321735 -0.00950296689
v -0.00635295175 -0.0029618002 -0.0128966561
v -0.00690786168 -0.00104792719 -0.00950024743
v -0.00294202822 -0.00636869576 -0.0128746508
v -0.00291003822 -0.00637395913 -0.00950162858
v -0.00434169453 -0.00546978973 -0.0128824869
v -0.00488687679 -0.00501956278 -0.00951202307
v 0.00440850994 0.00597276445 -0.012899668
v -0.000577290601 -0.00697675021 -0.012899234
v -0.000750570733 -0.00698784878 -0.00952718966
v -0.0065745241 0.00241215713 -0.0128882453
v -0.00638190471 0.00288272207 -0.00951734651
v -0.00546290819 0.00436849426 -0.0128214778
v -0.00496396283 0.00495138252 -0.00952154212
v -0.00450829463 0.00532817189 -0.0128857549
v -0.00301325251 0.00632837834 -0.0128808729
v -0.00292144227 0.00636060676 -0.00951120351
v -0.000776288158 0.00696375035 -0.00952915847
v -0.000814306084 0.00696365489 -0.0128909266
vn 0.4916348 0.1697057 0.8541049
vn 0.02791907 0.01325306 0.9995224
vn 0.04688453 0.008306012 0.9988658
vn 0.2442574 0.201328 0.9485807
vn 0.005409647 0.008107281 0.9999526
vn 0.86998 0.4930862 0.0008399835
vn 0.854515 0.5194258 -0.0009657483
vn 0.7739307 0.6332699 0.0007173829
vn 0.928109 0.372306 -0.001400252
vn 0.9388293 0.3443825 0.0004888137
vn 0.982847 0.1815192 -0.03259676
vn 0.7646645 0.6444286 -0.0002436241
vn 0.001728878 0.0003360431 0.9999985
vn 0.004866077 0.00584579 0.999971
vn 0.3432747 0.939235 0.0001991175
vn 0.1826122 0.983185 -0.0001955147
vn 0.1799722 0.9836717 0.00014327
vn 0.4971292 0.8676765 0.0001524161
vn 0.3527974 0.9356996 -0.0005128224
vn 0.05547335 0.9984596 0.001048512
vn 0.04475623 0.998998 0.0001660358
vn 0.01933194 0.163664 0.9863268
vn 0.001815969 0.006517885 0.9999771
vn 0.004807569 0.01176551 0.9999192
vn 0.00455683 -0.001350133 0.9999887
vn 0.4223154 0.9064326 0.005436953
vn 0.4595305 0.887648 0.03021114
vn 0.7386896 0.6700749 0.0730558
vn 0.7298403 0.6836085 -0.003569575
vn 0.7311636 0.6822022 -6.639578e-05
vn 0.4069639 0.9134323 -0.004672958
vn 0.1127906 0.9935625 -0.01057489
vn 0.4164734 0.9091469 0.001294745
vn 0.4122189 0.9110789 -0.003271913
vn 0.7339653 0.6791796 0.003155916
vn 0.7102894 0.7038177 0.01138728
vn 0.9691635 0.239408 0.05836052
vn 0.9288013 0.369871 0.02287947
vn 0.99824 0.04498861 0.03863842
vn 0.9980497 0.0623581 0.002887627
vn 0.9372801 0.3485745 -0.001414037
vn 0.996888 0.07837979 0.008422961
vn 0.9977105 0.06755268 -0.003257739
vn 0.9420224 0.3355499 -6.188366e-05
vn 0.9981466 0.06085406 0.0004678012
vn 0.5273258 0.8482605 0.04880194
vn 0.159131 0.9690589 0.1886857
vn 0.9595309 0.281552 0.005357877
vn 0.3715329 0.1284745 0.9194877
vn 0.5959405 0.01217786 0.8029363
vn 0.5775464 0.1588594 0.8007521
vn 0.1630394 0.3293062 0.9300407
vn 0.1682085 0.568145 0.8055539
vn 0.9981205 -0.003713413 0.06116913
vn 0.999981 -0.004837056 -0.003821261
vn 0.9861248 0.02706049 0.1637856
vn 0.9808617 0.1947056 -1.199396e-05
vn 0.999974 -0.006215475 0.003655637
vn -0.02272085 0.9997036 0.008741152
vn -0.0009893576 0.9999858 0.005243828
vn -0.004310887 0.9999901 -0.001073948
vn 0.09703566 0.9952565 -0.006958243
vn 0.09749614 0.994168 0.04609143
vn 0.01163911 0.9655432 0.2599823
vn 0.1148556 0.9929688 0.02865636
vn -0.01078711 0.9999403 0.001728228
vn 0.05861999 0.9982786 -0.001863961
vn 0.1002436 0.9948526 0.01481862
vn 0.1066544 0.9942778 0.006032449
vn -0.004243412 0.9999908 -0.0007220859
vn 0.03929657 0.2748896 0.9606724
vn -0.3331196 0.1609805 0.9290407
vn -0.003162202 0.8884069 0.4590459
vn 0.003574384 0.001080179 0.999993
vn 0.7269093 0.6867257 0.00326616
vn 0.7132188 -0.1552885 0.6835235
vn 0.03890889 0.01567699 0.9991198
vn 0.9412568 0.3376839 0.002272211
vn 0.9848526 0.1710883 0.02818436
vn 0.9707546 0.02452706 -0.2388178
vn 0.005651199 0.009505033 -0.9999388
vn 0.0002216413 0.001094933 -0.9999994
vn 0.0002783597 0.001481005 -0.9999989
vn 0.005564563 0.01813595 -0.9998201
vn 0.6456887 0.7636007 0.0002624773
vn 0.5035368 0.8639737 -0.0003809071
vn 0.3039516 0.2619872 -0.9159564
vn 0.01219265 0.008475562 -0.9998897
vn -0.007783681 0.9999683 -0.001661165
vn -0.0120777 0.9999247 -0.002173236
vn -0.001494238 0.9999987 0.0005660065
vn 0.1126029 0.9936388 0.001602296
vn 0.4154646 0.9095856 0.006579339
vn 0.09418663 0.9955528 -0.001874422
vn 0.4095029 0.911927 -0.02639019
vn 0.06600174 0.9919611 -0.1079679
vn -0.01411545 0.9998632 0.008617624
vn -0.004230446 0.9999625 0.007556293
vn 0.002307595 0.9999552 -0.009179783
vn 0.2502671 0.8214825 -0.5123794
vn 0.001795092 0.9922488 -0.1242543
vn 0.1532117 -0.98449 -0.0854731
vn 0.002796147 -0.9918576 -0.1273211
vn 0.003389899 -0.9922115 -0.1245188
vn 0.01128567 0.2934561 -0.955906
vn 0.2092278 0.03607518 -0.9772013
vn 0.0263362 0.00534303 -0.9996389
vn 0.6862505 0.08541068 -0.7223333
vn 0.6782479 0.08495972 -0.7299052
vn 0.4266352 0.09515964 -0.8994038
vn 0.9845049 0.1753284 -0.003151733
vn 0.9841791 0.1770289 -0.007231459
vn 0.9847238 0.173964 -0.007455402
vn 0.9838248 0.1782777 -0.01748591
vn 0.9840683 0.1770884 -0.01579038
vn 0.04295638 -0.005648371 -0.999061
vn 0.5964552 0.02784958 -0.8021631
vn 0.6704659 -0.04293229 -0.7406971
vn 0.3628305 -0.01512494 -0.9317324
vn 0.9941317 0.1080841 -0.00446054
vn 0.999981 -0.004166352 -0.004532974
vn 0.9999906 -0.004313881 0.000174279
vn 0.9985949 0.05276333 -0.00491304
vn 0.9971079 0.0759985 0.0001537228
vn 0.9968681 0.07907796 -0.0008521979
vn 0.4467175 0.4934456 -0.7462942
vn 0.3325141 0.2028597 -0.9210224
vn 0.9430085 0.3327245 -0.005410776
vn 0.9279861 0.3724087 -0.01239547
vn 0.7387864 0.6739352 -0.002438343
vn 0.6913301 0.7214648 -0.03938607
vn 0.4191269 0.9079232 -0.002852521
vn 0.7316163 0.6817043 -0.004098442
vn 0.4259904 0.9047276 -0.0004049778
vn 0.1123712 0.9936593 -0.003751816
vn 0.04382351 0.3767554 -0.9252755
vn 0.01900861 0.7367628 -0.6758842
vn 0.01937422 0.2361146 -0.9715321
vn 0.02424912 0.9997037 0.002134368
vn 0.001767077 0.9999984 0.0002003138
vn -0.0009909156 0.01236048 0.9999232
vn 0.0005497724 -0.150272 0.9886445
vn -0.0004445471 0.004367189 0.9999903
vn 0.7586926 0.6514216 0.005953064
vn 0.5653794 0.8248198 0.004286217
vn 0.6065695 0.793125 0.05501229
vn 0.003151163 -0.007165208 0.9999694
vn 0.268347 0.2300343 0.935454
vn 0.06080694 0.0687236 0.9957809
vn 0.06224077 0.9725326 0.2242904
vn -0.003577555 0.8991895 0.4375448
vn 0.003913144 0.9998859 0.01459113
vn 0.03654508 0.967985 0.2483333
vn 0.2143892 0.9713147 0.1028836
vn 0.2163558 -0.3635964 0.9060838
vn 0.3845631 0.885555 0.2605833
vn 0.3472186 0.6436161 0.6820539
vn 0.115964 0.377833 0.9185829
vn 0.319623 0.6144931 0.7212762
vn 0.09883308 0.3564831 0.9290596
vn 0.3289717 0.9443397 0.0004177167
vn 0.9729077 0.02502313 0.2298354
vn 0.9964104 0.05391505 0.06526532
vn 0.00175754 0.0005999123 0.9999983
vn 0.9953982 0.06755267 -0.06796339
vn 0.9363508 -0.3509145 0.01030988
vn 0.8006083 -0.5991874 -0.0008507617
vn 0.9710571 -0.2387032 -0.008289657
vn 0.01465371 -0.01275279 0.9998114
vn 0.1119427 -0.0698587 0.9912561
vn 0.01046414 -0.02528331 0.9996256
vn 0.7037964 -0.7104002 0.001475916
vn 0.008419558 0.9331529 0.3593812
vn 0.134909 -0.5530045 0.8221834
vn 0.4983332 -0.5733687 0.6503173
vn 0.6847531 -0.7287733 0.001685943
vn 0.705241 -0.7089677 -2.458672e-05
vn -0.08995886 0.9905947 -0.1030998
vn -0.09775206 0.9767267 -0.1909177
vn 0.002468231 0.8374766 -0.5464676
vn -0.1346016 0.9908112 -0.0132493
vn 0.1643583 0.9863851 0.005548699
vn 0.1483002 0.9593287 -0.2401991
vn 0.0004836013 0.02743848 -0.9996234
vn 0.05922716 -0.06260683 -0.9962794
vn 0.0001060692 3.344814e-05 -1
vn 0.6599252 0.02573177 -0.7508906
vn 0.9960838 0.08755156 -0.01231602
vn 0.9759809 0.2178353 -0.003027024
vn 0.9963169 0.08490943 -0.01196141
vn 0.6897613 0.7240061 -0.006666068
vn 0.6740205 0.7386394 0.01040035
vn 0.9624174 0.2713138 -0.01190041
vn 0.0686801 0.07795008 0.9945887
vn -0.137705 -0.009239192 -0.9904302
vn 0.8314586 0.001148391 -0.5555854
vn -0.003422486 0.004613751 -0.9999834
vn -0.004224003 0.005389981 -0.9999766
vn -0.1422196 0.9897459 -0.01329228
vn 0.001538329 0.9999047 -0.01372192
vn -0.00739048 0.3114202 -0.9502435
vn 0.001989576 0.007704266 -0.9999683
vn -0.00244528 0.9403816 0.3401124
vn -0.00781993 0.9995135 0.03019218
vn 0.009404878 0.9997679 0.01938323
vn -0.01708625 0.999854 -9.845261e-05
vn -0.0002256083 0.9999964 -0.002675293
vn 0.0004739479 0.999984 -0.005636619
vn -0.01597715 0.9998683 0.002824894
vn -0.003050211 0.9999894 0.003446822
vn -9.813363e-05 0.9999809 -0.00618348
vn -0.005179104 0.9999213 -0.01142628
vn -0.000569933 0.9999997 0.0006249534
vn -0.0001185439 0.999798 -0.02009821
vn 0.2212569 0.824266 0.5211822
vn -0.2413787 0.8230232 0.5141684
vn 0.007371407 0.9999727 0.0005615948
vn -0.00504647 0.9999846 -0.002331236
vn -0.003268771 0.9999908 -0.002750244
vn 0.003307419 0.9999911 -0.00262374
vn 0.008160359 0.9999661 -0.001095515
vn 0.0009132526 0.9999992 -0.0008898221
vn -0.003084866 0.9999934 0.001899111
vn -0.009167816 0.9998864 -0.01196672
vn 0.004304594 0.9998738 -0.01529074
vn 0.004336814 0.999832 0.01781161
vn 0.01179054 0.9999295 0.001379843
vn 0.01307289 0.9999134 0.001524933
vn 0.01161542 0.9999245 0.004008445
vn 0.002321063 0.9999731 0.006949768
vn 0.008793862 0.9999608 -0.001140098
vn 0.002663574 0.9999706 -0.007199872
vn -0.001749353 0.999992 -0.003601373
vn -0.001288689 0.6160469 0.7877085
vn 0.9724357 0.1504627 0.1781284
vn 0.9782741 0.08232413 0.1902696
vn 0.9917423 0.0449412 0.1201146
vn 0.9845585 0.1741097 0.01817905
vn 0.9026968 0.4296985 0.02230495
vn 0.007547764 0.05771358 0.9983047
vn 0.1124191 -0.002283666 0.9936582
vn 0.0985787 -0.002106163 0.995127
vn 0.9569973 -0.1286421 0.2600144
vn 0.7796457 0.02773786 0.6256062
vn 0.9985702 -0.05340435 0.002367566
vn 0.9936635 -0.1119172 -0.0103676
vn 0.957394 0.005498317 0.2887327
vn -0.01107549 0.9993448 0.03445793
vn 0.006609055 0.9999731 -0.003173548
vn -0.005171247 0.9998682 0.01539165
vn -0.006604429 0.9999772 0.001441529
vn -0.003984565 0.9999787 -0.005175521
vn 0.00139039 0.9999914 -0.003919884
vn -0.001694175 0.999998 -0.001040064
vn -0.005158611 0.9715073 0.2369534
vn -0.01820641 0.9978786 0.06250536
vn 0.003575031 0.9999712 -0.006689751
vn 0.001413239 0.9999911 0.003965705
vn 0.003919814 0.9999798 -0.004989369
vn 0.001316229 0.9999966 0.002273156
vn -0.007113525 0.9998874 0.01321438
vn 0.02723848 0.9996206 0.004085669
vn -0.006354575 0.9999648 0.005478587
vn -0.001447913 0.9999356 0.01125106
vn 0.002456633 0.9999969 0.0005707014
vn 0.006774183 0.999977 0.0002654541
vn 0.005705617 0.9999831 0.001048201
vn -0.003410785 0.9999934 0.001205631
vn 0.0009117674 0.9999642 -0.00841525
vn -0.007727363 0.9999684 0.001858058
vn -0.002187278 0.9999884 -0.004288848
vn 0.008156314 0.9998893 0.0124447
vn -0.003685322 0.9999931 0.000175287
vn -0.003670962 0.9999923 0.001420023
vn 0.009458153 0.9998645 0.01347357
vn 0.001259677 0.9999661 0.008142841
vn 0.0153692 0.9995046 0.02746516
vn -0.01038363 0.9999295 0.005746908
vn -0.003316193 0.9327745 0.3604452
vn -0.02380299 0.9979542 0.05933603
vn 0.004277872 0.9999908 0.0003806011
vn -0.1198193 0.9878142 0.09932946
vn -0.1182782 0.3256254 0.9380716
vn -0.001900404 0.9999981 -0.0005107561
vn 0.002941912 0.9999956 0.0001458989
vn -0.007528258 0.9999656 -0.003469485
vn 0.006150841 0.999933 -0.009799854
vn -0.0006017543 0.9999908 0.004248802
vn -0.001042164 0.9999667 0.008096764
vn -0.003119276 0.9999683 -0.007322676
vn 0.004719048 0.9999854 0.002612883
vn 0.0004652612 0.9999952 -0.00309791
vn -0.0002963503 0.9998853 0.01514044
vn 0.005502003 0.9999848 -0.0001831083
vn -0.00611706 0.9999653 0.005648096
vn 0.003998869 0.9998268 -0.01818189
vn 0.001324888 0.999863 -0.01650619
vn 0.003927491 0.9978632 -0.06522049
vn -0.0005798899 0.999997 -0.002380989
vn -0.01035128 0.9999089 0.008656894
vn -0.01245828 0.9022602 -0.4310121
vn -0.2203919 0.8268853 -0.5173857
vn -0.002335845 0.9500178 -0.3121871
vn 0.08281373 0.3296185 -0.9404752
vn -0.1174096 0.325105 -0.9383612
vn -0.008570337 0.9999064 0.01066505
vn 0.001359556 0.04154193 -0.9991359
vn -0.2833389 0.1670253 -0.9443631
vn 0.0008073673 0.9998459 -0.01753621
vn -0.03023653 0.9995424 0.0008709889
vn -0.2533904 0.9423715 -0.21847
vn 0.005496814 0.999966 0.006147891
vn -0.007301745 0.9999714 -0.001986167
vn -8.225938e-05 0.9999767 -0.006828174
vn -0.006153928 0.9999683 0.005042001
vn -0.004717933 0.9999859 -0.002415299
vn 0.005092105 0.9999396 0.009739165
vn 0.001847935 0.9999853 0.0051121
vn -0.03732676 0.992321 -0.117923
vn 0.003763129 0.01262588 -0.9999132
vn 0.1759499 0.03259133 -0.9838594
vn -0.001019751 -0.0003066757 -0.9999994
vn 0.005054113 0.9999627 0.006997578
vn 0.08488932 0.00850111 -0.996354
vn 0.0003977381 -0.0006038489 -0.9999997
vn 0.01292627 0.9998761 -0.008977742
vn -0.002998595 0.999995 -0.001031958
vn 0.006440897 0.9998082 0.01849598
vn 0.02556694 0.9995228 0.01733548
vn -0.002852837 0.9960315 -0.08895557
vn 0.002475884 0.9998168 -0.01897766
vn 0.00296963 0.9999704 -0.007104628
vn 0.004333596 0.999751 -0.0218841
vn -0.008722181 0.9999332 -0.007575197
vn 0.005968823 0.9999622 0.006328719
vn -0.0110219 0.9999325 -0.003663118
vn 0.01665538 0.9998587 0.002274794
vn 0.005754023 0.9999607 0.006736787
vn 0.006088526 0.9999776 0.002789086
vn -0.03112521 0.9994779 0.008676266
vn 0.002024957 0.9999925 -0.003322312
vn -0.01139649 0.999931 -0.002814427
vn -0.007363627 0.9999551 -0.005968312
vn -0.001836909 0.9999958 -0.002210181
vn 0.004029974 0.9999834 0.00410579
vn -0.00455626 0.9999036 -0.01311588
vn -0.003936313 0.9999654 0.007338962
vn -0.008880654 0.99995 0.004613176
vn -0.004112321 0.998906 -0.04658191
vn -0.009418125 0.9999532 0.002217876
vn 0.0001457632 0.9999956 0.002952565
vn -0.001714111 0.999998 -0.001072882
vn -0.007378458 0.9915324 -0.1296495
vn -0.0002377353 0.9999998 -0.000409989
vn 0.01515512 0.9986996 0.04867552
vn -0.00326324 0.9999826 -0.004927147
vn 0.00232967 0.2501692 -0.9681994
vn -0.02193714 0.9995924 0.01826646
vn -0.06580212 0.991484 -0.1123812
vn 0.03222414 0.9994793 0.001616811
vn 0.008573062 -0.00127708 0.9999624
vn -0.0002616973 -0.0016082 0.9999987
vn 0.9809237 0.1943848 -0.001777311
vn 0.904275 0.4267784 0.01212069
vn 0.7906118 0.1727184 0.5874533
vn 0.7769774 0.629279 0.01772222
vn 0.8938084 0.4483691 0.008462505
vn 0.3525624 0.1304275 0.9266545
vn 0.07461607 0.000802805 0.997212
vn -0.3294116 -0.9441118 0.01187336
vn -0.04947264 -0.9987431 -0.008052566
vn 0.0001085574 -1 -0.0001400134
vn -0.0005434963 -0.4792211 0.8776941
vn -0.01919781 0.05853936 -0.9981005
vn -0.001176755 0.001072415 -0.9999987
vn -0.005504524 0.01790687 -0.9998245
vn -0.0002432794 0.9999912 0.004188106
vn -0.06540901 0.997838 -0.00640636
vn -0.125915 0.9920147 0.007231959
vn -0.9437504 0.3306146 0.005405033
vn -0.9989253 0.04634875 1.488841e-05
vn -0.9436785 0.3308602 -0.001544331
vn -0.4081563 0.9120956 0.03859999
vn -0.1083122 0.993349 0.0390685
vn -0.408805 0.9126148 -0.003584839
vn -0.1159919 0.9932412 0.004226523
vn -0.4093445 0.9123797 0.0004646261
vn -0.7290912 0.6844154 -0.001214493
vn -0.7295474 0.6839296 0.0009730123
vn -0.1142136 0.9934521 -0.002848946
vn -0.4167369 0.9090264 0.001137856
vn -0.4035299 0.9149629 0.002558626
vn -0.1082366 0.9941251 -0.0003863848
vn -0.0005102672 0.2290677 0.9734103
vn -0.003598317 0.07655441 0.9970589
vn 0.0005635982 0.1797857 0.9837056
vn -0.6715127 0.5923355 0.4452071
vn -0.9976413 0.06834962 -0.006351772
vn -0.9374033 0.3481342 -0.00881336
vn -0.7326299 0.6806172 0.003709083
vn -0.7251327 0.6885976 0.004001718
vn -0.9389899 0.3439448 -8.475077e-05
vn -0.99748 0.07093265 0.001435713
vn -0.1019356 0.9585472 0.2660762
vn -0.1620988 0.5185742 0.8395265
vn -0.8589567 0.1453369 0.4909895
vn -0.5624042 0.02304002 0.8265414
vn -0.9672444 0.2481016 0.05370025
vn -0.995926 -0.08084165 0.0399518
vn -0.9995121 -0.03120775 -0.00127814
vn -0.9949994 -0.09988075 0.000265822
vn -0.0892271 0.01624093 -0.9958788
vn -0.07604488 0.01266376 -0.9970239
vn -0.0002279923 0.9999916 0.004097111
vn -0.9366134 0.3090791 -0.1650016
vn -0.9658897 0.1785423 -0.1875627
vn -0.8996122 0.4337739 0.05038032
vn -0.9997739 0.02113997 -0.002296247
vn -0.9993016 0.02576824 -0.02706088
vn -0.9736954 0.2278538 0.0002158246
vn -0.9765828 0.2151283 -0.002407448
vn -0.9947079 -0.005478447 -0.1025967
vn -0.2301048 0.9730952 -0.01173021
vn 0.2634917 0.9645655 0.01362421
vn 0.3475527 0.9376525 -0.003867207
vn 0.00204469 0.005031981 -0.9999853
vn -0.005437825 0.001234797 -0.9999844
vn 0.0017768 -0.0005446656 -0.9999983
vn -0.4122839 0.9090048 -0.06109086
vn -0.4155745 0.9095475 -0.004599126
vn -0.7341899 0.6786864 -0.01870881
vn -0.7471669 0.6646318 0.002461824
vn -0.1212905 0.9926168 -0.0007071607
vn -0.4025389 0.9154029 0.000175878
vn -0.1114545 0.9937615 0.003980884
vn -0.3988695 0.9170074 -0.0007343178
vn -0.09800568 0.995185 -0.001294279
vn -0.7306851 0.6826952 -0.005149613
vn -0.1012441 0.9948553 -0.003530408
vn -0.9885458 -0.1461984 0.03745824
vn -0.9321451 0.3619559 0.009663881
vn -0.9464751 0.3227337 -0.005263987
vn -0.3494611 0.1374555 -0.9268134
vn -0.9621899 0.2719443 -0.01539175
vn -0.9988679 0.04756773 -0.0005683351
vn -0.1033807 0.9946374 0.002977386
vn 0.05189631 0.9986521 0.0008158024
vn -0.9278489 0.3682439 -0.05909996
vn -0.932874 0.3527159 0.07305969
vn -0.645769 0.5908473 -0.4836131
vn -0.9861358 0.1654145 0.01320068
vn -0.8836153 0.1381322 -0.4473742
vn -0.9973399 -0.07284701 -0.002540475
vn -0.9988919 -0.04586005 -0.01057203
vn -0.9954684 -0.09477361 -0.007795886
vn -0.1157714 0.00218268 0.9932735
vn -0.005158101 0.2139107 0.9768396
vn -0.1670002 0.02174876 0.9857169
vn -0.9500656 0.3119798 -0.006622809
vn -0.7138132 0.7002966 -0.007441909
vn -0.954529 0.2981088 0.002326382
vn -0.2804628 0.9598573 0.003818526
vn -0.7520934 0.6590211 0.006835985
vn 0.003454996 0.003577677 0.9999877
vn 0.0007333234 0.00426994 0.9999906
vn -0.0008039101 0.07766249 0.9969794
vn 0.0007694619 0.004314275 -0.9999904
vn -0.01200222 0.02373967 0.9996461
vn -0.006037909 -0.01396281 0.9998843
vn -0.1151862 8.5819e-05 0.9933439
vn -0.980148 -0.1580223 -0.1197445
vn -0.9972891 -0.07354289 0.002450236
vn -0.9630573 0.2687262 -0.01751625
vn -0.005994684 -0.9999538 -0.007520056
vn -0.07233881 -0.9820038 -0.1744584
vn -0.1491825 -0.9812652 -0.1219147
vn -0.05644247 0.9787792 -0.196991
vn -0.08976348 -0.1286516 -0.987619
vn -0.1086562 -0.08122016 -0.9907559
vn -0.1251283 -0.004461929 -0.9921305
vn -0.05264775 -0.9986109 -0.00211167
vn -0.07157311 -0.9956334 0.05992858
vn -0.09510521 -0.9919801 0.08324966
vn -0.5863402 -0.8096428 0.02614565
vn -0.2150542 -0.9762325 -0.02686537
vn -0.9999646 -0.008193093 -0.00190583
vn -0.9999501 -0.00994935 0.0009878202
vn -0.9975566 -0.06976449 0.003708598
vn -0.01483276 -0.9998869 -0.002521515
vn -0.8274056 -0.5578326 0.06498305
vn -0.9558361 -0.2923675 0.02997716
vn -0.001407126 0.502424 0.8646203
vn -0.003906976 -0.9999906 0.001901825
vn -0.9985029 0.03569803 -0.0414443
vn -0.9637169 -0.1866375 -0.19083
vn -0.001480843 -0.005376115 0.9999844
vn 0.0001430565 -0.005067139 0.9999871
vn -0.1383392 -0.9903757 -0.004273649
vn -0.3705706 -0.9286612 0.01629994
vn -0.1155598 -0.008104313 0.9932675
vn -0.1105766 -0.008867937 0.9938281
vn -0.0545745 -0.05688286 0.9968882
vn -0.1641291 -0.9825152 0.08789518
vn -0.01796229 -0.02612463 -0.9994973
vn -0.7512194 -0.6600187 -0.006690767
vn -0.9267596 -0.3748494 0.0245869
vn -0.9729853 -0.2306198 -0.01067648
vn -0.9755332 -0.2194469 -0.01334125
vn -0.9975479 -0.06934964 0.009419313
vn -0.9087661 -0.4155971 -0.03772338
vn -0.9999782 -0.006549782 0.0008337147
vn -0.9999809 -0.006150187 0.0007167637
vn -0.9999886 -0.004752621 0.000307733
vn -0.0004486965 0.706194 -0.7080181
vn -0.002582188 0.463361 -0.8861658
vn -0.1233134 -0.9923028 0.01135567
vn -0.001621158 -0.9517041 0.3070124
vn 0.002794092 -0.8700937 0.4928784
vn -0.06293926 -0.9980169 -0.0009770901
vn -0.004066848 -0.1644099 0.9863837
vn -0.06135891 -0.9981071 -0.004155041
vn -0.0007024364 -0.003341841 -0.9999942
vn -0.0008113941 0.001887252 -0.9999979
vn -0.001277427 -0.002709613 -0.9999955
vn -0.8170311 -0.5763866 -0.01545215
vn -0.6799175 -0.7331107 0.01614958
vn -0.9005553 -0.4342878 0.01985965
vn -0.5636521 -0.8258993 -0.01366254
vn -0.03738674 0.00106657 -0.9993003
vn -0.9967988 -0.07779984 0.01842483
vn -0.9580749 -0.2862636 -0.01206677
vn -0.005836217 -0.002215577 0.9999805
vn -0.002563523 -0.002800767 0.9999928
vn -0.2795707 -0.9600832 -0.008960661
vn -0.3993321 -0.9166119 0.01888605
vn -0.04373144 0.0009568969 -0.9990429
vn -0.0001445826 0.001048427 -0.9999994
vn -0.9617689 0.273635 0.01115919
vn -0.998506 0.05276988 -0.01417622
vn -0.8490914 0.5282024 0.006787932
vn -0.9277567 0.3729039 -0.01449621
vn -0.6700243 0.7422446 0.01184398
vn -0.5755627 0.8176594 -0.01267503
vn -0.7963596 0.6046678 -0.01371771
vn -0.001258312 1.594583e-05 -0.9999992
vn -0.3984037 0.9170827 0.01529718
vn -0.2920351 0.9563335 -0.01190756
vn 0.001512164 0.005908113 -0.9999815
vn 0.8271922 0.5617585 0.01342307
vn 0.8808923 0.4733123 -0.002050153
vn 0.9836583 0.1800147 0.003334411
vn 0.9865922 0.1629777 0.008601102
vn 0.08445839 0.05741967 -0.9947712
vn -0.004549372 0.9999897 -0.0001547155
vn -0.1432308 0.989688 0.001591913
vn -0.1394181 0.9902335 -1.982315e-05
vn -0.004621161 0.9999893 -0.0002619479
vn -0.009107125 0.006500021 0.9999374
vn -0.001585001 0.0001628464 0.9999987
vn 0.006165665 -0.001839368 0.9999793
vn -0.6261686 0.7796836 0.002512192
vn -0.7959582 0.6052892 -0.008692532
vn -0.7045181 0.7095587 0.0134453
vn -0.01506867 0.0125355 -0.9998079
vn -0.01024114 0.007650038 -0.9999183
vn -0.2276199 0.1621009 -0.9601628
vn -0.003328612 0.004795712 0.999983
vn 0.01534388 0.00229643 0.9998797
vn -0.9093447 0.4158193 0.01365655
vn 0.0008019666 -0.001579158 -0.9999985
vn -0.004384072 0.001384541 -0.9999894
vn -0.4257419 0.9048122 0.007669828
vn -0.4225282 0.9063452 0.002843546
vn -0.0009400256 0.004328197 0.9999902
vn -0.4101448 -0.912013 0.003682306
vn -0.1219599 -0.9924892 -0.009533232
vn 0.002808808 -0.00364932 -0.9999894
vn 0.002612185 -0.003518808 -0.9999904
vn -0.4243469 -0.9054959 0.002611446
vn -0.694788 -0.7191355 0.01066912
vn -0.9125488 -0.4089202 -0.006244484
vn -0.9004673 -0.434865 0.007153122
vn -0.985509 -0.1694805 0.006954317
vn -0.9975072 -0.06761895 -0.02017493
vn -0.9941014 0.1084001 0.003431539
vn -0.7769346 -0.6295617 -0.004970897
vn 0.4406476 0.3968652 0.805188
vn 0.004169362 0.9999333 0.01076522
vn 0.007229685 0.9999626 -0.004726592
vn 0.01293775 0.9989389 -0.04420003
vn 0.6427644 0.7660639 -0.0001736874
vn 0.004543195 -0.001183045 -0.999989
vn -0.002734096 0.9999844 0.004879748
vn -0.007473517 0.999972 -0.0003501274
vn 0.1826682 -0.9802321 -0.07600937
vn 0.9573015 0.03975505 0.286345
vn 0.5618594 0.2668437 -0.7830124
vn 0.8957937 -0.000609446 0.4444697
vn 0.9943447 0.1052263 0.01435292
vn 0.8151144 0.5772446 -0.04875825
vn 0.01118519 0.7926618 0.609559
vn 0.8923603 -0.004121891 0.4513049
vn 0.1453637 0.006734618 -0.9893554
vn 0.5899319 0.0449977 -0.8061982
vn 0.9975997 0.06283496 -0.02909392
vn 0.8922856 0.4512378 0.01451916
vn 0.001248905 0.9998968 -0.01431262
vn 0.01768554 -0.004862597 -0.9998317
vn 0.6986665 -0.008099259 -0.7154017
vn 9.781467e-05 -0.9999998 -0.0006853821
vn 0.004098638 -0.0244725 -0.9996921
vn -0.4024895 0.9153526 0.01148769
vn 0.0003805549 0.9999822 0.005955027
vn 0.0009314854 0.008491984 0.9999635
vn -0.3287126 -0.772967 0.542651
vn 0.7285256 0.6842369 0.03271487
vn 0.7081112 0.1657477 0.6863718
vn -0.01663852 0.9998553 -0.003573985
vn 0.4498219 -0.8916634 0.05095794
vn 0.7563272 0.6523787 -0.04869591
vn 0.3309639 0.9317663 -0.1492465
vn 0.2916244 0.9437585 -0.1558048
vn 0.00152338 0.3008173 -0.9536805
vn 0.7755625 0.6298592 -0.04219205
vn 0.0008005877 0.9998469 -0.01747957
vn 0.9837403 0.179597 0.0001206925
vn 0.001018129 0.01948507 -0.9998096
vn -0.009922878 0.001350124 -0.9999499
vn -0.05645703 -0.9983855 0.006229145
vn -0.03121757 -0.9995123 -0.000767067
vn -0.3475356 0.9369165 -0.03750395
vn -0.7157115 0.69796 0.0246744
vn -0.08404527 0.001759841 0.9964603
vn 0.2528674 0.9596201 -0.1232371
vn -0.9998089 0.01908802 -0.004229696
vn -0.9897941 0.142505 -3.031919e-05
vn -0.9840536 0.1773275 -0.0139128
vn -0.1989852 0.04286152 0.9790647
vn -0.1949709 0.9796581 -0.04750142
vn -0.4777862 0.7343506 -0.4821303
vn -0.2605659 0.9654026 0.01015657
vn -0.004654362 -0.007387899 -0.9999619
vn -0.9961081 -0.08808389 0.003140302
vn -0.1085376 -0.994091 0.001683462
vn -0.5681691 0.03868744 0.8220019
vn -0.08811431 -0.01900399 0.9959291
vn -0.00181636 0.5141711 -0.8576857
vn -0.1226489 -0.00490897 -0.992438
vn -0.9999905 -0.004358099 0.0001922676
vn -0.02271949 -0.2720929 -0.9620028
vn -0.6276889 -0.1465287 0.7645496
vn -0.003142196 0.9999948 0.0007613361
vn -0.00191351 0.9999981 0.00034925
vn -0.003572704 0.9999933 0.0009057233
vn -0.001565877 0.5043598 0.8634921
vn -0.001480684 0.9999989 0.0002040858
vn -0.8623081 0.5063839 -0.0002514944
vn -0.848763 0.5287732 0.0003901813
vn -0.2014327 -0.9790161 0.03085803
vn -0.01791321 -0.006703151 -0.9998171
vn -0.01096016 -0.09430037 0.9954835
vn -0.01859681 -0.08043464 0.9965864
vn -0.1285983 -0.01654541 0.9915587
vn -0.01646529 -0.1926014 -0.9811389
vn -0.6184711 -0.04710014 -0.7843947
vn -0.001948228 0.1445952 0.9894889
vn -0.007470115 -0.4999708 -0.86601
vn -0.0004738474 -0.01093846 -0.99994
vn -0.03610831 -0.00386874 0.9993404
vn -0.01098859 -0.001119576 0.999939
vn -0.5368277 0.02101091 -0.8434303
vn -0.007214508 0.004304809 0.9999647
vn -0.1900887 0.2143429 0.9580832
vn -0.001412295 -0.04656069 0.9989145
vn 0.002465848 -0.001357652 0.9999961
vn 0.002295654 0.02091888 -0.9997786
vn -0.002479807 -0.004248376 -0.999988
vn 0.003444212 -0.003580874 0.9999877
vn -0.002223529 0.006444159 -0.9999768
vn -0.9443787 0.3282603 -0.01985213
vn -0.01187805 -0.009007954 0.9998889
vn -0.002618487 -0.0004675456 -0.9999964
vn -0.02354269 -0.01494173 0.9996111
vn -0.6136249 -0.7895733 0.006215771
f 47//1 2//2 92//3
f 1//4 45//5 2//2
f 2//6 43//7 1//8
f 2//6 46//9 43//7
f 47//10 113//11 46//9
f 1//8 43//7 44//12
f 41//13 88//14 45//5
f 42//15 82//16 37//17
f 42//15 41//18 80//19
f 82//16 81//20 38//21
f 38//22 8//23 42//24
f 8//23 88//14 42//24
f 8//23 149//25 88//14
f 35//26 36//27 28//28
f 35//26 27//29 34//30
f 34//30 11//31 35//26
f 35//26 11//31 13//32
f 7//33 33//34 5//35
f 34//30 33//34 11//31
f 31//36 32//37 30//38
f 24//39 22//40 30//38
f 31//36 30//38 36//27
f 30//38 28//28 36//27
f 29//41 23//42 21//43
f 28//28 29//41 27//29
f 34//30 29//41 6//44
f 34//30 6//44 5//35
f 29//41 21//43 6//44
f 21//43 68//45 6//44
f 26//46 8//47 18//48
f 25//49 26//50 32//51
f 25//49 192//52 151//53
f 26//54 18//48 24//39
f 22//40 20//55 23//42
f 18//48 61//56 65//57
f 20//55 65//57 19//58
f 3//59 233//60 124//61
f 36//27 16//62 17//63
f 17//63 16//62 15//64
f 14//65 12//66 16//62
f 14//65 35//26 13//32
f 11//31 10//67 13//32
f 12//66 13//32 10//67
f 9//68 33//34 4//69
f 10//67 11//31 9//68
f 10//67 9//68 124//61
f 156//70 10//67 124//61
f 37//71 38//22 42//24
f 298//72 151//53 192//52
f 151//53 191//73 8//47
f 19//58 65//57 68//45
f 148//74 149//25 8//23
f 5//35 73//75 7//33
f 283//76 279//77 149//25
f 5//35 6//44 75//78
f 33//34 7//33 4//69
f 2//6 47//10 46//9
f 92//79 112//80 113//11
f 40//81 110//82 39//83
f 39//83 110//82 80//84
f 41//18 45//85 39//86
f 44//87 43//88 40//81
f 232//89 58//90 230//91
f 56//92 77//93 57//94
f 57//94 76//95 53//96
f 57//94 54//97 56//92
f 54//97 226//98 227//99
f 53//96 223//100 222//101
f 53//96 222//101 226//98
f 219//102 51//103 52//104
f 52//105 110//82 50//106
f 50//106 110//82 106//107
f 50//106 106//108 49//109
f 48//110 50//106 49//109
f 218//111 48//112 217//113
f 48//112 49//114 104//115
f 52//105 50//106 219//116
f 60//117 52//118 51//119
f 60//120 63//121 61//56
f 66//122 64//123 67//124
f 65//57 61//56 62//125
f 68//45 65//57 66//122
f 69//126 235//127 223//100
f 71//128 60//120 70//129
f 72//130 69//131 76//95
f 72//130 71//128 69//131
f 78//132 74//133 72//130
f 67//124 64//123 71//128
f 74//133 75//78 71//128
f 75//78 68//45 67//124
f 76//95 223//100 53//96
f 76//95 77//93 72//130
f 79//134 78//132 59//135
f 77//93 78//132 72//130
f 7//33 79//134 59//135
f 80//84 110//82 52//105
f 81//136 52//105 61//137
f 82//138 80//84 81//136
f 81//20 61//139 8//140
f 84//141 373//142 83//143
f 278//144 84//145 86//146
f 278//147 373//142 84//141
f 85//148 86//149 279//77
f 89//150 83//151 98//152
f 91//153 88//154 89//150
f 83//143 373//142 275//155
f 87//156 88//154 86//146
f 279//77 86//149 88//14
f 84//157 83//158 90//159
f 90//159 83//158 89//160
f 89//150 87//156 90//161
f 93//162 92//79 120//163
f 2//2 95//164 92//3
f 93//162 119//165 112//80
f 92//79 93//162 112//80
f 96//166 116//167 118//168
f 98//169 94//170 96//171
f 94//172 116//167 96//166
f 98//152 97//173 89//150
f 275//155 117//174 94//175
f 117//176 99//177 94//172
f 110//178 108//179 103//180
f 108//179 107//181 286//182
f 103//180 108//179 102//183
f 107//184 115//185 286//186
f 105//187 399//187 104//187
f 106//188 399//189 105//190
f 103//191 102//183 100//192
f 101//193 103//191 100//192
f 286//182 100//192 102//183
f 100//194 286//194 399//194
f 115//185 390//195 286//186
f 112//80 111//196 113//11
f 110//82 113//197 111//198
f 110//178 109//199 108//179
f 108//179 109//199 107//181
f 110//178 114//200 109//199
f 109//201 114//202 107//184
f 120//163 96//166 118//168
f 107//184 114//202 115//185
f 134//203 135//204 133//205
f 132//206 130//207 133//205
f 132//206 140//208 131//209
f 132//206 131//209 130//207
f 129//210 127//211 131//209
f 128//212 204//213 127//211
f 127//211 204//213 180//214
f 192//52 136//215 308//216
f 204//213 121//217 206//218
f 137//219 128//212 129//210
f 122//220 215//221 121//217
f 137//219 122//220 121//217
f 141//222 142//223 140//208
f 138//224 137//219 142//223
f 136//215 15//64 134//203
f 12//66 154//225 158//226
f 154//225 12//66 155//227
f 156//70 152//228 155//227
f 154//225 155//227 144//229
f 155//227 152//228 144//229
f 143//230 154//225 144//229
f 144//229 138//224 142//223
f 153//231 156//70 124//61
f 152//228 156//70 153//231
f 124//61 123//232 153//231
f 153//231 123//232 139//233
f 125//234 191//73 151//53
f 150//235 191//236 126//237
f 191//236 150//235 148//238
f 285//239 148//238 150//235
f 285//240 284//241 147//242
f 146//243 283//76 149//244
f 148//238 147//245 146//243
f 147//245 284//246 283//76
f 283//76 284//246 281//247
f 136//215 134//203 308//216
f 145//248 135//204 134//203
f 160//249 145//248 159//250
f 178//251 183//252 173//253
f 178//251 173//253 176//254
f 177//255 176//254 170//256
f 176//254 169//257 170//256
f 175//258 172//259 174//260
f 173//253 174//260 166//261
f 174//260 172//259 166//261
f 169//257 173//253 168//262
f 173//253 166//261 168//262
f 164//263 267//264 163//265
f 171//266 256//267 243//268
f 172//259 167//269 166//261
f 167//269 171//266 243//268
f 179//270 180//214 163//265
f 179//270 181//271 180//214
f 164//263 272//272 270//273
f 175//258 184//274 179//270
f 186//275 181//271 179//270
f 183//252 182//276 173//253
f 187//277 183//252 178//251
f 189//278 183//252 187//277
f 188//279 190//280 189//278
f 193//281 183//252 189//278
f 177//255 187//277 178//251
f 188//279 187//277 177//255
f 308//216 134//203 188//279
f 125//234 321//282 191//73
f 192//52 308//216 309//283
f 170//256 169//257 315//284
f 168//262 166//261 165//285
f 185//286 130//207 186//275
f 167//269 243//268 289//287
f 205//288 203//289 202//290
f 233//60 58//90 232//89
f 202//290 211//291 274//292
f 211//291 201//293 198//294
f 211//291 198//294 274//292
f 273//295 202//290 274//292
f 274//292 198//294 264//296
f 200//297 196//298 199//299
f 201//293 199//299 198//294
f 198//294 199//299 263//300
f 195//301 340//302 236//303
f 245//304 235//127 341//305
f 233//60 232//89 231//306
f 221//307 329//308 235//127
f 194//309 324//310 326//311
f 214//312 231//306 229//313
f 231//306 232//89 230//91
f 230//91 212//314 229//313
f 212//314 230//91 225//315
f 226//98 222//101 224//316
f 224//316 210//317 209//318
f 222//101 207//319 210//317
f 222//101 195//301 207//319
f 200//297 195//301 196//298
f 195//301 223//100 340//302
f 218//320 220//321 324//322
f 199//299 208//323 200//297
f 208//323 199//299 201//293
f 211//291 208//323 201//293
f 217//324 399//325 220//321
f 210//317 207//319 209//318
f 213//326 211//291 202//290
f 213//326 202//290 203//289
f 212//314 209//318 211//291
f 214//312 229//313 212//314
f 215//221 206//218 121//217
f 216//327 215//221 122//220
f 248//328 259//329 247//330
f 340//302 245//304 341//305
f 259//329 236//303 247//330
f 223//100 245//304 340//302
f 260//331 236//303 259//329
f 251//332 261//333 248//328
f 262//334 259//329 248//328
f 263//300 262//334 261//333
f 265//335 264//296 253//336
f 264//296 261//333 253//336
f 268//337 266//338 265//335
f 266//338 264//296 265//335
f 267//264 269//339 258//340
f 271//341 268//337 269//339
f 271//341 205//288 273//295
f 258//340 257//342 267//264
f 257//342 255//343 254//344
f 163//265 267//264 256//267
f 256//267 257//342 244//345
f 256//267 244//345 243//268
f 241//346 254//344 240//347
f 254//344 238//348 240//347
f 253//336 261//333 251//332
f 247//330 246//349 248//328
f 252//350 251//332 250//351
f 251//332 248//328 249//352
f 248//328 246//349 249//352
f 249//352 246//349 358//353
f 361//354 251//332 249//352
f 250//351 361//354 238//348
f 361//354 249//352 239//355
f 239//355 249//352 237//356
f 247//330 236//303 246//349
f 221//307 326//357 329//308
f 244//345 242//358 243//268
f 239//355 237//356 361//354
f 237//356 349//359 360//360
f 237//356 358//353 349//359
f 235//127 329//308 341//305
f 277//361 376//362 278//147
f 376//362 373//142 278//147
f 280//363 279//364 282//365
f 278//144 85//366 277//367
f 280//368 276//369 277//361
f 281//247 282//365 283//76
f 284//246 280//363 281//247
f 284//241 276//369 280//368
f 280//363 282//365 281//247
f 374//370 377//371 117//372
f 373//142 374//373 275//155
f 286//186 390//195 399//325
f 316//374 370//375 422//376
f 317//377 424//378 423//379
f 299//380 291//381 303//382
f 312//383 313//384 307//385
f 311//386 310//387 307//385
f 307//385 310//387 301//388
f 177//255 170//256 308//216
f 307//385 301//388 305//389
f 310//387 288//390 302//391
f 288//390 355//392 302//391
f 308//216 170//256 313//384
f 313//384 315//284 311//386
f 310//387 302//391 301//388
f 313//384 312//383 308//216
f 315//284 168//262 165//285
f 165//285 314//393 311//386
f 289//287 288//390 314//393
f 290//394 320//395 126//396
f 306//397 298//72 309//283
f 303//382 294//398 304//399
f 302//391 347//400 300//401
f 300//401 299//380 301//388
f 300//401 287//402 299//380
f 287//402 292//403 299//380
f 299//380 292//403 291//381
f 371//404 321//282 297//405
f 296//406 371//407 298//72
f 306//397 295//408 296//406
f 296//406 293//409 371//410
f 312//383 305//389 306//397
f 295//408 293//409 296//406
f 294//398 293//409 295//408
f 294//398 291//381 293//409
f 335//411 293//409 291//381
f 335//411 371//410 293//409
f 305//389 303//382 304//399
f 306//397 304//399 295//408
f 305//389 304//399 306//397
f 319//412 321//413 316//374
f 317//377 403//414 424//378
f 317//415 318//416 403//417
f 319//418 318//416 320//419
f 371//410 385//420 370//421
f 371//410 370//421 321//422
f 322//423 426//424 427//425
f 323//426 442//427 426//428
f 348//429 349//359 340//302
f 350//430 339//431 343//432
f 350//430 348//429 339//431
f 350//430 357//433 348//429
f 351//434 359//435 350//430
f 353//436 354//437 351//434
f 355//392 345//438 347//400
f 355//392 353//436 345//438
f 355//392 356//439 353//436
f 388//440 385//420 371//410
f 344//441 346//442 347//400
f 341//305 329//308 330//443
f 351//434 343//432 345//438
f 358//353 236//303 340//302
f 345//438 334//444 344//441
f 343//432 334//444 345//438
f 359//435 360//360 357//433
f 344//441 334//444 336//445
f 352//446 361//354 359//435
f 362//447 241//346 240//347
f 343//432 337//448 342//449
f 339//431 338//450 337//448
f 343//432 342//449 333//451
f 362//447 354//437 356//439
f 289//287 356//439 288//390
f 242//358 362//447 243//268
f 342//449 337//448 333//451
f 327//452 333//451 337//448
f 338//450 341//305 330//443
f 338//450 330//443 327//452
f 292//403 336//445 335//411
f 332//453 388//440 335//411
f 333//451 332//453 334//444
f 327//452 331//454 333//451
f 331//454 388//440 332//453
f 328//455 388//440 331//454
f 366//456 385//457 388//458
f 364//459 365//460 366//461
f 365//460 323//462 322//423
f 365//460 363//463 323//462
f 322//464 385//457 365//465
f 322//464 380//466 385//457
f 363//467 399//325 323//426
f 416//468 413//469 402//470
f 381//471 400//472 368//473
f 367//474 369//475 376//476
f 370//477 368//477 401//477
f 375//478 378//479 372//480
f 378//481 383//482 394//483
f 373//484 372//485 374//370
f 372//486 373//487 376//488
f 378//481 384//489 383//482
f 384//490 375//491 376//488
f 380//466 382//492 385//457
f 379//493 383//482 384//489
f 382//494 381//471 368//473
f 382//494 379//495 381//471
f 438//496 379//497 380//466
f 443//498 395//499 379//493
f 391//500 398//501 394//502
f 383//482 397//503 394//483
f 399//325 425//504 323//426
f 396//505 395//499 392//506
f 393//507 389//508 391//509
f 389//508 390//510 391//509
f 394//511 398//512 378//513
f 403//514 316//374 424//515
f 415//516 400//517 402//518
f 415//516 401//519 400//517
f 413//469 415//520 402//470
f 415//516 412//521 401//519
f 401//522 408//523 405//524
f 405//525 407//526 406//527
f 407//526 405//525 408//528
f 401//522 405//524 409//529
f 410//530 409//531 406//527
f 409//531 405//525 406//527
f 416//468 411//532 406//533
f 408//528 414//534 413//535
f 415//516 414//534 412//521
f 413//535 407//526 408//528
f 401//522 409//529 417//536
f 418//537 401//522 417//536
f 411//538 404//539 410//530
f 419//540 417//541 411//538
f 420//542 421//543 418//544
f 421//545 401//522 418//537
f 421//545 422//376 401//522
f 416//546 421//543 420//542
f 423//379 422//547 416//546
f 426//428 442//427 441//548
f 427//425 426//424 441//549
f 429//550 427//425 441//549
f 428//551 430//552 441//549
f 429//553 430//553 427//553
f 428//554 452//555 451//556
f 430//557 428//554 451//556
f 447//558 436//559 450//560
f 448//561 446//562 447//563
f 448//564 441//548 444//565
f 446//566 448//564 444//565
f 445//567 434//568 436//559
f 446//562 445//569 447//563
f 444//565 435//570 433//571
f 451//556 449//572 450//573
f 450//560 436//559 451//574
f 443//498 437//575 442//576
f 441//548 439//577 432//578
f 438//579 440//580 437//575
f 435//581 431//582 436//583
f 433//584 436//583 434//585
f 435//581 432//586 431//582
f 47//10 92//79 113//11
f 1//8 44//12 45//85
f 2//2 45//5 88//14
f 41//13 42//24 88//14
f 8//140 38//21 81//20
f 37//17 82//16 38//21
f 31//587 136//215 192//52
f 136//215 31//36 36//27
f 16//62 36//27 35//26
f 34//30 5//35 33//34
f 32//51 31//587 25//49
f 31//587 192//52 25//49
f 32//37 26//54 24//39
f 30//38 32//37 24//39
f 28//28 30//38 29//41
f 30//38 22//40 29//41
f 29//41 22//40 23//42
f 34//30 27//29 29//41
f 27//29 35//26 28//28
f 21//43 19//58 68//45
f 25//49 151//53 26//50
f 8//47 26//46 151//53
f 22//40 24//39 18//48
f 8//47 61//56 18//48
f 21//43 23//42 20//55
f 20//55 22//40 18//48
f 21//43 20//55 19//58
f 20//55 18//48 65//57
f 15//64 136//215 17//63
f 17//63 136//215 36//27
f 16//62 35//26 14//65
f 157//588 16//62 12//66
f 15//64 16//62 162//589
f 162//589 16//62 157//588
f 161//590 15//64 162//589
f 14//65 13//32 12//66
f 12//66 10//67 156//70
f 11//31 33//34 9//68
f 9//68 4//69 3//59
f 124//61 9//68 3//59
f 73//75 5//35 75//78
f 6//44 68//45 75//78
f 80//19 41//18 39//86
f 40//591 45//85 44//12
f 40//591 39//86 45//85
f 43//88 110//82 40//81
f 43//88 46//592 110//82
f 46//592 113//197 110//82
f 42//15 80//19 82//16
f 58//90 59//135 56//92
f 58//90 56//92 55//593
f 230//91 58//90 55//593
f 54//97 57//94 53//96
f 227//99 56//92 54//97
f 55//593 56//92 228//594
f 228//594 56//92 227//99
f 226//98 54//97 53//96
f 235//127 51//119 221//307
f 219//102 221//595 51//103
f 217//113 48//112 104//115
f 220//321 218//320 217//324
f 104//115 49//114 105//190
f 49//114 106//188 105//190
f 59//135 78//132 56//92
f 233//60 3//59 58//90
f 3//59 59//135 58//90
f 4//69 59//135 3//59
f 4//69 7//33 59//135
f 60//117 51//119 235//127
f 60//120 61//56 52//596
f 61//56 63//121 62//125
f 63//121 64//123 62//125
f 66//122 65//57 62//125
f 64//123 66//122 62//125
f 66//122 67//124 68//45
f 223//100 235//127 245//304
f 69//126 70//597 235//127
f 70//597 60//117 235//127
f 69//131 71//128 70//129
f 71//128 64//123 60//120
f 64//123 63//121 60//120
f 79//134 73//75 74//133
f 75//78 67//124 71//128
f 74//133 71//128 72//130
f 73//75 75//78 74//133
f 223//100 76//95 69//131
f 77//93 76//95 57//94
f 56//92 78//132 77//93
f 79//134 74//133 78//132
f 73//75 79//134 7//33
f 81//136 80//84 52//105
f 85//366 278//144 86//146
f 84//145 87//156 86//146
f 98//169 83//143 275//155
f 89//150 88//154 87//156
f 84//145 90//161 87//156
f 149//25 279//77 88//14
f 2//2 88//14 95//164
f 120//163 92//79 95//598
f 120//163 98//599 96//166
f 94//172 99//177 116//167
f 97//600 98//599 120//163
f 89//150 97//173 91//153
f 93//162 120//163 119//165
f 91//153 97//173 95//601
f 95//598 97//602 120//163
f 91//153 95//601 88//154
f 94//170 98//169 275//155
f 102//183 108//179 286//182
f 106//107 103//603 101//604
f 106//188 101//193 399//189
f 399//189 101//193 100//192
f 103//603 106//107 110//82
f 112//80 119//165 111//196
f 114//605 111//606 119//165
f 110//178 111//607 114//200
f 119//165 120//163 118//168
f 114//202 116//608 115//185
f 114//609 118//609 116//609
f 114//605 119//165 118//168
f 117//372 377//371 99//610
f 116//608 99//611 115//185
f 390//195 115//185 99//611
f 190//280 134//203 133//205
f 193//281 133//205 130//207
f 130//207 131//209 127//211
f 186//275 130//207 127//211
f 129//210 128//212 127//211
f 290//612 126//613 321//282
f 321//282 126//613 191//73
f 151//53 297//405 125//234
f 285//240 376//362 276//369
f 128//212 121//217 204//213
f 128//212 137//219 121//217
f 137//219 139//233 122//220
f 137//219 138//224 139//233
f 132//206 141//222 140//208
f 140//208 129//210 131//209
f 129//210 140//208 137//219
f 140//208 142//223 137//219
f 133//205 141//222 132//206
f 135//204 141//222 133//205
f 191//614 148//74 8//23
f 134//203 15//64 159//250
f 158//226 162//589 157//588
f 161//590 162//589 160//249
f 160//249 162//589 158//226
f 15//615 161//615 160//615
f 159//250 15//64 160//249
f 143//230 160//249 158//226
f 158//226 154//225 143//230
f 158//226 157//588 12//66
f 155//227 12//66 156//70
f 138//224 144//229 152//228
f 143//230 144//229 142//223
f 152//228 153//231 139//233
f 139//233 123//232 122//220
f 138//224 152//228 139//233
f 285//239 150//235 126//616
f 285//240 276//369 284//241
f 148//238 285//239 147//245
f 148//617 146//243 149//244
f 147//245 283//76 146//243
f 145//248 160//249 143//230
f 134//203 159//250 145//248
f 145//248 143//230 141//222
f 141//222 143//230 142//223
f 135//204 145//248 141//222
f 177//255 178//251 176//254
f 176//254 173//253 169//257
f 173//253 182//276 174//260
f 172//259 163//265 171//266
f 171//266 163//265 256//267
f 167//269 172//259 171//266
f 151//53 298//72 297//405
f 125//234 297//405 321//282
f 175//258 163//265 172//259
f 175//258 179//270 163//265
f 180//214 164//263 163//265
f 164//263 204//213 272//272
f 180//214 204//213 164//263
f 182//276 175//258 174//260
f 182//276 184//274 175//258
f 182//276 185//286 184//274
f 183//252 185//286 182//276
f 179//270 184//274 186//275
f 185//286 186//275 184//274
f 188//279 189//278 187//277
f 183//252 193//281 185//286
f 189//278 133//205 193//281
f 190//280 133//205 189//278
f 308//216 188//279 177//255
f 188//279 134//203 190//280
f 320//395 376//362 285//240
f 126//396 320//395 285//240
f 309//283 298//72 192//52
f 315//284 169//257 168//262
f 313//384 170//256 315//284
f 181//271 127//211 180//214
f 186//275 127//211 181//271
f 193//281 130//207 185//286
f 166//261 167//269 165//285
f 165//285 167//269 289//287
f 204//213 206//218 205//288
f 205//288 202//290 273//295
f 272//272 204//213 205//288
f 222//101 223//100 195//301
f 48//110 219//116 50//106
f 199//299 196//298 197//618
f 260//331 199//299 197//618
f 236//303 197//618 196//298
f 123//232 124//61 233//60
f 216//327 123//232 233//60
f 216//327 233//60 214//312
f 214//312 233//60 231//306
f 122//220 123//232 216//327
f 215//221 216//327 214//312
f 230//91 55//593 225//315
f 225//315 55//593 228//594
f 225//315 228//594 224//316
f 231//306 230//91 229//313
f 224//316 228//594 227//99
f 224//316 227//99 226//98
f 210//317 224//316 222//101
f 225//315 224//316 209//318
f 194//619 221//595 219//102
f 218//620 194//621 219//622
f 196//298 195//301 236//303
f 221//307 194//623 326//357
f 234//624 194//621 218//620
f 194//309 234//625 324//310
f 200//297 207//319 195//301
f 219//626 48//112 218//111
f 234//627 218//320 324//322
f 208//323 207//319 200//297
f 217//324 104//628 399//325
f 211//291 209//318 208//323
f 208//323 209//318 207//319
f 213//326 212//314 211//291
f 203//289 214//312 213//326
f 214//312 212//314 213//326
f 212//314 225//315 209//318
f 205//288 215//221 203//289
f 206//218 215//221 205//288
f 215//221 214//312 203//289
f 324//322 220//321 399//325
f 261//333 262//334 248//328
f 259//329 262//334 260//331
f 262//334 263//300 260//331
f 261//333 198//294 263//300
f 264//296 198//294 261//333
f 252//350 265//335 253//336
f 255//343 265//335 252//350
f 268//337 265//335 255//343
f 258//340 268//337 255//343
f 269//339 268//337 258//340
f 267//264 270//273 269//339
f 164//263 270//273 267//264
f 269//339 270//273 271//341
f 271//341 266//338 268//337
f 270//273 272//272 271//341
f 263//300 199//299 260//331
f 197//618 236//303 260//331
f 266//338 274//292 264//296
f 273//295 274//292 266//338
f 271//341 273//295 266//338
f 272//272 205//288 271//341
f 257//342 258//340 255//343
f 256//267 267//264 257//342
f 257//342 254//344 244//345
f 244//345 254//344 241//346
f 254//344 255//343 252//350
f 254//344 252//350 238//348
f 238//348 252//350 250//351
f 252//350 253//336 251//332
f 250//351 251//332 361//354
f 237//356 249//352 358//353
f 358//353 246//349 236//303
f 242//358 244//345 241//346
f 242//358 241//346 362//447
f 240//347 238//348 352//446
f 352//446 238//348 361//354
f 360//360 361//354 237//356
f 276//369 376//362 277//361
f 280//363 277//367 279//364
f 279//364 277//367 85//366
f 283//76 282//365 279//77
f 275//155 374//373 117//174
f 398//629 99//610 377//371
f 398//629 390//630 99//610
f 416//468 402//470 376//362
f 290//612 319//631 320//632
f 290//612 321//282 319//631
f 294//398 303//382 291//381
f 308//216 306//397 309//283
f 312//383 306//397 308//216
f 307//385 313//384 311//386
f 310//387 311//386 314//393
f 314//393 288//390 310//387
f 302//391 355//392 347//400
f 311//386 315//284 165//285
f 314//393 165//285 289//287
f 306//397 296//406 298//72
f 300//401 301//388 302//391
f 300//401 347//400 346//442
f 300//401 346//442 287//402
f 292//403 335//411 291//381
f 298//72 371//407 297//405
f 312//383 307//385 305//389
f 335//411 388//440 371//410
f 305//389 301//388 303//382
f 301//388 299//380 303//382
f 295//408 304//399 294//398
f 320//395 317//633 376//362
f 416//468 376//362 317//633
f 316//634 403//634 318//634
f 319//418 316//635 318//416
f 320//419 318//416 317//415
f 321//413 370//375 316//374
f 322//423 323//462 426//424
f 357//433 349//359 348//429
f 359//435 357//433 350//430
f 351//434 352//446 359//435
f 353//436 351//434 345//438
f 353//436 356//439 354//437
f 325//636 324//637 364//459
f 325//636 364//459 366//461
f 340//302 338//450 348//429
f 348//429 338//450 339//431
f 325//638 366//456 388//458
f 347//400 345//438 344//441
f 325//639 326//311 324//310
f 287//402 346//442 292//403
f 346//442 336//445 292//403
f 346//442 344//441 336//445
f 351//434 350//430 343//432
f 349//359 358//353 340//302
f 357//433 360//360 349//359
f 359//435 361//354 360//360
f 334//444 332//453 336//445
f 354//437 352//446 351//434
f 354//437 240//347 352//446
f 354//437 362//447 240//347
f 343//432 339//431 337//448
f 343//432 333//451 334//444
f 355//392 288//390 356//439
f 289//287 243//268 356//439
f 243//268 362//447 356//439
f 338//450 340//302 341//305
f 338//450 327//452 337//448
f 335//411 336//445 332//453
f 333//451 331//454 332//453
f 328//640 330//443 329//308
f 328//640 329//308 326//311
f 327//452 330//443 328//640
f 327//452 328//455 331//454
f 325//639 388//641 328//640
f 325//639 328//640 326//311
f 324//322 399//325 364//642
f 365//465 385//457 366//456
f 365//460 364//459 363//463
f 363//467 364//642 399//325
f 381//471 379//495 367//643
f 400//472 381//471 367//643
f 368//644 400//517 401//519
f 402//470 400//645 367//646
f 376//362 402//470 367//646
f 369//475 367//474 379//493
f 370//647 387//647 368//647
f 378//479 377//648 372//480
f 378//513 398//512 377//649
f 377//371 374//370 372//485
f 376//488 375//491 372//486
f 369//475 379//493 384//489
f 369//475 384//489 376//476
f 384//650 378//479 375//478
f 383//482 379//493 397//503
f 397//503 379//493 395//499
f 382//651 380//651 379//651
f 380//466 436//559 438//496
f 387//652 382//653 368//654
f 385//457 382//492 386//655
f 387//652 386//656 382//653
f 370//421 385//420 387//657
f 385//420 386//658 387//657
f 398//629 391//659 390//630
f 392//660 399//325 390//195
f 394//502 397//661 396//662
f 394//502 396//662 393//663
f 396//505 392//506 393//507
f 397//503 395//499 396//505
f 399//325 392//660 425//504
f 425//504 392//660 395//664
f 394//502 393//663 391//500
f 392//506 389//508 393//507
f 392//660 390//195 389//665
f 323//426 425//504 442//427
f 423//666 416//468 317//633
f 422//376 370//375 401//522
f 424//515 316//374 422//376
f 412//667 414//668 401//522
f 410//530 404//539 409//531
f 406//533 411//532 410//669
f 416//468 406//533 407//670
f 401//522 414//668 408//523
f 416//468 407//670 413//469
f 415//516 413//535 414//534
f 404//671 417//536 409//529
f 417//541 404//539 411//538
f 419//672 411//532 416//468
f 419//540 418//544 417//541
f 420//542 418//544 419//540
f 421//543 416//546 422//547
f 423//379 424//378 422//547
f 420//673 419//672 416//468
f 438//496 443//674 379//497
f 425//504 395//664 442//427
f 443//498 442//576 395//499
f 322//464 427//675 380//466
f 427//675 436//559 380//466
f 430//552 429//550 441//549
f 428//676 441//548 452//677
f 427//675 430//678 436//559
f 450//573 449//572 447//563
f 447//563 449//572 448//561
f 447//558 445//567 436//559
f 448//564 449//679 441//548
f 446//562 444//680 445//569
f 445//569 444//680 434//585
f 444//565 441//548 435//570
f 444//680 433//584 434//585
f 449//572 451//556 452//555
f 449//679 452//677 441//548
f 451//574 436//559 430//678
f 438//496 436//559 440//681
f 441//548 442//427 437//682
f 441//548 437//682 439//577
f 443//498 438//579 437//575
f 436//559 431//683 440//681
f 435//570 441//548 432//578
f 440//580 432//586 439//684
f 440//580 439//684 437//575
f 433//584 435//581 436//583
f 431//582 432//586 440//580
