# G1 exterior visual; derived from pinned Unitree/TWIST2 CAD.
v 0.0310357101 -0.014062508 -0.00177877571
v 0.0304359719 -0.014062508 -0.00177877571
v 0.0304359719 -0.0119808447 -0.00740749389
v 0.0310358815 -0.0119808447 -0.00740749389
v 0.0304359719 -0.011203873 -0.0133582717
v 0.0310358554 -0.011203873 -0.0133582717
v 0.0304359719 -0.0117705576 -0.0193327758
v 0.0310358275 -0.0117705576 -0.0193327758
v 0.0304359719 -0.0136524932 -0.0250313673
v 0.0310357995 -0.0136524932 -0.0250313673
v 0.0304359719 -0.0167553071 -0.0301683266
v 0.0310357735 -0.0167553071 -0.0301683266
v 0.0304359719 -0.020923391 -0.0344860666
v 0.0310357474 -0.020923391 -0.0344860666
v 0.0304359719 -0.0259477627 -0.0377680399
v 0.0310357269 -0.0259477627 -0.0377680399
v 0.0304359719 -0.0315764807 -0.0398497023
v 0.031035712 -0.0315764807 -0.0398497023
v 0.0304359719 -0.0375272743 -0.0406266786
v 0.0310357008 -0.0375272743 -0.0406266786
v 0.0304359719 -0.043501772 -0.04005998
v 0.0310356971 -0.043501772 -0.04005998
v 0.0304359719 -0.0492003784 -0.0381780304
v 0.031035699 -0.0492003784 -0.0381780304
v 0.0304359719 -0.0543373264 -0.0350752436
v 0.0310357064 -0.0543373264 -0.0350752436
v 0.0304359719 -0.0586550459 -0.0309071541
v 0.0310357194 -0.0586550459 -0.0309071541
v 0.0304359719 -0.0619370304 -0.0258827712
v 0.0310357101 -0.0619370304 -0.0258827712
v 0.0304359719 -0.0640186965 -0.0202540532
v 0.0310357623 -0.0640186965 -0.0202540532
v 0.0304359719 -0.064795658 -0.0143032735
v 0.0310357884 -0.064795658 -0.0143032735
v 0.0304359719 -0.0642289743 -0.00832876936
v 0.0310358163 -0.0642289743 -0.00832876936
v 0.0304359719 -0.0623470396 -0.00263017765
v 0.0310358442 -0.0623470396 -0.00263017765
v 0.0304359719 -0.0592442304 0.00250677858
v 0.0310358722 -0.0592442304 0.00250677858
v 0.0304359719 -0.0550761484 0.00682452042
v 0.0310358964 -0.0550761484 0.00682452042
v 0.0304359719 -0.0500517711 0.0101064947
v 0.0310359169 -0.0500517711 0.0101064947
v 0.0304359719 -0.0444230586 0.0121881561
v 0.0310359336 -0.0444230586 0.0121881561
v 0.0304359719 -0.038472265 0.0129651316
v 0.031035943 -0.038472265 0.0129651316
v 0.0304359719 -0.0324977562 0.0123984329
v 0.0310359485 -0.0324977562 0.0123984329
v 0.0304359719 -0.0267991703 0.0105165113
v 0.0310359467 -0.0267991703 0.0105165113
v 0.0304359719 -0.021662211 0.00741369696
v 0.0310359374 -0.021662211 0.00741369696
v 0.0304359719 -0.0173444841 0.00324560911
v 0.0310359243 -0.0173444841 0.00324560911
v -0.0113236438 -0.00499694981 -0.0262444727
v -0.0139666181 -0.00481684506 -0.024920715
v -0.0136760194 -2.51745025e-09 -0.0250043366
v -0.0278953034 -5.00167419e-09 -0.00583968451
v -0.00903942436 -0.00452967733 0.027118912
v -0.00747177703 -2.30374875e-09 0.0275031365
v -7.47587037e-05 -0.00453990325 0.0285846237
v 0.000428827858 5.14258363e-06 0.028594166
v -0.00490400102 -0.00451949378 0.0281481408
v -0.0135735944 -0.00452621002 0.0251585767
v -0.01319235 -4.17073265e-09 0.0252628662
v -0.0204946641 -0.00441131508 0.0198798105
v -0.0172423311 -0.00450314302 0.0227698218
v -0.0182998981 -2.77095391e-09 0.0218486544
v -0.0229991842 -0.00439607352 0.0169389676
v -0.0225570835 9.40879319e-11 0.0174191762
v -0.0258408543 -0.00438061915 0.0121796187
v -0.0257660802 -1.38011802e-09 0.0121802632
v -0.0274185315 -0.00450831326 0.00804862846
v -0.0277777705 -1.79386739e-09 0.00637538405
v -0.0285648555 -0.0046319589 -5.32755166e-06
v -0.0282486174 -0.00434644893 0.00418605655
v -0.0284986813 -4.33753566e-09 0.000274204969
v -0.0259956848 5.91890581e-09 -0.01168223
v -0.0258704424 -0.00427466678 -0.0120059438
v -0.0236988161 -0.00422844989 -0.0159089733
v -0.0228880905 5.04503905e-09 -0.0169819091
v -0.0187169258 -2.80624746e-09 -0.0214924943
v -0.0209368449 -0.00444315933 -0.0194188002
v -0.016456848 -0.00448419619 -0.0233093686
v -0.018762229 -0.00457860623 -0.0215569325
v -0.00849553663 -0.00491789915 -0.0272423755
v -0.00799961295 1.87308213e-09 -0.0273542646
v -0.00665524555 -0.00521602808 -0.0278116558
v -0.000195835557 2.24224073e-06 -0.0285832714
v -0.00150043739 -0.00509322202 -0.0285178237
v 0.0277015418 -0.00443618186 0.00702885678
v 0.0278953053 3.17705529e-09 0.00583967846
v 0.0074717761 4.79130069e-10 -0.0275031421
v 0.00420930935 -0.00507644797 -0.0282473713
v 0.0140992608 -0.00480923336 -0.0248470306
v 0.0113911042 -0.00497902231 -0.0262044277
v 0.013192351 -5.86851945e-09 -0.0252628438
v 0.00852810126 -0.00493543176 -0.0272332169
v 0.017696701 -0.00439491868 -0.0224282928
v 0.0182998981 9.46335232e-10 -0.02184866
v 0.0208582431 -0.00435046898 -0.0194644239
v 0.0225570835 -1.91870653e-09 -0.0174191836
v 0.0257660802 -4.44500603e-10 -0.0121802697
v 0.0258842409 -0.00436519133 -0.0120146303
v 0.0275198724 -0.00428728899 -0.00752459979
v 0.0277777724 -8.24538482e-09 -0.00637536123
v 0.0282537509 -0.0046009412 -0.00379674206
v 0.0284986813 2.51291699e-09 -0.00027421111
v 0.0282336269 -0.00459579471 0.00396951986
v 0.0284590069 -0.00464403164 -4.8181475e-05
v 0.0260747503 -0.00437321514 0.0115973148
v 0.0259956848 6.5803909e-09 0.0116822282
v 0.0237416644 -0.00438908394 0.0158639122
v 0.0228880905 7.45425766e-09 0.0169819072
v 0.0187169258 9.81628778e-10 0.0214924887
v 0.0177955981 -0.00438359799 0.022344552
v 0.0212095957 -0.00435881829 0.0190865882
v 0.0133943185 -0.00436092913 0.0251990203
v 0.0136760203 6.92831625e-10 0.0250043292
v 0.00882226229 -0.00439741369 0.0271597113
v 0.00799961295 -3.69770081e-09 0.0273542572
v 0.00493268762 -0.00436261576 0.028109435
v 0.0284927003 -0.00495504122 0.00452826498
v 0.0278523453 -0.00494268257 0.00794501789
v 0.0286756065 -0.00499275886 -0.00279880175
v 0.0277018473 -0.00482237292 -0.00784183107
v 0.0290979929 -0.00517379772 0.0035878669
v 0.0288632903 -0.00500133168 -0.00637843041
v 0.0294284783 -0.00527712842 -0.00667037023
v 0.029357994 -0.00581048848 0.00471901381
v 0.0297943354 -0.00616867514 -0.00180197496
v -0.0285054147 -0.00478030741 0.00407930138
v -0.0284348708 -0.00496057793 0.006432069
v -0.027605217 -0.0045872652 -0.007520332
v -0.0287120156 -0.00497958483 -0.00552830799
v -0.0282452255 -0.00458710175 -0.0044673048
v -0.0291324072 -0.00522985356 0.00136819691
v -0.0293347631 -0.0056826272 0.0033057204
v -0.0295277555 -0.00539799547 -0.00701710582
v 3.90643618e-05 -0.00496406201 0.0291121751
v -0.00755989319 -0.0049678525 0.0281903744
v -0.0158494264 -0.00497328583 0.0245122071
v -0.0206857789 -0.00495219696 0.0202809405
v -0.0257106591 -0.00493802456 0.0133837024
v -0.0235885307 -0.00479683932 0.0165160168
v 0.0264066253 -0.00487291953 0.01173048
v 0.0242071245 -0.00500047533 0.0170405991
v 0.0241572447 -0.0048806644 0.0158527847
v 0.0213288888 -0.00486329012 0.0194653794
v 0.0166839734 -0.00499909045 0.0245346483
v 0.0176966079 -0.00486155413 0.0228363872
v 0.0134063428 -0.00488046603 0.0255949963
v 0.00709192967 -0.00499903131 0.0287405159
v 0.00485429913 -0.00487517053 0.0284666866
v 0.00918545388 -0.00486271083 0.0273762718
v -0.0286440514 -0.00501325028 0.0316658281
v 0.0281932745 -0.00500986911 0.0318494588
v 0.0271296781 -0.00501975557 0.0335216746
v -0.0250495914 -0.00504698558 0.0370222554
v 0.031034803 -0.00638556387 -0.00956779905
v 0.0310340337 -0.00705182878 -0.0216989499
v 0.0310321003 -0.00755744055 -0.00419401051
v 0.0295341704 -0.00519228308 -0.0127457157
v 0.0310376715 -0.00609404454 -0.0147636021
v 0.0261367299 -0.00494167814 -0.01244283
v 0.0228283592 -0.00498240115 -0.0186324269
v 0.0210683979 -0.00485225068 -0.0197086539
v 0.0236327164 -0.00461348938 -0.0160979386
v -0.0261363704 -0.0048472546 -0.0121583408
v -0.0252216551 -0.00500282319 -0.0155385612
v -0.0238086823 -0.00482236128 -0.0162005685
v -0.021218285 -0.00494551565 -0.0197582263
v 0.018966414 -0.00496115116 -0.0218531899
v -0.018082669 -0.00499873888 -0.0227013547
v 0.0165593475 -0.00505706249 -0.0237068869
v 0.00742692128 -0.00555933034 -0.0279452614
v 0.0027665603 -0.00569006056 -0.0287328362
v -0.00145130395 -0.00571067305 -0.0288604852
v 0.0132475952 -0.00532917539 -0.0259548835
v -0.00736495946 -0.00562037854 -0.0281508714
v -0.0131156892 -0.00534265535 -0.0260290001
v -0.0290138014 -0.00505862944 -0.0205133483
v -0.0309980903 -0.00607641228 -0.0145797953
v -0.0302792024 -0.00691985944 -0.00220964709
v -0.0310156941 -0.00706179161 -0.00575314602
v -0.0310119595 -0.00623494992 -0.0105956681
v -0.0310082957 -0.0072247223 -0.0223714039
v -0.028733924 -0.00593757583 -0.0272247382
v -0.0286771469 -0.00948826782 -0.0345560536
v -0.0290549807 -0.0052503664 -0.0233967789
v -0.0293306839 -0.00639704242 -0.0273634568
v -0.0290530361 -0.00754567143 -0.0311168469
v -0.0292825382 -0.0101427818 -0.034733396
v -0.0291574895 -0.00550605124 0.0147886444
v -0.0290318672 -0.00518872449 0.0285075717
v -0.0293234754 -0.00634424482 0.010675001
v -0.0310057458 -0.0298696142 0.0171112567
v -0.0295571741 -0.0145752141 0.0215264969
v -0.0296799019 -0.0241990127 0.0235295277
v -0.029209407 -0.0216728114 0.0273259412
v -0.0294899009 -0.0320694596 0.02425812
v -0.03052398 -0.0363160074 0.0195245668
v -0.0290921051 -0.037200816 0.0241096858
v -0.0292091593 -0.043741405 0.0217436142
v -0.0310126618 -0.0405436121 0.0180712715
v -0.0310112685 -0.0466420464 0.016909074
v -0.0291734394 -0.0494511239 0.0194424763
v -0.0310119372 -0.0539094843 0.0138733285
v -0.0293243174 -0.0562652797 0.0157751981
v -0.0309879165 -0.0188256912 0.0120174363
v -0.0310074072 -0.0149220144 0.00847641099
v -0.0310156569 -0.00962686446 0.00101228163
v -0.0301422942 -0.00892318878 0.0056694299
v 0.00672176247 -0.00539417565 0.0396227315
v -0.000378186611 -0.00522606727 0.0400691256
v 0.0180028677 -0.0050156042 0.0374038443
v 0.0258823726 -0.00511881197 0.034563195
v 0.0225143582 -0.00523278583 0.03610643
v 0.026169192 -0.00537537225 0.0344834626
v 0.0175619666 -0.00537145464 0.0376953445
v 0.013235081 -0.00520534348 0.0387092419
v -0.00816021953 -0.00545313442 0.0400181077
v -0.0152777359 -0.00535130827 0.0394335575
v -0.0208525732 -0.00548007945 0.0384331681
v -0.0259755999 -0.00553432573 0.0367153883
v 0.00631328439 -0.00501957117 0.0395199619
v -0.00769418618 -0.00503209047 0.0399001166
v -0.0151040182 -0.00503645372 0.0393269435
v -0.020915715 -0.00503513822 0.0382867493
v 0.0288450271 -0.00505621545 0.0287041925
v 0.0290502124 -0.0053097601 0.0286369082
v 0.0273859575 -0.00531607866 0.0335449278
v 0.0282508489 -0.00526999682 0.0323634036
v 0.0286418181 -0.00523317559 0.0312857628
v -0.0287977494 -0.00522638718 0.0323132649
v -0.0264795329 -0.00510776648 0.0363755971
v -0.0276155416 -0.00525013357 0.0354308747
v -0.0284098424 -0.0052260235 0.0339309387
v -0.0278049503 -0.00501454016 0.0347872265
v 0.029084092 -0.00498552388 -0.0200090818
v 0.0150758242 -0.00616883067 -0.0296973009
v 0.0141892843 -0.00759732025 -0.0333072357
v 0.000236352906 -0.00727830641 -0.0333423316
v -0.0219206121 -0.00938532129 -0.0353032872
v -0.0121459002 -0.00862866081 -0.0352274477
v 0.00916988961 -0.00885762461 -0.0357355364
v 0.0287199784 -0.00943369791 -0.0344740897
v 0.0285731051 -0.00724453572 -0.0307847653
v 0.0290766805 -0.00606402941 -0.0273142159
v 0.0290856659 -0.00522253197 -0.0233536661
v -0.0149306469 -0.00681664934 -0.0315657407
v -0.0310122669 -0.00872990675 -0.0265099704
v -0.031012712 -0.0112378569 -0.0312671885
v 0.0310353171 -0.0118351253 -0.0321820974
v 0.0293080993 -0.0101389615 -0.034726277
v 0.0310361348 -0.00871460792 -0.0264845211
v 0.029196946 -0.0458529815 0.0210059267
v 0.0290930737 -0.0397270508 0.0233338624
v 0.0284563154 -0.0269971155 0.0276542101
v 0.0282680374 -0.0367909186 0.0249143094
v 0.0292722937 -0.0260080229 0.0261587203
v 0.0292674769 -0.0171447881 0.0270006675
v 0.0293575674 -0.0361117423 0.0238047764
v 0.0284331776 -0.0454758592 0.0216254983
v 0.0267975088 -0.0272516627 0.0284063611
v 0.0265696272 -0.0183584895 0.0310267173
v 0.0279827882 -0.0168786068 0.0304845646
v 0.0223484226 -0.015084967 0.0333797224
v 0.0205092411 -0.0215948895 0.0317798965
v 0.0158140939 -0.0284561794 0.0301217865
v 0.0100632887 -0.0307883061 0.0298207551
v 0.0159934312 -0.0556935109 0.0177002884
v 0.0208505448 -0.0460098684 0.0222992226
v 0.0236726645 -0.0309854895 0.0278762318
v 0.0239702966 -0.0373144113 0.0255225431
v 0.0289319512 -0.0557979085 0.016486425
v -0.00369056687 -0.0556732975 0.0181723256
v 0.0104201855 -0.049495697 0.0212468579
v -0.00241482537 -0.043957036 0.0242389347
v 0.0077341306 -0.0408744961 0.0255254991
v -0.00024789985 -0.031785924 0.0298202876
v -0.00339080603 -0.0160320643 0.0362461992
v 0.00755832437 -0.0150333298 0.0361267701
v 0.0147129083 -0.0166184418 0.0346236862
v -0.015284542 -0.0462790355 0.0226092394
v -0.0247755777 -0.0474235564 0.0212828554
v -0.0162696 -0.017929785 0.0346632749
v -0.0109573035 -0.0307008401 0.0300360583
v -0.0181424525 -0.0555777326 0.0175926294
v -0.0285583045 -0.0496912152 0.0197158866
v -0.0288599674 -0.0559736602 0.016422946
v -0.0279352795 -0.0331716947 0.0264853463
v -0.022473529 -0.0172953364 0.0337440409
v -0.0216164496 -0.0307239313 0.028761588
v -0.0285336934 -0.0417795405 0.0230507571
v -0.0286573526 -0.0215606876 0.0291994493
v -0.028759582 -0.031033162 0.0264673606
v 0.0293695275 -0.0559590943 0.0159197841
v 0.029060822 -0.0509481616 0.0190006848
v -0.0310120936 -0.0279663373 -0.0442049205
v -0.0310124028 -0.0304197334 -0.0402654707
v -0.031011736 -0.0505348407 0.0107265329
v -0.0310136098 -0.0206348319 -0.0406666659
v -0.0310124028 -0.0247275066 -0.0379159898
v -0.0310123991 -0.0197008215 -0.0343587585
v -0.0310119055 -0.0154055608 -0.0364109054
v -0.0310122464 -0.0455797911 0.0126039283
v -0.0310122501 -0.039507471 0.0136278756
v -0.0310119651 -0.0509278588 -0.0430569015
v -0.0310123768 -0.0485552251 -0.0392243341
v -0.0310123917 -0.0155916987 -0.0297721941
v -0.0310125165 -0.0591146946 0.0101330802
v -0.0310122501 -0.0562987179 0.00669720909
v -0.0310121849 -0.0628871918 0.00616434822
v -0.0310122576 -0.0604078397 0.00211064727
v -0.0310123805 -0.0126062185 -0.0243862253
v -0.0310122576 -0.0333595537 0.0132749081
v -0.0310123991 -0.0364920609 -0.0412894227
v -0.0310126543 -0.0371554978 -0.045801498
v -0.0310109276 -0.0680354536 -0.00307790283
v -0.031012265 -0.0633933097 -0.00327532133
v -0.0310128015 -0.0658803955 0.00176182401
v -0.0310123879 -0.0426399857 -0.0409364551
v -0.0310119353 -0.0437700227 -0.045232635
v -0.0310123656 -0.0108940778 -0.0184709933
v -0.0310122687 -0.0274443142 0.0115627861
v -0.0310122836 -0.0220583528 0.00857728813
v -0.0310114976 -0.0693618134 -0.0078352401
v -0.0310122799 -0.0651054606 -0.0091905538
v -0.0310123507 -0.0105411336 -0.0123230526
v -0.0310123842 -0.0573833883 -0.0392643027
v -0.0310123656 -0.0539411791 -0.0362388343
v -0.0310122985 -0.017471781 0.00446818396
v -0.0310108569 -0.0699346364 -0.015762642
v -0.0310122948 -0.0654584169 -0.0153384665
v -0.0310123134 -0.0644344613 -0.0214108005
v -0.0310123321 -0.062084984 -0.0271030143
v -0.0310131051 -0.0677146986 -0.0255992711
v -0.0310123321 -0.0115650762 -0.00625074748
v -0.031012658 -0.0637004524 -0.0329031274
v -0.031012347 -0.0585277565 -0.032129731
v -0.0310123172 -0.0139145628 -0.000558505417
v 0.0310359187 -0.0367703326 -0.0457736999
v 0.0310359187 -0.00928558782 6.51180599e-05
v 0.0310319439 -0.0117395632 0.00437951973
v 0.0310355406 -0.0290767401 -0.044520665
v 0.0310352184 -0.0224079136 -0.0417077392
v 0.0310334619 -0.0432848781 -0.0453126803
v 0.0310350806 -0.0505856723 -0.0431999564
v 0.0310351551 -0.0573457442 -0.039323248
v 0.0310404096 -0.0415023044 0.0179483779
v 0.031030016 -0.0188650098 0.0121397534
v 0.0310350079 -0.0294743646 0.0170194115
v 0.0310361404 -0.0168929491 -0.0378329977
v 0.0310355965 -0.0636324137 -0.0329303741
v 0.031037692 -0.0509311147 0.0154213039
v 0.0310355183 -0.0671085194 -0.0269741174
v 0.0310357977 -0.0574578196 0.0114930514
v 0.0310353562 -0.0693225712 -0.02040953
v 0.0310353078 -0.0622496866 0.00696394406
v 0.0310361367 -0.0687219948 -0.00509941997
v 0.0310353544 -0.069933407 -0.0126903793
v 0.0310340505 -0.0663484633 0.000881434185
v 0.0293260571 -0.0574289151 -0.0427066907
v 0.0293260831 -0.0253570285 -0.0462555513
v 0.0292628128 -0.0698163286 -0.0282093957
v 0.0293439273 -0.0611960553 -0.0397470072
v 0.029226616 -0.0485851057 -0.0471319035
v 0.0293686502 -0.0210053455 -0.044151336
v 0.0291044284 -0.0125910453 -0.0380630121
v 0.0290409382 -0.016304886 -0.0414634869
v 0.0293241125 -0.0294291805 -0.0475637577
v 0.0293572452 -0.0341844521 -0.0483997464
v 0.0293729026 -0.0396835171 -0.0485434011
v 0.0293314774 -0.044459112 -0.0480237119
v 0.0293732025 -0.0531106666 -0.0451332293
v 0.0293694474 -0.0642830282 -0.0365819596
v -0.02840483 -0.012798802 -0.0385685936
v -0.0293698069 -0.0715518519 -0.0227813162
v -0.0290561151 -0.0701526478 -0.0279641654
v -0.0286963247 -0.0719554424 -0.0233324692
v -0.029193297 -0.0676419735 -0.0323576331
v -0.0283440445 -0.0682620332 -0.0320339799
v -0.029034419 -0.0650712401 -0.0362427272
v -0.0290321168 -0.0617608055 -0.0397255793
v -0.0290308055 -0.0580099151 -0.0427246243
v -0.0290293936 -0.0538880788 -0.0451832376
v -0.0292962957 -0.0488260686 -0.0469114967
v -0.0287532024 -0.0495283641 -0.0471127629
v -0.029296048 -0.0442305692 -0.048080679
v -0.0287650023 -0.0448936485 -0.0483663902
v -0.0289999582 -0.0390448719 -0.048975233
v -0.0280089416 -0.0429059491 -0.0488486886
v -0.028404573 -0.034032993 -0.0489233248
v -0.028737599 -0.0294243749 -0.0480051041
v -0.0284639914 -0.0243730899 -0.0463971458
v -0.029176617 -0.0345913507 -0.0486329496
v -0.0292774905 -0.0298210494 -0.0476859026
v -0.029175844 -0.0251863673 -0.0463670567
v -0.0290073436 -0.0204765797 -0.0443017893
v -0.0290185902 -0.0165495183 -0.0416669585
v -0.0292038694 -0.0131888054 -0.0384323113
v -0.0287535544 -0.0700229555 0.000848984171
v -0.0280958787 -0.068413116 0.00419933023
v -0.0285374504 -0.0668438151 0.00646378053
v -0.0284687225 -0.0719541684 -0.00420015072
v -0.0287529714 -0.0728585124 -0.00876964908
v -0.0284103006 -0.0733057633 -0.0136218742
v -0.0285535771 -0.0729302093 -0.0186845381
v -0.0292053521 -0.072630465 -0.0184242576
v -0.0291797426 -0.0729604959 -0.0136098433
v -0.0293890107 -0.0723252967 -0.00863179751
v -0.0291717723 -0.0714514479 -0.00365335098
v -0.0293821245 -0.0695873201 0.000592251308
v -0.0291831084 -0.0671916232 0.0054012374
v -0.0293662399 -0.064030312 0.0091770133
v -0.0290447883 -0.0605590418 0.0130837038
v -0.0287254304 -0.0639429092 0.0100030703
v -0.0281443261 -0.0590252988 0.0145738665
v 0.0287477057 -0.0287840813 -0.0478424206
v 0.0146634262 -0.0287100319 -0.0488386825
v 0.00375152775 -0.0282403864 -0.0490269512
v -0.0207370576 -0.0285845269 -0.0484424271
v -0.00864863396 -0.028395284 -0.0489832759
v -0.0105344011 -0.0729738921 -0.0237842891
v -0.0141783189 -0.0712832808 -0.0281968918
v 0.0287749805 -0.0649725497 -0.0364871137
v 0.0162636191 -0.0663698092 -0.0361676365
v 0.0162636191 -0.0711456761 -0.0281535927
v 0.0285780672 -0.0701823905 -0.0282596033
v 0.0182115752 -0.0726170242 -0.0237234123
v 0.0289886221 -0.0718562528 -0.0232929531
v 0.0162636191 -0.0690176561 -0.0323154889
v 0.0290373862 -0.0676335543 -0.032711748
v 0.0287399963 -0.0620232448 -0.0396143831
v 0.0162636191 -0.0632465258 -0.0396454148
v 0.0287647694 -0.0579769462 -0.0428453721
v 0.0162636191 -0.0597001314 -0.04269059
v 0.0287096165 -0.0538069643 -0.0453396253
v 0.0162636191 -0.0557900667 -0.0452521257
v 0.0162636191 -0.0515818559 -0.0472870581
v 0.0284510646 -0.0485063866 -0.0475372225
v 0.0162636191 -0.0471460409 -0.0487612933
v 0.0287705809 -0.0439535975 -0.0485421978
v 0.0162636191 -0.0425569341 -0.0496501587
v 0.0286875982 -0.0386190899 -0.0490814447
v 0.0162636191 -0.0378914438 -0.0499387532
v 0.0162636191 -0.0332277864 -0.049622193
v 0.0287763104 -0.0338730067 -0.0488073267
v 0.00378815597 -0.0331760943 -0.0500098877
v -0.0086749522 -0.0331887528 -0.0499149263
v -0.013848302 -0.038077686 -0.0500980355
v -0.0134143401 -0.0472941957 -0.0489007346
v -0.0136090228 -0.0517658331 -0.0473941043
v -0.0136140734 -0.0560147315 -0.0453180447
v -0.0136923138 -0.0599539392 -0.0427067988
v -0.0137586435 -0.0635130703 -0.0396133736
v -0.0138424765 -0.0666463003 -0.0360763781
v 0.00360885332 -0.0731336847 -0.0238683671
v 0.00378815597 -0.0715047121 -0.028308725
v 0.00378815597 -0.0693536401 -0.0325157233
v 0.00378815597 -0.0666771159 -0.0364095941
v 0.00378815597 -0.0635199919 -0.0399250388
v 0.00378815597 -0.0599351898 -0.0430031978
v 0.00378815597 -0.055982776 -0.0455924608
v 0.00378815597 -0.0517289862 -0.0476494506
v 0.00378815597 -0.0472451113 -0.0491396636
v 0.00378815597 -0.0426062904 -0.0500381477
v 0.00378815597 -0.0378902704 -0.0503298678
v -0.0086749522 -0.0692713559 -0.0324666761
v -0.0086749522 -0.0425942019 -0.0499431305
v -0.00867495127 -0.0117997639 -0.0391047858
v 0.0162636191 -0.0120123103 -0.0388997272
v 0.0037881569 -0.0117308162 -0.0391712673
v 0.02873924 -0.0245634653 -0.0464087576
v 0.0162636191 -0.023361735 -0.0468387567
v -0.00867495127 -0.0232420191 -0.0471087247
v 0.0037881569 -0.0232031718 -0.0471963026
v 0.0287958086 -0.0203809291 -0.0443166643
v 0.0162636191 -0.0192476604 -0.0446878225
v 0.0037881569 -0.0190445408 -0.0450220816
v -0.0137896147 -0.0191338658 -0.044809334
v 0.0162636191 -0.0154435569 -0.0420268178
v 0.0037881569 -0.0151992263 -0.0423322394
v -0.0137896882 -0.0153151136 -0.0421327315
v -0.0135584641 -0.0714262575 0.000266732968
v -0.0142192058 -0.0739124343 -0.0187953115
v -0.00304692588 -0.0597011149 0.0156015661
v 0.0162635185 -0.0594748668 0.0151970917
v 0.0283359904 -0.0582513511 0.0150627997
v 0.0285520591 -0.0645076856 0.00942353345
v 0.0162635185 -0.0631783083 0.0120504526
v 0.0162635185 -0.0664256662 0.00843501929
v 0.0285546202 -0.0611681007 0.0127560515
v 0.0285671148 -0.0699371472 0.00110529759
v 0.0162635185 -0.0713261664 6.69385408e-05
v 0.0162635185 -0.0691581145 0.00441624038
v 0.0285375211 -0.067725949 0.00515044341
v 0.0284833796 -0.0718800351 -0.0039672195
v 0.0162635185 -0.0728905573 -0.00453407643
v 0.0285580754 -0.072865203 -0.00859893765
v 0.0162635185 -0.0738229305 -0.00930351857
v 0.0162635185 -0.0741064101 -0.0141549483
v 0.029017413 -0.0731292069 -0.0132565713
v 0.0285345651 -0.0729628503 -0.0185405444
v 0.0162635185 -0.073735863 -0.0190005172
v 0.00378805562 -0.0741229504 -0.019056512
v -0.0139731942 -0.0739605799 -0.00912829302
v -0.0139787337 -0.07298702 -0.00428712508
v -0.01391955 -0.0664782226 0.00862436742
v -0.0137141403 -0.0631958917 0.0122637423
v 0.00378805562 -0.0634510443 0.0123308012
v 0.00378805562 -0.0667335689 0.00867620017
v 0.00378805562 -0.0694956258 0.00461390056
v 0.00378805562 -0.0716871545 0.000217497261
v 0.00378805562 -0.073268488 -0.00443339068
v 0.00378805562 -0.0742109641 -0.00925446767
v 0.00378805562 -0.0744975135 -0.0141584584
v -0.00867505185 -0.0694129542 0.00456549181
v -0.00867505185 -0.0744017214 -0.0141575914
v 0.030298369 -0.0329415686 0.0205106419
v 0.02977168 -0.00847230479 0.0101389932
v 0.0301675051 -0.0234785788 0.0195015594
v 0.0298533458 -0.0168619361 0.019633323
v 0.0292936638 -0.00725029176 0.020728061
v 0.0290813576 -0.00511998869 0.0150424307
v 0.0291899815 -0.00776091916 -0.0312235728
v 0.0292541925 -0.0600520819 0.0132089937
v 0.0293069854 -0.0635225698 0.00988576002
v 0.0292637516 -0.0669441745 0.00564014167
v 0.029292943 -0.0693461373 0.00139989692
v 0.0292505417 -0.0712555498 -0.0032978768
v 0.0293093547 -0.0724493265 -0.00858912617
v 0.0292829666 -0.0725751743 -0.0183390845
v 2.12770496e-10 5.60518476e-09 0.0272499956
v -0.00606369553 5.8362648e-09 0.0265667755
v -0.0118233319 2.50743071e-09 0.0245514028
v -0.0169900972 -4.47333992e-09 0.0213049166
v -0.0213049073 1.7023446e-09 0.0169900917
v -0.0245514009 7.20352267e-09 0.0118233245
v -0.0265667848 2.54235411e-09 0.00606370857
v -0.0272499993 -5.01959452e-09 1.12537135e-08
v -0.0265667848 1.74237091e-09 -0.00606368203
v -0.0245514009 5.29583088e-09 -0.0118233263
v -0.0213049073 -3.52691387e-09 -0.0169900972
v -0.0169900972 -5.5658731e-09 -0.0213048942
v -0.0118233319 -4.33202185e-09 -0.0245514084
v -0.00606369553 -7.66086927e-09 -0.0265667811
v 2.12770496e-10 6.89411195e-09 -0.0272499975
v 0.00606369553 5.83625059e-09 0.0265667755
v 0.0118233319 2.5074034e-09 0.0245514028
v 0.0169900972 -4.473379e-09 0.0213049166
v 0.0213049073 1.70229542e-09 0.0169900917
v 0.0245514028 7.20346627e-09 0.0118233245
v 0.0265667867 2.5422926e-09 0.00606370857
v 0.0272499993 -5.01965758e-09 1.12537135e-08
v 0.0265667867 1.74230952e-09 -0.00606368203
v 0.0245514028 5.29577404e-09 -0.0118233263
v 0.0213049073 -3.52696317e-09 -0.0169900972
v 0.0169900972 -5.56591218e-09 -0.0213048942
v 0.0118233319 -4.33204939e-09 -0.0245514084
v 0.00606369553 -7.66088348e-09 -0.0265667811
v 2.12768192e-10 -0.00200000592 0.0272500012
v 0.00606369553 -0.00200000568 0.0265667811
v 0.0118233319 -0.00200000894 0.0245514084
v 0.0169900972 -0.00199999358 0.021304898
v 0.0213049073 -0.00199999544 0.016990101
v 0.0245514028 -0.00200000429 0.0118233301
v 0.0265667867 -0.00200000079 0.00606368575
v 0.0272499993 -0.00199999404 -7.59913732e-09
v 0.0265667867 -0.00200000149 -0.00606370484
v 0.0245514028 -0.00200000615 -0.0118233208
v 0.0213049073 -0.00200000079 -0.0169900879
v 0.0169900972 -0.00199999451 -0.0213049129
v 0.0118233319 -0.00200000149 -0.0245513991
v 0.00606369553 -0.00200000498 -0.0265667718
v 2.12768192e-10 -0.00200000475 -0.0272499919
v -0.00606368948 -0.00199999451 -0.0265667755
v -0.0118233319 -0.00200000149 -0.0245513991
v -0.0169900972 -0.00199999451 -0.0213049129
v -0.0213049073 -0.00200000079 -0.0169900879
v -0.0245514009 -0.00200000615 -0.0118233208
v -0.0265667848 -0.00200000149 -0.00606370484
v -0.0272499993 -0.00199999404 -7.59913732e-09
v -0.0265667848 -0.00200000079 0.00606368575
v -0.0245514009 -0.00200000429 0.0118233301
v -0.0213049073 -0.00199999544 0.016990101
v -0.0169900972 -0.00199999358 0.021304898
v -0.0118233319 -0.00200000894 0.0245514084
v -0.00606369553 -0.00200000568 0.0265667811
v -0.0304124597 -0.0455797911 0.0126039283
v -0.0304124597 -0.039507471 0.0136278756
v -0.0304124597 -0.0333595537 0.0132749081
v -0.0304124597 -0.0274443142 0.0115627861
v -0.0304124597 -0.0220583528 0.00857728813
v -0.0304124597 -0.017471781 0.00446818396
v -0.0304124597 -0.0139145628 -0.000558505417
v -0.0304124597 -0.0115650762 -0.00625074748
v -0.0304124597 -0.0105411336 -0.0123230526
v -0.0304124597 -0.0108940778 -0.0184709933
v -0.0304124597 -0.0126062185 -0.0243862253
v -0.0304124597 -0.0155916987 -0.0297721941
v -0.0304124597 -0.0197008215 -0.0343587585
v -0.0304124597 -0.0247275066 -0.0379159898
v -0.0304124597 -0.0304197334 -0.0402654707
v -0.0304124597 -0.0364920609 -0.0412894227
v -0.0304124597 -0.0426399857 -0.0409364551
v -0.0304124597 -0.0485552251 -0.0392243341
v -0.0304124597 -0.0539411791 -0.0362388343
v -0.0304124597 -0.0585277565 -0.032129731
v -0.0304124597 -0.062084984 -0.0271030143
v -0.0304124597 -0.0644344613 -0.0214108005
v -0.0304124597 -0.0654584169 -0.0153384665
v -0.0304124597 -0.0651054606 -0.0091905538
v -0.0304124597 -0.0633933097 -0.00327532133
v -0.0304124597 -0.0604078397 0.00211064727
v -0.0304124597 -0.0562987179 0.00669720909
v -0.0304124616 -0.0512720272 0.0102544446
vn 0 -0.8931812 -0.449697
vn 0 -0.8931806 -0.4496982
vn 0 -0.9708531 -0.2396754
vn 0 -0.9708536 -0.2396734
vn 0 -0.9998445 -0.01763173
vn 0 -0.9998446 -0.0176308
vn 0 -0.9786997 0.2052974
vn 0 -0.9786995 0.2052982
vn 0 -0.9084781 0.4179326
vn 0 -0.9084777 0.4179334
vn 0 -0.7927048 0.6096057
vn 0 -0.7927042 0.6096065
vn 0 -0.6371761 0.7707182
vn 0 -0.6371753 0.7707189
vn 0 -0.4497014 0.893179
vn 0 -0.4497003 0.8931794
vn 0 -0.239675 0.9708531
vn 0 -0.2396737 0.9708535
vn 0 -0.01763113 0.9998446
vn 0 -0.0176299 0.9998446
vn 0 0.2052996 0.9786991
vn 0 0.2053009 0.9786989
vn 0 0.4179322 0.9084781
vn 0 0.4179335 0.9084777
vn 0 0.6096055 0.7927051
vn 0 0.6096067 0.792704
vn 0 0.7707194 0.6371747
vn 0 0.7707202 0.6371737
vn 0 0.8931784 0.4497024
vn 0 0.893179 0.4497012
vn 0 0.970853 0.2396755
vn 0 0.9708535 0.2396737
vn 0 0.9998446 0.01762993
vn 0 0.9998446 0.01762835
vn 0 0.9786997 -0.2052971
vn 0 0.9786994 -0.2052985
vn 0 0.9084782 -0.4179324
vn 0 0.9084775 -0.4179338
vn 0 0.7927036 -0.6096073
vn 0 0.7927027 -0.6096085
vn 0 0.6371796 -0.7707154
vn 0 0.6371784 -0.7707164
vn 0 0.4497015 -0.8931789
vn 0 0.4497001 -0.8931796
vn 0 0.2396752 -0.9708531
vn 0 0.2396738 -0.9708536
vn 0 0.01763102 -0.9998446
vn 0 0.01762969 -0.9998446
vn 0 -0.205298 -0.9786995
vn 0 -0.2052992 -0.9786993
vn 0 -0.41793 -0.9084792
vn 0 -0.4179311 -0.9084787
vn 0 -0.6096092 -0.792702
vn 0 -0.6096101 -0.7927014
vn 0 -0.770715 -0.63718
vn 0 -0.7707149 -0.63718
vn -0.371563 0.04842772 -0.9271438
vn -0.4504853 0.402552 -0.7968782
vn -0.4758746 0.03161413 -0.8789448
vn -0.8768616 0.3899441 -0.2811712
vn -0.9905034 0.02620775 -0.1349679
vn -0.9782906 0.04232382 -0.2028702
vn -0.2627912 0.03523577 0.9642091
vn -0.3260291 0.4011575 0.8560243
vn -0.1612983 0.0304183 0.9864368
vn 0.02211294 0.02341748 0.9994811
vn -0.002046412 0.4407502 0.8976274
vn -0.416367 0.3537426 0.8375588
vn -0.4550728 0.02070284 0.8902135
vn -0.6778625 0.3535328 0.6446061
vn -0.5739139 0.3766376 0.7271637
vn -0.6466224 0.02624831 0.7623585
vn -0.7870318 0.008962904 0.6168473
vn -0.7731557 0.26649 0.5755115
vn -0.8785196 0.2717289 0.3928954
vn -0.9003537 0.02294034 0.4345537
vn -0.9740271 0.03483491 0.2237359
vn -0.8846402 0.3627963 0.2929005
vn -0.9243667 0.3814327 -0.007449643
vn -0.9573489 0.2525143 0.1404266
vn -0.9994684 0.03125144 0.009290839
vn -0.9103164 0.02485657 -0.4131661
vn -0.8805972 0.2413552 -0.4077943
vn -0.8191189 0.2039135 -0.5361562
vn -0.8041057 0.0284433 -0.5938055
vn -0.6552019 0.03601949 -0.7545946
vn -0.6905635 0.3595174 -0.6275901
vn -0.5244747 0.2655606 -0.8089523
vn -0.654042 0.01711478 -0.7562645
vn -0.3270036 -0.08652683 -0.9410535
vn -0.2794275 0.0286358 -0.9597397
vn -0.168383 0.4190049 -0.8922343
vn -0.008964377 0.02216535 -0.9997141
vn -0.05656723 0.2518396 -0.9661143
vn 0.2604579 0.02819362 -0.9650735
vn 0.1382309 0.2308729 -0.9631147
vn 0.4531401 0.4137712 -0.7895932
vn 0.3197345 0.3854519 -0.8655614
vn 0.4621503 0.02979451 -0.8863009
vn 0.3019406 0.241697 -0.9221792
vn 0.6407262 0.02804227 -0.7672572
vn 0.583282 0.2721242 -0.7653304
vn 0.7064409 0.2882306 -0.6464244
vn 0.7895594 0.03294348 -0.6127893
vn 0.7372391 0.4877195 -0.4675555
vn 0.9057171 0.02428458 -0.4231866
vn 0.8661292 0.3080198 -0.3936295
vn 0.9443492 0.2191755 -0.245289
vn 0.9741791 0.02354974 -0.2245447
vn 0.9998409 0.01579383 -0.008297619
vn 0.9442604 0.3021981 -0.1305711
vn 0.9221788 0.3126608 0.2276609
vn 0.9376611 0.3386198 0.07828312
vn 0.9778124 0.02597926 0.2078653
vn 0.9935445 0.1105001 0.02567278
vn 0.8659603 0.3191249 0.385061
vn 0.914599 0.01659615 0.4040213
vn 0.7912757 0.3073228 0.5286164
vn 0.7975203 0.02361598 0.6028298
vn 0.671041 0.003075577 0.7414138
vn 0.60647 0.300783 0.7360188
vn 0.696313 0.3202068 0.6423519
vn 0.4787463 0.0206266 0.877711
vn 0.4530767 0.301739 0.8388534
vn 0.2831625 0.3129706 0.9065696
vn 0.2604684 0.006014179 0.9654636
vn 0.1768494 0.3356307 0.925244
vn 0.5025181 0.8644326 -0.01522855
vn 0.5493579 0.8346879 0.03875565
vn 0.863729 0.4423492 -0.241453
vn 0.2848681 0.9522763 -0.1096359
vn 0.2945173 0.9556461 -5.145497e-05
vn 0.742889 0.6288115 0.229591
vn 0.6804307 0.7326801 0.01392818
vn 0.596417 0.800906 0.05325804
vn 0.7429138 0.6692767 0.01215973
vn 0.9422033 0.3330919 0.03609198
vn 0.8747151 0.4796529 0.06933024
vn -0.8049749 0.5872173 0.08480126
vn -0.777019 0.6288636 0.02778765
vn -0.4311859 0.9010007 0.047713
vn -0.4760175 0.8782789 -0.04509266
vn -0.574753 0.8168405 -0.04930112
vn -0.9267986 0.3735869 0.03843481
vn -0.5914967 0.8043962 0.05548324
vn -0.5556966 0.6094219 0.565514
vn -0.6957574 0.5640565 0.4447045
vn -0.6521724 0.6598927 0.3731121
vn -0.319353 0.8062699 0.4979381
vn -0.1496782 0.8096619 0.5674893
vn -0.09649806 0.6580457 0.7467691
vn 0.006715167 0.9488832 0.3155562
vn -0.6085348 -0.6590411 0.4419844
vn 0.1570329 0.9832441 0.09258322
vn 0.05719071 0.99734 0.04519003
vn 0.1654014 0.9819167 0.09209814
vn 0.7590762 -0.5774734 0.3005457
vn 0.269987 0.9244967 0.2690965
vn 0.03972787 0.9972714 0.06222124
vn 0.1521003 0.9737136 0.1695504
vn 0.2593569 0.810347 0.5254253
vn 0.07427857 0.820717 0.5664859
vn 0.01925739 0.9968627 0.07677127
vn 0.2041574 0.8149492 0.5423813
vn 0.7411276 0.5815929 0.33538
vn 0.6919473 0.5743581 0.4374034
vn 0.598808 0.5667174 0.5659155
vn 0.4793596 0.5808671 0.6578814
vn -0.01076771 0.9999391 0.002386763
vn -0.3988032 0.9162442 0.03811257
vn 0.3695072 0.916275 0.1546114
vn 0.02707161 0.9996306 0.002423493
vn -0.001238228 0.9999897 0.004376329
vn -0.001399369 0.9999894 0.004384483
vn 0.3436742 0.8580514 0.3816228
vn 0.008106049 0.9996054 0.02689707
vn -0.4302802 0.8687865 0.2450897
vn 0.002542224 0.9997683 0.02137637
vn -0.002694261 0.9999888 0.003888974
vn -0.008787632 0.9997857 0.01874784
vn -0.0007170719 0.9998968 0.01434479
vn -0.001445653 0.9999868 0.004924356
vn -0.0008613116 0.9999841 0.005576485
vn 0.9449705 0.3212602 0.06182658
vn 0.6215017 0.7815502 0.0539894
vn 0.3786814 0.9252214 0.02378367
vn 0.5474681 0.8367819 -0.008641657
vn 0.3585799 0.931834 -0.05573035
vn 0.7222173 0.6798255 -0.1274345
vn 0.3932273 0.8981628 -0.1966619
vn 0.1002359 0.9904415 -0.0947542
vn 0.4469127 0.7817873 -0.4348307
vn -0.5177496 0.7676386 -0.3777121
vn -0.6494766 0.7097268 -0.2728883
vn -0.08598539 0.9951263 -0.04827313
vn -0.2988181 0.9104228 -0.2860735
vn 0.299417 0.8835654 -0.3600858
vn -0.4890487 0.6832911 -0.5421667
vn 0.2187455 0.8765358 -0.4287604
vn 0.1041206 0.8301717 -0.5476987
vn 0.02401951 0.8030693 -0.5954013
vn -0.02301453 0.7789686 -0.6266405
vn -0.2364974 0.9062488 -0.3504027
vn 0.1315639 0.9139169 -0.3839881
vn -0.08471943 0.8925728 -0.4428731
vn -0.1287506 0.9172119 -0.3770219
vn -0.2150524 0.6746829 -0.7060847
vn -0.3621844 0.9303218 -0.05765226
vn -0.4897607 0.8718135 -0.008697424
vn -0.8714798 0.4803601 0.09887896
vn -0.920756 0.3837049 0.0705621
vn -0.5737594 0.8176901 0.04672489
vn -0.7264372 0.6726944 -0.1406101
vn -0.7079064 0.674894 -0.2082942
vn -0.4196123 0.8979267 -0.132865
vn -0.2859346 0.9215664 -0.2625961
vn -0.4954983 0.779304 -0.3836231
vn -0.7249849 0.5454203 -0.4206111
vn -0.3269588 0.7750569 -0.5407261
vn -0.9881356 0.1504874 0.03068541
vn -0.9842899 0.1755637 0.01873165
vn -0.9986356 0.02237975 0.04717994
vn -0.4232183 0.9060262 0.001629735
vn -0.9963637 0.05193295 0.06754555
vn -0.9903804 0.0156811 0.1374798
vn -0.9780766 -0.03484336 0.2053095
vn -0.9595328 -0.04871816 0.2773505
vn -0.9647779 0.000334166 0.2630655
vn -0.8242809 -0.164367 0.5417975
vn -0.7680173 -0.2232835 0.6002449
vn -0.9815332 -0.03150476 0.1886798
vn -0.9691404 -0.08393299 0.2317801
vn -0.7079557 -0.2846367 0.6463596
vn -0.9603986 -0.1372936 0.2424559
vn -0.7603912 -0.3495879 0.5473514
vn -0.9943138 0.01552396 0.1053524
vn -0.9962179 0.05292053 0.0689153
vn -0.9787849 0.1923991 0.0704459
vn -0.967545 0.2372254 0.08706764
vn -0.99296 0.08797896 0.07930989
vn 0.08441424 0.9764235 0.198674
vn 0.3369525 -0.2239726 0.914494
vn 0.5307211 0.07617097 0.8441167
vn 0.4529342 0.2394645 0.8587825
vn 0.2617662 0.3964786 0.8799336
vn 0.2525938 0.06673509 0.9652683
vn 0.2208894 0.4395224 0.870648
vn 0.1176572 0.3799982 0.9174738
vn 0.07968044 0.343596 0.9357312
vn 0.1041615 0.0117025 0.9944915
vn 0.03105689 -0.3198315 0.9469653
vn -0.02900587 0.299364 0.9536979
vn -0.0542077 -0.01356759 0.9984375
vn -0.104356 0.3698948 0.9231942
vn -0.1324828 0.02250842 0.9909297
vn -0.2362414 0.2753935 0.9318521
vn -0.233355 -0.03389207 0.9718008
vn -0.3310557 0.04583074 0.9424976
vn -0.4547722 -0.08327554 0.8867059
vn 0.1656162 0.8889093 0.4270967
vn 0.01221198 0.8778038 0.4788647
vn 0.0703647 0.917944 0.3904199
vn 0.6979754 0.2159714 0.6827787
vn 0.5682741 0.7506395 0.3370532
vn 0.8749304 0.4292112 0.2242197
vn 0.9423738 0.3257656 0.07621361
vn 0.4864246 0.8728668 0.03866026
vn -0.7207837 0.2991027 0.6253067
vn -0.1369256 0.975619 0.1715192
vn -0.5878343 0.7994778 0.1236372
vn -0.8508188 0.4233413 0.3112708
vn -0.5875157 -0.05075626 0.8076194
vn 0.03128453 0.9549711 -0.2950448
vn 0.04363687 0.8843491 -0.4647823
vn -0.0009821517 0.8941164 -0.4478337
vn -0.037871 0.8244359 -0.5646868
vn -0.06330485 0.8192226 -0.569971
vn 0.02749885 0.8095595 -0.5863934
vn 0.3305275 0.7712661 -0.5439671
vn 0.2307206 0.8854198 -0.4034844
vn 0.4720919 0.8479757 -0.2409698
vn 0.02090371 0.9905288 -0.1357046
vn -0.05075702 0.9345902 -0.3520864
vn -0.9504886 0.2924446 -0.1051071
vn -0.9588147 0.2399398 -0.1519977
vn 0.9592268 0.2322871 -0.1610175
vn 0.7339897 0.5425813 -0.4084907
vn 0.640085 0.6779949 -0.3614057
vn 0.9488342 0.2970784 -0.1070422
vn 0.7577907 0.6383929 -0.1349358
vn 0.3248726 -0.2788855 0.9037039
vn 0.4076761 -0.2945838 0.8643035
vn 0.7054394 -0.1799064 0.6855574
vn 0.4078458 -0.2432062 0.880064
vn 0.7117807 -0.1567643 0.6846848
vn 0.8749874 -0.09367014 0.474998
vn 0.9879652 0.002406816 0.1546572
vn 0.9544935 -0.04607888 0.2946505
vn 0.7671322 -0.1944163 0.6113185
vn 0.3057306 -0.3558456 0.883121
vn 0.7369221 -0.2358809 0.6334871
vn 0.9043483 -0.1103593 0.4122804
vn 0.2749014 -0.2804634 0.9196572
vn 0.2096486 -0.3103031 0.9272321
vn 0.08877944 -0.4165166 0.904783
vn 0.152557 -0.3657851 0.9181109
vn 0.5258927 -0.3739391 0.7639414
vn 0.05195726 -0.5060762 0.8609225
vn 0.4010382 -0.4601805 0.7920874
vn -0.01309789 -0.5013149 0.8651658
vn 0.03457227 -0.4555481 0.8895395
vn -0.01026489 -0.4370997 0.8993545
vn 0.03874261 -0.4185626 0.9073611
vn 0.007410926 -0.3942315 0.9189813
vn 0.06909742 -0.3793066 0.9226874
vn -0.005661819 -0.3580568 0.9336826
vn 0.08226008 -0.3421578 0.9360349
vn 0.1664845 -0.3164179 0.9338965
vn 0.1567375 -0.3232323 0.9332492
vn 0.1264286 -0.3541601 0.9265994
vn 0.1973232 -0.3297433 0.9232188
vn -0.1178371 -0.3560711 0.9269993
vn -0.06367719 -0.3927689 0.91743
vn -0.1015882 -0.4198504 0.90189
vn -0.05151881 -0.5057887 0.8611177
vn -0.3011676 -0.4091724 0.8613222
vn -0.3985446 -0.4544915 0.7966177
vn -0.229201 -0.3329615 0.9146603
vn -0.1483316 -0.3743621 0.9153419
vn -0.4284359 -0.3121142 0.8479548
vn -0.06187435 -0.4436008 0.8940861
vn -0.4036301 -0.3227642 0.8560993
vn -0.9857887 -0.02909051 0.1654516
vn -0.9159929 -0.09939434 0.388687
vn -0.8073972 -0.163422 0.5669241
vn 0.7745633 -0.3374953 0.5349286
vn -0.9574215 0.1563642 -0.2426812
vn -1 -0.0001541291 9.679382e-05
vn -1 6.744033e-05 8.606642e-05
vn -0.9593943 0.1969172 -0.2019561
vn -1 -0.0001615778 0.0001240635
vn -1 2.472691e-06 -9.198427e-05
vn -0.9586771 0.0894165 -0.2700796
vn -1 1.686888e-05 -6.764359e-05
vn -1 -2.166198e-05 -1.957816e-05
vn -1 3.642086e-05 5.21039e-05
vn -0.9595499 -0.1842083 0.2129116
vn -1 4.094326e-05 -2.180915e-05
vn -0.9599661 -0.2225037 0.1701682
vn -1 5.699605e-05 1.217201e-05
vn -0.9999994 0.000505607 0.0009538431
vn -1 2.343815e-05 3.440864e-05
vn -0.9578765 0.007676302 -0.2870778
vn -0.9999999 0.0003643119 0.0001295868
vn -1 -0.0001552811 -4.621258e-05
vn -0.9617082 -0.2593134 0.08873489
vn -0.960534 -0.2409068 0.139062
vn -1 -5.214163e-05 -5.957813e-05
vn -0.9605432 -0.04900951 -0.2737788
vn -0.9999993 0.00113936 0.0004391247
vn -0.999998 0.001992533 0.0003216986
vn -0.9999948 0.00207799 0.002475148
vn -0.9999894 0.001732623 0.00425195
vn -0.9602783 -0.2735724 0.05498842
vn -0.9999999 -0.0002080515 2.570898e-06
vn -1 -3.462068e-05 -8.732611e-05
vn -0.9586371 -0.1173774 -0.259302
vn -0.9999985 0.001473363 -0.0009175544
vn -0.9999968 0.00227752 -0.001049502
vn -0.9999986 0.0004719972 -0.001600681
vn -0.9575622 -0.1752625 -0.2288178
vn -1 6.967091e-06 -2.818244e-05
vn -0.9999993 0.0008171971 0.0007004971
vn -0.9587116 -0.2838107 -0.01799233
vn -1 -0.0003197344 -1.381983e-05
vn -1 -2.871838e-05 0.000123385
vn -1 0.0001222274 3.698167e-05
vn -0.9577078 -0.2296062 -0.1734268
vn -0.9589792 -0.2633318 -0.1049532
vn -0.9999999 -0.0005227588 -0.0003530194
vn -1 4.493233e-05 2.139466e-05
vn -0.9999999 -0.0005440969 0.0001441047
vn 0.979546 0.1922439 0.05942991
vn 1 0.0003193895 0.000187539
vn 0.9999999 0.0004415475 0.0002884335
vn 0.9909082 0.118652 0.06342576
vn 0.9999996 0.0006247791 0.0006292191
vn 1 8.434369e-06 -6.025117e-05
vn 0.9604731 0.0771676 -0.2674635
vn 0.9606086 0.1373242 -0.2416052
vn 0.9614267 -0.04783272 -0.2708703
vn 0.9999999 9.909575e-06 -0.0003564185
vn 0.960541 -0.1087585 -0.2559933
vn 1 -4.569071e-05 -0.0001072356
vn 1 2.063054e-05 -8.142326e-06
vn 0.9788036 -0.04299731 0.2002364
vn 0.9999998 1.525525e-05 -0.0006588171
vn 0.9999998 0.0002397848 -0.0005845719
vn 1 3.224113e-05 0.0001824971
vn 0.9920915 0.02440278 0.1231216
vn 0.9952272 0.06159257 0.07569189
vn 0.9999997 0.0004842476 0.0004647929
vn 0.9999993 0.0006717228 0.0008546543
vn 0.9999999 0.0001429443 0.000378614
vn 0.9580297 0.1886076 -0.215885
vn 1 -1.092196e-05 6.106788e-05
vn 1 -0.0001286348 -8.372553e-05
vn 0.960418 0.01178077 -0.2783134
vn 1 -6.324692e-05 -8.483528e-05
vn 0.9591941 -0.1712961 -0.224954
vn 0.9587495 -0.2291867 -0.1681447
vn 1 -2.111357e-05 -4.625007e-05
vn 1 -3.957163e-05 -8.80648e-06
vn 0.9611976 -0.1174647 0.2496024
vn 1 0.0001607154 -0.0003074275
vn 1 6.861769e-05 -6.029667e-05
vn 1 -4.073609e-05 -3.240942e-05
vn 0.9596542 -0.2559771 -0.1163602
vn 1 -0.0001397825 0.0001685945
vn 1 -0.0001704328 9.919893e-05
vn 1 -7.846411e-05 -6.433994e-05
vn 0.9603978 -0.1710625 0.21994
vn 1 4.796971e-05 -0.0001184873
vn 0.9999999 0.0003418704 -7.68165e-05
vn 1 -7.566953e-05 -2.719393e-05
vn 1 -8.289255e-05 -4.385543e-06
vn 0.9565569 -0.2852466 -0.06027685
vn 0.9601834 -0.2123359 0.1815528
vn 1 -0.0001920186 5.62343e-05
vn 0.959958 -0.269401 0.07683546
vn 0.957401 -0.2887339 0.004005532
vn 1 -5.166804e-07 -4.677555e-05
vn 1 -0.0001427272 0.000192262
vn 0.9604352 -0.2470871 0.1285003
vn 0.6866564 -0.6624054 -0.2995363
vn 0.7358202 -0.4459103 -0.5096397
vn 0.6680831 -0.2294653 -0.7078211
vn 0.7371471 0.2418892 -0.6309547
vn 0.7485499 0.3201737 -0.5806564
vn 0.5193767 0.6160486 -0.5922263
vn 0.5098299 0.5316639 -0.6763186
vn 0.7339557 0.1540537 -0.6614957
vn 0.7443316 0.07074852 -0.6640521
vn 0.7286366 -0.04310142 -0.683543
vn 0.7377901 -0.1329581 -0.6618066
vn 0.7394382 -0.2916962 -0.6067491
vn 0.7358981 -0.3661125 -0.5695748
vn 0.7483791 -0.4912724 -0.4456233
vn 0.5141352 -0.7250325 -0.4582497
vn 0.5063336 -0.8294957 -0.2357185
vn -0.3516421 -0.8995568 -0.2591242
vn -0.7615085 -0.628237 -0.1594464
vn -0.5190003 -0.7825385 -0.3439071
vn -0.5154163 -0.02504723 -0.8565739
vn -0.1656144 -0.1259432 -0.9781156
vn -0.3678344 -0.2047704 -0.907065
vn -0.7436687 0.1445667 -0.6527306
vn -0.6585563 0.2727043 -0.7013814
vn -0.3505677 0.2320473 -0.9073347
vn -0.6616505 0.07461938 -0.7460902
vn -0.7389593 -0.1092766 -0.6648293
vn -0.741607 -0.1989336 -0.6406594
vn -0.3509965 -0.3119246 -0.8828955
vn -0.5150469 -0.3938443 -0.7613235
vn -0.6677212 0.5276313 -0.5251224
vn -0.2411951 0.6937036 -0.6786754
vn -0.5173302 0.5202525 -0.6794901
vn -0.5130897 0.4310318 -0.7422605
vn -0.2468932 0.3807899 -0.8910908
vn -0.2378937 0.1128949 -0.964708
vn -0.6529799 -0.64203 -0.4017645
vn -0.5139538 -0.6544731 -0.5545416
vn -0.2217173 -0.8370965 -0.5001107
vn -0.361078 -0.8499673 0.3836382
vn -0.2266736 -0.8406029 0.4919408
vn -0.2840089 -0.7721944 0.568379
vn -0.5260176 -0.5575931 0.6421801
vn -0.1802993 -0.5867971 0.7894057
vn -0.6763383 -0.7307625 -0.09248091
vn -0.2641652 -0.9551806 -0.1335921
vn -0.6583969 -0.7526534 0.005151239
vn -0.2349983 -0.971991 0.003042276
vn -0.3604298 -0.9233126 0.1326052
vn -0.6575829 -0.7192626 0.2241559
vn -0.2499384 -0.9328225 0.2595631
vn -0.6455864 -0.6443779 0.4098722
vn -0.3499636 -0.684691 0.639315
vn -0.7414625 -0.5099036 0.4361555
vn -0.7564396 -0.5945689 0.2725565
vn -0.7582459 -0.644277 0.09985159
vn -0.02730406 -0.9617462 -0.2725781
vn -0.04843982 -0.91569 -0.3989554
vn 0.04725337 -0.9178901 -0.3940113
vn 0.2612186 -0.8816456 -0.3930217
vn 0.05975235 -0.9604973 -0.2717986
vn 0.05174854 -0.8569937 -0.5127221
vn 0.05314212 -0.784932 -0.6172987
vn 0.3522432 -0.7206333 -0.5971702
vn 0.3559037 -0.6402997 -0.6806973
vn 0.0532623 -0.6976851 -0.7144219
vn 0.3506316 -0.5384089 -0.7662724
vn 0.05484491 -0.6001391 -0.7980133
vn 0.3477441 -0.4295368 -0.8334099
vn 0.05214028 -0.4945273 -0.8675968
vn 0.0475372 -0.3761402 -0.9253425
vn 0.2444734 -0.2899838 -0.9252795
vn 0.04766711 -0.2521475 -0.9665141
vn 0.3557843 -0.1452689 -0.9232088
vn 0.0491552 -0.12609 -0.9908002
vn 0.3531396 -0.009408671 -0.9355234
vn 0.04931053 0.003515146 -0.9987773
vn 0.05264492 0.1291219 -0.9902303
vn 0.04616373 0.2627082 -0.9637704
vn 0.3479218 0.2477746 -0.9041892
vn 0.3509662 0.1156397 -0.9292203
vn 0.01108282 0.1306632 -0.9913649
vn 0.01071541 0.270371 -0.9626966
vn -0.05877084 0.2618599 -0.9633148
vn -0.04623363 -0.001236166 -0.9989299
vn -0.04163009 -0.2484969 -0.9677378
vn -0.04057832 -0.3794306 -0.92433
vn -0.04129744 -0.49615 -0.8672541
vn -0.07725038 -0.5679598 -0.819423
vn -0.04179937 -0.604592 -0.7954378
vn -0.07727282 -0.6742 -0.7344952
vn -0.04210023 -0.7027339 -0.7102061
vn -0.04458865 -0.7935485 -0.6068712
vn 0.01029746 -0.9615049 -0.2745947
vn 0.01132531 -0.9169974 -0.3987326
vn 0.0108738 -0.8586209 -0.5124957
vn 0.009501881 -0.7856566 -0.6185898
vn 0.009504432 -0.6991628 -0.7148992
vn 0.009504185 -0.6009508 -0.7992294
vn 0.00948447 -0.4926569 -0.870172
vn 0.009465158 -0.3761333 -0.9265172
vn 0.0103553 -0.2539621 -0.9671587
vn 0.01080913 -0.1254629 -0.9920394
vn 0.01026909 0.002275782 -0.9999446
vn -0.02046897 -0.8584022 -0.5125688
vn -0.02048776 -0.1239989 -0.9920708
vn -0.02564351 0.1266113 -0.9916208
vn -0.02725223 0.2671236 -0.9632769
vn 0.06123613 0.7273538 -0.6835252
vn -0.02198308 0.7197592 -0.6938757
vn 0.006659 0.7212463 -0.6926466
vn 0.3500797 0.3668113 -0.8619127
vn 0.05293634 0.4011763 -0.91447
vn -0.02393488 0.4080751 -0.9126345
vn 0.0107307 0.4040473 -0.9146751
vn 0.3569057 0.4744665 -0.8046737
vn 0.0529785 0.5187873 -0.8532603
vn 0.009119705 0.5193088 -0.854538
vn -0.04506859 0.5114835 -0.8581104
vn 0.05404402 0.6240114 -0.7795441
vn 0.01016689 0.6240075 -0.7813522
vn -0.04455444 0.6308075 -0.7746591
vn -0.008693676 -0.6001862 0.7998132
vn 0.2552052 -0.556968 0.7903525
vn 0.04771986 -0.5966128 0.8011093
vn 0.2972884 -0.725354 0.6208712
vn 0.04752942 -0.6965563 0.7159262
vn 0.04787095 -0.7864093 0.6158481
vn 0.2942886 -0.6359517 0.713414
vn 0.04815055 -0.921909 0.3844023
vn 0.289539 -0.8711765 0.396508
vn 0.04781261 -0.8619887 0.5046678
vn 0.2842445 -0.8113637 0.5107779
vn 0.04820741 -0.9652548 0.2568254
vn 0.2809363 -0.9235898 0.260877
vn 0.2735088 -0.9513233 0.1420459
vn 0.05025926 -0.9909915 0.1241357
vn 0.05095277 -0.998669 -0.007990914
vn 0.5114705 -0.8592852 0.005167289
vn 0.2688919 -0.9545712 -0.1284163
vn 0.04952958 -0.9882942 -0.1442965
vn -0.04742979 -0.9898168 -0.1342125
vn -0.04378688 -0.9916687 0.1211443
vn -0.04282907 -0.9636221 0.2638146
vn -0.04340269 -0.9179557 0.3943014
vn -0.0426218 -0.7895697 0.6121789
vn -0.04277956 -0.6828104 0.7293421
vn 0.01328385 -0.694669 0.7192069
vn 0.01021354 -0.7867373 0.6172036
vn 0.01087656 -0.8632228 0.5047059
vn 0.009471897 -0.9229321 0.3848462
vn 0.009379806 -0.9662511 0.2574315
vn 0.01026267 -0.9919661 0.1260873
vn 0.01074719 -0.9998946 -0.009771546
vn 0.009537439 -0.9902184 -0.1391996
vn -0.02080612 -0.8632825 0.5042921
vn -0.02067981 -0.9997221 -0.01131353
vn -0.8581823 -0.3529986 -0.3727132
vn -0.8518909 -0.2915706 -0.4350498
vn 0.9843153 0.166081 0.05950262
vn 0.9884341 0.04043131 0.1461616
vn 0.993698 0.06250453 0.09304599
vn 0.9730696 -0.006929738 0.2304075
vn 0.9967327 0.07648862 0.02595329
vn 0.6621073 -0.4650232 0.5876796
vn 0.6869883 -0.525095 0.502317
vn 0.6761078 -0.6047339 0.4209217
vn 0.6906074 -0.6491625 0.3188251
vn 0.6709634 -0.7030809 0.2355535
vn 0.6965832 -0.7082071 0.1149543
vn 0.7036003 -0.7063326 -0.07772338
vn -0.0002442264 0.9999936 -0.003563826
vn -0.0002405585 0.9999936 -0.003578787
vn -9.518832e-06 1 -0.0002172659
vn -1.226488e-06 1 6.83606e-06
vn -2.53501e-06 1 4.527908e-06
vn -2.26481e-06 1 4.418443e-06
vn 6.366315e-07 1 -6.835906e-07
vn 4.623595e-07 1 -1.67322e-06
vn -8.132276e-07 1 8.762872e-07
vn -1.063225e-06 1 1.618389e-06
vn -5.796832e-06 1 2.983361e-06
vn -5.857403e-06 1 3.419968e-06
vn -3.729831e-06 1 3.304237e-07
vn -3.288745e-06 1 1.232468e-07
vn 1.122828e-07 1 -6.630488e-07
vn 5.286894e-08 1 -5.478425e-07
vn -4.610271e-06 1 3.902343e-07
vn -4.628844e-06 1 3.94427e-07
vn 8.314658e-08 1 5.278578e-07
vn 8.323467e-07 1 4.492695e-07
vn 5.053534e-06 1 2.023132e-06
vn 5.119993e-06 1 2.63227e-06
vn 1.762839e-06 1 1.444129e-06
vn 1.343673e-06 1 1.724644e-06
vn 6.296433e-07 1 1.721718e-06
vn 6.008941e-07 1 2.631823e-06
vn -3.647387e-05 1 0.0001010598
vn -0.0001355852 0.9999999 0.0004811678
vn 0.0001026301 0.9999987 0.001588463
vn 0.0001125249 0.9999987 0.00158778
vn 0.0003197452 0.9999993 -0.001101076
vn 9.351242e-05 1 -0.0002184946
vn 7.06845e-07 1 2.198449e-06
vn 6.174456e-07 1 -2.981835e-08
vn -2.489478e-06 1 -2.9586e-06
vn -2.978838e-06 1 -2.149044e-06
vn -3.590876e-06 1 -1.692124e-06
vn -3.335959e-06 1 -1.323293e-06
vn 1.130874e-07 1 -2.656647e-07
vn 3.182891e-07 1 -4.389914e-07
vn -5.766416e-07 1 -9.830316e-07
vn -1.058161e-06 1 -1.079805e-06
vn -5.591574e-06 1 3.172746e-07
vn -4.957672e-06 1 3.824223e-07
vn 6.812958e-06 1 -2.099166e-06
vn 7.428514e-06 1 -2.239412e-06
vn 4.234404e-06 1 -2.39244e-06
vn 3.845254e-06 1 -1.615568e-06
vn -8.415061e-07 1 2.879617e-07
vn -1.269308e-06 1 7.093061e-07
vn -2.941603e-06 1 4.431708e-06
vn -3.011161e-06 1 3.784846e-06
vn -5.68169e-08 1 -1.642549e-06
vn -3.706221e-08 1 -1.477697e-06
vn 5.57115e-07 1 9.031237e-06
vn 2.576133e-06 1 0.0001065698
vn 1 3.362056e-07 0
vn 1 9.104948e-08 0
vn 1 7.002245e-09 0
vn 1 8.059092e-08 0
vn 1 1.247917e-07 0
vn 1 1.610593e-07 0
vn 1 -3.478259e-08 0
vn 1 1.113934e-06 0
vn 1 -1.815752e-06 0
vn 1 -2.248187e-08 0
vn 1 -3.780445e-07 0
vn 1 1.704955e-07 0
vn 1 -6.105642e-07 0
vn 1 -3.467272e-07 0
vn 1 -2.050115e-07 0
vn 1 8.176753e-07 0
vn 1 -6.309757e-08 0
vn 1 9.436703e-08 0
vn 1 4.205361e-08 0
vn 1 -2.78259e-07 0
vn 1 0 0
vn 1 -8.610963e-08 0
vn 1 -1.919824e-07 0
vn 1 2.367034e-08 0
vn 1 3.133925e-07 0
vn 1 4.539322e-07 0
vn 1 -4.266338e-08 0
vn 1 8.319473e-08 0
vn -2.992875e-06 -2.797331e-06 -1
vn 2.85922e-06 -2.78977e-06 -1
vn -0.2225233 -2.591091e-06 -0.9749274
vn -0.2225177 -2.617561e-06 -0.9749287
vn -0.4338863 -2.519575e-06 -0.9009677
vn -0.4338808 -1.461197e-06 -0.9009703
vn -0.6234919 6.710885e-06 -0.7818298
vn -0.6234867 6.831883e-06 -0.781834
vn -0.7818336 -1.432175e-06 -0.6234872
vn -0.7818304 -2.399842e-06 -0.6234911
vn -0.9009701 -2.399829e-06 -0.4338812
vn -0.9009677 -1.674075e-06 -0.4338863
vn -0.9749287 1.674013e-06 -0.2225176
vn -0.974927 2.399927e-06 -0.222525
vn -1 0 3.603857e-06
vn -1 0 -3.570443e-06
vn -0.974927 -2.399927e-06 0.222525
vn -0.9749287 -1.674013e-06 0.2225176
vn -0.9009677 1.674075e-06 0.4338862
vn -0.9009701 2.399829e-06 0.4338811
vn -0.7818304 2.399842e-06 0.6234912
vn -0.7818335 1.432175e-06 0.6234873
vn -0.6234865 -6.831885e-06 0.7818341
vn -0.6234918 -6.529453e-06 0.7818298
vn -0.433881 3.229655e-06 0.9009702
vn -0.4338866 4.439224e-06 0.9009675
vn -0.2225178 4.466452e-06 0.9749287
vn -0.2225235 4.224521e-06 0.9749273
vn 2.572822e-06 2.974992e-06 1
vn -3.174266e-06 2.831355e-06 1
vn 0.2225232 3.187007e-06 0.9749274
vn 0.2225179 3.345764e-06 0.9749286
vn 0.4338854 3.928774e-06 0.9009681
vn 0.4338802 2.900648e-06 0.9009706
vn 0.6234932 -6.350419e-06 0.7818288
vn 0.6234893 -6.531872e-06 0.7818319
vn 0.7818332 1.43218e-06 0.6234877
vn 0.7818291 2.399846e-06 0.6234928
vn 0.9009701 2.399834e-06 0.4338813
vn 0.9009675 1.674078e-06 0.4338866
vn 0.9749284 -2.873976e-06 0.2225188
vn 0.9749275 -3.357861e-06 0.2225228
vn 1 -2.419181e-07 -2.253007e-06
vn 1 2.419181e-07 2.253007e-06
vn 0.9749274 3.357861e-06 -0.2225228
vn 0.9749284 2.873976e-06 -0.2225189
vn 0.9009675 -1.674078e-06 -0.4338866
vn 0.9009701 -2.399834e-06 -0.4338813
vn 0.7818291 -2.399846e-06 -0.6234928
vn 0.7818333 -1.43218e-06 -0.6234876
vn 0.6234893 6.83186e-06 -0.7818319
vn 0.6234934 6.710867e-06 -0.7818286
vn 0.4338798 -1.311206e-06 -0.9009708
vn 0.4338848 -2.43007e-06 -0.9009684
vn 0.2225177 -2.725816e-06 -0.9749287
vn 0.2225234 -2.752272e-06 -0.9749274
vn -9.322356e-10 1 2.234985e-07
vn 2.889567e-07 1 1.486141e-07
vn -7.638469e-08 1 -7.235724e-07
vn 1.591566e-06 1 3.444999e-07
vn 6.109507e-07 1 3.481811e-07
vn -2.620945e-07 1 2.117872e-07
vn 6.121043e-07 1 5.488783e-07
vn -1.181271e-06 1 -3.024174e-07
vn -7.776893e-07 1 -2.36252e-07
vn -1.518253e-06 1 -1.03289e-06
vn -1.768529e-06 1 -1.416224e-06
vn 6.635845e-07 1 4.735423e-07
vn -4.435836e-06 1 -9.220499e-06
vn 1.130755e-06 1 2.36474e-06
vn 4.683016e-07 1 1.344949e-06
vn 8.639454e-07 1 -4.016648e-06
vn 8.639429e-07 1 -7.68372e-06
vn -2.10517e-07 1 1.281589e-06
vn -2.921918e-07 1 1.196683e-06
vn 7.783441e-07 1 -3.468596e-06
vn -3.19059e-07 1 3.539534e-07
vn 1.029938e-06 1 -1.299859e-06
vn 7.147931e-07 1 -6.985777e-07
vn 7.01848e-07 1 -4.11735e-07
vn 7.96001e-07 1 -3.546395e-07
vn -4.668276e-07 1 6.688886e-07
vn -7.392405e-07 1 5.358667e-07
vn -1.204971e-06 1 5.59999e-07
vn -0.184177 0.4136398 -0.891617
vn 0 0.2615325 -0.9651946
vn -0.009322782 0.2625355 -0.9648773
vn 0 0.05482464 -0.9984959
vn 0 0.05482335 -0.9984961
vn 0 -0.1687352 -0.9856614
vn 0 -0.1687363 -0.9856611
vn 0 -0.3838336 -0.9234023
vn 0 -0.3838346 -0.923402
vn 0 -0.5796884 -0.8148383
vn 0 -0.5796892 -0.8148376
vn 0 -0.7464724 -0.6654164
vn 0 -0.7464732 -0.6654155
vn 0 -0.8758255 -0.482628
vn 0 -0.8758261 -0.4826269
vn 0 -0.9612619 -0.2756368
vn 0 -0.9612623 -0.2756355
vn 0 -0.9984959 -0.05482687
vn 0 -0.9984959 -0.05482569
vn 0 -0.9856617 0.1687337
vn 0 -0.9856614 0.168735
vn 0 -0.9234023 0.3838334
vn 0 -0.9234017 0.3838348
vn 0 -0.8148379 0.579689
vn 0 -0.814837 0.57969
vn 0 -0.6654155 0.7464733
vn 0 -0.6654145 0.746474
vn 0 -0.4826276 0.8758256
vn 0 -0.4826267 0.8758262
vn 0 -0.2756387 0.9612613
vn 0 -0.2756375 0.9612616
vn 0 -0.05482571 0.9984959
vn 0 -0.05482427 0.9984961
vn 0 0.1687341 0.9856616
vn 0 0.1687356 0.9856613
vn 0 0.3838341 0.9234021
vn 0 0.3838354 0.9234015
vn 0 0.5796868 0.8148394
vn 0 0.579688 0.8148385
vn 0 0.746471 0.6654179
vn 0 0.7464721 0.6654166
vn 0 0.8758259 0.4826271
vn 0 0.8758267 0.4826257
vn 0 0.961261 0.2756401
vn 0 0.9612614 0.2756386
vn 0 0.9984959 0.0548267
vn 0 0.9984961 0.05482495
vn 0 0.9856611 -0.1687369
vn 0 0.9856609 -0.1687385
vn 0 0.9234022 -0.3838334
vn 0 0.9234018 -0.3838347
vn 0 0.8148396 -0.5796865
vn 0 0.8148388 -0.5796876
vn 0 0.6632681 -0.7483819
vn 0.001839662 0.6633804 -0.7482801
vn 0.00481659 0.5420557 -0.8403288
vn -1 3.740598e-07 -3.28723e-08
vn -1 9.332113e-08 -3.543142e-08
vn -1 -1.863481e-07 1.204007e-07
vn -1 3.698684e-07 -2.100592e-08
vn -1 2.483866e-08 -2.574549e-08
vn -1 -2.378027e-07 -2.966093e-08
vn -1 -2.32044e-07 8.55897e-10
vn -1 -8.989096e-08 -8.120352e-09
vn -1 -1.860253e-08 -1.523838e-08
vn -1 4.981825e-08 5.046339e-08
vn -1 2.391249e-07 2.821881e-08
vn -1 2.734102e-07 1.250887e-08
vn -1 1.686045e-08 2.449332e-07
vn -1 1.646499e-07 1.397008e-07
vn -1 2.478282e-07 8.408262e-08
vn -1 0 1.340389e-06
vn -1 2.107955e-07 4.938922e-07
vn -1 -1.798445e-07 7.783549e-08
vn -1 -2.381103e-06 2.496859e-07
vn -1 -3.449091e-06 9.07055e-07
vn -1 -3.885818e-07 -2.693625e-08
vn -1 1.58174e-06 -1.307077e-08
vn -1 -9.879088e-07 1.501951e-08
vn -1 3.899058e-08 -3.860429e-08
vn -1 -8.369837e-08 -3.737152e-08
vn -1 -4.640315e-07 -3.398356e-08
vn -1 -3.722822e-07 -3.732324e-08
vn -1 1.681498e-07 -3.845191e-08
f 1//1 2//2 3//3
f 1//1 3//3 4//4
f 4//4 3//3 5//5
f 4//4 5//5 6//6
f 6//6 5//5 7//7
f 6//6 7//7 8//8
f 8//8 7//7 9//9
f 8//8 9//9 10//10
f 10//10 9//9 11//11
f 10//10 11//11 12//12
f 12//12 11//11 13//13
f 12//12 13//13 14//14
f 14//14 13//13 15//15
f 14//14 15//15 16//16
f 16//16 15//15 17//17
f 16//16 17//17 18//18
f 18//18 17//17 19//19
f 18//18 19//19 20//20
f 20//20 19//19 21//21
f 20//20 21//21 22//22
f 22//22 21//21 23//23
f 22//22 23//23 24//24
f 24//24 23//23 25//25
f 24//24 25//25 26//26
f 26//26 25//25 27//27
f 26//26 27//27 28//28
f 28//28 27//27 29//29
f 28//28 29//29 30//30
f 30//30 29//29 31//31
f 30//30 31//31 32//32
f 32//32 31//31 33//33
f 32//32 33//33 34//34
f 34//34 33//33 35//35
f 34//34 35//35 36//36
f 36//36 35//35 37//37
f 36//36 37//37 38//38
f 38//38 37//37 39//39
f 38//38 39//39 40//40
f 40//40 39//39 41//41
f 40//40 41//41 42//42
f 42//42 41//41 43//43
f 42//42 43//43 44//44
f 44//44 43//43 45//45
f 44//44 45//45 46//46
f 46//46 45//45 47//47
f 46//46 47//47 48//48
f 48//48 47//47 49//49
f 48//48 49//49 50//50
f 50//50 49//49 51//51
f 50//50 51//51 52//52
f 52//52 51//51 53//53
f 52//52 53//53 54//54
f 54//54 53//53 55//55
f 54//54 55//55 56//56
f 56//56 55//55 2//2
f 56//56 2//2 1//1
f 57//57 58//58 59//59
f 136//60 138//61 60//62
f 62//63 61//64 65//65
f 62//63 65//65 64//66
f 64//66 65//65 63//67
f 61//64 62//63 66//68
f 66//68 62//63 67//69
f 68//70 69//71 70//72
f 70//72 69//71 67//69
f 67//69 69//71 66//68
f 72//73 71//74 70//72
f 70//72 71//74 68//70
f 71//74 72//73 73//75
f 73//75 72//73 74//76
f 76//77 75//78 74//76
f 74//76 75//78 73//75
f 77//79 78//80 79//81
f 79//81 78//80 76//77
f 76//77 78//80 75//78
f 60//62 138//61 79//81
f 79//81 138//61 77//79
f 136//60 60//62 80//82
f 136//60 80//82 81//83
f 81//83 80//82 82//84
f 82//84 80//82 83//85
f 84//86 85//87 83//85
f 83//85 85//87 82//84
f 59//59 58//58 86//88
f 59//59 86//88 84//86
f 84//86 86//88 87//89
f 84//86 87//89 85//87
f 57//57 59//59 88//90
f 88//90 59//59 89//91
f 88//90 89//91 90//92
f 90//92 89//91 91//93
f 90//92 91//93 92//94
f 95//95 96//96 91//93
f 91//93 96//96 92//94
f 97//97 98//98 99//99
f 99//99 98//98 100//100
f 99//99 100//100 95//95
f 95//95 100//100 96//96
f 102//101 101//102 99//99
f 99//99 101//102 97//97
f 101//102 102//101 103//103
f 103//103 102//101 104//104
f 103//103 104//104 170//105
f 170//105 104//104 105//106
f 170//105 105//106 106//107
f 106//107 105//106 107//108
f 107//108 105//106 108//109
f 110//110 109//111 108//109
f 108//109 109//111 107//108
f 93//112 111//113 94//114
f 94//114 111//113 110//110
f 110//110 111//113 112//115
f 110//110 112//115 109//111
f 93//112 94//114 113//116
f 113//116 94//114 114//117
f 113//116 114//117 115//118
f 115//118 114//117 116//119
f 117//120 118//121 116//119
f 116//119 118//121 119//122
f 116//119 119//122 115//118
f 121//123 120//124 118//121
f 121//123 118//121 117//120
f 120//124 121//123 122//125
f 122//125 121//123 123//126
f 122//125 123//126 64//66
f 122//125 64//66 124//127
f 124//127 64//66 63//67
f 112//115 111//113 127//128
f 127//128 111//113 125//129
f 109//111 127//128 128//130
f 128//131 127//128 130//132
f 107//108 109//111 128//130
f 111//113 93//112 125//129
f 126//133 125//129 93//112
f 129//134 130//132 127//128
f 125//129 129//134 127//128
f 112//115 127//128 109//111
f 130//132 129//134 131//135
f 125//129 528//136 129//134
f 528//136 132//137 129//134
f 129//134 133//138 131//135
f 134//139 139//140 135//141
f 77//79 139//140 134//139
f 78//80 77//79 134//139
f 136//60 137//142 138//143
f 77//79 138//143 137//142
f 77//79 137//142 139//140
f 75//78 78//80 134//139
f 75//78 134//139 135//141
f 140//144 139//140 141//145
f 141//145 139//140 137//142
f 69//71 68//70 145//146
f 145//146 68//70 71//74
f 145//146 71//74 147//147
f 147//147 71//74 73//75
f 147//147 73//75 146//148
f 145//146 144//149 69//71
f 69//71 144//149 66//68
f 66//68 144//149 143//150
f 66//68 143//150 61//64
f 61//64 143//150 65//151
f 65//151 143//150 142//152
f 65//151 142//152 63//67
f 147//153 146//153 145//153
f 73//75 75//78 146//148
f 146//148 75//78 135//141
f 126//133 93//112 113//116
f 150//154 149//155 148//156
f 148//157 149//157 126//157
f 149//155 150//154 151//158
f 149//155 151//158 152//159
f 152//159 151//158 153//160
f 152//159 153//160 154//161
f 156//162 155//163 157//164
f 157//164 155//163 154//161
f 154//161 155//163 152//159
f 63//67 142//152 156//162
f 156//162 142//152 155//163
f 148//165 126//133 113//116
f 148//165 113//116 150//166
f 150//166 113//116 115//118
f 150//166 115//118 151//167
f 151//167 115//118 119//122
f 151//167 119//122 153//168
f 153//168 119//122 118//121
f 153//168 118//121 154//161
f 154//161 118//121 120//124
f 154//161 120//124 157//164
f 157//164 120//124 122//125
f 157//164 122//125 156//162
f 156//162 122//125 124//127
f 156//162 124//127 63//67
f 146//169 135//141 158//170
f 159//171 126//172 149//155
f 159//171 149//155 152//159
f 144//173 145//174 158//170
f 152//159 160//175 159//171
f 160//175 152//159 218//176
f 158//170 145//174 146//169
f 158//170 241//177 144//173
f 218//176 152//159 155//163
f 218//176 155//163 228//178
f 231//179 144//173 161//180
f 161//180 144//173 241//177
f 155//163 142//152 228//178
f 228//178 142//152 229//181
f 229//181 142//152 143//182
f 229//181 143//182 230//183
f 230//183 143//182 231//179
f 231//179 143//182 144//173
f 131//135 164//184 162//185
f 165//186 166//187 242//188
f 242//188 166//187 163//189
f 133//138 164//184 131//135
f 131//135 162//185 165//186
f 165//186 162//185 166//187
f 130//132 167//190 128//131
f 168//191 169//192 170//105
f 170//105 169//192 103//103
f 106//107 107//108 167//190
f 107//108 128//130 167//190
f 170//105 106//107 167//190
f 170//105 167//190 168//191
f 85//87 173//193 82//84
f 171//194 136//60 81//83
f 171//194 137//142 136//60
f 172//195 137//142 171//194
f 172//195 173//193 174//196
f 173//193 85//87 174//196
f 81//83 82//84 173//193
f 81//83 173//193 171//194
f 171//194 173//193 172//195
f 103//103 169//192 175//197
f 87//198 174//196 85//87
f 103//103 175//197 101//102
f 101//102 175//197 177//199
f 101//102 177//199 97//97
f 98//98 178//200 100//100
f 100//100 178//200 96//96
f 96//96 178//200 179//201
f 96//96 179//201 180//202
f 96//96 180//202 92//94
f 92//94 180//202 90//92
f 88//90 90//92 57//57
f 58//58 176//203 86//88
f 86//88 176//203 87//198
f 177//199 181//204 97//97
f 97//97 181//204 98//98
f 98//98 181//204 178//200
f 180//202 182//205 90//92
f 90//92 182//205 183//206
f 90//92 183//206 57//207
f 57//207 183//206 58//58
f 58//58 183//206 176//203
f 87//198 176//203 174//196
f 168//191 175//197 169//192
f 137//142 184//208 185//209
f 137//142 185//209 141//145
f 141//145 186//210 140//144
f 141//145 187//211 186//210
f 185//209 188//212 141//145
f 141//145 188//212 187//211
f 185//209 184//208 189//213
f 193//214 192//215 190//216
f 194//217 193//214 190//216
f 195//218 194//217 191//219
f 140//144 198//220 196//221
f 140//144 196//221 139//140
f 139//140 196//221 197//222
f 139//140 158//170 135//141
f 139//140 197//223 158//170
f 200//224 201//225 197//222
f 196//221 200//224 197//222
f 202//226 201//225 203//227
f 203//227 204//228 205//229
f 206//230 207//231 208//232
f 206//230 208//232 209//233
f 210//234 211//235 209//233
f 210//234 209//233 208//232
f 206//230 205//229 207//231
f 207//231 205//229 204//228
f 199//236 201//225 212//237
f 201//225 200//224 212//237
f 186//210 214//238 215//239
f 201//225 199//236 203//227
f 203//227 199//236 204//228
f 204//228 199//236 207//231
f 187//211 214//238 186//210
f 140//144 186//210 215//239
f 140//144 215//239 198//220
f 200//224 196//221 212//237
f 212//237 196//221 198//220
f 212//237 198//220 213//240
f 213//240 198//220 215//239
f 213//240 215//239 214//238
f 218//176 219//241 160//175
f 220//242 221//243 219//244
f 220//242 218//245 222//246
f 222//246 218//245 223//247
f 223//248 228//249 216//250
f 216//250 228//249 217//251
f 217//251 229//252 224//253
f 224//253 229//252 230//254
f 224//253 230//254 225//255
f 225//255 230//254 231//256
f 225//255 231//256 226//257
f 226//257 231//256 161//258
f 226//257 161//258 227//259
f 219//241 218//176 220//260
f 217//261 228//178 229//181
f 223//262 218//176 228//178
f 160//175 219//244 221//243
f 160//175 221//243 234//263
f 159//171 160//175 235//264
f 235//264 160//175 234//263
f 159//171 235//264 236//265
f 236//265 233//266 232//267
f 236//265 232//267 159//171
f 241//177 239//268 238//269
f 158//170 197//223 237//270
f 158//170 237//270 240//271
f 238//272 227//259 161//258
f 240//271 239//268 241//177
f 240//271 241//177 158//170
f 241//177 238//269 161//180
f 238//272 239//268 227//259
f 242//188 168//191 167//190
f 242//188 167//190 130//132
f 243//273 244//274 245//275
f 184//208 174//196 192//215
f 192//215 174//196 176//203
f 192//215 176//203 190//216
f 190//216 176//203 183//206
f 190//216 182//205 194//217
f 247//276 191//219 194//217
f 246//277 191//219 247//276
f 247//276 245//275 248//278
f 244//274 248//278 245//275
f 249//279 244//274 250//280
f 250//280 244//274 243//273
f 250//280 243//273 251//281
f 175//197 168//191 242//188
f 181//204 177//199 252//282
f 252//282 177//199 175//197
f 252//282 175//197 242//188
f 252//282 251//281 181//204
f 181//204 251//281 243//273
f 181//204 243//273 178//200
f 178//200 243//273 179//201
f 179//201 243//273 245//275
f 179//201 245//275 180//202
f 182//205 180//202 253//283
f 180//202 245//275 253//283
f 190//216 183//206 182//205
f 249//279 248//278 244//274
f 245//275 247//276 253//283
f 253//283 247//276 194//217
f 253//283 194//217 182//205
f 184//208 137//142 172//195
f 184//208 172//195 174//196
f 189//213 184//208 192//215
f 189//213 192//215 254//284
f 254//284 192//215 193//214
f 194//217 195//218 255//285
f 254//284 193//214 194//217
f 254//284 194//217 255//285
f 256//286 257//287 529//288
f 256//286 529//288 258//289
f 258//289 529//288 251//281
f 258//289 251//281 252//290
f 258//289 252//290 163//189
f 163//189 252//290 242//188
f 267//291 262//292 261//293
f 267//291 261//293 268//294
f 269//295 235//296 234//263
f 269//295 234//263 221//243
f 269//295 221//243 268//294
f 236//265 264//297 233//266
f 263//298 264//297 235//296
f 235//296 264//297 236//265
f 260//299 261//293 262//292
f 260//299 262//292 266//300
f 260//299 266//300 259//301
f 269//295 268//294 261//293
f 269//295 261//293 235//296
f 235//296 261//293 263//298
f 263//298 261//293 260//299
f 263//298 260//299 265//302
f 268//294 270//303 271//304
f 270//303 268//294 220//242
f 220//242 268//294 221//243
f 266//300 262//292 275//305
f 275//305 262//292 277//306
f 266//300 275//305 301//307
f 301//307 275//305 274//308
f 301//307 274//308 278//309
f 279//310 280//311 281//312
f 281//312 280//311 282//313
f 281//312 282//313 283//314
f 283//314 282//313 273//315
f 283//314 273//315 284//316
f 284//316 273//315 285//317
f 217//251 284//316 216//250
f 216//250 284//316 285//317
f 216//250 285//317 223//318
f 286//319 222//246 223//318
f 270//303 220//242 222//246
f 270//303 222//246 271//304
f 280//311 274//308 275//305
f 273//315 275//305 277//306
f 273//315 277//306 272//320
f 272//320 271//304 286//319
f 286//319 271//304 222//246
f 268//294 271//304 267//291
f 267//291 271//304 276//321
f 262//292 267//291 277//306
f 277//306 267//291 276//321
f 277//306 276//321 272//320
f 272//320 276//321 271//304
f 279//310 274//308 280//311
f 282//313 280//311 275//305
f 282//313 275//305 273//315
f 273//315 272//320 285//317
f 285//317 272//320 286//319
f 285//317 286//319 223//318
f 224//253 225//255 289//322
f 217//251 224//253 284//316
f 290//323 283//314 284//316
f 288//324 291//325 279//310
f 288//324 292//326 291//325
f 291//325 292//326 293//327
f 295//328 226//257 227//259
f 225//255 226//257 289//322
f 226//257 295//328 289//322
f 289//322 295//328 296//329
f 289//322 296//329 290//323
f 288//324 296//329 294//330
f 294//330 296//329 295//328
f 295//328 227//259 294//330
f 296//329 288//324 287//331
f 296//329 287//331 290//323
f 289//322 290//323 284//316
f 289//322 284//316 224//253
f 294//330 297//332 288//324
f 288//324 297//332 292//326
f 287//331 288//324 279//310
f 287//331 279//310 281//312
f 287//331 281//312 290//323
f 290//323 281//312 283//314
f 293//327 292//326 209//233
f 293//327 209//233 211//235
f 197//222 201//225 202//226
f 197//222 202//226 237//333
f 237//333 202//226 298//334
f 206//230 209//233 292//326
f 206//230 292//326 297//332
f 297//332 205//229 206//230
f 294//330 227//259 239//268
f 294//330 239//268 299//335
f 240//271 237//333 298//334
f 239//268 240//271 298//334
f 239//268 298//334 299//335
f 299//335 298//334 202//226
f 299//335 202//226 203//227
f 299//335 203//227 205//229
f 299//335 205//229 297//332
f 299//335 297//332 294//330
f 300//336 301//307 278//309
f 301//307 259//301 266//300
f 305//337 306//338 307//339
f 305//337 307//339 308//340
f 208//232 207//231 309//341
f 309//341 207//231 310//342
f 306//338 305//337 302//343
f 306//338 302//343 303//344
f 313//345 255//285 308//340
f 313//345 308//340 307//339
f 304//346 210//234 208//232
f 304//346 208//232 309//341
f 210//234 304//346 314//347
f 314//347 304//346 315//348
f 314//347 315//348 316//349
f 316//349 315//348 317//350
f 310//342 207//231 319//351
f 303//344 302//343 320//352
f 320//352 302//343 321//353
f 318//354 254//284 313//345
f 313//345 254//284 255//285
f 323//355 322//356 324//357
f 323//355 324//357 317//350
f 317//350 324//357 316//349
f 320//352 321//353 325//358
f 325//358 321//353 326//359
f 254//284 318//354 189//360
f 189//360 318//354 327//361
f 207//231 199//236 319//351
f 319//351 199//236 328//362
f 199//236 212//237 328//362
f 328//362 212//237 329//363
f 322//356 323//355 330//364
f 330//364 323//355 331//365
f 325//358 326//359 312//366
f 312//366 326//359 311//367
f 332//368 185//369 327//361
f 327//361 185//369 189//360
f 332//368 188//370 185//369
f 333//371 334//372 311//367
f 311//367 334//372 312//366
f 212//237 213//240 329//363
f 329//363 213//240 335//373
f 330//364 331//365 336//374
f 336//374 331//365 337//375
f 338//376 336//374 337//375
f 339//377 342//378 340//379
f 188//370 332//368 341//380
f 188//370 341//380 187//211
f 342//378 343//381 333//371
f 333//371 343//381 334//372
f 187//211 341//380 214//238
f 214//238 341//380 344//382
f 335//373 213//240 344//382
f 344//382 213//240 214//238
f 339//377 340//379 338//376
f 338//376 340//379 336//374
f 343//381 342//378 339//377
f 346//383 1//384 164//184
f 164//184 1//384 4//385
f 346//383 347//386 1//384
f 1//384 347//386 56//387
f 16//388 348//389 349//390
f 350//391 22//392 351//393
f 351//393 22//392 24//394
f 348//389 16//388 18//395
f 353//396 46//397 48//398
f 50//399 355//400 48//398
f 48//398 355//400 353//396
f 354//401 355//400 52//402
f 52//402 355//400 50//399
f 354//401 52//402 54//403
f 162//404 164//184 4//385
f 16//388 349//390 356//405
f 16//388 356//405 14//406
f 20//407 345//408 18//395
f 18//395 345//408 348//389
f 26//409 352//410 24//394
f 24//394 352//410 351//393
f 357//411 28//412 30//413
f 353//396 358//414 46//397
f 46//397 358//414 44//415
f 56//387 347//386 354//401
f 56//387 354//401 54//403
f 256//286 12//416 14//406
f 256//286 14//406 356//405
f 22//392 350//391 20//407
f 20//407 350//391 345//408
f 12//416 256//286 10//417
f 30//413 359//418 357//411
f 162//404 4//385 6//419
f 162//404 6//419 166//420
f 28//412 357//411 352//410
f 28//412 352//410 26//409
f 44//415 358//414 42//421
f 42//421 358//414 360//422
f 8//423 163//424 166//420
f 8//423 166//420 6//419
f 256//286 258//289 10//417
f 10//417 258//289 8//423
f 8//423 258//289 163//424
f 32//425 34//426 361//427
f 42//421 360//422 362//428
f 42//421 362//428 40//429
f 363//430 364//431 36//432
f 36//432 364//431 34//426
f 34//426 364//431 361//427
f 363//430 36//432 38//433
f 363//430 38//433 365//434
f 40//429 362//428 365//434
f 40//429 365//434 38//433
f 32//425 361//427 30//413
f 30//413 361//427 359//418
f 359//418 361//427 368//435
f 368//435 357//411 359//418
f 352//410 357//411 369//436
f 370//437 350//391 351//393
f 348//389 367//438 349//390
f 349//390 367//438 371//439
f 371//439 356//405 349//390
f 356//405 372//440 256//286
f 256//286 372//440 257//287
f 372//440 356//405 373//441
f 373//441 356//405 371//439
f 374//442 367//438 348//389
f 374//442 348//389 375//443
f 375//443 348//389 345//408
f 345//408 376//444 375//443
f 345//408 350//391 376//444
f 350//391 377//445 376//444
f 377//445 350//391 370//437
f 378//446 370//437 351//393
f 352//410 366//447 351//393
f 351//393 366//447 378//446
f 366//447 352//410 369//436
f 357//411 379//448 369//436
f 379//448 357//411 436//449
f 436//449 357//411 368//435
f 361//427 434//450 368//435
f 383//451 381//452 382//453
f 394//454 395//455 393//456
f 400//457 401//458 397//459
f 400//457 397//459 399//460
f 392//461 394//454 393//456
f 392//461 393//456 390//462
f 390//462 393//456 391//463
f 390//462 391//463 389//464
f 195//218 191//219 404//465
f 404//465 191//219 380//466
f 404//465 380//466 403//467
f 401//458 402//468 398//469
f 401//458 398//469 397//459
f 399//460 397//459 396//470
f 399//460 396//470 394//454
f 384//471 386//472 385//473
f 384//471 385//473 382//453
f 405//474 406//475 407//476
f 419//477 421//478 293//327
f 381//452 383//451 412//479
f 412//479 383//451 411//480
f 412//479 411//480 413//481
f 413//481 411//480 410//482
f 413//481 410//482 409//483
f 415//484 409//483 408//485
f 415//484 408//485 405//474
f 417//486 405//474 407//476
f 417//486 407//476 420//487
f 293//327 211//235 419//477
f 420//487 419//477 418//488
f 420//487 418//488 417//486
f 405//474 417//486 416//489
f 405//474 416//489 415//484
f 409//483 415//484 414//490
f 409//483 414//490 413//481
f 427//491 383//451 428//492
f 431//493 432//494 433//495
f 433//495 432//494 434//450
f 432//494 431//493 435//496
f 432//494 435//496 436//449
f 430//497 429//498 435//496
f 435//496 429//498 436//449
f 429//498 430//497 437//499
f 437//499 430//497 438//500
f 439//501 440//502 441//503
f 441//503 440//502 442//504
f 440//502 439//501 438//500
f 438//500 439//501 437//499
f 441//503 442//504 443//505
f 441//503 443//505 444//506
f 445//507 444//506 443//505
f 444//506 445//507 446//508
f 446//508 445//507 447//509
f 446//508 447//509 448//510
f 448//510 447//509 449//511
f 450//512 423//513 422//514
f 422//514 451//515 450//512
f 450//512 451//515 449//511
f 449//511 451//515 448//510
f 452//516 424//517 423//513
f 425//518 396//470 397//459
f 395//455 394//454 454//519
f 454//519 394//454 396//470
f 393//456 395//455 455//520
f 393//456 455//520 391//463
f 391//463 455//520 456//521
f 391//463 456//521 389//464
f 389//464 456//521 457//522
f 389//464 457//522 388//523
f 388//523 457//522 458//524
f 388//523 458//524 387//525
f 387//525 458//524 459//526
f 387//525 459//526 386//472
f 386//472 459//526 460//527
f 386//472 460//527 385//473
f 385//473 428//492 382//453
f 382//453 428//492 383//451
f 461//528 427//491 428//492
f 433//495 461//528 462//529
f 433//495 462//529 431//493
f 431//493 462//529 463//530
f 431//493 463//530 435//496
f 435//496 463//530 464//531
f 435//496 464//531 430//497
f 430//497 464//531 465//532
f 430//497 465//532 438//500
f 438//500 465//532 466//533
f 438//500 466//533 440//502
f 440//502 466//533 467//534
f 440//502 467//534 442//504
f 442//504 467//534 468//535
f 442//504 468//535 443//505
f 443//505 468//535 469//536
f 443//505 469//536 445//507
f 445//507 469//536 470//537
f 445//507 470//537 447//509
f 447//509 470//537 471//538
f 447//509 471//538 449//511
f 449//511 471//538 452//516
f 449//511 452//516 450//512
f 450//512 452//516 423//513
f 461//528 428//492 462//529
f 462//529 428//492 472//539
f 462//529 472//539 463//530
f 463//530 472//539 460//527
f 463//530 460//527 464//531
f 464//531 460//527 459//526
f 464//531 459//526 465//532
f 465//532 459//526 458//524
f 465//532 458//524 466//533
f 466//533 458//524 457//522
f 466//533 457//522 467//534
f 467//534 457//522 456//521
f 467//534 456//521 468//535
f 468//535 456//521 455//520
f 468//535 455//520 469//536
f 469//536 455//520 473//540
f 469//536 473//540 470//537
f 470//537 473//540 454//519
f 470//537 454//519 471//538
f 471//538 454//519 453//541
f 471//538 453//541 452//516
f 452//516 453//541 426//542
f 452//516 426//542 424//517
f 428//492 385//473 472//539
f 472//539 385//473 460//527
f 455//520 395//455 473//540
f 473//540 395//455 454//519
f 454//519 396//470 453//541
f 453//541 396//470 425//518
f 453//541 425//518 426//542
f 475//543 248//278 372//440
f 372//440 248//278 249//279
f 474//544 247//276 476//545
f 247//276 248//278 476//545
f 476//545 248//278 475//543
f 247//276 474//544 246//277
f 246//277 474//544 380//466
f 246//277 380//466 191//219
f 477//546 422//514 478//547
f 478//547 422//514 423//513
f 478//547 423//513 424//517
f 426//542 479//548 424//517
f 424//517 479//548 480//549
f 424//517 480//549 478//547
f 479//548 426//542 425//518
f 479//548 425//518 398//469
f 398//469 425//518 397//459
f 481//550 477//546 482//551
f 482//551 477//546 478//547
f 482//551 478//547 483//552
f 483//552 478//547 480//549
f 483//552 480//549 484//553
f 484//553 480//549 479//548
f 484//553 479//548 398//469
f 484//553 398//469 402//468
f 373//441 481//550 485//554
f 485//554 481//550 482//551
f 485//554 482//551 486//555
f 486//555 482//551 483//552
f 486//555 483//552 487//556
f 487//556 483//552 484//553
f 487//556 484//553 403//467
f 403//467 484//553 402//468
f 372//440 373//441 475//543
f 475//543 373//441 485//554
f 475//543 485//554 476//545
f 476//545 485//554 486//555
f 476//545 486//555 474//544
f 474//544 486//555 487//556
f 474//544 487//556 380//466
f 380//466 487//556 403//467
f 274//308 279//310 490//557
f 492//558 278//309 491//559
f 491//559 278//309 274//308
f 493//560 494//561 495//562
f 493//560 496//563 494//561
f 494//561 496//563 491//559
f 491//559 496//563 492//558
f 498//564 497//565 499//566
f 497//565 500//567 499//566
f 499//566 500//567 495//562
f 495//562 500//567 493//560
f 502//568 501//569 498//564
f 498//564 501//569 497//565
f 501//569 502//568 503//570
f 503//570 502//568 504//571
f 505//572 506//573 504//571
f 504//571 506//573 503//570
f 506//573 505//572 507//574
f 507//574 505//572 508//575
f 433//495 434//450 508//575
f 508//575 434//450 507//574
f 411//480 383//451 489//576
f 510//577 409//483 410//482
f 489//576 410//482 411//480
f 511//578 408//485 510//577
f 510//577 408//485 409//483
f 488//579 405//474 511//578
f 511//578 405//474 408//485
f 405//474 488//579 406//475
f 420//487 512//580 513//581
f 420//487 407//476 512//580
f 512//580 407//476 406//475
f 420//487 513//581 419//477
f 419//477 513//581 421//478
f 291//325 293//327 421//478
f 490//557 279//310 291//325
f 274//308 490//557 491//559
f 491//559 490//557 514//582
f 491//559 514//582 494//561
f 494//561 514//582 515//583
f 494//561 515//583 495//562
f 495//562 515//583 516//584
f 495//562 516//584 499//566
f 499//566 516//584 517//585
f 499//566 517//585 498//564
f 498//564 517//585 518//586
f 498//564 518//586 502//568
f 502//568 518//586 519//587
f 502//568 519//587 504//571
f 504//571 519//587 520//588
f 504//571 520//588 505//572
f 505//572 520//588 509//589
f 505//572 509//589 508//575
f 508//575 509//589 461//528
f 508//575 461//528 433//495
f 490//557 513//581 514//582
f 514//582 513//581 512//580
f 514//582 512//580 515//583
f 515//583 512//580 521//590
f 515//583 521//590 516//584
f 516//584 521//590 488//579
f 516//584 488//579 517//585
f 517//585 488//579 511//578
f 517//585 511//578 518//586
f 518//586 511//578 510//577
f 518//586 510//577 519//587
f 519//587 510//577 522//591
f 519//587 522//591 520//588
f 520//588 522//591 489//576
f 520//588 489//576 509//589
f 509//589 489//576 427//491
f 509//589 427//491 461//528
f 291//325 421//478 490//557
f 490//557 421//478 513//581
f 512//580 406//475 521//590
f 521//590 406//475 488//579
f 510//577 410//482 522//591
f 522//591 410//482 489//576
f 489//576 383//451 427//491
f 314//347 419//477 211//235
f 314//347 211//235 210//234
f 419//477 314//347 418//488
f 418//488 324//357 417//486
f 324//357 416//489 417//486
f 416//489 324//357 322//356
f 330//364 414//490 322//356
f 322//356 414//490 415//484
f 322//356 415//484 416//489
f 336//374 412//479 413//481
f 412//479 336//374 381//452
f 381//452 336//374 340//379
f 413//481 414//490 336//374
f 336//374 414//490 330//364
f 314//347 316//349 418//488
f 418//488 316//349 324//357
f 255//285 195//218 308//340
f 308//340 195//218 404//465
f 404//465 305//337 308//340
f 400//457 321//353 302//343
f 390//462 311//367 326//359
f 382//453 381//452 340//379
f 382//453 340//379 384//471
f 384//471 340//379 342//378
f 384//471 342//378 386//472
f 386//472 342//378 387//592
f 387//592 342//378 333//371
f 387//592 333//371 388//593
f 388//593 333//371 389//464
f 389//464 333//371 311//367
f 311//367 390//462 389//464
f 404//465 403//467 305//337
f 305//337 403//467 402//468
f 305//337 402//468 401//458
f 305//337 401//458 302//343
f 302//343 401//458 400//457
f 400//457 399//460 321//353
f 321//353 399//460 394//454
f 321//353 394//454 392//461
f 321//353 392//461 326//359
f 326//359 392//461 390//462
f 249//279 257//287 372//440
f 481//550 373//441 371//439
f 481//550 371//439 477//546
f 477//546 371//439 367//438
f 477//546 367//438 422//514
f 422//514 367//438 374//442
f 422//514 374//442 451//515
f 451//515 374//442 375//443
f 451//515 375//443 448//510
f 448//510 375//443 376//444
f 448//510 376//444 446//508
f 446//508 376//444 377//445
f 446//508 377//445 370//437
f 441//503 370//437 378//446
f 441//503 378//446 439//501
f 439//501 378//446 366//447
f 439//501 366//447 437//499
f 437//499 366//447 369//436
f 437//499 369//436 429//498
f 429//498 369//436 379//448
f 429//498 379//448 436//449
f 444//506 446//508 370//437
f 444//506 370//437 441//503
f 432//494 436//449 368//435
f 432//494 368//435 434//450
f 346//383 164//184 133//138
f 129//134 132//137 346//383
f 129//134 346//383 133//138
f 524//594 347//386 132//137
f 132//137 347//386 346//383
f 525//595 355//400 354//401
f 525//595 354//401 526//596
f 353//396 355//400 523//597
f 301//307 300//336 358//414
f 301//307 358//414 259//301
f 358//414 353//396 259//301
f 259//301 353//396 260//299
f 260//299 353//396 523//597
f 260//299 523//597 265//302
f 264//297 263//298 525//595
f 525//595 263//298 523//597
f 523//597 263//298 265//302
f 233//266 264//297 527//598
f 527//598 264//297 526//596
f 524//594 132//137 528//136
f 524//594 528//136 527//598
f 526//596 264//297 525//595
f 525//595 523//597 355//400
f 354//401 347//386 524//594
f 354//401 524//594 526//596
f 526//596 524//594 527//598
f 232//267 528//136 125//129
f 528//136 232//267 233//266
f 528//136 233//266 527//598
f 126//172 159//171 125//129
f 125//129 159//171 232//267
f 529//288 249//279 250//280
f 529//288 250//280 251//281
f 257//287 249//279 529//288
f 131//135 165//186 242//188
f 131//135 242//188 130//132
f 278//309 492//558 496//563
f 300//336 278//309 530//599
f 530//599 278//309 496//563
f 530//599 496//563 531//600
f 531//600 496//563 493//560
f 531//600 493//560 532//601
f 532//601 493//560 500//567
f 532//601 500//567 533//602
f 533//602 500//567 497//565
f 533//602 497//565 534//603
f 534//603 497//565 501//569
f 534//603 501//569 535//604
f 535//604 501//569 503//570
f 535//604 503//570 506//573
f 536//605 506//573 507//574
f 536//605 507//574 434//450
f 358//414 300//336 360//422
f 360//422 300//336 530//599
f 531//600 362//428 530//599
f 530//599 362//428 360//422
f 434//450 361//427 536//605
f 364//431 506//573 361//427
f 361//427 506//573 536//605
f 364//431 535//604 506//573
f 533//602 534//603 363//430
f 363//430 534//603 535//604
f 365//434 533//602 363//430
f 363//430 535//604 364//431
f 365//434 362//428 532//601
f 365//434 532//601 533//602
f 362//428 531//600 532//601
f 64//606 537//607 62//608
f 62//608 537//607 538//609
f 62//608 538//609 67//610
f 67//610 538//609 539//611
f 67//610 539//611 70//612
f 70//612 539//611 540//613
f 70//612 540//613 72//614
f 72//614 540//613 541//615
f 72//614 541//615 74//616
f 74//616 541//615 542//617
f 74//616 542//617 76//618
f 76//618 542//617 543//619
f 76//618 543//619 79//620
f 79//620 543//619 544//621
f 79//620 544//621 60//622
f 60//622 544//621 545//623
f 60//622 545//623 80//624
f 80//624 545//623 546//625
f 80//624 546//625 83//626
f 83//626 546//625 547//627
f 83//626 547//627 84//628
f 84//628 547//627 548//629
f 84//628 548//629 59//630
f 59//630 548//629 549//631
f 59//630 549//631 89//632
f 89//632 549//631 550//633
f 89//632 550//633 91//634
f 91//634 550//633 551//635
f 537//607 64//606 552//636
f 552//636 64//606 123//637
f 552//636 123//637 553//638
f 553//638 123//637 121//639
f 553//638 121//639 554//640
f 554//640 121//639 117//641
f 554//640 117//641 555//642
f 555//642 117//641 116//643
f 555//642 116//643 556//644
f 556//644 116//643 114//645
f 556//644 114//645 557//646
f 557//646 114//645 94//647
f 557//646 94//647 558//648
f 558//648 94//647 110//649
f 558//648 110//649 559//650
f 559//650 110//649 108//651
f 559//650 108//651 560//652
f 560//652 108//651 105//653
f 560//652 105//653 561//654
f 561//654 105//653 104//655
f 561//654 104//655 562//656
f 562//656 104//655 102//657
f 562//656 102//657 563//658
f 563//658 102//657 99//659
f 563//658 99//659 564//660
f 564//660 99//659 95//661
f 564//660 95//661 551//635
f 551//635 95//661 91//634
f 3//662 2//663 29//664
f 29//664 2//663 55//665
f 29//664 27//666 3//662
f 3//662 27//666 25//667
f 3//662 25//667 23//668
f 17//669 15//670 13//671
f 19//672 9//673 7//674
f 17//669 13//671 19//672
f 19//672 13//671 11//675
f 19//672 11//675 9//673
f 23//668 21//676 3//662
f 3//662 21//676 19//672
f 3//662 19//672 5//677
f 5//677 19//672 7//674
f 41//678 39//679 55//665
f 55//665 39//679 37//680
f 55//665 37//680 35//681
f 53//682 45//683 55//665
f 55//665 45//683 43//684
f 55//665 43//684 41//678
f 53//682 51//685 45//683
f 45//683 51//685 49//686
f 45//683 49//686 47//687
f 35//681 33//688 55//665
f 55//665 33//688 31//689
f 55//665 31//689 29//664
f 565//690 537//691 566//692
f 566//692 537//691 552//693
f 566//692 552//693 567//694
f 567//694 552//693 553//695
f 567//694 553//695 568//696
f 568//696 553//695 554//697
f 568//696 554//697 569//698
f 569//698 554//697 555//699
f 569//698 555//699 570//700
f 570//700 555//699 556//701
f 570//700 556//701 571//702
f 571//702 556//701 557//703
f 571//702 557//703 572//704
f 572//704 557//703 558//705
f 572//704 558//705 573//706
f 573//706 558//705 559//707
f 573//706 559//707 574//708
f 574//708 559//707 560//709
f 574//708 560//709 575//710
f 575//710 560//709 561//711
f 575//710 561//711 576//712
f 576//712 561//711 562//713
f 576//712 562//713 577//714
f 577//714 562//713 563//715
f 577//714 563//715 578//716
f 578//716 563//715 564//717
f 578//716 564//717 579//718
f 579//718 564//717 551//719
f 579//718 551//719 580//720
f 580//720 551//719 550//721
f 580//720 550//721 581//722
f 581//722 550//721 549//723
f 581//722 549//723 582//724
f 582//724 549//723 548//725
f 582//724 548//725 583//726
f 583//726 548//725 547//727
f 583//726 547//727 584//728
f 584//728 547//727 546//729
f 584//728 546//729 585//730
f 585//730 546//729 545//731
f 585//730 545//731 586//732
f 586//732 545//731 544//733
f 586//732 544//733 587//734
f 587//734 544//733 543//735
f 587//734 543//735 588//736
f 588//736 543//735 542//737
f 588//736 542//737 589//738
f 589//738 542//737 541//739
f 589//738 541//739 590//740
f 590//740 541//739 540//741
f 590//740 540//741 591//742
f 591//742 540//741 539//743
f 591//742 539//743 592//744
f 592//744 539//743 538//745
f 592//744 538//745 565//690
f 565//690 538//745 537//691
f 565//746 566//747 580//748
f 590//749 591//750 580//748
f 580//748 591//750 592//751
f 580//748 592//751 565//746
f 587//752 588//753 580//748
f 580//748 588//753 589//754
f 580//748 589//754 590//749
f 584//755 585//756 580//748
f 580//748 585//756 586//757
f 580//748 586//757 587//752
f 581//758 582//759 580//748
f 580//748 582//759 583//760
f 580//748 583//760 584//755
f 578//761 579//762 580//748
f 575//763 576//764 580//748
f 580//748 576//764 577//765
f 580//748 577//765 578//761
f 572//766 573//767 580//748
f 580//748 573//767 574//768
f 580//748 574//768 575//763
f 569//769 570//770 580//748
f 580//748 570//770 571//771
f 580//748 571//771 572//766
f 566//747 567//772 580//748
f 580//748 567//772 568//773
f 580//748 568//773 569//769
f 304//774 309//775 593//776
f 593//776 309//775 310//777
f 593//776 310//777 594//778
f 594//778 310//777 319//779
f 594//778 319//779 595//780
f 595//780 319//779 328//781
f 595//780 328//781 596//782
f 596//782 328//781 329//783
f 596//782 329//783 597//784
f 597//784 329//783 335//785
f 597//784 335//785 598//786
f 598//786 335//785 344//787
f 598//786 344//787 599//788
f 599//788 344//787 341//789
f 599//788 341//789 600//790
f 600//790 341//789 332//791
f 600//790 332//791 601//792
f 601//792 332//791 327//793
f 601//792 327//793 602//794
f 602//794 327//793 318//795
f 602//794 318//795 603//796
f 603//796 318//795 313//797
f 603//796 313//797 604//798
f 604//798 313//797 307//799
f 604//798 307//799 605//800
f 605//800 307//799 306//801
f 605//800 306//801 606//802
f 606//802 306//801 303//803
f 606//802 303//803 607//804
f 607//804 303//803 320//805
f 607//804 320//805 608//806
f 608//806 320//805 325//807
f 608//806 325//807 609//808
f 609//808 325//807 312//809
f 609//808 312//809 610//810
f 610//810 312//809 334//811
f 610//810 334//811 611//812
f 611//812 334//811 343//813
f 611//812 343//813 612//814
f 612//814 343//813 339//815
f 612//814 339//815 613//816
f 613//816 339//815 338//817
f 613//816 338//817 614//818
f 614//818 338//817 337//819
f 614//818 337//819 615//820
f 615//820 337//819 331//821
f 615//820 331//821 616//822
f 616//822 331//821 323//823
f 616//822 323//823 617//824
f 617//824 323//823 317//825
f 617//824 317//825 618//826
f 618//826 317//825 315//827
f 618//826 315//827 619//828
f 619//828 315//827 304//774
f 619//828 304//774 620//829
f 620//829 304//774 593//776
f 607//830 608//831 620//832
f 604//833 605//834 620//832
f 620//832 605//834 606//835
f 620//832 606//835 607//830
f 601//836 602//837 620//832
f 620//832 602//837 603//838
f 620//832 603//838 604//833
f 598//839 599//840 620//832
f 620//832 599//840 600//841
f 620//832 600//841 601//836
f 595//842 596//843 620//832
f 620//832 596//843 597//844
f 620//832 597//844 598//839
f 620//832 593//845 594//846
f 620//832 594//846 595//842
f 617//847 618//848 620//832
f 620//832 618//848 619//849
f 614//850 615//851 620//832
f 620//832 615//851 616//852
f 620//832 616//852 617//847
f 611//853 612//854 620//832
f 620//832 612//854 613//855
f 620//832 613//855 614//850
f 608//831 609//856 620//832
f 620//832 609//856 610//857
f 620//832 610//857 611//853
