# G1 exterior visual; derived from pinned Unitree/TWIST2 CAD.
v -0.0369809307 -0.0900958329 -0.0275796689
v -0.0330501795 -0.0148598477 -0.0124270096
v -0.0346510857 -0.0123347314 -0.0194885395
v -0.0356802419 -0.0127654588 -0.0205180533
v -0.0364595279 -0.0130606489 -0.0239772834
v -0.0377750732 -0.0161841419 -0.0171494354
v -0.0365971923 -0.0133604314 -0.0282972474
v -0.0379017219 -0.0158046521 -0.0222441684
v -0.0324680395 -0.0121874809 -0.0173823573
v -0.0338480473 -0.0179335196 -0.0082661612
v -0.03542386 -0.0213990901 -0.00481047854
v -0.0351278484 -0.0253658239 -0.00117776741
v -0.0355306007 -0.0298352633 0.00181750464
v -0.0365285315 -0.044347316 0.00704264035
v -0.036341276 -0.0389440954 0.00573605159
v -0.0370622091 -0.0346654356 0.00385537883
v -0.0365577675 -0.0497642905 0.00767665822
v -0.0366340168 -0.0549253486 0.00759640802
v -0.0374717936 -0.0600231923 0.00671866024
v -0.0363197997 -0.0650974363 0.00573537219
v -0.0357618034 -0.0724079087 0.00285828952
v -0.0344412662 -0.08291962 -0.00479767239
v -0.0350864045 -0.0788226798 -0.00128102
v -0.0333000198 -0.0880542397 -0.0106277801
v -0.0324831679 -0.0919564888 -0.0176593047
v -0.0337156951 -0.0919583142 -0.0187277533
v -0.0360529274 -0.0885055289 -0.0138448654
v -0.0354840308 -0.0915144384 -0.0207960047
v -0.037762735 -0.0878888369 -0.0171449762
v -0.0361821055 -0.0913412124 -0.0247937515
v -0.0372716449 -0.088254869 -0.0290887672
v -0.0352419093 -0.0896233246 -0.0398626588
v -0.0386334807 -0.0863009021 -0.020137202
v -0.0402874984 -0.0791276917 -0.0120987268
v -0.0417047031 -0.0687329099 -0.00379875838
v -0.0423119664 -0.0558851734 -0.000527551922
v -0.0422415696 -0.0449328013 -0.000614392862
v -0.0413076244 -0.0312628523 -0.00631082989
v -0.0392247252 -0.0200922955 -0.0178558659
v -0.0366954058 -0.0146736791 -0.0319278948
v -0.035677623 -0.01665763 -0.0112793418
v -0.0375199504 -0.0276279859 -0.000663857732
v -0.0392946899 -0.0393630154 0.00422115857
v -0.0387713723 -0.046806559 0.00641808985
v -0.0396143086 -0.0545080118 0.00602970878
v -0.0383521505 -0.0671467856 0.0040455428
v -0.0389471129 -0.0722864568 0.000957915385
v -0.0380868912 -0.0781151652 -0.00261389976
v -0.0363556743 -0.0841144994 -0.00725252554
v -0.0372039713 -0.0174352247 -0.0122153405
v -0.0385044217 -0.0241836421 -0.00485598855
v -0.0394909009 -0.0325055383 0.000726408791
v -0.0402655341 -0.0468918383 0.00511011155
v -0.0401151888 -0.0619262904 0.00425935304
v -0.0379130319 -0.0833257586 -0.00820278842
v -0.0391824171 -0.0200511236 -0.0130902361
v -0.0396812782 -0.0250733551 -0.00618085172
v -0.0406366065 -0.0331104286 -0.000774667249
v -0.0412347727 -0.0422164835 0.00261031906
v -0.0414419323 -0.0518766381 0.00378267048
v -0.041246403 -0.0615446679 0.00267612957
v -0.0406592153 -0.0706743374 -0.000646747183
v -0.0397135727 -0.078749232 -0.00599810528
v -0.0392729752 -0.0836136714 -0.012656956
v -0.0404817238 -0.0775665566 -0.00738957105
v -0.0413848422 -0.0698171109 -0.00227875705
v -0.0419441015 -0.0610612929 0.000886061694
v -0.0421366245 -0.0493569113 0.00193482917
v -0.0415429026 -0.0357949585 -0.00142506952
v -0.0404306315 -0.0261315983 -0.00767869363
v -0.0126156108 -0.018338684 -0.0596325547
v -0.0141117731 -0.013218102 -0.0511657111
v -0.0204765629 -0.0919282883 -0.0154854758
v -0.0205500312 -0.0121020814 -0.015444383
v -0.0216491725 -0.0159186404 -0.00885253493
v -0.012971811 -0.088169761 -0.0581427813
v -0.00980728399 -0.0521794669 -0.0755898356
v -0.0141681395 -0.0919673741 -0.0515098013
v -0.022624433 -0.020342974 -0.00351825589
v -0.0234456323 -0.0256374273 0.00110249373
v -0.0183107741 -0.0132182045 -0.0275398195
v -0.0240984876 -0.0316383615 0.00482318038
v -0.0245863348 -0.038168218 0.00755885383
v -0.0120363878 -0.083787173 -0.0634364262
v -0.0112283081 -0.0785595626 -0.0680358633
v -0.0105671501 -0.0726356953 -0.0717505962
v -0.0183974635 -0.0121074701 -0.0276773181
v -0.0100869546 -0.0662728548 -0.074468568
v -0.00978677254 -0.059562847 -0.0761647597
v -0.024873117 -0.0450360812 0.00920728222
v -0.0249496605 -0.052018512 0.00975216553
v -0.0248527266 -0.0589899905 0.00920387171
v -0.0245863013 -0.06586878 0.00755864102
v -0.0240984298 -0.0723985806 0.00482285907
v -0.0234487932 -0.078326419 0.00114713376
v -0.0098738838 -0.0457821526 -0.0751480237
v -0.0101520652 -0.038921494 -0.0735737979
v -0.0109655466 -0.0287523884 -0.0689703077
v -0.0226412546 -0.0836334899 -0.00344767724
v -0.0216815118 -0.0881320611 -0.00885451399
v -0.033752542 -0.0139404079 -0.0458488539
v -0.024866946 -0.0891766697 -0.0587361678
v -0.0287908874 -0.0917015746 -0.0526513197
v -0.03011043 -0.0912708864 -0.0520369746
v -0.0320280939 -0.0909757167 -0.0490543284
v -0.0309237968 -0.0878524259 -0.0559195131
v -0.0336380266 -0.0906759202 -0.045043014
v -0.0341186635 -0.0162082165 -0.0468825363
v -0.0314649343 -0.0248635076 -0.0619469285
v -0.0297797751 -0.0394155122 -0.0714254677
v -0.0294060986 -0.0548005961 -0.073411651
v -0.0301361755 -0.069674857 -0.0693055466
v -0.0317154489 -0.0799473822 -0.0606379025
v -0.0334575959 -0.0865886584 -0.0505935773
v -0.0260169283 -0.0918480754 -0.0538838096
v -0.0237962846 -0.0843574479 -0.065016143
v -0.0229630228 -0.0786673203 -0.0700188726
v -0.0233529434 -0.0742433444 -0.0730058029
v -0.0224192012 -0.059287522 -0.0783680454
v -0.0218034089 -0.0670184195 -0.0763543025
v -0.0211682431 -0.0498134792 -0.0788164213
v -0.0214537662 -0.0545607619 -0.0788123235
v -0.0197618976 -0.0450321622 -0.0781027228
v -0.0230313372 -0.0440844148 -0.0781299546
v -0.0231287777 -0.039083831 -0.0769471377
v -0.0218913276 -0.03159355 -0.0740288273
v -0.0249753576 -0.0213806164 -0.0665278882
v -0.0210847557 -0.0255925767 -0.0699235499
v -0.0244888961 -0.0252722465 -0.0698361322
v -0.0240284745 -0.0175337307 -0.0624564961
v -0.0246325806 -0.0148623576 -0.0587591007
v -0.0271450914 -0.0122575387 -0.0537682548
v -0.0281734634 -0.0155307278 -0.058433678
v -0.0300213806 -0.0125218602 -0.0517086051
v -0.0315205455 -0.016836606 -0.0557450764
v -0.0320473351 -0.0126950722 -0.0481921397
v -0.0282281954 -0.0883940533 -0.0585234575
v -0.0262127314 -0.0841882154 -0.0646505132
v -0.0262489598 -0.078218177 -0.0696035996
v -0.0242088009 -0.0672495738 -0.0759907737
v -0.0237282198 -0.0520730242 -0.0787104592
v -0.0245652813 -0.0321633779 -0.0739735663
v -0.0274683256 -0.0198319331 -0.0639993548
v -0.0280110296 -0.0834499151 -0.0642369017
v -0.0264093745 -0.071530953 -0.0733007565
v -0.0267833732 -0.064372845 -0.0756071433
v -0.0256347172 -0.0571445152 -0.0776845217
v -0.0256308913 -0.0470751226 -0.0777061433
v -0.0260408409 -0.037285246 -0.0753862634
v -0.026841376 -0.0283282697 -0.0708560571
v -0.0295508765 -0.0824358687 -0.0635075346
v -0.0294092353 -0.0766747147 -0.0677513629
v -0.0280000698 -0.0709259063 -0.0722834915
v -0.0272482112 -0.057025291 -0.0765383244
v -0.0272423532 -0.047292091 -0.0765714645
v -0.0283096675 -0.041622363 -0.0746179447
v -0.0279774796 -0.0333618298 -0.0724113286
v -0.0293481406 -0.0278184488 -0.0680971965
v -0.029514363 -0.0217906889 -0.0637141019
v -0.0306869 -0.023111891 -0.0628173947
v -0.0292185079 -0.0342191122 -0.0711270198
v -0.0284755174 -0.0522421785 -0.0753316656
v -0.028677661 -0.0614966042 -0.0741877109
v -0.0292542614 -0.0702150911 -0.0709246993
v -0.0307446271 -0.0812252983 -0.0624907129
v -0.0324072056 -0.0872471333 -0.0534803532
v -0.0105494466 -0.0511645973 -0.0769677907
v -0.0105607761 -0.0511512198 -0.075727053
v -0.00975878257 -0.0518162549 -0.0768152475
v -0.0190618131 -0.0132241994 -0.0286567081
v -0.0191296935 -0.0120895421 -0.0286414512
v -0.0155882752 -0.0508459508 -0.0766096041
v -0.0146118766 -0.0509576872 -0.0775201395
v -0.0183345098 -0.0488568917 -0.0769912377
v -0.0169320628 -0.0500420704 -0.0780124217
v -0.0187052526 -0.0482578278 -0.0782350227
v -0.0194064211 -0.0465547703 -0.0780513585
v -0.0196120925 -0.0463307127 -0.0769843236
v -0.0264552534 -0.0120738391 -0.0344235376
v -0.024929069 -0.012066951 -0.0316354185
v -0.0252342131 -0.0132181766 -0.0322253034
v -0.0229801927 -0.0132181896 -0.0300659463
v -0.0224828254 -0.0120590497 -0.0296104401
v -0.0267358012 -0.0132024195 -0.0361751541
v -0.0267688967 -0.0120540252 -0.0373374224
v -0.0202093422 -0.0354360342 -0.0741264224
v -0.021120036 -0.0264441762 -0.0689728037
v -0.0222929325 -0.0191322286 -0.062335372
v -0.0239585657 -0.0132190809 -0.0529095195
v -0.0239886828 -0.0120884515 -0.0533804819
v -0.0199318677 -0.0382411666 -0.0764233768
v -0.0203960035 -0.0316441059 -0.073667489
v -0.021871062 -0.020449385 -0.0654581934
v -0.0227859803 -0.015918294 -0.0599221326
v -0.0149408933 -0.0511190481 -0.0777772516
v -0.0347478911 -0.0919938609 -0.0260610245
v -0.0339789763 -0.0918654203 -0.0363415256
v -0.0307447575 -0.0919864029 -0.0476039685
v -0.0275378171 -0.0920079127 -0.0526494794
v -0.0358295515 -0.0910971612 -0.0323447026
v -0.0324840136 -0.0915285572 -0.0461668745
v -0.0311025809 -0.0120379105 -0.0465481021
v -0.027714422 -0.0120356372 -0.0525689311
v -0.0339352787 -0.0121708987 -0.0365888216
v -0.0347390212 -0.0120453201 -0.0249343365
v -0.0334725529 -0.0120280562 -0.0190628022
v -0.0343040191 -0.012939156 -0.0409776941
v -0.0358982012 -0.0125077544 -0.0268459711
v -0.000947944762 -0.0512883142 -0.0793863833
v 0.000922451029 -0.050963603 -0.0800449625
v 0.000727815728 -0.0586390048 -0.0794211254
v -0.0179441106 -0.0556403361 0.0176932029
v -0.0187685005 -0.0515492335 0.0176146943
v -0.0135325771 -0.0918982923 -0.0141358757
v -0.00428375928 -0.0725465193 -0.0708139762
v -0.00515062362 -0.0800609812 -0.065881215
v -0.00338216266 -0.0568151474 -0.0755446851
v -0.00320889079 -0.0666008592 -0.0751718357
v -0.00341889216 -0.0468897484 -0.0755710602
v -0.014650573 -0.0888546333 -0.00858055521
v -0.0157731064 -0.0848824978 -0.0035203388
v -0.0117615713 -0.0946101248 -0.0167655218
v -0.0133573301 -0.0908718631 -0.00846246164
v -0.016920371 -0.0791247413 0.00190429413
v -0.0175278764 -0.0743100122 0.00500140665
v -0.0183755215 -0.0659653768 0.00876894593
v -0.0178385451 -0.0706507564 0.00851246156
v -0.0189739466 -0.0574660748 0.0143443327
v -0.0210888796 -0.00555541366 0.0245101601
v -0.0146614388 -0.073275134 0.0113437194
v -0.0141836172 -0.0796201825 0.00706451619
v -0.0119179571 -0.0797792599 0.00778627209
v -0.0109192105 -0.0867499113 0.00107696222
v -0.0129954955 -0.0866389871 0.00023042364
v -0.0115680583 -0.090819411 -0.00569494441
v -0.0105197327 -0.0940152779 -0.0121115213
v -0.0090128202 -0.0970034152 -0.0215026736
v -0.00633722777 -0.0987563431 -0.0367969573
v -0.00754345814 -0.0985007882 -0.0301954225
v -0.00533277355 -0.0984458029 -0.0417018011
v -0.00448095752 -0.0974914283 -0.0467164181
v -0.00236666924 -0.0908214152 -0.0612491667
v -0.000293310848 -0.0929011256 -0.0580886044
v -0.00359607395 -0.0955189764 -0.0527479425
v 0.000859853521 -0.0873349309 -0.0657737926
v -0.00117870711 -0.0845412761 -0.068404451
v -0.000354678108 -0.0769148618 -0.0737614408
v 0.00200962578 -0.0801798403 -0.0719478875
v 0.00264150952 -0.0726135895 -0.0758736953
v 0.000328825874 -0.0682027861 -0.0773847252
v 0.00343504618 -0.0625205562 -0.0788018033
v -0.00370403728 -0.0653899834 -0.0737410188
v -0.00649639638 -0.087612927 -0.0581331477
v -0.00778849749 -0.0919569284 -0.0504559577
v -0.00907951035 -0.0940462798 -0.0431612208
v -0.0108089289 -0.094736211 -0.0334295146
v -0.010619564 -0.096157819 -0.030830225
v -0.012122008 -0.0946355239 -0.022106057
v -0.0132193174 -0.0919964388 -0.0199447032
v 0.00339650456 -0.051430393 -0.0799123943
v -0.00240359595 -0.0523524545 -0.0779192448
v -0.00413709227 -0.0786072537 -0.0695280731
v -0.00510007935 -0.0854492784 -0.0636777505
v -0.00630470179 -0.0908199698 -0.0563920513
v -0.00767977303 -0.0944099873 -0.0482157208
v -0.00912893843 -0.0961637273 -0.0395808853
v -0.0147726163 -0.0857508853 -0.000925705011
v -0.015894616 -0.0792521164 0.00546309073
v -0.0166670419 -0.0718245357 0.010399418
v -0.00137662247 -0.0585065 -0.078565836
v -0.00171186437 -0.0672613829 -0.0767412782
v -0.00233827787 -0.0758145154 -0.0732994303
v -0.00319592073 -0.0834157392 -0.0681036264
v -0.00430139946 -0.0897574499 -0.0611525699
v -0.0056248256 -0.0943807662 -0.0530258343
v -0.00707374699 -0.0971093774 -0.0442235619
v -0.00856884196 -0.0979315862 -0.0350944102
v -0.010127034 -0.0970325321 -0.0258584619
v -0.0140664233 -0.0552517697 0.0200779922
v -0.0162666645 -0.0561366528 0.0190143939
v -0.0134130707 -0.0643588901 0.0162297301
v -0.00612616679 -0.00698962575 -0.0549912639
v -0.00397543237 -0.0118555706 -0.0622213893
v -0.0023495194 -0.0112741273 -0.0626017526
v -0.00153304869 -0.00500474451 -0.0551753603
v 0.000531378202 -0.0106058661 -0.0620049201
v -0.00348025933 -0.0343516767 -0.0741489977
v -0.00378344115 -0.0376008376 -0.0734003931
v -0.00228014542 -0.0408683009 -0.0775131881
v 0.00312674791 -0.0368199311 -0.0781371444
v 0.00348645099 -0.0432732552 -0.0794046596
v 8.77298662e-05 -0.0430535972 -0.0793656036
v 0.000340200088 -0.035600286 -0.0778523237
v 0.00287431036 -0.029708527 -0.0757326558
v -8.06659154e-05 -0.0292137917 -0.0755171031
v 0.000843970629 -0.0179717671 -0.0688971356
v -0.00120021566 -0.0179301836 -0.0687274933
v -0.00713230995 -0.00921149459 -0.0541012026
v -0.00602147263 -0.0145661561 -0.0604726262
v -0.00447627995 -0.023259066 -0.0685458183
v -0.00432058144 -0.0307436716 -0.0704405829
v -0.00243639573 -0.0216579232 -0.0707275048
v 0.000173109962 -0.0242018159 -0.0731204674
v -0.00138711371 -0.0335050412 -0.0766419917
v -0.00431111827 -0.0172218233 -0.0659352913
v -0.00303170085 -0.0280195251 -0.0731881037
v -0.0186504573 -0.056139756 0.0107231075
v -0.0205093715 -0.0121541414 0.0212115999
v -0.020500809 -9.03236526e-08 0.021195652
v -0.0107106445 -0.0104958005 -0.034674678
v -0.00990745891 -0.00499991793 -0.0387536101
v -0.012142607 -0.010999999 -0.0261048563
v -0.0155950477 -0.0164942779 -0.00656291377
v -0.0201739073 -0.0110784229 0.0193435326
v -0.008195078 -0.00503763882 -0.0481988303
v -0.00781453867 -0.0121294875 -0.0505975746
v -0.0142467599 -0.0121855205 -0.0141973998
v -0.00531232124 -0.0224834085 -0.0647589639
v -0.00680415565 -0.0152462199 -0.056315504
v -0.0169381071 -0.0239387397 0.00103141437
v -0.0177506972 -0.0308229271 0.00562929409
v -0.0183234215 -0.0384597071 0.00887022913
v -0.0186752062 -0.048151277 0.0108597893
v -0.0205051471 -0.0918715075 -0.0149826668
v -0.0142379012 -0.0919981897 -0.0504520126
v -0.0136866691 -0.0910976306 -0.053577777
v 0.0370925516 -0.0748629048 -0.0685838237
v 0.0307305362 -0.098572433 -0.030306872
v 0.0297692362 -0.0986150876 -0.0264014639
v 0.0304269381 -0.0986098349 -0.0340680219
v 0.0356995538 -0.0929454789 -0.0442555845
v 0.0325813442 -0.0955644846 -0.0264598764
v 0.0399848893 -0.0647595003 -0.0684049278
v 0.0396064222 -0.0681471825 -0.0687053129
v 0.0331624337 -0.096652776 -0.0322395302
v 0.0322246552 -0.0979386717 -0.0335272104
v 0.0317665823 -0.0965976939 -0.0243283734
v 0.0385697074 -0.0727560595 -0.068494603
v 0.0390473492 -0.0637870282 -0.0712389871
v 0.0371643789 -0.0709329322 -0.070347555
v 0.0374531299 -0.0650449693 -0.0720835552
v 0.0398968905 -0.058249481 -0.0710665137
v 0.0380499363 -0.0581855215 -0.0731638446
v 0.0402114615 -0.0514248163 -0.0695411041
v 0.0377159603 -0.0859174654 -0.0555794761
v 0.0389972515 -0.077931039 -0.0629038364
v 0.038998235 -0.0763734579 -0.0652551875
v 0.0381978117 -0.0820610151 -0.0617771596
v 0.0373673998 -0.0869249776 -0.0570764691
v 0.0360169597 -0.0921228305 -0.0494428612
v 0.0345263369 -0.0955338627 -0.0410117544
v 0.0380051732 -0.0787295923 -0.06536033
v 0.0363466889 -0.0829728395 -0.0635106564
v 0.035737887 -0.0866248682 -0.0601284765
v 0.0351994894 -0.0896345749 -0.0564972088
v 0.0344859064 -0.0922493339 -0.052717872
v 0.0337108783 -0.0945076719 -0.048562929
v 0.0330200568 -0.0962460414 -0.0441966653
v 0.0321661234 -0.0975583792 -0.0398682393
v 0.036352504 -0.078474313 -0.0668866485
v 0.0377960391 -0.0515874512 -0.0737472773
v 0.0394247957 -0.0514145643 -0.0725215599
v 0.0250727981 -0.07228636 0.0156352371
v 0.0238933135 -0.0545888431 0.0228301883
v 0.023402255 -0.0550091565 0.0241468363
v 0.0240001678 -0.0733866021 0.0166905988
v 0.0224965755 -0.0583758205 0.0240377206
v 0.0219945237 -0.0736743808 0.0176180992
v 0.0220369827 -0.0509753823 0.0265068673
v 0.0210419167 -0.0584776066 0.0246980172
v 0.0201408118 -0.0509501733 0.0271822456
v 0.0196316428 -0.0590534098 0.0245630965
v -0.0211347975 -3.01878686e-07 0.0255108904
v -0.0209508464 -0.00555114541 0.0258268584
v -0.0175833274 -0.00554960547 0.030838009
v -0.0201432314 -0.00555001479 0.0286301356
v 0.0315200761 -0.00499999989 -0.0243806168
v 0.0317456946 -0.00499999989 -0.0216151141
v 0.035447266 -0.00500035007 -0.0426006131
v 0.0337751135 -0.00500405952 -0.0487827063
v 0.0208777934 -0.00499997893 -0.0340944603
v 0.0189573001 -0.00499999942 -0.0305434018
v 0.015816709 -0.00500000129 -0.0283174943
v 0.0198626835 -0.00500001432 -0.0338820443
v -0.00429519964 -0.0050128093 -0.054648146
v -0.00711802207 -0.00500292797 -0.0509410873
v -0.00785818603 -0.00499999663 -0.0391823202
v -0.00701257447 -0.00499999383 -0.0385399014
v 0.0262164585 -0.00499999989 -0.0302108768
v 0.0353201218 -0.00501569826 -0.0458283834
v -0.00728866039 -0.00499999849 -0.0351572819
v -0.00436432334 -0.00499999989 -0.0318037942
v 0.00604052655 -0.00499999989 -0.0313321389
v -0.0062219291 -0.00499999989 -0.0330278352
v -0.0149008641 -0.0109876171 -0.026670251
v -0.0216343049 -0.010999999 -0.0200080965
v -0.0232541133 -0.0110037476 0.018189298
v -0.0268413592 -0.010999999 0.0122389169
v -0.0289537404 -0.010999999 0.00565076852
v -0.0294735841 -0.010999999 -0.00124819705
v -0.0257104803 -0.010999999 -0.0144644817
v -0.0283723064 -0.010999999 -0.00807850994
v -0.0123952692 -0.0105387466 -0.0305148903
v 0.0376041122 -0.0145591069 -0.0548666567
v 0.0400456339 -0.0386637263 -0.0687844604
v 0.0393279903 -0.0274585113 -0.0646479577
v 0.0220291596 -0.0055583939 0.0335265845
v 0.0202021226 -0.00554968324 0.0345395729
v -0.0193149634 -0.00555004785 0.0274867658
v 0.0181116015 -0.00554966135 0.0371716768
v 0.0203149151 -0.00554969581 0.0364431553
v -0.0145729007 -1.75283968e-10 -0.00355395791
v -0.0126293274 -1.75283926e-10 -0.0080932118
v -0.0257104803 -1.75283538e-10 -0.0144644817
v -0.00515395682 -1.39334003e-10 -0.0320232101
v -0.0283723064 -1.75283607e-10 -0.00807850994
v -0.0294735841 -1.75283718e-10 -0.00124819705
v -0.0149372695 -1.75284065e-10 0.001370418
v -0.0289537404 -1.75283857e-10 0.00565076852
v -0.0136829512 -1.75284176e-10 0.00614628475
v 0.0188962389 -1.75284121e-10 -0.0305301622
v 0.0262164585 -1.75284259e-10 -0.0302108768
v -0.00734148407 -1.7528351e-10 -0.0351906456
v -0.0119871851 8.43543475e-08 -0.0313501433
v -0.0268413592 -1.75284037e-10 0.0122389169
v -0.0232526492 -1.75284218e-10 0.0181539115
v -0.0109458761 -1.75284315e-10 0.0102561098
v -0.00702264486 -1.7528444e-10 0.0132545261
v 0.0306536444 -1.7528444e-10 -0.0256973598
v 0.0317935273 9.57532109e-11 -0.0233626831
v 0.0149591044 -1.75284648e-10 0.00110686966
v 0.0137891807 -1.75284717e-10 0.00590410875
v 0.0220258106 -1.75285397e-10 0.0333895758
v 0.0111249862 -1.75284745e-10 0.0100615453
v 0.0201803707 -1.75285383e-10 0.0345362537
v 0.00725522405 -1.75284717e-10 0.0131286597
v 0.00259924238 -1.75284662e-10 0.0147730839
v -0.0023384029 -1.75284565e-10 0.0148166101
v -0.0154481558 -4.73385654e-07 -0.0259270482
v -0.00931717549 -1.75283912e-10 -0.0117554357
v -0.0049953647 -1.75283954e-10 -0.0141437724
v -0.000132223489 -1.75284037e-10 -0.0149994195
v 0.0050633885 -1.75283829e-10 -0.0315048061
v 0.00474523986 -1.75284148e-10 -0.0142296385
v 0.0124846864 -1.75284412e-10 -0.00831459649
v 0.0149997156 -1.75284079e-10 -0.0283819884
v 0.00910849031 -1.75284273e-10 -0.011917864
v -0.0216345135 -1.7528351e-10 -0.0200548712
v 0.0197961554 -1.75284065e-10 -0.033802554
v 0.0207970589 -1.75284093e-10 -0.0341142043
v 0.014507981 -1.75284537e-10 -0.00381032098
v 0.017164316 -1.75284107e-10 -0.0288952738
v -0.00719548715 -1.75283441e-10 -0.0390058048
v -0.00982818566 2.0112752e-07 -0.0387504362
v -0.0195634682 -1.12606597e-06 0.0273379013
v 0.0401900895 -0.0514023453 -0.0708045289
v 0.034945447 -0.0105307372 -0.0555924997
v 0.0358539782 -0.0159353819 -0.0608287975
v 0.0358617082 -0.0222699977 -0.0658033565
v 0.0364895165 -0.0291854646 -0.0695075691
v 0.0369655527 -0.0363335386 -0.0720147714
v 0.0380323641 -0.0436835364 -0.0732146353
v 0.0390163139 -0.0362290628 -0.0707240105
v 0.0385575145 -0.0290713906 -0.0681275576
v 0.0379165523 -0.0224122088 -0.0645007715
v 0.0398810506 -0.0438270122 -0.0711928532
v 0.0377597623 -0.0170106217 -0.0591890216
v 0.0366198085 -0.0114402473 -0.0542422943
v 0.0296245962 -0.0962668359 -0.0164423473
v 0.0277278908 -0.0880386382 0.000583177025
v 0.0293937866 -0.0930545181 -0.0098602483
v 0.0225043222 -0.0783632621 0.0147032244
v 0.0265346244 -0.0830212608 0.00738258008
v 0.0254922137 -0.0783101469 0.012252978
v 0.027552845 -0.0924247503 -0.00449439045
v 0.0257536881 -0.0866974518 0.00570642157
v 0.0244253315 -0.0790601298 0.0132516259
v 0.0281855613 -0.0977506265 -0.0190955494
v 0.0273046475 -0.0963243023 -0.0130060753
v 0.0262496974 -0.09475784 -0.00788376573
v 0.0239477213 -0.0915513113 -0.00045334507
v 0.0251889303 -0.0905251727 0.00116183993
v 0.023749141 -0.0875504464 0.00587770995
v 0.023079481 -0.0831806809 0.0107867429
v 0.0271157082 -0.0554826893 0.00458579091
v 0.0270780306 -0.0497559309 0.00478719268
v 0.0308035668 -0.0807396621 -0.0162838437
v 0.031997256 -0.0819492415 -0.0230389368
v 0.0273952298 -0.0622605123 0.00300395023
v 0.027939219 -0.068485193 -7.44773351e-05
v 0.0362998582 -0.0712837055 -0.0473874137
v 0.035418205 -0.0760637596 -0.0423981249
v 0.0343684889 -0.0795465261 -0.0364577807
v 0.0296905935 -0.0779807121 -0.00998552982
v 0.0287183449 -0.0738211423 -0.00448353961
v 0.0369659252 -0.0654640645 -0.051156681
v 0.0373804905 -0.0589185692 -0.0535027236
v 0.0375335701 -0.0510118864 -0.0543655828
v 0.0332073048 -0.0815442502 -0.0298866332
v 0.0296906456 -0.0260191914 -0.00998569001
v 0.0273952559 -0.0417393036 0.00300388457
v 0.0279392544 -0.035514649 -7.45835714e-05
v 0.028718384 -0.0301787239 -0.00448367139
v 0.0308036264 -0.0232602861 -0.0162840262
v 0.0319973156 -0.0220507514 -0.023039123
v 0.0332073644 -0.0224557836 -0.0298868176
v 0.0343685448 -0.0244535562 -0.0364579558
v 0.0354182497 -0.0279363636 -0.0423982739
v 0.0362998955 -0.0327164456 -0.0473875329
v 0.0369659476 -0.0385361128 -0.0511567667
v 0.0373805016 -0.0450816192 -0.0535027646
v -0.0222948641 -0.0189917888 -0.00485758577
v -0.0207461417 -0.0127643179 -0.013628698
v -0.0240537096 -0.0719756335 0.0050957608
v -0.0232814085 -0.0789682642 0.000725311169
v -0.0138559965 -0.0123609444 -0.0526185036
v -0.0202256925 -0.0119984625 -0.0165670514
v -0.0121688182 -0.0189913232 -0.0621609576
v -0.0111821759 -0.0250283908 -0.0677443743
v -0.0104098786 -0.0320210196 -0.0721148252
v -0.00987928547 -0.0397214666 -0.0751174539
v -0.0222947672 -0.0850053281 -0.0048581087
v -0.0245843083 -0.0642751828 0.0080983974
v -0.0248543918 -0.056139756 0.00962681975
v -0.0248544067 -0.0478575937 0.00962688588
v -0.0245843381 -0.0397221409 0.00809858553
v -0.0104098218 -0.0719750077 -0.0721151382
v -0.0111821014 -0.0789677128 -0.067744799
v -0.00987925194 -0.0642745122 -0.0751176551
v -0.00960918795 -0.0561390556 -0.076645948
v -0.0096091982 -0.0478568934 -0.0766458809
v -0.0121687287 -0.0850048661 -0.0621614754
v -0.0240537692 -0.0320216455 0.00509608025
v -0.0232814848 -0.0250289459 0.000725734164
v 0.00259924238 -0.0100000007 0.0147730839
v 0.00725522405 -0.0100000007 0.0131286597
v 0.0111249862 -0.0100000007 0.0100615453
v 0.0137891807 -0.0100000007 0.00590410875
v 0.0149591044 -0.0100000007 0.00110686966
v 0.014507981 -0.0100000007 -0.00381032098
v 0.0124846874 -0.0100000007 -0.00831459649
v 0.00910849031 -0.0100000007 -0.011917864
v 0.00474523986 -0.0100000007 -0.0142296385
v -0.000132223489 -0.0100000007 -0.0149994195
v -0.0049953647 -0.0100000007 -0.0141437724
v -0.00931717549 -0.0100000007 -0.0117554357
v -0.0126293274 -0.0100000007 -0.0080932118
v -0.0145729007 -0.0100000007 -0.00355395791
v -0.0149372695 -0.0100000007 0.001370418
v -0.0136829512 -0.0100000007 0.00614628475
v -0.0109458761 -0.0100000007 0.0102561098
v -0.00702264486 -0.0100000007 0.0132545261
v -0.0023384029 -0.0100000007 0.0148166101
v 0.0304155294 -0.0544688664 -0.0100652557
v 0.0280845556 -0.0622605123 0.00312575675
v 0.0306945257 -0.059139166 -0.0116440933
v 0.028628543 -0.068485193 4.73278269e-05
v 0.031222282 -0.0630358309 -0.0146306884
v 0.0294076651 -0.0738211423 -0.00436172867
v 0.0319416188 -0.0657365844 -0.0187014081
v 0.03277459 -0.0370512269 -0.0234152097
v 0.0314929187 -0.0232602861 -0.0161622185
v 0.0319416337 -0.0382633805 -0.0187014937
v 0.0303799454 -0.0260191914 -0.00986388698
v 0.0312222987 -0.040964108 -0.0146307629
v 0.0294076856 -0.0301787239 -0.00436186697
v 0.0306945313 -0.0448607467 -0.0116441362
v 0.034417782 -0.039442528 -0.0327140465
v 0.0350578427 -0.0244535562 -0.03633615
v 0.0336309075 -0.0374590084 -0.0282611046
v 0.0338966623 -0.0224557836 -0.0297650155
v 0.032686606 -0.0220507514 -0.0229173154
v 0.0354589038 -0.0471295528 -0.0386057757
v 0.0376552604 -0.0385361128 -0.0510349609
v 0.0350499526 -0.0427868478 -0.036291495
v 0.0369892009 -0.0327164456 -0.0472657308
v 0.0361075513 -0.0279363636 -0.0422764681
v 0.0350499414 -0.0612132289 -0.0362914391
v 0.0376552418 -0.0654640645 -0.0510348715
v 0.0354589 -0.0568705387 -0.0386057459
v 0.0380698107 -0.0589185692 -0.053380914
v 0.0356003307 -0.0520000495 -0.0394061022
v 0.0382105298 -0.0520000942 -0.0541772507
v 0.0380698182 -0.0450816192 -0.0533809587
v 0.0336308889 -0.0665410161 -0.0282610115
v 0.0350578092 -0.0795465261 -0.0363359712
v 0.0344177708 -0.06455753 -0.0327139683
v 0.0361075215 -0.0760637596 -0.0422763117
v 0.0369891785 -0.0712837055 -0.0472656079
v 0.0303799156 -0.0779807121 -0.00986371748
v 0.0314928852 -0.0807396621 -0.0161620323
v 0.0327745751 -0.066948764 -0.0234151147
v 0.0326865762 -0.0819492415 -0.0229171272
v 0.033896625 -0.0815442502 -0.0297648218
v 0.0286285598 -0.035514649 4.72246247e-05
v 0.0280845631 -0.0417393036 0.00312569528
v 0.0303769857 -0.0503867492 -0.00989680272
v 0.0277753193 -0.0497501493 0.00486867595
v 0.0278050285 -0.0554826893 0.00470760185
v 0.0343606286 -0.0427868478 -0.0364133045
v 0.0337284617 -0.039442528 -0.0328358561
v 0.0329415873 -0.0374590084 -0.0283829141
v 0.0320852697 -0.0370512269 -0.0235370193
v 0.0312523134 -0.0382633805 -0.0188233051
v 0.0305329785 -0.040964108 -0.0147525733
v 0.0300052129 -0.0448607467 -0.0117659476
v 0.0297262128 -0.0495310314 -0.0101870829
v 0.0297009647 -0.0506653003 -0.0100442041
v 0.0347695872 -0.0471295528 -0.0387275852
v 0.034874469 -0.0494988672 -0.0393211246
v 0.0299872942 -0.0520000495 -0.0403979793
v 0.0298458636 -0.0568705387 -0.0395976231
v 0.0294369031 -0.0612132289 -0.0372833088
v 0.0288047306 -0.06455753 -0.0337058417
v 0.0280178506 -0.0665410161 -0.029252883
v 0.0271615367 -0.066948764 -0.0244069882
v 0.0263285805 -0.0657365844 -0.0196932815
v 0.0256092474 -0.0630358309 -0.0156225674
v 0.0250814874 -0.059139166 -0.0126359658
v 0.0248024911 -0.0544688664 -0.0110571291
v 0.0247766972 -0.0502246097 -0.010908627
v 0.0250814967 -0.0448607467 -0.0126360152
v 0.0256092586 -0.040964108 -0.0156226363
v 0.0263285991 -0.0382633805 -0.0196933728
v 0.0271615572 -0.0370512269 -0.0244070888
v 0.0280178674 -0.0374590084 -0.029252978
v 0.0288047474 -0.039442528 -0.0337059237
v 0.0294369124 -0.0427868478 -0.0372833684
v 0.0298458692 -0.0471295528 -0.0395976529
vn -0.6038469 0.7873661 0.1241914
vn -0.7281468 0.6839983 0.04414489
vn -0.8250744 0.5436189 0.1540476
vn -0.2791788 -0.9406747 0.1928474
vn -0.1461885 -0.9525096 0.2671224
vn -0.5759125 -0.7319404 0.3641266
vn -0.5630963 -0.8166658 0.12641
vn -0.8256962 -0.5425388 0.1545231
vn -0.6702152 -0.7418063 0.02312671
vn -0.942807 -0.2814104 -0.1786708
vn -0.8962585 -0.4377951 -0.07110763
vn -0.9789186 -0.1385952 -0.1500324
vn -0.9635454 -0.2639728 -0.04357058
vn -0.991081 -0.1133035 -0.0701478
vn -0.9997704 -0.01693648 -0.01312859
vn -0.9985408 0.04706383 0.02648363
vn -0.9942775 0.1053507 -0.01770313
vn -0.1930377 0.9315236 0.3082213
vn -0.4327925 0.8797475 0.1968119
vn -0.4827085 0.7482652 0.4550733
vn -0.2304264 0.8441138 0.4841235
vn -0.241051 0.7662178 0.5956548
vn -0.3647852 0.6803386 0.6356658
vn -0.5464503 0.5079136 0.6658948
vn -0.263823 0.6069283 0.7496902
vn -0.28006 0.4934119 0.823475
vn -0.3944087 0.3877725 0.8331112
vn -0.6514537 0.2515309 0.7157796
vn -0.3111458 0.2858076 0.9063677
vn -0.5379762 0.1107636 0.8356513
vn -0.315249 0.1887569 0.9300479
vn -0.3178292 0.04067839 0.947275
vn -0.656772 -0.05166134 0.7523174
vn -0.3182805 -0.06121081 0.9460183
vn -0.3990721 -0.1774273 0.8995893
vn -0.5627276 -0.3205285 0.7619705
vn -0.2868765 -0.2950048 0.9114133
vn -0.3043705 -0.463926 0.8319443
vn -0.6507671 -0.412236 0.6376235
vn -0.6211562 -0.5154375 0.5903298
vn -0.2927494 -0.5978414 0.7462462
vn -0.4791644 -0.6866108 0.5467788
vn -0.2662427 -0.6889462 0.6741424
vn -0.2471065 -0.8115562 0.5294477
vn -0.6999269 0.6294216 0.3375366
vn -0.69002 0.5326803 0.4900247
vn -0.7077725 0.3700559 0.6017614
vn -0.7637166 0.09334803 0.6387668
vn -0.7231439 -0.1875089 0.664758
vn -0.7214192 -0.5700117 0.3932442
vn -0.9144585 0.3772382 0.1464823
vn -0.858111 0.4003939 0.3214501
vn -0.8753089 0.2926497 0.384955
vn -0.8868119 0.1491558 0.4373981
vn -0.877337 -0.01349111 0.4796851
vn -0.8814362 -0.1421409 0.4504066
vn -0.8649833 -0.2805295 0.4160615
vn -0.8460439 -0.4077619 0.3434237
vn -0.9052872 -0.3983929 0.1474385
vn -0.9611383 -0.2430572 0.1309066
vn -0.9599292 -0.189546 0.2064176
vn -0.9737825 -0.08905731 0.209324
vn -0.9674746 0.0334364 0.2507484
vn -0.9644364 0.1588465 0.2112587
vn -0.9631998 0.2468057 0.1064573
vn -0.935513 0.3527369 -0.01980414
vn -0.8427147 0.5318746 -0.08331483
vn -0.9572737 0.2446983 -0.15411
vn -0.9849598 0.153297 -0.07971313
vn -0.997001 -0.07450002 -0.02094795
vn 0.9846685 -0.0005382723 0.1744354
vn 0.9846248 -0.0005236208 0.1746817
vn 0.9843705 -0.0002415658 0.1761101
vn 0.9843463 -0.001113844 0.1762423
vn 0.9815119 0.1240899 0.1457263
vn 0.9848494 -0.003007063 0.1733861
vn 0.9842014 0.001052552 0.1770496
vn 0.9840743 0.003025597 0.1777322
vn 0.9828187 0.03754881 0.1807139
vn 0.9843069 0.0007611928 0.1764639
vn 0.984244 0.001168616 0.1768111
vn 0.9853374 -0.003903533 0.1705725
vn 0.9858956 -0.005206294 0.1672807
vn 0.9860414 -0.00539499 0.1664131
vn 0.9845474 -0.001684715 0.1751102
vn 0.978399 0.08835515 0.1868923
vn 0.9847488 0.01567417 0.1732744
vn 0.9875554 -0.007097305 0.1571118
vn 0.9905827 -0.007891512 0.1366878
vn 0.8870231 0.4540007 0.08410373
vn 0.9840047 0.002767643 0.1781211
vn 0.9844127 0.0006521029 0.175873
vn 0.9848142 -0.002136868 0.1735981
vn 0.9846423 -0.00116919 0.1745802
vn 0.9845296 -0.0003709124 0.1752183
vn 0.9846361 -0.000904763 0.1746162
vn 0.9846675 -0.000706043 0.1744401
vn 0.9846126 -0.0002762555 0.174751
vn 0.9846389 -0.000416816 0.1746025
vn 0.9845993 -0.0007931456 0.1748244
vn 0.9842566 0.0003703138 0.1767453
vn -0.03667687 0.9667354 0.2531352
vn -0.08816465 0.8240807 0.5595695
vn -0.1166501 0.7191486 0.6849949
vn -0.1342017 0.6025552 0.7867128
vn -0.150019 0.4605773 0.8748502
vn -0.1627266 0.3165049 0.9345291
vn -0.1646708 0.1602405 0.9732454
vn -0.163959 -0.0009710119 0.9864666
vn -0.1681803 -0.1615035 0.9724361
vn -0.1630952 -0.3126535 0.9357606
vn -0.1467907 -0.4638307 0.8736781
vn -0.1354341 -0.5988741 0.7893082
vn -0.1165911 -0.718467 0.6857198
vn -0.09038675 -0.8262829 0.5559557
vn -0.04073025 -0.9673232 0.2502536
vn -0.5271426 -0.7880084 -0.318062
vn -0.6744191 -0.6785147 -0.2911645
vn -0.7185542 -0.5359967 -0.4431563
vn -0.9603969 -0.1610956 -0.2273456
vn 0.08219577 0.1649811 -0.9828658
vn 0.04592348 0.05730765 -0.9972998
vn -0.1483785 0.1843448 -0.971597
vn -0.1306307 0.2734294 -0.9529806
vn 0.08609106 0.3097473 -0.9469133
vn 0.05600844 0.4623794 -0.8849115
vn -0.1642905 0.6590549 -0.7339314
vn 0.05849958 0.7064758 -0.7053154
vn 0.05164646 0.6014003 -0.7972768
vn -0.1749905 0.5890626 -0.7889129
vn -0.009678607 0.7791695 -0.6267384
vn -0.01081708 0.8445159 -0.5354213
vn -0.1808642 0.9051673 -0.384656
vn 0.02364248 0.9642279 -0.2640186
vn -0.4862123 0.8149111 -0.315464
vn -0.8018166 0.4463496 -0.3973187
vn -0.6178025 0.7458959 -0.2489163
vn -0.8685744 0.4365937 -0.2344449
vn -0.9632455 0.1489642 -0.2235348
vn -0.0725522 -0.932264 -0.354429
vn -0.3334369 -0.8855797 -0.3233703
vn -0.4254948 -0.7231666 -0.5440443
vn -0.05767212 -0.8327756 -0.5505986
vn -0.2759521 -0.6832232 -0.6760595
vn -0.01893621 -0.722451 -0.6911627
vn -0.4001695 -0.5261375 -0.7503624
vn -0.01211317 -0.6092978 -0.7928489
vn -0.0819129 -0.4895865 -0.8680987
vn -0.2686198 -0.3145432 -0.9104427
vn 0.03496126 -0.3340246 -0.9419158
vn -0.07021327 -0.1745107 -0.9821488
vn -0.2595659 0.002187736 -0.9657229
vn 0.05052627 -0.06853496 -0.9963684
vn -0.2828689 0.4128917 -0.8657399
vn -0.4316557 0.6442875 -0.6313217
vn -0.4313453 0.7196772 -0.5440643
vn -0.5241059 -0.579132 -0.6244351
vn -0.4586108 -0.3793713 -0.803588
vn -0.5729595 -0.2048938 -0.793559
vn -0.4436791 -0.09782229 -0.8908309
vn -0.4492355 0.09738269 -0.8880901
vn -0.4793251 0.2665622 -0.8361771
vn -0.4873085 0.4492353 -0.7488111
vn -0.7032551 -0.4622694 -0.5401291
vn -0.770328 -0.3203243 -0.5513502
vn -0.6836913 -0.2859982 -0.6713951
vn -0.6855549 -0.06597193 -0.7250256
vn -0.683085 0.06804284 -0.7271624
vn -0.7633387 0.1216885 -0.6344335
vn -0.6522019 0.2924932 -0.6993428
vn -0.7803578 0.3111722 -0.5424145
vn -0.6889582 0.4660639 -0.5550865
vn -0.8552123 0.3006249 -0.4221808
vn -0.854865 0.1763463 -0.4879631
vn -0.8249358 0.006751663 -0.5651861
vn -0.8350978 -0.1022899 -0.5405076
vn -0.8336291 -0.1848836 -0.520462
vn -0.8612674 -0.2936707 -0.4146999
vn -0.8735092 -0.3558494 -0.3321941
vn -0.8281532 -0.5201045 -0.2089344
vn -0.9576924 -0.1093849 -0.2661961
vn -0.9444071 -0.08307517 -0.3181096
vn -0.9428434 -0.01504801 -0.3328961
vn -0.9398556 0.05831148 -0.3365578
vn -0.9512594 0.120169 -0.284016
vn 0.3391607 0.9404404 -0.02327957
vn 0.4526572 0.8894899 0.06252281
vn 0.5883636 0.0508944 -0.8069931
vn 0.5565565 0.04445205 -0.8296197
vn 0.8152638 0.02248156 -0.5786532
vn 0.8298349 -0.004309923 -0.5579923
vn 0.7644491 0.643721 0.03522443
vn 0.3053077 0.9486788 0.08243678
vn 0.5742581 0.8186725 -0.001705345
vn 0.1782456 0.9146338 -0.3628687
vn 0.8632061 0.5046508 -0.01423827
vn 0.9552485 0.28214 0.08886676
vn 0.9717856 0.1829247 0.1489004
vn 0.9266684 0.1953904 -0.3211047
vn 0.751836 0.1062571 -0.650732
vn 0.8284502 0.1135115 -0.548439
vn 0.5487772 0.1172901 -0.8276996
vn 0.4371999 0.1382903 -0.8886687
vn 0.9945448 0.06113732 -0.0845155
vn 0.9864642 0.1298168 0.1001796
vn 0.1786112 0.1569735 -0.9713174
vn 0.2692974 0.06914261 -0.9605717
vn 0.2315368 0.0749822 -0.9699322
vn 0.1844923 0.07466323 -0.9799939
vn 0.1824042 0.08527838 -0.9795184
vn 0.1645722 0.180409 -0.969726
vn 0.1703633 0.3123411 -0.934569
vn 0.1512622 0.3837848 -0.9109495
vn 0.1540557 0.5536299 -0.8183891
vn 0.1387432 0.6095322 -0.7805261
vn 0.1168121 0.763183 -0.6355365
vn 0.1131157 0.7790523 -0.6166705
vn 0.04294644 0.962655 -0.2673031
vn 0.04647879 0.9640875 -0.261486
vn 0.7921784 0.1651152 -0.5875291
vn 0.3071283 0.5315642 -0.7893742
vn 0.199637 0.1429409 -0.9693879
vn 0.6129208 0.1691583 0.7718249
vn 0.04929106 -0.9680901 -0.2457072
vn -0.1268176 -0.9745548 -0.1848249
vn -0.2306218 -0.972986 -0.01057038
vn -0.3598753 -0.9304733 -0.06862425
vn -0.2453874 -0.9591455 -0.1408009
vn -0.7402766 -0.6641407 -0.1044407
vn -0.5327914 -0.8291835 -0.16908
vn -0.219639 0.9731859 -0.06832314
vn -0.3625685 0.9300829 -0.05907416
vn -0.272402 0.9611214 0.04519721
vn -0.7384339 0.6562787 -0.1549636
vn -0.1453361 0.9758101 -0.1633158
vn -0.1826236 0.9744278 0.1309161
vn -0.5583336 0.8292809 -0.02359197
vn 0.9961787 0.04010768 0.07758312
vn 0.9969979 0.05070529 0.05851654
vn 0.993378 0.03693453 0.1087936
vn 0.9935187 0.06196149 0.09529648
vn 0.9934676 0.0634215 0.09486756
vn 0.9917194 0.06956224 0.1079528
vn 0.992288 0.05761465 0.1097498
vn 0.9883706 0.04397321 0.1455675
vn 0.9849283 0.08612268 0.1499976
vn 0.9850206 0.09008817 0.1470323
vn 0.180108 0.08121595 -0.9802883
vn 0.1811595 -0.01039664 -0.9833988
vn 0.2230698 0.4615986 -0.8585841
vn 0.1459779 0.8203438 -0.5529254
vn 0.1060123 -0.8256012 -0.5542058
vn 0.1265105 -0.7206902 -0.6816163
vn 0.1398319 -0.6039562 -0.7846552
vn 0.1555623 -0.4709442 -0.8683386
vn 0.1703712 -0.3212486 -0.9315434
vn 0.1685512 -0.1655191 -0.9716964
vn -0.2080783 -0.2371158 0.948936
vn 0.1746873 -0.07522721 -0.981746
vn -0.01030959 0.9999226 0.006959669
vn 0.02034494 0.9997881 0.003139503
vn 0.01212058 0.9999241 0.002254523
vn 0.004047889 0.9999918 -0.000171455
vn 4.595636e-05 0.999995 -0.003160909
vn 0.001876894 0.9999982 0.0003496412
vn -0.003545643 0.9999935 -0.0006681536
vn -0.006318448 0.9999794 -0.001118509
vn 0.003291018 0.9999931 0.001725137
vn 0.002452142 0.9999937 -0.00255255
vn 0.002004664 0.9999977 0.0008259855
vn -0.529386 -0.004813536 -0.8483675
vn -0.1369943 -0.002016586 -0.9905698
vn -0.1645181 -0.1259878 -0.9782948
vn -0.7983228 -0.5923744 0.1085051
vn -0.6272477 -0.7644565 0.1488841
vn -0.6869583 -0.6815596 0.2521207
vn -0.8317041 -0.5221552 0.1887385
vn -0.9531605 -0.2106971 0.2170065
vn -0.9931161 -0.1063007 0.04919853
vn -0.9738038 -0.1949622 0.1170297
vn -0.9732872 -0.1384705 0.1831339
vn -0.9993076 -0.02278739 -0.02941433
vn -0.4064427 -0.4757838 0.7800218
vn -0.4661483 -0.5871221 0.6618108
vn -0.2016472 -0.6167833 0.7608659
vn -0.1902172 -0.7700244 0.608999
vn -0.4523439 -0.7251142 0.5192249
vn -0.329841 -0.8367075 0.437179
vn -0.206491 -0.7846576 -0.5845287
vn 0.01547471 -0.8667282 -0.4985407
vn -0.1856783 -0.8995994 -0.3952777
vn -0.2107805 -0.6352493 -0.7429872
vn 0.01944554 -0.7403543 -0.6719355
vn 0.03237949 -0.5641828 -0.8250148
vn -0.2185957 -0.4539216 -0.863812
vn 0.05199298 -0.3783081 -0.9242184
vn -0.1827739 -0.2812004 -0.9420828
vn 0.07746708 -0.1951742 -0.9777043
vn -0.8637985 -0.1015844 -0.4934903
vn -0.9530277 -0.03408512 -0.300959
vn -0.9075837 -0.02787654 -0.4189448
vn -0.9314418 -0.09390193 -0.3515657
vn -0.9646329 -0.207451 -0.1626266
vn -0.8479055 -0.5227166 -0.08845105
vn -0.860598 -0.5086924 -0.02456026
vn -0.9445665 -0.3214978 -0.06658171
vn 0.11476 -0.01927328 -0.9932063
vn -0.9038678 0.02377374 -0.4271507
vn -0.8226005 -0.01217044 -0.5684895
vn -0.8657212 -0.2077561 -0.4553727
vn -0.9424526 -0.1270471 -0.3092605
vn -0.8628591 -0.2911414 -0.4131716
vn -0.9269418 -0.2127659 -0.3090465
vn -0.8516982 -0.3810972 -0.3596874
vn -0.9259995 -0.2642164 -0.2696568
vn -0.8463596 -0.4511455 -0.2830957
vn -0.9616171 -0.1848934 -0.2027488
vn -0.8459407 -0.4987305 -0.1888181
vn -0.7800639 -0.2407869 0.5775137
vn -0.9156691 -0.1250447 0.3819868
vn -0.8721003 -0.4503687 0.1913353
vn -0.7593039 -0.5598876 0.3316376
vn -0.9025759 -0.3573242 0.2401583
vn -0.7857618 -0.4531315 0.4210108
vn -0.7616405 -0.3575683 0.5404153
vn -0.5993654 -0.1040135 -0.7936891
vn -0.575519 -0.2021719 -0.7924042
vn -0.6220778 -0.3132121 -0.7175775
vn -0.6180494 -0.4601825 -0.637375
vn -0.6132634 -0.5866176 -0.5289496
vn -0.6047063 -0.6880769 -0.401099
vn -0.6028369 -0.757884 -0.2493985
vn -0.6003819 -0.7940075 -0.09536006
vn -0.599025 -0.7998217 0.0381338
vn -0.2503166 -0.4213827 0.8716526
vn -0.4823782 -0.3128302 0.8181984
vn -0.2444292 -0.2973026 0.9229657
vn -0.1943831 -0.9381266 -0.2865897
vn -0.2050637 -0.9670182 -0.1510784
vn -0.2160016 -0.9741563 -0.06605285
vn -0.2448939 -0.9678804 0.05687236
vn -0.2631434 -0.945683 0.1908908
vn -0.3010967 -0.89816 0.3203897
vn 0.08902854 0.2522359 -0.9635616
vn 0.09148763 0.1316995 -0.9870589
vn -0.2874932 0.1248219 -0.9496142
vn -0.1717576 0.256202 -0.9512413
vn 0.09076548 0.3940543 -0.9145944
vn -0.3049256 0.397254 -0.8655689
vn -0.4295703 0.6967112 -0.5745109
vn -0.009634822 0.930712 -0.3656259
vn -0.2099418 0.6849374 -0.6976998
vn 0.05174038 0.7345579 -0.6765704
vn -0.9172587 0.1413297 -0.372374
vn -0.9651963 0.04376191 -0.257839
vn -0.9411893 0.1491942 -0.3031561
vn -0.9048998 0.08865118 -0.41629
vn -0.962493 0.02762666 -0.2698962
vn -0.7502084 0.4673753 -0.4677047
vn -0.580542 0.535471 -0.6133856
vn -0.5299131 0.4258548 -0.7333757
vn -0.2709468 0.5945562 -0.7570277
vn 0.04771735 0.6182473 -0.7845338
vn -0.1204086 0.4767338 -0.8707622
vn -0.5311475 0.2518266 -0.8089906
vn -0.755811 0.3590352 -0.5475796
vn -0.732101 0.2512321 -0.633175
vn -0.7453831 0.09835625 -0.6593406
vn -0.9501987 0.1410574 -0.2778946
vn -0.9847584 -7.883731e-05 -0.1739281
vn -0.9659034 0.02370588 -0.2578152
vn -0.9849766 -9.749433e-05 -0.1726877
vn -0.9878021 0.0119345 -0.1552563
vn -0.9844002 0.01367653 -0.1754117
vn -0.9743066 0.06143644 -0.2166844
vn -0.973177 -0.04286781 -0.2260285
vn -0.9834189 0.008436642 -0.1811519
vn -0.9847624 -0.002912675 -0.1738813
vn -0.9847429 -5.337313e-05 -0.1740156
vn -0.9845356 0.001704626 -0.1751763
vn -0.9847409 -0.0001043329 -0.1740273
vn -0.979237 0.02142469 -0.2015838
vn -0.9831206 0.01283361 -0.1825086
vn -0.9847172 5.034158e-05 -0.1741607
vn -0.9847079 -9.854857e-05 -0.1742137
vn -0.9846935 -5.505934e-05 -0.1742951
vn -0.01638561 -0.9998651 0.001115298
vn -0.03410522 -0.9675878 0.2502212
vn -0.06494428 -0.9596462 0.2736082
vn 0.006275914 -0.9925862 -0.1213803
vn 0.05224859 -0.9705107 -0.2353273
vn 0.0558118 -0.9037834 -0.4243353
vn 0.3022816 -0.4433808 -0.8438243
vn 0.3537501 -0.497855 -0.7918341
vn 0.3915206 -0.3275716 -0.8598887
vn 0.374525 -0.9243197 0.07323909
vn 0.3141414 -0.9425815 0.113381
vn 0.1718004 -0.9829711 -0.06520927
vn 0.9648931 -0.1950515 0.1758872
vn 0.8021252 -0.561244 0.2039615
vn 0.8786209 -0.4612094 0.1237384
vn 0.5912765 -0.80615 0.02267659
vn 0.9349557 -0.158498 -0.3173896
vn 0.7519543 -0.2994869 -0.5872585
vn 0.7558931 -0.1689679 -0.6325153
vn 0.3859516 -0.2352926 -0.8920083
vn 0.9089462 -0.06942411 -0.4110927
vn 0.4768857 -0.1141886 -0.8715165
vn 0.9982227 -0.04773469 -0.03567779
vn 0.9341246 -0.2290628 -0.2737545
vn 0.9933025 -0.1151741 0.009231925
vn 0.8820367 -0.3799115 -0.2787087
vn 0.8574796 -0.4544287 -0.2412948
vn 0.9881292 -0.1431905 0.05565307
vn 0.8471524 -0.5145956 -0.1323793
vn 0.9716611 -0.2209924 0.0838874
vn 0.8231826 -0.567697 -0.009506081
vn 0.7204029 -0.4246708 -0.5483379
vn 0.4387102 -0.6105961 -0.6593223
vn 0.4294893 -0.6860951 -0.5872074
vn 0.4284173 -0.7598329 -0.4889913
vn 0.4137082 -0.8028268 -0.4293188
vn 0.3862392 -0.8621982 -0.3277705
vn 0.3847231 -0.8880056 -0.2518613
vn 0.3446105 -0.9257697 -0.1555445
vn 0.3916575 -0.009119458 -0.9200659
vn 0.7781506 -0.004421074 -0.6280622
vn 0.9760579 -0.00282592 -0.2174924
vn 0.997244 -0.001326955 0.07417944
vn 0.9120724 -0.124484 0.3906759
vn 0.9653344 -0.02975232 0.259315
vn 0.82955 -0.132394 0.5425114
vn 0.6249856 -0.3326288 0.7062231
vn 0.5855187 -0.278192 0.761431
vn 0.1453279 -0.4656637 0.8729474
vn 0.5583561 -0.1813319 0.8095413
vn 0.2344445 -0.3366638 0.9119722
vn 0.0813471 -0.2465442 0.9657115
vn -0.05282974 -0.375541 0.9252989
vn -0.9575877 0.002307015 0.2881329
vn -0.9465405 -0.04467034 0.319477
vn -0.4114029 -0.2128495 0.886252
vn -0.8157398 -0.1540439 0.5575293
vn 5.277294e-05 1 -7.8923e-06
vn 6.468449e-05 1 -5.34591e-06
vn -0.001886382 0.9999928 -0.003275765
vn -4.650201e-06 1 -5.583665e-06
vn -3.308287e-05 1 -0.000204236
vn -7.644081e-08 1 -2.402212e-06
vn -4.384739e-05 0.9999999 -0.0003212799
vn 0.3254797 0.8866216 -0.3285806
vn -0.0002471594 0.9999998 0.0004959622
vn -0.001169483 0.9999992 -0.0003228999
vn -0.0009340216 0.9999971 -0.002224635
vn -0.03629132 0.9993373 -0.002816024
vn -0.0008284982 0.9999911 -0.004143883
vn 0.000191077 0.9999999 -0.0004788796
vn 1.65124e-05 1 -1.594109e-05
vn 0.00105101 0.9999995 -4.591824e-05
vn -9.715271e-07 1 1.129275e-06
vn -2.312589e-07 1 8.726002e-07
vn 7.445484e-07 1 -7.031049e-07
vn -6.452823e-07 1 6.864242e-07
vn 0.003900363 -0.9991553 -0.04090907
vn -0.008437156 -0.9985892 -0.0524245
vn -0.001786828 -0.9999968 -0.001778445
vn 0.08032696 -0.9588741 -0.2722277
vn 0.01270128 -0.996218 -0.08595575
vn -0.0006909569 -0.9999998 -0.0001115851
vn 0 -1 1.211458e-08
vn 0 -1 9.585214e-08
vn 0 -1 -1.982774e-07
vn 0 -1 3.263256e-07
vn -0.1584934 -0.9829018 -0.09372278
vn -0.1989871 -0.9757997 -0.09065983
vn -0.0001914349 0.9999999 -0.0001976535
vn 8.982537e-07 1 -0.0001291319
vn 0.002441724 0.999997 -0.0001442658
vn 5.913484e-06 1 -3.651604e-06
vn -0.0001845768 1 -0.0001627946
vn -0.0003697819 0.9999998 -0.000296506
vn 0.001139852 0.9999993 -6.086153e-05
vn 0.00461952 0.9999893 -0.000266858
vn 0.1557489 -0.8678514 -0.4717799
vn 2.027521e-14 1 2.050624e-14
vn 5.626729e-11 1 8.192125e-10
vn 1.670538e-06 1 -1.825188e-06
vn -7.412459e-07 1 3.163575e-06
vn 1.98225e-14 1 1.859307e-14
vn 2.014379e-14 1 1.669554e-14
vn 2.02325e-14 1 1.964501e-14
vn 2.037337e-14 1 1.670891e-14
vn 2.030766e-14 1 1.66878e-14
vn 2.203471e-14 1 1.665809e-14
vn -4.046512e-09 1 -4.325919e-09
vn 1.839746e-14 1 2.628168e-14
vn 3.56534e-05 1 9.492445e-06
vn 2.484136e-05 1 8.061092e-05
vn 1.973942e-14 1 2.121902e-14
vn 5.732144e-06 1 8.932133e-06
vn -8.014723e-07 1 3.852856e-06
vn -2.598303e-06 1 2.433214e-05
vn -2.881347e-06 1 6.461689e-06
vn 5.114564e-08 1 -1.244288e-07
vn -1.918895e-09 1 -3.436198e-08
vn 1.831658e-14 1 1.939708e-14
vn 1.898095e-14 1 2.018e-14
vn -2.062614e-09 1 1.010078e-10
vn 2.004946e-14 1 1.740663e-14
vn -3.367086e-06 1 1.097441e-05
vn 2.017921e-14 1 1.873629e-14
vn -1.816505e-06 1 2.719675e-06
vn -3.557528e-07 1 1.311907e-05
vn -0.000116285 1 -0.0001263147
vn 2.181533e-09 1 2.221857e-09
vn 8.011452e-10 1 2.003581e-09
vn 7.386088e-10 1 1.028846e-09
vn 1.578897e-09 1 4.970229e-10
vn 1.928497e-14 1 1.826679e-14
vn 1.969312e-14 1 1.890696e-14
vn 1.846724e-14 1 1.882284e-14
vn 1.988176e-14 1 1.623355e-14
vn 0.0002484123 0.9999999 0.000181118
vn 2.863546e-14 1 0
vn 3.323623e-14 1 1.913404e-14
vn 2.24958e-14 1 1.815383e-14
vn 7.674748e-05 1 2.936941e-06
vn 6.045392e-05 1 1.431884e-05
vn -4.933325e-05 1 0.0001924032
vn -0.0001303363 0.9999998 0.0005632087
vn -0.7540942 0.001859751 -0.6567636
vn -0.7696092 -0.001887517 -0.6385124
vn -0.7763076 0.003968823 -0.6303418
vn -0.8832297 -0.0007091793 -0.4689403
vn -0.9083088 -0.01514416 -0.4180261
vn -0.9668829 -0.01757907 -0.2546143
vn 0.989108 0.03186883 -0.1436999
vn 0.9848311 0.00738996 0.1733579
vn 0.9923868 0.006992036 0.1229616
vn 0.9525015 -0.02607191 0.3034156
vn 0.9179651 -0.03121391 -0.395431
vn 0.8069009 -0.002575929 -0.5906813
vn 0.5859991 0.003685396 -0.8103033
vn 0.5844277 0.006232243 -0.8114219
vn 0.6521683 0.001290454 -0.7580732
vn 0.659093 -0.01047916 -0.7519884
vn -0.09642972 0.0478789 -0.9941875
vn -0.172549 0.01708382 -0.9848528
vn -0.1237789 0.03688271 -0.9916241
vn -0.2047684 0.003867768 -0.9788028
vn 0.6041195 -0.05199696 -0.7951956
vn 0.9814018 0.009088832 -0.19175
vn 0.9977079 0.02300336 0.06363779
vn 0.9680808 -0.006754387 -0.2505475
vn 0.9984654 0.04008674 0.03820883
vn 0.7571676 0.008932604 -0.6531596
vn 0.4799271 -0.03781862 -0.8764929
vn 0.2846423 0.004659303 -0.9586225
vn 0.1589493 -0.004789525 -0.9872751
vn 0.1890328 0.004790096 -0.9819591
vn 0.06113069 -0.004659687 -0.9981189
vn -0.1504714 0.03781794 -0.9878908
vn -0.4874642 -0.008932592 -0.8730973
vn -0.8316714 0.01713949 -0.5550035
vn -0.8562505 -0.00908957 -0.5164808
vn -0.9651048 -0.008679744 -0.2617201
vn -0.9645166 -0.01015323 -0.2638271
vn -0.217 -0.00477352 -0.9761599
vn -0.297271 0.01122293 -0.9547272
vn -0.2854695 0.008849353 -0.958347
vn -0.2048146 -0.007172176 -0.9787745
vn 0.4147547 0.7060667 -0.573976
vn 0.4342881 0.6266523 -0.6470709
vn 0.3180172 0.5269516 -0.7881542
vn 0.3340919 0.3983712 -0.8542148
vn 0.3364542 0.2657822 -0.9034149
vn 0.4730139 0.1178176 -0.873142
vn 0.06187443 -0.2122459 0.9752555
vn -0.861532 0.3394857 -0.3775075
vn 0.7614673 0.2261758 -0.6074636
vn 0.7543671 0.3137364 -0.5766279
vn 0.7448424 0.4149208 -0.5225424
vn 0.9004863 0.07263989 -0.428775
vn 0.8795042 0.3775059 -0.2897612
vn 0.8276283 0.4845917 -0.2832001
vn 0.9190992 0.3708912 -0.1330283
vn 0.9936156 0.07270904 -0.08626319
vn 0.9875293 0.1337355 -0.08307084
vn 0.9856867 0.1681934 0.01152833
vn 0.9899179 0.05813389 0.1291624
vn 0.5923117 -0.1479993 0.7919993
vn 0.5276545 0.02124933 0.8491933
vn 0.1819855 0.009846187 0.9832518
vn 0.4951633 0.00688763 0.8687727
vn 0.1653278 0.001238024 0.9862379
vn -0.7412107 0.002063347 0.6712693
vn -0.7970723 0.001146341 0.6038828
vn -0.7400154 0.001403756 0.6725884
vn -0.8019626 0.002027729 0.5973709
vn -0.9100863 0.0005754225 0.4144186
vn -0.910453 0 0.4136125
vn -0.9814824 0 0.1915522
vn -0.9814825 0 0.1915518
vn -0.9991044 0 -0.04231178
vn -0.9991044 0 -0.04231222
vn -0.961773 0 -0.2738477
vn -0.9617729 0 -0.2738481
vn -0.8715417 0 -0.4903213
vn -0.8709058 -0.0008199965 -0.4914493
vn -0.7507374 -0.002010083 -0.6605978
vn -0.4657342 0.01306471 0.8848282
vn -0.506359 0.0004571088 0.8623226
vn 0.6640903 -0.6974273 0.2694054
vn 0.8622727 -0.2356828 0.4482625
vn 0.9030769 -0.2175501 0.3703025
vn 0.9078602 -0.2752449 0.3162756
vn 0.8892636 -0.3662396 0.274005
vn 0.634205 -0.661828 0.3997095
vn 0.6123583 -0.5697749 0.5480637
vn 0.5840185 -0.4506073 0.6751856
vn 0.01896008 -0.8880412 0.4593728
vn 0.2248456 -0.9060285 0.3585483
vn 0.3192944 -0.7948354 0.5160307
vn 0.1212811 -0.77737 0.6172413
vn 0.2255398 -0.9534712 0.200061
vn 0.2492198 -0.9180337 0.308389
vn 0.1830054 -0.6655937 0.7235289
vn 0.1418576 -0.5521356 0.8215976
vn 0.9847592 0.0001716954 0.1739234
vn 0.984789 -0.0001073986 0.1737543
vn 0.9842607 -0.00398738 0.1766777
vn 0.9847202 -0.001509373 0.1741377
vn 0.9842699 -0.002846983 0.1766488
vn 0.9839107 -0.003121381 0.1786338
vn 0.98507 -0.001271946 0.17215
vn 0.9849367 -0.002110643 0.1729026
vn 0.9849776 -0.002294987 0.1726669
vn 0.9841629 -0.005883959 0.1771685
vn 0.9840471 -0.00454376 0.1778507
vn 0.9850671 -0.001255596 0.1721663
vn 0.9850414 -0.0004232662 0.1723177
vn 0.9848552 -0.0004225138 0.173378
vn 0.984798 -0.0015145 0.1736968
vn 0.9848055 -0.0002963511 0.1736607
vn 0.9848281 -0.0003315936 0.1735326
vn 0.9848316 -0.000326362 0.1735128
vn 0.9848148 -0.0004560042 0.1736075
vn 0.9847432 -5.139271e-07 0.1740137
vn 0.9847594 8.977675e-05 0.1739222
vn 0.9847516 0.0003456235 0.1739663
vn 0.9847663 0.0002990529 0.1738829
vn 0.9848447 0.000466856 0.1734375
vn 0.9849004 0.0006280483 0.173121
vn 0.9849406 0.0005461142 0.1728918
vn 0.9849359 0.0006953103 0.1729181
vn -0.9847651 2.378468e-05 -0.17389
vn -0.9847038 -4.575029e-06 -0.1742366
vn -0.9847472 -9.023631e-06 -0.1739914
vn -0.9847463 -1.434956e-05 -0.1739964
vn -0.9847402 -3.193628e-06 -0.1740308
vn -0.9847714 -7.057675e-06 -0.1738541
vn -0.9847417 -1.402224e-05 -0.174022
vn -0.9847139 -9.85238e-06 -0.1741795
vn -0.9847307 6.535087e-06 -0.1740851
vn -0.9847767 -1.288119e-05 -0.1738245
vn -0.9847406 1.334304e-05 -0.174029
vn -0.9847397 1.202369e-05 -0.1740339
vn -0.9847385 9.546354e-06 -0.1740408
vn -0.9847398 -1.907677e-05 -0.1740331
vn -0.9847424 1.132064e-06 -0.1740185
vn -0.9847435 -3.791086e-07 -0.1740125
vn -0.9847431 2.455825e-07 -0.1740149
vn -0.9847434 -8.608733e-08 -0.1740132
vn -0.9847435 0 -0.1740117
vn -0.984743 -3.517597e-07 -0.1740145
vn -0.9847437 3.696788e-07 -0.1740114
vn -0.9847348 -4.066653e-06 -0.1740613
vn -0.9847369 5.630064e-06 -0.1740497
vn -0.9847124 -9.062567e-05 -0.1741881
vn -0.9847432 -8.768343e-08 -0.174014
vn -0.9847434 -1.309651e-08 -0.1740129
vn 0.09227025 -0.804797 -0.5863343
vn 0.100264 -0.7468065 -0.6574398
vn 0.124329 -0.6090308 -0.7833415
vn 0.1344712 -0.6398112 -0.7566764
vn 0.1394454 -0.4535893 -0.8802339
vn 0.1474423 -0.470704 -0.8698843
vn 0.1547731 -0.2757379 -0.9486906
vn 0.1603647 -0.3023601 -0.9396071
vn 0.1678301 -0.1057635 -0.9801261
vn 0.1642294 -0.087773 -0.9825094
vn 0.1582605 0.08434413 -0.9837884
vn 0.1659978 0.1120779 -0.9797363
vn 0.1604456 0.2830584 -0.9455872
vn 0.1579399 0.4529036 -0.8774584
vn 0.1241014 0.4933279 -0.860945
vn 0.1453922 0.3356482 -0.9306994
vn 0.1012033 0.7596135 -0.6424526
vn 0.1227245 0.6651006 -0.7366002
vn 0.1475009 0.5905282 -0.7934229
vn 0.04082951 0.974241 -0.2217826
vn 0.09040397 0.8269413 -0.5549732
vn 0.03057298 0.954181 -0.2976642
vn -0.01575997 0.994 0.1082392
vn -0.01231034 0.9689119 0.2470993
vn -0.07844906 0.9108435 0.4052282
vn -0.1781352 -0.2668194 0.9471406
vn -0.167522 -0.3116927 0.9352989
vn -0.1704823 -0.1045563 0.9797978
vn -0.1777853 -0.09909368 0.9790674
vn -0.1814446 0.09095108 0.9791862
vn -0.1903105 0.09698424 0.9769217
vn -0.1684151 -0.4520593 0.8759444
vn -0.16033 -0.4971336 0.8527324
vn -0.1582153 -0.6176776 0.7703521
vn -0.157093 -0.6250497 0.7646142
vn -0.1345192 -0.753916 0.6430515
vn -0.1243047 -0.7431438 0.6574844
vn -0.118191 -0.8367943 0.5346085
vn -0.1117239 0.8031836 0.5851613
vn -0.1308119 0.7466972 0.6521745
vn -0.1316517 0.6420243 0.7552963
vn -0.1518071 0.6108698 0.777041
vn -0.1692525 0.451732 0.8759519
vn -0.1553189 0.4827638 0.8618672
vn -0.1676756 0.304464 0.9376495
vn -0.1770562 0.2731788 0.9455286
vn -0.1732863 0 -0.9848715
vn -0.1732802 0 -0.9848725
vn -0.4836844 0 -0.8752425
vn -0.4836791 0 -0.8752455
vn -0.7416676 0 -0.6707677
vn -0.7416637 0 -0.670772
vn -0.9192799 0 -0.3936045
vn -0.9192777 0 -0.3936097
vn -0.9972739 0 -0.07378867
vn -0.9972735 0 -0.07379418
vn -0.967198 0 0.254024
vn -0.9671993 0 0.2540188
vn -0.8323112 -7.469547e-08 0.5543087
vn -0.8323141 -2.18098e-08 0.5543043
vn -0.6072303 -5.288322e-08 0.7945258
vn -0.6072348 0 0.7945225
vn -0.3163469 0 0.9486436
vn -0.316352 0 0.948642
vn 0.00881755 0 0.9999611
vn 0.008812255 0 0.9999611
vn 0.3330268 0 0.9429173
vn 0.3330217 0 0.9429191
vn 0.6211472 0 0.783694
vn 0.6211429 0 0.7836973
vn 0.8419567 0 0.5395451
vn 0.8419538 0 0.5395497
vn 0.9715272 0 0.2369282
vn 0.9715258 0 0.2369336
vn 0.9958176 0 -0.09136419
vn 0.9958181 0 -0.09135868
vn 0.9121955 0 -0.4097551
vn 0.9121978 0 -0.40975
vn 0.7297232 0 -0.6837427
vn 0.7297271 0 -0.6837385
vn 0.4681739 0 -0.8836364
vn 0.4681793 0 -0.8836335
vn 0.1558907 0 -0.9877743
vn 0.1558968 0 -0.9877734
vn 0 1 -1.139013e-07
vn 0 1 -5.458704e-08
vn 0 1 4.224322e-08
vn 0 1 -1.087898e-07
vn 0 1 -5.12812e-08
vn 0 1 6.217752e-08
vn 0 1 4.52232e-08
vn 0 1 1.196266e-07
vn 0 1 8.260763e-08
vn 0 1 -2.690944e-07
vn 0 1 -2.242648e-07
vn 0 1 4.353627e-08
vn 0 1 0
vn 0 1 5.982729e-07
vn 0 1 5.195328e-07
vn 0 1 3.720291e-08
vn 0 1 7.412636e-08
vn 0.9847791 0.0007891472 0.1738086
vn 0.9847433 6.182224e-08 0.1740133
vn 0.9847434 0 0.1740129
vn 0.9847433 1.177476e-07 0.1740132
vn 0.9847434 4.421442e-07 0.174013
vn 0.9847433 5.436535e-09 0.1740132
vn 0.9847434 -2.284009e-08 0.1740133
vn 0.9847433 1.485619e-07 0.1740135
vn 0.9847433 1.722311e-07 0.1740132
vn 0.9847434 2.045743e-07 0.1740132
vn 0.9847433 1.306126e-07 0.1740134
vn 0.9847432 -1.956049e-07 0.1740136
vn 0.9847433 1.803608e-07 0.1740134
vn 0.9847208 -0.0006151752 0.1741396
vn 0.9847433 4.588622e-07 0.1740132
vn 0.9847434 -1.248204e-07 0.1740132
vn 0.9847432 0 0.1740134
vn 0.9847432 0 0.1740136
vn 0.9847433 0 0.1740135
vn 0.9847433 3.173297e-08 0.1740133
vn 0.9847433 -1.807725e-07 0.1740134
vn 0.9847434 6.805157e-07 0.1740132
vn 0.9847433 -2.207414e-07 0.1740135
vn 0.9847432 -2.798512e-07 0.1740133
vn 0.9847434 -2.637113e-07 0.174013
vn 0.9847433 6.083884e-07 0.1740134
vn 0.9847434 -8.881299e-07 0.1740132
vn 0.9847432 3.652016e-07 0.1740133
vn 0.9847432 -5.524079e-07 0.1740133
vn 0.9847433 1.28756e-07 0.1740134
vn 0.9847433 1.210665e-07 0.1740135
vn 0.9847432 1.914816e-07 0.1740133
vn 0.9847434 0 0.1740133
vn 0.9847434 0 0.1740132
vn 0.9847434 -1.154012e-07 0.1740131
vn 0.9847432 1.31311e-07 0.1740134
vn 0.9847433 -4.264563e-07 0.1740132
vn 0.9847433 -5.094522e-08 0.1740136
vn 0.9847433 2.726506e-07 0.1740132
vn 0.9847432 -2.736934e-09 0.1740135
vn 0.9847434 -2.912565e-07 0.1740131
vn 0.9847433 2.713688e-08 0.1740133
vn 0.9847715 -0.0002983203 0.1738532
vn 0.9847845 0.0004282646 0.1737791
vn 0.9847919 0.0001580825 0.1737381
vn 0.984742 0.0001116469 0.1740207
vn 0.1782433 0.2442544 -0.953189
vn 0.1702903 -0.0706623 -0.9828571
vn 0.3511918 0.0695098 -0.9337198
vn 0.1686846 0.2453554 -0.9546446
vn 0.1554928 0.4487976 -0.8800015
vn 0.1554931 0.4487986 -0.880001
vn 0.1333003 0.642785 -0.7543595
vn 0.1333008 0.6427853 -0.7543593
vn 0.1039139 0.8021211 -0.5880507
vn 0.103914 0.8021217 -0.5880498
vn 0.06892557 0.9182144 -0.3900404
vn 0.06892556 0.9182149 -0.3900392
vn 0.03021749 0.9848071 -0.1710027
vn 0.03021738 0.9848072 -0.1710021
vn -0.01011814 0.9983084 0.05725381
vn -0.01011847 0.9983082 0.05725581
vn -0.04990727 0.9579911 0.2824223
vn -0.04990756 0.9579905 0.2824243
vn -0.08700401 0.8660282 0.4923671
vn -0.08700421 0.8660277 0.4923681
vn -0.1194135 0.7273746 0.6757712
vn -0.1194138 0.7273738 0.6757718
vn -0.1453874 0.5495116 0.8227391
vn -0.1453877 0.5495104 0.8227397
vn -0.1638345 0.3370759 0.9271128
vn -0.162351 0.3369676 0.9274131
vn -0.1201149 0.0929789 0.9883963
vn -0.1163188 0.0952323 0.9886358
vn -0.1702007 -0.1335619 0.976316
vn -0.172451 -0.1338209 0.9758856
vn -0.1635148 -0.3420176 0.9253578
vn -0.1635144 -0.3420189 0.9253573
vn -0.1453811 -0.5495048 0.8227447
vn -0.1453811 -0.5495062 0.8227437
vn -0.1194163 -0.7273721 0.6757734
vn -0.1194165 -0.7273727 0.6757727
vn -0.0870102 -0.8660218 0.4923773
vn -0.08701011 -0.8660222 0.4923766
vn -0.04990875 -0.9579882 0.2824317
vn -0.04990854 -0.9579886 0.2824306
vn -0.01011854 -0.9983081 0.05726039
vn -0.01011829 -0.9983081 0.05725892
vn 0.03021619 -0.9848083 -0.1709957
vn 0.03021633 -0.9848082 -0.1709964
vn 0.0689206 -0.9182173 -0.3900346
vn 0.06892096 -0.9182169 -0.3900353
vn 0.1039142 -0.8021259 -0.5880442
vn 0.1039144 -0.8021257 -0.5880443
vn 0.1332921 -0.6427909 -0.7543561
vn 0.133293 -0.6427894 -0.7543572
vn 0.1555088 -0.448801 -0.879997
vn 0.1555093 -0.4487996 -0.8799976
vn 0.1694387 -0.2277144 -0.9588726
vn 0.1675511 -0.2278721 -0.9591668
vn -0.1882711 -0.3569773 0.9149432
vn -0.1373178 -0.6142079 0.7771052
vn -0.1373185 -0.6142078 0.7771052
vn -0.09517578 -0.8371674 0.5386021
vn -0.09517576 -0.8371676 0.5386018
vn -0.04271858 -0.9693992 0.2417444
vn -0.04271865 -0.9693991 0.2417448
vn 0.01436913 -0.9965848 -0.08131541
vn 0.01436918 -0.9965848 -0.08131519
vn 0.06990083 -0.9157745 -0.3955643
vn 0.06990097 -0.9157743 -0.3955644
vn 0.1178558 -0.735727 -0.6669452
vn 0.1178559 -0.7357271 -0.666945
vn 0.1530444 -0.4759504 -0.8660535
vn 0.1468727 -0.4752323 -0.8675152
vn 0.08384132 -0.2678812 -0.959797
vn 0.1880534 -0.1019475 -0.9768534
vn 0.1945402 -0.03130995 -0.9803947
vn 0.1723464 0.183701 -0.9677554
vn -0.1620777 -0.364015 0.9171825
vn -0.2793187 -0.164293 0.9460385
vn -0.1990055 0.03373513 0.9794176
vn -0.1596282 0.0120972 0.9871031
vn -0.1645852 0.3246976 0.9313877
vn -0.1645846 0.3247066 0.9313847
vn -0.1373206 0.6142111 0.7771022
vn -0.137319 0.6142187 0.7770965
vn -0.09517612 0.8371662 0.5386039
vn -0.09517448 0.8371705 0.5385976
vn -0.04271775 0.9694 0.2417409
vn -0.04271613 0.9694022 0.2417329
vn 0.0143696 0.9965847 -0.08131842
vn 0.0143711 0.9965838 -0.08132748
vn 0.06989985 0.9157736 -0.3955663
vn 0.0699015 0.9157706 -0.3955729
vn 0.1178562 0.7357237 -0.6669487
vn 0.1178572 0.7357194 -0.6669533
vn 0.1530397 0.4759475 -0.8660559
vn 0.1530402 0.4759407 -0.8660595
vn 0.1716698 0.1826097 -0.9680822
vn 0.1760815 -0.1391888 -0.9744854
vn 0.172467 -0.2358299 -0.9563678
vn 0.1571749 -0.4724732 -0.8672168
vn 0.1536414 -0.4695072 -0.869458
vn 0.117856 -0.7357234 -0.666949
vn 0.1178547 -0.7357292 -0.666943
vn 0.06990068 -0.915773 -0.3955676
vn 0.06989916 -0.9157764 -0.3955599
vn 0.01437023 -0.9965844 -0.08132111
vn 0.01436855 -0.9965851 -0.08131175
vn -0.04271732 -0.9694006 0.241739
vn -0.04271916 -0.9693983 0.241748
vn -0.09517653 -0.8371671 0.5386025
vn -0.09517795 -0.8371623 0.5386099
vn -0.1373208 -0.6142133 0.7771004
vn -0.1373215 -0.6142065 0.7771056
vn -0.1620748 -0.3640163 0.9171827
vn -0.1493786 -0.3361139 0.9298997
vn 0.9847405 4.859094e-05 0.174029
vn 0.9847334 7.741993e-05 0.1740693
vn 0.9847373 6.429337e-07 0.174047
vn 0.9847121 0.0001419241 0.1741899
vn 0.9847453 1.603005e-05 0.1740017
vn 0.9847445 2.48176e-05 0.1740061
vn 0.9847434 3.224977e-05 0.1740131
vn 0.9847459 1.029291e-07 0.1739988
vn 0.9847459 4.646105e-06 0.1739991
vn 0.9847457 9.575761e-06 0.1739997
vn 0.9847451 -1.390721e-05 0.1740034
vn 0.9847455 -9.600365e-06 0.174001
vn 0.9847457 -4.874364e-06 0.1739994
vn 0.9847412 -3.581055e-05 0.1740253
vn 0.9847432 -2.638623e-05 0.1740138
vn 0.9847444 -1.985834e-05 0.1740072
vn 0.9846843 -0.0001156833 0.1743467
vn 0.9847264 -6.93527e-05 0.1741088
vn 0.9847371 -4.744462e-05 0.1740484
vn 0.9847433 -1.660312e-06 0.1740132
vn 0.9847433 -3.386706e-06 0.1740133
vn 0.9847433 -1.710988e-06 0.1740132
vn 0.9847432 -3.469579e-06 0.1740133
vn 0.9847433 1.770481e-06 0.1740135
vn 0.9847434 1.154009e-06 0.174013
vn 0.9847433 9.647163e-07 0.1740134
vn 0.9847433 -7.370652e-07 0.1740133
vn 0.9847433 -5.664851e-07 0.1740132
vn 0.9847435 0 0.1740119
vn 0.9847432 1.869228e-07 0.1740137
vn 0.9847435 2.991364e-06 0.174012
vn 0.9847433 1.432178e-06 0.1740133
vn 0.9847434 0 0.1740131
vn 0.9847434 -5.982715e-07 0.1740127
vn 0.9847433 1.148653e-06 0.1740134
vn 0.9847433 2.177364e-07 0.1740132
vn 0.9847432 2.372021e-07 0.1740138
vn 0.9847433 -2.439241e-07 0.1740132
vn 0.9847432 1.77048e-06 0.1740134
vn 0.9847433 1.145609e-06 0.1740133
vn 0.9847433 -9.382e-08 0.1740131
f 4//1 5//2 6//3
f 26//4 25//5 27//6
f 28//7 29//8 30//9
f 32//10 1//11 31//12
f 31//12 33//13 34//14
f 36//15 37//16 38//17
f 9//18 3//19 41//20
f 9//18 41//20 2//21
f 2//21 41//20 10//22
f 10//22 41//20 11//23
f 11//23 42//24 12//25
f 12//25 42//24 13//26
f 13//26 42//24 16//27
f 16//27 43//28 15//29
f 15//29 43//28 44//30
f 15//29 44//30 14//31
f 14//31 44//30 17//32
f 17//32 44//30 45//33
f 17//32 45//33 18//34
f 18//34 45//33 19//35
f 19//35 46//36 20//37
f 20//37 46//36 21//38
f 21//38 46//36 47//39
f 21//38 47//39 48//40
f 21//38 48//40 23//41
f 23//41 48//40 49//42
f 23//41 49//42 22//43
f 22//43 49//42 24//44
f 24//44 49//42 27//6
f 24//44 27//6 25//5
f 3//19 4//1 50//45
f 3//19 50//45 41//20
f 41//20 50//45 51//46
f 41//20 51//46 11//23
f 11//23 51//46 42//24
f 42//24 51//46 52//47
f 42//24 52//47 16//27
f 16//27 52//47 43//28
f 43//28 53//48 44//30
f 44//30 53//48 45//33
f 45//33 54//49 19//35
f 19//35 54//49 46//36
f 46//36 54//49 47//39
f 48//40 55//50 49//42
f 49//42 55//50 27//6
f 27//6 28//7 26//4
f 4//1 6//3 50//45
f 50//45 6//3 56//51
f 50//45 56//51 57//52
f 50//45 57//52 51//46
f 51//46 57//52 58//53
f 51//46 58//53 52//47
f 52//47 58//53 59//54
f 52//47 59//54 43//28
f 43//28 59//54 53//48
f 53//48 59//54 60//55
f 53//48 60//55 45//33
f 45//33 60//55 61//56
f 45//33 61//56 54//49
f 54//49 61//56 62//57
f 54//49 62//57 47//39
f 47//39 62//57 63//58
f 47//39 63//58 48//40
f 48//40 63//58 55//50
f 55//50 63//58 64//59
f 55//50 64//59 29//8
f 55//50 29//8 27//6
f 27//6 29//8 28//7
f 1//11 30//9 29//8
f 1//11 29//8 33//13
f 33//13 29//8 64//59
f 64//59 63//58 65//60
f 65//60 63//58 62//57
f 65//60 62//57 66//61
f 66//61 62//57 61//56
f 66//61 61//56 67//62
f 67//62 61//56 60//55
f 67//62 60//55 68//63
f 68//63 60//55 59//54
f 68//63 59//54 69//64
f 69//64 59//54 58//53
f 69//64 58//53 57//52
f 69//64 57//52 70//65
f 70//65 57//52 56//51
f 56//51 6//3 8//66
f 8//66 6//3 5//2
f 8//66 5//2 7//67
f 7//67 40//68 8//66
f 8//66 40//68 39//69
f 8//66 39//69 56//51
f 56//51 39//69 38//17
f 56//51 38//17 70//65
f 70//65 38//17 69//64
f 69//64 38//17 37//16
f 69//64 37//16 68//63
f 68//63 37//16 36//15
f 68//63 36//15 67//62
f 67//62 36//15 35//70
f 67//62 35//70 66//61
f 66//61 35//70 65//60
f 65//60 35//70 34//14
f 65//60 34//14 64//59
f 64//59 34//14 33//13
f 33//13 31//12 1//11
f 71//71 72//72 73//73
f 76//74 77//75 78//76
f 79//77 80//78 81//79
f 81//79 80//78 82//80
f 81//79 82//80 83//81
f 76//74 84//82 77//75
f 77//75 84//82 85//83
f 77//75 85//83 86//84
f 79//77 81//79 75//85
f 75//85 81//79 87//86
f 75//85 87//86 74//87
f 86//84 88//88 77//75
f 77//75 88//88 89//89
f 77//75 89//89 169//90
f 83//81 90//91 81//79
f 81//79 90//91 91//92
f 81//79 91//92 72//72
f 72//72 91//92 92//93
f 92//93 93//94 72//72
f 72//72 93//94 94//95
f 72//72 94//95 95//96
f 78//76 77//75 73//73
f 73//73 77//75 96//97
f 73//73 96//97 97//98
f 73//73 97//98 98//99
f 95//96 99//100 72//72
f 72//72 99//100 100//101
f 72//72 100//101 73//73
f 73//73 98//99 71//71
f 9//18 2//21 74//102
f 74//102 2//21 75//103
f 75//103 2//21 10//22
f 75//103 10//22 79//104
f 12//25 80//105 11//23
f 11//23 80//105 79//104
f 11//23 79//104 10//22
f 80//105 12//25 13//26
f 80//105 13//26 82//106
f 15//29 83//107 16//27
f 16//27 83//107 82//106
f 16//27 82//106 13//26
f 83//107 15//29 14//31
f 83//107 14//31 90//108
f 90//108 14//31 17//32
f 90//108 17//32 91//109
f 91//109 17//32 18//34
f 91//109 18//34 92//110
f 20//37 93//111 19//35
f 19//35 93//111 92//110
f 19//35 92//110 18//34
f 93//111 20//37 21//38
f 93//111 21//38 94//112
f 94//112 21//38 95//113
f 22//43 99//114 23//41
f 23//41 99//114 95//113
f 23//41 95//113 21//38
f 99//114 22//43 24//44
f 99//114 24//44 100//115
f 25//5 73//116 24//44
f 24//44 73//116 100//115
f 104//117 105//118 106//119
f 114//120 32//10 31//12
f 123//121 121//122 124//123
f 123//121 124//123 125//124
f 123//121 125//124 191//125
f 125//124 126//126 191//125
f 127//127 193//128 128//129
f 127//127 128//129 129//130
f 129//130 128//129 126//126
f 193//128 127//127 130//131
f 131//132 132//133 190//134
f 134//135 135//136 136//137
f 40//68 101//138 108//139
f 115//140 103//141 137//142
f 115//140 137//142 102//143
f 102//143 137//142 138//144
f 102//143 138//144 116//145
f 116//145 138//144 139//146
f 116//145 139//146 117//147
f 117//147 139//146 118//148
f 118//148 140//149 120//150
f 120//150 140//149 119//151
f 119//151 141//152 122//153
f 122//153 141//152 121//122
f 121//122 141//152 124//123
f 125//124 142//154 126//126
f 126//126 142//154 129//130
f 127//127 143//155 130//131
f 130//131 143//155 133//156
f 130//131 133//156 131//132
f 131//132 133//156 132//133
f 103//141 104//117 137//142
f 137//142 144//157 138//144
f 138//144 144//157 139//146
f 139//146 145//158 118//148
f 118//148 145//158 140//149
f 140//149 145//158 146//159
f 140//149 146//159 147//160
f 140//149 147//160 119//151
f 119//151 147//160 141//152
f 141//152 147//160 148//161
f 141//152 148//161 124//123
f 124//123 148//161 149//162
f 124//123 149//162 125//124
f 125//124 149//162 142//154
f 142//154 149//162 150//163
f 142//154 150//163 129//130
f 129//130 150//163 143//155
f 129//130 143//155 127//127
f 133//156 134//135 132//133
f 104//117 106//119 137//142
f 137//142 106//119 151//164
f 137//142 151//164 144//157
f 144//157 151//164 152//165
f 144//157 152//165 139//146
f 139//146 152//165 153//166
f 139//146 153//166 145//158
f 145//158 153//166 146//159
f 146//159 154//167 147//160
f 147//160 154//167 155//168
f 147//160 155//168 148//161
f 148//161 155//168 156//169
f 148//161 156//169 149//162
f 149//162 156//169 157//170
f 149//162 157//170 150//163
f 150//163 157//170 158//171
f 150//163 158//171 159//172
f 150//163 159//172 143//155
f 143//155 159//172 135//136
f 143//155 135//136 133//156
f 133//156 135//136 134//135
f 101//138 136//137 135//136
f 135//136 159//172 160//173
f 160//173 159//172 158//171
f 158//171 157//170 161//174
f 161//174 157//170 156//169
f 156//169 155//168 162//175
f 162//175 155//168 154//167
f 162//175 154//167 163//176
f 163//176 154//167 146//159
f 163//176 146//159 153//166
f 163//176 153//166 164//177
f 164//177 153//166 152//165
f 152//165 151//164 165//178
f 165//178 151//164 106//119
f 165//178 106//119 166//179
f 166//179 106//119 105//118
f 166//179 105//118 107//180
f 32//10 114//120 107//180
f 107//180 114//120 166//179
f 166//179 114//120 113//181
f 166//179 113//181 165//178
f 165//178 113//181 112//182
f 165//178 112//182 152//165
f 152//165 112//182 164//177
f 164//177 112//182 163//176
f 163//176 112//182 111//183
f 163//176 111//183 162//175
f 162//175 111//183 110//184
f 162//175 110//184 156//169
f 156//169 110//184 161//174
f 161//174 110//184 109//185
f 161//174 109//185 158//171
f 158//171 109//185 160//173
f 160//173 109//185 135//136
f 135//136 109//185 108//139
f 135//136 108//139 101//138
f 35//70 36//15 109//185
f 31//12 34//14 113//181
f 110//184 34//14 109//185
f 109//185 34//14 35//70
f 110//184 111//183 34//14
f 34//14 111//183 112//182
f 113//181 114//120 31//12
f 108//139 39//69 40//68
f 38//17 108//139 109//185
f 34//14 112//182 113//181
f 36//15 38//17 109//185
f 39//69 108//139 38//17
f 167//186 168//187 169//90
f 169//90 168//187 77//75
f 170//188 171//189 87//190
f 170//188 87//190 81//191
f 174//192 172//193 175//194
f 172//193 173//195 175//194
f 175//194 176//196 174//192
f 174//192 176//196 177//197
f 174//192 177//197 178//198
f 179//199 180//200 181//201
f 181//201 180//200 182//202
f 182//202 180//200 183//203
f 182//202 183//203 170//188
f 170//188 183//203 171//189
f 179//199 181//201 184//204
f 179//199 184//204 185//205
f 173//195 172//193 167//186
f 167//186 172//193 168//187
f 96//206 77//207 168//208
f 96//206 168//208 172//209
f 172//209 174//210 96//206
f 96//206 174//210 178//211
f 96//206 178//211 97//212
f 178//211 186//213 97//212
f 97//212 186//213 98//214
f 98//214 186//213 187//215
f 98//214 187//215 188//216
f 98//214 188//216 71//217
f 71//217 188//216 189//218
f 71//217 189//218 72//219
f 177//220 123//220 191//220
f 167//186 195//221 173//195
f 173//195 195//221 175//222
f 177//223 176//223 123//223
f 115//140 78//224 199//225
f 196//226 197//227 198//228
f 200//229 32//10 107//180
f 200//229 30//9 1//11
f 103//141 115//140 199//225
f 104//117 103//141 105//118
f 105//118 103//141 201//230
f 105//118 201//230 107//180
f 107//180 201//230 200//229
f 200//229 1//11 32//10
f 103//141 199//225 201//230
f 201//230 199//225 198//228
f 201//230 198//228 197//227
f 201//230 197//227 200//229
f 200//229 197//227 30//9
f 30//9 197//227 196//226
f 30//9 196//226 28//7
f 28//7 196//226 26//4
f 202//231 204//232 205//233
f 207//234 40//68 7//67
f 203//235 132//133 134//135
f 207//234 136//137 101//138
f 3//19 9//18 206//236
f 4//1 3//19 5//2
f 5//2 3//19 208//237
f 5//2 208//237 7//67
f 7//67 208//237 207//234
f 207//234 101//138 40//68
f 3//19 206//236 208//237
f 208//237 206//236 205//233
f 208//237 205//233 204//232
f 208//237 204//232 207//234
f 207//234 204//232 136//137
f 136//137 204//232 202//231
f 136//137 202//231 134//135
f 134//135 202//231 203//235
f 132//133 203//235 190//134
f 74//102 206//236 9//18
f 178//198 177//197 186//238
f 186//238 177//197 191//239
f 186//238 191//239 192//240
f 186//238 192//240 187//241
f 187//241 192//240 128//242
f 187//241 128//242 188//243
f 188//243 128//242 193//244
f 188//243 193//244 194//245
f 188//243 194//245 189//246
f 189//246 194//245 190//247
f 189//246 190//247 184//204
f 184//204 190//247 185//205
f 176//248 121//122 123//121
f 176//248 175//222 121//122
f 175//222 195//221 121//122
f 195//249 167//249 169//249
f 126//126 192//250 191//125
f 130//131 194//251 193//128
f 192//250 126//126 128//129
f 131//132 190//134 194//251
f 131//132 194//251 130//131
f 115//140 102//143 78//224
f 78//224 102//143 76//252
f 76//252 102//143 116//145
f 76//252 116//145 84//253
f 117//147 85//254 116//145
f 116//145 85//254 84//253
f 85//254 117//147 118//148
f 85//254 118//148 86//255
f 86//255 118//148 120//150
f 86//255 120//150 88//256
f 88//256 120//150 89//257
f 121//258 195//258 169//258
f 121//122 169//259 122//153
f 122//153 169//259 119//151
f 119//151 169//259 89//257
f 119//151 89//257 120//150
f 203//235 202//231 185//260
f 87//261 171//262 74//102
f 74//102 171//262 183//263
f 74//102 183//263 206//236
f 205//233 180//264 179//265
f 205//233 179//265 202//231
f 202//231 179//265 185//260
f 180//264 205//233 183//263
f 183//263 205//233 206//236
f 190//134 203//235 185//260
f 73//116 196//226 78//224
f 78//224 196//226 198//228
f 25//5 26//4 73//116
f 73//116 26//4 196//226
f 198//228 199//225 78//224
f 72//219 170//266 81//267
f 72//219 189//218 184//268
f 182//269 170//266 181//270
f 181//270 170//266 72//219
f 181//270 72//219 184//268
f 209//271 210//272 211//273
f 214//274 222//275 223//276
f 214//274 223//276 220//277
f 227//278 226//279 225//280
f 228//281 229//282 226//279
f 230//283 231//284 232//285
f 232//285 231//284 233//286
f 233//286 231//284 234//287
f 234//287 235//288 233//286
f 242//289 243//290 244//291
f 246//292 245//293 242//289
f 242//289 245//293 243//290
f 245//293 246//292 248//294
f 247//295 248//294 246//292
f 249//296 248//294 247//295
f 249//296 247//295 250//297
f 249//296 250//297 251//298
f 251//298 250//297 211//273
f 218//299 252//300 217//301
f 218//299 215//302 252//300
f 256//303 257//304 258//305
f 214//274 259//306 258//305
f 258//305 259//306 256//303
f 251//298 211//273 260//307
f 260//307 211//273 210//272
f 219//308 261//309 217//301
f 217//301 261//309 218//299
f 215//302 218//299 262//310
f 215//302 262//310 216//311
f 216//311 262//310 263//312
f 216//311 263//312 253//313
f 253//313 263//312 264//314
f 253//313 264//314 254//315
f 254//315 264//314 265//316
f 254//315 265//316 255//317
f 255//317 265//316 266//318
f 255//317 266//318 256//303
f 256//303 266//318 257//304
f 212//319 213//320 228//281
f 220//277 223//276 221//321
f 221//321 223//276 267//322
f 221//321 267//322 224//323
f 224//323 267//322 268//324
f 224//323 268//324 227//278
f 227//278 268//324 269//325
f 227//278 269//325 228//281
f 228//281 269//325 212//319
f 225//280 224//323 227//278
f 226//279 227//278 228//281
f 261//309 209//271 270//326
f 261//309 270//326 218//299
f 218//299 270//326 271//327
f 218//299 271//327 272//328
f 218//299 272//328 262//310
f 262//310 272//328 273//329
f 262//310 273//329 263//312
f 263//312 273//329 274//330
f 263//312 274//330 264//314
f 264//314 274//330 275//331
f 264//314 275//331 265//316
f 265//316 275//331 276//332
f 265//316 276//332 266//318
f 266//318 276//332 277//333
f 266//318 277//333 257//304
f 257//304 277//333 278//334
f 257//304 278//334 258//305
f 258//305 278//334 222//275
f 258//305 222//275 214//274
f 230//283 281//335 280//336
f 280//336 281//335 279//337
f 270//326 209//271 211//273
f 270//326 211//273 271//327
f 271//327 211//273 250//297
f 271//327 250//297 272//328
f 272//328 250//297 247//295
f 272//328 247//295 273//329
f 273//329 247//295 246//292
f 273//329 246//292 274//330
f 274//330 246//292 242//289
f 274//330 242//289 275//331
f 275//331 242//289 244//291
f 275//331 244//291 276//332
f 276//332 244//291 241//338
f 276//332 241//338 240//339
f 276//332 240//339 277//333
f 277//333 240//339 238//340
f 277//333 238//340 239//341
f 277//333 239//341 278//334
f 278//334 239//341 237//342
f 278//334 237//342 222//275
f 222//275 237//342 236//343
f 222//275 236//343 223//276
f 223//276 236//343 235//288
f 223//276 235//288 267//322
f 267//322 235//288 234//287
f 267//322 234//287 268//324
f 268//324 234//287 231//284
f 268//324 231//284 269//325
f 269//325 231//284 230//283
f 269//325 230//283 212//319
f 212//319 230//283 280//336
f 290//344 291//345 292//346
f 290//344 293//347 294//348
f 294//348 293//347 295//349
f 385//350 285//351 284//352
f 284//352 285//351 286//353
f 300//354 301//355 299//356
f 287//357 288//358 301//355
f 287//357 301//355 300//354
f 282//359 385//350 283//360
f 283//360 385//350 284//352
f 283//360 284//352 302//361
f 297//362 296//363 303//364
f 286//353 296//363 284//352
f 284//352 296//363 297//362
f 284//352 297//362 302//361
f 302//361 297//362 303//364
f 302//361 303//364 304//365
f 299//356 282//359 305//366
f 299//356 305//366 300//354
f 300//354 305//366 306//367
f 300//354 306//367 287//357
f 287//357 306//367 289//368
f 304//365 289//368 306//367
f 304//365 306//367 302//361
f 302//361 306//367 305//366
f 302//361 305//366 283//360
f 283//360 305//366 282//359
f 282//359 299//356 298//369
f 303//364 294//348 295//349
f 303//364 295//349 304//365
f 304//365 295//349 293//347
f 293//347 292//346 304//365
f 304//365 292//346 289//368
f 289//368 219//308 287//357
f 287//357 219//308 288//358
f 293//347 290//344 292//346
f 210//272 292//346 291//345
f 210//272 291//345 260//307
f 210//272 209//271 292//346
f 292//346 209//271 289//368
f 289//368 209//271 261//309
f 289//368 261//309 219//308
f 255//317 256//303 254//315
f 254//315 256//303 259//306
f 229//282 323//370 307//371
f 229//282 307//371 226//279
f 308//372 229//282 309//373
f 311//374 315//375 310//376
f 310//376 315//375 316//377
f 310//376 316//377 312//378
f 312//378 316//377 317//379
f 312//378 317//379 314//380
f 314//380 317//379 313//381
f 318//382 299//356 301//355
f 316//377 315//375 298//369
f 316//377 298//369 319//383
f 319//383 298//369 299//356
f 319//383 299//356 318//382
f 313//381 320//384 314//380
f 314//380 320//384 308//372
f 308//372 320//384 321//385
f 308//372 321//385 322//386
f 308//372 322//386 323//370
f 308//372 323//370 229//282
f 259//387 214//388 324//389
f 325//390 254//391 324//389
f 324//389 254//391 259//387
f 254//391 325//390 326//392
f 327//393 360//394 340//395
f 328//396 329//397 330//398
f 332//399 337//400 335//401
f 329//397 336//402 337//400
f 337//400 336//402 335//401
f 334//403 338//404 339//405
f 339//405 338//404 340//395
f 339//405 340//395 341//406
f 342//407 339//405 343//408
f 342//407 334//403 339//405
f 339//405 341//406 343//408
f 329//397 328//396 336//402
f 342//407 333//409 334//403
f 347//410 346//411 348//412
f 348//412 346//411 349//413
f 349//413 346//411 345//414
f 349//413 345//414 350//415
f 350//415 345//414 331//416
f 350//415 331//416 351//417
f 351//417 331//416 335//401
f 335//401 331//416 332//399
f 338//404 347//410 352//418
f 352//418 347//410 348//412
f 336//402 351//417 335//401
f 353//419 352//418 348//412
f 353//419 348//412 354//420
f 354//420 348//412 349//413
f 354//420 349//413 355//421
f 355//421 349//413 356//422
f 356//422 349//413 350//415
f 356//422 350//415 357//423
f 357//423 350//415 358//424
f 358//424 350//415 351//417
f 358//424 351//417 359//425
f 359//425 351//417 336//402
f 327//393 338//404 360//394
f 360//394 338//404 352//418
f 360//394 352//418 353//419
f 343//408 361//426 362//427
f 343//408 362//427 342//407
f 342//407 362//427 456//428
f 342//407 456//428 333//409
f 333//409 456//428 344//429
f 330//398 359//425 336//402
f 333//409 346//411 347//410
f 333//409 347//410 334//403
f 334//403 347//410 338//404
f 338//404 327//393 340//395
f 328//396 330//398 336//402
f 363//430 364//431 365//432
f 363//430 365//432 366//433
f 366//433 365//432 367//434
f 366//433 367//434 368//435
f 367//434 365//432 369//436
f 368//435 367//434 370//437
f 370//437 367//434 369//436
f 370//437 369//436 371//438
f 372//439 368//435 370//437
f 372//439 370//437 371//438
f 309//373 229//282 373//440
f 374//441 229//282 213//320
f 279//337 375//442 280//336
f 280//336 375//442 212//319
f 229//282 228//281 213//320
f 374//441 213//320 376//443
f 376//443 213//320 212//319
f 376//443 212//319 375//442
f 377//444 378//445 379//446
f 382//447 384//448 383//449
f 381//450 380//451 384//448
f 384//448 380//451 285//351
f 384//448 285//351 385//452
f 385//452 386//453 387//454
f 386//453 315//455 387//454
f 387//454 315//455 311//456
f 387//454 388//457 385//452
f 385//452 388//457 384//448
f 377//444 379//446 389//458
f 389//458 379//446 381//450
f 381//450 379//446 390//459
f 391//460 392//461 388//457
f 388//457 392//461 393//462
f 388//457 393//462 384//448
f 384//448 393//462 383//449
f 380//451 381//450 390//459
f 392//461 391//460 394//463
f 395//464 312//465 396//466
f 396//466 312//465 314//467
f 396//466 314//467 397//468
f 396//466 397//468 398//469
f 398//469 399//470 396//466
f 396//466 399//470 400//471
f 396//466 400//471 401//472
f 401//472 400//471 402//473
f 312//465 395//464 403//474
f 312//465 403//474 310//475
f 409//476 375//477 408//478
f 408//478 375//477 410//479
f 375//477 409//476 376//480
f 376//480 409//476 374//481
f 410//479 411//482 408//478
f 408//478 411//482 407//483
f 397//468 314//467 308//484
f 412//485 413//486 414//487
f 414//487 413//486 415//488
f 414//487 416//489 412//485
f 412//485 416//489 417//490
f 412//485 417//490 418//491
f 418//491 417//490 419//492
f 418//491 419//492 420//493
f 449//494 421//495 422//496
f 415//488 423//497 424//498
f 419//492 425//499 420//493
f 420//493 425//499 426//500
f 420//493 426//500 427//501
f 427//501 426//500 309//502
f 427//501 309//502 428//503
f 422//496 421//495 429//504
f 429//504 421//495 430//505
f 431//506 432//507 433//508
f 433//508 432//507 434//509
f 433//508 434//509 435//510
f 434//509 436//511 435//510
f 435//510 436//511 437//512
f 435//510 437//512 309//502
f 309//502 437//512 438//513
f 309//502 438//513 428//503
f 415//488 424//498 439//514
f 413//486 440//515 415//488
f 415//488 440//515 441//516
f 415//488 441//516 442//517
f 415//488 442//517 443//518
f 443//518 442//517 444//519
f 445//520 446//521 447//522
f 447//522 446//521 444//519
f 444//519 446//521 443//518
f 415//488 439//514 414//487
f 414//487 439//514 448//523
f 450//524 449//494 422//496
f 445//520 451//525 446//521
f 446//521 451//525 431//506
f 446//521 431//506 452//526
f 452//526 431//506 433//508
f 452//526 433//508 421//495
f 421//495 433//508 430//505
f 453//527 454//528 423//497
f 423//497 454//528 424//498
f 309//502 373//529 435//510
f 435//510 373//529 455//530
f 396//531 439//532 395//533
f 395//533 439//532 403//534
f 403//534 439//532 424//535
f 403//534 424//535 310//376
f 310//376 424//535 454//536
f 430//537 433//538 378//539
f 378//539 433//538 407//540
f 310//376 454//536 311//374
f 430//537 378//539 377//541
f 430//537 377//541 429//542
f 381//543 450//544 422//545
f 381//543 422//545 389//546
f 389//546 422//545 429//542
f 389//546 429//542 377//541
f 453//547 387//548 454//549
f 454//549 387//548 311//550
f 387//551 453//551 388//551
f 391//552 388//553 423//554
f 423//554 388//553 453//555
f 391//552 423//554 394//556
f 394//556 423//554 415//557
f 394//556 415//557 392//558
f 392//558 415//557 443//559
f 392//558 443//559 393//560
f 393//560 443//559 446//561
f 393//560 446//561 383//562
f 383//562 446//561 452//563
f 383//562 452//563 382//564
f 382//564 452//563 421//565
f 384//566 382//564 449//567
f 449//567 382//564 421//565
f 384//568 449//569 450//570
f 384//568 450//570 381//571
f 285//351 380//451 286//353
f 286//353 380//451 457//572
f 286//353 457//572 296//363
f 296//363 457//572 458//573
f 296//363 458//573 459//574
f 296//363 459//574 303//364
f 303//364 459//574 294//348
f 294//348 459//574 460//575
f 294//348 460//575 290//344
f 290//344 460//575 461//576
f 290//344 461//576 291//345
f 291//345 461//576 462//577
f 291//345 462//577 260//307
f 260//307 462//577 361//426
f 279//337 371//438 375//442
f 371//438 410//578 375//442
f 282//359 298//369 315//375
f 315//375 386//579 282//359
f 282//359 386//579 385//350
f 463//580 462//577 461//576
f 463//580 461//576 464//581
f 464//581 461//576 460//575
f 464//581 460//575 465//582
f 465//582 460//575 459//574
f 465//582 459//574 458//573
f 362//427 361//426 462//577
f 466//583 362//427 462//577
f 466//583 462//577 463//580
f 467//584 465//582 458//573
f 467//584 458//573 468//585
f 468//585 458//573 457//572
f 468//585 457//572 390//586
f 390//586 457//572 380//451
f 456//428 362//427 466//583
f 405//587 466//583 463//580
f 405//587 463//580 406//588
f 406//588 463//580 464//581
f 406//588 464//581 465//582
f 406//588 465//582 467//584
f 404//589 467//584 468//585
f 404//589 468//585 390//586
f 344//429 456//428 405//587
f 405//587 456//428 466//583
f 404//589 406//588 467//584
f 379//590 404//589 390//586
f 410//578 371//438 369//436
f 410//578 369//436 411//591
f 411//591 369//436 365//432
f 411//591 365//432 407//540
f 407//540 365//432 364//431
f 433//592 435//593 407//594
f 407//594 435//593 408//595
f 309//596 397//597 308//598
f 309//596 426//599 397//597
f 397//597 426//599 425//600
f 397//597 425//600 398//601
f 398//601 425//600 419//602
f 398//601 419//602 399//603
f 399//603 419//602 417//604
f 399//603 417//604 400//605
f 400//605 417//604 416//606
f 400//605 416//606 402//607
f 402//607 416//606 414//608
f 402//607 414//608 401//609
f 401//609 414//608 448//610
f 401//609 448//610 396//531
f 396//531 448//610 439//532
f 409//611 408//595 435//593
f 409//611 435//593 455//612
f 373//440 229//282 374//441
f 373//440 374//441 409//611
f 373//440 409//611 455//612
f 329//397 337//400 469//613
f 474//614 473//615 363//430
f 470//616 471//617 332//399
f 332//399 471//617 337//400
f 469//613 337//400 471//617
f 469//613 471//617 475//618
f 475//618 471//617 470//616
f 475//618 470//616 476//619
f 476//619 470//616 473//615
f 476//619 473//615 477//620
f 477//620 473//615 474//614
f 477//620 474//614 366//433
f 366//433 474//614 363//430
f 481//621 480//622 482//623
f 481//621 482//623 483//624
f 478//625 329//397 469//613
f 478//625 469//613 479//626
f 479//626 469//613 480//622
f 480//622 469//613 475//618
f 480//622 475//618 482//623
f 482//623 475//618 476//619
f 482//623 476//619 483//624
f 483//624 476//619 484//627
f 484//627 476//619 477//620
f 484//627 477//620 472//628
f 472//628 477//620 368//435
f 368//435 477//620 366//433
f 485//629 486//630 364//431
f 470//616 332//399 487//631
f 487//631 332//399 488//632
f 485//629 364//431 489//633
f 364//431 363//430 489//633
f 489//633 363//430 490//634
f 345//414 491//635 492//636
f 493//637 331//416 492//636
f 492//636 331//416 345//414
f 470//616 487//631 494//638
f 473//615 470//616 495//639
f 495//639 470//616 494//638
f 363//430 473//615 490//634
f 490//634 473//615 495//639
f 496//640 333//409 497//641
f 497//641 333//409 498//642
f 498//642 333//409 344//429
f 345//414 346//411 491//635
f 491//635 346//411 496//640
f 496//640 346//411 333//409
f 488//632 332//399 499//643
f 499//643 332//399 493//637
f 493//637 332//399 331//416
f 372//439 371//438 279//337
f 372//439 279//337 281//335
f 372//439 281//335 368//435
f 368//435 281//335 230//283
f 260//307 361//426 343//408
f 248//294 353//419 245//293
f 245//293 353//419 354//420
f 245//293 354//420 355//421
f 245//293 355//421 243//290
f 243//290 355//421 356//422
f 243//290 356//422 357//423
f 243//290 357//423 244//291
f 244//291 357//423 358//424
f 244//291 358//424 241//338
f 241//338 358//424 359//425
f 330//398 240//339 359//425
f 359//425 240//339 241//338
f 240//339 330//398 238//340
f 238//340 330//398 329//397
f 238//340 329//397 239//341
f 341//406 251//298 343//408
f 343//408 251//298 260//307
f 340//395 251//298 341//406
f 360//394 249//296 340//395
f 340//395 249//296 251//298
f 353//419 248//294 360//394
f 360//394 248//294 249//296
f 239//341 329//397 478//625
f 239//341 478//625 237//342
f 237//342 478//625 479//626
f 237//342 479//626 236//343
f 236//343 479//626 480//622
f 236//343 480//622 481//621
f 481//621 235//288 236//343
f 484//627 233//286 483//624
f 483//624 233//286 481//621
f 481//621 233//286 235//288
f 472//628 368//435 230//283
f 230//283 232//285 472//628
f 472//628 232//285 484//627
f 484//627 232//285 233//286
f 378//539 407//540 500//644
f 364//431 486//630 407//540
f 407//540 486//630 501//645
f 407//540 501//645 502//646
f 407//540 502//646 503//647
f 407//540 503//647 500//644
f 500//644 504//648 378//539
f 378//539 504//648 505//649
f 378//539 505//649 379//590
f 379//590 505//649 506//650
f 379//590 506//650 507//651
f 379//590 507//651 508//652
f 379//590 508//652 404//589
f 404//589 508//652 509//653
f 404//589 509//653 406//588
f 406//588 509//653 510//654
f 406//588 510//654 511//655
f 498//642 344//429 511//655
f 511//655 344//429 405//587
f 511//655 405//587 406//588
f 512//656 513//657 514//658
f 514//658 513//657 515//659
f 516//660 325//661 324//662
f 513//657 517//663 324//662
f 324//662 517//663 516//660
f 518//664 326//665 516//660
f 516//660 326//665 325//661
f 518//664 519//666 326//665
f 326//665 519//666 520//667
f 326//665 520//667 521//668
f 513//657 324//662 522//669
f 513//657 522//669 515//659
f 523//670 524//671 514//658
f 514//658 524//671 525//672
f 514//658 525//672 526//673
f 527//674 528//675 529//676
f 529//676 528//675 530//677
f 521//668 531//678 326//665
f 326//665 531//678 530//677
f 326//665 530//677 532//679
f 532//679 530//677 528//675
f 526//673 533//680 514//658
f 514//658 533//680 534//681
f 514//658 534//681 512//656
f 254//391 326//392 253//682
f 253//682 326//392 532//683
f 528//684 216//685 532//683
f 532//683 216//685 253//682
f 527//686 215//687 528//684
f 528//684 215//687 216//685
f 529//688 252//689 527//686
f 527//686 252//689 215//687
f 252//689 529//688 217//690
f 217//690 529//688 530//691
f 217//690 530//691 531//692
f 217//690 531//692 219//693
f 521//694 219//693 531//692
f 520//695 301//696 521//694
f 521//694 301//696 288//697
f 521//694 288//697 219//693
f 518//698 318//699 519//700
f 519//700 318//699 520//695
f 520//695 318//699 301//696
f 316//701 319//702 516//703
f 516//703 319//702 518//698
f 518//698 319//702 318//699
f 516//703 517//704 316//701
f 316//701 517//704 317//705
f 517//704 513//706 317//705
f 523//707 226//708 307//709
f 523//707 307//709 524//710
f 524//710 307//709 323//711
f 524//710 323//711 525//712
f 226//708 523//707 514//713
f 226//708 514//713 225//714
f 225//714 514//713 515//715
f 225//714 515//715 224//716
f 522//717 221//718 515//715
f 515//715 221//718 224//716
f 522//717 220//719 221//718
f 522//717 324//389 220//719
f 220//719 324//389 214//388
f 317//705 513//706 313//720
f 313//720 513//706 512//721
f 313//720 512//721 320//722
f 320//722 512//721 534//723
f 533//724 321//725 534//723
f 534//723 321//725 320//722
f 321//725 533//724 322//726
f 322//726 533//724 526//727
f 525//712 323//711 526//727
f 526//727 323//711 322//726
f 535//728 437//729 536//730
f 536//730 437//729 436//731
f 536//730 436//731 537//732
f 537//732 436//731 434//733
f 537//732 434//733 538//734
f 538//734 434//733 432//735
f 538//734 432//735 539//736
f 539//736 432//735 431//737
f 539//736 431//737 540//738
f 540//738 431//737 451//739
f 540//738 451//739 541//740
f 541//740 451//739 445//741
f 541//740 445//741 542//742
f 542//742 445//741 447//743
f 542//742 447//743 543//744
f 543//744 447//743 444//745
f 543//744 444//745 544//746
f 544//746 444//745 442//747
f 544//746 442//747 545//748
f 545//748 442//747 441//749
f 545//748 441//749 546//750
f 546//750 441//749 440//751
f 546//750 440//751 547//752
f 547//752 440//751 413//753
f 547//752 413//753 548//754
f 548//754 413//753 412//755
f 548//754 412//755 549//756
f 549//756 412//755 418//757
f 549//756 418//757 550//758
f 550//758 418//757 420//759
f 550//758 420//759 551//760
f 551//760 420//759 427//761
f 551//760 427//761 552//762
f 552//762 427//761 428//763
f 552//762 428//763 553//764
f 553//764 428//763 438//765
f 553//764 438//765 535//728
f 535//728 438//765 437//729
f 535//766 536//767 541//768
f 551//769 552//770 541//768
f 541//768 552//770 553//771
f 541//768 553//771 535//766
f 548//772 549//773 541//768
f 541//768 549//773 550//774
f 541//768 550//774 551//769
f 545//775 546//776 541//768
f 541//768 546//776 547//777
f 541//768 547//777 548//772
f 542//778 543//779 541//768
f 541//768 543//779 544//780
f 541//768 544//780 545//775
f 539//778 540//778 541//768
f 536//767 537//781 541//768
f 541//768 537//781 538//782
f 541//768 538//782 539//778
f 554//783 555//784 556//785
f 556//785 555//784 557//786
f 556//785 557//786 558//787
f 558//787 557//786 559//788
f 558//787 559//788 560//789
f 561//790 562//791 563//792
f 563//792 562//791 564//793
f 563//792 564//793 565//794
f 565//794 564//793 566//795
f 565//794 566//795 567//796
f 568//797 569//798 570//799
f 570//799 569//798 571//800
f 570//799 571//800 561//790
f 561//790 571//800 572//801
f 561//790 572//801 562//791
f 573//802 574//803 575//804
f 575//804 574//803 576//805
f 575//804 576//805 568//797
f 568//797 576//805 577//806
f 568//797 577//806 569//798
f 578//807 579//808 580//809
f 580//809 579//808 581//810
f 580//809 581//810 582//811
f 582//811 581//810 583//812
f 582//811 583//812 573//802
f 573//802 583//812 584//813
f 573//802 584//813 574//803
f 585//814 586//815 587//816
f 587//816 586//815 588//817
f 587//816 588//817 578//807
f 578//807 588//817 589//818
f 578//807 589//818 579//808
f 559//788 590//819 560//789
f 560//789 590//819 591//820
f 560//789 591//820 592//821
f 592//821 591//820 593//822
f 592//821 593//822 585//814
f 585//814 593//822 594//823
f 585//814 594//823 586//815
f 566//795 595//824 567//796
f 567//796 595//824 596//825
f 567//796 596//825 597//826
f 597//826 596//825 598//827
f 597//826 598//827 554//783
f 554//783 598//827 599//828
f 554//783 599//828 555//784
f 584//829 583//830 498//831
f 498//831 511//832 584//829
f 584//829 511//832 510//833
f 584//829 510//833 574//834
f 574//834 510//833 509//835
f 574//834 509//835 576//836
f 576//836 509//835 508//837
f 576//836 508//837 577//838
f 577//838 508//837 507//839
f 577//838 507//839 569//840
f 569//840 507//839 506//841
f 569//840 506//841 571//842
f 571//842 506//841 505//843
f 571//842 505//843 572//844
f 572//844 505//843 504//845
f 572//844 504//845 562//846
f 562//846 504//845 500//847
f 562//846 500//847 564//848
f 564//848 500//847 503//849
f 564//848 503//849 566//850
f 566//850 503//849 502//851
f 566//850 502//851 595//852
f 595//852 502//851 501//853
f 595//852 501//853 596//854
f 596//854 501//853 486//855
f 596//854 486//855 598//856
f 598//856 486//855 599//857
f 486//855 485//858 599//857
f 599//857 485//858 489//859
f 599//857 489//859 555//860
f 555//860 489//859 490//861
f 555//860 490//861 557//862
f 557//862 490//861 495//863
f 557//862 495//863 559//864
f 559//864 495//863 494//865
f 559//864 494//865 590//866
f 590//866 494//865 487//867
f 590//866 487//867 591//868
f 591//868 487//867 488//869
f 591//868 488//869 593//870
f 593//870 488//869 499//871
f 593//870 499//871 594//872
f 594//872 499//871 493//873
f 594//872 493//873 586//874
f 586//874 493//873 492//875
f 586//874 492//875 588//876
f 588//876 492//875 491//877
f 588//876 491//877 589//878
f 589//878 491//877 496//879
f 589//878 496//879 579//880
f 579//880 496//879 497//881
f 579//880 497//881 581//882
f 581//882 497//881 498//831
f 581//882 498//831 583//830
f 573//883 575//884 600//885
f 600//885 575//884 601//886
f 601//886 575//884 568//887
f 601//886 568//887 602//888
f 602//888 568//887 570//889
f 602//888 570//889 603//890
f 603//890 570//889 561//891
f 603//890 561//891 604//892
f 604//892 561//891 563//893
f 604//892 563//893 605//894
f 605//894 563//893 565//895
f 605//894 565//895 606//896
f 606//896 565//895 567//897
f 606//896 567//897 607//898
f 607//898 567//897 597//899
f 607//898 597//899 608//900
f 608//900 597//899 554//901
f 600//885 609//902 573//883
f 573//883 609//902 610//903
f 573//883 610//903 582//904
f 582//904 610//903 611//905
f 582//904 611//905 580//906
f 580//906 611//905 612//907
f 580//906 612//907 578//908
f 578//908 612//907 613//909
f 578//908 613//909 587//910
f 587//910 613//909 614//911
f 587//910 614//911 585//912
f 585//912 614//911 615//913
f 585//912 615//913 592//914
f 592//914 615//913 616//915
f 592//914 616//915 560//916
f 560//916 616//915 617//917
f 560//916 617//917 558//918
f 558//918 617//917 618//919
f 558//918 618//919 556//920
f 556//920 618//919 619//921
f 556//920 619//921 554//901
f 554//901 619//921 620//922
f 554//901 620//922 608//900
f 608//900 620//922 621//923
f 608//900 621//923 607//924
f 607//924 621//923 606//925
f 606//925 621//923 622//926
f 606//925 622//926 605//927
f 605//927 622//926 623//928
f 605//927 623//928 604//929
f 604//929 623//928 624//930
f 604//929 624//930 603//931
f 603//931 624//930 625//932
f 603//931 625//932 602//933
f 602//933 625//932 626//934
f 602//933 626//934 601//935
f 601//935 626//934 627//936
f 601//935 627//936 600//937
f 600//937 627//936 628//938
f 600//937 628//938 609//939
f 609//939 628//938 629//940
f 609//939 629//940 610//903
f 610//903 629//940 611//905
f 624//941 623//942 621//943
f 621//943 623//942 622//944
f 627//945 626//946 621//943
f 621//943 626//946 625//947
f 621//943 625//947 624//941
f 611//948 629//949 621//943
f 621//943 629//949 628//950
f 621//943 628//950 627//945
f 614//951 613//952 621//943
f 621//943 613//952 612//953
f 621//943 612//953 611//948
f 617//954 616//955 621//943
f 621//943 616//955 615//956
f 621//943 615//956 614//951
f 620//957 619//958 621//943
f 621//943 619//958 618//959
f 621//943 618//959 617//954
f 609//960 607//961 610//962
f 607//961 608//963 610//962
f 607//964 609//965 606//966
f 609//965 605//967 606//966
f 609//965 604//968 605//967
f 601//969 602//970 600//971
f 602//970 609//965 600//971
f 602//970 603//972 609//965
f 603//972 604//968 609//965
f 605//973 606//974 604//975
f 604//975 606//974 607//976
f 604//975 607//976 603//977
f 603//977 607//976 602//978
f 609//979 600//980 607//976
f 607//976 600//980 601//981
f 607//976 601//981 602//978
