# G1 exterior visual; derived from pinned Unitree/TWIST2 CAD.
v -0.0115 0.000500000024 0.00949999969
v -0.0115 0.0193000007 0.00949999969
v -0.0115 0.000500000024 -0.00949999969
v -0.0115 0.0193000007 -0.00949999969
v -0.0114230039 0.0204747356 0.00949999969
v -0.0114230039 0.0204747356 -0.00949999969
v -0.0111933323 0.0216293707 0.00949999969
v -0.0111933323 0.0216293707 -0.00949999969
v -0.0108149154 0.0227441508 0.00949999969
v -0.0108149154 0.0227441508 -0.00949999969
v -0.0102942288 0.0238000005 0.00949999969
v -0.0102942288 0.0238000005 -0.00949999969
v -0.00964018051 0.0247788522 0.00949999969
v -0.00964018051 0.0247788522 -0.00949999969
v -0.00886396132 0.0256639607 0.00949999969
v -0.00886396132 0.0256639607 -0.00949999969
v -0.00797885284 0.0264401808 0.00949999969
v -0.00797885284 0.0264401808 -0.00949999969
v -0.00700000022 0.0270942282 0.00949999969
v -0.00700000022 0.0270942282 -0.00949999969
v -0.00594415097 0.0276149157 0.00949999969
v -0.00594415097 0.0276149157 -0.00949999969
v -0.00482937135 0.0279933326 0.00949999969
v -0.00482937135 0.0279933326 -0.00949999969
v -0.00367473578 0.0282230042 0.00949999969
v -0.00367473578 0.0282230042 -0.00949999969
v -0.00249999994 0.0283000004 0.00949999969
v -0.00249999994 0.0283000004 -0.00949999969
v 0.00739289308 0.0283000004 -0.00949999969
v 0.00739289308 0.0283000004 0.00949999969
v 0.00774644641 0.0281535536 0.00949999969
v 0.00995355379 0.0259464458 0.00949999969
v 0.00774644641 0.0281535536 -0.00949999969
v 0.00995355379 0.0259464458 -0.00949999969
v 0.0100999996 0.0255928934 0.00949999969
v 0.0100999996 0.000500000024 0.00949999969
v 0.0100999996 0.0255928934 -0.00949999969
v 0.0100999996 0.000500000024 -0.00949999969
v -0.0109999999 2.5840047e-18 -0.00949999969
v 0.00960000046 6.12323421e-20 -0.00949999969
v 0.00960000046 6.12323421e-20 0.00949999969
v -0.0114924042 0.000413175905 -0.00949999969
v 0.0100045083 0.0258867852 -0.00949999969
v 0.0100455033 0.0258198883 -0.00949999969
v 0.0100755282 0.0257474016 -0.00949999969
v 0.0100698462 0.000328989932 -0.00949999969
v 0.0100330124 0.000250000012 -0.00949999969
v 0.00992139336 0.000116977775 -0.00949999969
v 0.00985000003 6.6987297e-05 -0.00949999969
v 0.00977100991 3.01536893e-05 -0.00949999969
v 0.00754740182 0.0282755289 -0.00949999969
v 0.00761988852 0.0282455031 -0.00949999969
v 0.00768678589 0.0282045081 -0.00949999969
v 0.0100938445 0.0256711096 -0.00949999969
v 0.0100924037 0.000413175905 -0.00949999969
v 0.00998302177 0.000178606191 -0.00949999969
v 0.00968682393 7.5961234e-06 -0.00949999969
v -0.0113213938 0.000116977775 -0.00949999969
v -0.0113830222 0.000178606191 -0.00949999969
v -0.0112500004 6.6987297e-05 -0.00949999969
v -0.0110868244 7.5961234e-06 -0.00949999969
v -0.0111710103 3.01536893e-05 -0.00949999969
v -0.0114330128 0.000250000012 -0.00949999969
v -0.0114698466 0.000328989932 -0.00949999969
v 0.00747111067 0.0282938443 -0.00949999969
v 0.0100755282 0.0257474016 0.00949999969
v 0.0100455033 0.0258198883 0.00949999969
v -0.0114924042 0.000413175905 0.00949999969
v -0.0114698466 0.000328989932 0.00949999969
v 0.0100938445 0.0256711096 0.00949999969
v 0.0100045083 0.0258867852 0.00949999969
v 0.00754740182 0.0282755289 0.00949999969
v 0.00747111067 0.0282938443 0.00949999969
v 0.0100330124 0.000250000012 0.00949999969
v 0.0100698462 0.000328989932 0.00949999969
v 0.00977100991 3.01536893e-05 0.00949999969
v 0.00985000003 6.6987297e-05 0.00949999969
v 0.00992139336 0.000116977775 0.00949999969
v 0.0100924037 0.000413175905 0.00949999969
v -0.0114330128 0.000250000012 0.00949999969
v -0.0113830222 0.000178606191 0.00949999969
v -0.0113213938 0.000116977775 0.00949999969
v -0.0112500004 6.6987297e-05 0.00949999969
v -0.0111710103 3.01536893e-05 0.00949999969
v -0.0110868244 7.5961234e-06 0.00949999969
v 0.00968682393 7.5961234e-06 0.00949999969
v 0.00768678589 0.0282045081 0.00949999969
v 0.00761988852 0.0282455031 0.00949999969
v 0.00998302177 0.000178606191 0.00949999969
v -0.0109999999 2.493665e-18 0.00949999969
vn -0.9990487 -0.04361049 0
vn -0.9994646 0.03271828 0
vn -0.9990483 -0.04361801 0
vn -0.9994646 0.03271887 0
vn -0.9914448 0.1305261 0
vn -0.9914448 0.1305266 0
vn -0.965926 0.2588184 0
vn -0.9659255 0.2588201 0
vn -0.9238802 0.3826819 0
vn -0.9238792 0.3826841 0
vn -0.8660258 0.4999993 0
vn -0.8660252 0.5000004 0
vn -0.7933536 0.6087612 0
vn -0.7933531 0.6087617 0
vn -0.7071073 0.7071063 0
vn -0.7071066 0.707107 0
vn -0.6087618 0.793353 0
vn -0.6087606 0.793354 0
vn -0.5000004 0.8660251 0
vn -0.499999 0.866026 0
vn -0.3826844 0.9238791 0
vn -0.382683 0.9238797 0
vn -0.2588199 0.9659256 0
vn -0.2588186 0.9659259 0
vn -0.1305268 0.9914448 0
vn -0.1305257 0.9914449 0
vn -0.03271933 0.9994645 0
vn -0.03271947 0.9994646 0
vn 0.03926117 0.999229 0
vn 0.03926164 0.999229 0
vn 0.6788017 0.7343216 0
vn 0.7343235 0.6787997 0
vn 0.6787967 0.7343262 0
vn 0.7343232 0.6788 0
vn 0.999229 0.03926288 0
vn 0.9990483 -0.04361849 0
vn 0.9992294 0.03925246 0
vn 0.9990482 -0.04361921 0
vn -0.04361996 -0.9990482 -2.379623e-18
vn 0.04361881 -0.9990482 -1.128672e-18
vn -0.04361729 -0.9990484 -1.251015e-18
vn 0.04361921 -0.9990482 0
vn -1.750335e-05 0 -1
vn -5.247791e-06 0 -1
vn -3.722651e-07 0 -1
vn -8.094908e-08 0 -1
vn -3.972757e-07 0 -1
vn -5.102917e-07 0 -1
vn -9.126572e-09 0 -1
vn -1.26187e-07 0 -1
vn 5.904714e-08 0 -1
vn 1.300049e-06 0 -1
vn 2.314543e-06 0 -1
vn -1.422754e-06 0 -1
vn 3.129835e-07 0 -1
vn 1.177635e-06 0 -1
vn -5.32161e-06 0 -1
vn -1.163853e-05 0 -1
vn 0 0 -1
vn 0 0 -0.9999999
vn -1.931623e-05 0 -1
vn -1.141323e-05 0 -1
vn -1.501546e-07 0 -1
vn -1.906826e-07 0 -1
vn 3.279949e-06 0 -1
vn 1.066646e-05 0 -1
vn -3.297713e-06 0 -1
vn 7.279003e-07 0 -1
vn -1.465284e-07 0 -1
vn 6.371556e-07 0 -1
vn 7.584162e-08 0 -1
vn 1.160468e-06 0 -1
vn -2.254088e-06 0 -1
vn 4.309429e-05 0 -1
vn 1.163849e-05 0 -1
vn 5.321599e-06 0 -1
vn -1.51609e-06 0 -1
vn 1.322956e-05 0 -1
vn 4.321716e-06 0 1
vn 0 0 1
vn 1.130448e-06 0 1
vn -1.139487e-05 0 1
vn 3.210638e-06 0 1
vn 9.287565e-06 0 1
vn -3.193377e-06 0 1
vn -2.344901e-06 0 1
vn 9.451241e-08 0 1
vn 5.268857e-07 0 1
vn -3.949202e-06 0 1
vn -7.43253e-06 0 1
vn 2.620656e-08 0 1
vn -1.462348e-06 0 1
vn -2.252599e-07 0 1
vn -1.012188e-07 0 1
vn 1.952903e-07 0 1
vn -8.916253e-07 0 1
vn -1.461029e-05 0 1
vn -3.210643e-06 0 1
vn 6.652682e-08 0 1
vn -1.446368e-07 0 1
vn -1.00551e-05 0 1
vn -2.185324e-07 0 1
vn 0 0 0.9999999
vn 1.139491e-05 0 1
vn 3.25128e-06 0 1
vn -3.374563e-06 0 1
vn 1.130099e-07 0 1
vn 1.259798e-06 0 1
vn 3.252229e-06 0 1
vn 1.461023e-05 0 1
vn -5.446835e-06 0 1
vn 8.534373e-07 0 1
vn 1.408496e-05 0 1
vn 5.9638e-06 0 1
vn 6.643093e-06 0 1
vn -4.89763e-07 0 1
vn 5.446856e-06 0 1
vn 0.1564316 0.9876888 0
vn 0.156434 0.9876884 0
vn 0.3090173 0.9510564 0
vn 0.3090196 0.9510556 0
vn 0.4539952 0.8910041 0
vn 0.4539953 0.891004 0
vn 0.5877869 0.8090159 0
vn 0.5877818 0.8090195 0
vn 0.8090206 0.5877802 0
vn 0.8090159 0.5877869 0
vn 0.8910103 0.4539831 0
vn 0.8910025 0.4539984 0
vn 0.9510556 0.3090195 0
vn 0.9510559 0.3090189 0
vn 0.987687 0.1564432 0
vn 0.98769 0.1564241 0
vn -0.1736464 -0.9848081 0
vn -0.17365 -0.9848075 0
vn -0.3420206 -0.9396924 0
vn -0.3420191 -0.939693 0
vn -0.5000029 -0.8660237 0
vn -0.4999996 -0.8660256 0
vn -0.64279 -0.7660425 0
vn -0.6427851 -0.7660465 0
vn -0.7660431 -0.6427892 0
vn -0.7660436 -0.6427885 0
vn -0.8660249 -0.500001 0
vn -0.8660244 -0.5000017 0
vn -0.9396944 -0.3420152 0
vn -0.9396888 -0.3420307 0
vn -0.9848099 -0.1736363 0
vn -0.9848068 -0.1736533 0
vn 0.9848083 -0.173645 0
vn 0.9848069 -0.1736532 0
vn 0.9396944 -0.3420153 0
vn 0.9396888 -0.3420306 0
vn 0.8660249 -0.5000011 0
vn 0.8660245 -0.5000017 0
vn 0.7660471 -0.6427845 0
vn 0.7660438 -0.6427884 0
vn 0.6427947 -0.7660385 0
vn 0.6427852 -0.7660465 0
vn 0.5000029 -0.8660237 0
vn 0.4999997 -0.8660256 0
vn 0.3420205 -0.9396925 0
vn 0.3420193 -0.9396929 0
vn 0.173647 -0.984808 0
vn 0.1736501 -0.9848075 0
f 1//1 2//2 3//3
f 3//3 2//2 4//4
f 4//4 2//2 5//5
f 4//4 5//5 6//6
f 6//6 5//5 7//7
f 6//6 7//7 8//8
f 8//8 7//7 9//9
f 8//8 9//9 10//10
f 10//10 9//9 11//11
f 10//10 11//11 12//12
f 12//12 11//11 13//13
f 12//12 13//13 14//14
f 14//14 13//13 15//15
f 14//14 15//15 16//16
f 16//16 15//15 17//17
f 16//16 17//17 18//18
f 18//18 17//17 19//19
f 18//18 19//19 20//20
f 20//20 19//19 21//21
f 20//20 21//21 22//22
f 22//22 21//21 23//23
f 22//22 23//23 24//24
f 24//24 23//23 25//25
f 24//24 25//25 26//26
f 26//26 25//25 27//27
f 26//26 27//27 28//28
f 29//29 28//28 30//30
f 30//30 28//28 27//27
f 31//31 32//32 33//33
f 33//33 32//32 34//34
f 35//35 36//36 37//37
f 37//37 36//36 38//38
f 39//39 40//40 90//41
f 90//41 40//40 41//42
f 42//43 3//44 39//45
f 39//45 3//44 40//46
f 6//47 26//48 4//49
f 4//49 26//48 28//50
f 4//49 28//50 34//51
f 34//51 28//50 29//52
f 34//51 29//52 33//53
f 34//51 43//54 4//49
f 4//49 43//54 44//55
f 4//49 44//55 45//56
f 40//46 46//57 47//58
f 48//59 49//60 50//59
f 51//61 52//59 53//62
f 45//56 54//63 4//49
f 4//49 54//63 37//64
f 4//49 37//64 3//44
f 3//44 37//64 38//65
f 3//44 38//65 40//46
f 40//46 38//65 55//66
f 40//46 55//66 46//57
f 47//58 56//59 40//46
f 40//46 56//59 48//59
f 40//46 48//59 57//59
f 57//59 48//59 50//59
f 39//45 58//59 59//59
f 12//59 14//67 10//68
f 10//68 14//67 16//69
f 16//69 18//59 10//68
f 10//68 18//59 20//70
f 10//68 20//70 22//71
f 58//59 39//45 60//72
f 60//72 39//45 61//73
f 60//72 61//73 62//74
f 59//59 63//75 39//45
f 39//45 63//75 64//76
f 39//45 64//76 42//43
f 6//47 8//77 26//48
f 26//48 8//77 10//68
f 26//48 10//68 24//59
f 24//59 10//68 22//71
f 33//53 29//52 53//62
f 53//62 29//52 65//78
f 53//62 65//78 51//61
f 66//79 67//80 90//81
f 68//82 69//83 90//81
f 66//79 90//81 70//84
f 67//80 71//85 90//81
f 90//81 71//85 32//86
f 90//81 32//86 31//87
f 72//88 73//89 90//81
f 90//81 73//89 30//90
f 90//81 30//90 27//91
f 7//92 5//93 25//94
f 25//94 5//93 2//95
f 25//94 2//95 27//91
f 27//91 2//95 90//81
f 90//81 2//95 1//96
f 90//81 1//96 68//82
f 74//97 75//98 41//99
f 17//100 15//101 13//102
f 76//80 77//103 78//80
f 75//98 79//104 41//99
f 41//99 79//104 36//105
f 41//99 36//105 90//81
f 90//81 36//105 35//106
f 90//81 35//106 70//84
f 21//107 19//80 9//108
f 9//108 19//80 17//100
f 9//108 17//100 11//109
f 11//109 17//100 13//102
f 69//83 80//110 90//81
f 90//81 80//110 81//111
f 90//81 81//111 82//80
f 82//80 83//112 90//81
f 90//81 83//112 84//113
f 90//81 84//113 85//80
f 76//80 78//80 86//80
f 31//87 87//114 90//81
f 90//81 87//114 88//115
f 90//81 88//115 72//88
f 7//92 25//94 9//108
f 9//108 25//94 23//116
f 9//108 23//116 21//107
f 86//80 78//80 41//99
f 41//99 78//80 89//117
f 41//99 89//117 74//97
f 29//29 30//30 73//118
f 29//29 73//118 65//119
f 65//119 73//118 72//120
f 65//119 72//120 51//121
f 51//121 72//120 88//122
f 51//121 88//122 52//123
f 52//123 88//122 87//124
f 52//123 87//124 53//125
f 53//125 87//124 31//31
f 53//125 31//31 33//33
f 34//34 32//32 71//126
f 34//34 71//126 43//127
f 43//127 71//126 67//128
f 43//127 67//128 44//129
f 44//129 67//128 66//130
f 44//129 66//130 45//131
f 45//131 66//130 70//132
f 45//131 70//132 54//133
f 54//133 70//132 35//35
f 54//133 35//35 37//37
f 39//39 90//41 85//134
f 39//39 85//134 61//135
f 61//135 85//134 84//136
f 61//135 84//136 62//137
f 62//137 84//136 83//138
f 62//137 83//138 60//139
f 60//139 83//138 82//140
f 60//139 82//140 58//141
f 58//141 82//140 81//142
f 58//141 81//142 59//143
f 59//143 81//142 80//144
f 59//143 80//144 63//145
f 63//145 80//144 69//146
f 63//145 69//146 64//147
f 64//147 69//146 68//148
f 64//147 68//148 42//149
f 42//149 68//148 1//1
f 42//149 1//1 3//3
f 38//38 36//36 79//150
f 38//38 79//150 55//151
f 55//151 79//150 75//152
f 55//151 75//152 46//153
f 46//153 75//152 74//154
f 46//153 74//154 47//155
f 47//155 74//154 89//156
f 47//155 89//156 56//157
f 56//157 89//156 78//158
f 56//157 78//158 48//159
f 48//159 78//158 77//160
f 48//159 77//160 49//161
f 49//161 77//160 76//162
f 49//161 76//162 50//163
f 50//163 76//162 86//164
f 50//163 86//164 57//165
f 57//165 86//164 41//42
f 57//165 41//42 40//40
