# G1 exterior visual; derived from pinned Unitree/TWIST2 CAD.
v 0.046856951 -0.00554456748 0.00571652595
v 0.0461394675 -0.00540550612 0.00885320827
v 0.0475028232 -0.0046092975 0.00884757005
v 0.0456136875 0.000614368473 0.00883113407
v 0.0477605425 -0.000683453982 0.0082518179
v 0.046549283 -0.00147637562 0.00899775699
v 0.0499622487 -0.0046447725 0.00693347026
v 0.0499507524 -0.00412827171 0.00745228492
v 0.0479806736 -0.00284985779 0.00857725833
v 0.0488007441 0.00021742018 0.00710411696
v 0.0495268703 -0.00235434249 0.00762032671
v 0.0500521809 -0.000684225466 0.00638283463
v 0.0517579727 -0.00238926685 0.00399967516
v 0.0511166677 -0.00402691215 0.00605978398
v 0.0511014126 -0.00236855098 0.00599595392
v 0.0513190143 -0.000421105447 0.00251613674
v 0.0507377572 -0.000206299941 0.00472321687
v 0.0458538197 0.00227328739 0.00776596554
v 0.0482815877 0.00203551818 0.00583026838
v 0.0476721413 0.00112180528 0.00741064735
v 0.046680551 0.00384158711 0.00240100664
v 0.047935199 0.00316677173 0.00124831451
v 0.0476000644 0.00310375844 0.00381416059
v 0.0465343259 0.00277741859 0.00665156497
v 0.0490030646 0.00220947666 0.00357382372
v 0.0494633205 0.00206185901 0.000945826876
v 0.0497928895 0.00119065552 0.00480296416
v 0.0505435579 0.000736276328 0.00311086467
v 0.0388391837 -0.00689264433 0.00733975321
v 0.0366670191 -0.00441495143 0.0111708296
v 0.0379505232 -0.00369268958 0.011045794
v 0.0396087281 -0.00452180533 0.0106810406
v 0.0386441313 -0.000538156601 0.0107300524
v 0.0396624058 -0.00293664332 0.0107534379
v 0.0413114615 -0.00361476722 0.010471426
v 0.0400845185 0.000486872857 0.0103448974
v 0.044109799 -0.0052962997 0.00982308574
v 0.0422218889 -0.00151121058 0.0102272881
v 0.0438777506 -0.00314281927 0.00996467937
v 0.0459901877 -0.00320706121 0.00938369706
v 0.0429365039 8.99921361e-05 0.0098144263
v 0.0444096811 -0.0011448873 0.00969004724
v 0.0378745832 0.00207278039 0.0102832904
v 0.0363529585 0.00500241527 0.00885898992
v 0.0380635262 0.00374507695 0.00948605221
v 0.0390931256 0.0046364367 0.00842158683
v 0.0403437391 0.00362222386 0.00898595341
v 0.0368805714 0.00692157075 0.00334386807
v 0.0375390649 0.00641051959 0.00563833583
v 0.0393539108 0.00619325554 0.00456355093
v 0.0382951684 0.0055506113 0.00744923996
v 0.0402523316 0.00205524336 0.00984529778
v 0.0420087688 0.00316235679 0.00881321449
v 0.0414873995 0.00440544263 0.00769912871
v 0.0402019769 0.00625215657 0.00250323024
v 0.0422116257 0.0055482788 0.00346111879
v 0.0400159135 0.00552215567 0.00639365707
v 0.0420599692 0.00122853869 0.00973421149
v 0.043548625 0.00189280359 0.0090562636
v 0.0437615812 0.00499765202 0.00378711731
v 0.0442085303 0.00504579442 0.0015452893
v 0.0418704636 0.005402382 0.00489400234
v 0.0426123366 0.00474687433 0.00631654728
v 0.045615688 0.00421396736 0.00379641075
v 0.0449653305 0.00398120889 0.00580367632
v 0.0438706391 0.00390830636 0.0070497198
v 0.0439884365 0.00301993219 0.00810832437
v 0.0483587645 -0.00527191674 -0.00174770621
v 0.0458066203 -0.00490821153 -0.00937038939
v 0.0470311493 -0.00294441613 -0.00891604275
v 0.0481968336 -0.00501024071 -0.00799096562
v 0.0455135144 -0.00580877997 -0.00564952055
v 0.0468876287 -0.000893966004 -0.00862820912
v 0.0478133932 0.000242496884 -0.00771618588
v 0.0496481545 -0.00431781868 -0.00755361049
v 0.0491615497 -0.00290644239 -0.00785369333
v 0.051102221 -0.00438922504 -0.00563954981
v 0.0516256988 -0.00424400857 0.00401992071
v 0.048627764 -0.00127466733 -0.00777635025
v 0.0487204269 0.000701429497 -0.00674037775
v 0.0505334698 -0.0025211575 -0.00669135479
v 0.0500891656 -0.000802657858 -0.00630647875
v 0.0512345247 -0.00236001401 -0.00559749547
v 0.0517546497 -0.0022892186 -0.00377633632
v 0.0517460331 -0.00405966956 -0.00375211891
v 0.0520237498 -0.00276593212 -0.00109454163
v 0.0505939759 0.000210604252 -0.00438246736
v 0.0512567535 -0.000367959641 -0.00276130065
v 0.0510178171 0.000223956638 -0.000368295703
v 0.0445030667 0.00119147252 -0.00893306825
v 0.0457491763 0.00174765068 -0.00812386908
v 0.0453783125 0.00335539225 -0.00672224816
v 0.0474517271 0.00197869679 -0.0067955954
v 0.0464077704 0.00325952633 -0.00569109339
v 0.0459278375 0.00410101283 -0.00340003497
v 0.0476207696 0.00298178825 -0.00423880434
v 0.0457900651 0.00444504851 6.54003161e-05
v 0.0470946468 0.00366932712 -0.0016310768
v 0.0494019017 0.000973628892 -0.00571314245
v 0.0484277382 0.00282136584 -0.00164818601
v 0.0494752787 0.00200263225 -0.00188173004
v 0.049167823 0.00178793247 -0.00464632036
v 0.0502807423 0.00107505242 -0.00285319029
v 0.0373280421 0.00540730031 -0.00798975956
v 0.0378456526 0.00377345947 -0.00942996796
v 0.0389483906 0.0044420436 -0.00860172231
v 0.0380307548 0.00594724109 -0.00663765566
v 0.0393372364 0.0060858815 -0.00509858178
v 0.038179785 0.00648799073 -0.00435724854
v 0.0382921323 0.00675411895 -0.00150611135
v 0.0373706147 0.00694278581 0.00163043861
v 0.0393897034 0.00651611155 -0.000664492021
v 0.0400858968 0.00237263599 -0.00969484169
v 0.0410345197 0.00295911101 -0.00914246589
v 0.0421982557 0.000975935254 -0.00966781471
v 0.0395354889 0.00515224412 -0.00742711034
v 0.0411873609 0.00403067563 -0.00823037978
v 0.040851023 0.00532400655 -0.00620911177
v 0.0421316251 0.00457402645 -0.00694630062
v 0.0401616246 0.00622511096 -0.00278271432
v 0.0413338095 0.00553581165 -0.00498772878
v 0.0414039828 0.0057559344 -0.0037577406
v 0.0389587358 0.00661715632 0.00153612951
v 0.0411345214 0.00605187751 -0.000609354989
v 0.0431974642 0.00238153269 -0.00881384872
v 0.0442969687 0.00446328241 -0.00514946459
v 0.0440287851 0.00338185648 -0.00759201869
v 0.0429034568 0.00531151425 -0.00365808583
v 0.0447085127 0.00478166714 -0.00224695774
v 0.0433191508 0.0053720572 -0.00145432877
v 0.0442399643 0.00508101424 -0.000114144103
v 0.0426480137 0.00562844239 0.00063434738
v 0.038851887 -0.00441361126 -0.0107397819
v 0.037680693 -0.0065819337 -0.0104712481
v 0.0383839756 -0.00720770564 -0.00217158208
v 0.038480442 -0.00243750773 -0.0108300429
v 0.0376619808 -0.000364216889 -0.0107326154
v 0.041848924 -0.00662282016 0.00192841899
v 0.0413810797 -0.0024724023 -0.0103544984
v 0.0420311019 -0.0040889848 -0.0101936776
v 0.0396304503 1.08449321e-05 -0.0104272896
v 0.0413934514 -3.85841959e-05 -0.0100925621
v 0.0436640382 -0.00580248563 -0.00941635948
v 0.0442537256 -0.00334569602 -0.0097793024
v 0.0427571163 -0.00135534909 -0.00999736227
v 0.0449585617 -0.00196589925 -0.00952527393
v 0.0445608571 -4.04322855e-05 -0.00929783005
v 0.0317552947 0.00133227685 0.0111436807
v 0.0305036437 0.00798411574 0.00251820171
v 0.0332605615 0.00322862412 0.0105051901
v 0.0316771269 0.0050993897 0.00978271477
v 0.0339397341 0.00503871078 0.00939234905
v 0.0323017165 0.00765337003 0.00396523112
v 0.0334172919 0.00717642717 0.00579645252
v 0.0337054059 0.00670341309 0.00714044506
v 0.0332082957 0.00608848967 0.00849434361
v 0.0352830328 0.00239157467 0.0105521558
v 0.0364885591 0.000930333626 0.010781182
v 0.0358571298 0.00389659149 0.00984509662
v 0.0338844284 0.00758375507 0.00163005223
v 0.0347919278 0.00727237342 0.00378439156
v 0.0358260125 0.00724966126 0.00161918544
v 0.0359078571 0.00670351926 0.00587009266
v 0.0362654105 0.00586788636 0.00782866962
v 0.0241442807 0.00210957415 0.0114573268
v 0.0248242915 -8.06945754e-05 0.0118046124
v 0.0255401302 0.0038027002 0.01092136
v 0.0245636925 0.00567307416 0.0101198805
v 0.0244224295 0.00816404726 0.00551329181
v 0.0249552224 0.00743405987 0.00794878043
v 0.0237627234 0.0067669577 0.00921558496
v 0.0234914534 0.00850442611 0.00293797418
v 0.0226293914 0.0082744183 0.00550383842
v 0.0254425593 0.00828328822 0.00404755073
v 0.0285456218 0.00242458982 0.0111258449
v 0.0264431722 0.00148050801 0.0114487121
v 0.0277660955 0.00378801185 0.0107791834
v 0.0267399084 0.00493943645 0.0103613492
v 0.028595373 0.00795062911 0.00474144053
v 0.0266431049 0.00792995002 0.00578965247
v 0.0268733557 0.00739904772 0.00767625496
v 0.0272073243 0.00660622353 0.00898605585
v 0.0282957405 0.00579665322 0.00965210795
v 0.02952094 0.00642761309 0.00882545114
v 0.0263006408 0.00832114834 0.00257335836
v 0.0277156644 0.00821554754 0.0029439542
v 0.0294956025 0.000713469926 0.0114117358
v 0.030946115 0.00359398918 0.010588726
v 0.0299412049 0.00477437396 0.0101262657
v 0.0307134874 0.00745934714 0.00625184225
v 0.0285768621 0.00754603045 0.00673246989
v 0.0306999534 0.00685661146 0.00789600704
v 0.0298766568 -0.00243152678 0.0117570097
v 0.0307130273 -0.00421481347 0.0118196402
v 0.0341320224 -0.00775916921 0.00392080145
v 0.0377706923 -0.00660854951 0.0105166845
v 0.0322628058 -0.00363920094 0.0116509041
v 0.0327373333 -0.00137379777 0.0114574693
v 0.0310719945 -0.00772465486 0.00833103526
v 0.0341527835 -0.00489763357 0.0114412364
v 0.0342456028 -0.00301201781 0.0114528202
v 0.0345362574 0.000225414056 0.0111026084
v 0.0392155759 -0.00593813416 0.0107630771
v 0.0366017222 -0.00122807117 0.0110834641
v 0.0254081506 -0.00672147935 0.0122131053
v 0.0213428736 -0.00432028901 0.0123875355
v 0.0261837747 -0.00470857695 0.0121532232
v 0.0245510619 -0.00291566271 0.0121050533
v 0.0272982251 -0.0017541704 0.0118576735
v 0.0291712508 -0.00717261946 0.0115678329
v 0.0287106745 -0.00467973202 0.011957543
v 0.0267169252 -0.000308072602 0.0117308311
v 0.0320056006 -0.00655814679 0.0116834808
v 0.0308152344 -0.000414865499 0.0114825089
v 0.0359235741 0.000591259624 -0.0108011607
v 0.0308105685 0.00251987204 -0.010864283
v 0.0308079924 0.00545081263 -0.00948981103
v 0.0304058045 0.00765270693 -0.00544502307
v 0.0310089365 0.00793012697 -0.00231449492
v 0.0312445052 0.00794929732 -9.25337808e-05
v 0.0326904617 0.00130126928 -0.0109772161
v 0.0321677513 0.00366321625 -0.0103329308
v 0.0326749645 0.00502620125 -0.00951935817
v 0.0318818614 0.00614752248 -0.0086177215
v 0.0308670457 0.00701167947 -0.00742863212
v 0.0335545689 0.00708363438 -0.00600258168
v 0.0323149413 0.00761603424 -0.00418847706
v 0.0338473022 0.00757924467 -0.00206781086
v 0.0335554071 0.00766453287 -0.00023674668
v 0.0343552083 0.00168291281 -0.0107528931
v 0.0351171158 0.00294694933 -0.0102876797
v 0.0346682258 0.00526488014 -0.00893784221
v 0.034799885 0.00430060085 -0.00966561958
v 0.0342594162 0.00621818285 -0.00786028523
v 0.0360945612 0.0063391719 -0.006806897
v 0.0361338481 0.00679863617 -0.00516392477
v 0.0347663425 0.0072719045 -0.00379456719
v 0.0360896215 0.00721290382 -0.000370561902
v 0.0358708166 0.00721130613 -0.00212044013
v 0.0377688594 0.00192127191 -0.0102681452
v 0.0372607335 0.00688165659 -0.00297058327
v 0.0241118744 0.00146054302 -0.011487239
v 0.0252033304 0.00420999574 -0.0107257646
v 0.0232372936 0.00511334511 -0.0104210991
v 0.0240659211 0.00601181807 -0.00980384741
v 0.0245128926 0.00751390215 -0.00775567861
v 0.0249190535 0.00676538004 -0.00899607316
v 0.0232898369 0.00810359605 -0.00596491713
v 0.0240279734 0.00828402676 -0.00474553788
v 0.0260691866 0.00798412692 -0.00570224458
v 0.0259860381 0.00831424166 -0.0032825924
v 0.0230005272 0.00859878678 -0.00111153268
v 0.0228521973 0.00862308592 0.000692422967
v 0.0256455597 0.00845180731 -0.000117977645
v 0.0265916381 0.00185077428 -0.0112781152
v 0.0268972088 0.00609954586 -0.00946378801
v 0.0274781641 0.00493744947 -0.010195164
v 0.0271232892 0.00383730163 -0.0106979394
v 0.026537599 0.00725286175 -0.00794891175
v 0.0293472279 0.00756756589 -0.00628781039
v 0.0275586005 0.008254054 -0.00255216728
v 0.0288966987 0.00802313071 -0.00399731193
v 0.0277432129 0.00829239003 -0.000384857121
v 0.029052496 0.00241339463 -0.0109966667
v 0.0299004074 0.00441916147 -0.0102433925
v 0.0290066041 0.00665953988 -0.00854673982
v 0.02769728 0.00751665933 -0.0069850781
v 0.0285206009 0.0082413787 0.000716547656
v 0.0316740349 -0.00139974954 -0.0114498194
v 0.0336583182 -0.00485796155 -0.011402227
v 0.0320997089 -0.00703499652 -0.0111748874
v 0.0320907943 -0.00400654459 -0.0115822451
v 0.0330714434 -0.00268489192 -0.011434095
v 0.0343558975 -0.000402843318 -0.0111212982
v 0.0376499444 -0.0060944953 -0.0109108817
v 0.0382870547 -0.00701442501 -0.00707786949
v 0.036512997 -0.00402793754 -0.0111194514
v 0.0357893631 -0.00135036872 -0.0110770762
v 0.0256766193 -0.00847658515 -0.00449001091
v 0.025167048 -0.00193823164 -0.0118925162
v 0.0251030866 -0.00428340444 -0.0120979575
v 0.0282278098 -0.00844524987 0.00232559838
v 0.0250147991 -0.00534895435 -0.0120806834
v 0.0280161072 -0.00440609269 -0.0119499573
v 0.0288553201 -0.00287097925 -0.0117625212
v 0.0296089798 -0.00480009895 -0.0118123377
v 0.0264237858 -0.00113420154 -0.0117335645
v 0.0280444697 0.000383442035 -0.0114604374
v 0.0295723453 -0.00787604786 -0.00807891507
v 0.031702444 -0.00811485294 -0.00198553945
v 0.0301640537 0.00012691578 -0.011361504
v 0.0200661719 -0.000289096613 0.0117657492
v 0.0162694082 0.00687916344 0.00990058389
v 0.0163450595 0.00606047595 0.00951792393
v 0.0191906709 0.00698879454 0.0128939971
v 0.0180282015 0.00693806587 0.00993296877
v 0.0200359598 0.00719484175 0.00676093297
v 0.0199583992 0.0063577476 0.0128918123
v 0.0200668834 0.00186134456 0.0113703515
v 0.0230073482 0.000522462244 0.0117917359
v 0.0223505497 0.00354439765 0.0111878235
v 0.020044297 0.00332425721 0.0110648945
v 0.0203495603 0.00437406404 0.0108038243
v 0.0201049726 0.00507944636 0.0102869933
v 0.0212021023 0.00657692412 0.00971509982
v 0.0229983404 0.00565398159 0.0102777146
v 0.020184312 0.00675710803 0.00878245756
v 0.0207241271 0.00796634518 0.00696547423
v 0.0224083494 0.00766959554 0.00791087281
v 0.0200241636 0.00629243534 0.00961844064
v 0.0217555687 0.00867285393 0.00239291205
v 0.0193337929 0.00699157175 0.0100159682
v 0.0193896219 -0.00699739391 0.009569305
v 0.020289842 -0.0079757385 0.00922247209
v 0.0192668047 -0.00696284883 0.0128992368
v 0.0236092303 -0.00863449741 0.00402567303
v 0.0249816142 -0.00804101955 0.008646667
v 0.0200647842 -0.00656175334 0.0121207694
v 0.0208167136 -0.00719063217 0.0119629884
v 0.019934861 -0.00624228688 0.012876912
v 0.0208989568 -0.00645434344 0.0123918299
v 0.0201258324 -0.00400108751 0.0120221386
v 0.0227250364 -0.00263916887 0.0121585
v 0.0213794261 0.00116675359 0.0118114911
v 0.0222654566 -0.00144176604 0.0120993294
v 0.0106473686 -0.00712790294 0.0088144755
v 0.0107784811 -0.00558465905 0.00876405928
v 0.011582653 -0.00702445954 0.00953400135
v 0.0161068942 -0.00795007031 0.00900138263
v 0.0118584717 -0.00586424302 0.00989893917
v 0.012504491 -0.00530443853 0.00896168128
v 0.0146863153 -0.000123976002 0.00988822151
v 0.0133086704 -0.0049962569 0.00982090086
v 0.00992220733 -0.0087215174 0.000704910723
v 0.0103067411 -0.00845124386 0.00472902833
v 0.00948918983 -0.00811445434 0.00254184729
v 0.00997118931 -0.00754008582 0.00669306703
v 0.0109050693 -0.00766960718 0.00876928307
v 0.0140973916 -0.00407351786 0.00951797236
v 0.0174376629 -0.00870062783 0.00474743219
v 0.0158490557 0.00511130271 0.00978090707
v 0.0158386584 0.00508285593 -0.00957404729
v 0.015767308 0.00579483388 -0.00975928176
v 0.01624888 0.0059511885 -0.00956464466
v 0.0195577629 0.00690539181 -0.0100786788
v 0.0170669071 0.00654583937 -0.00961002521
v 0.0185262877 0.00706950994 -0.00994827319
v 0.0196379945 0.00722205127 0.00933989603
v 0.0200851969 0.00120667357 -0.0113627082
v 0.0200383011 0.00287542259 -0.0110628419
v 0.0230010245 0.00253253337 -0.0113284634
v 0.0199832786 0.00626614736 -0.0129938507
v 0.0218163785 0.00394262094 -0.0110214073
v 0.0201199781 0.00401808368 -0.0106281685
v 0.0200620666 0.00556245772 -0.00992152467
v 0.0210351255 0.00576201454 -0.0102151157
v 0.0201807134 0.00657527149 -0.00910266303
v 0.0198921692 0.00716245454 -0.00956775807
v 0.0206690598 0.00730302976 -0.00840604771
v 0.0224549621 0.00689759385 -0.00907835551
v 0.022095738 0.00769097311 -0.00773361325
v 0.020067146 0.00725342426 -0.00717322389
v 0.0211117528 0.00811651722 -0.00646660058
v 0.020515589 0.0084269233 -0.00323510473
v 0.020210458 0.00816695578 0.00296009169
v 0.021723479 0.00867622625 -0.00228300365
v 0.0223840438 0.00847460143 -0.00413161423
v 0.0212535076 0.00871943124 -0.000119730714
v 0.010396502 0.00550027937 -0.00980829354
v 0.0105297426 0.00548899733 -0.0130863292
v 0.019416688 0.00695603294 -0.0130984457
v 0.0128016183 0.00596841564 -0.0130673181
v 0.0130865611 0.00602883101 -0.00981529523
v 0.0150370197 0.00697943103 -0.0130607598
v 0.0151104992 0.00699314056 -0.00984014198
v 0.0193558261 -0.00888576545 -0.00198232662
v 0.0194668155 -0.00695170788 -0.0130992141
v 0.0215974115 -0.00889354292 7.5280579e-05
v 0.0197929665 -0.00693394616 -0.00957679469
v 0.0199118201 -0.00660786266 -0.0114794653
v 0.0200763326 -0.00594737893 -0.0119424388
v 0.019985348 -0.00623324793 -0.0129997572
v 0.0208856147 -0.00657114666 -0.0122986641
v 0.0261423979 -0.00723687885 -0.0116810845
v 0.027782796 -0.00673519215 -0.0119713088
v 0.0204156097 -0.00800114498 -0.00907196756
v 0.0206897818 -0.00719885295 -0.0117220841
v 0.020094486 -0.00120760803 -0.0117313107
v 0.0215757415 -0.00320747029 -0.0122068962
v 0.0235038735 -0.00370513392 -0.0121244285
v 0.0210316945 0.0015133745 -0.0116264038
v 0.0220939238 4.64206532e-05 -0.0118518313
v 0.0236990508 -0.000698500779 -0.0118352361
v 0.0131657152 -0.00890424568 -0.000468760263
v 0.0102882916 -0.00721328286 -0.00812185556
v 0.00985831209 -0.00773717603 -0.0057357247
v 0.0103065185 -0.00566289667 -0.00799504668
v 0.0101881614 -0.00842435472 -0.00467424467
v 0.011228147 -0.00765874656 -0.00893489737
v 0.00946982577 -0.00812616572 -0.00233273255
v 0.00949101057 -0.00587223424 0.000218167435
v 0.0101089235 -0.00569237676 0.0067030061
v 0.0131092425 -0.0060488726 -0.0130505767
v 0.0113814799 -0.00721038925 -0.00926467683
v 0.0119681694 -0.00575873069 -0.00950974319
v 0.013282394 -0.00621980103 -0.00973586552
v 0.015194037 -0.00817129388 -0.00763122225
v 0.0135296248 -0.00486002956 -0.00961821247
v 0.014128386 -0.0038803264 -0.00979643688
v 0.0188476704 -0.00859943032 -0.00556199159
v 0.0150322635 -0.00697062071 -0.0130713638
v 0.0149819478 -0.00699912896 -0.00958807208
v 0.0148703195 1.696652e-05 -0.00978638325
v 0.0112139387 -0.00698693562 0.00990907662
v -0.00571315456 -0.00405082991 0.0099009648
v -0.00631496124 -0.00302597461 0.0128857819
v -0.00698947627 0.000489726954 0.00992476474
v -0.00680432189 -0.00162507035 0.00993073545
v -0.00635782629 0.0029699679 0.00991012249
v -0.00700392667 -0.000504252908 0.0128998272
v -0.00333973975 -0.00621288875 0.00992345065
v -0.00485693291 -0.00504855951 0.0128910476
v -0.00292591448 -0.00636835117 0.0128872255
v -0.000481104187 -0.00698034279 0.0099271778
v -0.000600474363 -0.00698710466 0.0128743453
v -0.00499564875 0.00490142917 0.00990725216
v -0.00665083947 0.00219074078 0.0128772659
v -0.00574683398 0.00399840949 0.0128771402
v -0.00298865838 0.00633851485 0.00992869958
v -0.00361151341 0.00604433147 0.0128867738
v -0.000623460161 0.00698307063 0.00990254059
v -0.000673363218 0.00698390137 0.0128743937
v 0.0105084125 -0.00550172897 -0.00988237467
v 0.0123382118 -0.00534151495 -0.00979676563
v 0.0104333377 -0.00549421599 -0.0130984122
v -0.00550415181 0.000176214468 -0.00991025846
v -0.00409529312 -0.00367152016 -0.0130924853
v -0.00240106299 -0.0049645151 -0.0130949849
v -0.00395533023 -0.00384743325 -0.00981849711
v -0.00550599582 -0.000285624585 -0.0130199064
v -0.00507178204 -0.00212070323 -0.0130502684
v -0.00519848708 -0.00184087642 -0.00980077218
v -0.000504312105 -0.0054787593 -0.0130319325
v -0.00140841061 -0.00540943583 -0.00980979763
v -0.00525802607 0.00161686039 -0.0130371405
v -0.00430369191 0.00344754267 -0.0130904606
v -0.0050675231 0.00214740378 -0.00982082356
v -0.00392047223 0.00386904576 -0.00980085693
v -0.00227496261 0.00500991382 -0.00980635732
v -0.00239061075 0.00496573932 -0.0130984103
v -0.000472785061 0.00548179634 -0.0130320564
v -0.000351463357 0.00548136001 -0.00985816307
vn 0.6298702 0.7637256 0.1413745
vn 0.541935 0.8396746 0.03539949
vn 0.5126192 0.8370939 0.1910378
vn 0.6878064 0.7256026 0.02057065
vn 0.572202 0.8177108 -0.06272031
vn 0.4996883 0.8640897 -0.06050259
vn 0.4789877 0.8741718 0.07996573
vn 0.6120589 0.4438486 0.6545092
vn 0.7154801 0.3995877 0.5730774
vn 0.7113088 0.6270396 0.3175865
vn 0.5759273 0.7057788 0.4125338
vn 0.5225157 0.5085636 0.6843541
vn 0.4810115 0.7504485 0.4532714
vn 0.78588 0.6076506 0.1146881
vn 0.6749179 0.7356944 -0.05691683
vn 0.4340319 0.8836168 0.1756067
vn 0.4464402 0.8948051 0.00385595
vn 0.3606025 0.9304438 0.06511557
vn 0.3573514 0.9339256 -0.009108624
vn 0.422852 0.5885171 0.689089
vn 0.2992337 0.4210245 0.8562695
vn 0.3677004 0.3313166 0.8689222
vn 0.9748112 0.1335088 0.1786576
vn 0.9992299 0.03822725 -0.008857297
vn 0.9132737 0.3991229 0.08143817
vn 0.8502114 0.187741 0.491827
vn 0.8292142 -0.3672382 0.4213548
vn 0.6303619 -0.2591975 0.7317517
vn 0.8401821 0.4414482 0.3149882
vn 0.6032713 0.1709766 0.7789934
vn 0.4767947 0.2861813 0.831124
vn 0.4553024 0.07620759 0.8870693
vn 0.4385766 -0.3604946 0.8232219
vn 0.4809046 -0.8061894 0.3446585
vn 0.2233518 -0.9734058 0.05094254
vn 0.2506272 -0.9680386 -0.009354422
vn 0.3216532 -0.9459841 0.04066241
vn 0.3368826 0.1719371 0.9257147
vn 0.302382 0.04040388 0.9523301
vn 0.2374646 0.02667288 0.9710299
vn 0.4178198 0.06420327 0.9062585
vn 0.2546054 -0.4494598 0.8562489
vn 0.1886885 0.5325042 0.8251278
vn 0.157521 0.3163339 0.9354785
vn 0.200866 0.372245 0.9061382
vn 0.1701921 0.2052772 0.9637925
vn 0.1447374 0.130816 0.9807845
vn 0.1233711 0.2016844 0.9716496
vn 0.1398624 -0.02115348 0.9899449
vn 0.1209492 -0.0257689 0.9923242
vn 0.1754947 -0.03098405 0.9839927
vn 0.116084 0.09190458 0.9889783
vn 0.1610406 0.02133766 0.9867171
vn 0.2115592 0.09871333 0.9723674
vn 0.1992534 -0.08498181 0.9762561
vn 0.2465606 0.2126434 0.9455108
vn 0.1528482 -0.9838604 0.09303791
vn 0.1777455 -0.9839524 0.01562742
vn 0.2935168 -0.8413128 0.4539171
vn 0.1577478 -0.8608164 0.48385
vn 0.2041353 -0.3846507 0.9002069
vn 0.2332775 0.7425002 0.6279132
vn 0.1835697 0.6990232 0.6911357
vn 0.2357444 0.5893767 0.7726963
vn 0.2140201 0.9698974 0.1161656
vn 0.2268326 0.9728519 0.04589436
vn 0.2001595 0.9790721 0.03679576
vn 0.2187308 0.9444751 0.2452013
vn 0.252838 0.9639321 0.08311284
vn 0.234115 0.9566218 0.173392
vn 0.1239092 -0.9912264 0.04600878
vn 0.1548172 -0.9877836 -0.01775823
vn 0.2318767 0.3189844 0.9189571
vn 0.2624107 0.5764349 0.7738627
vn 0.2718362 0.7893158 0.5505322
vn 0.2603598 0.8973055 0.3564484
vn 0.2714198 0.9621653 -0.02385917
vn 0.3025733 0.9439809 0.1317171
vn 0.2992241 0.9538604 0.02480484
vn 0.3315129 0.9196451 0.2105994
vn 0.3402138 0.9260072 0.1636009
vn 0.3132492 0.885589 0.3429388
vn 0.4145235 0.8569242 0.3063515
vn 0.3564829 0.7988026 0.4845972
vn 0.3475993 0.6435899 0.6818848
vn 0.7812185 0.6155286 -0.1040301
vn 0.8217152 0.4969521 -0.278967
vn 0.6354998 0.7255838 -0.2639472
vn 0.6865283 0.5709951 -0.4501594
vn 0.5305639 0.8200049 -0.2146947
vn 0.5240795 0.6463196 -0.5546275
vn 0.6048267 0.4671395 -0.6449537
vn 0.505211 0.3809578 -0.7743598
vn 0.4390294 0.8859851 -0.1492766
vn 0.485258 0.8137425 -0.3199185
vn 0.3703397 0.8904739 -0.264395
vn 0.3874204 0.9172148 -0.09285736
vn 0.4125156 0.7714346 -0.4844786
vn 0.4100277 0.4966775 -0.7649763
vn 0.3076572 0.2376817 -0.921333
vn 0.3419134 0.3453649 -0.8739671
vn 0.3825401 -0.7916022 -0.4764756
vn 0.2329971 -0.828353 -0.5094542
vn 0.3370325 -0.3728141 -0.8645338
vn 0.3974227 0.05270859 -0.9161206
vn 0.2278903 0.007607374 -0.9736571
vn 0.4059486 0.2357854 -0.8829558
vn 0.2871002 0.1081499 -0.9517758
vn 0.5265477 0.09546034 -0.8447691
vn 0.6086171 -0.383274 -0.6947562
vn 0.20532 -0.977178 -0.0544668
vn 0.3146634 -0.9465371 -0.07109404
vn 0.5372721 0.2645316 -0.8008507
vn 0.7450892 0.1355806 -0.653039
vn 0.719445 0.382992 -0.5794101
vn 0.8846498 -0.06834051 -0.4612205
vn 0.8932842 0.1657868 -0.4178015
vn 0.9810215 -0.05288064 -0.1865488
vn 0.96739 0.1704846 -0.1873276
vn 0.9855106 -0.08262059 0.1481303
vn 0.8843703 0.4554673 -0.1021697
vn 0.203172 0.4040763 -0.8918764
vn 0.1443769 0.2977991 -0.9436477
vn 0.1807558 0.5410099 -0.8213621
vn 0.2397544 0.8980349 -0.368851
vn 0.215708 0.6904916 -0.6904285
vn 0.2266908 0.7871767 -0.5735541
vn 0.2339151 0.8411526 -0.4875921
vn 0.2198206 0.9613013 -0.1660686
vn 0.2391649 0.9428036 -0.2322101
vn 0.2140628 0.9758331 -0.04389862
vn 0.2591251 0.9613874 -0.09267322
vn 0.1636521 0.1723718 -0.9713423
vn 0.2020971 0.1826653 -0.9621799
vn 0.1843588 0.5455319 -0.8175614
vn 0.2330305 0.2863661 -0.9293499
vn 0.2595683 0.708335 -0.6564189
vn 0.2810196 0.8905171 -0.357781
vn 0.291351 0.8469236 -0.4447864
vn 0.2916524 0.927103 -0.2354123
vn 0.2672991 0.9536859 -0.1379646
vn 0.2408283 0.9704362 -0.01598053
vn 0.2895998 0.5007988 -0.8156792
vn 0.3464117 0.7050351 -0.6188089
vn 0.3171293 0.9466876 -0.05666912
vn 0.3248312 0.9347007 -0.1442897
vn 0.2155989 0.1112989 -0.9701183
vn 0.1914013 -0.03821253 -0.9807678
vn 0.1913689 0.02869744 -0.9810985
vn 0.1436932 -0.9850119 -0.09541402
vn 0.1722871 -0.3607729 -0.9166024
vn 0.1646585 -0.8652211 -0.4735822
vn 0.1811472 0.9827021 0.03849978
vn 0.1973672 0.9458536 0.2576958
vn 0.1517879 0.4968738 0.8544453
vn 0.11657 0.3001391 0.946746
vn 0.2026545 0.8410473 0.501568
vn 0.1587091 0.7929873 0.5882027
vn 0.1540893 0.6182432 0.7707346
vn 0.1535736 0.9603513 0.2326811
vn 0.1599326 0.9139764 0.3729191
vn 0.1744202 0.9773343 0.1199804
vn 0.1338415 0.9844316 0.1139332
vn 0.1368358 0.9898521 0.03832513
vn 0.1883271 0.982064 -0.00911567
vn 0.145665 0.9893339 0.0002759621
vn 0.1045778 0.3645232 0.9253033
vn 0.1133838 0.8898795 0.4418809
vn 0.1235485 0.9583684 0.2574212
vn 0.1132001 0.5777493 0.8083264
vn 0.08738495 0.3527298 0.931636
vn 0.07903168 0.2070231 0.9751387
vn 0.08742236 0.5123832 0.8542956
vn 0.112691 0.9918938 0.05871424
vn 0.09232619 0.9848728 0.1466337
vn 0.1075404 0.7820246 0.6138995
vn 0.09819835 0.9477301 0.3035867
vn 0.08862586 0.9184044 0.385589
vn 0.08297331 0.7682811 0.6347123
vn 0.0751025 0.9754047 0.2072325
vn 0.07796156 0.9947063 0.06694373
vn 0.068087 0.3365725 0.9391928
vn 0.06046415 0.2444719 0.9677694
vn 0.07027853 0.4944148 0.8663804
vn 0.0920273 0.6281743 0.7726111
vn 0.05628604 0.2024917 0.977665
vn 0.0636967 0.1667894 0.9839329
vn 0.07331453 0.9120346 0.4035071
vn 0.07248087 0.7689285 0.635213
vn 0.06684669 0.979566 0.1896892
vn 0.06909799 0.9919445 0.1061681
vn 0.06772704 0.9967679 0.04320688
vn 0.07623221 0.9970439 0.00958743
vn 0.08933759 0.9959254 -0.01230312
vn 0.05864736 0.3281566 0.942801
vn 0.05776132 0.2157459 0.9747397
vn 0.056049 0.995221 0.07996033
vn 0.06983494 0.9975585 -0.0001775355
vn 0.06620082 0.9977522 0.01039788
vn 0.07999707 0.5591847 0.8251745
vn 0.04501181 0.5190173 0.8535777
vn 0.01523309 0.9159347 0.4010381
vn 0.1242896 -0.3925643 0.9112878
vn 0.1027806 0.04001455 0.9938989
vn 0.08413223 0.09984889 0.9914393
vn 0.09226983 0.1579615 0.9831249
vn 0.07646108 -0.8209713 0.5658268
vn 0.1062246 -0.9938892 -0.03001219
vn 0.06517414 0.08057223 0.9946157
vn 0.09298277 0.03312865 0.9951165
vn 0.1158501 -0.01588339 0.9931397
vn 0.07940571 0.0273356 0.9964675
vn -0.1277974 -0.9309002 0.342188
vn 0.03286249 -0.9819856 0.186076
vn -0.2157373 -0.7831683 0.5831851
vn -0.1298593 -0.2212382 0.9665352
vn 0.04596712 -0.3601302 0.9317688
vn 0.06935074 0.0258644 0.9972569
vn 0.06936634 -0.009527255 0.9975458
vn 0.05153519 0.08008669 0.9954548
vn -0.09843762 0.05181753 0.9937932
vn 0.052798 0.08608703 0.9948876
vn 0.02739303 0.103572 0.9942447
vn 0.05131857 0.1383185 0.9890574
vn 0.04189463 -0.9959448 0.07961667
vn 0.03438184 -0.9994025 0.003536048
vn 0.08111484 -0.9961245 0.03400433
vn 0.08781397 -0.9854116 0.1457832
vn 0.0594338 0.09239436 0.9939471
vn 0.06995727 0.1277866 0.9893314
vn 0.1375116 0.9816873 -0.1318354
vn 0.1119653 0.9723942 -0.204727
vn 0.09144564 0.9894937 -0.1119825
vn 0.1070765 0.9929371 -0.05109226
vn 0.1147754 0.9933907 -0.001261827
vn 0.06472239 0.1507765 -0.9864469
vn 0.09213785 0.1302189 -0.9871948
vn 0.07349085 0.09714601 -0.9925531
vn 0.08344477 0.2136813 -0.9733331
vn 0.08401527 0.2825491 -0.9555665
vn 0.07561777 0.3957009 -0.9152611
vn 0.08518074 0.597322 -0.7974651
vn 0.1230479 0.3547028 -0.9268469
vn 0.1373424 0.7735702 -0.6186486
vn 0.120824 0.5811143 -0.8048029
vn 0.1703086 0.8502223 -0.4981135
vn 0.1222545 0.9107994 -0.3943326
vn 0.1594067 0.9502057 -0.2677662
vn 0.1534104 0.98677 -0.05244234
vn 0.09397931 0.2494895 -0.9638065
vn 0.1165044 0.1862258 -0.975575
vn 0.1431226 0.5250806 -0.8389317
vn 0.169979 0.6925045 -0.7011025
vn 0.2001849 0.9092409 -0.3649756
vn 0.1806213 0.9756408 -0.124503
vn 0.191776 0.9797332 -0.05783496
vn 0.05966777 0.2338682 -0.9704357
vn 0.1040877 0.8024086 -0.5876276
vn 0.2070631 0.9736419 -0.09563754
vn 0.1995869 0.9589221 -0.2015775
vn 0.0984255 0.9563807 -0.2750424
vn 0.09106489 0.9404106 -0.3276203
vn 0.0855006 0.8915892 -0.4447003
vn 0.08811366 0.6612049 -0.7450128
vn 0.1362543 0.45981 -0.8775018
vn 0.05752184 0.3548292 -0.9331599
vn -0.01761415 0.4846408 -0.8745359
vn 0.05524695 0.1525573 -0.9867492
vn 0.09515723 0.9943254 -0.04756092
vn 0.06325755 0.9944396 -0.08419286
vn 0.07333095 0.9749776 -0.2098604
vn 0.06256332 0.9891344 -0.1330373
vn 0.07485738 0.7864973 -0.6130402
vn 0.07011902 0.919246 -0.3873887
vn 0.04906499 0.6017746 -0.7971575
vn 0.05233464 0.209965 -0.9763072
vn 0.06815118 0.3791524 -0.9228212
vn 0.04522601 0.1841083 -0.9818649
vn 0.05552773 0.1206033 -0.9911466
vn 0.06944105 0.9971689 -0.0288451
vn 0.0184636 0.9932845 -0.1142155
vn 0.05886531 0.9732879 -0.2219136
vn 0.02449751 0.7699619 -0.6376194
vn 0.05608362 0.4713128 -0.8801812
vn 0.03994075 0.2427894 -0.9692565
vn -0.02627892 0.3002157 -0.9535093
vn 0.05782831 0.1282433 -0.9900553
vn 0.02461039 0.1391379 -0.9899672
vn 0.1068037 -0.01779509 -0.9941209
vn 0.07689916 -0.3573548 -0.9307975
vn 0.07327954 -0.9865401 -0.1461802
vn 0.1149808 -0.8118426 -0.5724429
vn 0.08716469 0.01711137 -0.996047
vn 0.06882521 0.08153702 -0.9942911
vn 0.09516441 0.01906868 -0.9952789
vn 0.1102352 0.08792905 -0.9900084
vn 0.1460958 0.04190288 -0.9883826
vn 0.1214751 0.0009838952 -0.992594
vn 0.1272317 0.1402276 -0.9819106
vn 0.1662299 -0.0168114 -0.9859437
vn 0.09200341 0.05321231 -0.9943359
vn 0.02485841 -0.811743 -0.5834855
vn 0.06953294 0.01083505 -0.9975208
vn 0.04442984 0.003896724 -0.999005
vn 0.05479136 0.09740429 -0.9937355
vn -0.07060429 0.06839915 -0.9951566
vn 0.0394962 0.0289278 -0.9988009
vn 0.0490857 0.04546844 -0.9977591
vn 0.0003954518 -0.9922838 -0.1239873
vn -0.1184673 -0.9315668 -0.3437279
vn -0.3197156 -0.7787501 -0.5397501
vn -0.5856192 0.3518806 0.7302262
vn -0.1580126 0.2723139 0.9491456
vn -0.3048835 0.3818631 0.8724831
vn 0.9996921 0.01806107 0.01701334
vn 0.9994097 0.01391997 0.03140694
vn 0.9990845 0.01003305 0.04158665
vn 0.002613785 0.3150783 0.949062
vn -0.1071502 0.7077017 0.6983389
vn -0.2473255 0.4985098 0.8308538
vn -0.07358618 0.1821194 0.9805191
vn 0.05751667 0.1484678 0.9872432
vn -0.2212055 0.1895596 0.9566271
vn 0.9941469 0.0005559569 0.1080358
vn 0.001939297 0.3334415 -0.9427688
vn 0.002899441 0.7742129 -0.6329186
vn 0.002491476 0.4236228 -0.9058353
vn -0.1291603 0.9880499 0.08411309
vn -0.07156426 0.9954758 -0.06250086
vn -0.2921831 0.9552195 0.04674025
vn -0.4473642 0.8688669 -0.2119802
vn 0.001232377 -0.0007018605 0.999999
vn -0.002915825 0.0005285251 0.9999956
vn 0.0103898 -0.0005860859 0.9999458
vn -0.7519405 0.2208418 -0.6211395
vn -0.7876415 0.5560652 -0.2653534
vn -0.9463611 0.3118413 -0.0845907
vn -0.01905968 0.9900579 0.1393629
vn -0.3941109 0.8834939 0.2532095
vn -0.08857643 0.9928454 0.08007561
vn -0.6555997 0.649817 0.3846126
vn -0.1877981 0.9821703 0.008562417
vn -0.745813 0.6645296 0.04651085
vn -0.5700107 0.817893 -0.07835146
vn 0.6510925 0.7585607 0.02577237
vn 0.5340785 0.8355166 0.1291206
vn 0.3275263 0.9446856 0.01719934
vn -0.2208005 0.6750569 0.7039498
vn -0.3453283 0.8333937 0.4315129
vn 0.7730048 0.5734888 0.2712456
vn 0.7653666 0.5292892 0.3661517
vn -0.7827042 0.6043504 0.1487776
vn 0.7512217 0.6236976 0.2160259
vn 0.7025452 0.7044384 0.1009792
vn -0.6010736 0.7716992 -0.2078241
vn -0.1464966 0.9891818 0.007619948
vn -0.1806799 0.1177217 0.9764714
vn 0.9831589 -0.01019556 0.1824683
vn 0.9550639 0.03104048 0.2947701
vn 0.0347453 -0.001246752 0.9993955
vn -0.276858 0.05901302 0.9590971
vn 0.9842204 -0.01667835 0.1761591
vn -0.009545243 -0.9943222 0.1059816
vn -0.1338715 -0.9909689 -0.007681179
vn 0.08557022 -0.9962235 0.01471127
vn 0.3070533 -0.9452074 0.1109106
vn -0.04103799 -0.8721035 0.4875976
vn -0.4061559 -0.8995779 0.1606144
vn -0.03446807 -0.9993086 -0.01392992
vn -0.314303 0.8945905 0.3176815
vn -0.3262852 0.9390085 0.1086334
vn -0.1719357 0.9784607 0.1142485
vn -0.5931671 0.8037286 0.046618
vn -0.1518491 0.0565697 -0.9867835
vn -0.01255599 0.002466572 -0.9999182
vn -0.4715301 0.1005603 -0.8760976
vn -0.4262882 -0.398755 0.8119562
vn -0.4524697 -0.7336347 0.5070023
vn -0.8481779 0.05168566 0.527184
vn -0.9092195 -0.3439627 0.234541
vn -0.8095791 -0.1428594 0.5693617
vn -0.0006091483 -0.9998886 0.01491218
vn 0.002985289 -0.9947336 0.10245
vn -0.9985598 0.05353795 0.00347171
vn -0.9763659 0.07168476 0.2038896
vn -0.9184597 -0.3821015 0.1021289
vn -0.6471042 0.7623969 0.002686185
vn -0.8315716 0.3639813 -0.4195309
vn -0.4574834 -0.8890488 0.01735295
vn -0.9123096 -0.4004457 -0.08564077
vn -0.1262455 0.2113168 -0.9692302
vn -0.1640038 0.2744366 -0.9475164
vn -0.1351457 0.5566373 -0.8196893
vn -0.4175059 0.3512224 -0.8380523
vn -0.345979 0.4973287 -0.7955895
vn 0.9263301 0.2963511 -0.2325694
vn 0.9373465 0.348095 -0.01454458
vn 0.774426 0.6321472 -0.02557799
vn 0.9734617 0.2012569 -0.1089395
vn 0.9121634 0.2948425 -0.2846502
vn 0.9053593 0.1229561 -0.4064558
vn -0.327531 0.8326471 -0.446567
vn -0.2979849 0.7293057 -0.6158881
vn 0.02006926 0.9197512 -0.3919885
vn 0.9186089 0.3866062 -0.08181331
vn -0.2446871 0.9420249 -0.2296023
vn -0.02170965 0.997499 -0.06726345
vn -0.2100492 0.09724274 -0.9728428
vn -0.3100673 0.1496688 -0.9388596
vn 0.187307 0.0007256081 -0.9823012
vn 0.05326201 -0.002492916 -0.9985775
vn 0.05440849 0.003705984 -0.9985119
vn -0.03740125 0.988458 -0.1468057
vn -0.3928171 0.7773991 -0.491269
vn 0.02464435 0.9995505 -0.01706699
vn -0.2146204 0.9766842 0.005108007
vn -0.2232729 0.9747313 -0.006942614
vn -0.4834153 0.2519455 0.8383514
vn -0.6691558 0.1235854 0.7327736
vn -0.7155637 0.107851 0.6901714
vn -0.00104081 -0.006478777 -0.9999785
vn -0.0009414208 0.005631893 -0.9999837
vn 5.164911e-05 0.003907177 0.9999924
vn -0.007564853 -0.0005066104 0.9999712
vn -0.009105451 0.01130823 0.9998946
vn 0.0003559628 0.04664552 0.9989115
vn -0.6581847 -0.5639636 -0.4987365
vn -0.8230422 -0.5490259 -0.1455057
vn -0.2246767 -0.332669 -0.9158885
vn 0.9412238 -0.3259258 -0.08871368
vn 0.9905493 -0.1274057 -0.05079236
vn 0.8118775 -0.5804639 -0.0625833
vn 0.01078049 -0.9987111 -0.04959731
vn -0.03846965 -0.9788927 -0.2007215
vn -0.3847049 -0.7200033 -0.5775788
vn -0.03668318 -0.5508691 -0.8337851
vn 0.007865302 -0.4238432 -0.9057014
vn -0.2047281 -0.9787834 -0.008340545
vn 0.009835876 -0.9999511 -0.0009417694
vn 0.01353843 -0.9999012 0.003788339
vn 0.7494857 -0.6587148 -0.06607568
vn 0.8021013 -0.5895487 -0.09521531
vn -0.03701428 0.0438548 0.998352
vn -0.03131833 0.02184658 0.9992707
vn -0.2685863 0.3288549 0.9053816
vn -0.6685756 0.08473024 -0.7388014
vn -0.53805 0.04691128 -0.8416066
vn -0.8872257 0.08667863 -0.4531195
vn -0.05433124 -0.3318589 -0.9417631
vn -0.4331224 -0.8868974 -0.1606795
vn -0.2469264 -0.9690024 -0.007864612
vn -0.3309441 -0.943604 -0.009352309
vn -0.3796474 -0.9248216 -0.02393565
vn -0.4156094 -0.2509193 -0.8742473
vn -0.0972714 -0.9952478 0.004475044
vn -0.0213213 -0.001038889 0.9997722
vn -0.1609102 0.9869689 -0.0005779933
vn -0.1638464 0.9864858 -0.0001092569
vn -0.2944765 0.9556584 0.0007214033
vn -0.2139003 -0.9767467 -0.01457995
vn -0.9365079 0.3506403 0.002063698
vn -0.9892795 0.09706526 -0.1091075
vn -0.8452863 -0.3152727 -0.4313863
vn -0.09864286 0.7267918 -0.6797376
vn -0.004489258 -0.002390432 -0.9999871
vn -0.00103495 -0.008728659 -0.9999614
vn 0.00542923 0.001627302 0.9999839
vn 0.0001079058 -0.003823816 0.9999927
vn -0.001602168 -0.01180867 -0.999929
vn 0.002201323 0.0008527145 0.9999973
vn 5.390799e-05 0.003350917 0.9999945
vn -0.9028759 -0.4296383 0.01503739
vn -0.8109316 -0.5845049 -0.02727829
vn -0.6966876 -0.7173277 0.008205887
vn -0.005641767 0.0005615549 -0.999984
vn -0.02920802 -0.001646216 -0.999572
vn -0.008994007 -0.003611154 -0.9999531
vn -0.9973335 -0.06972099 0.02156152
vn -0.9679388 -0.2504344 -0.01941972
vn -0.4025132 -0.9153776 0.008186835
vn -0.4714779 -0.8817374 -0.01573817
vn -0.01824758 -0.01055554 0.9997778
vn -0.0002865291 -0.002067736 0.9999978
vn -0.9077957 0.4189885 -0.01885695
vn -0.9557525 0.2936687 0.01720241
vn -0.807471 0.5895464 0.02062891
vn 0.008080046 5.471247e-05 -0.9999674
vn -0.5095327 0.8602659 0.01786694
vn -0.7109155 0.7031624 -0.01272
vn -0.01341566 0.008783138 0.9998714
vn -0.4171633 0.9087711 -0.01048531
vn -0.006218184 -0.1442625 -0.9895199
vn -0.001254581 -0.01213939 -0.9999256
vn -0.001968116 -0.007324 0.9999712
vn -0.003536941 0.001947252 0.9999919
vn -0.00482776 0.1286694 0.9916757
vn -0.0003869162 0.01394132 0.9999028
vn -0.00497537 0.1456954 -0.989317
vn -0.001491506 0.01216714 -0.9999249
vn -0.01027137 -0.000140109 -0.9999472
vn -0.04272607 0.001380066 -0.9990858
vn -0.05364425 -0.001028502 -0.9985596
vn -0.7713535 0.6361977 -0.0163196
vn -0.9539608 0.2996432 -0.01314228
vn -0.918934 0.3941278 0.01495374
vn -0.9992976 0.03419138 0.01533678
vn -0.04229634 0.006411762 0.9990845
vn -0.7089265 0.7052305 0.008552646
vn -0.1226375 0.9924515 0.0003160158
vn -0.09490537 0.9954621 -0.006945821
vn -0.1362315 0.9906644 0.00500546
vn -0.4425288 0.8967366 -0.005631088
vn -0.4083818 0.9128088 0.002097622
vn -0.01424411 -0.01765516 0.9997427
vn -0.01348076 -0.0001102566 -0.9999092
vn 0.8434013 0.5372192 -0.008351656
vn 0.2392537 0.85266 0.4644659
vn 0.4860106 -0.8738532 -0.01320133
vn 0.05614664 0.1342101 0.989361
vn 0.05700882 -0.9954262 -0.0766595
vn 0.5002806 -0.3921536 -0.7719682
vn 0.0006857564 -0.001618911 0.9999985
vn -0.05802487 0.9525995 0.2986429
vn -0.9514316 0.3078601 5.861452e-05
vn 0.05019172 0.9987367 -0.002422901
vn -0.4887854 0.8724003 0.002573841
vn 0.9996701 0.01640892 0.01975669
vn -0.9611117 0.2169655 0.1708519
vn -0.2853071 -0.1662792 0.9439021
vn 0.554196 -0.8195097 0.1458438
vn 0.6840138 -0.6223801 0.3804843
vn -0.5902265 -0.742618 0.3164668
vn -0.6500713 -0.7016066 0.2918139
vn -0.003091064 -0.3366579 0.941622
vn -0.7288854 -0.04166827 0.6833667
vn -0.6455617 0.3645526 -0.6710823
vn 0.1821153 0.0004947825 -0.9832771
vn 0.9996256 0.0006441472 -0.02735239
vn 0.9996032 0.0001786706 -0.02816888
vn 0.6892584 0.1468557 -0.7094761
vn 0.6973959 0.1450686 -0.7018505
vn 0.9704458 0.03903213 -0.2381417
vn 0.1183914 0.9563545 -0.2671506
vn 0.02966582 0.08347362 0.9960684
vn 0.002534663 0.0687082 0.9976336
vn -0.03332951 0.1923426 -0.9807617
vn -0.008467441 0.02520565 -0.9996464
vn -0.1034999 0.9946203 -0.004295948
vn -0.3185166 0.9479132 0.002775769
vn -0.3049492 0.9523258 0.009027709
vn -0.9823008 0.1873102 0.0003676976
vn -0.475747 -0.1195838 -0.8714153
vn -0.09063556 0.6177611 0.781125
vn -0.006319897 0.009365529 -0.9999362
vn -0.1020683 -0.2607679 -0.9599907
vn -0.09578896 -0.9954002 0.00172312
vn -0.2638385 0.9645655 -0.001612328
vn -0.6471852 -0.7166595 -0.2599045
vn -0.1136178 -0.9934444 -0.0126174
vn -0.1277464 -0.9917789 -0.007449724
vn -0.9964135 0.08353893 -0.01347022
vn -0.002109856 -0.01271567 -0.999917
vn -0.02248814 0.01131502 0.999683
vn -0.00685068 0.004465782 -0.9999666
vn 0.001568155 -0.4851563 0.8744261
vn -0.06960703 3.549825e-05 -0.9975745
vn -0.9985558 -0.05264298 -0.01072412
vn -0.2580604 0.01333064 0.9660368
vn -0.2688698 -0.963048 0.01573113
vn -0.4542965 -0.8907275 -0.01480754
vn -0.9367117 -0.3499417 0.0105815
vn -0.9181299 -0.3962645 -0.003451097
vn -0.7113311 -0.7026646 0.01645151
vn -0.7424113 -0.6699309 -0.004257793
f 25//1 22//2 23//3
f 22//2 26//4 100//5
f 22//2 100//5 98//6
f 22//2 21//7 23//3
f 10//8 12//9 27//10
f 19//11 10//8 27//10
f 20//12 10//8 19//11
f 19//11 24//13 20//12
f 27//10 26//4 25//1
f 27//10 28//14 26//4
f 25//1 23//3 19//11
f 26//4 28//14 101//15
f 19//11 64//16 24//13
f 64//16 97//17 61//18
f 131//19 61//18 97//17
f 18//20 59//21 4//22
f 18//20 4//22 20//12
f 13//23 86//24 16//25
f 15//26 14//27 13//23
f 8//28 14//27 15//26
f 12//9 15//26 17//29
f 11//30 10//8 5//31
f 5//31 9//32 11//30
f 11//30 9//32 3//33
f 8//28 7//34 14//27
f 11//30 3//33 8//28
f 3//33 7//34 8//28
f 1//35 68//36 78//37
f 6//38 40//39 9//32
f 5//31 4//22 6//38
f 39//40 40//39 6//38
f 4//22 42//41 39//40
f 40//39 37//42 3//33
f 45//43 43//44 52//45
f 52//45 43//44 36//46
f 43//44 33//47 36//46
f 158//48 33//47 43//44
f 31//49 30//50 32//51
f 204//52 31//49 33//47
f 34//53 31//49 32//51
f 33//47 38//54 36//46
f 34//53 35//55 38//54
f 36//46 38//54 41//56
f 29//57 138//58 1//35
f 2//59 29//57 1//35
f 196//60 29//57 2//59
f 203//61 196//60 37//42
f 35//55 32//51 39//40
f 35//55 39//40 38//54
f 38//54 39//40 41//56
f 46//62 44//63 45//43
f 47//64 46//62 45//43
f 48//65 123//66 111//67
f 49//68 123//66 48//65
f 55//69 123//66 50//70
f 138//58 195//71 135//72
f 58//73 36//46 41//56
f 53//74 52//45 58//73
f 54//75 57//76 46//62
f 54//75 46//62 47//64
f 53//74 54//75 47//64
f 55//69 124//77 123//66
f 55//69 56//78 132//79
f 57//76 62//80 50//70
f 50//70 56//78 55//69
f 62//80 56//78 50//70
f 53//74 58//73 59//21
f 58//73 41//56 59//21
f 61//18 132//79 60//81
f 63//82 65//83 60//81
f 66//84 63//82 54//75
f 67//85 54//75 53//74
f 101//15 100//5 26//4
f 103//86 87//87 102//88
f 102//88 87//87 99//89
f 101//15 102//88 100//5
f 100//5 102//88 96//90
f 96//90 102//88 93//91
f 93//91 80//92 74//93
f 97//17 98//6 95//94
f 95//94 96//90 94//95
f 95//94 126//96 129//97
f 94//95 93//91 92//98
f 74//93 91//99 93//91
f 92//98 93//91 91//99
f 91//99 147//100 90//101
f 71//102 143//103 69//104
f 70//105 69//104 144//106
f 147//100 73//107 146//108
f 76//109 69//104 70//105
f 75//110 71//102 69//104
f 68//36 72//111 71//102
f 78//37 68//36 77//112
f 79//113 70//105 73//107
f 74//93 79//113 73//107
f 80//92 79//113 74//93
f 79//113 81//114 76//109
f 80//92 82//115 79//113
f 82//115 80//92 99//89
f 81//114 75//110 76//109
f 81//114 77//116 75//110
f 83//117 77//116 81//114
f 83//117 85//118 77//116
f 84//119 85//118 83//117
f 86//24 78//120 85//118
f 88//121 84//119 87//87
f 113//122 240//123 105//124
f 107//125 106//126 104//127
f 107//125 116//128 106//126
f 109//129 108//130 107//125
f 110//131 120//132 109//129
f 108//130 109//129 120//132
f 113//122 141//133 240//123
f 113//122 142//134 141//133
f 114//135 115//136 113//122
f 117//137 113//122 106//126
f 117//137 106//126 116//128
f 118//138 117//137 116//128
f 118//138 119//139 117//137
f 118//138 116//128 108//130
f 120//132 121//140 108//130
f 122//141 121//140 120//132
f 112//142 120//132 110//131
f 120//132 124//77 122//141
f 125//143 115//136 114//135
f 90//101 115//136 125//143
f 126//96 119//139 121//140
f 127//144 125//143 117//137
f 132//79 131//19 130//145
f 129//97 130//145 131//19
f 124//77 128//146 122//141
f 123//66 124//77 112//142
f 145//147 144//106 140//148
f 142//134 115//136 145//147
f 145//147 139//149 142//134
f 138//58 72//111 68//36
f 276//150 143//103 72//111
f 142//134 139//149 141//133
f 140//148 69//104 275//151
f 143//103 134//152 275//151
f 48//65 111//67 162//153
f 163//154 49//68 48//65
f 45//43 159//155 43//44
f 43//44 159//155 157//156
f 44//63 159//155 45//43
f 49//68 163//154 164//157
f 156//158 152//159 164//157
f 154//160 155//161 163//154
f 164//157 155//161 156//158
f 163//154 48//65 161//162
f 161//162 48//65 162//153
f 154//160 161//162 153//163
f 160//164 238//165 229//166
f 162//153 160//164 161//162
f 159//155 44//63 152//159
f 157//156 159//155 150//167
f 192//168 154//160 190//169
f 152//159 151//170 150//167
f 151//170 188//171 150//167
f 150//167 188//171 148//172
f 189//173 188//171 151//170
f 153//163 149//174 179//175
f 151//170 184//176 189//173
f 192//168 191//177 184//176
f 181//178 182//179 184//176
f 191//177 179//175 180//180
f 149//174 186//181 179//175
f 177//182 175//183 188//171
f 178//184 189//173 183//185
f 178//184 177//182 189//173
f 175//183 176//186 187//187
f 183//185 184//176 182//179
f 183//185 182//179 178//184
f 182//179 170//188 171//189
f 181//178 191//177 180//180
f 181//178 180//180 169//190
f 181//178 169//190 170//188
f 174//191 186//181 185//192
f 186//181 268//193 263//194
f 167//195 176//186 177//182
f 167//195 165//196 176//186
f 178//184 167//195 177//182
f 176//186 175//183 177//182
f 172//197 254//198 253//199
f 168//200 171//189 306//201
f 170//188 309//202 171//189
f 168//200 306//201 167//195
f 213//203 196//60 203//61
f 201//204 30//50 204//52
f 198//205 201//204 202//206
f 204//52 30//50 31//49
f 213//203 210//207 196//60
f 195//71 290//208 135//72
f 193//209 197//210 198//205
f 197//210 200//211 201//204
f 194//212 200//211 197//210
f 314//213 317//214 319//215
f 321//216 205//217 211//218
f 319//215 317//214 210//207
f 321//216 211//218 207//219
f 323//220 206//221 208//222
f 325//223 208//222 166//224
f 316//225 378//226 282//227
f 316//225 282//227 199//228
f 317//214 316//225 199//228
f 209//229 207//219 211//218
f 317//214 199//228 210//207
f 211//218 213//203 194//212
f 209//229 211//218 193//209
f 209//229 193//209 214//230
f 227//231 218//232 262//233
f 219//234 227//231 262//233
f 220//235 219//234 268//193
f 291//236 274//237 269//238
f 221//239 291//236 216//240
f 222//241 216//240 217//242
f 231//243 221//239 222//241
f 224//244 223//245 217//242
f 234//246 224//244 225//247
f 226//248 234//246 225//247
f 227//231 226//248 218//232
f 228//249 227//231 219//234
f 220//235 229//166 219//234
f 230//250 215//251 274//237
f 231//243 215//251 230//250
f 223//245 233//252 222//241
f 232//253 233//252 223//245
f 235//254 234//246 226//248
f 237//255 226//248 227//231
f 239//256 237//255 228//249
f 216//240 291//236 264//257
f 240//123 215//251 231//243
f 104//127 105//124 232//253
f 104//127 234//246 235//254
f 266//258 224//244 217//242
f 107//125 104//127 235//254
f 239//256 241//259 236//260
f 110//131 241//259 238//165
f 218//232 225//247 260//261
f 260//261 225//247 266//258
f 267//262 260//261 266//258
f 267//262 266//258 259//263
f 259//263 266//258 256//264
f 217//242 265//265 266//258
f 265//265 258//266 257//267
f 264//257 291//236 288//268
f 263//194 261//269 254//198
f 254//198 261//269 251//270
f 250//271 262//233 260//261
f 251//270 250//271 249//272
f 250//271 267//262 259//263
f 259//263 247//273 246//274
f 256//264 245//275 247//273
f 258//266 264//257 255//276
f 257//267 258//266 256//264
f 243//277 255//276 242//278
f 255//276 287//279 242//278
f 254//198 251//270 252//280
f 254//198 252//280 253//199
f 252//280 249//272 367//281
f 249//272 248//282 367//281
f 250//271 248//282 249//272
f 246//274 247//273 360//283
f 247//273 245//275 360//283
f 245//275 244//284 360//283
f 243//277 351//285 244//284
f 353//286 244//284 351//285
f 243//277 242//278 351//285
f 242//278 287//279 393//287
f 268//193 219//234 262//233
f 263//194 262//233 261//269
f 351//285 393//287 392//288
f 218//232 260//261 262//233
f 270//289 275//151 385//290
f 289//291 271//292 134//152
f 286//293 270//289 385//290
f 285//294 272//295 286//293
f 269//238 272//295 285//294
f 276//150 289//291 134//152
f 275//151 134//152 271//292
f 135//72 290//208 276//150
f 278//296 136//297 277//298
f 215//251 137//299 278//296
f 277//298 133//300 275//151
f 277//298 270//289 273//301
f 274//237 278//296 273//301
f 278//296 277//298 273//301
f 385//290 271//292 384//302
f 284//303 286//293 283//304
f 393//287 280//305 389//306
f 281//307 283//304 390//308
f 289//291 410//309 386//310
f 387//311 384//302 386//310
f 287//279 269//238 285//294
f 310//312 302//313 303//314
f 302//315 298//316 299//317
f 303//314 301//318 306//201
f 305//319 303//314 306//201
f 304//320 303//314 305//319
f 324//321 165//196 301//318
f 324//321 325//223 300//322
f 302//313 324//321 301//318
f 299//323 324//321 302//313
f 298//316 292//324 299//317
f 293//325 296//326 294//327
f 348//328 347//329 296//330
f 296//330 347//329 346//331
f 298//332 420//333 315//334
f 293//335 294//336 341//337
f 173//338 172//197 308//339
f 172//197 311//340 308//339
f 344//341 341//337 294//336
f 311//340 253//199 368//342
f 365//343 368//342 364//344
f 298//345 312//346 295//347
f 305//319 309//202 308//339
f 310//348 305//319 307//349
f 305//319 310//348 304//320
f 312//346 310//350 348//351
f 307//349 308//339 297//352
f 307//353 297//354 348//351
f 365//343 362//355 297//352
f 295//347 312//346 432//356
f 206//221 323//220 325//223
f 324//321 206//221 325//223
f 292//357 206//221 324//321
f 292//324 320//358 322//359
f 315//334 320//360 298//332
f 206//221 322//361 321//216
f 320//358 318//362 322//359
f 340//363 316//225 317//214
f 340//363 378//226 316//225
f 425//364 313//365 315//366
f 329//367 335//368 340//363
f 340//363 394//369 378//226
f 330//370 331//371 327//372
f 333//373 331//371 330//370
f 333//374 330//375 332//376
f 328//377 338//378 329//367
f 327//379 337//380 326//381
f 337//380 338//378 326//381
f 313//365 414//382 328//383
f 326//381 328//377 327//379
f 401//384 337//380 402//385
f 337//380 336//386 335//368
f 408//387 333//373 339//388
f 335//368 336//386 334//389
f 401//384 400//390 336//386
f 351//285 391//391 350//392
f 353//286 351//285 350//392
f 356//393 354//394 355//395
f 356//393 353//286 350//392
f 345//396 352//397 371//398
f 345//396 355//399 352//397
f 357//400 355//399 345//396
f 358//401 357//400 345//396
f 359//402 356//393 357//403
f 359//402 360//283 356//393
f 361//404 360//283 359//402
f 362//405 357//400 358//401
f 362//355 359//402 357//403
f 363//406 362//355 364//344
f 367//281 363//406 364//344
f 252//280 366//407 368//342
f 391//391 388//408 349//409
f 382//410 377//411 371//412
f 348//328 358//413 347//329
f 347//329 343//414 346//331
f 252//280 367//281 366//407
f 253//199 252//280 368//342
f 371//415 374//416 375//417
f 346//331 344//341 294//336
f 343//418 344//341 346//331
f 342//419 344//341 343//418
f 343//418 413//420 342//419
f 371//412 435//421 370//422
f 369//423 413//424 373//425
f 343//426 373//425 413//424
f 392//288 393//287 389//306
f 387//311 386//310 380//427
f 386//310 379//428 380//427
f 385//290 387//311 383//429
f 382//430 381//431 380//432
f 378//226 394//369 376//433
f 407//434 399//435 386//310
f 386//310 399//435 412//436
f 412//436 379//437 386//310
f 412//438 377//439 379//440
f 380//432 379//441 377//442
f 409//443 434//444 408//445
f 434//446 405//447 397//448
f 377//411 403//449 435//421
f 398//450 399//435 407//434
f 405//451 403//452 406//453
f 412//436 399//435 404//454
f 405//451 435//455 403//452
f 398//450 407//434 410//309
f 442//456 434//444 409//443
f 331//371 397//457 402//458
f 408//387 434//459 331//371
f 394//369 398//450 410//309
f 403//452 411//460 406//453
f 412//438 406//453 411//460
f 409//461 339//388 341//337
f 401//384 396//462 400//390
f 399//435 395//463 404//454
f 334//389 398//450 394//369
f 334//389 400//390 398//450
f 296//326 293//325 431//464
f 431//464 330//375 415//465
f 330//375 414//466 415//465
f 420//333 423//467 425//468
f 414//466 424//469 415//465
f 430//470 420//333 432//471
f 416//472 415//473 422//474
f 419//475 418//476 417//477
f 420//478 418//479 416//472
f 423//480 422//474 421//481
f 422//474 415//473 421//481
f 420//333 416//482 422//483
f 420//333 422//483 423//467
f 419//484 427//485 428//486
f 415//465 419//475 426//487
f 430//488 426//489 428//486
f 428//490 420//333 430//470
f 430//488 429//491 426//489
f 432//356 429//491 430//488
f 435//421 443//492 438//493
f 444//494 434//444 442//456
f 448//495 442//456 409//443
f 452//496 449//497 369//423
f 451//498 370//422 450//499
f 437//500 441//501 445//502
f 446//503 445//504 447//505
f 445//504 436//506 447//505
f 447//507 442//456 448//495
f 448//508 446//503 447//505
f 452//509 369//510 451//511
f 450//512 446//503 448//508
f 449//513 450//512 448//508
f 452//509 450//512 449//513
f 442//456 439//514 444//494
f 450//499 437//500 446//515
f 28//14 17//29 16//25
f 27//10 17//29 28//14
f 28//14 16//25 89//516
f 103//86 28//14 89//516
f 22//2 25//1 26//4
f 27//10 12//9 17//29
f 19//11 27//10 25//1
f 24//13 64//16 65//83
f 24//13 66//84 18//20
f 66//84 24//13 65//83
f 64//16 23//3 21//7
f 19//11 23//3 64//16
f 21//7 22//2 98//6
f 97//17 64//16 21//7
f 20//12 4//22 5//31
f 18//20 20//12 24//13
f 17//29 13//23 16//25
f 17//29 15//26 13//23
f 89//516 16//25 88//121
f 14//27 7//34 78//37
f 13//23 14//27 78//120
f 78//37 7//34 1//35
f 13//23 78//120 86//24
f 10//8 11//30 12//9
f 5//31 6//38 9//32
f 5//31 10//8 20//12
f 9//32 40//39 3//33
f 2//59 1//35 7//34
f 7//34 3//33 2//59
f 15//26 12//9 11//30
f 6//38 4//22 39//40
f 3//33 37//42 2//59
f 15//26 11//30 8//28
f 1//35 138//58 68//36
f 44//63 51//517 164//157
f 32//51 30//50 203//61
f 158//48 204//52 33//47
f 33//47 31//49 34//53
f 35//55 34//53 32//51
f 33//47 34//53 38//54
f 37//42 196//60 2//59
f 32//51 203//61 37//42
f 39//40 32//51 37//42
f 40//39 39//40 37//42
f 42//41 41//56 39//40
f 46//62 51//517 44//63
f 29//57 195//71 138//58
f 49//68 50//70 123//66
f 51//517 57//76 49//68
f 57//76 50//70 49//68
f 58//73 52//45 36//46
f 53//74 47//64 52//45
f 46//62 57//76 51//517
f 54//75 63//82 57//76
f 63//82 62//80 57//76
f 47//64 45//43 52//45
f 55//69 132//79 124//77
f 4//22 41//56 42//41
f 4//22 59//21 41//56
f 67//85 59//21 18//20
f 60//81 132//79 56//78
f 61//18 131//19 132//79
f 63//82 56//78 62//80
f 63//82 60//81 56//78
f 65//83 64//16 60//81
f 64//16 61//18 60//81
f 66//84 54//75 67//85
f 66//84 65//83 63//82
f 67//85 18//20 66//84
f 59//21 67//85 53//74
f 88//121 86//24 84//119
f 88//121 16//25 86//24
f 87//87 89//516 88//121
f 103//86 89//516 87//87
f 98//6 100//5 96//90
f 96//90 93//91 94//95
f 101//15 28//14 103//86
f 82//115 99//89 87//87
f 102//88 101//15 103//86
f 102//88 99//89 93//91
f 80//92 93//91 99//89
f 21//7 98//6 97//17
f 129//97 97//17 95//94
f 131//19 97//17 129//97
f 95//94 98//6 96//90
f 95//94 94//95 126//96
f 92//98 91//99 127//144
f 126//96 94//95 92//98
f 91//99 74//93 73//107
f 91//99 73//107 147//100
f 140//148 144//106 69//104
f 71//102 72//111 143//103
f 144//106 146//108 70//105
f 146//108 73//107 70//105
f 69//104 76//109 75//110
f 75//110 77//112 71//102
f 68//36 71//102 77//112
f 79//113 76//109 70//105
f 79//113 82//115 81//114
f 84//119 86//24 85//118
f 78//37 77//112 85//518
f 82//115 83//117 81//114
f 82//115 87//87 83//117
f 83//117 87//87 84//119
f 104//127 106//126 105//124
f 105//124 240//123 231//243
f 240//123 141//133 137//299
f 108//130 116//128 107//125
f 236//260 109//129 107//125
f 110//131 109//129 241//259
f 110//131 123//66 112//142
f 113//122 115//136 142//134
f 106//126 113//122 105//124
f 113//122 117//137 114//135
f 118//138 121//140 119//139
f 108//130 121//140 118//138
f 112//142 124//77 120//132
f 90//101 147//100 115//136
f 125//143 91//99 90//101
f 117//137 125//143 114//135
f 119//139 127//144 117//137
f 119//139 92//98 127//144
f 119//139 126//96 92//98
f 127//144 91//99 125//143
f 122//141 128//146 121//140
f 128//146 126//96 121//140
f 130//145 129//97 128//146
f 128//146 129//97 126//96
f 124//77 130//145 128//146
f 132//79 130//145 124//77
f 111//67 123//66 110//131
f 147//100 146//108 145//147
f 145//147 146//108 144//106
f 115//136 147//100 145//147
f 139//149 145//147 140//148
f 138//58 135//72 72//111
f 135//72 276//150 72//111
f 143//103 275//151 69//104
f 136//297 141//133 139//149
f 133//300 140//148 275//151
f 136//297 139//149 140//148
f 136//297 140//148 133//300
f 143//103 276//150 134//152
f 137//299 141//133 136//297
f 136//297 133//300 277//298
f 111//67 238//165 162//153
f 51//517 49//68 164//157
f 43//44 157//156 158//48
f 164//157 163//154 155//161
f 154//160 163//154 161//162
f 153//163 161//162 160//164
f 160//164 162//153 238//165
f 44//63 164//157 152//159
f 152//159 150//167 159//155
f 158//48 202//206 204//52
f 157//156 202//206 158//48
f 150//167 148//172 157//156
f 157//156 148//172 202//206
f 152//159 156//158 151//170
f 156//158 192//168 184//176
f 151//170 156//158 184//176
f 156//158 155//161 192//168
f 192//168 155//161 154//160
f 154//160 153//163 190//169
f 190//169 153//163 179//175
f 153//163 160//164 229//166
f 149//174 153//163 229//166
f 149//174 229//166 220//235
f 175//183 187//187 148//172
f 148//172 187//187 214//230
f 202//206 214//230 198//205
f 148//172 214//230 202//206
f 188//171 175//183 148//172
f 191//177 190//169 179//175
f 192//168 190//169 191//177
f 189//173 184//176 183//185
f 165//196 300//322 166//224
f 184//176 191//177 181//178
f 268//193 149//174 220//235
f 186//181 149//174 268//193
f 188//171 189//173 177//182
f 187//187 212//519 214//230
f 185//192 186//181 263//194
f 254//198 185//192 263//194
f 168//200 178//184 182//179
f 181//178 170//188 182//179
f 182//179 171//189 168//200
f 174//191 179//175 186//181
f 180//180 179//175 174//191
f 169//190 180//180 174//191
f 178//184 168//200 167//195
f 187//187 176//186 212//519
f 176//186 166//224 212//519
f 176//186 165//196 166//224
f 172//197 174//191 185//192
f 174//191 172//197 169//190
f 173//338 169//190 172//197
f 172//197 185//192 254//198
f 311//340 172//197 253//199
f 309//202 170//188 169//190
f 309//202 169//190 173//338
f 167//195 301//318 165//196
f 167//195 306//201 301//318
f 196//60 199//228 29//57
f 202//206 201//204 204//52
f 30//50 200//211 203//61
f 201//204 200//211 30//50
f 200//211 213//203 203//61
f 29//57 199//228 195//71
f 198//205 197//210 201//204
f 214//230 193//209 198//205
f 200//211 194//212 213//203
f 197//210 193//209 194//212
f 196//60 210//207 199//228
f 195//71 199//228 282//227
f 195//71 282//227 290//208
f 205//217 319//215 210//207
f 206//221 321//216 207//219
f 208//222 206//221 207//219
f 325//223 323//220 208//222
f 166//224 300//322 325//223
f 211//218 205//217 213//203
f 166//224 208//222 209//229
f 166//224 209//229 212//519
f 209//229 208//222 207//219
f 205//217 210//207 213//203
f 193//209 211//218 194//212
f 212//519 209//229 214//230
f 238//165 111//67 110//131
f 291//236 221//239 274//237
f 221//239 231//243 230//250
f 265//265 217//242 216//240
f 216//240 222//241 221//239
f 223//245 222//241 217//242
f 224//244 232//253 223//245
f 218//232 226//248 225//247
f 229//166 238//165 228//249
f 229//166 228//249 219//234
f 221//239 230//250 274//237
f 233//252 231//243 222//241
f 233//252 105//124 231//243
f 232//253 105//124 233//252
f 234//246 104//127 232//253
f 234//246 232//253 224//244
f 236//260 235//254 226//248
f 228//249 237//255 227//231
f 237//255 236//260 226//248
f 237//255 239//256 236//260
f 238//165 239//256 228//249
f 240//123 137//299 215//251
f 236//260 107//125 235//254
f 241//259 109//129 236//260
f 238//165 241//259 239//256
f 266//258 225//247 224//244
f 256//264 266//258 265//265
f 256//264 265//265 257//267
f 265//265 216//240 258//266
f 258//266 216//240 264//257
f 264//257 288//268 255//276
f 261//269 262//233 251//270
f 251//270 262//233 250//271
f 260//261 267//262 250//271
f 250//271 259//263 246//274
f 259//263 256//264 247//273
f 243//277 256//264 258//266
f 256//264 243//277 245//275
f 243//277 258//266 255//276
f 255//276 288//268 287//279
f 252//280 251//270 249//272
f 248//282 250//271 246//274
f 248//282 246//274 361//404
f 361//404 246//274 360//283
f 245//275 243//277 244//284
f 263//194 268//193 262//233
f 351//285 242//278 393//287
f 271//292 385//290 275//151
f 276//150 290//208 289//291
f 272//295 270//289 286//293
f 272//295 273//301 270//289
f 269//238 273//301 272//295
f 278//296 137//299 136//297
f 270//289 277//298 275//151
f 269//238 274//237 273//301
f 215//251 278//296 274//237
f 289//291 384//302 271//292
f 280//305 287//279 285//294
f 280//305 285//294 281//307
f 285//294 284//303 281//307
f 281//307 284//303 283//304
f 289//291 386//310 384//302
f 282//227 378//226 290//208
f 290//208 378//226 279//520
f 393//287 287//279 280//305
f 389//306 280//305 390//308
f 390//308 280//305 281//307
f 389//306 390//308 283//304
f 279//520 410//309 289//291
f 383//429 283//304 385//290
f 288//268 291//236 287//279
f 287//279 291//236 269//238
f 378//226 376//433 279//520
f 285//294 286//293 284//303
f 286//293 385//290 283//304
f 290//208 279//520 289//291
f 303//314 302//313 301//318
f 304//521 310//521 303//521
f 324//321 299//323 292//357
f 292//324 298//316 320//358
f 295//522 420//333 298//332
f 312//523 348//328 296//330
f 294//336 296//330 346//331
f 171//189 309//202 305//319
f 171//189 305//319 306//201
f 308//339 309//202 173//338
f 324//321 300//322 165//196
f 344//341 342//524 341//337
f 365//343 308//339 311//340
f 311//340 368//342 365//343
f 307//349 305//319 308//339
f 307//353 348//351 310//350
f 312//346 298//345 310//350
f 365//343 297//352 308//339
f 297//525 362//526 358//413
f 297//525 358//413 348//328
f 310//527 298//316 302//315
f 293//325 332//376 431//464
f 431//464 312//346 296//326
f 341//337 339//388 332//376
f 341//528 332//528 293//528
f 432//356 312//346 431//464
f 206//221 292//357 322//361
f 321//216 322//361 318//529
f 205//217 321//216 319//215
f 321//216 318//529 319//215
f 318//530 320//531 315//366
f 318//530 315//366 313//365
f 319//215 318//532 314//213
f 318//532 313//533 314//213
f 317//214 314//213 340//363
f 329//367 340//363 314//213
f 313//534 328//377 314//213
f 332//376 339//388 333//374
f 327//372 331//371 402//458
f 314//213 328//377 329//367
f 326//381 338//378 328//377
f 327//379 402//385 337//380
f 431//464 332//376 330//375
f 313//365 425//364 414//382
f 327//379 328//377 330//535
f 414//536 330//536 328//536
f 329//367 338//378 335//368
f 335//368 334//389 394//369
f 336//386 400//390 334//389
f 401//384 336//386 337//380
f 337//380 335//368 338//378
f 331//371 333//373 408//387
f 340//363 335//368 394//369
f 351//285 392//288 391//391
f 352//537 382//410 371//412
f 355//395 354//394 350//392
f 354//394 356//393 350//392
f 356//393 244//284 353//286
f 355//399 350//538 352//397
f 357//403 356//393 355//395
f 362//355 363//406 359//402
f 363//406 361//404 359//402
f 364//344 362//355 365//343
f 363//406 367//281 248//282
f 366//407 367//281 364//344
f 368//342 366//407 364//344
f 349//409 350//392 391//391
f 350//538 382//539 352//397
f 350//540 349//541 382//430
f 349//541 388//542 382//430
f 356//393 360//283 244//284
f 248//282 361//404 363//406
f 347//329 358//413 345//543
f 347//329 345//543 371//415
f 375//417 347//329 371//415
f 347//544 375//545 343//426
f 375//545 373//425 343//426
f 372//546 374//547 371//412
f 450//499 370//422 435//421
f 369//510 370//548 451//511
f 371//412 377//411 435//421
f 370//422 372//546 371//412
f 413//424 369//423 409//443
f 370//548 373//549 372//550
f 373//549 374//416 372//550
f 373//549 370//548 369//510
f 342//524 413//551 341//337
f 375//417 374//416 373//549
f 376//433 394//369 410//309
f 376//433 410//309 279//520
f 392//288 389//306 391//391
f 391//391 389//306 388//408
f 389//306 283//304 383//429
f 388//408 389//306 383//429
f 388//408 383//429 381//552
f 388//542 381//431 382//430
f 385//290 384//302 387//311
f 380//427 381//552 383//429
f 380//427 383//429 387//311
f 382//430 380//432 377//442
f 412//438 411//460 377//439
f 410//309 407//434 386//310
f 405//553 434//553 433//553
f 377//411 411//554 403//449
f 406//555 412//436 404//454
f 405//447 406//555 404//454
f 433//556 435//455 405//451
f 402//458 397//457 401//557
f 331//371 434//459 397//457
f 409//461 408//387 339//388
f 413//551 409//461 341//337
f 401//384 397//448 396//462
f 400//390 396//558 398//450
f 395//463 399//435 396//558
f 396//558 399//435 398//450
f 397//448 395//463 396//462
f 397//448 405//447 404//454
f 397//448 404//454 395//463
f 433//556 443//559 435//455
f 425//364 424//560 414//382
f 315//334 420//333 425//468
f 432//471 420//333 295//522
f 418//479 415//473 416//472
f 420//478 417//561 418//479
f 419//475 415//465 418//476
f 415//465 424//469 421//562
f 425//364 423//480 421//481
f 424//560 425//364 421//481
f 427//485 417//561 420//478
f 427//485 419//484 417//561
f 428//486 426//489 419//484
f 428//490 427//563 420//333
f 426//487 429//564 415//465
f 429//564 431//464 415//465
f 429//491 432//356 431//464
f 434//444 444//494 433//565
f 369//423 448//495 409//443
f 445//502 446//515 437//500
f 445//502 441//501 440//566
f 436//506 445//504 440//567
f 447//507 436//568 442//456
f 449//497 448//495 369//423
f 452//509 451//511 450//512
f 450//499 435//421 438//493
f 444//569 443//559 433//556
f 450//499 438//493 437//500
f 443//559 444//569 438//570
f 442//571 441//572 439//573
f 436//506 440//567 442//571
f 442//571 440//567 441//572
f 441//572 437//574 439//573
f 444//569 439//573 438//570
f 438//570 439//573 437//574
