# G1 exterior visual; derived from pinned Unitree/TWIST2 CAD.
v -0.00488503929 0.0488652438 0.00755239138
v -0.00442722254 0.0486899801 0.00815735385
v -0.00315800426 0.0451936945 0.0095306728
v -0.0025963115 0.0493786931 0.00769286044
v -0.00428646337 0.0514772423 0.00491675176
v -0.00371342385 0.0518754497 0.00356630469
v -0.00401982525 0.0504826903 0.00688073039
v -0.002322766 0.0507112741 0.00641943282
v -0.00265153148 0.0470022298 0.00889809337
v -0.00127094425 0.0481762104 0.0080645429
v -0.000171705789 0.0462732986 0.00870793872
v 4.31361514e-05 0.0489818603 0.00696929498
v -0.00231465884 0.0517316796 0.00397883542
v -0.000201974224 0.0512114875 0.00254629273
v -0.000506059907 0.0508852266 0.00458042789
v 0.00192034512 0.0448855422 0.00843996182
v 0.000561291235 0.0470614731 0.00802787114
v 0.00209985254 0.0466385894 0.0073056207
v 0.00163630303 0.0482965596 0.00628488092
v 0.00201267796 0.0494842269 0.00150288164
v 0.00110093015 0.0502577387 0.00289346254
v 0.000837808417 0.0499461032 0.00502644852
v 0.00181729859 0.0491590835 0.00464817928
v 0.00310384482 0.0478746779 0.00249438756
v 0.00415628636 0.0460671708 0.00236100471
v 0.00297897356 0.0472809933 0.00510790572
v 0.00342162675 0.0459344015 0.00591177354
v 0.00417489558 0.0455819815 0.00399423204
v -6.81126257e-05 0.040544644 0.010273939
v 0.000900518498 0.0430461019 0.00948513858
v 0.00534543814 0.0435187183 0.000898736878
v 0.00656695617 0.0391832665 0.000606214104
v 0.00605832692 0.0411030576 0.00107523648
v 0.00189168879 0.037808124 0.0102610001
v 0.00201786938 0.0414731689 0.00948259234
v 0.00181470811 0.0399220996 0.0099274395
v 0.00316278846 0.0403830819 0.00919767842
v 0.00247601466 0.0428560153 0.00888525601
v 0.0043257447 0.0389482267 0.00870612077
v 0.0032683895 0.0379320607 0.00967576168
v 0.00526796188 0.0409762748 0.00620895717
v 0.00358999777 0.0419569984 0.00834595505
v 0.00450069364 0.0419669002 0.00719648786
v 0.00468888786 0.0399635509 0.00796336401
v 0.00429745344 0.0445625335 0.00534917181
v 0.00477495184 0.044726979 0.0023192279
v 0.00328784063 0.0444352813 0.00746950414
v 0.00419211807 0.0437908024 0.00640563853
v 0.00633159885 0.0397395976 0.00275796
v 0.00613486441 0.0393510163 0.00478094397
v 0.0054883277 0.0371373296 0.00796250533
v 0.00566549925 0.0392346494 0.00651888922
v 0.00607902044 0.037914969 0.00639248453
v 0.00541824521 0.0425781235 0.0036111502
v 0.00515377428 0.0423288494 0.0052148765
v 0.00587466499 0.0409816466 0.00372553035
v -0.00646971213 0.0387676843 0.0103343818
v -0.005490663 0.0454831794 0.00903194025
v -0.00518687861 0.0446709283 0.009640567
v -0.00386153162 0.0414553806 0.0103234062
v -0.00219948799 0.0387417339 0.0107825203
v -0.00396644929 0.0432325751 0.00994441845
v -0.00218644296 0.0410522893 0.0104004014
v 0.000143581186 0.0382440314 0.0106048128
v -0.00142288592 0.042636659 0.0100318864
v -0.00181318249 0.0449419506 0.00951457955
v -0.000113173985 0.0437404141 0.00955692399
v -0.00534533104 0.0479600877 0.0047725304
v -0.00464616111 0.0498980358 -0.00713542942
v -0.00447725551 0.0482300706 -0.00851065945
v -0.00259412895 0.0476563945 -0.00870437734
v -0.00548420055 0.0472191162 -0.00518316496
v -0.00396819925 0.0508647487 -0.0066142017
v -0.00264905929 0.0492357835 -0.00788437948
v -0.0024308865 0.0508958474 -0.0063632112
v -0.00431847852 0.0514372177 -0.00413854932
v -0.00362739712 0.0519304425 -0.00350487838
v -0.000505725387 0.0471169166 -0.00848988071
v -0.00096566719 0.0490722582 -0.00746969972
v -0.000315897429 0.0502302982 -0.00588926673
v 0.000473155698 0.048605416 -0.00711281737
v -0.00190528121 0.0518854745 -0.00011972402
v -0.00209010299 0.0516395904 -0.00426843297
v 0.000501323782 0.0505440198 -0.00410482055
v -0.000397504133 0.0512733161 -0.0026922056
v 0.000513042614 0.0508325882 -0.000324915629
v 0.00442338362 0.0453026742 -0.00333706639
v 0.000899022736 0.04660476 -0.00821284857
v 0.00245256 0.045758158 -0.0076732384
v 0.00192722166 0.0472838655 -0.00703531457
v 0.00253559928 0.0475226156 -0.00589101948
v 0.00148112455 0.049118489 -0.00559423864
v 0.00237166393 0.0488315374 -0.00328470557
v 0.00251698168 0.0488877557 -0.00109978393
v 0.00114480674 0.0502697341 -0.00249489816
v 0.00357090216 0.0472709946 -0.0015826812
v 0.00342272455 0.0461485386 -0.00579053862
v 0.0034993554 0.0469540283 -0.00375135476
v 0.00361673557 0.0471947528 0.00121519598
v 0.00441687228 0.0458206534 -0.00048061565
v 0.00284939166 0.0484161973 0.000944792759
v -0.00610899972 0.0415492803 -0.00994879566
v -0.005678955 0.0411420986 -0.0104388632
v -0.00642352831 0.0429657027 -0.000617130077
v -0.00531461649 0.0465948619 -0.00866076723
v -0.00441893237 0.0376119651 -0.0110330898
v -0.00434064306 0.0395935252 -0.0107049569
v -0.00359414262 0.0431986302 -0.0100960089
v -0.00339766918 0.0402204357 -0.0106817605
v -0.00502597587 0.0454612747 -0.00951531157
v -0.00320348819 0.045598302 -0.00950172264
v -0.00193249574 0.0429721773 -0.0100980075
v -0.00116909493 0.0389935188 -0.0107722171
v -0.00117280602 0.0411607176 -0.0103952689
v 0.000398020551 0.0424369909 -0.00985812955
v -0.00112423452 0.0451616459 -0.00945655163
v 0.000351607072 0.0442931913 -0.00936654769
v 0.000403030281 0.0397083089 -0.0104043763
v 0.00193863595 0.0380927287 -0.0102904942
v 0.00195490615 0.0401605591 -0.00991453044
v 0.0014149471 0.0420581363 -0.00969384424
v 0.00165316556 0.0440740213 -0.00897517055
v 0.00285794935 0.0437346213 -0.00840091985
v 0.00419195974 0.0397860296 -0.00864718296
v 0.00312596629 0.0412321128 -0.00907382742
v 0.00472320523 0.0416004099 -0.00715727499
v 0.00449345773 0.0433743596 -0.00621534884
v 0.00382008706 0.0426275469 -0.0079356879
v 0.0038410963 0.044950895 -0.00627589319
v 0.00507163769 0.043511685 -0.00382263493
v 0.00505698612 0.044281099 -0.000894623983
v 0.00549811637 0.0387685411 -0.00733331824
v 0.00547566405 0.0401910022 -0.00635721721
v 0.00634300942 0.0387949981 -0.00454745069
v 0.00658301823 0.0390985608 -0.0014783165
v 0.0054833265 0.0416057408 -0.00488796597
v 0.00568885542 0.0418760739 -0.00321138045
v 0.00625580642 0.0399768762 -0.00286633358
v 0.00581135694 0.0419929661 -0.000893670949
v 0.00209575309 0.0341625176 0.0106586907
v 0.00319810677 0.0321630426 0.0105308192
v 0.00053386786 0.0330133438 0.011094247
v 0.0026751617 0.0354797207 0.0103381881
v 0.00440558605 0.0316940546 0.0100695249
v 0.0042116642 0.0347605199 0.0097275516
v 0.00519554038 0.0340559632 0.00913914014
v 0.00453894306 0.0370446108 0.00905162562
v 0.00752137136 0.0308037177 0.00593160233
v 0.00629227934 0.0315860361 0.00849998184
v 0.00709768943 0.0344803557 0.00525336014
v 0.00760219106 0.0325577222 0.00404193113
v 0.00586509425 0.0346449167 0.00823869836
v 0.00671219127 0.0337195359 0.00707197888
v 0.0070611625 0.0368500352 0.000272824924
v 0.00757539272 0.033994291 0.00160842168
v 0.00726141268 0.0356172994 0.00220509083
v 0.00628749281 0.0362190418 0.00689884834
v 0.00657339627 0.0377228484 0.00460949074
v 0.00679185707 0.0379662812 0.00196424988
v 0.00688980334 0.0367314033 0.00387140247
v 0.00330145122 0.0272792969 0.0108777937
v 0.00125462702 0.0280026309 0.0113232443
v 0.00228976412 0.0304732658 0.0109423986
v 0.00115107896 0.0297058895 0.0112131545
v 0.00477079302 0.0251197089 0.0104827993
v 0.00458172336 0.0268425271 0.0104422951
v 0.00559633132 0.030406855 0.00941703282
v 0.00432669092 0.0303022657 0.0102434056
v 0.0079425592 0.0260065701 0.00592175592
v 0.00745660393 0.0256694052 0.00770421047
v 0.00786286592 0.0238350108 0.00679390039
v 0.00642066309 0.0263988487 0.00923424307
v 0.00828733854 0.0271963067 0.00229354668
v 0.00792977959 0.0283759981 0.00489745568
v 0.00744010927 0.027564723 0.00735927979
v 0.00672828825 0.0289226137 0.00844715349
v 0.00801115111 0.0301153716 0.00285972632
v 0.0074484325 0.0296890978 0.00658106012
v 0.00860999152 0.0235885587 0.000211559469
v 0.00847087707 0.0254504699 0.000811108388
v 0.00836031884 0.0240822248 0.00421870127
v 0.00824966282 0.0255353898 0.00415068213
v -0.00709493086 0.0377895012 0.00705839554
v -0.00617339835 0.0369564779 0.0110183163
v -0.00713249529 0.0388389751 0.00200708117
v -0.00489573134 0.0335364416 0.0114074666
v -0.0037050047 0.0331466049 0.011471224
v -0.00461257203 0.0362639502 0.011125301
v -0.00325619942 0.0369363502 0.0110461693
v -0.00426209532 0.0387691781 0.0107787941
v -0.00171218684 0.031721659 0.0114617394
v -0.00216800533 0.0331806988 0.0114022745
v -0.00132027932 0.0361951813 0.0110301245
v 0.000188000879 0.0358760767 0.0108869243
v -0.00829622149 0.0271277558 0.00568026071
v -0.00498754298 0.0238757432 0.0121540297
v -0.00779166538 0.0300221648 0.00835429318
v -0.0070960843 0.0312819257 0.0112438984
v -0.00722596468 0.0250966921 0.0117590623
v -0.00463351095 0.0253505055 0.0121472199
v -0.00306511414 0.0253955461 0.0119776633
v -0.00231813942 0.028089758 0.011751459
v -0.00490153674 0.0295316391 0.0118149761
v -0.00370256905 0.0292156637 0.0118018314
v -0.00302732922 0.0238458756 0.0120736482
v -0.00112029654 0.0258056633 0.0117784869
v -0.00040218592 0.0237553753 0.0117945187
v 0.000508784957 0.0265878756 0.0115249502
v -0.000686905405 0.0300902948 0.0114779435
v 0.000527328986 0.034432888 -0.0110712973
v 0.00307019637 0.0329999551 -0.0105956113
v 0.000405047787 0.0366195031 -0.0108690131
v 0.00240573497 0.0355603732 -0.0105063505
v 0.00533652585 0.031193139 -0.00963018928
v 0.004994608 0.0331809632 -0.00957556255
v 0.00410326896 0.0351339839 -0.0098363366
v 0.0050678011 0.0356035084 -0.00901432242
v 0.00569391251 0.0364590809 -0.00801080745
v 0.00329136685 0.0383301303 -0.00969354436
v 0.00446967175 0.0376690738 -0.00905081164
v 0.00796983857 0.0305441115 -0.00246070139
v 0.00613712845 0.0323704444 -0.00862813741
v 0.0065556448 0.0335881338 -0.00752008148
v 0.00708070537 0.0332655162 -0.00630127359
v 0.00764565356 0.0327312984 -0.00335535407
v 0.00791558251 0.0316821784 0.000499225978
v 0.00652712118 0.0356622785 -0.0066852211
v 0.0064762705 0.0372567624 -0.00562120741
v 0.00690857554 0.0373354331 -0.00254625711
v 0.00717647932 0.0352592729 -0.00389612652
v 0.00757080922 0.0340686962 -0.000972456473
v 0.00722589018 0.0359994546 -0.00138265081
v 0.000998765347 0.0262494888 -0.0115401885
v 0.00321207102 0.0249667279 -0.0111448318
v 0.000682530343 0.0294956267 -0.0114245154
v 0.00219931314 0.0275095962 -0.0112656336
v 0.00172105781 0.0309843719 -0.0111107007
v 0.0058418666 0.0240217727 -0.0100629861
v 0.00372386444 0.0277304687 -0.0108008496
v 0.00466187811 0.026428571 -0.0105350632
v 0.00348486356 0.0310017914 -0.010627389
v 0.00471963314 0.0295465626 -0.0102133304
v 0.00674329884 0.0249474831 -0.00915638357
v 0.00740938168 0.0247138422 -0.00802600197
v 0.00794718042 0.0258325022 -0.00608708384
v 0.00827495754 0.0246695392 -0.0045807655
v 0.00636595953 0.0269773751 -0.00933546294
v 0.00580265746 0.0285603013 -0.00958034582
v 0.00732721854 0.0264544636 -0.00788670219
v 0.00704868091 0.0285759438 -0.00800441671
v 0.00780177908 0.0282822289 -0.00586299645
v 0.00824701879 0.0276726168 -0.00250284234
v 0.00798912067 0.0291376654 -0.00407603011
v 0.00660653133 0.0298152529 -0.00857818965
v 0.00709393527 0.031116562 -0.00728608249
v 0.00758341281 0.0309057832 -0.00561487814
v 0.00835378375 0.0262857415 -0.0021755374
v 0.00827147067 0.0261539277 -0.00379550783
v 0.00825112779 0.0284214076 -0.000181722702
v -0.00692340825 0.0339968763 -0.0110754771
v -0.00755190384 0.0360082462 -0.00277641555
v -0.00476075104 0.0342274643 -0.0114427088
v -0.00749383168 0.0344127119 -0.00739272591
v -0.00780429086 0.0342065617 0.00248182775
v -0.00678101461 0.0397057198 -0.0071984455
v -0.00432392722 0.0312788077 -0.0117828976
v -0.00213071634 0.0327612087 -0.0115190307
v -0.0033045325 0.0374285765 -0.011082367
v -0.00287911342 0.0344146341 -0.0114359315
v -0.000111419991 0.0314511694 -0.0113998502
v -0.00133087183 0.0363122858 -0.0111330971
v -0.00721969595 0.0271761119 -0.0116975233
v -0.0066261352 0.0259095225 -0.0122037716
v -0.00793271139 0.0279106367 -0.0084998915
v -0.00639588851 0.0340742879 -0.0114680249
v -0.0050137979 0.0262803566 -0.0121527323
v -0.003568182 0.0252397079 -0.012113018
v -0.00496705063 0.0297385398 -0.0118924528
v -0.0033318745 0.0280930232 -0.0119378259
v -0.00256251567 0.0295932889 -0.0117914034
v -0.00237786747 0.0239489954 -0.0120911114
v -0.000964519335 0.026343191 -0.01182565
v -0.000254038227 0.0247313324 -0.0118053304
v -0.000916982361 0.0278253052 -0.0117312334
v -0.00146103778 0.0305971466 -0.011609816
v 0.00136704219 0.0237853061 0.0115119535
v 0.00122435985 0.0200717039 0.0113523193
v 0.00201011426 0.0215697046 0.0115352329
v 0.00474401517 0.0210617352 0.0107509876
v 0.00287561258 0.0201372616 0.0110420864
v 0.00401356257 0.0201521907 0.0106376531
v 0.00475298474 0.023336919 0.0105867479
v 0.00517732417 0.0200924929 0.0101892455
v 0.00625923323 0.0199798085 0.0129628908
v 0.00609353138 0.0229279269 0.00985735189
v 0.00288073393 0.0244460218 0.0111654941
v 0.00626762584 0.0165874232 0.00965623464
v 0.00723977108 0.0195182413 0.00961475447
v 0.00692049135 0.0194517076 0.0100262444
v 0.00695384154 0.0194167905 0.0130960718
v 0.00830885675 0.0204631351 0.00430151867
v 0.00776214013 0.0205360372 0.00719261123
v 0.00830521807 0.0223719776 0.00529391412
v 0.007703715 0.0219798889 0.00779463444
v 0.00612437446 0.0200573709 0.00961813238
v 0.00663719466 0.0201721545 0.00900402386
v 0.00704756426 0.0213853046 0.00901878346
v 0.00689549185 0.0232113432 0.00901446864
v 0.00862942822 0.0221083369 0.00263145217
v 0.00865819864 0.0223666988 -0.000485630182
v -0.000407349376 0.0147960111 0.00965916459
v 0.00318354298 0.0154815288 0.00977011491
v 0.00603903364 0.013088828 0.00982687902
v 0.00600716984 0.0129554411 0.0130775506
v 0.00698302826 0.0150394328 0.0130054625
v 0.00698253559 0.0150858779 0.00982220657
v -0.00876835827 0.0193548743 0.00383176119
v -0.00808968861 0.0229083225 0.00859707966
v -0.00864019804 0.0262783188 0.000869459065
v -0.00694705592 0.0194988493 0.0130995549
v -0.00695147831 0.0196494199 0.00952986348
v -0.00750848278 0.020114189 0.00939366966
v -0.0065947636 0.0199734736 0.0115944995
v -0.00716952747 0.0207146127 0.0118065737
v -0.00594470417 0.0200938601 0.0119620282
v -0.00658581266 0.020922184 0.0122961542
v -0.00673075812 0.0272661857 0.0120125227
v -0.00618447363 0.0199733358 0.0130073046
v -0.00446368288 0.0221103299 0.0122508015
v -0.00277351751 0.0215627588 0.0121473335
v -0.000342684565 0.021868119 0.0118962908
v -0.00120315887 0.0201029703 0.0117421513
v -0.00794413686 0.00963978376 0.00428645872
v -0.00845312327 0.0101839704 0.00432495493
v -0.00840881746 0.0149576813 0.00633955887
v -0.00579611538 0.00971037988 0.00389735075
v -0.00782366004 0.0106784608 0.00786692463
v -0.00744322781 0.0114178639 0.00922298245
v -0.00723200291 0.0103178034 0.00820178259
v -0.00563894399 0.010455153 0.00821616687
v -0.00573165482 0.0119221546 0.00947449729
v -0.00548090274 0.010421237 0.0130989635
v -0.00803772639 0.0206594076 0.00900435168
v -0.00647759112 0.0126795042 0.00946966559
v -0.00699066976 0.0150462724 0.0095856227
v -0.0060182428 0.0130182132 0.0130513906
v -0.00696725491 0.0150218811 0.0130612059
v -0.00531436643 0.012458506 0.00977378059
v -0.00481629465 0.0135660516 0.00979736447
v 0.00630086707 0.0199613366 -0.0128534064
v 0.00106415898 0.0233646855 -0.0117027825
v 0.00204538694 0.0217226967 -0.011611457
v 0.00185617723 0.0201813057 -0.0113749988
v 0.00373501028 0.0200389922 -0.0109062735
v 0.0052524819 0.0158756636 -0.0096966736
v 0.00545988604 0.0159326121 0.00964484829
v 0.00400600256 0.0213169232 -0.011096647
v 0.00521957269 0.0200536046 -0.0102659063
v 0.00506258244 0.0211219788 -0.0106816906
v 0.00688514719 0.0165351015 -0.0099028768
v 0.00611381978 0.0164089054 -0.00954549387
v 0.00690934714 0.0202453006 -0.00877670012
v 0.00719545595 0.0200309493 -0.00667107897
v 0.00696045626 0.0180854667 0.00982420053
v 0.00722538261 0.0190938525 -0.00924205128
v 0.00606898777 0.0219552312 -0.010053264
v 0.00628635101 0.0201951023 -0.00953180157
v 0.00685498025 0.0196658894 -0.0100512868
v 0.00697690668 0.021360375 -0.00921593513
v 0.00752310175 0.0221511703 -0.00820652861
v 0.00831433944 0.0205016136 -0.00461702142
v 0.00806221832 0.0211627483 -0.00681661488
v 0.0080673825 0.0231105555 -0.00631228648
v 0.00813022163 0.0201784633 -0.00137935753
v 0.00718683144 0.0200202502 0.00694293808
v 0.00848701876 0.0221481808 -0.00426396914
v 0.00868700631 0.0216048378 -0.00233014487
v 0.00855538249 0.0233892836 -0.00230443617
v 0.00868760142 0.0211735051 0.000979079283
v 0.00697887549 0.0180783495 -0.00996783562
v -0.00859725568 0.0222118422 -0.00515884859
v -0.00859535765 0.0258963071 -0.00281102792
v -0.00623678416 0.0199320372 -0.0128854271
v -0.0076278178 0.0201606974 -0.00943034887
v -0.00718566915 0.0208391882 -0.0120018683
v -0.00657250499 0.0201065931 -0.0121609233
v -0.00658083148 0.0210022591 -0.0124051068
v -0.00665337779 0.0199309029 -0.010374059
v -0.00402545882 0.0201247446 -0.0120275896
v -0.00477024633 0.0222482849 -0.0123748323
v -0.00351223722 0.0212447979 -0.0122920787
v -0.00032776501 0.0200684723 -0.0117583144
v -0.00145827269 0.0218881313 -0.0121138236
v -0.00871330686 0.00997052062 0.00173743826
v -0.00895116758 0.0162657555 -0.00100464409
v -0.00854302291 0.0100543816 -0.00364785851
v -0.00793395285 0.0096665509 -0.00451319991
v -0.00577408168 0.00960336532 -0.00232555717
v -0.00818549655 0.00939426199 -0.000113843998
v -0.00391724799 0.014110663 0.00979741476
v -0.00859652925 0.0148679251 -0.00525516085
v 0.0069905906 0.0192784183 -0.0128993513
v -0.00720774429 0.0102955215 -0.00824163016
v -0.00566921569 0.0104201958 -0.0084294118
v -0.00768202171 0.0109037142 -0.0087196026
v -0.00702999858 0.0115745729 -0.00951841474
v -0.00698489463 0.0111827152 -0.00990712363
v -0.0070051658 0.0193195753 -0.00957667455
v -0.00540459342 0.0119413007 -0.00989891775
v -0.00805418286 0.0199051015 -0.00902010966
v -0.00502922432 0.0132960295 -0.00974711403
v -0.00406833598 0.014077629 -0.00976858381
v 0.00211686664 0.015247535 -0.00988869183
v -0.00112018525 0.0146635398 -0.00965738855
v -0.00549925957 0.00979685783 0.00988498237
v 0.00547886267 0.0104317777 0.0130757457
v 0.00550000183 0.0103084547 0.00980759505
v -0.00442515034 -0.00330200791 0.00980119407
v -0.00435840199 -0.00335286884 0.0130866971
v -0.00296105328 -0.00463520689 0.0130821532
v -0.00208118348 -0.00514276419 0.00980151258
v -0.00548340008 -0.000693404872 0.00986612774
v -0.00546382228 -0.00110260723 0.0130879926
v 0.000756690803 -0.00549762882 0.00985673722
v -0.000747763144 -0.00550084934 0.0129957423
v 0.00214096974 -0.00510766963 0.0130957244
v 0.00306194252 -0.00456285803 0.00980751775
v 0.00440556137 -0.00331601244 0.00981135387
v 0.00404290855 -0.00372367748 0.0130743803
v 0.00503884628 -0.00217231549 0.0130974706
v 0.0054404675 -0.00105098053 0.00981256552
v 0.00548461033 -0.000440236065 0.0130158151
v -0.00696099736 0.019323986 -0.012878526
v -0.0048615206 -0.005040335 -0.0128767062
v -0.00698899338 -0.000640848244 -0.0128920162
v -0.00635773223 -0.00297281705 -0.0128938258
v -0.00698422641 -0.00065658649 -0.0099339243
v -0.00297576864 -0.00634979829 -0.0128883896
v -0.00399515079 -0.00574921072 -0.0099088233
v -0.00606249506 -0.00357497972 -0.00992497522
v -0.000465073244 -0.00699998066 -0.0128986668
v -0.00164623046 -0.00683178147 -0.00990132615
v 0.000886475726 -0.00693201134 -0.00992713589
v 0.00217107823 -0.00665533403 -0.0128823621
v 0.00298865535 -0.00633851672 -0.00992869958
v 0.00405149255 -0.00571864843 -0.0128668826
v 0.00500183459 -0.00490061752 -0.00991208758
v 0.00538567733 -0.00444397004 -0.0128881773
v 0.00636513857 -0.00296017574 -0.0099296784
v 0.00636900449 -0.0028919566 -0.012899342
v 0.006978177 -0.000687198888 -0.0128945364
v 0.00697835535 -0.00065057649 -0.00990368426
vn 0.832103 0.5435418 0.1103044
vn 0.8618492 0.505731 0.03810663
vn 0.8198052 0.5719135 0.0288867
vn 0.8597431 0.507319 -0.05889938
vn 0.7189117 0.3699711 0.5884616
vn 0.8481081 0.3468797 0.4004837
vn 0.8080493 0.4488036 0.3816173
vn 0.8092452 0.5092683 0.2928618
vn 0.6192909 0.4822991 0.6195695
vn 0.8887334 0.4232382 0.1761313
vn 0.8851211 0.3772887 0.2724222
vn 0.9202444 0.380164 0.09287444
vn 0.8845472 0.4571292 0.09278563
vn 0.8990365 0.4376171 -0.01498849
vn 0.9330622 0.3577568 -0.03748459
vn 0.6377708 0.7611406 0.1179554
vn 0.4116866 0.854532 0.3166847
vn 0.5680982 0.7248027 0.3897763
vn 0.4453979 0.889798 0.0993996
vn 0.6155611 0.5977566 0.5135871
vn 0.7203124 0.6349251 0.2793206
vn 0.4278564 0.6222193 0.6555775
vn 0.4010741 0.4757766 0.7828002
vn 0.2475982 0.4878396 0.8370828
vn 0.2692123 0.3755078 0.8868588
vn 0.7389294 0.6721855 0.04636776
vn 0.478422 0.3567204 0.8024107
vn 0.2057455 0.8029317 0.5594369
vn 0.1790862 0.959263 0.2185008
vn 0.5455844 0.8380504 -0.003036342
vn 0.4159321 0.9049516 -0.08979494
vn 0.1801112 0.9836075 0.00872754
vn -0.2220492 0.9680812 -0.1162449
vn -0.2287304 0.9697837 0.08486503
vn 0.1223473 0.2851626 0.9506385
vn 0.0691757 0.3803887 0.9222359
vn 0.01006703 0.282044 0.9593486
vn -0.3247447 0.7306894 0.600528
vn -0.5738682 0.7790985 0.2523509
vn -0.8298469 0.3009823 0.4698552
vn -0.3716232 0.2763485 0.8863001
vn -0.3289231 0.4875235 0.8087834
vn 0.503662 0.2767422 0.8183754
vn 0.282235 0.2584294 0.9238818
vn 0.3841054 0.2300824 0.8941616
vn 0.2243578 0.2655278 0.9376345
vn 0.1205259 0.1854051 0.9752428
vn 0.1668765 0.196723 0.9661534
vn 0.3183357 0.1910599 0.9285249
vn 0.7866094 0.2140505 0.5791614
vn 0.6826715 0.2199324 0.6968424
vn 0.88771 0.2528911 0.3847299
vn 0.9756626 0.2116834 0.05720804
vn 0.9810509 0.1936473 0.006311492
vn 0.9725784 0.2319663 0.0168181
vn 0.9148564 0.2267587 0.3340933
vn 0.9598095 0.2165959 0.178471
vn 0.94443 0.2568414 0.2051446
vn 0.9733236 0.1960623 0.1191666
vn 0.8027915 0.2206243 0.5539412
vn 0.9062865 0.1987809 0.3730024
vn 0.9620019 0.270727 0.03548716
vn 0.9718843 0.2319079 -0.04073795
vn 0.965174 0.2457079 0.08981598
vn 0.9495421 0.2728234 0.1547163
vn 0.9160408 0.3025959 0.2632582
vn 0.8998588 0.279327 0.3350084
vn 0.9378542 0.3161909 0.1430131
vn 0.9409812 0.3366817 0.03463864
vn 0.4664861 0.1648322 0.8690345
vn 0.6230687 0.1784464 0.7615394
vn 0.5265858 0.2317921 0.8179119
vn 0.6522924 0.2778008 0.7052244
vn 0.1671869 0.1414146 0.9757307
vn 0.2941888 0.1437868 0.9448695
vn 0.8245134 0.3007325 0.4793094
vn -0.0211833 0.1890725 0.9817346
vn 0.05421758 0.1484778 0.9874284
vn 0.05591141 0.1880115 0.9805741
vn 0.007134235 0.2067606 0.9783655
vn -0.9824992 0.1861814 -0.005632454
vn -0.9864074 0.1631668 0.01941765
vn -0.9706318 0.2371921 0.04017192
vn -0.9851442 0.1427742 0.09542821
vn -0.8383054 0.1901109 0.5109814
vn -0.3857705 0.1522944 0.9099382
vn -0.01773628 0.1595996 0.9870225
vn 0.01950702 0.1233596 0.9921703
vn 0.6355577 0.4193026 -0.6482683
vn 0.4193994 0.2739428 -0.8654823
vn 0.4025376 0.4346829 -0.8056142
vn 0.6065306 0.3308109 -0.7229695
vn 0.6441418 0.653371 -0.3977282
vn 0.4322314 0.6269234 -0.6481845
vn 0.3243466 0.5859498 -0.742605
vn -0.3981818 0.3116081 -0.8627582
vn -0.8579671 0.2115312 -0.4681314
vn -0.8135318 0.3473516 -0.4663829
vn -0.7246914 0.5151196 -0.4576835
vn -0.4005682 0.4518413 -0.7971101
vn 0.6191185 0.5084618 -0.5984638
vn 0.2129758 0.9457137 -0.2454934
vn 0.5480307 0.8037322 -0.2316829
vn 0.4348927 0.7499276 -0.4984747
vn 0.1941136 0.8204684 -0.5377281
vn 0.1271563 0.5601677 -0.8185618
vn 0.1171901 0.4150063 -0.9022395
vn 0.1762845 0.3064722 -0.9354136
vn 0.03111898 0.2990977 -0.953715
vn -0.750089 0.649532 -0.1243967
vn -0.3005862 0.7994638 -0.5201014
vn 0.6542579 0.7521436 -0.07890926
vn 0.7834394 0.6206488 -0.03190043
vn 0.7785183 0.6106877 -0.1448094
vn 0.8335921 0.3826136 -0.3984105
vn 0.8234587 0.4568639 -0.3364389
vn 0.7689195 0.5228483 -0.3679573
vn 0.8529274 0.4952082 -0.1651779
vn 0.8996124 0.4133742 -0.1407806
vn 0.2003854 0.1691415 -0.9650061
vn 0.3020036 0.1503785 -0.9413714
vn 0.1763185 0.1230189 -0.9766156
vn 0.3234402 0.283058 -0.9029201
vn 0.2275819 0.2440064 -0.9426916
vn 0.3637369 0.1906195 -0.9117892
vn 0.5619389 0.2253038 -0.7959039
vn 0.2622453 0.2973996 -0.918031
vn -0.9833853 0.1562074 -0.09248046
vn -0.9905936 0.1338139 -0.02860161
vn -0.3546882 0.199044 -0.9135523
vn -0.8477998 0.1289474 -0.5144007
vn 0.9567682 0.288854 -0.03403037
vn 0.9253005 0.3432015 -0.1613436
vn 0.8661209 0.3427941 -0.3637674
vn 0.930721 0.2880646 -0.2253377
vn 0.8343816 0.286019 -0.4711693
vn 0.7412181 0.310169 -0.5953074
vn 0.9151512 0.2601848 -0.3078995
vn 0.8605225 0.2321583 -0.4534352
vn 0.66798 0.2464658 -0.7021804
vn 0.08802611 0.2208895 -0.9713182
vn 0.1123787 0.189138 -0.9754988
vn 0.09870654 0.1412738 -0.9850374
vn 0.01782311 0.1305253 -0.9912847
vn -0.0210503 0.1725909 -0.9847686
vn -0.05592467 0.1623807 -0.9851421
vn -0.3266137 0.1342856 -0.9355698
vn -0.007865611 0.2135759 -0.9768949
vn 0.4713895 0.1970267 -0.859635
vn 0.8244767 0.2072094 -0.5265951
vn 0.6569191 0.2070844 -0.7249643
vn 0.09642394 0.1526951 -0.9835581
vn 0.9435062 0.2181441 -0.2494175
vn 0.9545603 0.2346316 -0.1837467
vn 0.9628507 0.2509842 -0.09962709
vn 0.9754651 0.2051422 -0.0799026
vn 0.950247 0.2912128 -0.1105702
vn 0.8135175 0.1296792 0.5668972
vn 0.8303089 0.1167863 0.5449295
vn 0.9415733 0.1143886 0.3167884
vn 0.3455026 0.1157263 0.9312547
vn 0.6453707 0.1417768 0.7505971
vn 0.7985628 0.1755847 0.5757322
vn 0.170441 0.1039339 0.9798712
vn 0.08736461 0.110136 0.9900694
vn 0.3399912 0.1091983 0.9340674
vn 0.4389426 0.07963704 0.894979
vn 0.4773245 0.1306883 0.8689544
vn 0.6354314 0.1030166 0.7652545
vn 0.1203089 0.06561834 0.9905655
vn 0.1708196 0.07137885 0.9827134
vn 0.1687568 0.08575289 0.9819204
vn 0.2449506 0.1255037 0.9613782
vn 0.2533716 0.07522566 0.9644397
vn 0.4934053 0.1266373 0.8605313
vn 0.9813846 0.1817447 0.06207449
vn 0.9101632 0.1565704 0.3835213
vn 0.9589709 0.1200808 0.2568179
vn 0.9637901 0.1745833 0.2015673
vn 0.983115 0.1391806 0.118801
vn 0.9916147 0.1041248 0.07653934
vn 0.9925672 0.1213779 0.008817483
vn 0.987227 0.1542155 0.04000686
vn 0.9877038 0.1538858 -0.0275748
vn 0.1113622 0.05906814 0.9920229
vn 0.131567 0.05193914 0.9899457
vn 0.152366 0.05316591 0.9868931
vn 0.2617451 0.05404038 0.9636229
vn 0.1772157 0.05679919 0.9825317
vn 0.2094846 -0.07886869 0.9746261
vn 0.9902317 0.06870463 0.1213294
vn 0.983777 -0.0007488548 0.1793935
vn 0.9971626 -0.001216093 0.07526796
vn 0.9960907 0.08826141 -0.003658871
vn 0.9953092 0.07510894 0.06097602
vn 0.9973707 0.06871275 0.02302504
vn 0.2928626 0.06589002 0.9538816
vn 0.4514415 0.07406666 0.8892214
vn 0.4421706 0.06767751 0.8943741
vn 0.7189981 0.08670803 0.689582
vn 0.9911248 0.07627416 0.108876
vn 0.9746363 0.07157453 0.2120411
vn 0.9088148 0.08097004 0.4092672
vn 0.7942548 0.06781703 0.6037881
vn 0.9291605 -0.01037942 0.3695307
vn 0.9670472 0.06438588 0.2463209
vn 0.4103347 0.05715927 0.9101419
vn 0.6088579 0.03635162 0.792446
vn 0.9836476 0.0865034 0.1579704
vn 0.9255716 0.08969744 0.3677929
vn -0.9926207 0.1174611 0.03011778
vn -0.9936676 0.06466426 0.09188651
vn 0.01775533 0.09529939 0.9952903
vn 0.06085019 0.07424121 0.9953821
vn 0.09109518 0.07619733 0.9929227
vn -0.009875917 0.1186564 0.9928863
vn 0.07640089 0.08111014 0.9937727
vn -0.8169205 0.1070148 0.5667352
vn -0.3565978 0.07367676 0.9313484
vn 0.005556431 0.08892671 0.9960227
vn -0.9857107 0.07955988 0.1484744
vn 0.07398105 0.05482703 0.9957514
vn 0.08342808 -0.07491926 0.9936936
vn 0.1297601 -0.03908893 0.9907746
vn 0.08014517 0.05447256 0.9952937
vn 0.09409891 0.06024682 0.9937382
vn -0.9967137 0.01039247 0.08033559
vn -0.9810245 0.02179442 0.1926548
vn -0.05362519 0.03926028 0.997789
vn 0.01968556 0.04699708 0.998701
vn -0.790203 0.01842455 0.6125682
vn -0.3136959 -0.2098356 0.9260475
vn 0.9822754 0.1848499 -0.03107386
vn 0.2196606 0.07824171 -0.9724338
vn 0.1376964 0.07350639 -0.9877431
vn 0.1765414 0.09044398 -0.9801291
vn 0.3626302 0.09398519 -0.9271818
vn 0.3461842 0.09836917 -0.9329952
vn 0.311828 0.1227398 -0.9421774
vn 0.7816563 0.149171 -0.6056083
vn 0.5977357 0.1017809 -0.7952061
vn 0.5906843 0.1340048 -0.7956977
vn 0.9889963 0.09697919 -0.1117207
vn 0.9701246 0.08733448 -0.2263426
vn 0.9729579 0.1221704 -0.1960289
vn 0.4952576 0.1435099 -0.8568109
vn 0.921604 0.2073552 -0.3281004
vn 0.7045753 0.1518038 -0.6932022
vn 0.7949026 0.09211206 -0.5997043
vn 0.5052108 0.09762317 -0.8574566
vn 0.8862727 0.1636608 -0.433285
vn 0.9529033 0.1613196 -0.2568098
vn 0.9196478 0.1269247 -0.3716691
vn 0.9754489 0.1770869 -0.1309187
vn 0.9852487 0.1419537 -0.09557202
vn 0.99228 0.112407 -0.05239341
vn 0.9968582 0.06956992 -0.03786311
vn 0.9981434 0.06044706 0.007479882
vn 0.1678998 0.04968185 -0.9845513
vn 0.1639481 0.0529921 -0.9850446
vn 0.1287302 0.04713988 -0.9905586
vn 0.7873997 -0.09443827 -0.609166
vn 0.591473 -0.002254573 -0.8063216
vn 0.5871586 0.0570348 -0.8074601
vn 0.7970448 -0.05065682 -0.6017919
vn 0.9007764 0.05601967 -0.430655
vn 0.9078948 0.08877686 -0.4096897
vn 0.7166848 0.1054041 -0.6893859
vn 0.8845435 0.08783372 -0.4581135
vn 0.9706084 0.07252787 -0.2294755
vn 0.9920873 0.07204458 -0.1028215
vn 0.9889346 0.06447853 -0.1336075
vn 0.9952416 0.08229493 -0.0521695
vn 0.9962842 0.0691477 -0.05134607
vn 0.6520579 0.1203417 -0.7485574
vn 0.4444213 0.06321894 -0.8935844
vn 0.3325994 0.07387496 -0.9401702
vn 0.2265729 0.05807112 -0.9722615
vn 0.294096 0.04966645 -0.9544845
vn 0.3178321 -0.06068705 -0.9462028
vn 0.9917679 0.00824715 -0.1277825
vn 0.1579254 0.06603227 -0.9852408
vn 0.1179506 0.05360861 -0.9915714
vn 0.07743412 0.08403809 -0.9934493
vn 0.1072676 0.06852549 -0.9918659
vn 0.08219981 0.06577376 -0.9944431
vn -0.9872651 0.1145926 -0.1103459
vn -0.996634 0.06612206 -0.04846247
vn 0.03112494 0.08787668 -0.995645
vn 0.005247265 0.1113058 -0.9937723
vn -0.04880148 0.1473027 -0.9878868
vn -0.9975362 0.0681005 0.01684788
vn 0.01811554 0.08758915 -0.995992
vn 0.09019472 0.05050829 -0.9946426
vn 0.07383369 -0.1118296 -0.9909807
vn 0.07698277 0.0555182 -0.9954855
vn 0.06676342 0.06097375 -0.995904
vn -0.3083799 0.05667751 -0.9495733
vn 0.0449886 0.02274533 -0.9987286
vn -0.2582965 -0.1095782 -0.9598309
vn -0.965695 0.02593879 -0.2583798
vn -0.9262175 -0.01034776 -0.3768476
vn -0.9849102 0.05723967 -0.163326
vn 0.1198268 0.05852712 -0.9910682
vn 0.1153417 -0.02241408 -0.993073
vn -0.8176388 0.05994898 -0.5726019
vn -0.5384929 -0.08867246 -0.8379514
vn -0.9946418 0.02621765 -0.1000011
vn 0.3659873 0.9303061 0.02416443
vn 0.02766885 0.9984974 0.0473016
vn -0.0108471 0.9948617 0.1006613
vn 0.4099484 -0.1324074 0.902447
vn 0.3776581 0.9043359 0.1988741
vn 0.05373605 0.9983628 0.019599
vn 0.2076567 -0.1137589 0.9715645
vn 0.3169491 -0.3636878 0.875942
vn -0.003373868 0.04936409 0.9987752
vn -0.004505609 -0.001077276 0.9999892
vn 0.009892214 0.06833632 0.9976134
vn 0.5848278 -0.7956922 0.1576402
vn 0.8252034 -0.5559999 0.09951632
vn 0.8540177 -0.4466872 0.2666913
vn 0.4390967 -0.2954453 0.8484728
vn 0.6358396 -0.1480158 0.7574954
vn 0.7872422 -0.09764251 0.6088643
vn 0.9742628 -0.2250261 0.01323654
vn 0.9990446 0.04350942 -0.004115718
vn 0.4892958 0.7975497 0.3528515
vn 0.5637984 0.7781227 0.2768689
vn 0.5275165 0.8251733 0.2020283
vn 0.789024 -0.3353574 0.5147587
vn 0.8348863 -0.5389706 -0.1116935
vn 0.5640682 -0.8257223 -0.00310604
vn 0.009523503 0.999583 0.02725964
vn 0.001534221 0.9956334 0.09333659
vn 0.4211268 -0.9070006 0.001440394
vn 0.6179758 -0.7495787 0.2371449
vn 0.7942544 -0.6075835 0.001486593
vn 0.07667851 -0.1118154 0.9907663
vn 0.04513093 -0.04484284 -0.997974
vn 0.004429216 -0.02053417 -0.9997793
vn 0.1344648 -0.04539445 -0.9898781
vn 0.04133452 -0.008919233 0.9991056
vn 0.1156165 -0.01978578 0.9930968
vn 0.9592395 -0.130217 0.2508047
vn 0.9890836 -0.143064 0.03530374
vn 0.987406 0.04246571 -0.1524012
vn 0.1906285 -0.9816623 -0.0002185609
vn 0.3598037 -0.9330261 -0.00189196
vn 0.1894374 -0.9814423 -0.02974215
vn 0.9498521 -0.3126796 -0.003519721
vn 0.9947683 -0.1019394 0.006667513
vn 0.9485916 -0.3165026 0.0003317456
vn 0.01912556 -0.003244072 0.9998118
vn 0.004674798 -0.0007557741 0.9999887
vn 0.9955874 -0.09348302 0.0081635
vn 0.01850565 -0.0016348 -0.9998274
vn 0.004078168 -0.001670979 -0.9999903
vn -0.6212076 0.7772769 0.09970863
vn -0.7573528 0.6523856 0.02845631
vn -0.5223887 0.8499763 0.06819385
vn -0.5145878 -0.02068583 0.8571882
vn -0.949614 -0.08380941 0.3020086
vn -0.5361295 -0.3612242 0.7629433
vn -0.9838988 -0.03774292 0.1746958
vn -0.9799978 -0.1983401 0.01629379
vn -0.9760631 -0.2174286 0.005049855
vn -0.9999695 0.006856064 0.003723821
vn -0.7700909 -0.3213464 0.5510867
vn -0.736962 -0.6295087 0.2461824
vn -0.564115 -0.63145 0.5320199
vn 0.03551026 0.01647969 0.9992335
vn -0.09810634 -0.4366554 0.8942635
vn 0.1140872 -0.1730679 0.9782799
vn -0.3240464 0.9454432 0.03363219
vn -0.1872515 0.9727827 0.1364945
vn -0.8942201 -0.4437011 0.05915896
vn -0.9069406 -0.3884574 0.1629709
vn 0.972792 -0.2316798 9.024336e-05
vn 0.9866368 -0.1629351 2.130671e-06
vn 0.9871985 -0.1594963 -0.0002560414
vn -0.3440344 -0.05627401 0.9372692
vn -0.3910536 -0.920297 -0.01142924
vn 0.06828439 -0.9960027 -0.05758352
vn 0.06367894 -0.9933438 0.09598476
vn -0.3612598 -0.9198834 0.1526626
vn -0.8461939 -0.4303682 0.3142278
vn 0.06847164 -0.8826284 0.4650577
vn 0.09027568 -0.8552145 0.5103512
vn -0.6304007 -0.6697032 0.3925462
vn 0.120394 -0.5020812 0.8563993
vn -0.9986461 -0.04970393 0.01534906
vn -0.9737779 -0.2274638 -0.004084016
vn -0.9954085 -0.09570727 0.001486466
vn -0.6266335 0.001581036 0.7793125
vn -0.1087191 -0.07961232 0.9908795
vn -0.9695336 -0.2439589 0.02210628
vn -0.9461199 -0.3237665 0.005692982
vn 0.2638021 -0.6183379 0.7403153
vn 0.6441947 -0.07654445 -0.7610217
vn 0.454683 -0.05947877 -0.8886651
vn 0.4948189 -0.2510592 -0.8319396
vn 0.2845773 -0.2163442 -0.9339224
vn 0.002385581 0.06952368 -0.9975774
vn 7.001409e-05 0.02174977 -0.9997635
vn -0.001441147 -0.007859431 -0.999968
vn 0.1981139 -0.1749984 -0.9644306
vn 0.04528105 0.9987773 0.01983614
vn 0.380934 0.9239196 -0.0355241
vn -0.002170646 0.9881388 -0.1535482
vn 0.2009911 -0.05114805 -0.9782568
vn 0.133391 -0.1382595 -0.9813721
vn -0.002103258 0.9919961 -0.1262513
vn 0.9694442 0.06075371 -0.2376698
vn 0.9377313 -0.2116811 -0.275411
vn 0.9074352 0.02142312 -0.4196455
vn 0.5845043 -0.7986553 -0.1431933
vn 0.3614725 -0.9309928 0.05089283
vn 0.8256677 -0.3215566 -0.4635453
vn 0.9423223 0.3098212 -0.1266468
vn 0.9970211 0.07552496 -0.01564976
vn 0.9954206 -0.08262087 -0.04807957
vn 0.6521567 -0.2083451 -0.7288924
vn 0.4088036 0.824113 -0.3920684
vn 0.3453842 0.9086951 -0.2344845
vn 0.3353792 0.8184028 -0.4666238
vn 0.1346744 0.9871908 -0.08553938
vn 0.9771119 0.1526665 -0.1481391
vn 0.9918841 -0.1210051 -0.03903549
vn 0.9996068 0.02447077 0.01368101
vn 0.3984854 0.005261361 0.9171596
vn 0.003527123 -0.006411242 0.9999732
vn -0.004991692 -0.006727558 0.999965
vn 0.1873368 -0.9791028 0.07913691
vn 0.1867544 -0.9823973 0.004287412
vn -0.9997879 -0.008356581 -0.01882239
vn -0.6547174 0.7335306 -0.1824221
vn -0.9404327 0.3173331 -0.1220082
vn -0.8765257 0.4812715 -0.008966115
vn -0.6844093 -0.4006752 -0.6091332
vn -0.615917 -0.621013 -0.4847568
vn -0.6068584 -0.7068564 -0.3634241
vn 0.3766893 -0.909615 -0.1752303
vn -0.2487931 0.9096707 -0.3325676
vn 0.0592311 -0.2561456 -0.9648218
vn 0.03368182 0.9530549 -0.3009185
vn -0.6981043 -0.6976597 -0.1610012
vn -0.773483 -0.6264127 -0.09659855
vn -0.1371201 -0.2617305 -0.9553508
vn -0.9900816 -0.03344449 -0.1364548
vn -0.8904804 -0.4408071 -0.1128441
vn -0.3589612 -0.9167591 -0.1752134
vn 0.02209644 -0.8702862 -0.4920504
vn -0.7067836 -0.454542 -0.5420781
vn 0.8418716 -0.5396684 0.003220388
vn 0.9475491 -0.3195989 -0.002696197
vn 0.04875533 -0.09117731 0.9946405
vn 0.01408616 -0.02419624 0.999608
vn -0.9913246 -0.1314353 0.000422434
vn -0.9895296 -0.1439458 0.01052529
vn -0.999924 -0.001840081 -0.01218845
vn -0.5558529 -0.03838872 -0.8303937
vn 0.3091753 -0.6515726 0.692722
vn -0.9874508 0.1573248 -0.01377386
vn -0.26251 -0.873799 -0.4093455
vn 5.582081e-05 -0.001901988 -0.9999982
vn -0.009014716 -0.0009338208 -0.9999589
vn 0.008149149 -3.805813e-05 -0.9999669
vn 0.2000468 -0.005295108 0.979772
vn 0.02910371 0.0006581257 -0.9995762
vn -0.07881511 -0.00598667 -0.9968713
vn -0.523204 0.0007407737 -0.8522071
vn -0.004563896 -0.02056505 0.9997781
vn -0.01544498 -0.1383407 0.9902642
vn 0.0003564169 -0.0155179 0.9998795
vn 0.7280669 -0.6851847 0.02098767
vn 0.3822 -0.9237598 0.02431318
vn 0.5459063 -0.8376346 -0.01883389
vn 0.8080974 -0.5888691 -0.01455159
vn -0.5430831 -0.8396436 0.007699937
vn -0.3895141 -0.9205238 -0.03024282
vn -0.1230062 -0.9920914 0.02498448
vn -0.001580066 -0.001070514 0.9999982
vn -0.002046858 -0.002438168 0.9999949
vn 0.001397601 -0.0001724034 -0.999999
vn 0.001755168 -0.00698447 -0.9999741
vn -0.7987614 -0.6011428 -0.0246507
vn -0.7989744 -0.6013252 0.006923337
vn -0.9838151 -0.1784081 -0.01668106
vn 0.008780777 -0.0002466113 -0.9999614
vn 0.0008709439 -0.00217465 -0.9999973
vn -0.005257412 -0.001236505 0.9999855
vn 6.421711e-05 -0.002610924 0.9999966
vn 0.9917222 -0.1283913 0.001703292
vn 0.9910303 -0.1336346 -0.0007572461
vn -0.2345122 -0.9719394 0.01837471
vn -0.05894649 -0.9980604 -0.02001573
vn 0.1208837 -0.9925447 0.01556106
vn 0.2932676 -0.9558513 -0.01850393
vn 0.02157729 -0.02916477 -0.9993417
vn 0.009426856 -0.01502688 -0.9998426
vn 0.4305469 -0.9023436 0.02013327
vn 0.576315 -0.8171794 -0.008880439
vn 0.7137928 -0.7001278 0.01791432
vn -0.02302097 0.007393304 -0.9997077
vn -0.0004176398 -0.002493371 -0.9999968
vn -0.0007035565 0.0004102521 -0.9999996
vn -0.008053184 -0.001682038 0.9999661
vn 0.776414 -0.6301563 -0.009185712
vn 0.004836326 -0.001127055 0.9999877
vn 0.9150947 -0.4031583 -0.008070062
vn 0.9082363 -0.4184417 0.00365119
vn 0.002077791 -0.0004232887 0.9999978
vn -0.003743623 0.002185567 0.9999906
vn 0.0004120902 0.007821309 0.9999693
vn -0.8616671 -0.5070665 0.02033331
vn -0.6995723 -0.7144919 -0.009993728
vn -0.5796846 -0.8144043 0.02667082
vn -0.002912458 0.00470309 -0.9999847
vn -0.001099951 -0.004786476 -0.9999879
vn -0.4203283 -0.9072099 -0.01715303
vn 0.1464135 0.569204 0.8090549
vn -0.831801 0.4092205 0.3750275
vn 0.2746596 0.4348108 -0.8576139
vn -0.9728947 0.2271217 -0.04349277
vn 0.1875718 0.05979171 0.9804294
vn -0.02509983 0.1025379 0.9944124
vn 0.004141367 0.07678138 -0.9970393
vn 0.03921933 0.06396071 -0.9971814
vn 0.003348262 0.2341025 0.9722061
vn 0.001394323 0.1895209 0.9818757
vn 0.1762675 -0.1990308 0.9640106
vn 0.6690526 0.7327275 0.1244143
vn 0.629449 0.7770392 0.002000066
vn 0.9536454 -0.01653937 0.3004779
vn 0.9999126 0.01282672 -0.003197742
vn 0.2308156 0.002345745 -0.9729947
vn 0.9761239 -0.2171741 -0.004200536
vn 0.9769948 -0.213238 -0.003262341
vn 0.9934193 -0.1141004 0.009959212
vn -0.9999623 0.00853297 0.001598748
vn -0.2687843 -0.01984462 0.9629959
vn -0.656077 -0.71995 0.2263512
vn 0.9684473 -0.2490987 0.007712694
vn 0.4216073 -0.9067665 0.004684944
vn -0.007667879 -0.008530691 0.9999343
vn 0.747282 -0.6644982 -0.00342201
vn 0.9940814 0.1086347 0.0007151038
vn 0.7000383 0.7112823 -0.06343483
vn 0.4354326 0.01144358 0.9001486
vn 0.418645 0.01279613 0.9080598
vn 0.1778827 -0.6667289 -0.7237612
vn 0.3731444 -0.7554328 0.538595
vn -0.001500761 -0.002478232 -0.9999958
vn -0.2371405 -0.006547143 -0.9714534
vn -0.7414092 -0.04475398 -0.6695591
vn -0.9930645 0.002299817 -0.1175491
vn 0.9840335 -0.1778498 -0.006894328
vn 0.1433393 -0.1493441 0.9783406
vn -0.04690215 -0.6967055 -0.7158224
vn -0.01209015 -0.6936643 -0.7201971
vn 0.133161 -0.9908209 -0.02328267
vn 0.001808457 -0.005687456 -0.9999822
vn 0.009811207 -0.0766926 -0.9970066
vn 0.001459428 0.000206457 -0.9999989
vn 0.04131567 -0.04138218 0.9982888
vn 0.9775694 -0.2102674 -0.01206765
vn 0.9149895 -0.4031659 0.01585618
vn 0.009024644 -0.02933323 0.9995289
vn 0.008421059 -0.02365122 0.9996848
vn -0.001276748 0.001960249 -0.9999973
vn -0.9083071 -0.4182482 -0.006833927
f 24//1 99//2 101//3
f 101//3 99//2 96//4
f 47//5 48//6 27//7
f 26//8 18//9 27//7
f 28//10 45//11 46//12
f 25//13 28//10 46//12
f 25//13 46//12 100//14
f 46//12 131//15 100//14
f 24//1 25//13 99//2
f 21//16 15//17 22//18
f 21//16 14//19 15//17
f 19//20 23//21 12//22
f 22//18 12//22 23//21
f 19//20 17//23 18//9
f 12//22 10//24 17//23
f 17//23 10//24 11//25
f 26//8 24//1 23//21
f 23//21 24//1 20//26
f 19//20 26//8 23//21
f 22//18 23//21 21//16
f 17//23 11//25 16//27
f 22//18 15//17 8//28
f 14//19 13//29 15//17
f 86//30 85//31 82//32
f 13//29 14//19 82//32
f 82//32 77//33 13//29
f 13//29 77//33 6//34
f 12//22 22//18 8//28
f 66//35 11//25 9//36
f 10//24 9//36 11//25
f 9//36 3//37 66//35
f 7//38 8//28 5//39
f 5//39 8//28 13//29
f 13//29 6//34 5//39
f 6//34 77//33 5//39
f 58//40 59//41 2//42
f 2//42 3//37 9//36
f 38//43 30//44 35//45
f 16//27 67//46 30//44
f 65//47 30//44 67//46
f 35//45 29//48 36//49
f 16//27 30//44 38//43
f 44//50 39//51 52//52
f 159//53 154//54 32//55
f 53//56 158//57 50//58
f 158//57 160//59 159//53
f 52//52 51//60 53//56
f 51//60 157//61 53//56
f 33//62 32//55 135//63
f 49//64 32//55 33//62
f 56//65 55//66 41//67
f 50//58 49//64 56//65
f 56//65 49//64 54//68
f 49//64 50//58 158//57
f 41//67 50//58 56//65
f 54//68 33//62 31//69
f 39//51 40//70 147//71
f 44//50 52//52 41//67
f 44//50 37//72 39//51
f 42//73 37//72 44//50
f 64//74 34//75 36//49
f 30//44 29//48 35//45
f 45//11 55//66 54//68
f 54//68 31//69 46//12
f 38//43 35//45 42//73
f 47//5 43//76 48//6
f 47//5 38//43 42//73
f 60//77 61//78 63//79
f 63//79 61//78 64//74
f 63//79 64//74 29//48
f 63//79 29//48 30//44
f 62//80 60//77 65//47
f 62//80 65//47 3//37
f 104//81 185//82 68//83
f 185//82 183//84 68//83
f 59//41 57//85 184//86
f 190//87 189//88 61//78
f 184//86 190//87 60//77
f 89//89 122//90 88//91
f 89//89 123//92 122//90
f 92//93 81//94 79//95
f 110//96 102//97 105//98
f 110//96 105//98 69//99
f 70//100 110//96 69//99
f 90//101 88//91 81//94
f 82//32 85//31 83//102
f 83//102 85//31 84//103
f 83//102 80//104 75//105
f 83//102 75//105 77//33
f 79//95 74//106 75//105
f 79//95 71//107 74//106
f 71//107 116//108 111//109
f 77//33 76//110 5//39
f 77//33 75//105 73//111
f 95//112 94//113 93//114
f 76//110 73//111 69//99
f 89//89 129//115 123//92
f 97//116 89//89 91//117
f 98//118 97//116 91//117
f 97//116 87//119 129//115
f 100//14 98//118 96//4
f 99//2 100//14 96//4
f 25//13 100//14 99//2
f 100//14 131//15 87//119
f 111//109 110//96 70//100
f 74//106 70//100 73//111
f 118//120 119//121 212//122
f 121//123 118//120 115//124
f 121//123 120//125 118//120
f 125//126 120//125 121//123
f 122//90 115//124 117//127
f 105//98 102//97 265//128
f 261//129 185//82 104//81
f 265//128 261//129 104//81
f 103//130 260//131 102//97
f 31//69 139//132 131//15
f 131//15 139//132 130//133
f 87//119 131//15 130//133
f 127//134 136//135 126//136
f 127//134 128//137 123//92
f 129//115 127//134 123//92
f 128//137 126//136 125//126
f 123//92 128//137 125//126
f 136//135 133//138 126//136
f 126//136 133//138 132//139
f 126//136 132//139 124//140
f 117//127 115//124 112//141
f 112//141 115//124 114//142
f 114//142 118//120 113//143
f 113//143 268//144 109//145
f 103//130 107//146 275//147
f 109//145 107//146 108//148
f 110//96 103//130 102//97
f 108//148 103//130 110//96
f 112//141 108//148 111//109
f 124//140 219//149 120//125
f 132//139 218//150 220//151
f 132//139 220//151 124//140
f 124//140 220//151 219//149
f 123//92 121//123 115//124
f 123//92 115//124 122//90
f 113//143 212//122 268//144
f 268//144 212//122 271//152
f 228//153 218//150 132//139
f 134//154 132//139 133//138
f 132//139 134//154 228//153
f 138//155 135//63 134//154
f 135//63 229//156 134//154
f 137//157 136//135 130//133
f 139//132 138//155 137//157
f 133//138 136//135 134//154
f 149//158 176//159 178//160
f 40//70 143//161 147//71
f 146//162 51//60 147//71
f 146//162 152//163 51//60
f 34//75 194//164 143//161
f 193//165 194//164 64//74
f 141//166 168//167 144//168
f 144//168 167//169 146//162
f 209//170 164//171 142//172
f 140//173 142//172 141//166
f 142//172 163//174 141//166
f 142//172 164//171 163//174
f 145//175 146//162 147//71
f 145//175 141//166 146//162
f 147//71 143//161 145//175
f 53//56 157//61 158//57
f 159//53 160//59 156//176
f 159//53 156//176 154//54
f 157//61 152//163 153//177
f 157//61 51//60 152//163
f 153//177 148//178 150//179
f 149//158 178//160 148//178
f 149//158 153//177 152//163
f 151//180 148//178 177//181
f 143//161 140//173 145//175
f 151//180 226//182 155//183
f 155//183 226//182 231//184
f 206//185 207//186 208//187
f 296//188 286//189 288//190
f 181//191 303//192 309//193
f 259//194 173//195 180//196
f 168//167 161//197 166//198
f 166//198 165//199 172//200
f 161//197 165//199 166//198
f 182//201 169//202 181//191
f 170//203 308//204 304//205
f 170//203 171//206 169//202
f 169//202 171//206 181//191
f 165//199 292//207 295//208
f 172//200 295//208 308//204
f 161//197 296//188 165//199
f 173//195 174//209 182//201
f 178//160 174//209 148//178
f 178//160 175//210 174//209
f 176//159 175//210 178//160
f 177//181 174//209 173//195
f 165//199 296//188 292//207
f 172//200 165//199 295//208
f 183//84 264//211 195//212
f 187//213 204//214 191//215
f 188//216 187//213 189//88
f 192//217 191//215 194//164
f 189//88 192//217 193//165
f 187//213 192//217 189//88
f 191//215 209//170 142//172
f 198//218 327//219 184//86
f 184//86 327//219 203//220
f 57//85 197//221 198//218
f 183//84 197//221 57//85
f 205//222 330//223 331//224
f 205//222 331//224 207//186
f 205//222 207//186 206//185
f 201//225 205//222 202//226
f 208//187 202//226 206//185
f 202//226 208//187 209//170
f 204//214 202//226 191//215
f 195//212 317//227 318//228
f 204//214 203//220 200//229
f 204//214 201//225 202//226
f 200//229 201//225 204//214
f 327//219 196//230 203//220
f 196//230 205//222 201//225
f 201//225 200//229 196//230
f 199//231 327//219 198//218
f 197//221 318//228 198//218
f 197//221 195//212 318//228
f 327//219 326//232 196//230
f 229//156 154//54 232//233
f 237//234 270//235 210//236
f 241//237 237//234 211//238
f 212//122 210//236 271//152
f 212//122 213//239 210//236
f 211//238 237//234 210//236
f 119//121 213//239 212//122
f 222//240 214//241 215//242
f 253//243 251//244 256//245
f 214//241 241//237 211//238
f 215//242 214//241 211//238
f 216//246 211//238 213//239
f 219//149 216//246 213//239
f 228//153 227//247 218//150
f 220//151 217//248 216//246
f 214//241 254//249 242//250
f 223//251 224//252 255//253
f 230//254 232//233 231//184
f 232//233 230//254 229//156
f 228//153 230//254 227//247
f 230//254 224//252 227//247
f 227//247 223//251 218//150
f 223//251 222//240 218//150
f 218//150 215//242 217//248
f 225//255 226//182 221//256
f 225//255 221//256 253//243
f 225//255 256//245 224//252
f 259//194 180//196 257//257
f 180//196 179//258 257//257
f 233//259 351//260 283//261
f 369//262 366//263 238//264
f 243//265 244//266 238//264
f 244//266 369//262 238//264
f 249//267 243//265 247//268
f 250//269 251//244 249//267
f 249//267 245//270 244//266
f 251//244 245//270 249//267
f 258//271 246//272 245//270
f 251//244 258//271 245//270
f 252//273 258//271 253//243
f 257//257 258//271 252//273
f 252//273 259//194 257//257
f 179//258 378//274 257//257
f 254//249 250//269 248//275
f 257//257 378//274 258//271
f 248//275 240//276 242//250
f 221//256 252//273 253//243
f 259//194 252//273 221//256
f 241//237 239//277 236//278
f 247//268 238//264 240//276
f 239//277 240//276 234//279
f 234//279 238//264 357//280
f 378//274 376//281 246//272
f 235//282 236//278 233//259
f 233//259 283//261 282//283
f 267//284 285//285 280//286
f 261//129 263//287 382//288
f 268//144 269//289 262//290
f 268//144 262//290 106//291
f 264//211 261//129 319//292
f 185//82 261//129 264//211
f 262//290 266//293 275//147
f 267//284 280//286 266//293
f 281//294 391//295 277//296
f 266//293 280//286 279//297
f 273//298 390//299 387//300
f 385//301 410//302 274//303
f 284//304 282//283 280//286
f 279//297 282//283 277//296
f 351//260 393//305 281//294
f 282//283 283//261 281//294
f 393//305 391//295 281//294
f 261//129 382//288 319//292
f 272//306 273//298 385//307
f 273//298 387//300 385//307
f 260//131 275//147 272//306
f 275//147 273//298 272//306
f 274//303 381//308 382//288
f 294//309 291//310 290//311
f 288//190 289//312 296//188
f 294//309 305//313 293//314
f 292//207 296//188 289//312
f 289//312 290//315 291//316
f 320//317 342//318 300//319
f 375//320 301//321 302//322
f 303//192 302//322 301//321
f 289//312 293//323 305//324
f 295//208 307//325 308//204
f 309//193 379//326 310//327
f 298//328 306//329 305//313
f 305//313 299//330 298//328
f 306//331 375//320 302//322
f 302//322 307//325 306//331
f 301//321 379//326 309//193
f 379//326 301//321 371//332
f 301//321 374//333 371//332
f 294//309 287//334 332//335
f 308//204 307//325 304//205
f 299//330 305//313 294//309
f 356//336 361//337 297//338
f 297//339 312//339 356//339
f 316//340 312//341 297//342
f 300//319 314//343 315//344
f 298//345 364//346 365//347
f 312//348 400//349 311//350
f 314//351 416//352 313//353
f 342//318 430//354 416//355
f 313//353 416//352 417//356
f 312//341 313//357 417//358
f 300//319 342//318 416//355
f 323//359 321//360 320//361
f 322//362 343//363 338//364
f 318//228 335//365 343//363
f 345//366 347//367 320//368
f 324//369 322//370 323//371
f 326//232 330//223 329//372
f 326//232 325//373 332//374
f 330//223 326//232 332//374
f 328//375 332//335 325//376
f 325//376 323//359 320//361
f 327//219 324//369 326//232
f 326//232 323//371 325//373
f 317//227 335//365 318//228
f 394//377 334//378 335//365
f 409//379 340//380 398//381
f 320//317 346//382 342//318
f 399//383 398//384 336//385
f 334//378 333//386 337//387
f 339//388 336//385 340//389
f 337//387 339//390 338//364
f 338//364 340//389 341//391
f 415//392 423//393 342//394
f 334//378 337//387 335//365
f 337//387 338//364 335//365
f 335//365 338//364 343//363
f 345//395 344//396 341//391
f 341//397 342//394 346//398
f 348//399 341//391 340//389
f 341//400 348//400 415//400
f 345//366 346//398 347//367
f 366//263 359//401 357//280
f 359//401 358//402 354//403
f 357//280 359//401 354//403
f 350//404 402//405 383//406
f 357//280 354//403 353//407
f 354//408 350//409 353//410
f 352//411 353//407 392//412
f 353//410 350//409 392//413
f 352//411 393//305 351//260
f 373//414 372//415 370//416
f 374//333 375//320 363//417
f 312//348 355//418 356//336
f 372//415 362//419 369//262
f 363//417 362//419 371//332
f 362//420 363//421 365//347
f 376//281 378//274 377//422
f 369//262 362//419 367//423
f 362//424 368//425 367//426
f 310//327 379//326 377//422
f 379//326 371//332 377//422
f 376//281 377//422 371//332
f 368//425 358//427 367//426
f 368//428 365//347 380//429
f 368//428 380//429 402//430
f 360//431 413//432 452//433
f 414//434 413//435 312//348
f 382//288 381//308 395//436
f 319//292 382//288 395//436
f 386//437 433//438 388//439
f 408//440 384//441 388//442
f 410//443 385//443 384//443
f 383//444 433//438 386//437
f 392//412 391//295 393//305
f 392//412 389//445 391//295
f 392//413 383//444 389//446
f 391//295 389//445 387//300
f 391//295 387//300 390//299
f 388//442 385//447 386//448
f 385//307 387//300 386//449
f 395//436 401//450 396//451
f 398//384 397//452 404//453
f 399//383 396//451 397//452
f 401//450 405//454 396//451
f 411//455 348//456 409//379
f 412//457 409//458 413//432
f 435//459 437//460 407//461
f 384//462 405//454 410//302
f 406//463 407//463 409//463
f 435//459 407//461 408//464
f 403//465 397//452 405//454
f 400//466 418//467 349//468
f 416//355 430//354 432//469
f 348//470 422//471 415//472
f 348//470 418//467 422//471
f 420//473 425//474 426//475
f 429//476 426//477 427//478
f 429//476 427//478 428//479
f 420//480 421//481 425//482
f 426//475 423//483 419//484
f 431//485 421//486 400//466
f 423//393 418//487 419//488
f 422//489 418//487 423//393
f 420//480 418//487 421//481
f 402//405 451//490 450//491
f 407//492 442//493 409//458
f 452//494 451//495 402//430
f 442//496 441//497 443//498
f 441//497 444//499 443//498
f 450//491 446//500 444//501
f 445//502 444//499 446//503
f 445//502 446//503 447//504
f 450//491 448//505 446//500
f 450//491 436//506 435//507
f 407//492 437//508 442//493
f 448//509 447//504 446//503
f 409//458 442//493 447//510
f 450//511 449//512 448//509
f 451//495 449//512 450//511
f 409//458 447//510 449//513
f 409//458 449//513 452//433
f 442//493 440//514 439//515
f 440//516 434//517 439//518
f 438//519 434//520 450//491
f 450//491 434//520 436//506
f 434//517 438//521 439//518
f 27//7 48//6 45//11
f 27//7 18//9 47//5
f 27//7 45//11 28//10
f 26//8 25//13 24//1
f 28//10 26//8 27//7
f 26//8 28//10 25//13
f 14//19 21//16 86//30
f 19//20 12//22 17//23
f 21//16 23//21 20//26
f 20//26 24//1 101//3
f 94//113 20//26 101//3
f 86//30 21//16 20//26
f 86//30 20//26 95//112
f 26//8 19//20 18//9
f 18//9 16//27 47//5
f 18//9 17//23 16//27
f 8//28 15//17 13//29
f 82//32 14//19 86//30
f 10//24 4//522 9//36
f 12//22 4//522 10//24
f 12//22 8//28 4//522
f 4//522 8//28 7//38
f 11//25 66//35 67//46
f 5//39 1//523 7//38
f 1//523 68//83 58//40
f 2//42 59//41 3//37
f 3//37 59//41 62//80
f 68//83 5//39 76//110
f 4//522 2//42 9//36
f 58//40 2//42 1//523
f 7//38 2//42 4//522
f 7//38 1//523 2//42
f 1//523 5//39 68//83
f 16//27 11//25 67//46
f 37//72 35//45 36//49
f 51//60 39//51 147//71
f 52//52 39//51 51//60
f 40//70 34//75 143//161
f 49//64 158//57 159//53
f 50//58 52//52 53//56
f 54//68 49//64 33//62
f 49//64 159//53 32//55
f 54//68 55//66 56//65
f 41//67 52//52 50//58
f 139//132 31//69 33//62
f 39//51 37//72 40//70
f 43//76 42//73 44//50
f 43//76 44//50 41//67
f 43//76 41//67 55//66
f 37//72 36//49 40//70
f 42//73 35//45 37//72
f 131//15 46//12 31//69
f 36//49 34//75 40//70
f 29//48 64//74 36//49
f 46//12 45//11 54//68
f 55//66 48//6 43//76
f 45//11 48//6 55//66
f 47//5 42//73 43//76
f 47//5 16//27 38//43
f 58//40 68//83 183//84
f 58//40 183//84 57//85
f 61//78 189//88 193//165
f 64//74 61//78 193//165
f 65//47 60//77 63//79
f 65//47 63//79 30//44
f 3//37 65//47 66//35
f 66//35 65//47 67//46
f 59//41 58//40 57//85
f 183//84 185//82 264//211
f 61//78 60//77 190//87
f 62//80 59//41 60//77
f 59//41 184//86 60//77
f 88//91 117//127 116//108
f 78//524 88//91 116//108
f 117//127 88//91 122//90
f 90//101 89//89 88//91
f 91//117 89//89 90//101
f 81//94 92//93 90//101
f 92//93 91//117 90//101
f 80//104 84//103 92//93
f 84//103 93//114 92//93
f 95//112 93//114 84//103
f 92//93 93//114 91//117
f 83//102 84//103 80//104
f 82//32 83//102 77//33
f 79//95 80//104 92//93
f 79//95 81//94 78//524
f 78//524 81//94 88//91
f 79//95 78//524 71//107
f 75//105 80//104 79//95
f 78//524 116//108 71//107
f 95//112 20//26 94//113
f 77//33 73//111 76//110
f 85//31 95//112 84//103
f 86//30 95//112 85//31
f 97//116 129//115 89//89
f 98//118 87//119 97//116
f 98//118 100//14 87//119
f 91//117 93//114 98//118
f 93//114 96//4 98//118
f 93//114 94//113 96//4
f 94//113 101//3 96//4
f 71//107 111//109 70//100
f 69//99 105//98 72//525
f 73//111 70//100 69//99
f 70//100 74//106 71//107
f 75//105 74//106 73//111
f 76//110 69//99 72//525
f 72//525 104//81 68//83
f 68//83 76//110 72//525
f 120//125 119//121 118//120
f 114//142 115//124 118//120
f 118//120 212//122 113//143
f 120//125 219//149 119//121
f 72//525 265//128 104//81
f 105//98 265//128 72//525
f 260//131 103//130 275//147
f 102//97 260//131 265//128
f 130//133 139//132 137//157
f 127//134 130//133 136//135
f 129//115 87//119 130//133
f 129//115 130//133 127//134
f 128//137 127//134 126//136
f 125//126 126//136 124//140
f 116//108 117//127 112//141
f 111//109 116//108 112//141
f 112//141 114//142 109//145
f 109//145 114//142 113//143
f 107//146 106//291 275//147
f 106//291 109//145 268//144
f 108//148 107//146 103//130
f 107//146 109//145 106//291
f 111//109 108//148 110//96
f 108//148 112//141 109//145
f 125//126 124//140 120//125
f 219//149 220//151 216//246
f 123//92 125//126 121//123
f 134//154 229//156 228//153
f 135//63 154//54 229//156
f 135//63 32//55 154//54
f 139//132 33//62 135//63
f 138//155 139//132 135//63
f 137//157 138//155 136//135
f 136//135 138//155 134//154
f 226//182 177//181 259//194
f 149//158 167//169 176//159
f 34//75 64//74 194//164
f 168//167 163//174 161//197
f 141//166 163//174 168//167
f 146//162 141//166 144//168
f 144//168 168//167 167//169
f 143//161 142//172 140//173
f 194//164 142//172 143//161
f 160//59 158//57 150//179
f 152//163 146//162 149//158
f 157//61 150//179 158//57
f 157//61 153//177 150//179
f 156//176 150//179 151//180
f 155//183 156//176 151//180
f 156//176 160//59 150//179
f 154//54 156//176 232//233
f 156//176 155//183 232//233
f 232//233 155//183 231//184
f 167//169 149//158 146//162
f 150//179 148//178 151//180
f 153//177 149//158 148//178
f 226//182 151//180 177//181
f 140//173 141//166 145//175
f 179//258 309//193 310//327
f 181//191 309//193 179//258
f 180//196 181//191 179//258
f 286//189 207//186 331//224
f 286//189 208//187 207//186
f 162//526 209//170 208//187
f 296//188 208//187 286//189
f 296//188 162//526 208//187
f 162//526 296//188 161//197
f 164//171 162//526 163//174
f 164//171 209//170 162//526
f 180//196 182//201 181//191
f 173//195 182//201 180//196
f 167//169 168//167 166//198
f 163//174 162//526 161//197
f 170//203 304//205 171//206
f 171//206 304//205 303//192
f 181//191 171//206 303//192
f 172//200 308//204 170//203
f 174//209 169//202 182//201
f 176//159 167//169 172//200
f 167//169 166//198 172//200
f 148//178 174//209 177//181
f 259//194 177//181 173//195
f 176//159 172//200 175//210
f 174//209 175//210 169//202
f 175//210 170//203 169//202
f 170//203 175//210 172//200
f 264//211 319//292 195//212
f 187//213 186//527 203//220
f 187//213 203//220 204//214
f 188//216 184//86 186//527
f 187//213 188//216 186//527
f 190//87 184//86 188//216
f 189//88 190//87 188//216
f 142//172 194//164 191//215
f 194//164 193//165 192//217
f 183//84 195//212 197//221
f 184//86 203//220 186//527
f 192//217 187//213 191//215
f 191//215 202//226 209//170
f 57//85 198//218 184//86
f 202//226 205//222 206//185
f 195//212 319//292 317//227
f 203//220 196//230 200//229
f 205//222 196//230 329//372
f 196//230 326//232 329//372
f 199//231 198//218 318//228
f 270//235 237//234 235//282
f 271//152 210//236 270//235
f 228//153 229//156 230//254
f 213//239 211//238 210//236
f 222//240 255//253 254//249
f 222//240 223//251 255//253
f 119//121 219//149 213//239
f 214//241 222//240 254//249
f 221//256 226//182 259//194
f 214//241 242//250 241//237
f 211//238 216//246 215//242
f 216//246 217//248 215//242
f 254//249 255//253 250//269
f 217//248 220//151 218//150
f 231//184 225//255 230//254
f 224//252 230//254 225//255
f 223//251 227//247 224//252
f 224//252 256//245 255//253
f 218//150 222//240 215//242
f 231//184 226//182 225//255
f 256//245 225//255 253//243
f 233//259 234//279 351//260
f 244//266 370//416 369//262
f 244//266 373//414 370//416
f 245//270 373//414 244//266
f 245//270 246//272 373//414
f 248//275 247//268 240//276
f 247//268 243//265 238//264
f 249//267 244//266 243//265
f 247//268 250//269 249//267
f 253//243 258//271 251//244
f 242//250 254//249 248//275
f 250//269 247//268 248//275
f 255//253 251//244 250//269
f 256//245 251//244 255//253
f 258//271 378//274 246//272
f 241//237 242//250 239//277
f 237//234 241//237 236//278
f 240//276 238//264 234//279
f 242//250 240//276 239//277
f 236//278 239//277 234//279
f 238//264 366//263 357//280
f 234//279 357//280 352//411
f 351//260 234//279 352//411
f 179//258 310//327 378//274
f 373//414 246//272 376//281
f 235//282 237//234 236//278
f 235//282 233//259 284//304
f 236//278 234//279 233//259
f 275//147 278//528 273//298
f 263//287 274//303 382//288
f 267//284 270//235 285//285
f 263//287 260//131 274//303
f 271//152 270//235 267//284
f 262//290 269//289 267//284
f 268//144 271//152 269//289
f 269//289 271//152 267//284
f 275//147 106//291 262//290
f 266//293 262//290 267//284
f 261//129 265//128 263//287
f 260//131 263//287 265//128
f 266//293 278//528 275//147
f 273//298 278//528 276//529
f 276//529 279//297 277//296
f 278//528 279//297 276//529
f 266//293 279//297 278//528
f 390//299 277//296 391//295
f 277//296 390//299 276//529
f 273//298 276//529 390//299
f 272//306 385//301 274//303
f 270//235 235//282 285//285
f 285//285 235//282 284//304
f 285//285 284//304 280//286
f 284//304 233//259 282//283
f 280//286 282//283 279//297
f 282//283 281//294 277//296
f 283//261 351//260 281//294
f 381//308 274//303 410//302
f 260//131 272//306 274//303
f 294//530 328//531 300//319
f 289//312 287//532 290//315
f 295//208 292//207 289//312
f 289//312 291//316 293//323
f 291//310 294//309 293//314
f 301//321 375//320 374//333
f 303//192 304//205 302//322
f 295//208 289//312 305//324
f 307//325 295//208 305//324
f 306//329 298//328 375//533
f 309//193 303//192 301//321
f 305//324 306//331 307//325
f 289//312 288//190 287//532
f 328//531 320//317 300//319
f 287//334 294//309 290//311
f 286//189 331//224 288//190
f 288//190 331//224 332//374
f 288//190 332//374 287//532
f 304//205 307//325 302//322
f 294//309 300//534 299//330
f 299//535 300//536 364//346
f 364//537 316//340 297//342
f 364//346 315//538 316//539
f 364//346 300//536 315//538
f 299//535 364//346 298//345
f 316//539 315//538 313//353
f 312//341 316//340 313//357
f 312//341 417//358 400//466
f 313//353 315//538 314//351
f 311//350 414//434 312//348
f 416//352 432//540 417//356
f 300//319 416//355 314//343
f 321//541 345//366 320//368
f 345//395 321//542 338//364
f 321//542 322//362 338//364
f 330//223 332//374 331//224
f 328//375 294//309 332//335
f 324//369 318//228 343//363
f 322//370 321//543 323//371
f 324//369 343//363 322//370
f 330//223 205//222 329//372
f 326//232 324//369 323//371
f 328//375 325//376 320//361
f 199//231 318//228 324//369
f 327//219 199//231 324//369
f 319//292 395//436 317//227
f 317//227 394//377 335//365
f 317//227 395//436 394//377
f 334//378 394//377 333//386
f 409//379 348//456 340//380
f 398//381 340//380 336//544
f 333//386 394//377 399//383
f 311//350 400//349 412//545
f 320//317 347//546 346//382
f 336//385 333//386 399//383
f 333//386 339//390 337//387
f 339//388 333//386 336//385
f 340//389 338//364 339//388
f 341//397 415//392 342//394
f 345//395 338//364 344//396
f 344//396 338//364 341//391
f 346//398 345//366 341//397
f 349//547 412//545 400//349
f 411//455 349//547 348//456
f 358//427 350//409 354//408
f 352//411 357//280 353//407
f 393//305 352//411 392//412
f 392//413 350//409 383//444
f 363//421 375//548 298//345
f 371//332 374//333 363//417
f 371//332 362//419 372//415
f 370//416 372//415 369//262
f 378//274 310//327 377//422
f 368//428 362//420 365//347
f 373//414 376//281 372//415
f 376//281 371//332 372//415
f 366//263 369//262 367//423
f 366//263 367//423 359//401
f 359//401 367//423 358//402
f 350//409 368//425 402//549
f 368//425 350//409 358//427
f 365//347 364//346 380//429
f 297//338 380//429 364//346
f 380//429 297//338 361//337
f 365//347 363//421 298//345
f 312//348 413//435 355//418
f 380//550 361//551 360//431
f 361//337 356//336 355//418
f 360//552 355//552 413//552
f 361//337 355//418 360//553
f 380//550 360//431 452//433
f 402//430 380//429 452//494
f 413//432 409//458 452//433
f 381//308 410//302 401//450
f 395//436 381//308 401//450
f 385//447 388//442 384//441
f 386//437 389//446 383//444
f 387//300 389//445 386//449
f 433//554 383//406 402//405
f 433//554 402//405 435//507
f 433//438 435//459 408//464
f 408//555 406//556 384//462
f 408//464 407//461 406//557
f 388//439 433//438 408//464
f 395//436 396//451 394//377
f 397//452 396//451 405//454
f 399//383 394//377 396//451
f 399//383 397//452 398//384
f 409//379 398//381 404//558
f 311//350 412//545 414//434
f 412//545 349//547 411//455
f 412//457 411//559 409//458
f 410//302 405//454 401//450
f 406//560 403//465 405//454
f 404//453 403//465 406//560
f 409//561 404//453 406//560
f 384//462 406//556 405//454
f 404//453 397//452 403//465
f 414//434 412//545 413//435
f 417//358 431//485 400//466
f 348//470 349//468 418//467
f 400//466 421//486 418//467
f 423//393 415//392 422//489
f 426//475 419//484 420//473
f 342//318 426//475 430//354
f 342//318 423//483 426//475
f 424//562 425//482 421//481
f 421//486 427//563 424//564
f 427//478 426//477 424//562
f 425//482 424//562 426//477
f 421//486 428//565 427//563
f 430//354 426//475 429//566
f 421//486 431//485 428//565
f 431//567 430//568 428//479
f 431//567 432//540 430//568
f 417//356 432//540 431//567
f 419//488 418//487 420//480
f 430//568 429//476 428//479
f 402//405 450//491 435//507
f 443//498 444//499 445//502
f 442//493 443//569 445//570
f 441//571 450//491 444//501
f 442//493 445//570 447//510
f 449//512 447//504 448//509
f 452//494 449//512 451//495
f 450//491 441//571 438//519
f 442//496 438//521 441//497
f 439//518 438//521 442//496
f 442//493 437//508 440//514
f 437//460 435//459 436//572
f 437//460 436//572 440//516
f 436//572 434//517 440//516
