# G1 exterior visual; derived from pinned Unitree/TWIST2 CAD.
v 0.039964918 -0.0213705506 0.0057908115
v 0.0395713821 -0.0219490919 0.0199157819
v 0.047139056 -0.0135024395 -0.0322156549
v 0.047124058 -0.0129002016 -0.0407770202
v 0.0463208593 -0.0159418583 -0.0403464325
v 0.0444483086 -0.0185246449 -0.0286512356
v 0.0437530726 -0.0190903582 -0.0399429724
v 0.036649432 -0.0218212772 -0.0393150821
v 0.0399972014 -0.0208809637 -0.0261714943
v 0.0443768017 -0.0192352906 0.0193636343
v 0.0431721695 -0.0198127683 0.00752442051
v 0.0469574556 -0.0149709312 0.0196265094
v 0.0455751047 -0.0174137745 0.00971131027
v 0.0470984839 -0.0135262404 0.0123180822
v 0.0224819314 -0.0227358118 -0.0373314284
v 0.0351933353 -0.0226930585 0.0209282581
v 0.0689784288 -0.0112788035 -0.0430209078
v 0.0709486976 -0.0119045991 -0.0398835763
v 0.068941623 -0.0180919115 -0.0412192568
v 0.0709384531 -0.0313999914 -0.0199649371
v 0.0689468533 -0.0294927005 -0.0315617546
v 0.07093779 -0.0238334853 -0.0324789025
v 0.0689129531 -0.0247401092 -0.0372469686
v 0.0689810514 -0.0332721248 -0.0230273381
v 0.0689103082 -0.0111401724 0.0215551089
v 0.0492199995 -0.0103770243 0.0222971346
v 0.0680760667 -0.00887447502 0.022998821
v 0.0511003584 -0.00735687325 0.0244789664
v 0.0669171512 -0.00749127148 0.0244953372
v 0.0669398382 0.00406585354 0.0244360268
v 0.051104065 0.00397989573 0.024437815
v 0.0108781364 -0.0227101874 -0.0225092508
v 0.0189101286 -0.0227101836 -0.0166190919
v 0.0251614414 -0.0227101855 0.000830110046
v 0.0231478792 -0.0227101874 0.00944329798
v -0.00812321622 -0.0227101855 -0.0236965138
v 0.00240832684 -0.0227101892 -0.0250596739
v -0.0132836457 -0.0227124654 -0.0267539136
v 0.0233384594 -0.0227101836 -0.00896194205
v 0.00326200761 -0.022713732 0.0297322329
v 0.000751450832 -0.0227101855 0.0251639169
v 0.0177736543 -0.0227101892 0.0178293139
v 0.0104096886 -0.0227101855 0.0227296818
v -0.00502208667 -0.0227101836 0.0293945689
v -0.0148514993 -0.0227143522 0.0260432698
v -0.011464295 -0.0227101855 0.0224133283
v -0.0248823818 -0.0227062069 0.0168414153
v -0.01840044 -0.0227101874 0.0169240627
v -0.0237000939 -0.0227101855 0.0084907487
v -0.0296305362 -0.022714749 0.00457888376
v -0.024998663 -0.0227101874 -0.000258856278
v -0.0293945763 -0.0227101836 -0.00502208993
v -0.0230889395 -0.0227101836 -0.0100343544
v -0.0260432754 -0.0227151792 -0.0148515319
v -0.0198503714 -0.0227101836 -0.0222536456
v -0.0160528906 -0.0227101855 -0.0192875322
v 0.0487345457 -0.0157964546 -0.0423300266
v 0.0466554202 -0.019774247 -0.0416598432
v 0.0429525599 -0.022765642 -0.0409725569
v 0.038430851 -0.0245438125 -0.0403184183
v 0.0257084277 -0.0257139355 -0.0381617062
v 0.0689012334 -0.0332726166 0.00214596535
v 0.07093025 -0.030584421 0.00126039772
v 0.0689179972 -0.0301558282 0.00992132071
v 0.0709193125 -0.0220398046 0.0134567441
v 0.0689317137 -0.0256790426 0.0151360817
v 0.0689155832 -0.0184349548 0.0193619207
v 0.0709247217 -0.00964855868 0.0196133964
v 0.0689513236 -0.0346749723 -0.0135326954
v 0.0709332749 -0.0326892063 -0.00830961019
v 0.0689383 -0.034492068 -0.00529357186
v 0.0458370969 -0.0320052467 0.00644819345
v 0.0416293927 -0.0345139131 -0.00585449394
v 0.0709212571 0.000414547016 0.0204895828
v 0.0471306555 0.0190853179 0.0127048278
v 0.04713374 0.0131121343 0.0100838291
v 0.0471328348 0.0075348285 0.0132401139
v 0.0471323766 0.00133835652 0.0148748094
v 0.0471325964 0.00589924213 0.0198139083
v 0.0471331514 0.02683587 0.00194848713
v 0.0471386835 0.0290803108 -0.00714218477
v 0.0471452437 0.0131120495 -0.029916171
v 0.0471428148 0.0228221565 -0.0296188742
v 0.0471297763 -0.00480113318 0.0205352865
v 0.047132384 -0.00507011125 0.0148805035
v 0.0471387915 0.0285680983 -0.0176709387
v 0.047148753 -0.00581634371 -0.0414515361
v 0.0471466556 -0.00473345304 -0.0347536728
v 0.0471489057 0.00271146162 -0.0411867462
v 0.0471466295 0.00156238826 -0.0346769057
v 0.0471448712 0.0123661971 -0.0382594392
v 0.0471461415 0.00763937319 -0.0330295749
v 0.0709237382 -0.00574363861 0.019276429
v 0.0709404126 -0.00359271793 -0.0391851217
v 0.0709531158 -0.00206605648 -0.0415635817
v 0.0709245354 0.00676072855 0.0194278061
v 0.0709239095 0.00443084631 0.0186425354
v 0.070940569 0.00610745884 -0.0381853878
v 0.0709397569 -0.0147135658 -0.036423292
v 0.0709251389 -0.018435441 0.0144421849
v 0.0709249675 0.013922343 0.0149231553
v 0.0709385127 0.0173696075 -0.0321890414
v 0.0709409341 0.00640957523 -0.0404263251
v 0.0709399655 0.0155283595 -0.0362914316
v 0.0709396377 0.0244588051 -0.0274660084
v 0.0709362179 0.0236549005 -0.0241630394
v 0.0709380209 -0.0228659082 -0.0303027071
v 0.0709269866 0.0213089976 0.00789752789
v 0.0709295422 0.0186325498 0.0132475412
v 0.0709280223 -0.027607644 0.0044260812
v 0.0709356144 -0.0287520941 -0.0219795778
v 0.0709334463 0.0271802377 -0.0145977922
v 0.0709344596 0.0283041075 -0.0180814695
v 0.0709317774 -0.0313090011 -0.00864112377
v 0.0709335655 0.0294020884 -0.00806214381
v 0.0709295496 0.0261891335 -0.0010526845
v 0.0709275305 0.0259264484 0.00372534455
v 0.00371453119 -0.0330181234 0.0130531508
v 0.00137183024 -0.0310097616 0.0197181273
v 0.00416321354 -0.0257189553 0.0296451077
v -0.00770672085 -0.0329899974 -0.0115324343
v -0.00836257637 -0.0286430139 -0.0234855097
v -0.00972495321 -0.0309603363 -0.0173819624
v -0.00438306434 -0.0344486199 -0.00410528481
v -0.00488595525 -0.0345646441 0.00104706676
v -0.0141463261 -0.025707731 0.0264440868
v -0.0222526342 -0.0256989151 0.0199928265
v -0.0200937558 -0.0282302368 0.0161430966
v -0.00229380466 -0.0344490707 0.00572369434
v 0.00200365996 -0.028327167 0.025634408
v -0.00313369464 -0.0330466777 0.0131672863
v -0.00515216542 -0.0257049147 0.0294597298
v -0.00714181829 -0.0309910197 0.0184622053
v -0.0109178172 -0.0283423867 0.0232429411
v -0.0099061178 -0.0330363959 0.00915544573
v -0.0145982746 -0.031016266 0.0134219546
v -0.0133655109 -0.0330466479 0.00212877546
v -0.0297410879 -0.0257054213 0.00285037933
v -0.0250790045 -0.0282202866 -0.00603963668
v -0.0125493798 -0.0330312662 -0.00482062995
v -0.0196019374 -0.0310606621 0.00306882663
v -0.0250973143 -0.0283323545 0.00550732203
v -0.027595995 -0.0257474277 0.0115481392
v -0.0294597223 -0.0257050022 -0.00515216542
v -0.0264440421 -0.025707826 -0.0141463783
v -0.021653384 -0.0282018092 -0.0139005687
v -0.0161430184 -0.0282306578 -0.020093793
v -0.0199927948 -0.0256990008 -0.0222526491
v -0.0120693129 -0.0257234033 -0.0273658484
v -0.0174228903 -0.0310633741 -0.00948841497
v 0.0363087468 -0.0317542478 -0.0286748447
v 0.0352861658 -0.0277877674 0.0174560267
v 0.0449056514 -0.0292868931 0.012036101
v 0.0394606106 -0.0337968729 -0.000361895916
v 0.0294405762 -0.0320906453 0.00916518737
v 0.0374766961 -0.0347498581 -0.0103253452
v 0.0344125777 -0.0345165394 -0.0150409993
v 0.0345155559 -0.0335690491 -0.0215396266
v 0.0295666456 -0.0277817715 -0.0359124132
v 0.0351063162 -0.0300225075 -0.032854896
v 0.0509414263 -0.019825371 0.0198667347
v 0.0506102927 -0.0235082433 0.0179126114
v 0.0418999046 -0.0242936127 0.0200075042
v 0.0445752852 -0.0227527414 0.0200730581
v 0.036180228 -0.0256662257 0.0207066908
v 0.0472685136 -0.0198194459 0.0205948483
v 0.0488521121 -0.0154261757 0.0213941783
v 0.0469768271 -0.0268038362 0.015361744
v 0.0533090234 -0.0314671807 -0.0288222712
v 0.0552381277 -0.0268273074 -0.0365715437
v 0.0542644374 -0.0206333194 -0.0409095474
v 0.0480544269 -0.0295681618 -0.0336142443
v 0.0372290686 -0.0273853187 -0.037390694
v 0.0439458229 -0.0267957356 -0.0380581021
v 0.0511543304 -0.00738195842 -0.0454112701
v 0.0493812151 -0.00970684644 -0.0434534214
v 0.0669378936 -0.00745128607 -0.0454055518
v 0.0682529584 -0.00927812234 -0.0438019373
v 0.066974856 0.00407255115 -0.0453437269
v -0.0109072542 -0.0204759855 -0.0227125771
v -0.00131132698 -0.0204759818 -0.024965588
v 0.00748517737 -0.0204759818 -0.0240366198
v 0.0181390457 -0.0204759855 -0.0174574461
v 0.024305556 -0.0204759836 -0.00655953167
v 0.0247690994 -0.0204759873 0.00338997669
v 0.0222082734 -0.0204759818 0.0118566351
v 0.0137492856 -0.0204759836 0.0210889652
v 0.00188891264 -0.0204759873 0.0251041707
v -0.010438744 -0.0204759873 0.0229089465
v -0.0184004381 -0.0204759818 0.0169240609
v -0.023291776 -0.0204759892 0.00955407228
v -0.0250134524 -0.0204759836 -0.00284857955
v -0.0205471385 -0.0204759873 -0.0145465601
v 0.0494367406 0.00573575636 -0.0430604294
v 0.0511087105 0.00398078701 -0.0453549102
v 0.0687270314 0.00621449715 -0.0428359993
v 0.068911694 0.0254252702 0.00838451646
v 0.0687505081 0.00629357062 0.0218263734
v 0.0689594373 0.0144837219 0.0183456112
v 0.068950057 0.020634409 0.0138524389
v 0.0689305887 0.0295395255 0.00044888453
v 0.0689435154 0.0312672965 -0.00867134146
v 0.0689522848 0.0305458661 -0.0178971943
v 0.0689108893 0.0272432212 -0.0263909064
v 0.0689443871 0.0221011937 -0.0334257334
v 0.0689537898 0.0143916095 -0.0393087789
v 0.0490639098 0.00899488851 0.020705061
v 0.0497133359 0.0054053003 0.0225359723
v 0.0491348021 0.0266272295 0.00639424892
v 0.0491426326 0.029565271 -0.0208894014
v 0.0491484217 0.010841704 -0.0409507528
v 0.0491474569 0.0170456972 -0.0375771523
v 0.0491461121 0.0223891884 -0.0329600237
v 0.0491444953 0.026627155 -0.0273111053
v 0.0491406508 0.0310688075 -0.0139893964
v 0.0491386242 0.031068828 -0.006927473
v 0.0491366386 0.0295653138 -2.74635804e-05
v 0.0491331816 0.0223892815 0.0120431921
v 0.0491318591 0.0170458108 0.0166603364
v 0.0399999991 -0.0168523844 0.0101104528
v 0.0400000066 0.0131121362 0.0100838244
v 0.0399999954 0.00753482711 0.0132401148
v 0.0400000028 0.00133835874 0.0148748094
v 0.0400000066 -0.00507010939 0.0148805017
v 0.0399999991 -0.0112694772 0.0132568218
v 0.0399999991 -0.0163957532 -0.0302759632
v 0.0399999917 -0.0108487969 -0.0332549997
v 0.0399999991 -0.00215336122 -0.0350914933
v 0.0400000066 0.00763937552 -0.0330295786
v 0.0400000028 0.0131120486 -0.0299161747
v 0.097934328 -0.0112773739 -0.0377747789
v 0.0979466289 -0.020351598 -0.0327415615
v 0.0979460701 -0.0259874202 -0.026579015
v 0.0978592336 -0.029932905 -0.0187479798
v 0.0979172289 -0.0311868433 -0.0103511065
v 0.0979172289 -0.0304974727 -0.00358326989
v 0.0979533345 -0.0275333934 0.00438466808
v 0.097917214 -0.0223121159 0.011093745
v 0.0978592336 -0.0154579869 0.016166212
v 0.0979293808 -0.00579197705 0.0191844888
v 0.0979332849 0.00266442844 0.0190258846
v 0.0979190543 0.00926542934 0.0171722937
v 0.0979460552 0.0150532871 0.0139833828
v 0.0979190469 0.0202360209 0.00928402599
v 0.0979476869 0.0239555221 0.00387119548
v 0.0979460627 0.0264514163 -0.00249956781
v 0.097919032 0.0274009258 -0.00943086762
v 0.0979460701 0.0267652757 -0.0160084367
v 0.0978592262 0.0237767082 -0.0242523979
v 0.0979172289 0.0185294263 -0.030926872
v 0.097917214 0.0131336264 -0.035069745
v 0.097917214 0.00692786556 -0.0378566086
v 0.097961925 -0.0013630857 -0.0392510183
v 0.100000016 -0.00218516053 0.010081647
v 0.100000001 -0.00780714909 0.00918785296
v 0.100000001 0.00346090901 0.00935534015
v 0.100000009 0.0130307544 0.00340427132
v 0.0999999866 0.00867364928 0.0070677828
v 0.099999994 0.0179486368 -0.0124678947
v 0.099999994 0.0178640299 -0.00677592913
v 0.100000016 0.0161792412 -0.00133837352
v 0.100000001 0.00917377789 -0.0265786462
v 0.100000001 0.0134200705 -0.0227872599
v 0.0999999866 0.0164262038 -0.0179531276
v 0.100000001 -0.00723672286 -0.0291876271
v 0.100000001 -0.00159065484 -0.0299139321
v 0.100000009 0.00403133035 -0.0290201381
v 0.100000001 -0.0199550521 -0.0184939131
v 0.100000001 -0.0168065727 -0.0232365578
v 0.099999994 -0.0124494685 -0.0269000586
v 0.100000001 -0.020202022 -0.00187914702
v 0.0999999866 -0.0217244551 -0.00736437971
v 0.099999994 -0.02163985 -0.0130563471
v 0.100000009 -0.0129495934 0.00674636243
v 0.100000009 -0.0171958897 0.00295497454
v 0.0989168212 -0.00159065705 -0.0299139302
v 0.0989168212 -0.00723672891 -0.0291876253
v 0.0989168137 -0.0124494666 -0.0269000567
v 0.0989168212 -0.0168065727 -0.023236556
v 0.0989168137 -0.0199550577 -0.0184939113
v 0.0989168063 -0.0216398481 -0.0130563444
v 0.0989168361 -0.0217244532 -0.00736438995
v 0.0989168137 -0.020202022 -0.00187914481
v 0.0989168286 -0.0171958879 0.00295497687
v 0.0989168286 -0.0129495915 0.0067463615
v 0.0989168212 -0.00780714769 0.00918785576
v 0.0989168286 -0.00218515913 0.010081646
v 0.0989168286 0.00346090924 0.00935534295
v 0.0989168361 0.00867365114 0.00706777442
v 0.0989168286 0.0130307563 0.00340427365
v 0.0989168286 0.0161792375 -0.00133837119
v 0.0989168137 0.0178640317 -0.0067759268
v 0.0989168137 0.0179486368 -0.0124678919
v 0.0989168361 0.0164262056 -0.0179531369
v 0.0989168212 0.0134200724 -0.022787258
v 0.0989168212 0.00917377975 -0.0265786443
v 0.0989168286 0.00403133174 -0.0290201362
v 0.0989191681 0.00394308008 0.0180572588
v 0.0989168212 -0.0197260194 -0.0318243913
v 0.09891399 -0.0113601498 -0.0367120542
v 0.0989168137 -0.00147104228 -0.0381630138
v 0.0989192501 0.00823102426 -0.0364902578
v 0.0989089757 -0.00899717119 0.0175942108
v 0.0989227295 -0.0201038364 0.0119770467
v 0.0989166349 0.0261842497 -0.00526778493
v 0.0989168063 0.0223616697 0.00457092049
v 0.0989166722 0.0166280512 0.0116909901
v 0.0989140049 0.0189628247 -0.0292244386
v 0.0989166647 0.0252840705 -0.0183624495
v 0.0989192352 -0.0281663127 0.000957705721
v 0.0989140049 -0.030245943 -0.0118346289
v 0.0989166424 -0.0266831219 -0.0238864105
vn -0.8967209 0.4425403 0.007042584
vn -0.9614194 0.2742295 -0.02170185
vn -0.9931245 0.1166397 0.009944699
vn -0.6337224 0.7733188 -0.01933402
vn -0.5991454 0.8004826 0.01588391
vn -0.2174323 0.9759655 0.01464809
vn -0.3564151 0.9342756 0.009868051
vn -0.9640084 0.265867 -0.001636549
vn -0.8078136 0.5884031 0.03491151
vn -0.6899124 0.7238815 0.004028878
vn -0.5416499 0.8401781 0.02675794
vn -0.9800032 0.1979516 0.02021921
vn -0.306406 0.9516499 0.02186133
vn -0.4462526 0.8945873 0.02391995
vn -0.03393255 0.9994204 0.002740227
vn -0.07891275 0.9967451 0.01649476
vn 0.9512027 -0.07442124 -0.2994577
vn 0.8954373 -0.205177 -0.3950879
vn 0.848376 0.01864787 -0.5290656
vn 0.9364502 -0.3419087 -0.07848278
vn 0.8168367 -0.5450704 -0.1888812
vn 0.8962891 -0.372359 -0.2408626
vn 0.9678912 -0.1813246 -0.1740923
vn 0.9041551 -0.2646833 -0.3353299
vn 0.0250362 -0.3579351 0.9334107
vn 0.03374239 -0.3878314 0.9211125
vn 0.005861023 -0.6074841 0.7943102
vn 0.01584792 -0.601633 0.7986153
vn -0.006962106 -0.7370257 0.6758289
vn 8.523634e-05 0.005131691 0.9999869
vn -0.0005668547 0.004233099 0.9999909
vn -0.0003460017 0.004537439 0.9999896
vn -0.001004358 0.003630209 0.9999929
vn 0.0005908618 0.999999 -0.001265997
vn 0.001385176 0.9999986 -0.0009985274
vn -0.002419401 0.999997 0.0003554662
vn -0.001052015 0.9999994 -0.0003879748
vn -0.0001188839 0.9999999 -0.0005462227
vn 0.0001418477 0.9999985 -0.001749413
vn -6.729691e-05 0.9999998 -0.0006094424
vn 0.0008062521 0.9999993 -0.0008539683
vn -0.0008085325 0.9999995 -0.0006181212
vn 0.0001331049 0.9999998 0.0004531316
vn 0.0009187133 0.9999985 0.001445235
vn 0.0001619776 0.9999999 0.0004794179
vn -0.0001253627 1 -0.0001700983
vn -0.0001757873 0.9999996 0.0008043078
vn -0.0001208978 0.9999996 0.0008412355
vn 0.000325545 0.9999999 -0.0002893792
vn 0.0006226848 0.9999996 -0.000673792
vn -0.0003151649 0.9999999 -0.0003500724
vn -0.0006599941 0.9999998 6.794666e-05
vn -0.0004579842 0.9999999 0.000250346
vn -0.0002471928 1 -1.418105e-05
vn -0.0005259732 0.9999998 -0.0003981164
vn -0.0009821956 0.9999994 -0.0004347412
vn -9.831196e-05 1 -0.0001520876
vn 2.339877e-05 1 -0.000160733
vn -0.707302 -0.02069854 -0.7066085
vn -0.7213798 -0.05410457 -0.6904229
vn -0.6678861 0.08078615 -0.7398661
vn -0.590032 0.1654163 -0.7902529
vn -0.4895073 0.2670985 -0.830085
vn -0.3681372 0.3004666 -0.8798834
vn -0.1914586 0.2285807 -0.9545127
vn -0.265666 0.2952073 -0.9177551
vn -0.2061976 0.2167327 -0.9542062
vn -0.1801056 0.09181764 -0.9793526
vn -0.2434922 0.009729065 -0.969854
vn 0.8124887 -0.5608715 0.1590137
vn 0.946105 -0.3087131 0.09788591
vn 0.9008634 -0.3617134 0.2400179
vn 0.9599088 -0.1692079 0.2234813
vn 0.8799826 -0.3176286 0.3531895
vn 0.8615744 -0.219984 0.4574894
vn 0.9286017 -0.07816973 0.3627511
vn 0.7459413 -0.1686676 0.6443003
vn 0.7701153 -0.6353145 -0.0574286
vn 0.9162492 -0.400094 0.02030579
vn 0.7578884 -0.6442619 0.1026241
vn 0.007056493 -0.9650044 0.2621386
vn 0.02306969 -0.8565574 0.5155358
vn 0.02351729 -0.9390082 0.3430898
vn 0.02902327 -0.9830807 0.1808593
vn 0.01107853 -0.9961659 0.08677896
vn -0.001112985 -0.9956689 0.09296295
vn -0.01637496 -0.9949332 -0.09919594
vn 0.00131773 -0.9980814 -0.06190036
vn 0.0007371132 -0.9999958 -0.002783414
vn 0.01751865 -0.9639075 -0.2656604
vn -0.0313641 -0.9778578 -0.2069072
vn 0.7326913 0.02582272 0.6800709
vn 0.7559446 -0.0775255 0.6500289
vn 0.7468881 -0.04203582 0.6636197
vn -0.9028935 0.2852341 0.3215972
vn -0.9999998 -0.0002265339 -0.0005444564
vn -1 -0.0001135235 -0.0001452628
vn -0.9028893 0.3933426 0.1734145
vn -1 0.0001489178 -0.0001483867
vn -0.9999999 -0.0002360936 -6.414267e-05
vn -0.9027288 0.3394991 -0.264237
vn -0.9132439 0.1110673 0.3919816
vn -1 0.0001379671 -0.0001935947
vn -0.9999657 0.008250555 -0.0007887065
vn -0.9999598 0.00781773 -0.004403383
vn -0.902819 0.4179544 -0.1011537
vn -0.9999999 0.0003728786 -0.0003812016
vn -0.9999992 0.001175772 0.0002532712
vn -0.9999999 -0.0001422044 -0.0003677124
vn -1 -0.0001142762 -0.0002823675
vn -0.9014497 0.2019127 -0.3829097
vn -1 -0.0001505502 0.0001071775
vn 0.9999999 -0.0003299389 0.0004689158
vn 0.9152849 0.1273823 0.3821351
vn 0.9999989 4.313582e-05 0.001474764
vn 0.9999999 0.0002739679 0.0005057868
vn 0.9999864 0.0002074667 0.005226822
vn 0.9181324 0.0006019652 -0.3962735
vn 0.9999996 0.0005233895 0.000635698
vn 0.9999937 0.001160698 0.003366705
vn 0.9999858 -0.002779018 0.004564825
vn 0.9999939 -0.001963116 -0.002910928
vn 0.9999998 -0.0004730792 0.0005789864
vn 0.9999996 0.00079464 0.0002877257
vn 0.9068174 0.2416435 -0.3453844
vn 0.8987302 0.3662545 -0.2411262
vn 0.9999991 -0.001093688 0.00076991
vn 0.9999992 -0.0009192876 -0.000860381
vn 0.9022345 0.2785909 0.3291807
vn 1 -5.238329e-05 -3.630888e-06
vn 0.9999989 -0.000699238 0.001328458
vn 0.9999999 -0.0004111884 0.0002138116
vn 0.9999999 0.0002334199 0.000366731
vn 0.9999949 0.002545467 0.001920996
vn 0.9999993 0.00115466 0.0003554288
vn 0.9020571 0.4300035 0.03728323
vn 0.9999999 -0.0003272695 0.0003896898
vn 0.905968 0.3758125 0.1949024
vn -0.6350728 0.03394046 0.7717063
vn -0.7153298 -0.05398573 0.6966985
vn -0.7186521 -0.009267933 0.6953081
vn -0.7126641 -0.02543101 0.7010443
vn -0.2572742 -0.85738 0.4457686
vn -0.3727747 -0.8574354 0.3547444
vn -0.3684795 -0.8824757 0.2923344
vn -0.0615968 -0.9676434 0.2446878
vn -0.04112192 -0.9928239 0.1122928
vn 0.04344231 -0.9690049 0.2431915
vn 0.0185961 -0.929661 0.3679467
vn 0.07756129 -0.8536538 0.5150334
vn -0.08658974 -0.8691459 0.4869163
vn 0.02695072 -0.883224 0.4681763
vn -0.1289156 -0.9294397 0.3457204
vn -0.1878131 -0.9677746 0.1677452
vn -0.1002347 -0.9948037 0.01784353
vn -0.2758223 -0.9296243 0.2443781
vn -0.1982836 -0.88383 0.4237077
vn -0.2444774 -0.9687822 0.0411315
vn -0.4589651 -0.8648397 0.2034779
vn -0.4578251 -0.8830096 0.1033937
vn -0.3610319 -0.9308239 0.05676903
vn -0.5089203 -0.8601971 0.03257577
vn -0.5082453 -0.8576776 -0.07794657
vn -0.4555543 -0.8843284 -0.1021451
vn -0.2346601 -0.9685553 -0.08267564
vn -0.08864406 -0.9926882 -0.0819295
vn -0.4467621 -0.8602067 -0.2458618
vn -0.3209691 -0.9313212 -0.1721035
vn -0.397513 -0.8754211 -0.2749933
vn -0.3005139 -0.8814076 -0.3644337
vn -0.3553145 -0.8575342 -0.3720036
vn -0.2115967 -0.8590722 -0.4660705
vn -0.1625962 -0.8882197 -0.4296837
vn -0.1825132 -0.9301649 -0.3185627
vn -0.1433362 -0.9665809 -0.2125469
vn -0.03242899 -0.9478921 -0.316937
vn 0.2066825 -0.8443945 0.4942472
vn 0.1573173 -0.8512201 0.5006753
vn 0.08176343 -0.8684756 0.4889428
vn 0.08184663 -0.9479934 0.3075867
vn -0.09132919 -0.8360104 -0.5410596
vn -0.0505845 -0.8981243 -0.4368226
vn -0.1182273 -0.8237454 -0.554496
vn 0.07474638 -0.241835 0.9674342
vn 0.06154896 -0.3929009 0.9175187
vn 0.1081606 -0.3847082 0.9166793
vn 0.107999 -0.572202 0.8129706
vn 0.05045472 -0.6493043 0.7588533
vn 0.1235741 -0.7668328 0.6298388
vn 0.2161755 -0.3618863 0.9068111
vn 0.2754916 -0.5832505 0.7641487
vn 0.2439563 -0.7396374 0.6272336
vn -0.2009698 0.1827626 0.9623976
vn -0.2606915 0.1579238 0.952418
vn 0.02985871 0.1282869 0.9912875
vn 0.1040548 0.09316371 0.9901985
vn 0.2170808 0.03428654 0.9755513
vn 0.2501383 0.01187703 0.9681373
vn -0.422288 0.1530175 0.8934531
vn -0.6812206 0.007317546 0.7320417
vn 0.03651918 -0.2102564 -0.976964
vn 0.003127557 -0.3738113 -0.9274995
vn 0.008586316 -0.294279 -0.955681
vn 0.01986171 -0.9366722 -0.3496435
vn 0.05492115 -0.8514271 -0.5215893
vn 0.03697 -0.8744321 -0.4837373
vn 0.0730542 -0.6486328 -0.7575874
vn 0.09085689 -0.8010585 -0.5916505
vn 0.06082846 -0.3703889 -0.9268829
vn 0.04517417 -0.3737896 -0.9264128
vn 0.1078398 -0.5475635 -0.8297861
vn 0.06521993 -0.2630347 -0.9625794
vn 0.04392761 -0.7416844 -0.6693091
vn -0.006161735 -0.6801175 -0.7330772
vn -0.03444439 -0.7892833 -0.6130623
vn 0.150812 0.01552413 0.9884405
vn 0.09530299 0.006830344 0.9954249
vn -0.4546349 0.007570295 -0.8906456
vn -0.38155 0.03082933 -0.923834
vn -0.6739651 0.01569286 -0.7385965
vn -0.6697799 0.03166915 -0.7418841
vn -0.8619975 0.004302644 -0.5068942
vn -0.8910093 0.01065263 -0.45386
vn -0.9849918 0.03036805 -0.1699084
vn -0.983552 0.03238073 -0.177699
vn -0.9861468 -0.01332236 0.1653392
vn -0.9983515 0.003805086 0.05727128
vn -0.9223765 0.106311 0.3713752
vn -0.8307612 -0.04671379 0.5546654
vn -0.7071603 0.08628204 0.701769
vn -0.5105976 0.01861846 0.8596181
vn -0.4538626 0.01066145 0.8910079
vn -0.1780815 0.03069771 0.9835368
vn -0.1821904 0.02293705 0.9829957
vn -0.7068829 -0.02030468 -0.7070391
vn -0.7141634 -0.01975529 -0.6997002
vn 0.78144 -0.0548722 -0.6215631
vn 0.7195096 -0.04190642 -0.693217
vn 0.0003859339 0.005363638 -0.9999856
vn 0.0005597332 0.005122932 -0.9999867
vn 0.000501019 0.00520425 -0.9999864
vn 0.0006754164 0.004962715 -0.9999874
vn -0.005235484 -0.4818499 -0.8762382
vn 0.0007891074 -0.6579185 -0.7530888
vn -0.002547197 -0.6430058 -0.765857
vn -0.274174 0.03626135 -0.9609962
vn -0.4524484 -0.08285692 -0.887933
vn -0.09781458 -0.07223211 -0.9925799
vn 0.08844951 0.09082264 -0.9919314
vn 0.3072727 -0.08307269 -0.9479886
vn 0.4883305 0.1143286 -0.8651372
vn 0.6997605 0.002085902 -0.7143746
vn 0.7865649 0.04366366 -0.6159619
vn 0.9645355 -0.09733063 -0.245353
vn 0.8995395 0.07363324 -0.4305889
vn 0.9932781 0.1147782 0.01498262
vn 0.9741483 -0.07363407 0.2135723
vn 0.8672617 -0.1040352 0.4868611
vn 0.9504941 0.07363708 0.3018918
vn 0.7106867 0.2061683 0.672621
vn 0.5412935 -0.06637441 0.8382099
vn 0.3553249 0.1143242 0.9277253
vn 0.1043906 0.002087411 0.9945342
vn -0.03019107 0.02605551 0.9992045
vn -0.3591556 -0.0260543 0.932914
vn -0.4775629 0.01538611 0.8784628
vn -0.7346704 0.007857297 0.6783787
vn -0.737316 -0.007854492 0.6755024
vn -0.915249 -0.01538372 0.4025947
vn -0.9580802 0.04366572 0.2831529
vn -0.9876948 -0.08650917 -0.1302889
vn -0.9948809 0.07363588 0.06920817
vn -0.908655 0.1933381 -0.3700897
vn -0.794962 -0.1561088 -0.5862298
vn -0.6363383 0.183915 -0.7491655
vn -7.464664e-08 1 1.036989e-07
vn -1.432855e-07 1 6.022212e-07
vn -1.204428e-07 0.9999999 3.038725e-06
vn -1.67755e-07 1 1.925837e-07
vn 9.018707e-09 1 -2.905271e-07
vn 7.17324e-08 1 -2.421142e-07
vn 2.25386e-07 1 -9.499824e-08
vn -2.232608e-07 1 5.561538e-08
vn 2.269673e-07 1 -6.815983e-08
vn -1.605742e-07 1 1.165915e-07
vn -7.538781e-07 1 -1.936671e-07
vn 1.931451e-07 1 -9.669392e-08
vn 5.142124e-07 1 3.307799e-07
vn -6.84315e-07 0.9999999 -1.144389e-06
vn -0.7418285 0.0940838 -0.6639569
vn -0.7279283 0.06447817 -0.6826147
vn -0.7464846 0.1759203 -0.6417264
vn -0.01088678 0.7666005 -0.642032
vn -0.004155785 0.7928262 -0.6094337
vn -0.00145794 0.5628718 -0.8265429
vn -0.001847842 0.5540626 -0.832473
vn 0.6959346 0.2386942 0.677274
vn 0.41609 0.4399756 0.7957955
vn 0.3585489 0.6383268 0.6811619
vn 0.3966042 0.7528436 0.525292
vn 0.4009898 0.8679035 0.2931731
vn 0.6793295 0.7333645 0.02622624
vn 0.7310033 0.6652004 -0.1521269
vn 0.7287055 0.6594977 -0.1845296
vn 0.3731626 0.8216731 -0.4308165
vn 0.4039412 0.6531228 -0.6405171
vn 0.3889768 0.4501823 -0.8037617
vn 0.7209489 0.1944247 -0.6651554
vn 0.7351502 0.1538295 -0.6602202
vn -0.0005185056 0.5539882 0.8325242
vn -0.002426252 0.4436083 0.8962175
vn 0.001462159 0.6048315 0.7963521
vn -0.01353941 0.7920769 0.6102711
vn -0.004062873 0.7619535 0.6476189
vn -0.7307646 0.05882343 0.6800903
vn -0.6794509 0.250506 0.6896327
vn -0.7334338 0.2791516 0.6197978
vn 0.7261606 0.07253183 0.6836885
vn -0.3771344 0.3745034 -0.8470637
vn -0.4047402 0.5348125 -0.7417284
vn -0.3854783 0.66338 -0.6413529
vn -0.4007306 0.7949247 -0.4555323
vn -0.3884561 0.8677923 -0.3099005
vn 0.006906355 0.9747744 -0.2230857
vn -0.3930508 0.91544 -0.0864905
vn -0.005296617 0.9940094 0.1091653
vn 0.006582502 0.9984237 0.05573782
vn -0.3869966 0.8805882 0.2734922
vn -0.4031811 0.7782274 0.4814635
vn -0.388471 0.685866 0.6153682
vn -0.4088579 0.494068 0.7672887
vn 0.7444059 0.07375993 -0.663641
vn -0.7142063 0.6952629 0.08073921
vn -0.7114246 0.6979334 0.08224463
vn -2.188082e-07 0.492518 0.8703023
vn -6.366174e-07 0.4925184 0.870302
vn -1.371701e-07 0.3769126 0.9262488
vn 1.182294e-07 0.3769141 0.9262482
vn -1.214651e-07 0.1290537 0.9916376
vn -9.306934e-08 0.1290496 0.9916382
vn -3.352732e-07 -0.1272845 0.9918662
vn 0.0092225 -0.1372016 0.9905002
vn 0.003253443 -0.3719504 0.9282469
vn -0.0189209 -0.434151 0.9006414
vn -0.008474737 -0.5811831 0.8137287
vn -0.02269742 -0.5760663 0.8170878
vn -0.05519196 -0.6897712 0.7219208
vn -0.03591964 -0.6790137 0.7332463
vn -0.005756516 -0.4050038 -0.9142969
vn 0.02275039 -0.3109427 -0.9501563
vn -0.004396192 -0.02164472 -0.999756
vn -0.01348264 -0.16644 -0.9859594
vn -0.001300379 0.1546125 -0.9879743
vn -0.01374575 0.3667351 -0.9302239
vn 6.82452e-08 0.3810861 -0.9245395
vn 2.720658e-07 0.494481 -0.8691884
vn 5.916916e-07 0.4944807 -0.8691885
vn -0.02942094 -0.5774236 -0.8159145
vn -0.01525039 -0.6265563 -0.7792269
vn -0.05354985 -0.6741148 -0.7366828
vn -1 -4.538383e-07 5.194951e-06
vn -1 0 2.362242e-06
vn -1 -2.115948e-08 -2.333038e-06
vn -1 7.836709e-05 -3.667645e-05
vn -0.9999998 0.0003612007 -0.0004845045
vn -0.9999999 0.0004098684 0.0001542593
vn -0.9999985 0.0008287484 0.001517652
vn -0.9999778 6.095274e-06 0.006670974
vn -1 -4.232079e-08 7.943203e-07
vn -1 6.521175e-05 -0.0001370888
vn -1 3.233803e-05 -0.000246203
vn -0.9999998 -0.0001512215 -0.0006069348
vn -0.9999983 -0.0008818627 -0.001653465
vn -1.303408e-07 1 -2.138418e-06
vn 2.170638e-07 1 -2.18674e-06
vn -8.636285e-08 1 -2.144535e-06
vn 2.611054e-07 1 -2.192866e-06
vn 0.009983659 -0.3185867 -0.9478411
vn -0.01315023 -0.429856 -0.9028017
vn -0.01153786 -0.06828251 -0.9975993
vn 0.009321977 -0.6220129 -0.7829515
vn -0.01342309 -0.7174115 -0.6965204
vn 0.4082746 -0.7363769 -0.5395007
vn -0.01465678 -0.9192693 -0.3933564
vn 0.4395389 -0.8586093 -0.2638099
vn -0.01765535 -0.9989319 0.04269924
vn 0.3741891 -0.9273508 -0.001800047
vn 0.4486094 -0.8735498 0.1888396
vn -0.01765939 -0.8732091 0.4870257
vn 0.4427456 -0.7705616 0.4584879
vn 0.3884524 -0.6646208 0.6382663
vn -0.01818015 -0.5613759 0.8273612
vn 0.4362761 -0.4048762 0.8035784
vn -0.0115527 -0.147189 0.9890409
vn 0.4317659 -0.1063957 0.8956887
vn 0.3434516 0.1119137 0.9324785
vn -0.01109246 0.2147569 0.9766045
vn 0.4747908 0.3543693 0.8056029
vn -0.009965217 0.5382646 0.8427169
vn 0.4277479 0.4988771 0.7537594
vn 0.4526841 0.6865984 0.568911
vn -0.01105843 0.7921914 0.6101726
vn 0.004506435 0.8824574 0.4703707
vn -0.01498876 0.9585812 0.2844247
vn 0.4111992 0.8759414 0.2522735
vn 0.4531991 0.8913979 -0.004515458
vn -0.01159028 0.9894044 -0.144722
vn 0.4209038 0.8912318 -0.1689554
vn 0.4367672 0.784013 -0.4410872
vn -0.00556786 0.8733924 -0.4869854
vn -0.01098569 0.6460885 -0.7631835
vn 0.3741894 0.6376919 -0.6732989
vn 0.4508278 0.466878 -0.7607754
vn -0.01256554 0.2887541 -0.9573208
vn 0.3789596 0.2480267 -0.8915561
vn 0.006343256 0.01028702 -0.9999269
vn 1 -7.969537e-07 -1.839129e-05
vn 1 -3.983842e-08 2.073452e-06
vn 1 5.848303e-07 -1.624863e-07
vn 1 2.871775e-06 2.698966e-06
vn 1 1.593892e-05 1.987336e-05
vn 1 1.075197e-06 -8.452256e-07
vn 1 -3.820698e-06 -9.007811e-07
vn 1 -7.976792e-06 -5.265322e-06
vn 1 7.780688e-07 1.39214e-07
vn 1 1.799102e-07 3.075358e-07
vn 1 5.642895e-06 5.04181e-07
vn 1 -2.96996e-06 1.768155e-07
vn 1 -1.574569e-06 7.831666e-08
vn 1 -1.045081e-06 1.90093e-07
vn 1 -1.756867e-06 3.504302e-07
vn 1 2.292718e-06 -4.189631e-07
vn 1 -8.445768e-07 -1.197167e-07
vn 1 2.086066e-06 -2.940498e-06
vn 1 -8.656289e-08 1.833256e-07
vn 1 -7.089203e-07 1.08711e-06
vn 1 1.024396e-06 -2.417999e-07
vn 1 2.011901e-06 -1.951679e-06
vn 4.69004e-07 0.0148628 -0.9998895
vn -2.111697e-06 -0.2674395 -0.9635746
vn -3.167182e-06 -0.2674384 -0.9635749
vn -5.65181e-06 -0.5280777 -0.8491961
vn -5.953386e-06 -0.5280761 -0.8491971
vn -1.334786e-06 -0.7459345 -0.6660193
vn -1.078469e-06 -0.7459336 -0.6660203
vn 3.220296e-06 -0.9033591 -0.428885
vn 2.883438e-06 -0.9033585 -0.4288863
vn -1.814239e-06 -0.9875971 -0.1570092
vn -2.254368e-06 -0.9875967 -0.1570117
vn -2.894701e-06 -0.9918271 0.1275898
vn -2.607842e-06 -0.9918276 0.127585
vn 4.872729e-07 -0.9157062 0.4018486
vn 6.802886e-07 -0.9157072 0.4018462
vn 2.247078e-07 -0.7653995 0.6435554
vn 1.891656e-09 -0.7654007 0.643554
vn -1.919488e-06 -0.5530819 0.8331268
vn -1.811213e-06 -0.5530835 0.8331258
vn 3.013921e-06 -0.2959593 0.9552006
vn 2.771383e-06 -0.2959615 0.9551999
vn -1.817367e-06 -0.01486003 0.9998896
vn -1.993596e-06 -0.01486287 0.9998895
vn 2.905536e-06 0.2674381 0.9635751
vn 2.747372e-06 0.267436 0.9635757
vn -4.665271e-06 0.528078 0.8491959
vn -4.691074e-06 0.5280775 0.8491962
vn 2.240113e-06 0.7459339 0.66602
vn 2.423731e-06 0.7459324 0.6660217
vn -2.00706e-06 0.9033583 0.4288865
vn -1.959874e-06 0.903357 0.4288895
vn 1.748688e-06 0.9875969 0.1570105
vn 1.954941e-06 0.9875965 0.1570135
vn -4.73773e-07 0.9918273 -0.1275873
vn -2.427055e-07 0.9918277 -0.1275845
vn 4.250364e-06 0.9157045 -0.4018524
vn 4.275978e-06 0.915705 -0.4018512
vn 1.106552e-07 0.7653965 -0.6435589
vn -3.690644e-07 0.7653989 -0.6435562
vn -1.254988e-06 0.5530852 -0.8331247
vn -1.201377e-06 0.5530878 -0.833123
vn -7.34699e-07 0.2959595 -0.9552004
vn -3.810565e-07 0.295962 -0.9551997
vn 9.510081e-07 0.01486056 -0.9998896
vn 0.8673736 0.1144512 0.4843181
vn 0.9999999 -0.0003781633 0.0003130634
vn 0.9999999 1.018447e-05 -0.0002193926
vn 1 -1.101482e-05 -1.063807e-06
vn 0.9245079 -0.2416677 -0.2947574
vn 1 1.792307e-05 -0.0001774358
vn 1 -5.366878e-05 -0.0002176812
vn 1 -8.411788e-05 -0.0003303756
vn 1 -9.251e-05 -7.737675e-05
vn 1 -0.0002281416 4.79723e-05
vn 1 -0.0001392806 0.0001634668
vn 0.8874271 0.1732243 -0.4271612
vn 1 0.000169049 9.243492e-05
vn 0.8624097 -0.1442264 0.4852303
vn 0.9999995 -0.0002911738 0.000891857
vn 0.9999999 0.000488339 0.0001227706
vn 0.8681264 -0.3062177 0.3906241
vn 0.9999996 0.0006101046 -0.0004574301
vn 0.9999999 0.0002976593 -0.0002585506
vn 1 2.04182e-05 2.159643e-06
vn 0.8789319 0.4718802 0.06933839
vn 1 1.090949e-05 -2.306379e-06
vn 0.9030399 0.352395 0.2456357
vn 1 5.544556e-06 1.115042e-05
vn 0.8788961 0.3146077 0.358558
vn 1 9.50823e-06 1.862936e-05
vn 0.8862876 0.3511301 -0.3019966
vn 0.9999999 0.0002593277 -0.0002133895
vn 1 7.746195e-05 -0.0001373912
vn 0.868324 0.4694735 -0.160025
vn 1 1.841277e-05 -2.325819e-07
vn 0.872556 -0.4558384 0.1756631
vn 1 -8.20723e-05 -0.0001809961
vn 0.8862875 -0.4606235 -0.04817063
vn 0.9999999 -0.0003346055 -6.527024e-05
vn 1 -0.000135699 3.684529e-05
vn 0.8683047 -0.4393911 -0.2301794
vn 0.7510204 0.001552425 -0.6602772
vn 0.7517397 0.01070563 -0.659373
vn 0.7666866 0.5770549 0.281424
vn 0.7486237 -0.4131343 -0.518539
vn 0.7048392 -0.2527891 -0.6627966
vn 0.7124629 -0.2047616 -0.6711701
f 5//1 3//2 4//3
f 5//1 6//4 3//2
f 7//5 6//4 5//1
f 8//6 9//7 7//5
f 7//5 9//7 6//4
f 12//8 13//9 10//10
f 10//10 13//9 11//11
f 14//12 13//9 12//8
f 10//10 11//11 2//13
f 2//13 11//11 1//14
f 2//13 15//15 16//16
f 1//14 8//6 2//13
f 2//13 8//6 15//15
f 9//7 8//6 1//14
f 18//17 19//18 17//19
f 20//20 24//21 21//22
f 20//20 21//22 22//23
f 22//23 21//22 23//24
f 22//23 23//24 18//17
f 18//17 23//24 19//18
f 26//25 25//26 27//27
f 26//25 27//27 28//28
f 28//28 27//27 29//29
f 30//30 31//31 29//32
f 29//32 31//31 28//33
f 32//34 33//35 15//15
f 16//16 34//36 35//37
f 36//38 37//39 38//40
f 15//15 33//35 39//41
f 15//15 39//41 16//16
f 16//16 39//41 34//36
f 35//37 42//42 16//16
f 16//16 42//42 40//43
f 40//43 42//42 43//44
f 40//43 43//44 41//45
f 38//40 37//39 15//15
f 15//15 37//39 32//34
f 40//43 41//45 44//46
f 44//46 41//45 45//47
f 45//47 41//45 46//48
f 45//47 46//48 47//49
f 47//49 46//48 48//50
f 47//49 48//50 49//51
f 47//49 49//51 50//52
f 50//52 49//51 51//53
f 50//52 51//53 52//54
f 52//54 51//53 53//55
f 52//54 53//55 54//56
f 54//56 53//55 55//57
f 55//57 53//55 56//58
f 55//57 56//58 38//40
f 38//40 56//58 36//38
f 4//59 176//60 57//61
f 57//61 5//62 4//59
f 58//63 5//62 57//61
f 58//63 7//64 5//62
f 8//65 7//64 59//66
f 59//66 7//64 58//63
f 60//67 8//65 59//66
f 8//65 60//67 61//68
f 8//65 61//68 15//69
f 62//70 63//71 64//72
f 64//72 63//71 65//73
f 64//72 65//73 66//74
f 66//74 65//73 67//75
f 67//75 65//73 68//76
f 67//75 68//76 25//77
f 24//21 20//20 69//78
f 69//78 20//20 70//79
f 69//78 70//79 71//80
f 71//80 70//79 63//71
f 71//80 63//71 62//70
f 62//81 64//82 72//83
f 154//84 73//85 62//81
f 62//81 73//85 71//86
f 157//87 69//88 156//89
f 156//89 69//88 73//85
f 73//85 69//88 71//86
f 69//88 157//87 24//90
f 24//90 157//87 158//91
f 68//76 74//92 27//93
f 25//77 68//76 27//93
f 74//92 29//94 27//93
f 75//95 76//96 77//97
f 75//95 80//98 76//96
f 76//96 80//98 81//99
f 82//100 76//96 83//101
f 79//102 78//103 84//104
f 84//104 78//103 85//105
f 84//104 85//105 12//8
f 12//8 85//105 14//12
f 81//99 86//106 76//96
f 76//96 86//106 83//101
f 78//103 79//102 77//97
f 77//97 79//102 75//95
f 88//107 87//108 3//2
f 3//2 87//108 4//3
f 87//108 88//107 89//109
f 89//109 88//107 90//110
f 82//100 83//101 91//111
f 82//100 91//111 92//112
f 92//112 91//111 90//110
f 90//110 91//111 89//109
f 97//113 96//114 74//115
f 97//113 74//115 93//116
f 93//116 74//115 68//76
f 94//117 95//118 98//119
f 99//120 22//23 18//17
f 93//116 68//76 100//121
f 96//114 97//113 101//122
f 102//123 98//119 103//124
f 95//118 103//124 98//119
f 99//120 18//17 94//117
f 94//117 18//17 95//118
f 100//121 68//76 65//73
f 103//124 104//125 102//123
f 102//123 104//125 105//126
f 102//123 105//126 106//127
f 108//128 109//129 101//122
f 101//122 109//129 96//114
f 107//130 22//23 99//120
f 65//73 110//131 100//121
f 63//71 110//131 65//73
f 106//127 105//126 112//132
f 112//132 105//126 113//133
f 111//134 20//20 107//130
f 107//130 20//20 22//23
f 110//131 63//71 114//135
f 114//135 63//71 70//79
f 114//135 70//79 20//20
f 114//135 20//20 111//134
f 113//133 115//136 112//132
f 112//132 115//136 116//137
f 116//137 115//136 117//138
f 116//137 117//138 108//128
f 108//128 117//138 109//129
f 12//139 26//140 84//141
f 84//141 26//140 28//142
f 126//143 127//144 128//145
f 131//146 129//147 118//148
f 131//146 118//148 119//149
f 120//150 132//151 130//152
f 119//149 130//152 133//153
f 119//149 133//153 131//146
f 131//146 133//153 135//154
f 131//146 135//154 129//147
f 125//155 129//147 135//154
f 128//145 136//156 134//157
f 128//145 134//157 126//143
f 132//151 126//143 134//157
f 133//153 134//157 136//156
f 133//153 136//156 135//154
f 137//158 125//155 135//154
f 137//158 135//154 136//156
f 130//152 132//151 134//157
f 130//152 134//157 133//153
f 127//144 143//159 128//145
f 128//145 143//159 142//160
f 128//145 142//160 141//161
f 138//162 144//163 139//164
f 140//165 124//166 137//158
f 140//165 137//158 141//161
f 138//162 142//160 143//159
f 144//163 145//167 139//164
f 150//168 140//165 141//161
f 150//168 141//161 139//164
f 139//164 141//161 142//160
f 139//164 142//160 138//162
f 124//166 125//155 137//158
f 136//156 128//145 141//161
f 136//156 141//161 137//158
f 139//164 145//167 146//169
f 146//169 145//167 147//170
f 145//167 148//171 147//170
f 147//170 148//171 149//172
f 147//170 149//172 122//173
f 122//173 123//174 147//170
f 147//170 123//174 150//168
f 147//170 150//168 146//169
f 146//169 150//168 139//164
f 123//174 121//175 150//168
f 140//165 150//168 121//175
f 140//165 121//175 124//166
f 151//176 123//174 122//173
f 165//177 120//150 152//178
f 152//178 120//150 130//152
f 152//178 130//152 153//179
f 118//148 154//84 155//180
f 118//148 155//180 119//149
f 119//149 155//180 153//179
f 119//149 153//179 130//152
f 118//148 129//147 154//84
f 154//84 129//147 73//85
f 73//85 129//147 156//89
f 156//89 129//147 125//155
f 156//89 125//155 124//166
f 156//89 124//166 157//87
f 157//87 124//166 158//91
f 158//91 124//166 121//175
f 158//91 121//175 151//176
f 151//176 121//175 123//174
f 122//173 159//181 160//182
f 122//173 160//182 151//176
f 159//181 122//173 149//172
f 159//181 149//172 61//183
f 25//26 167//184 67//185
f 67//185 167//184 161//186
f 67//185 161//186 162//187
f 67//185 162//187 66//188
f 66//188 162//187 168//189
f 66//188 168//189 153//179
f 66//188 153//179 64//82
f 64//82 153//179 72//83
f 154//84 62//81 72//83
f 166//190 164//191 162//187
f 166//190 162//187 161//186
f 161//186 167//184 166//190
f 154//84 72//83 155//180
f 155//180 72//83 153//179
f 153//179 168//189 152//178
f 168//189 164//191 163//192
f 168//189 163//192 152//178
f 152//178 163//192 165//177
f 25//26 26//25 167//184
f 162//187 164//191 168//189
f 164//193 10//194 163//195
f 163//195 10//194 2//196
f 163//195 2//196 165//197
f 165//197 2//196 16//198
f 164//193 166//199 10//194
f 167//200 26//140 12//139
f 167//200 12//139 166//199
f 166//199 12//139 10//194
f 57//201 176//202 17//203
f 169//204 21//205 24//90
f 21//205 169//204 172//206
f 21//205 172//206 23//207
f 23//207 172//206 170//208
f 23//207 171//209 19//210
f 19//210 171//209 17//203
f 171//209 59//211 58//212
f 171//209 58//212 57//201
f 151//176 160//182 172//206
f 170//208 174//213 23//207
f 60//214 59//211 171//209
f 60//214 171//209 23//207
f 23//207 174//213 60//214
f 60//214 174//213 173//215
f 171//209 57//201 17//203
f 151//176 172//206 169//204
f 151//176 169//204 158//91
f 158//91 169//204 24//90
f 61//183 60//214 159//181
f 159//181 60//214 173//215
f 159//181 173//215 160//182
f 160//182 173//215 174//213
f 160//182 174//213 172//206
f 172//206 174//213 170//208
f 165//197 16//198 120//216
f 120//216 16//198 40//217
f 38//218 15//69 149//219
f 149//219 15//69 61//68
f 38//218 149//219 148//220
f 38//218 148//220 55//221
f 55//221 148//220 54//222
f 148//220 145//223 54//222
f 54//222 145//223 52//224
f 52//224 145//223 144//225
f 52//224 144//225 50//226
f 144//225 138//227 50//226
f 50//226 138//227 143//228
f 50//226 143//228 47//229
f 47//229 143//228 127//230
f 47//229 127//230 45//231
f 127//230 126//232 45//231
f 45//231 126//232 44//233
f 44//233 126//232 132//234
f 44//233 132//234 40//217
f 120//216 40//217 132//234
f 175//235 176//60 87//236
f 176//60 4//59 87//236
f 18//17 17//19 178//237
f 177//238 95//118 178//237
f 178//237 95//118 18//17
f 177//239 175//240 179//241
f 179//241 175//240 195//242
f 178//243 176//202 177//244
f 177//244 176//202 175//245
f 17//203 176//202 178//243
f 36//246 180//247 181//248
f 36//246 181//248 37//249
f 37//249 181//248 182//250
f 37//249 182//250 32//251
f 32//251 182//250 183//252
f 32//251 183//252 33//253
f 33//253 183//252 184//254
f 33//253 184//254 39//255
f 39//255 184//254 34//256
f 34//256 184//254 185//257
f 34//256 185//257 186//258
f 34//256 186//258 35//259
f 35//259 186//258 42//260
f 42//260 186//258 187//261
f 42//260 187//261 43//262
f 43//262 187//261 188//263
f 43//262 188//263 41//264
f 41//264 188//263 189//265
f 41//264 189//265 46//266
f 46//266 189//265 190//267
f 46//266 190//267 48//268
f 48//268 190//267 191//269
f 48//268 191//269 49//270
f 49//270 191//269 192//271
f 49//270 192//271 51//272
f 51//272 192//271 53//273
f 53//273 192//271 193//274
f 53//273 193//274 56//275
f 56//275 193//274 180//247
f 56//275 180//247 36//246
f 180//276 182//277 181//278
f 184//279 183//280 180//276
f 180//276 183//280 182//277
f 186//281 185//282 180//276
f 180//276 185//282 184//279
f 180//276 187//283 186//281
f 189//284 188//285 180//276
f 180//276 188//285 187//283
f 191//286 190//287 180//276
f 180//276 190//287 189//284
f 180//276 192//288 191//286
f 180//276 193//289 192//288
f 87//236 89//290 195//291
f 87//236 195//291 175//235
f 195//291 89//290 194//292
f 194//292 89//290 91//111
f 179//293 195//294 194//295
f 179//293 194//295 196//296
f 198//297 96//114 199//298
f 109//129 199//298 96//114
f 109//129 200//299 199//298
f 197//300 200//299 109//129
f 117//138 197//300 109//129
f 197//300 117//138 201//301
f 115//136 201//301 117//138
f 115//136 202//302 201//301
f 202//302 115//136 203//303
f 203//303 115//136 113//304
f 105//126 204//305 203//303
f 105//126 203//303 113//304
f 105//126 205//306 204//305
f 205//306 105//126 104//125
f 104//125 206//307 205//306
f 103//308 196//309 206//307
f 103//308 206//307 104//125
f 198//310 207//311 208//312
f 198//310 208//312 31//313
f 198//310 31//313 30//314
f 84//141 28//142 31//315
f 84//141 31//315 79//102
f 31//315 208//316 79//102
f 79//102 208//316 207//317
f 96//114 198//297 30//318
f 96//114 30//318 74//92
f 74//92 30//318 29//94
f 196//296 194//295 211//319
f 212//320 206//307 211//319
f 211//319 206//307 196//296
f 213//321 205//306 212//320
f 212//320 205//306 206//307
f 214//322 204//305 213//321
f 213//321 204//305 205//306
f 210//323 203//324 204//305
f 210//323 204//305 214//322
f 203//324 210//323 215//325
f 216//326 202//327 215//325
f 215//325 202//327 203//324
f 202//327 216//326 201//301
f 201//301 216//326 217//328
f 197//300 201//301 209//329
f 209//329 201//301 217//328
f 197//300 209//329 218//330
f 219//331 199//298 200//299
f 219//331 200//299 218//330
f 218//330 200//299 197//300
f 207//311 198//310 199//298
f 207//311 199//298 219//331
f 196//309 103//308 95//118
f 95//118 177//238 179//332
f 95//118 179//332 196//309
f 211//319 194//292 91//111
f 211//319 91//111 212//320
f 212//320 91//111 83//101
f 212//320 83//101 213//321
f 213//321 83//101 214//322
f 214//322 83//101 86//106
f 214//322 86//106 210//323
f 210//323 86//106 215//325
f 215//325 86//106 81//333
f 215//325 81//333 216//334
f 216//334 81//333 80//98
f 216//334 80//98 217//328
f 217//328 80//98 209//329
f 209//329 80//98 75//95
f 209//329 75//95 218//330
f 218//330 75//95 219//331
f 219//331 75//95 79//102
f 219//331 79//102 207//317
f 76//335 221//336 222//337
f 76//335 222//337 77//338
f 77//338 222//337 223//339
f 77//338 223//339 78//340
f 78//340 223//339 224//341
f 78//340 224//341 85//342
f 85//342 224//341 225//343
f 85//342 225//343 14//344
f 220//345 13//346 225//343
f 225//343 13//346 14//344
f 220//345 1//347 11//348
f 220//345 11//348 13//346
f 3//349 227//350 228//351
f 3//349 228//351 88//352
f 88//352 228//351 90//353
f 90//353 228//351 229//354
f 90//353 229//354 92//355
f 92//355 229//354 230//356
f 92//355 230//356 82//357
f 226//358 6//359 9//360
f 227//350 3//349 226//358
f 226//358 3//349 6//359
f 224//361 223//362 222//363
f 230//364 9//365 221//366
f 221//366 9//365 1//367
f 221//366 1//367 220//368
f 221//366 220//368 222//363
f 222//363 220//368 225//369
f 222//363 225//369 224//361
f 230//364 229//370 9//365
f 9//365 229//370 228//371
f 228//371 227//372 9//365
f 9//365 227//372 226//373
f 230//374 221//375 82//376
f 82//376 221//375 76//377
f 231//378 99//379 94//380
f 231//378 232//381 99//379
f 99//379 232//381 107//382
f 107//382 232//381 233//383
f 107//382 233//383 111//384
f 111//384 233//383 234//385
f 111//384 234//385 114//386
f 234//385 235//387 114//386
f 235//387 236//388 114//386
f 114//386 236//388 110//389
f 236//388 237//390 110//389
f 110//389 237//390 238//391
f 110//389 238//391 100//392
f 100//392 238//391 239//393
f 100//392 239//393 93//394
f 239//393 240//395 93//394
f 93//394 240//395 241//396
f 93//394 241//396 97//397
f 97//397 241//396 242//398
f 97//397 242//398 101//399
f 101//399 242//398 243//400
f 101//399 243//400 244//401
f 101//399 244//401 108//402
f 108//402 244//401 245//403
f 108//402 245//403 116//404
f 116//404 245//403 246//405
f 116//404 246//405 247//406
f 116//404 247//406 112//407
f 112//407 247//406 248//408
f 112//407 248//408 249//409
f 112//407 249//409 106//410
f 106//410 249//409 102//411
f 249//409 250//412 102//411
f 250//412 251//413 102//411
f 102//411 251//413 98//414
f 251//413 252//415 98//414
f 98//414 252//415 253//416
f 98//414 253//416 94//380
f 94//380 253//416 231//378
f 254//417 255//418 256//419
f 257//420 258//421 256//419
f 259//422 260//423 256//419
f 256//419 260//423 261//424
f 256//419 261//424 257//420
f 262//425 263//426 256//419
f 256//419 263//426 264//427
f 256//419 264//427 259//422
f 265//428 266//429 256//419
f 256//419 266//429 267//430
f 256//419 267//430 262//425
f 268//431 269//432 256//419
f 256//419 269//432 270//433
f 256//419 270//433 265//428
f 271//434 272//435 256//419
f 256//419 272//435 273//436
f 256//419 273//436 268//431
f 255//418 274//437 256//419
f 256//419 274//437 275//438
f 256//419 275//438 271//434
f 276//439 265//440 277//441
f 277//441 265//440 270//442
f 277//441 270//442 278//443
f 278//443 270//442 269//444
f 278//443 269//444 279//445
f 279//445 269//444 268//446
f 279//445 268//446 280//447
f 280//447 268//446 273//448
f 280//447 273//448 281//449
f 281//449 273//448 272//450
f 281//449 272//450 282//451
f 282//451 272//450 271//452
f 282//451 271//452 283//453
f 283//453 271//452 275//454
f 283//453 275//454 284//455
f 284//455 275//454 274//456
f 284//455 274//456 285//457
f 285//457 274//456 255//458
f 285//457 255//458 286//459
f 286//459 255//458 254//460
f 286//459 254//460 287//461
f 287//461 254//460 256//462
f 287//461 256//462 288//463
f 288//463 256//462 258//464
f 288//463 258//464 289//465
f 289//465 258//464 257//466
f 289//465 257//466 290//467
f 290//467 257//466 261//468
f 290//467 261//468 291//469
f 291//469 261//468 260//470
f 291//469 260//470 292//471
f 292//471 260//470 259//472
f 292//471 259//472 293//473
f 293//473 259//472 264//474
f 293//473 264//474 294//475
f 294//475 264//474 263//476
f 294//475 263//476 295//477
f 295//477 263//476 262//478
f 295//477 262//478 296//479
f 296//479 262//478 267//480
f 296//479 267//480 297//481
f 297//481 267//480 266//482
f 297//481 266//482 276//439
f 276//439 266//482 265//440
f 298//483 287//484 288//485
f 279//486 299//487 278//488
f 278//488 299//487 300//489
f 278//488 300//489 277//490
f 277//490 300//489 276//491
f 276//491 300//489 301//492
f 276//491 301//492 297//493
f 297//493 301//492 302//494
f 297//493 302//494 296//495
f 287//484 298//483 303//496
f 287//484 303//496 286//497
f 286//497 303//496 285//498
f 285//498 303//496 304//499
f 285//498 304//499 284//500
f 284//500 304//499 283//501
f 292//502 305//503 291//504
f 291//504 305//503 306//505
f 291//504 306//505 290//506
f 290//506 306//505 307//507
f 290//506 307//507 289//508
f 289//508 307//507 288//485
f 288//485 307//507 298//483
f 296//495 302//494 308//509
f 296//495 308//509 295//510
f 295//510 308//509 294//511
f 294//511 308//509 309//512
f 294//511 309//512 293//513
f 293//513 309//512 292//502
f 292//502 309//512 305//503
f 304//499 310//514 283//501
f 283//501 310//514 282//515
f 282//515 310//514 311//516
f 282//515 311//516 281//517
f 281//517 311//516 280//518
f 280//518 311//516 312//519
f 280//518 312//519 279//486
f 279//486 312//519 299//487
f 301//520 253//521 302//494
f 253//521 252//415 302//494
f 252//415 251//413 302//494
f 302//494 251//413 308//509
f 251//413 250//412 308//509
f 308//509 250//412 249//409
f 308//509 249//409 309//512
f 309//512 249//409 248//408
f 309//512 248//408 305//503
f 305//503 248//408 247//406
f 305//503 247//406 246//405
f 305//503 246//405 306//505
f 246//405 245//522 306//505
f 306//505 245//522 307//507
f 307//507 245//522 244//401
f 307//507 244//401 243//400
f 307//507 243//400 298//483
f 298//483 243//400 242//398
f 298//483 242//398 241//396
f 298//483 241//396 240//395
f 298//483 240//395 303//496
f 303//496 240//395 239//393
f 303//496 239//393 304//499
f 304//499 239//393 238//391
f 304//499 238//391 237//390
f 304//499 237//390 310//514
f 237//390 236//388 310//514
f 310//514 236//388 311//516
f 236//388 235//387 311//516
f 311//516 235//387 234//385
f 311//516 234//385 312//519
f 312//519 234//385 233//383
f 312//519 233//383 299//487
f 299//487 233//383 232//523
f 299//487 232//523 300//524
f 232//523 231//525 300//524
f 300//524 231//525 301//520
f 301//520 231//525 253//521
