# G1 exterior visual; derived from pinned Unitree/TWIST2 CAD.
v 0.010000959 -0.0049713538 0.000846589217
v 0.0160009339 -0.00479444349 0.00140833866
v 0.0160008408 -0.00420327112 0.00270289113
v 0.0100008398 -0.00420441385 0.00270297867
v 0.0160006788 -0.00327132735 0.00377845275
v 0.0100005604 -0.00261496659 0.00431288639
v 0.0160004627 -0.00207411335 0.00454788748
v 0.0160002075 -0.000708620122 0.0049488605
v 0.0100000491 0.00013225351 0.00504299579
v 0.0159999374 0.000714528258 0.00494888751
v 0.0159996711 0.00208003656 0.00454796618
v 0.00999952015 0.00283808913 0.00417194283
v 0.0159994308 0.0032772799 0.00377857662
v 0.0159992389 0.00420926418 0.00270305062
v 0.00999914482 0.00464345608 0.00197628187
v 0.0159991067 0.00480048591 0.00140852039
v 0.0159990471 0.00500304764 -1.3854914e-07
v 0.00999904703 0.00500190444 -5.10866442e-08
v 0.0159990657 0.004800539 -0.00140880502
v 0.00999910384 0.00453515863 -0.00221371208
v 0.0159991588 0.00420936663 -0.00270335795
v 0.0159993209 0.00327742286 -0.00377891888
v 0.00999932084 0.00327627989 -0.00377883157
v 0.0159995388 0.00208020885 -0.00454835361
v 0.0099996822 0.00129765412 -0.00487572793
v 0.0159997921 0.000714715745 -0.00494932709
v 0.0160000641 -0.000708432694 -0.0049493541
v 0.0100000631 -0.000709575601 -0.00494926656
v 0.0160003304 -0.00207394105 -0.00454843231
v 0.0100004794 -0.00283427886 -0.0041722348
v 0.0160005689 -0.00327118416 -0.00377904298
v 0.0160007626 -0.00420316868 -0.00270351721
v 0.0100008557 -0.00463964604 -0.00197657361
v 0.016000893 -0.00479438994 -0.00140898675
v 0.0160009526 -0.00499695214 -3.27969616e-07
v -0.0100009525 0.00499809487 2.40454966e-07
v -0.016000893 0.00479438994 0.00140898686
v -0.0100008314 0.00453126477 0.00221388321
v -0.0160007607 0.00420316868 0.00270351698
v -0.0160005689 0.00327118416 0.00377904321
v -0.0100005688 0.00327232713 0.00377895567
v -0.0160003286 0.00207394105 0.00454843277
v -0.0100001758 0.00129365933 0.00487577729
v -0.0160000622 0.000708432694 0.0049493541
v -0.0159997921 -0.000714715745 0.00494932709
v -0.00999979209 -0.000713572779 0.00494923955
v -0.015999537 -0.00208020885 0.00454835407
v -0.00999939907 -0.00283824652 0.00417212723
v -0.0159993209 -0.00327742286 0.00377891911
v -0.0159991588 -0.00420936663 0.00270335772
v -0.00999908708 -0.00464353105 0.00197639689
v -0.0159990657 -0.004800539 0.00140880514
v -0.0159990471 -0.00500304764 1.38496986e-07
v -0.00999906473 -0.00497513125 -0.000846778159
v -0.0159991067 -0.00480048591 -0.00140852027
v -0.0159992371 -0.00420926418 -0.00270305085
v -0.00999923795 -0.00420812145 -0.00270313816
v -0.0159994308 -0.0032772799 -0.00377857662
v -0.00999956392 -0.00261861249 -0.00431298558
v -0.0159996711 -0.00208003656 -0.00454796618
v -0.0159999356 -0.000714528258 -0.00494888751
v -0.00999993645 -0.000713385351 -0.00494897505
v -0.0160002075 0.000708620122 -0.0049488605
v -0.0100003649 0.00154416298 -0.00480193086
v -0.0160004608 0.00207411335 -0.00454788748
v -0.0160006788 0.00327132735 -0.00377845252
v -0.0100006787 0.00327247032 -0.00377854006
v -0.0160008408 0.00420327112 -0.00270289136
v -0.0100009125 0.00463972054 -0.00197610748
v -0.0160009339 0.00479444349 -0.00140833855
v -0.0160009526 0.00499695214 3.27917462e-07
v -0.0048797885 -0.0100009972 0.00356590189
v -0.0029980191 -0.0100006694 0.00519600697
v 0.00597539172 -0.00999888033 0.000930077338
v 0.00564022968 -0.00999888498 -0.00218129577
v 0.00985658169 -0.00999139622 -0.000670324662
v -0.00600881083 -0.0100011574 0.000647290435
v -0.00985277444 -0.00999517553 0.000669947534
v -0.000928364054 -0.0100002903 0.00597329671
v 0.00218301197 -0.00999969151 0.0056381356
v -0.00954264961 -0.00999983028 0.00357839325
v -0.00765451835 -0.0100024659 0.00655517634
v -0.00896220095 -0.0100001609 0.00525020156
v 0.00845668651 -0.00999519881 0.00597941549
v 0.0047099595 -0.00999917462 0.00379219162
v -0.00981540419 -0.00999799743 -0.00138178968
v -0.00941542257 -0.0100002186 -0.00420715986
v -0.0055272677 -0.0100010075 -0.00244481349
v 0.00981921237 -0.00999431033 0.0013814111
v 0.00941923074 -0.00999678951 0.00420678593
v 0.00896601006 -0.00999654643 -0.00525057968
v 0.00954645686 -0.00999605842 -0.00357877859
v 0.00424448354 -0.00999911129 -0.00424289191
v 0.00244653178 -0.00999942981 -0.00552936085
v -0.00845288299 -0.00999819394 -0.00597978942
v 0.0076583284 -0.00999930128 -0.00655555539
v -0.000645576045 -0.01000001 -0.00601090491
v 0.00755552435 -0.00999928173 0.00658455119
v -0.00755171711 -0.0100019099 -0.00658493023
v -0.00356418546 -0.0100005874 -0.00488188351
v -0.00888366438 0.00999598205 0.0054498557
v -0.00553100603 0.00999889988 0.00244497461
v -0.00987081416 0.00999580324 6.34752869e-05
v -0.0060126395 0.00999886729 -0.000647116918
v -0.00953379925 0.00999607611 0.00365608209
v -0.00878483895 0.00999722909 -0.00561913196
v -0.00955840666 0.00999662187 -0.00354831526
v -0.00519810105 0.00999906659 -0.00299973483
v -0.00379442098 0.00999936648 -0.00470775645
v 0.00986700505 0.00999956392 -6.31031435e-05
v 0.00552719599 0.0100010997 -0.00244459556
v 0.00600883085 0.0100011323 0.000647491252
v 0.00487989094 0.0100008622 0.00356614008
v 0.00244287914 0.0100003611 0.00552929146
v -0.00155490381 0.00999981351 -0.00579534285
v 0.000645400898 0.0100002373 -0.00601054495
v -0.00754679879 0.00999397784 0.00663203187
v -0.00751043577 0.00999448262 -0.00662493054
v 0.00952999014 0.00999984518 -0.00365570444
v 0.00878102984 0.0100003621 0.00561951054
v 0.00955459662 0.0100001283 0.0035486992
v -0.000649210124 0.00999976229 0.00601092447
v -0.00356785441 0.00999922771 0.00488198595
v 0.00887985341 0.00999957323 -0.00544948038
v 0.00750662619 0.00999709219 0.00662530819
v 0.00754298596 0.00999710429 -0.00663165469
v 0.00356404344 0.010000769 -0.00488160877
v 0.0100003639 0.00742228655 -0.00560789974
v 0.00999933016 0.00899890997 0.0020248876
v 0.00997094065 0.000745435187 -0.00951458607
v 0.00996639766 -0.00284193875 -0.00918617845
v 0.00997326151 -0.00864014775 -0.00403432641
v 0.00995274074 0.00143074384 0.00958822854
v 0.0100027509 -0.00894140173 0.00225022435
v 0.0100020068 -0.00459777936 0.00799296424
v 0.00995882228 0.00557000609 0.00784641039
v -0.00996368378 -0.00871696882 0.00393374171
v -0.00996930711 -1.83612447e-05 -0.00956838671
v -0.00997646432 0.00325372256 -0.00897916127
v -0.00995935779 -0.0014330335 0.00951455906
v -0.00996819325 -0.00449471967 0.00844773091
v -0.00999856181 -0.00903768837 -0.0010404503
v -0.00999974273 -0.00653993478 -0.00649894914
v -0.0100022908 0.00914925523 -0.000184426142
v -0.00997108035 0.0089099044 -0.00347443903
v -0.00995325949 0.00859229919 0.00444227178
v -0.0100017386 0.00405308045 0.00828226749
v -0.00749452598 0.0084727034 -0.00845905673
v 0.0075039193 0.00834037084 -0.008590132
v -0.00751742348 0.0071471259 -0.00959730614
v 0.00751112029 0.00700505031 -0.00970437378
v -0.00754122483 0.00516610546 -0.0108167976
v 0.00747775147 0.0055817985 -0.0105955172
v 0.00754266605 0.00339035341 -0.0114965923
v -0.00749495858 0.00297160354 -0.0115981065
v -0.00751522882 0.00125003082 -0.0119018955
v 0.0075101112 0.00107291352 -0.0119202724
v -0.00753963133 -0.00107386394 -0.0119398581
v 0.00747728208 -0.000601315289 -0.0119604087
v 0.00754492357 -0.0029447705 -0.011617491
v -0.00749524124 -0.00336111709 -0.0114915743
v -0.00751295267 -0.00499769859 -0.0108752064
v 0.00750927581 -0.00515967654 -0.0107989917
v -0.00753813563 -0.00701400312 -0.00972306821
v 0.00747688441 -0.00661628135 -0.00998141523
v 0.00754711591 -0.00845603459 -0.0084915394
v -0.00749571202 -0.00875332858 -0.00816927943
v -0.007543894 -0.00845923368 0.00849121623
v 0.00749904709 -0.00875078049 0.00816894975
v 0.00754080992 -0.00701149739 0.00972280372
v -0.00747436285 -0.00661950931 0.00998116378
v -0.00750731071 -0.00516294269 0.010798797
v 0.00751485815 -0.00499525433 0.0108750137
v -0.00754380273 -0.00294808438 0.0116173783
v 0.00749651762 -0.00335869729 0.0114914468
v 0.00754004344 -0.0010714418 0.0119398171
v -0.00747705158 -0.000604617584 0.0119603854
v -0.00751051912 0.00106959813 0.0119203124
v 0.00751475617 0.00125243561 0.0119019421
v -0.00754395407 0.00338704884 0.0114967199
v 0.00749382423 0.00297402847 0.0115982173
v 0.00753925648 0.00516856601 0.0108169951
v -0.00747987395 0.00557854446 0.0105957305
v -0.00751378527 0.00700181862 0.00970464107
v 0.00751469983 0.00714962184 0.00959758088
v -0.00750709372 0.00833718013 0.00859045424
v 0.0074912929 0.00847524311 0.00845937338
v -0.00852539763 -0.00897924695 0.00734858867
v -0.00913343392 -0.00872103404 0.00692377472
v -0.00960882101 -0.00901021902 0.0054016402
v -0.00982316211 -0.00879571587 -0.0050193877
v -0.00850269385 0.00864219293 -0.00777700171
v -0.00979356375 0.00836947281 -0.00581500912
v -0.00888068322 0.00863336213 0.00743889436
v -0.00850575138 -0.00809570588 -0.00833672471
v -0.0085062515 -0.00560556166 -0.0101789273
v -0.00850681588 -0.00271719298 -0.0112977941
v -0.00877209567 0.000206482684 -0.0114704929
v -0.00850798748 0.00341949542 -0.0111045232
v -0.00850850157 0.00623174012 -0.00980612263
v -0.00850847643 0.00751756318 0.00885896664
v -0.00850795303 0.00490992842 0.0105307428
v -0.00891895033 0.00218115351 0.0111447247
v -0.00850708131 0.000409142143 0.0116125541
v -0.00850649737 -0.00267339475 0.0113084782
v -0.00850596372 -0.00556607498 0.0102008143
v -0.00884193648 -0.00733416202 0.00872692745
v -0.00914533716 -0.00873620249 -0.00688186567
v -0.00945417397 -0.00728841452 -0.0079478221
v -0.00940250792 -0.00528865913 -0.00948733184
v -0.00912719872 -0.00261923042 -0.0108278058
v -0.00912804343 0.00181559112 -0.0109904492
v -0.00940437801 0.00450022845 -0.0098839337
v -0.00946204737 0.00662782742 -0.00849305466
v -0.00912921689 0.00823590346 -0.00749898516
v -0.009128551 0.00602275319 0.00937035214
v -0.00940278545 0.00396305695 0.0100873727
v -0.00940196402 -0.000289493706 0.0108347833
v -0.00940275472 -0.00244482909 0.0105828894
v -0.00940225553 -0.00515393307 0.00956143904
v -0.00960639305 0.000974723196 -0.0105031887
v -0.0097962888 -0.00251186453 -0.0098612234
v -0.00961258169 0.00827954058 0.0065145744
v -0.00980820879 0.00576634146 0.00838087313
v -0.00960184447 0.00180213782 0.0103613734
v -0.00960015599 -0.00727327587 0.00759852724
v -0.00990090519 0.00572082214 -0.00798879098
v -0.00990006048 -0.00597891212 -0.00785858277
v -0.00990153197 0.00306657678 0.00938465074
v -0.0098982295 -0.00720119523 0.00668912195
v 0.00959700998 0.00866685063 0.00597399706
v 0.00990023371 0.00873520784 0.00459589995
v 0.009612252 -0.0090063531 -0.00540198386
v 0.00849940069 0.00864513591 0.00777733
v 0.00990927778 0.00845234003 -0.00511886925
v 0.00852774456 0.00866529346 -0.00773022836
v 0.00852881651 -0.00897572935 -0.00734891789
v 0.00913675874 -0.00871728919 -0.00692410534
v 0.00982311554 -0.00880266447 0.00501260906
v 0.00914866757 -0.00873298105 0.00688152807
v 0.0094544962 0.00870668795 -0.00635907846
v 0.00912607927 0.00823909696 0.00749929855
v 0.00990013778 0.0042941398 -0.00889176782
v 0.00945958309 0.00491562719 -0.00958870817
v 0.00912674796 0.00333700608 -0.0106289415
v 0.0085058352 0.00627330504 -0.00978190359
v 0.00850635208 0.00346616888 -0.0110912975
v 0.00960568525 0.00113736058 -0.0104874726
v 0.0096019581 -0.00238188612 -0.0102435434
v 0.00912758149 -0.0010770103 -0.0110875983
v 0.00850751624 -0.00266971951 -0.0113085797
v 0.00990031939 -0.00674727652 -0.00721316645
v 0.00960246939 -0.00500346022 -0.00924982037
v 0.00960292574 -0.00726933079 -0.00759880291
v 0.00912866089 -0.0065767765 -0.00899005402
v 0.00850834232 -0.00687245931 -0.00936838426
v 0.00940190628 0.0070728031 -0.0082441587
v 0.00877161883 0.000560567481 -0.0114590134
v 0.00891997851 -0.00430208212 -0.0105096521
v 0.0099023385 -0.00597543875 0.0078583546
v 0.00960316136 -0.00734963128 0.00752086425
v 0.00850883499 -0.00809278432 0.00833641365
v 0.00912893191 -0.00663550245 0.00894652028
v 0.00850838609 -0.00560270436 0.0101787169
v 0.00945652463 -0.00492646266 0.00959032867
v 0.00979724526 -0.00250851735 0.00986112282
v 0.00912819523 -0.00261616334 0.0108277081
v 0.00850785524 -0.00271439133 0.011297686
v 0.00891884789 8.20053829e-05 0.011355943
v 0.00960174855 0.000297428196 0.0105128083
v 0.00850697607 0.00191167509 0.0114615038
v 0.00960121583 0.00306438771 0.0100611802
v 0.00891878735 0.00359389768 0.0107733859
v 0.00850612856 0.00623460673 0.00980635919
v 0.00912653841 0.00596510619 0.00940910913
v 0.0096049998 0.00619440526 0.00853950717
v -0.0170004219 -0.00398066128 0.000677437289
v -0.0169995446 -0.00262262672 -0.00302279857
v -0.0170005076 -0.00371537474 -0.00158042146
v -0.0170001667 0.000566096045 -0.00395902712
v -0.0170010105 -0.00123958092 -0.00384031632
v -0.0170006733 0.00336181675 -0.00216225162
v -0.0170016401 0.00208963477 -0.00344915222
v -0.0170018747 0.00370889553 0.00158092531
v -0.0170019586 0.00397418533 -0.000676935713
v -0.01700137 0.00123309914 0.00384081411
v -0.0170004554 0.00261614751 0.00302329566
v -0.017000936 -0.00103952875 0.00389955263
v -0.0170005839 -0.00298314355 0.00272029173
v 0.0170004219 0.00401035137 -0.000470902043
v 0.0170005262 0.00362869189 0.00177022163
v 0.0170006659 -0.00226572948 0.00333718536
v 0.0170005616 0.00311977859 -0.00256259972
v 0.0170013327 -0.00103290495 -0.00389959104
v 0.0170009006 0.00123972085 -0.00384076661
v 0.0170017201 -0.00297656469 -0.00272040302
v 0.0170019213 -0.003708957 0.00158028421
v 0.0170019381 -0.00397416111 -0.000677577802
v 0.0170008428 0.00209597847 0.00344923232
v 0.0170012712 -0.000101165817 0.00403305935
vn -0.009327205 -0.9896242 0.1433772
vn 0.001046098 -0.9569649 0.2902016
vn -0.004750189 -0.8432796 0.5374541
vn -0.006516831 -0.8361347 0.5484854
vn 0.005503661 -0.658645 0.7524337
vn -0.01541858 -0.503296 0.8639765
vn 0.0009504053 -0.4073592 0.9132675
vn -0.000757275 -0.1511403 0.988512
vn -0.01818993 0.02587019 0.9994998
vn 0.0008452411 0.1510575 0.9885247
vn -0.0008645912 0.4072825 0.9133017
vn -0.01829455 0.5621331 0.8268445
vn 0.0007445232 0.6615142 0.7499322
vn -0.0009517053 0.8363959 0.548125
vn -0.009685119 0.910037 0.4144139
vn 0.000680292 0.9619452 0.2732415
vn -0.005109109 0.9999799 0.003775434
vn -0.006874725 0.9999325 -0.009367111
vn 0.005180138 0.9608857 -0.2768968
vn -0.007084717 0.9015862 -0.4325413
vn 0.0006922508 0.8364425 -0.5480544
vn -0.005054919 0.6577005 -0.7532625
vn -0.006818536 0.6477368 -0.7618337
vn 0.005274027 0.419982 -0.9075171
vn -0.006970904 0.2635204 -0.9646286
vn 0.0008197401 0.1335615 -0.9910402
vn -0.004906692 -0.138576 -0.9903397
vn -0.006669539 -0.1515786 -0.9884227
vn 0.005432261 -0.4108255 -0.9116977
vn -0.01542895 -0.5768278 -0.81672
vn 0.0009747388 -0.661514 -0.7499321
vn -0.0006490325 -0.8363964 -0.5481246
vn -0.01803002 -0.9199284 -0.3916715
vn 0.001038859 -0.9619449 -0.2732415
vn -0.0006100012 -0.9999601 -0.008921781
vn 0.006493774 0.9999347 0.009404665
vn -0.005546175 0.960873 0.2769336
vn 0.006741281 0.9015728 0.432575
vn -0.001010889 0.8364212 0.5480862
vn 0.004804338 0.6576741 0.7532872
vn 0.00657176 0.6477107 0.761858
vn -0.005433962 0.4199458 0.9075329
vn 0.006870475 0.2634864 0.9646387
vn -0.000870585 0.1335235 0.9910452
vn 0.004959415 -0.1386113 0.9903344
vn 0.006727427 -0.1516136 0.988417
vn -0.005275632 -0.4108619 0.9116823
vn 0.01564891 -0.576853 0.8166981
vn -0.0007226369 -0.6615425 0.7499073
vn 0.0009676645 -0.8364167 0.5480932
vn 0.01838054 -0.9199365 0.3916363
vn -0.0006723814 -0.9619555 0.2732051
vn 0.0009909795 -0.9999601 0.008884041
vn 0.009704225 -0.9896151 -0.1434148
vn -0.0006814817 -0.9569544 -0.2902374
vn 0.005071459 -0.8432574 -0.537486
vn 0.006835399 -0.8361114 -0.5485172
vn -0.005252677 -0.6586186 -0.7524587
vn 0.006994257 -0.5245806 -0.8513321
vn -0.0007952001 -0.4073251 -0.9132829
vn 0.004932132 -0.146011 -0.9892706
vn 0.006694932 -0.1329947 -0.9910942
vn -0.005407709 0.1373666 -0.9905055
vn 0.006835608 0.2998668 -0.9539565
vn -0.0009532699 0.423472 -0.9059087
vn 0.004783438 0.6520241 -0.7581831
vn 0.006547051 0.6619265 -0.7495402
vn -0.005534914 0.8385299 -0.5448275
vn 0.006726171 0.9173235 -0.3980859
vn -0.001046796 0.9619553 -0.2732048
vn 0.004728139 0.9999819 -0.00373761
vn -0.1630995 -0.9169467 0.3641529
vn -4.118773e-05 -1 -0.0001738772
vn 0.0003072566 -0.9999999 -0.0002688031
vn 0.001225243 -0.9999992 -0.0003463793
vn 0.001040745 -0.9999994 0.0003295214
vn 0.001434813 -0.999999 -3.928369e-05
vn 0.0002192259 -0.9999993 -0.001124366
vn 0.1385753 -0.9174438 0.3729528
vn 0.0001380107 -0.9999999 -0.0003515472
vn -0.0006944488 -0.9999997 -0.0004957417
vn -0.0008378376 -0.9999997 -9.025287e-05
vn -0.001556222 -0.9999987 -7.930651e-06
vn -0.0004297728 -0.9999998 -0.0005455178
vn -0.0009505696 -0.9999993 0.000730104
vn -0.0001066487 -0.9999999 -0.0002117693
vn -0.0004023204 -0.9999999 8.318508e-05
vn 0.001310794 -0.9999986 -0.001038224
vn 0.0007239232 -0.9999996 0.0002562786
vn 0.0004457613 -0.9999999 -7.925471e-05
vn 0.001101121 -0.9999993 0.0004309752
vn 0.0009712686 -0.9999993 0.0006926549
vn 3.746368e-05 -1 0.0001378566
vn 0.0001025339 -0.9999999 0.000393648
vn 0.163457 -0.9168237 -0.3643022
vn 0.001362267 -0.9999989 -0.0005155873
vn -0.001542851 -0.9999987 0.0004808067
vn 0.0001772345 -0.9999994 0.00108881
vn -0.1382236 -0.9173365 -0.373347
vn 0.0002756174 -0.9999999 0.0001312604
vn -0.0007482215 0.9999997 9.283463e-05
vn -0.0006994565 0.9999997 0.0004114954
vn -0.0006956808 0.9999998 5.03631e-05
vn -0.0006626783 0.9999998 0.0001418152
vn 9.982338e-05 0.9999996 -0.0008386985
vn -0.0006318051 0.9999998 7.087873e-05
vn -0.0005683198 0.9999997 -0.0004441046
vn -0.0001018058 0.9999996 0.0008575134
vn 0.0003675578 0.9999999 -5.492656e-05
vn 0.0003184396 0.9999999 -0.0003735675
vn 0.0003103889 1 -6.798417e-06
vn 0.0001781607 0.9999998 0.0006176732
vn 0.0002323754 0.9999982 0.001907139
vn 0.1383256 0.9165106 0.3753323
vn -0.0008338635 0.9999992 -0.000931193
vn -0.0005259069 0.9999963 -0.002649037
vn -0.138673 0.9165087 -0.3752086
vn -0.0001268581 0.9999814 -0.006098366
vn 0.151445 0.913326 -0.3780212
vn -0.1566034 0.9099603 0.3839893
vn 0.0002822433 0.9999999 -0.0001028944
vn -0.0003343779 0.9999995 0.0008787076
vn 0.0002338065 1 -2.778254e-05
vn -0.0002450841 0.9999817 0.006040861
vn -0.0008229223 0.999999 0.001128607
vn -0.0002789494 0.9999996 -0.0008195575
vn 0.0004417244 0.9999993 -0.00108855
vn 0.990758 0.09592719 -0.09589878
vn 0.99094 0.1307051 0.03088518
vn 1 -0.0001699874 0.0001856382
vn 1 -7.549193e-05 8.224139e-06
vn 0.9999999 -8.916252e-05 0.00036774
vn 0.9999874 -0.0002112078 -0.005023613
vn 0.9804281 0.006794668 -0.1967602
vn 0.9999772 -0.00120776 -0.006634247
vn 0.9999731 -0.003982669 -0.006163616
vn 0.9769583 -0.06409391 -0.203579
vn 0.9999866 -0.003691084 -0.003622329
vn 0.9804 -0.1792361 -0.08179463
vn 0.9999999 0.0004381319 -3.790627e-05
vn 0.9925306 -0.117055 0.03436698
vn 0.9999587 0.004974015 0.007599242
vn 0.9734533 0.03637634 0.2259766
vn 0.9999688 0.003497341 0.00707689
vn 0.9999999 0.0004068259 -0.0001647941
vn 0.9935428 -0.04856535 0.1025383
vn 0.9999999 0.0003134286 -0.0002239892
vn 0.9999909 0.001600489 0.003952742
vn 0.9785572 0.1200172 0.1673968
vn -0.9999959 -0.001919327 0.00211945
vn -0.9798386 -0.1830202 0.08012439
vn -0.9999694 -0.007270698 0.002889847
vn -0.9999757 -0.001366902 -0.00683606
vn -0.9800067 -0.003007936 -0.1989418
vn -0.9999943 0.0005052771 -0.003369068
vn -0.9999838 0.001095446 -0.005592846
vn -0.9752676 0.07332913 -0.2085092
vn -0.9999617 -0.001552769 0.008611817
vn -0.9999713 -0.004286803 0.006241233
vn -0.9734429 -0.0344064 0.2263296
vn -0.974722 -0.1045087 0.1974717
vn -0.9955307 -0.0932543 -0.01490858
vn -0.9939229 -0.08247967 -0.07290062
vn -1 7.859391e-06 0.00012825
vn -1 -0.0003216197 1.138133e-05
vn -0.9965417 0.08309384 -0.0001461316
vn -0.9999853 0.003474017 -0.004155759
vn -0.9999788 0.004642226 -0.004577258
vn -0.9797625 0.1873549 -0.07045242
vn -0.9999662 0.005322868 0.006273548
vn -0.9728773 0.2054527 0.1062956
vn -0.9999841 0.005511443 0.00118106
vn -0.9948066 0.05051542 0.0883622
vn -0.9999892 -0.002306801 0.004032774
vn -0.9942471 -0.00332637 -0.1070587
vn -0.9880835 0.002953714 -0.1538901
vn -0.8075136 -0.003281632 -0.5898398
vn -0.7787603 0.00300251 -0.6273143
vn -0.4044074 -0.003198669 -0.9145733
vn -0.3607692 0.003087904 -0.93265
vn 0.1070594 -0.00309972 -0.9942478
vn 0.1282093 -0.0006415762 -0.9917469
vn 0.5881592 -0.006205508 -0.8087214
vn 0.508062 0.0009519552 -0.86132
vn 0.8172764 0.007794965 -0.5761933
vn 0.9145491 -0.009091554 -0.4043728
vn 0.9942026 0.009464826 -0.1071054
vn 0.9958841 -0.007440377 0.09033025
vn 0.913731 0.006499203 0.4062676
vn 0.8706691 -0.0006823043 0.4918688
vn 0.6209199 0.001038261 0.7838734
vn 0.590614 0.004736686 0.8069403
vn 0.2724049 -0.004108408 0.9621739
vn 0.1082531 0.007874504 0.9940922
vn -0.1342228 -0.007451388 0.9909231
vn -0.3791948 0.007317336 0.9252879
vn -0.590772 -0.008000516 0.8067989
vn -0.7169769 0.003992298 0.6970855
vn -0.9149448 -0.004821449 0.4035502
vn -0.9388994 0.002685074 0.3441813
vn -0.1734099 0.6942459 -0.6985353
vn 0.1838202 0.6824751 -0.7074163
vn -0.1857428 0.5907752 -0.7851651
vn 0.1811912 0.5853003 -0.7903122
vn -0.1972993 0.4213348 -0.8851835
vn 0.1815113 0.4451139 -0.876885
vn 0.1852478 0.2694996 -0.945015
vn -0.173917 0.2398171 -0.9551129
vn -0.1974535 0.1032805 -0.9748566
vn 0.1909246 0.1042733 -0.9760506
vn -0.1984361 -0.08600295 -0.9763332
vn 0.1933565 -0.05984905 -0.9793015
vn 0.1838819 -0.248461 -0.9510282
vn -0.1742525 -0.2810414 -0.9437435
vn -0.184306 -0.4053441 -0.8953924
vn 0.2010551 -0.4159516 -0.8868828
vn -0.1971058 -0.5747192 -0.7942588
vn 0.1702592 -0.5434008 -0.8220264
vn 0.192915 -0.6919844 -0.6956589
vn -0.1734421 -0.72497 -0.6665855
vn -0.1935284 -0.6884421 0.6989951
vn 0.1737188 -0.7249293 0.6665578
vn 0.1973256 -0.574674 0.794237
vn -0.1817323 -0.5572268 0.8102294
vn -0.1812873 -0.4046266 0.8963326
vn 0.1844604 -0.4053081 0.8953769
vn -0.1841778 -0.2491009 0.9508035
vn 0.1743583 -0.2810107 0.9437331
vn 0.2057861 -0.08085166 0.9752513
vn -0.181503 -0.06448413 0.9812739
vn -0.1819184 0.1092561 0.9772251
vn 0.1852079 0.08280382 0.9792046
vn -0.2058342 0.2706899 0.9404038
vn 0.1825727 0.2582649 0.9486656
vn 0.2036169 0.4154773 0.8865206
vn -0.1708612 0.460769 0.8709182
vn -0.1879516 0.5666966 0.8022027
vn 0.1855181 0.5908159 0.7851876
vn -0.1902048 0.7013365 0.6869857
vn 0.1731442 0.6942861 0.6985613
vn -0.4822392 -0.6779252 0.5548537
vn -0.7047952 -0.615566 0.3526219
vn -0.9122089 -0.3823063 0.1473671
vn -0.9868019 -0.1606539 0.02030418
vn -0.6902655 0.6077634 -0.3926288
vn -0.9112007 0.3384812 -0.2348273
vn -0.9071659 0.3917119 -0.1536616
vn -0.9817393 0.1900576 0.008121845
vn -0.7064428 0.6007756 0.3741755
vn -0.5892623 0.6028241 0.5379341
vn -0.5701007 -0.6776629 -0.4644977
vn -0.4963633 -0.5985734 -0.6287555
vn -0.4995434 -0.4168071 -0.7594262
vn -0.4800275 -0.2103034 -0.8516725
vn -0.5751341 0.005856165 -0.8180382
vn -0.5003961 0.256015 -0.8270792
vn -0.5042546 0.4664467 -0.7267425
vn -0.4752599 0.6483908 -0.5947413
vn -0.5000384 0.5603805 0.6602539
vn -0.4923207 0.365781 0.7898257
vn -0.5990372 0.1557245 0.7854325
vn -0.497366 0.02232022 0.8672536
vn -0.5052896 -0.1987555 0.8397492
vn -0.4955887 -0.4069968 0.7672975
vn -0.5893848 -0.5136982 0.62349
vn -0.707176 -0.5600378 -0.4315783
vn -0.7979787 -0.4028365 -0.4482776
vn -0.7860594 -0.2991918 -0.5409205
vn -0.7193757 -0.1623438 -0.6753837
vn -0.6848494 0.1338703 -0.7162821
vn -0.7851602 0.2539346 -0.564837
vn -0.7939867 0.3776806 -0.4763848
vn -0.7212512 0.5088835 -0.4699299
vn -0.6948613 0.3972911 0.5994393
vn -0.7830651 0.2285499 0.5784237
vn -0.7897116 -0.02895704 0.6127945
vn -0.7923932 -0.1432862 0.5929436
vn -0.7965344 -0.2786288 0.5365623
vn -0.7194318 -0.5453407 0.4301413
vn -0.8628426 0.03951231 -0.5039259
vn -0.9218706 -0.09608316 -0.3753967
vn -0.9322382 -0.3109474 -0.1850503
vn -0.9124743 0.38058 0.1501648
vn -0.8669852 0.3869841 0.3139746
vn -0.9179905 0.2414593 0.3146282
vn -0.8698472 0.07080188 0.4882141
vn -0.8599187 -0.3381321 0.3823698
vn -0.8678557 -0.4256106 0.2562853
vn -0.9636436 0.1560429 -0.216891
vn -0.9567491 -0.1685282 -0.2371273
vn -0.8623279 -0.4610783 -0.209278
vn -0.9788045 -0.1990717 -0.04808622
vn -0.9553254 0.08604278 0.2827541
vn -0.9636945 -0.1954537 0.1819088
vn 0.6744026 0.6244581 0.3939965
vn 0.4750121 0.6485499 0.5947659
vn 0.9892369 0.1458131 -0.01219952
vn 0.9536275 0.2618058 -0.1485002
vn 0.9171278 0.3728383 -0.1409542
vn 0.5035102 0.6416801 -0.5785535
vn 0.6893479 0.6188726 -0.3765582
vn 0.7164864 -0.5418061 -0.439424
vn 0.7050299 -0.6152838 -0.3526452
vn 0.4902768 -0.667496 -0.5604265
vn 0.9142346 -0.3778869 -0.1462074
vn 0.869724 -0.4216742 -0.2564587
vn 0.8624268 -0.4609022 0.209259
vn 0.9752385 -0.2174609 0.04025813
vn 0.9335412 -0.3046738 0.1888771
vn 0.9888829 -0.147544 -0.01847423
vn 0.8046736 0.4707153 -0.3618392
vn 0.8616421 0.4112757 0.2973638
vn 0.9125631 0.3843015 0.1397888
vn 0.9595887 0.2477067 0.1335327
vn 0.9646695 -0.1778874 -0.1943417
vn 0.7056514 -0.559481 0.434784
vn 0.5703571 -0.6774641 0.4644729
vn 0.7227432 0.501848 0.4751745
vn 0.9602551 0.1200349 -0.2519957
vn 0.7900456 0.2781859 -0.5462973
vn 0.7232996 0.2092221 -0.6580758
vn 0.5057796 0.4646758 -0.7268174
vn 0.4840369 0.2636109 -0.8343965
vn 0.8546507 0.05956079 -0.5157759
vn 0.8557482 -0.1111107 -0.505321
vn 0.6994877 -0.07149967 -0.7110588
vn 0.5620942 0.04513541 -0.8258408
vn 0.5049235 -0.1945938 -0.8409432
vn 0.8663649 -0.2362641 -0.4399898
vn 0.8426794 -0.3737188 -0.3875893
vn 0.7144561 -0.4181329 -0.5609968
vn 0.4783668 -0.5216478 -0.706434
vn 0.7985551 0.3925547 -0.4563011
vn 0.6113516 -0.3014653 -0.7316883
vn 0.9555276 -0.1819316 0.2320946
vn 0.8550669 -0.366138 0.3671561
vn 0.4969691 -0.6053526 0.6217474
vn 0.6942409 -0.4314747 0.5760722
vn 0.4957711 -0.4096572 0.7657624
vn 0.8036742 -0.2615756 0.5344959
vn 0.924648 -0.08790619 0.3705382
vn 0.7169784 -0.1657725 0.6770978
vn 0.4794403 -0.2100715 0.8520604
vn 0.6079496 0.005949763 0.7939534
vn 0.8570961 0.01741189 0.5148624
vn 0.5074161 0.1385642 0.8504874
vn 0.8631386 0.1505907 0.48199
vn 0.6136764 0.2570773 0.7465336
vn 0.479544 0.4765841 0.7368209
vn 0.7155666 0.3627983 0.5969438
vn 0.8584946 0.3072057 0.4106235
vn -1 2.905482e-05 0.0001735871
vn -0.9999993 0.001109912 0.000167462
vn -1 0.0002690753 -0.0001386305
vn -0.9999995 -0.0004591215 -0.0008983664
vn -0.9999956 0.0006571672 0.002906966
vn -0.9999999 -0.0001335639 -0.0003825806
vn -0.9999996 -0.000377951 0.0007342162
vn -0.9999998 -0.0005624852 0.0002679389
vn -0.9999999 -0.0002694885 -0.0002702593
vn -0.9999999 0.0001414526 -0.0003458432
vn -1 -0.0001549317 -1.670774e-05
vn -1 -0.0001558399 -0.0001654003
vn -1 -1.731054e-05 -0.0001820919
vn 1 4.592786e-05 1.177386e-05
vn 1 2.10736e-06 -8.361162e-05
vn 0.9999999 0.0002315745 -7.427736e-05
vn 1 9.34618e-05 6.810814e-05
vn 1 0.0002197876 0.0001295387
vn 1 0.0001486635 0.0001054705
vn 0.9999999 0.0003250091 0.000135974
vn 0.9999995 0.001010885 -0.0001105567
vn 0.9999999 0.0005230091 9.409424e-05
vn 1 -3.323697e-05 -0.0002857228
vn 0.9999996 -1.954034e-05 -0.0008083237
vn -0.716154 0.6976815 0.01907836
vn -0.724665 0.6380243 0.2603568
vn -0.7086174 0.6820664 0.180684
vn -0.7067059 0.5889161 0.3921029
vn -0.7153198 0.4559048 0.5295928
vn -0.7119574 0.4550224 0.5348562
vn -0.7201207 0.2048901 0.6629074
vn -0.7085401 0.310067 0.6339002
vn -0.7160262 0.08030005 0.6934395
vn -0.7283106 -0.1753571 0.6624301
vn -0.7084646 -0.08188167 0.7009802
vn -0.7159532 -0.3073657 0.6268471
vn -0.7282503 -0.5056727 0.4625436
vn -0.708397 -0.4478775 0.5455084
vn -0.7159017 -0.5974877 0.3612384
vn -0.728223 -0.6754852 0.1158062
vn -0.7083587 -0.6717193 0.2168435
vn -0.7158885 -0.6979546 -0.01905717
vn -0.7244295 -0.6383007 -0.2603343
vn -0.7083632 -0.6823359 -0.1806636
vn -0.7064931 -0.5891849 -0.3920824
vn -0.7151616 -0.4561773 -0.5295717
vn -0.7117997 -0.4552934 -0.5348357
vn -0.7161658 -0.2156768 -0.6637696
vn -0.7084409 -0.3103372 -0.6338788
vn -0.7065934 -0.08955638 -0.7019298
vn -0.7152705 0.1014505 -0.6914448
vn -0.7119088 0.1060086 -0.6942248
vn -0.7162742 0.3603657 -0.5975682
vn -0.7085513 0.2757876 -0.6495354
vn -0.7066974 0.4717975 -0.5272437
vn -0.715359 0.5889563 -0.3760213
vn -0.7119971 0.5940422 -0.3743982
vn -0.7202238 0.6851904 -0.10859
vn -0.708621 0.6714492 -0.2168236
vn 0.7161533 -0.6976836 0.01903084
vn 0.728478 -0.6306207 0.2676515
vn 0.7086214 -0.6820745 0.1806376
vn 0.7161493 -0.5765951 0.3932787
vn 0.7284283 -0.3857718 0.566191
vn 0.708595 -0.4761215 0.52077
vn 0.716091 -0.2724135 0.6426544
vn 0.7283701 -0.01836517 0.6849378
vn 0.7085226 -0.1189416 0.6955923
vn 0.7160087 0.1182938 0.6879957
vn 0.7282945 0.354862 0.5862253
vn 0.7084467 0.2760335 0.649545
vn 0.7159388 0.4715008 0.5148967
vn 0.7282409 0.6154932 0.3013856
vn 0.7083856 0.5834094 0.3972699
vn 0.7158947 0.6750537 0.178318
vn 0.7282225 0.6807554 -0.07914578
vn 0.7083547 0.7056047 0.01885961
vn 0.7158913 0.6643243 -0.2148784
vn 0.7282462 0.5299256 -0.434553
vn 0.7083691 0.6038154 -0.3655411
vn 0.7159287 0.4427205 -0.5398563
vn 0.7283038 0.2108917 -0.6519957
vn 0.7084215 0.3103628 -0.6338878
vn 0.7159953 0.08059854 -0.6934368
vn 0.7283772 -0.1750545 -0.6624368
vn 0.7084953 -0.0815863 -0.7009835
vn 0.7160703 -0.3070689 -0.6268588
vn 0.728443 -0.5053779 -0.4625623
vn 0.7085672 -0.4475875 -0.5455254
vn 0.7161292 -0.5972015 -0.3612608
vn 0.7284796 -0.6752042 -0.1158305
vn 0.708614 -0.6714416 -0.2168695
f 1//1 2//2 3//3
f 1//1 3//3 4//4
f 4//4 3//3 5//5
f 4//4 5//5 6//6
f 6//6 5//5 7//7
f 6//6 7//7 8//8
f 6//6 8//8 9//9
f 9//9 8//8 10//10
f 9//9 10//10 11//11
f 9//9 11//11 12//12
f 12//12 11//11 13//13
f 12//12 13//13 14//14
f 12//12 14//14 15//15
f 15//15 14//14 16//16
f 15//15 16//16 17//17
f 15//15 17//17 18//18
f 18//18 17//17 19//19
f 18//18 19//19 20//20
f 20//20 19//19 21//21
f 20//20 21//21 22//22
f 20//20 22//22 23//23
f 23//23 22//22 24//24
f 23//23 24//24 25//25
f 25//25 24//24 26//26
f 25//25 26//26 27//27
f 25//25 27//27 28//28
f 28//28 27//27 29//29
f 28//28 29//29 30//30
f 30//30 29//29 31//31
f 30//30 31//31 32//32
f 30//30 32//32 33//33
f 33//33 32//32 34//34
f 33//33 34//34 35//35
f 33//33 35//35 1//1
f 1//1 35//35 2//2
f 36//36 37//37 38//38
f 38//38 37//37 39//39
f 38//38 39//39 40//40
f 38//38 40//40 41//41
f 41//41 40//40 42//42
f 41//41 42//42 43//43
f 43//43 42//42 44//44
f 43//43 44//44 45//45
f 43//43 45//45 46//46
f 46//46 45//45 47//47
f 46//46 47//47 48//48
f 48//48 47//47 49//49
f 48//48 49//49 50//50
f 48//48 50//50 51//51
f 51//51 50//50 52//52
f 51//51 52//52 53//53
f 51//51 53//53 54//54
f 54//54 53//53 55//55
f 54//54 55//55 56//56
f 54//54 56//56 57//57
f 57//57 56//56 58//58
f 57//57 58//58 59//59
f 59//59 58//58 60//60
f 59//59 60//60 61//61
f 59//59 61//61 62//62
f 62//62 61//61 63//63
f 62//62 63//63 64//64
f 64//64 63//63 65//65
f 64//64 65//65 66//66
f 64//64 66//66 67//67
f 67//67 66//66 68//68
f 67//67 68//68 69//69
f 69//69 68//68 70//70
f 69//69 70//70 71//71
f 69//69 71//71 36//36
f 36//36 71//71 37//37
f 82//72 72//73 73//74
f 74//75 75//76 76//77
f 73//74 79//78 82//72
f 82//72 79//78 98//79
f 98//79 79//78 80//80
f 72//73 81//81 77//82
f 77//82 81//81 78//83
f 72//73 82//72 83//84
f 86//85 87//86 88//87
f 77//82 78//83 86//85
f 77//82 86//85 88//87
f 72//73 83//84 81//81
f 74//75 89//88 90//89
f 74//75 90//89 85//90
f 74//75 76//77 89//88
f 91//91 92//92 75//76
f 75//76 92//92 76//77
f 93//93 94//94 96//95
f 85//90 90//89 84//96
f 88//87 87//86 95//97
f 96//95 94//94 97//98
f 96//95 97//98 99//99
f 85//90 84//96 98//79
f 96//95 91//91 75//76
f 98//79 80//80 85//90
f 88//87 95//97 99//99
f 97//98 100//100 99//99
f 99//99 100//100 88//87
f 93//93 96//95 75//76
f 103//101 102//102 104//103
f 102//102 103//101 105//104
f 106//105 107//106 108//107
f 108//107 107//106 104//103
f 104//103 107//106 103//101
f 105//104 101//108 102//102
f 110//109 111//110 112//111
f 113//112 114//113 125//114
f 109//115 115//116 118//117
f 118//117 115//116 116//118
f 118//117 116//118 126//119
f 102//102 101//108 117//120
f 108//107 118//117 106//105
f 111//110 110//109 119//121
f 120//122 121//123 113//112
f 113//112 121//123 112//111
f 112//111 121//123 110//109
f 125//114 114//113 122//124
f 125//114 122//124 117//120
f 122//124 123//125 117//120
f 117//120 123//125 102//102
f 109//115 118//117 108//107
f 111//110 119//121 124//126
f 113//112 125//114 120//122
f 111//110 124//126 126//119
f 116//118 127//127 126//119
f 126//119 127//127 111//110
f 128//128 129//129 20//130
f 20//130 129//129 18//131
f 128//128 20//130 23//132
f 128//128 23//132 25//133
f 25//133 130//134 128//128
f 28//135 130//134 25//133
f 30//136 131//137 28//135
f 28//135 131//137 130//134
f 33//138 132//139 30//136
f 30//136 132//139 131//137
f 1//140 134//141 33//138
f 33//138 134//141 132//139
f 12//142 133//143 9//144
f 4//145 134//141 1//140
f 135//146 6//147 9//144
f 9//144 133//143 135//146
f 18//131 129//129 15//148
f 6//147 135//146 4//145
f 4//145 135//146 134//141
f 133//143 12//142 136//149
f 15//148 129//129 136//149
f 15//148 136//149 12//142
f 54//150 137//151 51//152
f 62//153 138//154 59//155
f 138//154 62//153 64//156
f 138//154 64//156 139//157
f 46//158 48//159 140//160
f 48//159 141//161 140//160
f 51//152 137//151 141//161
f 51//152 141//161 48//159
f 54//150 142//162 137//151
f 142//162 54//150 143//163
f 143//163 54//150 57//164
f 138//154 143//163 59//155
f 59//155 143//163 57//164
f 36//165 144//166 69//167
f 67//168 69//167 145//169
f 69//167 144//166 145//169
f 144//166 36//165 38//170
f 144//166 38//170 146//171
f 145//169 139//157 67//168
f 67//168 139//157 64//156
f 146//171 38//170 41//172
f 146//171 41//172 147//173
f 46//158 140//160 43//174
f 43//174 140//160 147//173
f 43//174 147//173 41//172
f 112//175 74//176 113//177
f 113//177 74//176 85//178
f 113//177 85//178 114//179
f 114//179 85//178 80//180
f 114//179 80//180 122//181
f 122//181 80//180 79//182
f 122//181 79//182 123//183
f 123//183 79//182 73//184
f 123//183 73//184 72//185
f 123//183 72//185 102//186
f 102//186 72//185 77//187
f 102//186 77//187 104//188
f 104//188 77//187 88//189
f 104//188 88//189 108//190
f 108//190 88//189 109//191
f 109//191 88//189 100//192
f 109//191 100//192 115//193
f 115//193 100//192 97//194
f 115//193 97//194 116//195
f 116//195 97//194 94//196
f 116//195 94//196 127//197
f 127//197 94//196 93//198
f 127//197 93//198 111//199
f 111//199 93//198 75//200
f 111//199 75//200 112//175
f 112//175 75//200 74//176
f 118//117 126//119 148//201
f 148//201 126//119 149//202
f 148//201 149//202 150//203
f 150//203 149//202 151//204
f 150//203 151//204 152//205
f 152//205 151//204 153//206
f 152//205 153//206 154//207
f 152//205 154//207 155//208
f 155//208 154//207 156//209
f 156//209 154//207 157//210
f 156//209 157//210 158//211
f 158//211 157//210 159//212
f 158//211 159//212 160//213
f 158//211 160//213 161//214
f 161//214 160//213 162//215
f 162//215 160//213 163//216
f 162//215 163//216 164//217
f 164//217 163//216 165//218
f 164//217 165//218 166//219
f 164//217 166//219 167//220
f 167//220 166//219 99//99
f 99//99 166//219 96//95
f 82//72 98//79 168//221
f 168//221 98//79 169//222
f 168//221 169//222 170//223
f 168//221 170//223 171//224
f 171//224 170//223 172//225
f 172//225 170//223 173//226
f 172//225 173//226 174//227
f 174//227 173//226 175//228
f 174//227 175//228 176//229
f 174//227 176//229 177//230
f 177//230 176//229 178//231
f 178//231 176//229 179//232
f 178//231 179//232 180//233
f 180//233 179//232 181//234
f 180//233 181//234 182//235
f 180//233 182//235 183//236
f 183//236 182//235 184//237
f 184//237 182//235 185//238
f 184//237 185//238 186//239
f 186//239 185//238 187//240
f 186//239 187//240 117//120
f 117//120 187//240 125//114
f 82//72 188//241 83//242
f 81//243 137//151 78//244
f 106//245 193//246 107//247
f 107//247 145//169 103//248
f 117//120 101//249 194//250
f 99//99 95//251 195//252
f 99//99 195//252 167//220
f 167//220 195//252 164//217
f 164//217 195//252 196//253
f 164//217 196//253 162//215
f 162//215 196//253 197//254
f 162//215 197//254 161//214
f 161//214 197//254 158//211
f 158//211 197//254 198//255
f 158//211 198//255 156//209
f 156//209 198//255 199//256
f 156//209 199//256 155//208
f 155//208 199//256 152//205
f 152//205 199//256 200//257
f 152//205 200//257 150//203
f 150//203 200//257 192//258
f 150//203 192//258 148//201
f 148//201 192//258 118//117
f 118//117 192//258 106//245
f 117//120 194//250 201//259
f 117//120 201//259 186//239
f 186//239 201//259 184//237
f 184//237 201//259 202//260
f 184//237 202//260 183//236
f 183//236 202//260 180//233
f 180//233 202//260 203//261
f 180//233 203//261 204//262
f 180//233 204//262 178//231
f 178//231 204//262 177//230
f 177//230 204//262 205//263
f 177//230 205//263 174//227
f 174//227 205//263 206//264
f 174//227 206//264 172//225
f 172//225 206//264 171//224
f 171//224 206//264 207//265
f 171//224 207//265 168//221
f 168//221 207//265 188//241
f 168//221 188//241 82//72
f 95//251 208//266 195//252
f 195//252 208//266 209//267
f 195//252 209//267 210//268
f 195//252 210//268 196//253
f 196//253 210//268 211//269
f 196//253 211//269 197//254
f 197//254 211//269 198//255
f 198//255 212//270 199//256
f 199//256 212//270 213//271
f 199//256 213//271 200//257
f 200//257 213//271 214//272
f 200//257 214//272 215//273
f 200//257 215//273 192//258
f 192//258 215//273 106//245
f 201//259 194//250 216//274
f 201//259 216//274 202//260
f 202//260 216//274 217//275
f 202//260 217//275 203//261
f 204//262 203//261 218//276
f 204//262 218//276 219//277
f 204//262 219//277 205//263
f 205//263 219//277 220//278
f 205//263 220//278 206//264
f 206//264 220//278 207//265
f 207//265 189//279 188//241
f 188//241 189//279 83//242
f 193//246 106//245 215//273
f 193//246 215//273 214//272
f 213//271 212//270 221//280
f 221//280 212//270 198//255
f 221//280 198//255 211//269
f 221//280 211//269 222//281
f 222//281 211//269 210//268
f 209//267 208//266 191//282
f 101//249 105//283 223//284
f 101//249 223//284 194//250
f 194//250 223//284 224//285
f 194//250 224//285 216//274
f 216//274 224//285 217//275
f 217//275 225//286 203//261
f 203//261 225//286 218//276
f 220//278 226//287 207//265
f 207//265 226//287 189//279
f 189//279 226//287 190//288
f 189//279 190//288 83//242
f 83//242 190//288 81//243
f 145//169 107//247 193//246
f 193//246 214//272 227//289
f 227//289 214//272 213//271
f 227//289 213//271 139//157
f 139//157 213//271 221//280
f 139//157 221//280 138//154
f 138//154 221//280 222//281
f 222//281 210//268 228//290
f 228//290 210//268 209//267
f 228//290 209//267 191//282
f 87//291 86//292 191//282
f 103//248 146//171 105//283
f 105//283 146//171 223//284
f 223//284 146//171 224//285
f 224//285 229//293 217//275
f 217//275 229//293 225//286
f 225//286 229//293 140//160
f 225//286 140//160 218//276
f 218//276 140//160 219//277
f 219//277 140//160 141//161
f 219//277 141//161 220//278
f 220//278 141//161 230//294
f 220//278 230//294 226//287
f 226//287 230//294 190//288
f 190//288 230//294 137//151
f 190//288 137//151 81//243
f 191//282 143//163 228//290
f 228//290 143//163 138//154
f 228//290 138//154 222//281
f 227//289 139//157 145//169
f 227//289 145//169 193//246
f 145//169 144//166 103//248
f 103//248 144//166 146//171
f 146//171 147//173 224//285
f 224//285 147//173 229//293
f 229//293 147//173 140//160
f 230//294 141//161 137//151
f 78//244 137//151 142//162
f 78//244 142//162 86//292
f 86//292 142//162 191//282
f 191//282 142//162 143//163
f 87//291 191//282 208//266
f 87//291 208//266 95//251
f 120//295 125//114 234//296
f 110//297 235//298 119//299
f 236//300 126//119 124//301
f 238//302 91//303 237//304
f 237//304 91//303 96//95
f 92//305 91//303 233//306
f 90//307 89//308 239//309
f 76//310 132//139 134//141
f 76//310 134//141 89//308
f 89//308 134//141 239//309
f 110//297 129//129 128//128
f 110//297 128//128 235//298
f 119//299 235//298 241//311
f 119//299 241//311 124//301
f 76//310 92//305 132//139
f 132//139 92//305 233//306
f 120//295 231//312 121//313
f 121//313 231//312 232//314
f 121//313 232//314 110//297
f 110//297 232//314 129//129
f 252//315 132//139 233//306
f 238//302 233//306 91//303
f 90//307 239//309 240//316
f 90//307 240//316 84//317
f 124//301 241//311 236//300
f 136//149 129//129 232//314
f 242//318 231//312 120//295
f 242//318 120//295 234//296
f 128//128 130//134 243//319
f 244//320 245//321 246//322
f 246//322 245//321 247//323
f 246//322 247//323 153//206
f 153//206 247//323 154//207
f 130//134 131//137 248//324
f 248//324 131//137 249//325
f 248//324 249//325 250//326
f 258//327 250//326 251//328
f 258//327 251//328 159//212
f 159//212 251//328 160//213
f 253//329 252//315 254//330
f 253//329 254//330 255//331
f 165//218 256//332 166//219
f 149//202 126//119 236//300
f 257//333 236//300 241//311
f 257//333 241//311 235//298
f 235//298 128//128 243//319
f 235//298 243//319 257//333
f 236//300 257//333 246//322
f 236//300 246//322 149//202
f 149//202 246//322 151//204
f 153//206 151//204 246//322
f 244//320 246//322 257//333
f 244//320 257//333 243//319
f 248//324 245//321 244//320
f 248//324 244//320 243//319
f 243//319 130//134 248//324
f 245//321 248//324 258//327
f 245//321 258//327 247//323
f 247//323 258//327 154//207
f 154//207 258//327 157//210
f 159//212 157//210 258//327
f 250//326 258//327 248//324
f 259//334 251//328 250//326
f 259//334 250//326 249//325
f 249//325 131//137 253//329
f 249//325 253//329 259//334
f 251//328 259//334 160//213
f 160//213 259//334 163//216
f 165//218 163//216 256//332
f 256//332 163//216 259//334
f 256//332 259//334 255//331
f 255//331 259//334 253//329
f 252//315 253//329 131//137
f 237//304 166//219 256//332
f 237//304 256//332 238//302
f 238//302 256//332 255//331
f 238//302 255//331 254//330
f 132//139 252//315 131//137
f 254//330 252//315 233//306
f 254//330 233//306 238//302
f 166//219 237//304 96//95
f 134//141 135//146 239//309
f 239//309 135//146 260//335
f 239//309 260//335 261//336
f 239//309 261//336 240//316
f 84//317 240//316 262//337
f 84//317 262//337 98//79
f 98//79 262//337 169//222
f 170//223 169//222 262//337
f 263//338 262//337 240//316
f 263//338 240//316 261//336
f 264//339 170//223 262//337
f 264//339 262//337 263//338
f 265//340 263//338 261//336
f 265//340 261//336 260//335
f 173//226 170//223 264//339
f 265//340 264//339 263//338
f 260//335 135//146 266//341
f 260//335 266//341 265//340
f 265//340 266//341 267//342
f 265//340 267//342 264//339
f 264//339 267//342 268//343
f 264//339 268//343 173//226
f 173//226 268//343 175//228
f 176//229 175//228 268//343
f 269//344 176//229 268//343
f 269//344 268//343 267//342
f 269//344 267//342 270//345
f 270//345 267//342 266//341
f 270//345 266//341 133//143
f 133//143 266//341 135//146
f 179//232 176//229 271//346
f 271//346 176//229 269//344
f 270//345 133//143 272//347
f 270//345 272//347 269//344
f 269//344 272//347 273//348
f 269//344 273//348 271//346
f 179//232 271//346 181//234
f 182//235 181//234 273//348
f 273//348 181//234 271//346
f 274//349 182//235 273//348
f 274//349 273//348 275//350
f 275//350 273//348 276//351
f 276//351 273//348 272//347
f 276//351 272//347 136//149
f 136//149 272//347 133//143
f 185//238 182//235 274//349
f 275//350 276//351 242//318
f 275//350 242//318 274//349
f 274//349 242//318 234//296
f 274//349 234//296 185//238
f 185//238 234//296 187//240
f 125//114 187//240 234//296
f 231//312 242//318 276//351
f 231//312 276//351 232//314
f 232//314 276//351 136//149
f 278//352 279//353 277//354
f 280//355 281//356 278//352
f 282//357 283//358 278//352
f 278//352 283//358 280//355
f 284//359 285//360 278//352
f 278//352 285//360 282//357
f 286//361 287//362 278//352
f 278//352 287//362 284//359
f 278//352 288//363 286//361
f 277//354 289//364 278//352
f 278//352 289//364 288//363
f 290//365 291//366 292//367
f 292//367 293//368 290//365
f 294//369 295//370 292//367
f 292//367 295//370 293//368
f 292//367 296//371 294//369
f 297//372 298//373 292//367
f 292//367 298//373 296//371
f 299//374 300//375 292//367
f 292//367 291//366 299//374
f 71//376 284//377 37//378
f 37//378 284//377 39//379
f 39//379 284//377 287//380
f 39//379 287//380 40//381
f 40//381 287//380 286//382
f 40//381 286//382 42//383
f 42//383 286//382 44//384
f 44//384 286//382 288//385
f 44//384 288//385 45//386
f 45//386 288//385 47//387
f 47//387 288//385 289//388
f 47//387 289//388 49//389
f 49//389 289//388 50//390
f 50//390 289//388 277//391
f 50//390 277//391 52//392
f 52//392 277//391 53//393
f 53//393 277//391 279//394
f 53//393 279//394 55//395
f 55//395 279//394 56//396
f 56//396 279//394 278//397
f 56//396 278//397 58//398
f 58//398 278//397 281//399
f 58//398 281//399 60//400
f 60//400 281//399 61//401
f 61//401 281//399 280//402
f 61//401 280//402 63//403
f 63//403 280//402 283//404
f 63//403 283//404 65//405
f 65//405 283//404 66//406
f 66//406 283//404 282//407
f 66//406 282//407 68//408
f 68//408 282//407 285//409
f 68//408 285//409 70//410
f 70//410 285//409 71//376
f 71//376 285//409 284//377
f 35//411 297//412 2//413
f 2//413 297//412 3//414
f 3//414 297//412 292//415
f 3//414 292//415 5//416
f 5//416 292//415 7//417
f 7//417 292//415 300//418
f 7//417 300//418 8//419
f 8//419 300//418 10//420
f 10//420 300//418 299//421
f 10//420 299//421 11//422
f 11//422 299//421 13//423
f 13//423 299//421 291//424
f 13//423 291//424 14//425
f 14//425 291//424 16//426
f 16//426 291//424 290//427
f 16//426 290//427 17//428
f 17//428 290//427 19//429
f 19//429 290//427 293//430
f 19//429 293//430 21//431
f 21//431 293//430 22//432
f 22//432 293//430 295//433
f 22//432 295//433 24//434
f 24//434 295//433 26//435
f 26//435 295//433 294//436
f 26//435 294//436 27//437
f 27//437 294//436 29//438
f 29//438 294//436 296//439
f 29//438 296//439 31//440
f 31//440 296//439 32//441
f 32//441 296//439 298//442
f 32//441 298//442 34//443
f 34//443 298//442 35//411
f 35//411 298//442 297//412
